<?xml version="1.0" encoding="utf-8"?>
<svg xmlns="http://www.w3.org/2000/svg" xmlns:xlink="http://www.w3.org/1999/xlink" width="600" height="400" viewBox="0 0 2400 1600">
<defs>
  <clipPath id="clip040">
    <rect x="0" y="0" width="2400" height="1600"/>
  </clipPath>
</defs>
<path clip-path="url(#clip040)" d="M0 1600 L2400 1600 L2400 0 L0 0  Z" fill="#ffffff" fill-rule="evenodd" fill-opacity="1"/>
<defs>
  <clipPath id="clip041">
    <rect x="480" y="0" width="1681" height="1600"/>
  </clipPath>
</defs>
<path clip-path="url(#clip040)" d="M234.612 1423.18 L2352.76 1423.18 L2352.76 123.472 L234.612 123.472  Z" fill="#ffffff" fill-rule="evenodd" fill-opacity="1"/>
<defs>
  <clipPath id="clip042">
    <rect x="234" y="123" width="2119" height="1301"/>
  </clipPath>
</defs>
<polyline clip-path="url(#clip042)" style="stroke:#000000; stroke-linecap:round; stroke-linejoin:round; stroke-width:2; stroke-opacity:0.1; fill:none" points="642.081,1423.18 642.081,123.472 "/>
<polyline clip-path="url(#clip042)" style="stroke:#000000; stroke-linecap:round; stroke-linejoin:round; stroke-width:2; stroke-opacity:0.1; fill:none" points="1076.48,1423.18 1076.48,123.472 "/>
<polyline clip-path="url(#clip042)" style="stroke:#000000; stroke-linecap:round; stroke-linejoin:round; stroke-width:2; stroke-opacity:0.1; fill:none" points="1510.88,1423.18 1510.88,123.472 "/>
<polyline clip-path="url(#clip042)" style="stroke:#000000; stroke-linecap:round; stroke-linejoin:round; stroke-width:2; stroke-opacity:0.1; fill:none" points="1945.29,1423.18 1945.29,123.472 "/>
<polyline clip-path="url(#clip040)" style="stroke:#000000; stroke-linecap:round; stroke-linejoin:round; stroke-width:4; stroke-opacity:1; fill:none" points="234.612,1423.18 2352.76,1423.18 "/>
<polyline clip-path="url(#clip040)" style="stroke:#000000; stroke-linecap:round; stroke-linejoin:round; stroke-width:4; stroke-opacity:1; fill:none" points="642.081,1423.18 642.081,1404.28 "/>
<polyline clip-path="url(#clip040)" style="stroke:#000000; stroke-linecap:round; stroke-linejoin:round; stroke-width:4; stroke-opacity:1; fill:none" points="1076.48,1423.18 1076.48,1404.28 "/>
<polyline clip-path="url(#clip040)" style="stroke:#000000; stroke-linecap:round; stroke-linejoin:round; stroke-width:4; stroke-opacity:1; fill:none" points="1510.88,1423.18 1510.88,1404.28 "/>
<polyline clip-path="url(#clip040)" style="stroke:#000000; stroke-linecap:round; stroke-linejoin:round; stroke-width:4; stroke-opacity:1; fill:none" points="1945.29,1423.18 1945.29,1404.28 "/>
<path clip-path="url(#clip040)" d="M632.359 1451.02 L650.715 1451.02 L650.715 1454.96 L636.641 1454.96 L636.641 1463.43 Q637.659 1463.08 638.678 1462.92 Q639.696 1462.73 640.715 1462.73 Q646.502 1462.73 649.882 1465.9 Q653.261 1469.08 653.261 1474.49 Q653.261 1480.07 649.789 1483.17 Q646.317 1486.25 639.997 1486.25 Q637.821 1486.25 635.553 1485.88 Q633.308 1485.51 630.9 1484.77 L630.9 1480.07 Q632.983 1481.2 635.206 1481.76 Q637.428 1482.32 639.905 1482.32 Q643.909 1482.32 646.247 1480.21 Q648.585 1478.1 648.585 1474.49 Q648.585 1470.88 646.247 1468.77 Q643.909 1466.67 639.905 1466.67 Q638.03 1466.67 636.155 1467.08 Q634.303 1467.5 632.359 1468.38 L632.359 1451.02 Z" fill="#000000" fill-rule="nonzero" fill-opacity="1" /><path clip-path="url(#clip040)" d="M1051.17 1481.64 L1058.81 1481.64 L1058.81 1455.28 L1050.5 1456.95 L1050.5 1452.69 L1058.76 1451.02 L1063.44 1451.02 L1063.44 1481.64 L1071.08 1481.64 L1071.08 1485.58 L1051.17 1485.58 L1051.17 1481.64 Z" fill="#000000" fill-rule="nonzero" fill-opacity="1" /><path clip-path="url(#clip040)" d="M1090.52 1454.1 Q1086.91 1454.1 1085.08 1457.66 Q1083.28 1461.2 1083.28 1468.33 Q1083.28 1475.44 1085.08 1479.01 Q1086.91 1482.55 1090.52 1482.55 Q1094.16 1482.55 1095.96 1479.01 Q1097.79 1475.44 1097.79 1468.33 Q1097.79 1461.2 1095.96 1457.66 Q1094.16 1454.1 1090.52 1454.1 M1090.52 1450.39 Q1096.33 1450.39 1099.39 1455 Q1102.47 1459.58 1102.47 1468.33 Q1102.47 1477.06 1099.39 1481.67 Q1096.33 1486.25 1090.52 1486.25 Q1084.71 1486.25 1081.63 1481.67 Q1078.58 1477.06 1078.58 1468.33 Q1078.58 1459.58 1081.63 1455 Q1084.71 1450.39 1090.52 1450.39 Z" fill="#000000" fill-rule="nonzero" fill-opacity="1" /><path clip-path="url(#clip040)" d="M1486.07 1481.64 L1493.71 1481.64 L1493.71 1455.28 L1485.4 1456.95 L1485.4 1452.69 L1493.66 1451.02 L1498.34 1451.02 L1498.34 1481.64 L1505.98 1481.64 L1505.98 1485.58 L1486.07 1485.58 L1486.07 1481.64 Z" fill="#000000" fill-rule="nonzero" fill-opacity="1" /><path clip-path="url(#clip040)" d="M1515.47 1451.02 L1533.82 1451.02 L1533.82 1454.96 L1519.75 1454.96 L1519.75 1463.43 Q1520.77 1463.08 1521.79 1462.92 Q1522.81 1462.73 1523.82 1462.73 Q1529.61 1462.73 1532.99 1465.9 Q1536.37 1469.08 1536.37 1474.49 Q1536.37 1480.07 1532.9 1483.17 Q1529.43 1486.25 1523.11 1486.25 Q1520.93 1486.25 1518.66 1485.88 Q1516.42 1485.51 1514.01 1484.77 L1514.01 1480.07 Q1516.09 1481.2 1518.32 1481.76 Q1520.54 1482.32 1523.01 1482.32 Q1527.02 1482.32 1529.36 1480.21 Q1531.69 1478.1 1531.69 1474.49 Q1531.69 1470.88 1529.36 1468.77 Q1527.02 1466.67 1523.01 1466.67 Q1521.14 1466.67 1519.26 1467.08 Q1517.41 1467.5 1515.47 1468.38 L1515.47 1451.02 Z" fill="#000000" fill-rule="nonzero" fill-opacity="1" /><path clip-path="url(#clip040)" d="M1924.06 1481.64 L1940.38 1481.64 L1940.38 1485.58 L1918.44 1485.58 L1918.44 1481.64 Q1921.1 1478.89 1925.68 1474.26 Q1930.29 1469.61 1931.47 1468.27 Q1933.71 1465.74 1934.59 1464.01 Q1935.5 1462.25 1935.5 1460.56 Q1935.5 1457.8 1933.55 1456.07 Q1931.63 1454.33 1928.53 1454.33 Q1926.33 1454.33 1923.87 1455.09 Q1921.44 1455.86 1918.67 1457.41 L1918.67 1452.69 Q1921.49 1451.55 1923.94 1450.97 Q1926.4 1450.39 1928.44 1450.39 Q1933.81 1450.39 1937 1453.08 Q1940.19 1455.77 1940.19 1460.26 Q1940.19 1462.39 1939.38 1464.31 Q1938.6 1466.2 1936.49 1468.8 Q1935.91 1469.47 1932.81 1472.69 Q1929.71 1475.88 1924.06 1481.64 Z" fill="#000000" fill-rule="nonzero" fill-opacity="1" /><path clip-path="url(#clip040)" d="M1960.19 1454.1 Q1956.58 1454.1 1954.75 1457.66 Q1952.95 1461.2 1952.95 1468.33 Q1952.95 1475.44 1954.75 1479.01 Q1956.58 1482.55 1960.19 1482.55 Q1963.83 1482.55 1965.63 1479.01 Q1967.46 1475.44 1967.46 1468.33 Q1967.46 1461.2 1965.63 1457.66 Q1963.83 1454.1 1960.19 1454.1 M1960.19 1450.39 Q1966 1450.39 1969.06 1455 Q1972.14 1459.58 1972.14 1468.33 Q1972.14 1477.06 1969.06 1481.67 Q1966 1486.25 1960.19 1486.25 Q1954.38 1486.25 1951.31 1481.67 Q1948.25 1477.06 1948.25 1468.33 Q1948.25 1459.58 1951.31 1455 Q1954.38 1450.39 1960.19 1450.39 Z" fill="#000000" fill-rule="nonzero" fill-opacity="1" /><path clip-path="url(#clip040)" d="M1106.18 1520.52 L1146.38 1520.52 L1146.38 1525.93 L1129.51 1525.93 L1129.51 1568.04 L1123.05 1568.04 L1123.05 1525.93 L1106.18 1525.93 L1106.18 1520.52 Z" fill="#000000" fill-rule="nonzero" fill-opacity="1" /><path clip-path="url(#clip040)" d="M1150.33 1532.4 L1156.18 1532.4 L1156.18 1568.04 L1150.33 1568.04 L1150.33 1532.4 M1150.33 1518.52 L1156.18 1518.52 L1156.18 1525.93 L1150.33 1525.93 L1150.33 1518.52 Z" fill="#000000" fill-rule="nonzero" fill-opacity="1" /><path clip-path="url(#clip040)" d="M1196.19 1539.24 Q1198.39 1535.29 1201.44 1533.41 Q1204.5 1531.54 1208.64 1531.54 Q1214.21 1531.54 1217.23 1535.45 Q1220.26 1539.33 1220.26 1546.53 L1220.26 1568.04 L1214.37 1568.04 L1214.37 1546.72 Q1214.37 1541.59 1212.55 1539.11 Q1210.74 1536.63 1207.01 1536.63 Q1202.46 1536.63 1199.82 1539.65 Q1197.18 1542.68 1197.18 1547.9 L1197.18 1568.04 L1191.29 1568.04 L1191.29 1546.72 Q1191.29 1541.56 1189.48 1539.11 Q1187.66 1536.63 1183.88 1536.63 Q1179.39 1536.63 1176.75 1539.68 Q1174.1 1542.71 1174.1 1547.9 L1174.1 1568.04 L1168.22 1568.04 L1168.22 1532.4 L1174.1 1532.4 L1174.1 1537.93 Q1176.11 1534.66 1178.91 1533.1 Q1181.71 1531.54 1185.56 1531.54 Q1189.45 1531.54 1192.15 1533.51 Q1194.89 1535.48 1196.19 1539.24 Z" fill="#000000" fill-rule="nonzero" fill-opacity="1" /><path clip-path="url(#clip040)" d="M1262.43 1548.76 L1262.43 1551.62 L1235.5 1551.62 Q1235.88 1557.67 1239.13 1560.85 Q1242.41 1564 1248.23 1564 Q1251.61 1564 1254.76 1563.17 Q1257.94 1562.35 1261.06 1560.69 L1261.06 1566.23 Q1257.91 1567.57 1254.6 1568.27 Q1251.29 1568.97 1247.88 1568.97 Q1239.35 1568.97 1234.36 1564 Q1229.39 1559.04 1229.39 1550.57 Q1229.39 1541.82 1234.1 1536.69 Q1238.84 1531.54 1246.86 1531.54 Q1254.06 1531.54 1258.23 1536.18 Q1262.43 1540.8 1262.43 1548.76 M1256.57 1547.04 Q1256.51 1542.23 1253.87 1539.37 Q1251.26 1536.5 1246.93 1536.5 Q1242.03 1536.5 1239.07 1539.27 Q1236.14 1542.04 1235.69 1547.07 L1256.57 1547.04 Z" fill="#000000" fill-rule="nonzero" fill-opacity="1" /><path clip-path="url(#clip040)" d="M1306.83 1518.58 Q1302.56 1525.9 1300.5 1533.06 Q1298.43 1540.23 1298.43 1547.58 Q1298.43 1554.93 1300.5 1562.16 Q1302.6 1569.35 1306.83 1576.64 L1301.74 1576.64 Q1296.96 1569.16 1294.57 1561.93 Q1292.22 1554.71 1292.22 1547.58 Q1292.22 1540.48 1294.57 1533.29 Q1296.93 1526.09 1301.74 1518.58 L1306.83 1518.58 Z" fill="#000000" fill-rule="nonzero" fill-opacity="1" /><path clip-path="url(#clip040)" d="M1347.82 1546.53 L1347.82 1568.04 L1341.97 1568.04 L1341.97 1546.72 Q1341.97 1541.66 1339.99 1539.14 Q1338.02 1536.63 1334.07 1536.63 Q1329.33 1536.63 1326.59 1539.65 Q1323.86 1542.68 1323.86 1547.9 L1323.86 1568.04 L1317.97 1568.04 L1317.97 1518.52 L1323.86 1518.52 L1323.86 1537.93 Q1325.96 1534.72 1328.79 1533.13 Q1331.66 1531.54 1335.38 1531.54 Q1341.52 1531.54 1344.67 1535.36 Q1347.82 1539.14 1347.82 1546.53 Z" fill="#000000" fill-rule="nonzero" fill-opacity="1" /><path clip-path="url(#clip040)" d="M1373.32 1536.5 Q1368.61 1536.5 1365.87 1540.19 Q1363.13 1543.85 1363.13 1550.25 Q1363.13 1556.65 1365.84 1560.34 Q1368.58 1564 1373.32 1564 Q1378 1564 1380.73 1560.31 Q1383.47 1556.62 1383.47 1550.25 Q1383.47 1543.92 1380.73 1540.23 Q1378 1536.5 1373.32 1536.5 M1373.32 1531.54 Q1380.96 1531.54 1385.32 1536.5 Q1389.68 1541.47 1389.68 1550.25 Q1389.68 1559 1385.32 1564 Q1380.96 1568.97 1373.32 1568.97 Q1365.65 1568.97 1361.29 1564 Q1356.96 1559 1356.96 1550.25 Q1356.96 1541.47 1361.29 1536.5 Q1365.65 1531.54 1373.32 1531.54 Z" fill="#000000" fill-rule="nonzero" fill-opacity="1" /><path clip-path="url(#clip040)" d="M1398.78 1553.98 L1398.78 1532.4 L1404.64 1532.4 L1404.64 1553.75 Q1404.64 1558.81 1406.61 1561.36 Q1408.58 1563.87 1412.53 1563.87 Q1417.27 1563.87 1420.01 1560.85 Q1422.78 1557.83 1422.78 1552.61 L1422.78 1532.4 L1428.64 1532.4 L1428.64 1568.04 L1422.78 1568.04 L1422.78 1562.57 Q1420.65 1565.82 1417.82 1567.41 Q1415.01 1568.97 1411.29 1568.97 Q1405.15 1568.97 1401.96 1565.15 Q1398.78 1561.33 1398.78 1553.98 M1413.52 1531.54 L1413.52 1531.54 Z" fill="#000000" fill-rule="nonzero" fill-opacity="1" /><path clip-path="url(#clip040)" d="M1461.36 1537.87 Q1460.37 1537.3 1459.19 1537.04 Q1458.05 1536.76 1456.65 1536.76 Q1451.68 1536.76 1449.01 1540 Q1446.37 1543.22 1446.37 1549.27 L1446.37 1568.04 L1440.48 1568.04 L1440.48 1532.4 L1446.37 1532.4 L1446.37 1537.93 Q1448.21 1534.69 1451.17 1533.13 Q1454.13 1531.54 1458.36 1531.54 Q1458.97 1531.54 1459.7 1531.63 Q1460.43 1531.7 1461.32 1531.85 L1461.36 1537.87 Z" fill="#000000" fill-rule="nonzero" fill-opacity="1" /><path clip-path="url(#clip040)" d="M1466.58 1518.58 L1471.67 1518.58 Q1476.44 1526.09 1478.8 1533.29 Q1481.19 1540.48 1481.19 1547.58 Q1481.19 1554.71 1478.8 1561.93 Q1476.44 1569.16 1471.67 1576.64 L1466.58 1576.64 Q1470.81 1569.35 1472.88 1562.16 Q1474.98 1554.93 1474.98 1547.58 Q1474.98 1540.23 1472.88 1533.06 Q1470.81 1525.9 1466.58 1518.58 Z" fill="#000000" fill-rule="nonzero" fill-opacity="1" /><polyline clip-path="url(#clip042)" style="stroke:#000000; stroke-linecap:round; stroke-linejoin:round; stroke-width:2; stroke-opacity:0.1; fill:none" points="234.612,1251.77 2352.76,1251.77 "/>
<polyline clip-path="url(#clip042)" style="stroke:#000000; stroke-linecap:round; stroke-linejoin:round; stroke-width:2; stroke-opacity:0.1; fill:none" points="234.612,921.458 2352.76,921.458 "/>
<polyline clip-path="url(#clip042)" style="stroke:#000000; stroke-linecap:round; stroke-linejoin:round; stroke-width:2; stroke-opacity:0.1; fill:none" points="234.612,591.144 2352.76,591.144 "/>
<polyline clip-path="url(#clip042)" style="stroke:#000000; stroke-linecap:round; stroke-linejoin:round; stroke-width:2; stroke-opacity:0.1; fill:none" points="234.612,260.831 2352.76,260.831 "/>
<polyline clip-path="url(#clip040)" style="stroke:#000000; stroke-linecap:round; stroke-linejoin:round; stroke-width:4; stroke-opacity:1; fill:none" points="234.612,1423.18 234.612,123.472 "/>
<polyline clip-path="url(#clip040)" style="stroke:#000000; stroke-linecap:round; stroke-linejoin:round; stroke-width:4; stroke-opacity:1; fill:none" points="234.612,1251.77 253.509,1251.77 "/>
<polyline clip-path="url(#clip040)" style="stroke:#000000; stroke-linecap:round; stroke-linejoin:round; stroke-width:4; stroke-opacity:1; fill:none" points="234.612,921.458 253.509,921.458 "/>
<polyline clip-path="url(#clip040)" style="stroke:#000000; stroke-linecap:round; stroke-linejoin:round; stroke-width:4; stroke-opacity:1; fill:none" points="234.612,591.144 253.509,591.144 "/>
<polyline clip-path="url(#clip040)" style="stroke:#000000; stroke-linecap:round; stroke-linejoin:round; stroke-width:4; stroke-opacity:1; fill:none" points="234.612,260.831 253.509,260.831 "/>
<path clip-path="url(#clip040)" d="M115.163 1234.49 L137.385 1234.49 L137.385 1236.48 L124.839 1269.05 L119.955 1269.05 L131.76 1238.43 L115.163 1238.43 L115.163 1234.49 Z" fill="#000000" fill-rule="nonzero" fill-opacity="1" /><path clip-path="url(#clip040)" d="M146.552 1234.49 L164.908 1234.49 L164.908 1238.43 L150.834 1238.43 L150.834 1246.9 Q151.853 1246.55 152.871 1246.39 Q153.89 1246.2 154.908 1246.2 Q160.695 1246.2 164.075 1249.38 Q167.454 1252.55 167.454 1257.96 Q167.454 1263.54 163.982 1266.64 Q160.51 1269.72 154.19 1269.72 Q152.015 1269.72 149.746 1269.35 Q147.501 1268.98 145.093 1268.24 L145.093 1263.54 Q147.177 1264.68 149.399 1265.23 Q151.621 1265.79 154.098 1265.79 Q158.103 1265.79 160.44 1263.68 Q162.778 1261.57 162.778 1257.96 Q162.778 1254.35 160.44 1252.25 Q158.103 1250.14 154.098 1250.14 Q152.223 1250.14 150.348 1250.56 Q148.496 1250.97 146.552 1251.85 L146.552 1234.49 Z" fill="#000000" fill-rule="nonzero" fill-opacity="1" /><path clip-path="url(#clip040)" d="M186.667 1237.57 Q183.056 1237.57 181.227 1241.13 Q179.422 1244.68 179.422 1251.81 Q179.422 1258.91 181.227 1262.48 Q183.056 1266.02 186.667 1266.02 Q190.301 1266.02 192.107 1262.48 Q193.936 1258.91 193.936 1251.81 Q193.936 1244.68 192.107 1241.13 Q190.301 1237.57 186.667 1237.57 M186.667 1233.87 Q192.477 1233.87 195.533 1238.47 Q198.612 1243.06 198.612 1251.81 Q198.612 1260.53 195.533 1265.14 Q192.477 1269.72 186.667 1269.72 Q180.857 1269.72 177.778 1265.14 Q174.723 1260.53 174.723 1251.81 Q174.723 1243.06 177.778 1238.47 Q180.857 1233.87 186.667 1233.87 Z" fill="#000000" fill-rule="nonzero" fill-opacity="1" /><path clip-path="url(#clip040)" d="M126.343 922.326 Q123.01 922.326 121.089 924.108 Q119.191 925.89 119.191 929.015 Q119.191 932.14 121.089 933.923 Q123.01 935.705 126.343 935.705 Q129.677 935.705 131.598 933.923 Q133.519 932.117 133.519 929.015 Q133.519 925.89 131.598 924.108 Q129.7 922.326 126.343 922.326 M121.668 920.335 Q118.658 919.594 116.968 917.534 Q115.302 915.474 115.302 912.511 Q115.302 908.367 118.242 905.96 Q121.205 903.553 126.343 903.553 Q131.505 903.553 134.445 905.96 Q137.385 908.367 137.385 912.511 Q137.385 915.474 135.695 917.534 Q134.029 919.594 131.042 920.335 Q134.422 921.122 136.297 923.414 Q138.195 925.705 138.195 929.015 Q138.195 934.039 135.117 936.724 Q132.061 939.409 126.343 939.409 Q120.626 939.409 117.547 936.724 Q114.492 934.039 114.492 929.015 Q114.492 925.705 116.39 923.414 Q118.288 921.122 121.668 920.335 M119.955 912.951 Q119.955 915.636 121.621 917.141 Q123.311 918.645 126.343 918.645 Q129.353 918.645 131.042 917.141 Q132.755 915.636 132.755 912.951 Q132.755 910.266 131.042 908.761 Q129.353 907.256 126.343 907.256 Q123.311 907.256 121.621 908.761 Q119.955 910.266 119.955 912.951 Z" fill="#000000" fill-rule="nonzero" fill-opacity="1" /><path clip-path="url(#clip040)" d="M156.505 907.256 Q152.894 907.256 151.066 910.821 Q149.26 914.363 149.26 921.492 Q149.26 928.599 151.066 932.164 Q152.894 935.705 156.505 935.705 Q160.14 935.705 161.945 932.164 Q163.774 928.599 163.774 921.492 Q163.774 914.363 161.945 910.821 Q160.14 907.256 156.505 907.256 M156.505 903.553 Q162.315 903.553 165.371 908.159 Q168.45 912.742 168.45 921.492 Q168.45 930.219 165.371 934.826 Q162.315 939.409 156.505 939.409 Q150.695 939.409 147.616 934.826 Q144.561 930.219 144.561 921.492 Q144.561 912.742 147.616 908.159 Q150.695 903.553 156.505 903.553 Z" fill="#000000" fill-rule="nonzero" fill-opacity="1" /><path clip-path="url(#clip040)" d="M186.667 907.256 Q183.056 907.256 181.227 910.821 Q179.422 914.363 179.422 921.492 Q179.422 928.599 181.227 932.164 Q183.056 935.705 186.667 935.705 Q190.301 935.705 192.107 932.164 Q193.936 928.599 193.936 921.492 Q193.936 914.363 192.107 910.821 Q190.301 907.256 186.667 907.256 M186.667 903.553 Q192.477 903.553 195.533 908.159 Q198.612 912.742 198.612 921.492 Q198.612 930.219 195.533 934.826 Q192.477 939.409 186.667 939.409 Q180.857 939.409 177.778 934.826 Q174.723 930.219 174.723 921.492 Q174.723 912.742 177.778 908.159 Q180.857 903.553 186.667 903.553 Z" fill="#000000" fill-rule="nonzero" fill-opacity="1" /><path clip-path="url(#clip040)" d="M126.343 592.012 Q123.01 592.012 121.089 593.795 Q119.191 595.577 119.191 598.702 Q119.191 601.827 121.089 603.609 Q123.01 605.392 126.343 605.392 Q129.677 605.392 131.598 603.609 Q133.519 601.804 133.519 598.702 Q133.519 595.577 131.598 593.795 Q129.7 592.012 126.343 592.012 M121.668 590.022 Q118.658 589.281 116.968 587.221 Q115.302 585.16 115.302 582.197 Q115.302 578.054 118.242 575.647 Q121.205 573.239 126.343 573.239 Q131.505 573.239 134.445 575.647 Q137.385 578.054 137.385 582.197 Q137.385 585.16 135.695 587.221 Q134.029 589.281 131.042 590.022 Q134.422 590.809 136.297 593.1 Q138.195 595.392 138.195 598.702 Q138.195 603.725 135.117 606.41 Q132.061 609.095 126.343 609.095 Q120.626 609.095 117.547 606.41 Q114.492 603.725 114.492 598.702 Q114.492 595.392 116.39 593.1 Q118.288 590.809 121.668 590.022 M119.955 582.637 Q119.955 585.322 121.621 586.827 Q123.311 588.332 126.343 588.332 Q129.353 588.332 131.042 586.827 Q132.755 585.322 132.755 582.637 Q132.755 579.952 131.042 578.448 Q129.353 576.943 126.343 576.943 Q123.311 576.943 121.621 578.448 Q119.955 579.952 119.955 582.637 Z" fill="#000000" fill-rule="nonzero" fill-opacity="1" /><path clip-path="url(#clip040)" d="M146.552 573.864 L164.908 573.864 L164.908 577.799 L150.834 577.799 L150.834 586.272 Q151.853 585.924 152.871 585.762 Q153.89 585.577 154.908 585.577 Q160.695 585.577 164.075 588.748 Q167.454 591.92 167.454 597.336 Q167.454 602.915 163.982 606.017 Q160.51 609.095 154.19 609.095 Q152.015 609.095 149.746 608.725 Q147.501 608.355 145.093 607.614 L145.093 602.915 Q147.177 604.049 149.399 604.605 Q151.621 605.16 154.098 605.16 Q158.103 605.16 160.44 603.054 Q162.778 600.947 162.778 597.336 Q162.778 593.725 160.44 591.619 Q158.103 589.512 154.098 589.512 Q152.223 589.512 150.348 589.929 Q148.496 590.346 146.552 591.225 L146.552 573.864 Z" fill="#000000" fill-rule="nonzero" fill-opacity="1" /><path clip-path="url(#clip040)" d="M186.667 576.943 Q183.056 576.943 181.227 580.508 Q179.422 584.049 179.422 591.179 Q179.422 598.285 181.227 601.85 Q183.056 605.392 186.667 605.392 Q190.301 605.392 192.107 601.85 Q193.936 598.285 193.936 591.179 Q193.936 584.049 192.107 580.508 Q190.301 576.943 186.667 576.943 M186.667 573.239 Q192.477 573.239 195.533 577.846 Q198.612 582.429 198.612 591.179 Q198.612 599.906 195.533 604.512 Q192.477 609.095 186.667 609.095 Q180.857 609.095 177.778 604.512 Q174.723 599.906 174.723 591.179 Q174.723 582.429 177.778 577.846 Q180.857 573.239 186.667 573.239 Z" fill="#000000" fill-rule="nonzero" fill-opacity="1" /><path clip-path="url(#clip040)" d="M116.482 277.393 L116.482 273.134 Q118.242 273.967 120.047 274.407 Q121.853 274.847 123.589 274.847 Q128.218 274.847 130.649 271.745 Q133.103 268.62 133.45 262.278 Q132.107 264.268 130.047 265.333 Q127.987 266.398 125.487 266.398 Q120.302 266.398 117.269 263.273 Q114.26 260.125 114.26 254.685 Q114.26 249.361 117.408 246.143 Q120.556 242.926 125.788 242.926 Q131.783 242.926 134.931 247.532 Q138.103 252.116 138.103 260.865 Q138.103 269.037 134.214 273.921 Q130.348 278.782 123.797 278.782 Q122.038 278.782 120.232 278.435 Q118.427 278.088 116.482 277.393 M125.788 262.74 Q128.936 262.74 130.765 260.588 Q132.617 258.435 132.617 254.685 Q132.617 250.958 130.765 248.805 Q128.936 246.629 125.788 246.629 Q122.64 246.629 120.788 248.805 Q118.959 250.958 118.959 254.685 Q118.959 258.435 120.788 260.588 Q122.64 262.74 125.788 262.74 Z" fill="#000000" fill-rule="nonzero" fill-opacity="1" /><path clip-path="url(#clip040)" d="M156.505 246.629 Q152.894 246.629 151.066 250.194 Q149.26 253.736 149.26 260.865 Q149.26 267.972 151.066 271.537 Q152.894 275.078 156.505 275.078 Q160.14 275.078 161.945 271.537 Q163.774 267.972 163.774 260.865 Q163.774 253.736 161.945 250.194 Q160.14 246.629 156.505 246.629 M156.505 242.926 Q162.315 242.926 165.371 247.532 Q168.45 252.116 168.45 260.865 Q168.45 269.592 165.371 274.199 Q162.315 278.782 156.505 278.782 Q150.695 278.782 147.616 274.199 Q144.561 269.592 144.561 260.865 Q144.561 252.116 147.616 247.532 Q150.695 242.926 156.505 242.926 Z" fill="#000000" fill-rule="nonzero" fill-opacity="1" /><path clip-path="url(#clip040)" d="M186.667 246.629 Q183.056 246.629 181.227 250.194 Q179.422 253.736 179.422 260.865 Q179.422 267.972 181.227 271.537 Q183.056 275.078 186.667 275.078 Q190.301 275.078 192.107 271.537 Q193.936 267.972 193.936 260.865 Q193.936 253.736 192.107 250.194 Q190.301 246.629 186.667 246.629 M186.667 242.926 Q192.477 242.926 195.533 247.532 Q198.612 252.116 198.612 260.865 Q198.612 269.592 195.533 274.199 Q192.477 278.782 186.667 278.782 Q180.857 278.782 177.778 274.199 Q174.723 269.592 174.723 260.865 Q174.723 252.116 177.778 247.532 Q180.857 242.926 186.667 242.926 Z" fill="#000000" fill-rule="nonzero" fill-opacity="1" /><path clip-path="url(#clip040)" d="M57.2247 1104.1 L44.4614 1104.1 L44.4614 1114.61 L39.1779 1114.61 L39.1779 1097.74 L59.58 1097.74 Q62.2218 1101.46 63.5904 1105.95 Q64.9272 1110.44 64.9272 1115.53 Q64.9272 1126.67 58.4342 1132.97 Q51.9093 1139.24 40.2919 1139.24 Q28.6427 1139.24 22.1496 1132.97 Q15.6248 1126.67 15.6248 1115.53 Q15.6248 1110.88 16.7706 1106.71 Q17.9164 1102.51 20.1444 1098.98 L26.9876 1098.98 Q23.9639 1102.54 22.4361 1106.55 Q20.9083 1110.57 20.9083 1114.99 Q20.9083 1123.71 25.7781 1128.1 Q30.6479 1132.46 40.2919 1132.46 Q49.9041 1132.46 54.7739 1128.1 Q59.6436 1123.71 59.6436 1114.99 Q59.6436 1111.58 59.0707 1108.91 Q58.466 1106.24 57.2247 1104.1 Z" fill="#000000" fill-rule="nonzero" fill-opacity="1" /><path clip-path="url(#clip040)" d="M44.7161 1055.76 L47.5806 1055.76 L47.5806 1082.68 Q53.6281 1082.3 56.8109 1079.05 Q59.9619 1075.78 59.9619 1069.95 Q59.9619 1066.58 59.1344 1063.43 Q58.3069 1060.24 56.6518 1057.13 L62.1899 1057.13 Q63.5267 1060.28 64.227 1063.59 Q64.9272 1066.9 64.9272 1070.3 Q64.9272 1078.83 59.9619 1083.83 Q54.9967 1088.79 46.5303 1088.79 Q37.7774 1088.79 32.6531 1084.08 Q27.4968 1079.34 27.4968 1071.32 Q27.4968 1064.13 32.1438 1059.96 Q36.7589 1055.76 44.7161 1055.76 M42.9973 1061.61 Q38.1912 1061.68 35.3266 1064.32 Q32.4621 1066.93 32.4621 1071.26 Q32.4621 1076.16 35.2312 1079.12 Q38.0002 1082.05 43.0292 1082.49 L42.9973 1061.61 Z" fill="#000000" fill-rule="nonzero" fill-opacity="1" /><path clip-path="url(#clip040)" d="M42.4881 1016.51 L64.0042 1016.51 L64.0042 1022.37 L42.679 1022.37 Q37.6183 1022.37 35.1038 1024.34 Q32.5894 1026.32 32.5894 1030.26 Q32.5894 1035 35.6131 1037.74 Q38.6368 1040.48 43.8567 1040.48 L64.0042 1040.48 L64.0042 1046.37 L28.3562 1046.37 L28.3562 1040.48 L33.8944 1040.48 Q30.6797 1038.38 29.0883 1035.55 Q27.4968 1032.68 27.4968 1028.96 Q27.4968 1022.81 31.3163 1019.66 Q35.1038 1016.51 42.4881 1016.51 Z" fill="#000000" fill-rule="nonzero" fill-opacity="1" /><path clip-path="url(#clip040)" d="M44.7161 974.339 L47.5806 974.339 L47.5806 1001.27 Q53.6281 1000.88 56.8109 997.638 Q59.9619 994.359 59.9619 988.535 Q59.9619 985.161 59.1344 982.01 Q58.3069 978.827 56.6518 975.708 L62.1899 975.708 Q63.5267 978.859 64.227 982.169 Q64.9272 985.479 64.9272 988.885 Q64.9272 997.415 59.9619 1002.41 Q54.9967 1007.38 46.5303 1007.38 Q37.7774 1007.38 32.6531 1002.67 Q27.4968 997.924 27.4968 989.903 Q27.4968 982.71 32.1438 978.54 Q36.7589 974.339 44.7161 974.339 M42.9973 980.196 Q38.1912 980.259 35.3266 982.901 Q32.4621 985.511 32.4621 989.84 Q32.4621 994.741 35.2312 997.701 Q38.0002 1000.63 43.0292 1001.08 L42.9973 980.196 Z" fill="#000000" fill-rule="nonzero" fill-opacity="1" /><path clip-path="url(#clip040)" d="M33.8307 944.07 Q33.2578 945.057 33.0032 946.234 Q32.7167 947.38 32.7167 948.781 Q32.7167 953.746 35.9632 956.42 Q39.1779 959.061 45.2253 959.061 L64.0042 959.061 L64.0042 964.95 L28.3562 964.95 L28.3562 959.061 L33.8944 959.061 Q30.6479 957.215 29.0883 954.255 Q27.4968 951.295 27.4968 947.062 Q27.4968 946.457 27.5923 945.725 Q27.656 944.993 27.8151 944.102 L33.8307 944.07 Z" fill="#000000" fill-rule="nonzero" fill-opacity="1" /><path clip-path="url(#clip040)" d="M46.0847 921.727 Q46.0847 928.824 47.7079 931.562 Q49.3312 934.299 53.2461 934.299 Q56.3653 934.299 58.2114 932.262 Q60.0256 930.193 60.0256 926.66 Q60.0256 921.79 56.5881 918.862 Q53.1188 915.902 47.3897 915.902 L46.0847 915.902 L46.0847 921.727 M43.6657 910.045 L64.0042 910.045 L64.0042 915.902 L58.5933 915.902 Q61.8398 917.907 63.3994 920.899 Q64.9272 923.891 64.9272 928.22 Q64.9272 933.694 61.8716 936.941 Q58.7843 940.155 53.6281 940.155 Q47.6125 940.155 44.5569 936.145 Q41.5014 932.103 41.5014 924.114 L41.5014 915.902 L40.9285 915.902 Q36.8862 915.902 34.6901 918.575 Q32.4621 921.217 32.4621 926.023 Q32.4621 929.079 33.1941 931.975 Q33.9262 934.872 35.3903 937.545 L29.9795 937.545 Q28.7381 934.331 28.1334 931.307 Q27.4968 928.283 27.4968 925.419 Q27.4968 917.684 31.5072 913.865 Q35.5176 910.045 43.6657 910.045 Z" fill="#000000" fill-rule="nonzero" fill-opacity="1" /><path clip-path="url(#clip040)" d="M18.2347 892.19 L28.3562 892.19 L28.3562 880.127 L32.9077 880.127 L32.9077 892.19 L52.2594 892.19 Q56.6199 892.19 57.8613 891.012 Q59.1026 889.803 59.1026 886.142 L59.1026 880.127 L64.0042 880.127 L64.0042 886.142 Q64.0042 892.922 61.4897 895.5 Q58.9434 898.078 52.2594 898.078 L32.9077 898.078 L32.9077 902.375 L28.3562 902.375 L28.3562 898.078 L18.2347 898.078 L18.2347 892.19 Z" fill="#000000" fill-rule="nonzero" fill-opacity="1" /><path clip-path="url(#clip040)" d="M32.4621 858.611 Q32.4621 863.321 36.1542 866.058 Q39.8145 868.796 46.212 868.796 Q52.6095 868.796 56.3017 866.09 Q59.9619 863.353 59.9619 858.611 Q59.9619 853.932 56.2698 851.194 Q52.5777 848.457 46.212 848.457 Q39.8781 848.457 36.186 851.194 Q32.4621 853.932 32.4621 858.611 M27.4968 858.611 Q27.4968 850.972 32.4621 846.611 Q37.4273 842.251 46.212 842.251 Q54.9649 842.251 59.9619 846.611 Q64.9272 850.972 64.9272 858.611 Q64.9272 866.281 59.9619 870.642 Q54.9649 874.97 46.212 874.97 Q37.4273 874.97 32.4621 870.642 Q27.4968 866.281 27.4968 858.611 Z" fill="#000000" fill-rule="nonzero" fill-opacity="1" /><path clip-path="url(#clip040)" d="M33.8307 811.886 Q33.2578 812.873 33.0032 814.051 Q32.7167 815.196 32.7167 816.597 Q32.7167 821.562 35.9632 824.236 Q39.1779 826.877 45.2253 826.877 L64.0042 826.877 L64.0042 832.766 L28.3562 832.766 L28.3562 826.877 L33.8944 826.877 Q30.6479 825.031 29.0883 822.071 Q27.4968 819.111 27.4968 814.878 Q27.4968 814.273 27.5923 813.541 Q27.656 812.809 27.8151 811.918 L33.8307 811.886 Z" fill="#000000" fill-rule="nonzero" fill-opacity="1" /><path clip-path="url(#clip040)" d="M21.7677 778.339 L39.6235 778.339 L39.6235 770.255 Q39.6235 765.767 37.3 763.316 Q34.9765 760.865 30.6797 760.865 Q26.4147 760.865 24.0912 763.316 Q21.7677 765.767 21.7677 770.255 L21.7677 778.339 M16.4842 784.768 L16.4842 770.255 Q16.4842 762.266 20.1126 758.192 Q23.7092 754.086 30.6797 754.086 Q37.7138 754.086 41.3104 758.192 Q44.907 762.266 44.907 770.255 L44.907 778.339 L64.0042 778.339 L64.0042 784.768 L16.4842 784.768 Z" fill="#000000" fill-rule="nonzero" fill-opacity="1" /><path clip-path="url(#clip040)" d="M32.4621 734.225 Q32.4621 738.935 36.1542 741.673 Q39.8145 744.41 46.212 744.41 Q52.6095 744.41 56.3017 741.704 Q59.9619 738.967 59.9619 734.225 Q59.9619 729.546 56.2698 726.809 Q52.5777 724.071 46.212 724.071 Q39.8781 724.071 36.186 726.809 Q32.4621 729.546 32.4621 734.225 M27.4968 734.225 Q27.4968 726.586 32.4621 722.225 Q37.4273 717.865 46.212 717.865 Q54.9649 717.865 59.9619 722.225 Q64.9272 726.586 64.9272 734.225 Q64.9272 741.895 59.9619 746.256 Q54.9649 750.584 46.212 750.584 Q37.4273 750.584 32.4621 746.256 Q27.4968 741.895 27.4968 734.225 Z" fill="#000000" fill-rule="nonzero" fill-opacity="1" /><path clip-path="url(#clip040)" d="M28.3562 711.563 L28.3562 705.706 L56.1743 698.386 L28.3562 691.097 L28.3562 684.19 L56.1743 676.87 L28.3562 669.581 L28.3562 663.724 L64.0042 673.05 L64.0042 679.957 L34.7856 687.628 L64.0042 695.33 L64.0042 702.237 L28.3562 711.563 Z" fill="#000000" fill-rule="nonzero" fill-opacity="1" /><path clip-path="url(#clip040)" d="M44.7161 624.353 L47.5806 624.353 L47.5806 651.279 Q53.6281 650.898 56.8109 647.651 Q59.9619 644.373 59.9619 638.548 Q59.9619 635.174 59.1344 632.023 Q58.3069 628.84 56.6518 625.721 L62.1899 625.721 Q63.5267 628.872 64.227 632.182 Q64.9272 635.493 64.9272 638.898 Q64.9272 647.428 59.9619 652.425 Q54.9967 657.391 46.5303 657.391 Q37.7774 657.391 32.6531 652.68 Q27.4968 647.937 27.4968 639.917 Q27.4968 632.723 32.1438 628.554 Q36.7589 624.353 44.7161 624.353 M42.9973 630.209 Q38.1912 630.273 35.3266 632.914 Q32.4621 635.524 32.4621 639.853 Q32.4621 644.755 35.2312 647.715 Q38.0002 650.643 43.0292 651.089 L42.9973 630.209 Z" fill="#000000" fill-rule="nonzero" fill-opacity="1" /><path clip-path="url(#clip040)" d="M33.8307 594.084 Q33.2578 595.07 33.0032 596.248 Q32.7167 597.394 32.7167 598.794 Q32.7167 603.759 35.9632 606.433 Q39.1779 609.075 45.2253 609.075 L64.0042 609.075 L64.0042 614.963 L28.3562 614.963 L28.3562 609.075 L33.8944 609.075 Q30.6479 607.229 29.0883 604.269 Q27.4968 601.309 27.4968 597.075 Q27.4968 596.471 27.5923 595.739 Q27.656 595.007 27.8151 594.115 L33.8307 594.084 Z" fill="#000000" fill-rule="nonzero" fill-opacity="1" /><path clip-path="url(#clip040)" d="M14.5426 553.152 Q21.8632 557.417 29.0246 559.486 Q36.186 561.555 43.5384 561.555 Q50.8908 561.555 58.1159 559.486 Q65.3091 557.385 72.5979 553.152 L72.5979 558.245 Q65.1182 563.019 57.8931 565.406 Q50.668 567.761 43.5384 567.761 Q36.4406 567.761 29.2474 565.406 Q22.0542 563.051 14.5426 558.245 L14.5426 553.152 Z" fill="#000000" fill-rule="nonzero" fill-opacity="1" /><path clip-path="url(#clip040)" d="M16.4842 541.535 L16.4842 531.954 L48.8219 519.828 L16.4842 507.637 L16.4842 498.057 L64.0042 498.057 L64.0042 504.327 L22.277 504.327 L54.8694 516.581 L54.8694 523.042 L22.277 535.296 L64.0042 535.296 L64.0042 541.535 L16.4842 541.535 Z" fill="#000000" fill-rule="nonzero" fill-opacity="1" /><path clip-path="url(#clip040)" d="M16.4842 489.527 L16.4842 483.034 L56.6518 473.04 L16.4842 463.077 L16.4842 455.852 L56.6518 445.858 L16.4842 435.896 L16.4842 429.371 L64.0042 441.307 L64.0042 449.391 L22.7544 459.417 L64.0042 469.539 L64.0042 477.623 L16.4842 489.527 Z" fill="#000000" fill-rule="nonzero" fill-opacity="1" /><path clip-path="url(#clip040)" d="M14.5426 422.019 L14.5426 416.926 Q22.0542 412.152 29.2474 409.796 Q36.4406 407.409 43.5384 407.409 Q50.668 407.409 57.8931 409.796 Q65.1182 412.152 72.5979 416.926 L72.5979 422.019 Q65.3091 417.785 58.1159 415.716 Q50.8908 413.616 43.5384 413.616 Q36.186 413.616 29.0246 415.716 Q21.8632 417.785 14.5426 422.019 Z" fill="#000000" fill-rule="nonzero" fill-opacity="1" /><path clip-path="url(#clip040)" d="M308.463 63.9476 L308.463 47.7034 L295.095 47.7034 L295.095 40.9789 L316.565 40.9789 L316.565 66.9452 Q311.826 70.3075 306.114 72.0494 Q300.402 73.7508 293.921 73.7508 Q279.742 73.7508 271.722 65.4869 Q263.741 57.1826 263.741 42.3968 Q263.741 27.5705 271.722 19.3066 Q279.742 11.0023 293.921 11.0023 Q299.835 11.0023 305.142 12.4606 Q310.489 13.9189 314.985 16.7545 L314.985 25.464 Q310.448 21.6156 305.344 19.6712 Q300.24 17.7268 294.609 17.7268 Q283.51 17.7268 277.919 23.9246 Q272.37 30.1225 272.37 42.3968 Q272.37 54.6305 277.919 60.8284 Q283.51 67.0263 294.609 67.0263 Q298.944 67.0263 302.346 66.2971 Q305.749 65.5274 308.463 63.9476 Z" fill="#000000" fill-rule="nonzero" fill-opacity="1" /><path clip-path="url(#clip040)" d="M369.997 48.0275 L369.997 51.6733 L335.726 51.6733 Q336.212 59.3701 340.344 63.421 Q344.516 67.4314 351.93 67.4314 Q356.223 67.4314 360.234 66.3781 Q364.285 65.3249 368.255 63.2184 L368.255 70.267 Q364.244 71.9684 360.031 72.8596 Q355.818 73.7508 351.484 73.7508 Q340.627 73.7508 334.268 67.4314 Q327.948 61.1119 327.948 50.3365 Q327.948 39.1965 333.944 32.6746 Q339.979 26.1121 350.188 26.1121 Q359.343 26.1121 364.649 32.0264 Q369.997 37.9003 369.997 48.0275 M362.543 45.84 Q362.462 39.7232 359.1 36.0774 Q355.778 32.4315 350.269 32.4315 Q344.03 32.4315 340.263 35.9558 Q336.536 39.4801 335.969 45.8805 L362.543 45.84 Z" fill="#000000" fill-rule="nonzero" fill-opacity="1" /><path clip-path="url(#clip040)" d="M419.944 45.1919 L419.944 72.576 L412.491 72.576 L412.491 45.4349 Q412.491 38.994 409.979 35.7938 Q407.467 32.5936 402.444 32.5936 Q396.408 32.5936 392.925 36.4419 Q389.441 40.2903 389.441 46.9338 L389.441 72.576 L381.947 72.576 L381.947 27.2059 L389.441 27.2059 L389.441 34.2544 Q392.114 30.163 395.72 28.1376 Q399.366 26.1121 404.105 26.1121 Q411.923 26.1121 415.934 30.9732 Q419.944 35.7938 419.944 45.1919 Z" fill="#000000" fill-rule="nonzero" fill-opacity="1" /><path clip-path="url(#clip040)" d="M473.619 48.0275 L473.619 51.6733 L439.348 51.6733 Q439.834 59.3701 443.966 63.421 Q448.138 67.4314 455.552 67.4314 Q459.846 67.4314 463.856 66.3781 Q467.907 65.3249 471.877 63.2184 L471.877 70.267 Q467.866 71.9684 463.653 72.8596 Q459.441 73.7508 455.106 73.7508 Q444.25 73.7508 437.89 67.4314 Q431.57 61.1119 431.57 50.3365 Q431.57 39.1965 437.566 32.6746 Q443.601 26.1121 453.81 26.1121 Q462.965 26.1121 468.271 32.0264 Q473.619 37.9003 473.619 48.0275 M466.165 45.84 Q466.084 39.7232 462.722 36.0774 Q459.4 32.4315 453.891 32.4315 Q447.652 32.4315 443.885 35.9558 Q440.158 39.4801 439.591 45.8805 L466.165 45.84 Z" fill="#000000" fill-rule="nonzero" fill-opacity="1" /><path clip-path="url(#clip040)" d="M512.143 34.1734 Q510.887 33.4443 509.388 33.1202 Q507.93 32.7556 506.147 32.7556 Q499.828 32.7556 496.425 36.8875 Q493.063 40.9789 493.063 48.6757 L493.063 72.576 L485.569 72.576 L485.569 27.2059 L493.063 27.2059 L493.063 34.2544 Q495.413 30.1225 499.18 28.1376 Q502.947 26.1121 508.335 26.1121 Q509.105 26.1121 510.036 26.2337 Q510.968 26.3147 512.102 26.5172 L512.143 34.1734 Z" fill="#000000" fill-rule="nonzero" fill-opacity="1" /><path clip-path="url(#clip040)" d="M540.58 49.7694 Q531.547 49.7694 528.063 51.8354 Q524.579 53.9013 524.579 58.8839 Q524.579 62.8538 527.172 65.2034 Q529.805 67.5124 534.301 67.5124 Q540.499 67.5124 544.226 63.1374 Q547.993 58.7219 547.993 51.4303 L547.993 49.7694 L540.58 49.7694 M555.447 46.6907 L555.447 72.576 L547.993 72.576 L547.993 65.6895 Q545.441 69.8214 541.633 71.8063 Q537.826 73.7508 532.316 73.7508 Q525.349 73.7508 521.217 69.8619 Q517.125 65.9325 517.125 59.3701 Q517.125 51.7138 522.23 47.825 Q527.374 43.9361 537.542 43.9361 L547.993 43.9361 L547.993 43.2069 Q547.993 38.0623 544.591 35.2672 Q541.228 32.4315 535.111 32.4315 Q531.223 32.4315 527.536 33.3632 Q523.85 34.295 520.447 36.1584 L520.447 29.2718 Q524.539 27.692 528.387 26.9223 Q532.235 26.1121 535.881 26.1121 Q545.725 26.1121 550.586 31.2163 Q555.447 36.3204 555.447 46.6907 Z" fill="#000000" fill-rule="nonzero" fill-opacity="1" /><path clip-path="url(#clip040)" d="M578.173 14.324 L578.173 27.2059 L593.525 27.2059 L593.525 32.9987 L578.173 32.9987 L578.173 57.6282 Q578.173 63.1779 579.671 64.7578 Q581.211 66.3376 585.869 66.3376 L593.525 66.3376 L593.525 72.576 L585.869 72.576 Q577.241 72.576 573.96 69.3758 Q570.678 66.1351 570.678 57.6282 L570.678 32.9987 L565.21 32.9987 L565.21 27.2059 L570.678 27.2059 L570.678 14.324 L578.173 14.324 Z" fill="#000000" fill-rule="nonzero" fill-opacity="1" /><path clip-path="url(#clip040)" d="M620.91 32.4315 Q614.914 32.4315 611.43 37.1306 Q607.947 41.7891 607.947 49.9314 Q607.947 58.0738 611.39 62.7728 Q614.874 67.4314 620.91 67.4314 Q626.864 67.4314 630.348 62.7323 Q633.832 58.0333 633.832 49.9314 Q633.832 41.8701 630.348 37.1711 Q626.864 32.4315 620.91 32.4315 M620.91 26.1121 Q630.632 26.1121 636.181 32.4315 Q641.731 38.7509 641.731 49.9314 Q641.731 61.0714 636.181 67.4314 Q630.632 73.7508 620.91 73.7508 Q611.147 73.7508 605.597 67.4314 Q600.088 61.0714 600.088 49.9314 Q600.088 38.7509 605.597 32.4315 Q611.147 26.1121 620.91 26.1121 Z" fill="#000000" fill-rule="nonzero" fill-opacity="1" /><path clip-path="url(#clip040)" d="M680.377 34.1734 Q679.121 33.4443 677.622 33.1202 Q676.164 32.7556 674.381 32.7556 Q668.062 32.7556 664.659 36.8875 Q661.297 40.9789 661.297 48.6757 L661.297 72.576 L653.803 72.576 L653.803 27.2059 L661.297 27.2059 L661.297 34.2544 Q663.647 30.1225 667.414 28.1376 Q671.181 26.1121 676.569 26.1121 Q677.339 26.1121 678.27 26.2337 Q679.202 26.3147 680.336 26.5172 L680.377 34.1734 Z" fill="#000000" fill-rule="nonzero" fill-opacity="1" /><path clip-path="url(#clip040)" d="M717.119 28.5427 L717.119 35.5912 Q713.959 33.9709 710.556 33.1607 Q707.153 32.3505 703.507 32.3505 Q697.958 32.3505 695.163 34.0519 Q692.408 35.7533 692.408 39.156 Q692.408 41.7486 694.393 43.2475 Q696.378 44.7058 702.373 46.0426 L704.925 46.6097 Q712.865 48.3111 716.187 51.4303 Q719.549 54.509 719.549 60.0587 Q719.549 66.3781 714.526 70.0644 Q709.543 73.7508 700.793 73.7508 Q697.148 73.7508 693.178 73.0216 Q689.248 72.3329 684.873 70.9151 L684.873 63.2184 Q689.005 65.3654 693.016 66.4591 Q697.026 67.5124 700.955 67.5124 Q706.222 67.5124 709.057 65.73 Q711.893 63.9071 711.893 60.6258 Q711.893 57.5877 709.827 55.9673 Q707.801 54.3469 700.874 52.8481 L698.282 52.2405 Q691.355 50.7821 688.276 47.7845 Q685.197 44.7463 685.197 39.4801 Q685.197 33.0797 689.734 29.5959 Q694.271 26.1121 702.616 26.1121 Q706.748 26.1121 710.394 26.7198 Q714.04 27.3274 717.119 28.5427 Z" fill="#000000" fill-rule="nonzero" fill-opacity="1" /><path clip-path="url(#clip040)" d="M758.114 12.096 L766.297 12.096 L766.297 65.6895 L795.747 65.6895 L795.747 72.576 L758.114 72.576 L758.114 12.096 Z" fill="#000000" fill-rule="nonzero" fill-opacity="1" /><path clip-path="url(#clip040)" d="M820.133 32.4315 Q814.138 32.4315 810.654 37.1306 Q807.17 41.7891 807.17 49.9314 Q807.17 58.0738 810.613 62.7728 Q814.097 67.4314 820.133 67.4314 Q826.088 67.4314 829.572 62.7323 Q833.055 58.0333 833.055 49.9314 Q833.055 41.8701 829.572 37.1711 Q826.088 32.4315 820.133 32.4315 M820.133 26.1121 Q829.855 26.1121 835.405 32.4315 Q840.955 38.7509 840.955 49.9314 Q840.955 61.0714 835.405 67.4314 Q829.855 73.7508 820.133 73.7508 Q810.37 73.7508 804.821 67.4314 Q799.311 61.0714 799.311 49.9314 Q799.311 38.7509 804.821 32.4315 Q810.37 26.1121 820.133 26.1121 Z" fill="#000000" fill-rule="nonzero" fill-opacity="1" /><path clip-path="url(#clip040)" d="M873.929 49.7694 Q864.896 49.7694 861.412 51.8354 Q857.928 53.9013 857.928 58.8839 Q857.928 62.8538 860.521 65.2034 Q863.154 67.5124 867.65 67.5124 Q873.848 67.5124 877.575 63.1374 Q881.342 58.7219 881.342 51.4303 L881.342 49.7694 L873.929 49.7694 M888.796 46.6907 L888.796 72.576 L881.342 72.576 L881.342 65.6895 Q878.79 69.8214 874.982 71.8063 Q871.174 73.7508 865.665 73.7508 Q858.698 73.7508 854.566 69.8619 Q850.474 65.9325 850.474 59.3701 Q850.474 51.7138 855.578 47.825 Q860.723 43.9361 870.891 43.9361 L881.342 43.9361 L881.342 43.2069 Q881.342 38.0623 877.939 35.2672 Q874.577 32.4315 868.46 32.4315 Q864.571 32.4315 860.885 33.3632 Q857.199 34.295 853.796 36.1584 L853.796 29.2718 Q857.887 27.692 861.736 26.9223 Q865.584 26.1121 869.23 26.1121 Q879.074 26.1121 883.935 31.2163 Q888.796 36.3204 888.796 46.6907 Z" fill="#000000" fill-rule="nonzero" fill-opacity="1" /><path clip-path="url(#clip040)" d="M934.004 34.0924 L934.004 9.54393 L941.458 9.54393 L941.458 72.576 L934.004 72.576 L934.004 65.7705 Q931.654 69.8214 928.049 71.8063 Q924.484 73.7508 919.461 73.7508 Q911.238 73.7508 906.053 67.1883 Q900.908 60.6258 900.908 49.9314 Q900.908 39.2371 906.053 32.6746 Q911.238 26.1121 919.461 26.1121 Q924.484 26.1121 928.049 28.0971 Q931.654 30.0415 934.004 34.0924 M908.605 49.9314 Q908.605 58.1548 911.967 62.8538 Q915.37 67.5124 921.284 67.5124 Q927.198 67.5124 930.601 62.8538 Q934.004 58.1548 934.004 49.9314 Q934.004 41.7081 930.601 37.0496 Q927.198 32.3505 921.284 32.3505 Q915.37 32.3505 911.967 37.0496 Q908.605 41.7081 908.605 49.9314 Z" fill="#000000" fill-rule="nonzero" fill-opacity="1" /><path clip-path="url(#clip040)" d="M991.689 18.8205 L991.689 41.5461 L1001.98 41.5461 Q1007.69 41.5461 1010.81 38.5889 Q1013.93 35.6318 1013.93 30.163 Q1013.93 24.7348 1010.81 21.7777 Q1007.69 18.8205 1001.98 18.8205 L991.689 18.8205 M983.506 12.096 L1001.98 12.096 Q1012.15 12.096 1017.33 16.714 Q1022.56 21.2916 1022.56 30.163 Q1022.56 39.1155 1017.33 43.6931 Q1012.15 48.2706 1001.98 48.2706 L991.689 48.2706 L991.689 72.576 L983.506 72.576 L983.506 12.096 Z" fill="#000000" fill-rule="nonzero" fill-opacity="1" /><path clip-path="url(#clip040)" d="M1058.04 34.1734 Q1056.79 33.4443 1055.29 33.1202 Q1053.83 32.7556 1052.05 32.7556 Q1045.73 32.7556 1042.33 36.8875 Q1038.96 40.9789 1038.96 48.6757 L1038.96 72.576 L1031.47 72.576 L1031.47 27.2059 L1038.96 27.2059 L1038.96 34.2544 Q1041.31 30.1225 1045.08 28.1376 Q1048.85 26.1121 1054.23 26.1121 Q1055 26.1121 1055.94 26.2337 Q1056.87 26.3147 1058 26.5172 L1058.04 34.1734 Z" fill="#000000" fill-rule="nonzero" fill-opacity="1" /><path clip-path="url(#clip040)" d="M1081.62 32.4315 Q1075.62 32.4315 1072.14 37.1306 Q1068.66 41.7891 1068.66 49.9314 Q1068.66 58.0738 1072.1 62.7728 Q1075.58 67.4314 1081.62 67.4314 Q1087.57 67.4314 1091.06 62.7323 Q1094.54 58.0333 1094.54 49.9314 Q1094.54 41.8701 1091.06 37.1711 Q1087.57 32.4315 1081.62 32.4315 M1081.62 26.1121 Q1091.34 26.1121 1096.89 32.4315 Q1102.44 38.7509 1102.44 49.9314 Q1102.44 61.0714 1096.89 67.4314 Q1091.34 73.7508 1081.62 73.7508 Q1071.86 73.7508 1066.31 67.4314 Q1060.8 61.0714 1060.8 49.9314 Q1060.8 38.7509 1066.31 32.4315 Q1071.86 26.1121 1081.62 26.1121 Z" fill="#000000" fill-rule="nonzero" fill-opacity="1" /><path clip-path="url(#clip040)" d="M1137.76 9.54393 L1137.76 15.7418 L1130.63 15.7418 Q1126.62 15.7418 1125.04 17.3622 Q1123.51 18.9825 1123.51 23.1955 L1123.51 27.2059 L1135.78 27.2059 L1135.78 32.9987 L1123.51 32.9987 L1123.51 72.576 L1116.01 72.576 L1116.01 32.9987 L1108.88 32.9987 L1108.88 27.2059 L1116.01 27.2059 L1116.01 24.0462 Q1116.01 16.471 1119.54 13.0277 Q1123.06 9.54393 1130.72 9.54393 L1137.76 9.54393 Z" fill="#000000" fill-rule="nonzero" fill-opacity="1" /><path clip-path="url(#clip040)" d="M1144 27.2059 L1151.46 27.2059 L1151.46 72.576 L1144 72.576 L1144 27.2059 M1144 9.54393 L1151.46 9.54393 L1151.46 18.9825 L1144 18.9825 L1144 9.54393 Z" fill="#000000" fill-rule="nonzero" fill-opacity="1" /><path clip-path="url(#clip040)" d="M1167.05 9.54393 L1174.51 9.54393 L1174.51 72.576 L1167.05 72.576 L1167.05 9.54393 Z" fill="#000000" fill-rule="nonzero" fill-opacity="1" /><path clip-path="url(#clip040)" d="M1228.91 48.0275 L1228.91 51.6733 L1194.64 51.6733 Q1195.13 59.3701 1199.26 63.421 Q1203.43 67.4314 1210.84 67.4314 Q1215.14 67.4314 1219.15 66.3781 Q1223.2 65.3249 1227.17 63.2184 L1227.17 70.267 Q1223.16 71.9684 1218.94 72.8596 Q1214.73 73.7508 1210.4 73.7508 Q1199.54 73.7508 1193.18 67.4314 Q1186.86 61.1119 1186.86 50.3365 Q1186.86 39.1965 1192.86 32.6746 Q1198.89 26.1121 1209.1 26.1121 Q1218.26 26.1121 1223.56 32.0264 Q1228.91 37.9003 1228.91 48.0275 M1221.46 45.84 Q1221.38 39.7232 1218.01 36.0774 Q1214.69 32.4315 1209.18 32.4315 Q1202.94 32.4315 1199.18 35.9558 Q1195.45 39.4801 1194.88 45.8805 L1221.46 45.84 Z" fill="#000000" fill-rule="nonzero" fill-opacity="1" /><path clip-path="url(#clip040)" d="M1276.02 43.6931 L1276.02 65.8515 L1289.15 65.8515 Q1295.75 65.8515 1298.91 63.1374 Q1302.11 60.3828 1302.11 54.752 Q1302.11 49.0808 1298.91 46.4072 Q1295.75 43.6931 1289.15 43.6931 L1276.02 43.6931 M1276.02 18.8205 L1276.02 37.0496 L1288.13 37.0496 Q1294.13 37.0496 1297.05 34.8216 Q1300 32.5531 1300 27.935 Q1300 23.3575 1297.05 21.089 Q1294.13 18.8205 1288.13 18.8205 L1276.02 18.8205 M1267.84 12.096 L1288.74 12.096 Q1298.1 12.096 1303.16 15.9849 Q1308.23 19.8737 1308.23 27.0438 Q1308.23 32.5936 1305.63 35.8748 Q1303.04 39.156 1298.02 39.9662 Q1304.05 41.2625 1307.38 45.3944 Q1310.74 49.4858 1310.74 55.6432 Q1310.74 63.745 1305.23 68.1605 Q1299.72 72.576 1289.55 72.576 L1267.84 72.576 L1267.84 12.096 Z" fill="#000000" fill-rule="nonzero" fill-opacity="1" /><path clip-path="url(#clip040)" d="M1363.24 48.0275 L1363.24 51.6733 L1328.97 51.6733 Q1329.45 59.3701 1333.59 63.421 Q1337.76 67.4314 1345.17 67.4314 Q1349.46 67.4314 1353.48 66.3781 Q1357.53 65.3249 1361.5 63.2184 L1361.5 70.267 Q1357.49 71.9684 1353.27 72.8596 Q1349.06 73.7508 1344.73 73.7508 Q1333.87 73.7508 1327.51 67.4314 Q1321.19 61.1119 1321.19 50.3365 Q1321.19 39.1965 1327.18 32.6746 Q1333.22 26.1121 1343.43 26.1121 Q1352.58 26.1121 1357.89 32.0264 Q1363.24 37.9003 1363.24 48.0275 M1355.78 45.84 Q1355.7 39.7232 1352.34 36.0774 Q1349.02 32.4315 1343.51 32.4315 Q1337.27 32.4315 1333.5 35.9558 Q1329.78 39.4801 1329.21 45.8805 L1355.78 45.84 Z" fill="#000000" fill-rule="nonzero" fill-opacity="1" /><path clip-path="url(#clip040)" d="M1398.44 9.54393 L1398.44 15.7418 L1391.31 15.7418 Q1387.3 15.7418 1385.72 17.3622 Q1384.18 18.9825 1384.18 23.1955 L1384.18 27.2059 L1396.46 27.2059 L1396.46 32.9987 L1384.18 32.9987 L1384.18 72.576 L1376.69 72.576 L1376.69 32.9987 L1369.56 32.9987 L1369.56 27.2059 L1376.69 27.2059 L1376.69 24.0462 Q1376.69 16.471 1380.21 13.0277 Q1383.74 9.54393 1391.39 9.54393 L1398.44 9.54393 Z" fill="#000000" fill-rule="nonzero" fill-opacity="1" /><path clip-path="url(#clip040)" d="M1422.26 32.4315 Q1416.26 32.4315 1412.78 37.1306 Q1409.3 41.7891 1409.3 49.9314 Q1409.3 58.0738 1412.74 62.7728 Q1416.22 67.4314 1422.26 67.4314 Q1428.21 67.4314 1431.7 62.7323 Q1435.18 58.0333 1435.18 49.9314 Q1435.18 41.8701 1431.7 37.1711 Q1428.21 32.4315 1422.26 32.4315 M1422.26 26.1121 Q1431.98 26.1121 1437.53 32.4315 Q1443.08 38.7509 1443.08 49.9314 Q1443.08 61.0714 1437.53 67.4314 Q1431.98 73.7508 1422.26 73.7508 Q1412.5 73.7508 1406.95 67.4314 Q1401.44 61.0714 1401.44 49.9314 Q1401.44 38.7509 1406.95 32.4315 Q1412.5 26.1121 1422.26 26.1121 Z" fill="#000000" fill-rule="nonzero" fill-opacity="1" /><path clip-path="url(#clip040)" d="M1481.73 34.1734 Q1480.47 33.4443 1478.97 33.1202 Q1477.51 32.7556 1475.73 32.7556 Q1469.41 32.7556 1466.01 36.8875 Q1462.65 40.9789 1462.65 48.6757 L1462.65 72.576 L1455.15 72.576 L1455.15 27.2059 L1462.65 27.2059 L1462.65 34.2544 Q1465 30.1225 1468.76 28.1376 Q1472.53 26.1121 1477.92 26.1121 Q1478.69 26.1121 1479.62 26.2337 Q1480.55 26.3147 1481.69 26.5172 L1481.73 34.1734 Z" fill="#000000" fill-rule="nonzero" fill-opacity="1" /><path clip-path="url(#clip040)" d="M1526.53 48.0275 L1526.53 51.6733 L1492.26 51.6733 Q1492.75 59.3701 1496.88 63.421 Q1501.05 67.4314 1508.46 67.4314 Q1512.76 67.4314 1516.77 66.3781 Q1520.82 65.3249 1524.79 63.2184 L1524.79 70.267 Q1520.78 71.9684 1516.56 72.8596 Q1512.35 73.7508 1508.02 73.7508 Q1497.16 73.7508 1490.8 67.4314 Q1484.48 61.1119 1484.48 50.3365 Q1484.48 39.1965 1490.48 32.6746 Q1496.51 26.1121 1506.72 26.1121 Q1515.88 26.1121 1521.18 32.0264 Q1526.53 37.9003 1526.53 48.0275 M1519.08 45.84 Q1519 39.7232 1515.63 36.0774 Q1512.31 32.4315 1506.8 32.4315 Q1500.56 32.4315 1496.8 35.9558 Q1493.07 39.4801 1492.5 45.8805 L1519.08 45.84 Z" fill="#000000" fill-rule="nonzero" fill-opacity="1" /><path clip-path="url(#clip040)" d="M1585.75 49.7694 Q1576.72 49.7694 1573.24 51.8354 Q1569.75 53.9013 1569.75 58.8839 Q1569.75 62.8538 1572.35 65.2034 Q1574.98 67.5124 1579.48 67.5124 Q1585.67 67.5124 1589.4 63.1374 Q1593.17 58.7219 1593.17 51.4303 L1593.17 49.7694 L1585.75 49.7694 M1600.62 46.6907 L1600.62 72.576 L1593.17 72.576 L1593.17 65.6895 Q1590.62 69.8214 1586.81 71.8063 Q1583 73.7508 1577.49 73.7508 Q1570.52 73.7508 1566.39 69.8619 Q1562.3 65.9325 1562.3 59.3701 Q1562.3 51.7138 1567.4 47.825 Q1572.55 43.9361 1582.72 43.9361 L1593.17 43.9361 L1593.17 43.2069 Q1593.17 38.0623 1589.76 35.2672 Q1586.4 32.4315 1580.29 32.4315 Q1576.4 32.4315 1572.71 33.3632 Q1569.02 34.295 1565.62 36.1584 L1565.62 29.2718 Q1569.71 27.692 1573.56 26.9223 Q1577.41 26.1121 1581.05 26.1121 Q1590.9 26.1121 1595.76 31.2163 Q1600.62 36.3204 1600.62 46.6907 Z" fill="#000000" fill-rule="nonzero" fill-opacity="1" /><path clip-path="url(#clip040)" d="M1653.69 45.1919 L1653.69 72.576 L1646.23 72.576 L1646.23 45.4349 Q1646.23 38.994 1643.72 35.7938 Q1641.21 32.5936 1636.19 32.5936 Q1630.15 32.5936 1626.67 36.4419 Q1623.18 40.2903 1623.18 46.9338 L1623.18 72.576 L1615.69 72.576 L1615.69 27.2059 L1623.18 27.2059 L1623.18 34.2544 Q1625.86 30.163 1629.46 28.1376 Q1633.11 26.1121 1637.85 26.1121 Q1645.67 26.1121 1649.68 30.9732 Q1653.69 35.7938 1653.69 45.1919 Z" fill="#000000" fill-rule="nonzero" fill-opacity="1" /><path clip-path="url(#clip040)" d="M1698.41 34.0924 L1698.41 9.54393 L1705.86 9.54393 L1705.86 72.576 L1698.41 72.576 L1698.41 65.7705 Q1696.06 69.8214 1692.45 71.8063 Q1688.89 73.7508 1683.87 73.7508 Q1675.64 73.7508 1670.46 67.1883 Q1665.31 60.6258 1665.31 49.9314 Q1665.31 39.2371 1670.46 32.6746 Q1675.64 26.1121 1683.87 26.1121 Q1688.89 26.1121 1692.45 28.0971 Q1696.06 30.0415 1698.41 34.0924 M1673.01 49.9314 Q1673.01 58.1548 1676.37 62.8538 Q1679.78 67.5124 1685.69 67.5124 Q1691.6 67.5124 1695.01 62.8538 Q1698.41 58.1548 1698.41 49.9314 Q1698.41 41.7081 1695.01 37.0496 Q1691.6 32.3505 1685.69 32.3505 Q1679.78 32.3505 1676.37 37.0496 Q1673.01 41.7081 1673.01 49.9314 Z" fill="#000000" fill-rule="nonzero" fill-opacity="1" /><path clip-path="url(#clip040)" d="M1768.13 20.1573 L1757.03 50.2555 L1779.27 50.2555 L1768.13 20.1573 M1763.51 12.096 L1772.78 12.096 L1795.83 72.576 L1787.33 72.576 L1781.82 57.061 L1754.56 57.061 L1749.05 72.576 L1740.42 72.576 L1763.51 12.096 Z" fill="#000000" fill-rule="nonzero" fill-opacity="1" /><path clip-path="url(#clip040)" d="M1824.35 9.54393 L1824.35 15.7418 L1817.22 15.7418 Q1813.21 15.7418 1811.63 17.3622 Q1810.09 18.9825 1810.09 23.1955 L1810.09 27.2059 L1822.37 27.2059 L1822.37 32.9987 L1810.09 32.9987 L1810.09 72.576 L1802.6 72.576 L1802.6 32.9987 L1795.47 32.9987 L1795.47 27.2059 L1802.6 27.2059 L1802.6 24.0462 Q1802.6 16.471 1806.12 13.0277 Q1809.65 9.54393 1817.3 9.54393 L1824.35 9.54393 Z" fill="#000000" fill-rule="nonzero" fill-opacity="1" /><path clip-path="url(#clip040)" d="M1836.5 14.324 L1836.5 27.2059 L1851.86 27.2059 L1851.86 32.9987 L1836.5 32.9987 L1836.5 57.6282 Q1836.5 63.1779 1838 64.7578 Q1839.54 66.3376 1844.2 66.3376 L1851.86 66.3376 L1851.86 72.576 L1844.2 72.576 Q1835.57 72.576 1832.29 69.3758 Q1829.01 66.1351 1829.01 57.6282 L1829.01 32.9987 L1823.54 32.9987 L1823.54 27.2059 L1829.01 27.2059 L1829.01 14.324 L1836.5 14.324 Z" fill="#000000" fill-rule="nonzero" fill-opacity="1" /><path clip-path="url(#clip040)" d="M1900.47 48.0275 L1900.47 51.6733 L1866.2 51.6733 Q1866.68 59.3701 1870.82 63.421 Q1874.99 67.4314 1882.4 67.4314 Q1886.7 67.4314 1890.71 66.3781 Q1894.76 65.3249 1898.73 63.2184 L1898.73 70.267 Q1894.72 71.9684 1890.5 72.8596 Q1886.29 73.7508 1881.96 73.7508 Q1871.1 73.7508 1864.74 67.4314 Q1858.42 61.1119 1858.42 50.3365 Q1858.42 39.1965 1864.42 32.6746 Q1870.45 26.1121 1880.66 26.1121 Q1889.81 26.1121 1895.12 32.0264 Q1900.47 37.9003 1900.47 48.0275 M1893.02 45.84 Q1892.93 39.7232 1889.57 36.0774 Q1886.25 32.4315 1880.74 32.4315 Q1874.5 32.4315 1870.74 35.9558 Q1867.01 39.4801 1866.44 45.8805 L1893.02 45.84 Z" fill="#000000" fill-rule="nonzero" fill-opacity="1" /><path clip-path="url(#clip040)" d="M1938.99 34.1734 Q1937.74 33.4443 1936.24 33.1202 Q1934.78 32.7556 1933 32.7556 Q1926.68 32.7556 1923.28 36.8875 Q1919.91 40.9789 1919.91 48.6757 L1919.91 72.576 L1912.42 72.576 L1912.42 27.2059 L1919.91 27.2059 L1919.91 34.2544 Q1922.26 30.1225 1926.03 28.1376 Q1929.8 26.1121 1935.18 26.1121 Q1935.95 26.1121 1936.89 26.2337 Q1937.82 26.3147 1938.95 26.5172 L1938.99 34.1734 Z" fill="#000000" fill-rule="nonzero" fill-opacity="1" /><path clip-path="url(#clip040)" d="M2009.76 14.0809 L2009.76 22.0612 Q2005.1 19.8332 2000.97 18.7395 Q1996.84 17.6457 1992.99 17.6457 Q1986.31 17.6457 1982.66 20.2383 Q1979.06 22.8309 1979.06 27.611 Q1979.06 31.6214 1981.45 33.6873 Q1983.88 35.7128 1990.6 36.9686 L1995.54 37.9813 Q2004.7 39.7232 2009.03 44.1387 Q2013.41 48.5136 2013.41 55.8863 Q2013.41 64.6767 2007.49 69.2137 Q2001.62 73.7508 1990.24 73.7508 Q1985.94 73.7508 1981.08 72.7785 Q1976.26 71.8063 1971.08 69.9024 L1971.08 61.4765 Q1976.06 64.2716 1980.84 65.6895 Q1985.62 67.1073 1990.24 67.1073 Q1997.24 67.1073 2001.05 64.3527 Q2004.86 61.598 2004.86 56.4939 Q2004.86 52.0379 2002.11 49.5264 Q1999.39 47.0148 1993.15 45.759 L1988.17 44.7868 Q1979.02 42.9639 1974.92 39.075 Q1970.83 35.1862 1970.83 28.2591 Q1970.83 20.2383 1976.46 15.6203 Q1982.13 11.0023 1992.06 11.0023 Q1996.31 11.0023 2000.73 11.7719 Q2005.14 12.5416 2009.76 14.0809 Z" fill="#000000" fill-rule="nonzero" fill-opacity="1" /><path clip-path="url(#clip040)" d="M2067.41 63.9476 L2067.41 47.7034 L2054.04 47.7034 L2054.04 40.9789 L2075.51 40.9789 L2075.51 66.9452 Q2070.77 70.3075 2065.06 72.0494 Q2059.35 73.7508 2052.86 73.7508 Q2038.69 73.7508 2030.66 65.4869 Q2022.68 57.1826 2022.68 42.3968 Q2022.68 27.5705 2030.66 19.3066 Q2038.69 11.0023 2052.86 11.0023 Q2058.78 11.0023 2064.08 12.4606 Q2069.43 13.9189 2073.93 16.7545 L2073.93 25.464 Q2069.39 21.6156 2064.29 19.6712 Q2059.18 17.7268 2053.55 17.7268 Q2042.45 17.7268 2036.86 23.9246 Q2031.31 30.1225 2031.31 42.3968 Q2031.31 54.6305 2036.86 60.8284 Q2042.45 67.0263 2053.55 67.0263 Q2057.89 67.0263 2061.29 66.2971 Q2064.69 65.5274 2067.41 63.9476 Z" fill="#000000" fill-rule="nonzero" fill-opacity="1" /><path clip-path="url(#clip040)" d="M2090.46 12.096 L2102.65 12.096 L2118.08 53.2532 L2133.6 12.096 L2145.79 12.096 L2145.79 72.576 L2137.81 72.576 L2137.81 19.4686 L2122.22 60.9499 L2113.99 60.9499 L2098.4 19.4686 L2098.4 72.576 L2090.46 72.576 L2090.46 12.096 Z" fill="#000000" fill-rule="nonzero" fill-opacity="1" /><path clip-path="url(#clip040)" d="M2179.29 32.4315 Q2173.3 32.4315 2169.81 37.1306 Q2166.33 41.7891 2166.33 49.9314 Q2166.33 58.0738 2169.77 62.7728 Q2173.26 67.4314 2179.29 67.4314 Q2185.25 67.4314 2188.73 62.7323 Q2192.21 58.0333 2192.21 49.9314 Q2192.21 41.8701 2188.73 37.1711 Q2185.25 32.4315 2179.29 32.4315 M2179.29 26.1121 Q2189.01 26.1121 2194.56 32.4315 Q2200.11 38.7509 2200.11 49.9314 Q2200.11 61.0714 2194.56 67.4314 Q2189.01 73.7508 2179.29 73.7508 Q2169.53 73.7508 2163.98 67.4314 Q2158.47 61.0714 2158.47 49.9314 Q2158.47 38.7509 2163.98 32.4315 Q2169.53 26.1121 2179.29 26.1121 Z" fill="#000000" fill-rule="nonzero" fill-opacity="1" /><path clip-path="url(#clip040)" d="M2242.32 34.0924 L2242.32 9.54393 L2249.78 9.54393 L2249.78 72.576 L2242.32 72.576 L2242.32 65.7705 Q2239.97 69.8214 2236.37 71.8063 Q2232.8 73.7508 2227.78 73.7508 Q2219.56 73.7508 2214.37 67.1883 Q2209.23 60.6258 2209.23 49.9314 Q2209.23 39.2371 2214.37 32.6746 Q2219.56 26.1121 2227.78 26.1121 Q2232.8 26.1121 2236.37 28.0971 Q2239.97 30.0415 2242.32 34.0924 M2216.93 49.9314 Q2216.93 58.1548 2220.29 62.8538 Q2223.69 67.5124 2229.6 67.5124 Q2235.52 67.5124 2238.92 62.8538 Q2242.32 58.1548 2242.32 49.9314 Q2242.32 41.7081 2238.92 37.0496 Q2235.52 32.3505 2229.6 32.3505 Q2223.69 32.3505 2220.29 37.0496 Q2216.93 41.7081 2216.93 49.9314 Z" fill="#000000" fill-rule="nonzero" fill-opacity="1" /><path clip-path="url(#clip040)" d="M2303.94 48.0275 L2303.94 51.6733 L2269.67 51.6733 Q2270.15 59.3701 2274.29 63.421 Q2278.46 67.4314 2285.87 67.4314 Q2290.17 67.4314 2294.18 66.3781 Q2298.23 65.3249 2302.2 63.2184 L2302.2 70.267 Q2298.19 71.9684 2293.97 72.8596 Q2289.76 73.7508 2285.43 73.7508 Q2274.57 73.7508 2268.21 67.4314 Q2261.89 61.1119 2261.89 50.3365 Q2261.89 39.1965 2267.89 32.6746 Q2273.92 26.1121 2284.13 26.1121 Q2293.28 26.1121 2298.59 32.0264 Q2303.94 37.9003 2303.94 48.0275 M2296.49 45.84 Q2296.4 39.7232 2293.04 36.0774 Q2289.72 32.4315 2284.21 32.4315 Q2277.97 32.4315 2274.21 35.9558 Q2270.48 39.4801 2269.91 45.8805 L2296.49 45.84 Z" fill="#000000" fill-rule="nonzero" fill-opacity="1" /><path clip-path="url(#clip040)" d="M2316.17 9.54393 L2323.63 9.54393 L2323.63 72.576 L2316.17 72.576 L2316.17 9.54393 Z" fill="#000000" fill-rule="nonzero" fill-opacity="1" /><polyline clip-path="url(#clip042)" style="stroke:#009af9; stroke-linecap:round; stroke-linejoin:round; stroke-width:4; stroke-opacity:1; fill:none" points="294.559,626.215 294.559,160.256 381.439,160.256 381.439,345.865 468.32,345.865 468.32,1135.27 555.2,1135.27 555.2,974.983 642.081,974.983 642.081,744.698 728.961,744.698 728.961,499.974 815.841,499.974 815.841,668.671 902.722,668.671 902.722,582.347 989.602,582.347 989.602,647.864 1076.48,647.864 1076.48,192.503 1163.36,192.503 1163.36,556.302 1250.24,556.302 1250.24,556.323 1337.12,556.323 1337.12,1273.56 1424,1273.56 1424,1059.73 1510.88,1059.73 1510.88,452.481 1597.77,452.481 1597.77,419.373 1684.65,419.373 1684.65,806.585 1771.53,806.585 1771.53,801.937 1858.41,801.937 1858.41,296.596 1945.29,296.596 1945.29,1024.63 2032.17,1024.63 2032.17,604.709 2119.05,604.709 2119.05,636.218 2205.93,636.218 2205.93,483.995 2292.81,483.995 "/>
<polyline clip-path="url(#clip042)" style="stroke:#e26f46; stroke-linecap:round; stroke-linejoin:round; stroke-width:4; stroke-opacity:1; fill:none" points="294.559,823.016 294.559,702.693 381.439,702.693 381.439,1093.22 468.32,1093.22 468.32,1291.41 555.2,1291.41 555.2,1386.4 642.081,1386.4 642.081,1386.4 728.961,1386.4 728.961,1386.4 815.841,1386.4 815.841,1386.4 902.722,1386.4 902.722,1386.4 989.602,1386.4 989.602,1386.4 1076.48,1386.4 1076.48,1386.4 1163.36,1386.4 1163.36,1386.4 1250.24,1386.4 1250.24,1386.4 1337.12,1386.4 1337.12,1386.4 1424,1386.4 1424,1386.4 1510.88,1386.4 1510.88,1386.4 1597.77,1386.4 1597.77,1386.4 1684.65,1386.4 1684.65,1386.4 1771.53,1386.4 1771.53,1386.4 1858.41,1386.4 1858.41,1386.4 1945.29,1386.4 1945.29,1386.4 2032.17,1386.4 2032.17,1386.4 2119.05,1386.4 2119.05,1386.4 2205.93,1386.4 2205.93,1386.4 2292.81,1386.4 "/>
<path clip-path="url(#clip040)" d="M1453.28 322.316 L2282.15 322.316 L2282.15 166.796 L1453.28 166.796  Z" fill="#ffffff" fill-rule="evenodd" fill-opacity="1"/>
<polyline clip-path="url(#clip040)" style="stroke:#000000; stroke-linecap:round; stroke-linejoin:round; stroke-width:4; stroke-opacity:1; fill:none" points="1453.28,322.316 2282.15,322.316 2282.15,166.796 1453.28,166.796 1453.28,322.316 "/>
<polyline clip-path="url(#clip040)" style="stroke:#009af9; stroke-linecap:round; stroke-linejoin:round; stroke-width:4; stroke-opacity:1; fill:none" points="1476.81,218.636 1618.02,218.636 "/>
<path clip-path="url(#clip040)" d="M1641.56 201.356 L1646.24 201.356 L1646.24 235.916 L1641.56 235.916 L1641.56 201.356 Z" fill="#000000" fill-rule="nonzero" fill-opacity="1" /><path clip-path="url(#clip040)" d="M1676.91 220.268 L1676.91 235.916 L1672.65 235.916 L1672.65 220.407 Q1672.65 216.726 1671.21 214.897 Q1669.78 213.069 1666.91 213.069 Q1663.46 213.069 1661.47 215.268 Q1659.48 217.467 1659.48 221.263 L1659.48 235.916 L1655.19 235.916 L1655.19 209.99 L1659.48 209.99 L1659.48 214.018 Q1661 211.68 1663.06 210.522 Q1665.15 209.365 1667.86 209.365 Q1672.32 209.365 1674.61 212.143 Q1676.91 214.897 1676.91 220.268 Z" fill="#000000" fill-rule="nonzero" fill-opacity="1" /><path clip-path="url(#clip040)" d="M1685.4 209.99 L1689.66 209.99 L1689.66 235.916 L1685.4 235.916 L1685.4 209.99 M1685.4 199.897 L1689.66 199.897 L1689.66 205.291 L1685.4 205.291 L1685.4 199.897 Z" fill="#000000" fill-rule="nonzero" fill-opacity="1" /><path clip-path="url(#clip040)" d="M1702.79 202.629 L1702.79 209.99 L1711.56 209.99 L1711.56 213.3 L1702.79 213.3 L1702.79 227.374 Q1702.79 230.545 1703.64 231.448 Q1704.52 232.351 1707.18 232.351 L1711.56 232.351 L1711.56 235.916 L1707.18 235.916 Q1702.25 235.916 1700.38 234.087 Q1698.5 232.235 1698.5 227.374 L1698.5 213.3 L1695.38 213.3 L1695.38 209.99 L1698.5 209.99 L1698.5 202.629 L1702.79 202.629 Z" fill="#000000" fill-rule="nonzero" fill-opacity="1" /><path clip-path="url(#clip040)" d="M1717.16 209.99 L1721.42 209.99 L1721.42 235.916 L1717.16 235.916 L1717.16 209.99 M1717.16 199.897 L1721.42 199.897 L1721.42 205.291 L1717.16 205.291 L1717.16 199.897 Z" fill="#000000" fill-rule="nonzero" fill-opacity="1" /><path clip-path="url(#clip040)" d="M1742.11 222.883 Q1736.95 222.883 1734.96 224.064 Q1732.97 225.244 1732.97 228.092 Q1732.97 230.36 1734.45 231.703 Q1735.96 233.022 1738.53 233.022 Q1742.07 233.022 1744.2 230.522 Q1746.35 227.999 1746.35 223.832 L1746.35 222.883 L1742.11 222.883 M1750.61 221.124 L1750.61 235.916 L1746.35 235.916 L1746.35 231.981 Q1744.89 234.342 1742.72 235.476 Q1740.54 236.587 1737.39 236.587 Q1733.41 236.587 1731.05 234.365 Q1728.71 232.119 1728.71 228.369 Q1728.71 223.994 1731.63 221.772 Q1734.57 219.55 1740.38 219.55 L1746.35 219.55 L1746.35 219.133 Q1746.35 216.194 1744.41 214.596 Q1742.48 212.976 1738.99 212.976 Q1736.77 212.976 1734.66 213.508 Q1732.55 214.041 1730.61 215.106 L1730.61 211.17 Q1732.95 210.268 1735.15 209.828 Q1737.35 209.365 1739.43 209.365 Q1745.05 209.365 1747.83 212.282 Q1750.61 215.198 1750.61 221.124 Z" fill="#000000" fill-rule="nonzero" fill-opacity="1" /><path clip-path="url(#clip040)" d="M1759.38 199.897 L1763.64 199.897 L1763.64 235.916 L1759.38 235.916 L1759.38 199.897 Z" fill="#000000" fill-rule="nonzero" fill-opacity="1" /><path clip-path="url(#clip040)" d="M1787.81 201.356 L1792.48 201.356 L1792.48 231.981 L1809.31 231.981 L1809.31 235.916 L1787.81 235.916 L1787.81 201.356 Z" fill="#000000" fill-rule="nonzero" fill-opacity="1" /><path clip-path="url(#clip040)" d="M1823.25 212.976 Q1819.82 212.976 1817.83 215.661 Q1815.84 218.323 1815.84 222.976 Q1815.84 227.629 1817.81 230.314 Q1819.8 232.976 1823.25 232.976 Q1826.65 232.976 1828.64 230.291 Q1830.63 227.606 1830.63 222.976 Q1830.63 218.37 1828.64 215.684 Q1826.65 212.976 1823.25 212.976 M1823.25 209.365 Q1828.8 209.365 1831.97 212.976 Q1835.15 216.587 1835.15 222.976 Q1835.15 229.342 1831.97 232.976 Q1828.8 236.587 1823.25 236.587 Q1817.67 236.587 1814.5 232.976 Q1811.35 229.342 1811.35 222.976 Q1811.35 216.587 1814.5 212.976 Q1817.67 209.365 1823.25 209.365 Z" fill="#000000" fill-rule="nonzero" fill-opacity="1" /><path clip-path="url(#clip040)" d="M1853.99 222.883 Q1848.83 222.883 1846.84 224.064 Q1844.85 225.244 1844.85 228.092 Q1844.85 230.36 1846.33 231.703 Q1847.83 233.022 1850.4 233.022 Q1853.94 233.022 1856.07 230.522 Q1858.22 227.999 1858.22 223.832 L1858.22 222.883 L1853.99 222.883 M1862.48 221.124 L1862.48 235.916 L1858.22 235.916 L1858.22 231.981 Q1856.77 234.342 1854.59 235.476 Q1852.41 236.587 1849.27 236.587 Q1845.29 236.587 1842.92 234.365 Q1840.59 232.119 1840.59 228.369 Q1840.59 223.994 1843.5 221.772 Q1846.44 219.55 1852.25 219.55 L1858.22 219.55 L1858.22 219.133 Q1858.22 216.194 1856.28 214.596 Q1854.36 212.976 1850.86 212.976 Q1848.64 212.976 1846.54 213.508 Q1844.43 214.041 1842.48 215.106 L1842.48 211.17 Q1844.82 210.268 1847.02 209.828 Q1849.22 209.365 1851.3 209.365 Q1856.93 209.365 1859.71 212.282 Q1862.48 215.198 1862.48 221.124 Z" fill="#000000" fill-rule="nonzero" fill-opacity="1" /><path clip-path="url(#clip040)" d="M1888.32 213.925 L1888.32 199.897 L1892.58 199.897 L1892.58 235.916 L1888.32 235.916 L1888.32 232.027 Q1886.97 234.342 1884.91 235.476 Q1882.88 236.587 1880.01 236.587 Q1875.31 236.587 1872.35 232.837 Q1869.41 229.087 1869.41 222.976 Q1869.41 216.865 1872.35 213.115 Q1875.31 209.365 1880.01 209.365 Q1882.88 209.365 1884.91 210.499 Q1886.97 211.61 1888.32 213.925 M1873.8 222.976 Q1873.8 227.675 1875.72 230.36 Q1877.67 233.022 1881.05 233.022 Q1884.43 233.022 1886.37 230.36 Q1888.32 227.675 1888.32 222.976 Q1888.32 218.277 1886.37 215.615 Q1884.43 212.93 1881.05 212.93 Q1877.67 212.93 1875.72 215.615 Q1873.8 218.277 1873.8 222.976 Z" fill="#000000" fill-rule="nonzero" fill-opacity="1" /><path clip-path="url(#clip040)" d="M1921.28 219.411 L1921.28 232.073 L1928.78 232.073 Q1932.55 232.073 1934.36 230.522 Q1936.19 228.948 1936.19 225.731 Q1936.19 222.49 1934.36 220.962 Q1932.55 219.411 1928.78 219.411 L1921.28 219.411 M1921.28 205.198 L1921.28 215.615 L1928.2 215.615 Q1931.63 215.615 1933.29 214.342 Q1934.98 213.045 1934.98 210.407 Q1934.98 207.791 1933.29 206.495 Q1931.63 205.198 1928.2 205.198 L1921.28 205.198 M1916.6 201.356 L1928.55 201.356 Q1933.9 201.356 1936.79 203.578 Q1939.68 205.8 1939.68 209.897 Q1939.68 213.069 1938.2 214.944 Q1936.72 216.819 1933.85 217.282 Q1937.3 218.022 1939.2 220.383 Q1941.12 222.721 1941.12 226.24 Q1941.12 230.869 1937.97 233.393 Q1934.82 235.916 1929.01 235.916 L1916.6 235.916 L1916.6 201.356 Z" fill="#000000" fill-rule="nonzero" fill-opacity="1" /><path clip-path="url(#clip040)" d="M1971.12 221.888 L1971.12 223.971 L1951.53 223.971 Q1951.81 228.369 1954.17 230.684 Q1956.56 232.976 1960.79 232.976 Q1963.25 232.976 1965.54 232.374 Q1967.85 231.772 1970.12 230.569 L1970.12 234.596 Q1967.83 235.568 1965.42 236.078 Q1963.02 236.587 1960.54 236.587 Q1954.34 236.587 1950.7 232.976 Q1947.09 229.365 1947.09 223.207 Q1947.09 216.842 1950.52 213.115 Q1953.97 209.365 1959.8 209.365 Q1965.03 209.365 1968.06 212.745 Q1971.12 216.101 1971.12 221.888 M1966.86 220.638 Q1966.81 217.143 1964.89 215.059 Q1962.99 212.976 1959.84 212.976 Q1956.28 212.976 1954.13 214.99 Q1952 217.004 1951.67 220.661 L1966.86 220.638 Z" fill="#000000" fill-rule="nonzero" fill-opacity="1" /><path clip-path="url(#clip040)" d="M1991.23 199.897 L1991.23 203.439 L1987.16 203.439 Q1984.87 203.439 1983.96 204.365 Q1983.09 205.291 1983.09 207.698 L1983.09 209.99 L1990.1 209.99 L1990.1 213.3 L1983.09 213.3 L1983.09 235.916 L1978.8 235.916 L1978.8 213.3 L1974.73 213.3 L1974.73 209.99 L1978.8 209.99 L1978.8 208.184 Q1978.8 203.856 1980.82 201.888 Q1982.83 199.897 1987.21 199.897 L1991.23 199.897 Z" fill="#000000" fill-rule="nonzero" fill-opacity="1" /><path clip-path="url(#clip040)" d="M2004.84 212.976 Q2001.42 212.976 1999.43 215.661 Q1997.44 218.323 1997.44 222.976 Q1997.44 227.629 1999.4 230.314 Q2001.4 232.976 2004.84 232.976 Q2008.25 232.976 2010.24 230.291 Q2012.23 227.606 2012.23 222.976 Q2012.23 218.37 2010.24 215.684 Q2008.25 212.976 2004.84 212.976 M2004.84 209.365 Q2010.4 209.365 2013.57 212.976 Q2016.74 216.587 2016.74 222.976 Q2016.74 229.342 2013.57 232.976 Q2010.4 236.587 2004.84 236.587 Q1999.27 236.587 1996.09 232.976 Q1992.95 229.342 1992.95 222.976 Q1992.95 216.587 1996.09 212.976 Q1999.27 209.365 2004.84 209.365 Z" fill="#000000" fill-rule="nonzero" fill-opacity="1" /><path clip-path="url(#clip040)" d="M2038.83 213.971 Q2038.11 213.555 2037.25 213.37 Q2036.42 213.161 2035.4 213.161 Q2031.79 213.161 2029.84 215.522 Q2027.92 217.86 2027.92 222.258 L2027.92 235.916 L2023.64 235.916 L2023.64 209.99 L2027.92 209.99 L2027.92 214.018 Q2029.27 211.657 2031.42 210.522 Q2033.57 209.365 2036.65 209.365 Q2037.09 209.365 2037.62 209.434 Q2038.15 209.481 2038.8 209.596 L2038.83 213.971 Z" fill="#000000" fill-rule="nonzero" fill-opacity="1" /><path clip-path="url(#clip040)" d="M2079.27 202.49 L2079.27 207.05 Q2076.6 205.777 2074.24 205.152 Q2071.88 204.527 2069.68 204.527 Q2065.86 204.527 2063.78 206.008 Q2061.72 207.49 2061.72 210.221 Q2061.72 212.513 2063.08 213.694 Q2064.47 214.851 2068.32 215.569 L2071.14 216.147 Q2076.37 217.143 2078.85 219.666 Q2081.35 222.166 2081.35 226.379 Q2081.35 231.402 2077.97 233.994 Q2074.61 236.587 2068.11 236.587 Q2065.65 236.587 2062.88 236.031 Q2060.12 235.476 2057.16 234.388 L2057.16 229.573 Q2060.01 231.17 2062.74 231.981 Q2065.47 232.791 2068.11 232.791 Q2072.11 232.791 2074.29 231.217 Q2076.46 229.643 2076.46 226.726 Q2076.46 224.18 2074.89 222.744 Q2073.34 221.309 2069.77 220.592 L2066.93 220.036 Q2061.7 218.995 2059.36 216.772 Q2057.02 214.55 2057.02 210.592 Q2057.02 206.008 2060.24 203.37 Q2063.48 200.731 2069.15 200.731 Q2071.58 200.731 2074.1 201.171 Q2076.63 201.61 2079.27 202.49 Z" fill="#000000" fill-rule="nonzero" fill-opacity="1" /><path clip-path="url(#clip040)" d="M2112.2 230.985 L2112.2 221.703 L2104.57 221.703 L2104.57 217.86 L2116.83 217.86 L2116.83 232.698 Q2114.13 234.619 2110.86 235.615 Q2107.6 236.587 2103.89 236.587 Q2095.79 236.587 2091.21 231.865 Q2086.65 227.119 2086.65 218.67 Q2086.65 210.198 2091.21 205.476 Q2095.79 200.731 2103.89 200.731 Q2107.27 200.731 2110.31 201.564 Q2113.36 202.397 2115.93 204.018 L2115.93 208.995 Q2113.34 206.796 2110.42 205.684 Q2107.51 204.573 2104.29 204.573 Q2097.95 204.573 2094.75 208.115 Q2091.58 211.657 2091.58 218.67 Q2091.58 225.661 2094.75 229.203 Q2097.95 232.744 2104.29 232.744 Q2106.77 232.744 2108.71 232.328 Q2110.65 231.888 2112.2 230.985 Z" fill="#000000" fill-rule="nonzero" fill-opacity="1" /><path clip-path="url(#clip040)" d="M2125.38 201.356 L2132.34 201.356 L2141.16 224.874 L2150.03 201.356 L2157 201.356 L2157 235.916 L2152.44 235.916 L2152.44 205.569 L2143.52 229.272 L2138.83 229.272 L2129.91 205.569 L2129.91 235.916 L2125.38 235.916 L2125.38 201.356 Z" fill="#000000" fill-rule="nonzero" fill-opacity="1" /><path clip-path="url(#clip040)" d="M2176.14 212.976 Q2172.71 212.976 2170.72 215.661 Q2168.73 218.323 2168.73 222.976 Q2168.73 227.629 2170.7 230.314 Q2172.69 232.976 2176.14 232.976 Q2179.54 232.976 2181.53 230.291 Q2183.52 227.606 2183.52 222.976 Q2183.52 218.37 2181.53 215.684 Q2179.54 212.976 2176.14 212.976 M2176.14 209.365 Q2181.7 209.365 2184.87 212.976 Q2188.04 216.587 2188.04 222.976 Q2188.04 229.342 2184.87 232.976 Q2181.7 236.587 2176.14 236.587 Q2170.56 236.587 2167.39 232.976 Q2164.24 229.342 2164.24 222.976 Q2164.24 216.587 2167.39 212.976 Q2170.56 209.365 2176.14 209.365 Z" fill="#000000" fill-rule="nonzero" fill-opacity="1" /><path clip-path="url(#clip040)" d="M2212.16 213.925 L2212.16 199.897 L2216.42 199.897 L2216.42 235.916 L2212.16 235.916 L2212.16 232.027 Q2210.82 234.342 2208.76 235.476 Q2206.72 236.587 2203.85 236.587 Q2199.15 236.587 2196.19 232.837 Q2193.25 229.087 2193.25 222.976 Q2193.25 216.865 2196.19 213.115 Q2199.15 209.365 2203.85 209.365 Q2206.72 209.365 2208.76 210.499 Q2210.82 211.61 2212.16 213.925 M2197.64 222.976 Q2197.64 227.675 2199.57 230.36 Q2201.51 233.022 2204.89 233.022 Q2208.27 233.022 2210.21 230.36 Q2212.16 227.675 2212.16 222.976 Q2212.16 218.277 2210.21 215.615 Q2208.27 212.93 2204.89 212.93 Q2201.51 212.93 2199.57 215.615 Q2197.64 218.277 2197.64 222.976 Z" fill="#000000" fill-rule="nonzero" fill-opacity="1" /><path clip-path="url(#clip040)" d="M2247.37 221.888 L2247.37 223.971 L2227.78 223.971 Q2228.06 228.369 2230.42 230.684 Q2232.81 232.976 2237.04 232.976 Q2239.5 232.976 2241.79 232.374 Q2244.1 231.772 2246.37 230.569 L2246.37 234.596 Q2244.08 235.568 2241.67 236.078 Q2239.26 236.587 2236.79 236.587 Q2230.58 236.587 2226.95 232.976 Q2223.34 229.365 2223.34 223.207 Q2223.34 216.842 2226.76 213.115 Q2230.21 209.365 2236.05 209.365 Q2241.28 209.365 2244.31 212.745 Q2247.37 216.101 2247.37 221.888 M2243.11 220.638 Q2243.06 217.143 2241.14 215.059 Q2239.24 212.976 2236.09 212.976 Q2232.53 212.976 2230.38 214.99 Q2228.25 217.004 2227.92 220.661 L2243.11 220.638 Z" fill="#000000" fill-rule="nonzero" fill-opacity="1" /><path clip-path="url(#clip040)" d="M2254.36 199.897 L2258.62 199.897 L2258.62 235.916 L2254.36 235.916 L2254.36 199.897 Z" fill="#000000" fill-rule="nonzero" fill-opacity="1" /><polyline clip-path="url(#clip040)" style="stroke:#e26f46; stroke-linecap:round; stroke-linejoin:round; stroke-width:4; stroke-opacity:1; fill:none" points="1476.81,270.476 1618.02,270.476 "/>
<path clip-path="url(#clip040)" d="M1641.56 253.196 L1661.42 253.196 L1661.42 257.131 L1646.24 257.131 L1646.24 267.316 L1659.94 267.316 L1659.94 271.251 L1646.24 271.251 L1646.24 287.756 L1641.56 287.756 L1641.56 253.196 Z" fill="#000000" fill-rule="nonzero" fill-opacity="1" /><path clip-path="url(#clip040)" d="M1665.19 261.83 L1669.45 261.83 L1669.45 287.756 L1665.19 287.756 L1665.19 261.83 M1665.19 251.737 L1669.45 251.737 L1669.45 257.131 L1665.19 257.131 L1665.19 251.737 Z" fill="#000000" fill-rule="nonzero" fill-opacity="1" /><path clip-path="url(#clip040)" d="M1699.92 272.108 L1699.92 287.756 L1695.66 287.756 L1695.66 272.247 Q1695.66 268.566 1694.22 266.737 Q1692.79 264.909 1689.92 264.909 Q1686.47 264.909 1684.48 267.108 Q1682.48 269.307 1682.48 273.103 L1682.48 287.756 L1678.2 287.756 L1678.2 261.83 L1682.48 261.83 L1682.48 265.858 Q1684.01 263.52 1686.07 262.362 Q1688.16 261.205 1690.86 261.205 Q1695.33 261.205 1697.62 263.983 Q1699.92 266.737 1699.92 272.108 Z" fill="#000000" fill-rule="nonzero" fill-opacity="1" /><path clip-path="url(#clip040)" d="M1720.19 274.723 Q1715.03 274.723 1713.04 275.904 Q1711.05 277.084 1711.05 279.932 Q1711.05 282.2 1712.53 283.543 Q1714.04 284.862 1716.61 284.862 Q1720.15 284.862 1722.28 282.362 Q1724.43 279.839 1724.43 275.672 L1724.43 274.723 L1720.19 274.723 M1728.69 272.964 L1728.69 287.756 L1724.43 287.756 L1724.43 283.821 Q1722.97 286.182 1720.79 287.316 Q1718.62 288.427 1715.47 288.427 Q1711.49 288.427 1709.13 286.205 Q1706.79 283.959 1706.79 280.209 Q1706.79 275.834 1709.71 273.612 Q1712.65 271.39 1718.46 271.39 L1724.43 271.39 L1724.43 270.973 Q1724.43 268.034 1722.48 266.436 Q1720.56 264.816 1717.07 264.816 Q1714.85 264.816 1712.74 265.348 Q1710.63 265.881 1708.69 266.946 L1708.69 263.01 Q1711.03 262.108 1713.23 261.668 Q1715.42 261.205 1717.51 261.205 Q1723.13 261.205 1725.91 264.122 Q1728.69 267.038 1728.69 272.964 Z" fill="#000000" fill-rule="nonzero" fill-opacity="1" /><path clip-path="url(#clip040)" d="M1737.46 251.737 L1741.72 251.737 L1741.72 287.756 L1737.46 287.756 L1737.46 251.737 Z" fill="#000000" fill-rule="nonzero" fill-opacity="1" /><path clip-path="url(#clip040)" d="M1765.89 253.196 L1770.56 253.196 L1770.56 283.821 L1787.39 283.821 L1787.39 287.756 L1765.89 287.756 L1765.89 253.196 Z" fill="#000000" fill-rule="nonzero" fill-opacity="1" /><path clip-path="url(#clip040)" d="M1801.33 264.816 Q1797.9 264.816 1795.91 267.501 Q1793.92 270.163 1793.92 274.816 Q1793.92 279.469 1795.89 282.154 Q1797.88 284.816 1801.33 284.816 Q1804.73 284.816 1806.72 282.131 Q1808.71 279.446 1808.71 274.816 Q1808.71 270.21 1806.72 267.524 Q1804.73 264.816 1801.33 264.816 M1801.33 261.205 Q1806.88 261.205 1810.05 264.816 Q1813.23 268.427 1813.23 274.816 Q1813.23 281.182 1810.05 284.816 Q1806.88 288.427 1801.33 288.427 Q1795.75 288.427 1792.58 284.816 Q1789.43 281.182 1789.43 274.816 Q1789.43 268.427 1792.58 264.816 Q1795.75 261.205 1801.33 261.205 Z" fill="#000000" fill-rule="nonzero" fill-opacity="1" /><path clip-path="url(#clip040)" d="M1832.07 274.723 Q1826.91 274.723 1824.91 275.904 Q1822.92 277.084 1822.92 279.932 Q1822.92 282.2 1824.41 283.543 Q1825.91 284.862 1828.48 284.862 Q1832.02 284.862 1834.15 282.362 Q1836.3 279.839 1836.3 275.672 L1836.3 274.723 L1832.07 274.723 M1840.56 272.964 L1840.56 287.756 L1836.3 287.756 L1836.3 283.821 Q1834.85 286.182 1832.67 287.316 Q1830.49 288.427 1827.35 288.427 Q1823.36 288.427 1821 286.205 Q1818.66 283.959 1818.66 280.209 Q1818.66 275.834 1821.58 273.612 Q1824.52 271.39 1830.33 271.39 L1836.3 271.39 L1836.3 270.973 Q1836.3 268.034 1834.36 266.436 Q1832.44 264.816 1828.94 264.816 Q1826.72 264.816 1824.61 265.348 Q1822.51 265.881 1820.56 266.946 L1820.56 263.01 Q1822.9 262.108 1825.1 261.668 Q1827.3 261.205 1829.38 261.205 Q1835.01 261.205 1837.79 264.122 Q1840.56 267.038 1840.56 272.964 Z" fill="#000000" fill-rule="nonzero" fill-opacity="1" /><path clip-path="url(#clip040)" d="M1866.4 265.765 L1866.4 251.737 L1870.66 251.737 L1870.66 287.756 L1866.4 287.756 L1866.4 283.867 Q1865.05 286.182 1862.99 287.316 Q1860.96 288.427 1858.09 288.427 Q1853.39 288.427 1850.42 284.677 Q1847.48 280.927 1847.48 274.816 Q1847.48 268.705 1850.42 264.955 Q1853.39 261.205 1858.09 261.205 Q1860.96 261.205 1862.99 262.339 Q1865.05 263.45 1866.4 265.765 M1851.88 274.816 Q1851.88 279.515 1853.8 282.2 Q1855.75 284.862 1859.13 284.862 Q1862.51 284.862 1864.45 282.2 Q1866.4 279.515 1866.4 274.816 Q1866.4 270.117 1864.45 267.455 Q1862.51 264.77 1859.13 264.77 Q1855.75 264.77 1853.8 267.455 Q1851.88 270.117 1851.88 274.816 Z" fill="#000000" fill-rule="nonzero" fill-opacity="1" /><path clip-path="url(#clip040)" d="M1906.23 257.802 L1899.89 275.001 L1912.6 275.001 L1906.23 257.802 M1903.59 253.196 L1908.9 253.196 L1922.07 287.756 L1917.21 287.756 L1914.06 278.89 L1898.48 278.89 L1895.33 287.756 L1890.4 287.756 L1903.59 253.196 Z" fill="#000000" fill-rule="nonzero" fill-opacity="1" /><path clip-path="url(#clip040)" d="M1938.36 251.737 L1938.36 255.279 L1934.29 255.279 Q1932 255.279 1931.09 256.205 Q1930.22 257.131 1930.22 259.538 L1930.22 261.83 L1937.23 261.83 L1937.23 265.14 L1930.22 265.14 L1930.22 287.756 L1925.93 287.756 L1925.93 265.14 L1921.86 265.14 L1921.86 261.83 L1925.93 261.83 L1925.93 260.024 Q1925.93 255.696 1927.95 253.728 Q1929.96 251.737 1934.34 251.737 L1938.36 251.737 Z" fill="#000000" fill-rule="nonzero" fill-opacity="1" /><path clip-path="url(#clip040)" d="M1945.31 254.469 L1945.31 261.83 L1954.08 261.83 L1954.08 265.14 L1945.31 265.14 L1945.31 279.214 Q1945.31 282.385 1946.16 283.288 Q1947.04 284.191 1949.71 284.191 L1954.08 284.191 L1954.08 287.756 L1949.71 287.756 Q1944.78 287.756 1942.9 285.927 Q1941.03 284.075 1941.03 279.214 L1941.03 265.14 L1937.9 265.14 L1937.9 261.83 L1941.03 261.83 L1941.03 254.469 L1945.31 254.469 Z" fill="#000000" fill-rule="nonzero" fill-opacity="1" /><path clip-path="url(#clip040)" d="M1981.86 273.728 L1981.86 275.811 L1962.28 275.811 Q1962.55 280.209 1964.91 282.524 Q1967.3 284.816 1971.53 284.816 Q1973.99 284.816 1976.28 284.214 Q1978.59 283.612 1980.86 282.409 L1980.86 286.436 Q1978.57 287.408 1976.16 287.918 Q1973.76 288.427 1971.28 288.427 Q1965.08 288.427 1961.44 284.816 Q1957.83 281.205 1957.83 275.047 Q1957.83 268.682 1961.26 264.955 Q1964.71 261.205 1970.54 261.205 Q1975.77 261.205 1978.8 264.585 Q1981.86 267.941 1981.86 273.728 M1977.6 272.478 Q1977.55 268.983 1975.63 266.899 Q1973.73 264.816 1970.59 264.816 Q1967.02 264.816 1964.87 266.83 Q1962.74 268.844 1962.41 272.501 L1977.6 272.478 Z" fill="#000000" fill-rule="nonzero" fill-opacity="1" /><path clip-path="url(#clip040)" d="M2003.87 265.811 Q2003.15 265.395 2002.3 265.21 Q2001.46 265.001 2000.45 265.001 Q1996.84 265.001 1994.89 267.362 Q1992.97 269.7 1992.97 274.098 L1992.97 287.756 L1988.69 287.756 L1988.69 261.83 L1992.97 261.83 L1992.97 265.858 Q1994.31 263.497 1996.46 262.362 Q1998.62 261.205 2001.7 261.205 Q2002.14 261.205 2002.67 261.274 Q2003.2 261.321 2003.85 261.436 L2003.87 265.811 Z" fill="#000000" fill-rule="nonzero" fill-opacity="1" /><path clip-path="url(#clip040)" d="M2044.31 254.33 L2044.31 258.89 Q2041.65 257.617 2039.29 256.992 Q2036.93 256.367 2034.73 256.367 Q2030.91 256.367 2028.83 257.848 Q2026.77 259.33 2026.77 262.061 Q2026.77 264.353 2028.13 265.534 Q2029.52 266.691 2033.36 267.409 L2036.19 267.987 Q2041.42 268.983 2043.9 271.506 Q2046.4 274.006 2046.4 278.219 Q2046.4 283.242 2043.02 285.834 Q2039.66 288.427 2033.15 288.427 Q2030.7 288.427 2027.92 287.871 Q2025.17 287.316 2022.21 286.228 L2022.21 281.413 Q2025.05 283.01 2027.78 283.821 Q2030.52 284.631 2033.15 284.631 Q2037.16 284.631 2039.33 283.057 Q2041.51 281.483 2041.51 278.566 Q2041.51 276.02 2039.94 274.584 Q2038.39 273.149 2034.82 272.432 L2031.97 271.876 Q2026.74 270.835 2024.4 268.612 Q2022.07 266.39 2022.07 262.432 Q2022.07 257.848 2025.28 255.21 Q2028.52 252.571 2034.2 252.571 Q2036.63 252.571 2039.15 253.011 Q2041.67 253.45 2044.31 254.33 Z" fill="#000000" fill-rule="nonzero" fill-opacity="1" /><path clip-path="url(#clip040)" d="M2077.25 282.825 L2077.25 273.543 L2069.61 273.543 L2069.61 269.7 L2081.88 269.7 L2081.88 284.538 Q2079.17 286.459 2075.91 287.455 Q2072.64 288.427 2068.94 288.427 Q2060.84 288.427 2056.26 283.705 Q2051.7 278.959 2051.7 270.51 Q2051.7 262.038 2056.26 257.316 Q2060.84 252.571 2068.94 252.571 Q2072.32 252.571 2075.35 253.404 Q2078.41 254.237 2080.98 255.858 L2080.98 260.835 Q2078.39 258.636 2075.47 257.524 Q2072.55 256.413 2069.33 256.413 Q2062.99 256.413 2059.8 259.955 Q2056.63 263.497 2056.63 270.51 Q2056.63 277.501 2059.8 281.043 Q2062.99 284.584 2069.33 284.584 Q2071.81 284.584 2073.76 284.168 Q2075.7 283.728 2077.25 282.825 Z" fill="#000000" fill-rule="nonzero" fill-opacity="1" /><path clip-path="url(#clip040)" d="M2090.42 253.196 L2097.39 253.196 L2106.21 276.714 L2115.08 253.196 L2122.04 253.196 L2122.04 287.756 L2117.48 287.756 L2117.48 257.409 L2108.57 281.112 L2103.87 281.112 L2094.96 257.409 L2094.96 287.756 L2090.42 287.756 L2090.42 253.196 Z" fill="#000000" fill-rule="nonzero" fill-opacity="1" /><path clip-path="url(#clip040)" d="M2141.19 264.816 Q2137.76 264.816 2135.77 267.501 Q2133.78 270.163 2133.78 274.816 Q2133.78 279.469 2135.75 282.154 Q2137.74 284.816 2141.19 284.816 Q2144.59 284.816 2146.58 282.131 Q2148.57 279.446 2148.57 274.816 Q2148.57 270.21 2146.58 267.524 Q2144.59 264.816 2141.19 264.816 M2141.19 261.205 Q2146.74 261.205 2149.91 264.816 Q2153.08 268.427 2153.08 274.816 Q2153.08 281.182 2149.91 284.816 Q2146.74 288.427 2141.19 288.427 Q2135.61 288.427 2132.44 284.816 Q2129.29 281.182 2129.29 274.816 Q2129.29 268.427 2132.44 264.816 Q2135.61 261.205 2141.19 261.205 Z" fill="#000000" fill-rule="nonzero" fill-opacity="1" /><path clip-path="url(#clip040)" d="M2177.2 265.765 L2177.2 251.737 L2181.46 251.737 L2181.46 287.756 L2177.2 287.756 L2177.2 283.867 Q2175.86 286.182 2173.8 287.316 Q2171.76 288.427 2168.89 288.427 Q2164.2 288.427 2161.23 284.677 Q2158.29 280.927 2158.29 274.816 Q2158.29 268.705 2161.23 264.955 Q2164.2 261.205 2168.89 261.205 Q2171.76 261.205 2173.8 262.339 Q2175.86 263.45 2177.2 265.765 M2162.69 274.816 Q2162.69 279.515 2164.61 282.2 Q2166.56 284.862 2169.94 284.862 Q2173.32 284.862 2175.26 282.2 Q2177.2 279.515 2177.2 274.816 Q2177.2 270.117 2175.26 267.455 Q2173.32 264.77 2169.94 264.77 Q2166.56 264.77 2164.61 267.455 Q2162.69 270.117 2162.69 274.816 Z" fill="#000000" fill-rule="nonzero" fill-opacity="1" /><path clip-path="url(#clip040)" d="M2212.41 273.728 L2212.41 275.811 L2192.83 275.811 Q2193.11 280.209 2195.47 282.524 Q2197.85 284.816 2202.09 284.816 Q2204.54 284.816 2206.83 284.214 Q2209.15 283.612 2211.42 282.409 L2211.42 286.436 Q2209.13 287.408 2206.72 287.918 Q2204.31 288.427 2201.83 288.427 Q2195.63 288.427 2192 284.816 Q2188.39 281.205 2188.39 275.047 Q2188.39 268.682 2191.81 264.955 Q2195.26 261.205 2201.09 261.205 Q2206.32 261.205 2209.36 264.585 Q2212.41 267.941 2212.41 273.728 M2208.15 272.478 Q2208.11 268.983 2206.19 266.899 Q2204.29 264.816 2201.14 264.816 Q2197.57 264.816 2195.42 266.83 Q2193.29 268.844 2192.97 272.501 L2208.15 272.478 Z" fill="#000000" fill-rule="nonzero" fill-opacity="1" /><path clip-path="url(#clip040)" d="M2219.4 251.737 L2223.66 251.737 L2223.66 287.756 L2219.4 287.756 L2219.4 251.737 Z" fill="#000000" fill-rule="nonzero" fill-opacity="1" /></svg>
