<?xml version="1.0" encoding="utf-8"?>
<svg xmlns="http://www.w3.org/2000/svg" xmlns:xlink="http://www.w3.org/1999/xlink" width="600" height="400" viewBox="0 0 2400 1600">
<defs>
  <clipPath id="clip080">
    <rect x="0" y="0" width="2400" height="1600"/>
  </clipPath>
</defs>
<path clip-path="url(#clip080)" d="M0 1600 L2400 1600 L2400 0 L0 0  Z" fill="#ffffff" fill-rule="evenodd" fill-opacity="1"/>
<defs>
  <clipPath id="clip081">
    <rect x="480" y="0" width="1681" height="1600"/>
  </clipPath>
</defs>
<path clip-path="url(#clip080)" d="M203.964 1423.18 L2352.76 1423.18 L2352.76 123.472 L203.964 123.472  Z" fill="#ffffff" fill-rule="evenodd" fill-opacity="1"/>
<defs>
  <clipPath id="clip082">
    <rect x="203" y="123" width="2150" height="1301"/>
  </clipPath>
</defs>
<polyline clip-path="url(#clip082)" style="stroke:#000000; stroke-linecap:round; stroke-linejoin:round; stroke-width:2; stroke-opacity:0.1; fill:none" points="617.328,1423.18 617.328,123.472 "/>
<polyline clip-path="url(#clip082)" style="stroke:#000000; stroke-linecap:round; stroke-linejoin:round; stroke-width:2; stroke-opacity:0.1; fill:none" points="1058.02,1423.18 1058.02,123.472 "/>
<polyline clip-path="url(#clip082)" style="stroke:#000000; stroke-linecap:round; stroke-linejoin:round; stroke-width:2; stroke-opacity:0.1; fill:none" points="1498.7,1423.18 1498.7,123.472 "/>
<polyline clip-path="url(#clip082)" style="stroke:#000000; stroke-linecap:round; stroke-linejoin:round; stroke-width:2; stroke-opacity:0.1; fill:none" points="1939.39,1423.18 1939.39,123.472 "/>
<polyline clip-path="url(#clip080)" style="stroke:#000000; stroke-linecap:round; stroke-linejoin:round; stroke-width:4; stroke-opacity:1; fill:none" points="203.964,1423.18 2352.76,1423.18 "/>
<polyline clip-path="url(#clip080)" style="stroke:#000000; stroke-linecap:round; stroke-linejoin:round; stroke-width:4; stroke-opacity:1; fill:none" points="617.328,1423.18 617.328,1404.28 "/>
<polyline clip-path="url(#clip080)" style="stroke:#000000; stroke-linecap:round; stroke-linejoin:round; stroke-width:4; stroke-opacity:1; fill:none" points="1058.02,1423.18 1058.02,1404.28 "/>
<polyline clip-path="url(#clip080)" style="stroke:#000000; stroke-linecap:round; stroke-linejoin:round; stroke-width:4; stroke-opacity:1; fill:none" points="1498.7,1423.18 1498.7,1404.28 "/>
<polyline clip-path="url(#clip080)" style="stroke:#000000; stroke-linecap:round; stroke-linejoin:round; stroke-width:4; stroke-opacity:1; fill:none" points="1939.39,1423.18 1939.39,1404.28 "/>
<path clip-path="url(#clip080)" d="M607.606 1451.02 L625.963 1451.02 L625.963 1454.96 L611.889 1454.96 L611.889 1463.43 Q612.907 1463.08 613.926 1462.92 Q614.944 1462.73 615.963 1462.73 Q621.75 1462.73 625.129 1465.9 Q628.509 1469.08 628.509 1474.49 Q628.509 1480.07 625.037 1483.17 Q621.565 1486.25 615.245 1486.25 Q613.069 1486.25 610.801 1485.88 Q608.555 1485.51 606.148 1484.77 L606.148 1480.07 Q608.231 1481.2 610.454 1481.76 Q612.676 1482.32 615.153 1482.32 Q619.157 1482.32 621.495 1480.21 Q623.833 1478.1 623.833 1474.49 Q623.833 1470.88 621.495 1468.77 Q619.157 1466.67 615.153 1466.67 Q613.278 1466.67 611.403 1467.08 Q609.551 1467.5 607.606 1468.38 L607.606 1451.02 Z" fill="#000000" fill-rule="nonzero" fill-opacity="1" /><path clip-path="url(#clip080)" d="M1032.7 1481.64 L1040.34 1481.64 L1040.34 1455.28 L1032.03 1456.95 L1032.03 1452.69 L1040.3 1451.02 L1044.97 1451.02 L1044.97 1481.64 L1052.61 1481.64 L1052.61 1485.58 L1032.7 1485.58 L1032.7 1481.64 Z" fill="#000000" fill-rule="nonzero" fill-opacity="1" /><path clip-path="url(#clip080)" d="M1072.06 1454.1 Q1068.44 1454.1 1066.62 1457.66 Q1064.81 1461.2 1064.81 1468.33 Q1064.81 1475.44 1066.62 1479.01 Q1068.44 1482.55 1072.06 1482.55 Q1075.69 1482.55 1077.5 1479.01 Q1079.32 1475.44 1079.32 1468.33 Q1079.32 1461.2 1077.5 1457.66 Q1075.69 1454.1 1072.06 1454.1 M1072.06 1450.39 Q1077.87 1450.39 1080.92 1455 Q1084 1459.58 1084 1468.33 Q1084 1477.06 1080.92 1481.67 Q1077.87 1486.25 1072.06 1486.25 Q1066.25 1486.25 1063.17 1481.67 Q1060.11 1477.06 1060.11 1468.33 Q1060.11 1459.58 1063.17 1455 Q1066.25 1450.39 1072.06 1450.39 Z" fill="#000000" fill-rule="nonzero" fill-opacity="1" /><path clip-path="url(#clip080)" d="M1473.89 1481.64 L1481.53 1481.64 L1481.53 1455.28 L1473.22 1456.95 L1473.22 1452.69 L1481.48 1451.02 L1486.16 1451.02 L1486.16 1481.64 L1493.8 1481.64 L1493.8 1485.58 L1473.89 1485.58 L1473.89 1481.64 Z" fill="#000000" fill-rule="nonzero" fill-opacity="1" /><path clip-path="url(#clip080)" d="M1503.29 1451.02 L1521.64 1451.02 L1521.64 1454.96 L1507.57 1454.96 L1507.57 1463.43 Q1508.59 1463.08 1509.61 1462.92 Q1510.62 1462.73 1511.64 1462.73 Q1517.43 1462.73 1520.81 1465.9 Q1524.19 1469.08 1524.19 1474.49 Q1524.19 1480.07 1520.72 1483.17 Q1517.25 1486.25 1510.93 1486.25 Q1508.75 1486.25 1506.48 1485.88 Q1504.24 1485.51 1501.83 1484.77 L1501.83 1480.07 Q1503.91 1481.2 1506.13 1481.76 Q1508.36 1482.32 1510.83 1482.32 Q1514.84 1482.32 1517.18 1480.21 Q1519.51 1478.1 1519.51 1474.49 Q1519.51 1470.88 1517.18 1468.77 Q1514.84 1466.67 1510.83 1466.67 Q1508.96 1466.67 1507.08 1467.08 Q1505.23 1467.5 1503.29 1468.38 L1503.29 1451.02 Z" fill="#000000" fill-rule="nonzero" fill-opacity="1" /><path clip-path="url(#clip080)" d="M1918.16 1481.64 L1934.48 1481.64 L1934.48 1485.58 L1912.54 1485.58 L1912.54 1481.64 Q1915.2 1478.89 1919.78 1474.26 Q1924.39 1469.61 1925.57 1468.27 Q1927.82 1465.74 1928.7 1464.01 Q1929.6 1462.25 1929.6 1460.56 Q1929.6 1457.8 1927.65 1456.07 Q1925.73 1454.33 1922.63 1454.33 Q1920.43 1454.33 1917.98 1455.09 Q1915.55 1455.86 1912.77 1457.41 L1912.77 1452.69 Q1915.59 1451.55 1918.05 1450.97 Q1920.5 1450.39 1922.54 1450.39 Q1927.91 1450.39 1931.1 1453.08 Q1934.3 1455.77 1934.3 1460.26 Q1934.3 1462.39 1933.49 1464.31 Q1932.7 1466.2 1930.59 1468.8 Q1930.02 1469.47 1926.91 1472.69 Q1923.81 1475.88 1918.16 1481.64 Z" fill="#000000" fill-rule="nonzero" fill-opacity="1" /><path clip-path="url(#clip080)" d="M1954.3 1454.1 Q1950.69 1454.1 1948.86 1457.66 Q1947.05 1461.2 1947.05 1468.33 Q1947.05 1475.44 1948.86 1479.01 Q1950.69 1482.55 1954.3 1482.55 Q1957.93 1482.55 1959.74 1479.01 Q1961.57 1475.44 1961.57 1468.33 Q1961.57 1461.2 1959.74 1457.66 Q1957.93 1454.1 1954.3 1454.1 M1954.3 1450.39 Q1960.11 1450.39 1963.16 1455 Q1966.24 1459.58 1966.24 1468.33 Q1966.24 1477.06 1963.16 1481.67 Q1960.11 1486.25 1954.3 1486.25 Q1948.49 1486.25 1945.41 1481.67 Q1942.35 1477.06 1942.35 1468.33 Q1942.35 1459.58 1945.41 1455 Q1948.49 1450.39 1954.3 1450.39 Z" fill="#000000" fill-rule="nonzero" fill-opacity="1" /><path clip-path="url(#clip080)" d="M1090.86 1520.52 L1131.06 1520.52 L1131.06 1525.93 L1114.19 1525.93 L1114.19 1568.04 L1107.73 1568.04 L1107.73 1525.93 L1090.86 1525.93 L1090.86 1520.52 Z" fill="#000000" fill-rule="nonzero" fill-opacity="1" /><path clip-path="url(#clip080)" d="M1135 1532.4 L1140.86 1532.4 L1140.86 1568.04 L1135 1568.04 L1135 1532.4 M1135 1518.52 L1140.86 1518.52 L1140.86 1525.93 L1135 1525.93 L1135 1518.52 Z" fill="#000000" fill-rule="nonzero" fill-opacity="1" /><path clip-path="url(#clip080)" d="M1180.87 1539.24 Q1183.07 1535.29 1186.12 1533.41 Q1189.18 1531.54 1193.31 1531.54 Q1198.88 1531.54 1201.91 1535.45 Q1204.93 1539.33 1204.93 1546.53 L1204.93 1568.04 L1199.04 1568.04 L1199.04 1546.72 Q1199.04 1541.59 1197.23 1539.11 Q1195.41 1536.63 1191.69 1536.63 Q1187.14 1536.63 1184.5 1539.65 Q1181.86 1542.68 1181.86 1547.9 L1181.86 1568.04 L1175.97 1568.04 L1175.97 1546.72 Q1175.97 1541.56 1174.15 1539.11 Q1172.34 1536.63 1168.55 1536.63 Q1164.06 1536.63 1161.42 1539.68 Q1158.78 1542.71 1158.78 1547.9 L1158.78 1568.04 L1152.89 1568.04 L1152.89 1532.4 L1158.78 1532.4 L1158.78 1537.93 Q1160.79 1534.66 1163.59 1533.1 Q1166.39 1531.54 1170.24 1531.54 Q1174.12 1531.54 1176.83 1533.51 Q1179.56 1535.48 1180.87 1539.24 Z" fill="#000000" fill-rule="nonzero" fill-opacity="1" /><path clip-path="url(#clip080)" d="M1247.1 1548.76 L1247.1 1551.62 L1220.18 1551.62 Q1220.56 1557.67 1223.81 1560.85 Q1227.08 1564 1232.91 1564 Q1236.28 1564 1239.43 1563.17 Q1242.62 1562.35 1245.74 1560.69 L1245.74 1566.23 Q1242.58 1567.57 1239.27 1568.27 Q1235.96 1568.97 1232.56 1568.97 Q1224.03 1568.97 1219.03 1564 Q1214.07 1559.04 1214.07 1550.57 Q1214.07 1541.82 1218.78 1536.69 Q1223.52 1531.54 1231.54 1531.54 Q1238.73 1531.54 1242.9 1536.18 Q1247.1 1540.8 1247.1 1548.76 M1241.25 1547.04 Q1241.18 1542.23 1238.54 1539.37 Q1235.93 1536.5 1231.6 1536.5 Q1226.7 1536.5 1223.74 1539.27 Q1220.81 1542.04 1220.37 1547.07 L1241.25 1547.04 Z" fill="#000000" fill-rule="nonzero" fill-opacity="1" /><path clip-path="url(#clip080)" d="M1291.5 1518.58 Q1287.24 1525.9 1285.17 1533.06 Q1283.1 1540.23 1283.1 1547.58 Q1283.1 1554.93 1285.17 1562.16 Q1287.27 1569.35 1291.5 1576.64 L1286.41 1576.64 Q1281.64 1569.16 1279.25 1561.93 Q1276.9 1554.71 1276.9 1547.58 Q1276.9 1540.48 1279.25 1533.29 Q1281.61 1526.09 1286.41 1518.58 L1291.5 1518.58 Z" fill="#000000" fill-rule="nonzero" fill-opacity="1" /><path clip-path="url(#clip080)" d="M1332.5 1546.53 L1332.5 1568.04 L1326.64 1568.04 L1326.64 1546.72 Q1326.64 1541.66 1324.67 1539.14 Q1322.7 1536.63 1318.75 1536.63 Q1314.01 1536.63 1311.27 1539.65 Q1308.53 1542.68 1308.53 1547.9 L1308.53 1568.04 L1302.64 1568.04 L1302.64 1518.52 L1308.53 1518.52 L1308.53 1537.93 Q1310.63 1534.72 1313.47 1533.13 Q1316.33 1531.54 1320.06 1531.54 Q1326.2 1531.54 1329.35 1535.36 Q1332.5 1539.14 1332.5 1546.53 Z" fill="#000000" fill-rule="nonzero" fill-opacity="1" /><path clip-path="url(#clip080)" d="M1357.99 1536.5 Q1353.28 1536.5 1350.55 1540.19 Q1347.81 1543.85 1347.81 1550.25 Q1347.81 1556.65 1350.52 1560.34 Q1353.25 1564 1357.99 1564 Q1362.67 1564 1365.41 1560.31 Q1368.15 1556.62 1368.15 1550.25 Q1368.15 1543.92 1365.41 1540.23 Q1362.67 1536.5 1357.99 1536.5 M1357.99 1531.54 Q1365.63 1531.54 1369.99 1536.5 Q1374.35 1541.47 1374.35 1550.25 Q1374.35 1559 1369.99 1564 Q1365.63 1568.97 1357.99 1568.97 Q1350.32 1568.97 1345.96 1564 Q1341.63 1559 1341.63 1550.25 Q1341.63 1541.47 1345.96 1536.5 Q1350.32 1531.54 1357.99 1531.54 Z" fill="#000000" fill-rule="nonzero" fill-opacity="1" /><path clip-path="url(#clip080)" d="M1383.46 1553.98 L1383.46 1532.4 L1389.31 1532.4 L1389.31 1553.75 Q1389.31 1558.81 1391.29 1561.36 Q1393.26 1563.87 1397.21 1563.87 Q1401.95 1563.87 1404.69 1560.85 Q1407.46 1557.83 1407.46 1552.61 L1407.46 1532.4 L1413.31 1532.4 L1413.31 1568.04 L1407.46 1568.04 L1407.46 1562.57 Q1405.32 1565.82 1402.49 1567.41 Q1399.69 1568.97 1395.97 1568.97 Q1389.82 1568.97 1386.64 1565.15 Q1383.46 1561.33 1383.46 1553.98 M1398.19 1531.54 L1398.19 1531.54 Z" fill="#000000" fill-rule="nonzero" fill-opacity="1" /><path clip-path="url(#clip080)" d="M1446.03 1537.87 Q1445.05 1537.3 1443.87 1537.04 Q1442.72 1536.76 1441.32 1536.76 Q1436.36 1536.76 1433.68 1540 Q1431.04 1543.22 1431.04 1549.27 L1431.04 1568.04 L1425.15 1568.04 L1425.15 1532.4 L1431.04 1532.4 L1431.04 1537.93 Q1432.89 1534.69 1435.85 1533.13 Q1438.81 1531.54 1443.04 1531.54 Q1443.65 1531.54 1444.38 1531.63 Q1445.11 1531.7 1446 1531.85 L1446.03 1537.87 Z" fill="#000000" fill-rule="nonzero" fill-opacity="1" /><path clip-path="url(#clip080)" d="M1451.25 1518.58 L1456.34 1518.58 Q1461.12 1526.09 1463.47 1533.29 Q1465.86 1540.48 1465.86 1547.58 Q1465.86 1554.71 1463.47 1561.93 Q1461.12 1569.16 1456.34 1576.64 L1451.25 1576.64 Q1455.49 1569.35 1457.55 1562.16 Q1459.66 1554.93 1459.66 1547.58 Q1459.66 1540.23 1457.55 1533.06 Q1455.49 1525.9 1451.25 1518.58 Z" fill="#000000" fill-rule="nonzero" fill-opacity="1" /><polyline clip-path="url(#clip082)" style="stroke:#000000; stroke-linecap:round; stroke-linejoin:round; stroke-width:2; stroke-opacity:0.1; fill:none" points="203.964,1260.97 2352.76,1260.97 "/>
<polyline clip-path="url(#clip082)" style="stroke:#000000; stroke-linecap:round; stroke-linejoin:round; stroke-width:2; stroke-opacity:0.1; fill:none" points="203.964,1080.42 2352.76,1080.42 "/>
<polyline clip-path="url(#clip082)" style="stroke:#000000; stroke-linecap:round; stroke-linejoin:round; stroke-width:2; stroke-opacity:0.1; fill:none" points="203.964,899.858 2352.76,899.858 "/>
<polyline clip-path="url(#clip082)" style="stroke:#000000; stroke-linecap:round; stroke-linejoin:round; stroke-width:2; stroke-opacity:0.1; fill:none" points="203.964,719.301 2352.76,719.301 "/>
<polyline clip-path="url(#clip082)" style="stroke:#000000; stroke-linecap:round; stroke-linejoin:round; stroke-width:2; stroke-opacity:0.1; fill:none" points="203.964,538.744 2352.76,538.744 "/>
<polyline clip-path="url(#clip082)" style="stroke:#000000; stroke-linecap:round; stroke-linejoin:round; stroke-width:2; stroke-opacity:0.1; fill:none" points="203.964,358.187 2352.76,358.187 "/>
<polyline clip-path="url(#clip082)" style="stroke:#000000; stroke-linecap:round; stroke-linejoin:round; stroke-width:2; stroke-opacity:0.1; fill:none" points="203.964,177.63 2352.76,177.63 "/>
<polyline clip-path="url(#clip080)" style="stroke:#000000; stroke-linecap:round; stroke-linejoin:round; stroke-width:4; stroke-opacity:1; fill:none" points="203.964,1423.18 203.964,123.472 "/>
<polyline clip-path="url(#clip080)" style="stroke:#000000; stroke-linecap:round; stroke-linejoin:round; stroke-width:4; stroke-opacity:1; fill:none" points="203.964,1260.97 222.861,1260.97 "/>
<polyline clip-path="url(#clip080)" style="stroke:#000000; stroke-linecap:round; stroke-linejoin:round; stroke-width:4; stroke-opacity:1; fill:none" points="203.964,1080.42 222.861,1080.42 "/>
<polyline clip-path="url(#clip080)" style="stroke:#000000; stroke-linecap:round; stroke-linejoin:round; stroke-width:4; stroke-opacity:1; fill:none" points="203.964,899.858 222.861,899.858 "/>
<polyline clip-path="url(#clip080)" style="stroke:#000000; stroke-linecap:round; stroke-linejoin:round; stroke-width:4; stroke-opacity:1; fill:none" points="203.964,719.301 222.861,719.301 "/>
<polyline clip-path="url(#clip080)" style="stroke:#000000; stroke-linecap:round; stroke-linejoin:round; stroke-width:4; stroke-opacity:1; fill:none" points="203.964,538.744 222.861,538.744 "/>
<polyline clip-path="url(#clip080)" style="stroke:#000000; stroke-linecap:round; stroke-linejoin:round; stroke-width:4; stroke-opacity:1; fill:none" points="203.964,358.187 222.861,358.187 "/>
<polyline clip-path="url(#clip080)" style="stroke:#000000; stroke-linecap:round; stroke-linejoin:round; stroke-width:4; stroke-opacity:1; fill:none" points="203.964,177.63 222.861,177.63 "/>
<path clip-path="url(#clip080)" d="M147.061 1243.69 L165.417 1243.69 L165.417 1247.63 L151.343 1247.63 L151.343 1256.1 Q152.362 1255.75 153.38 1255.59 Q154.399 1255.41 155.417 1255.41 Q161.204 1255.41 164.584 1258.58 Q167.964 1261.75 167.964 1267.16 Q167.964 1272.74 164.491 1275.84 Q161.019 1278.92 154.7 1278.92 Q152.524 1278.92 150.255 1278.55 Q148.01 1278.18 145.603 1277.44 L145.603 1272.74 Q147.686 1273.88 149.908 1274.43 Q152.13 1274.99 154.607 1274.99 Q158.612 1274.99 160.95 1272.88 Q163.288 1270.78 163.288 1267.16 Q163.288 1263.55 160.95 1261.45 Q158.612 1259.34 154.607 1259.34 Q152.732 1259.34 150.857 1259.76 Q149.005 1260.17 147.061 1261.05 L147.061 1243.69 Z" fill="#000000" fill-rule="nonzero" fill-opacity="1" /><path clip-path="url(#clip080)" d="M116.668 1093.76 L124.306 1093.76 L124.306 1067.39 L115.996 1069.06 L115.996 1064.8 L124.26 1063.14 L128.936 1063.14 L128.936 1093.76 L136.575 1093.76 L136.575 1097.7 L116.668 1097.7 L116.668 1093.76 Z" fill="#000000" fill-rule="nonzero" fill-opacity="1" /><path clip-path="url(#clip080)" d="M156.019 1066.21 Q152.408 1066.21 150.579 1069.78 Q148.774 1073.32 148.774 1080.45 Q148.774 1087.56 150.579 1091.12 Q152.408 1094.66 156.019 1094.66 Q159.653 1094.66 161.459 1091.12 Q163.288 1087.56 163.288 1080.45 Q163.288 1073.32 161.459 1069.78 Q159.653 1066.21 156.019 1066.21 M156.019 1062.51 Q161.829 1062.51 164.885 1067.12 Q167.964 1071.7 167.964 1080.45 Q167.964 1089.18 164.885 1093.78 Q161.829 1098.37 156.019 1098.37 Q150.209 1098.37 147.13 1093.78 Q144.075 1089.18 144.075 1080.45 Q144.075 1071.7 147.13 1067.12 Q150.209 1062.51 156.019 1062.51 Z" fill="#000000" fill-rule="nonzero" fill-opacity="1" /><path clip-path="url(#clip080)" d="M117.663 913.203 L125.302 913.203 L125.302 886.837 L116.992 888.504 L116.992 884.245 L125.255 882.578 L129.931 882.578 L129.931 913.203 L137.57 913.203 L137.57 917.138 L117.663 917.138 L117.663 913.203 Z" fill="#000000" fill-rule="nonzero" fill-opacity="1" /><path clip-path="url(#clip080)" d="M147.061 882.578 L165.417 882.578 L165.417 886.513 L151.343 886.513 L151.343 894.986 Q152.362 894.638 153.38 894.476 Q154.399 894.291 155.417 894.291 Q161.204 894.291 164.584 897.462 Q167.964 900.634 167.964 906.05 Q167.964 911.629 164.491 914.731 Q161.019 917.81 154.7 917.81 Q152.524 917.81 150.255 917.439 Q148.01 917.069 145.603 916.328 L145.603 911.629 Q147.686 912.763 149.908 913.319 Q152.13 913.874 154.607 913.874 Q158.612 913.874 160.95 911.768 Q163.288 909.661 163.288 906.05 Q163.288 902.439 160.95 900.333 Q158.612 898.226 154.607 898.226 Q152.732 898.226 150.857 898.643 Q149.005 899.06 147.061 899.939 L147.061 882.578 Z" fill="#000000" fill-rule="nonzero" fill-opacity="1" /><path clip-path="url(#clip080)" d="M119.885 732.646 L136.204 732.646 L136.204 736.581 L114.26 736.581 L114.26 732.646 Q116.922 729.891 121.505 725.262 Q126.112 720.609 127.292 719.267 Q129.538 716.743 130.417 715.007 Q131.32 713.248 131.32 711.558 Q131.32 708.804 129.376 707.068 Q127.455 705.331 124.353 705.331 Q122.154 705.331 119.7 706.095 Q117.269 706.859 114.492 708.41 L114.492 703.688 Q117.316 702.554 119.769 701.975 Q122.223 701.396 124.26 701.396 Q129.63 701.396 132.825 704.081 Q136.019 706.767 136.019 711.257 Q136.019 713.387 135.209 715.308 Q134.422 717.206 132.316 719.799 Q131.737 720.47 128.635 723.688 Q125.533 726.882 119.885 732.646 Z" fill="#000000" fill-rule="nonzero" fill-opacity="1" /><path clip-path="url(#clip080)" d="M156.019 705.1 Q152.408 705.1 150.579 708.665 Q148.774 712.206 148.774 719.336 Q148.774 726.442 150.579 730.007 Q152.408 733.549 156.019 733.549 Q159.653 733.549 161.459 730.007 Q163.288 726.442 163.288 719.336 Q163.288 712.206 161.459 708.665 Q159.653 705.1 156.019 705.1 M156.019 701.396 Q161.829 701.396 164.885 706.003 Q167.964 710.586 167.964 719.336 Q167.964 728.063 164.885 732.669 Q161.829 737.253 156.019 737.253 Q150.209 737.253 147.13 732.669 Q144.075 728.063 144.075 719.336 Q144.075 710.586 147.13 706.003 Q150.209 701.396 156.019 701.396 Z" fill="#000000" fill-rule="nonzero" fill-opacity="1" /><path clip-path="url(#clip080)" d="M120.88 552.089 L137.2 552.089 L137.2 556.024 L115.256 556.024 L115.256 552.089 Q117.918 549.334 122.501 544.705 Q127.107 540.052 128.288 538.71 Q130.533 536.186 131.413 534.45 Q132.316 532.691 132.316 531.001 Q132.316 528.247 130.371 526.511 Q128.45 524.774 125.348 524.774 Q123.149 524.774 120.695 525.538 Q118.265 526.302 115.487 527.853 L115.487 523.131 Q118.311 521.997 120.765 521.418 Q123.218 520.839 125.255 520.839 Q130.626 520.839 133.82 523.524 Q137.015 526.21 137.015 530.7 Q137.015 532.83 136.204 534.751 Q135.417 536.649 133.311 539.242 Q132.732 539.913 129.63 543.131 Q126.529 546.325 120.88 552.089 Z" fill="#000000" fill-rule="nonzero" fill-opacity="1" /><path clip-path="url(#clip080)" d="M147.061 521.464 L165.417 521.464 L165.417 525.399 L151.343 525.399 L151.343 533.872 Q152.362 533.524 153.38 533.362 Q154.399 533.177 155.417 533.177 Q161.204 533.177 164.584 536.348 Q167.964 539.52 167.964 544.936 Q167.964 550.515 164.491 553.617 Q161.019 556.696 154.7 556.696 Q152.524 556.696 150.255 556.325 Q148.01 555.955 145.603 555.214 L145.603 550.515 Q147.686 551.649 149.908 552.205 Q152.13 552.76 154.607 552.76 Q158.612 552.76 160.95 550.654 Q163.288 548.547 163.288 544.936 Q163.288 541.325 160.95 539.219 Q158.612 537.112 154.607 537.112 Q152.732 537.112 150.857 537.529 Q149.005 537.946 147.061 538.825 L147.061 521.464 Z" fill="#000000" fill-rule="nonzero" fill-opacity="1" /><path clip-path="url(#clip080)" d="M130.024 356.833 Q133.38 357.551 135.255 359.819 Q137.154 362.088 137.154 365.421 Q137.154 370.537 133.635 373.338 Q130.117 376.139 123.635 376.139 Q121.459 376.139 119.144 375.699 Q116.853 375.282 114.399 374.426 L114.399 369.912 Q116.343 371.046 118.658 371.625 Q120.973 372.203 123.496 372.203 Q127.894 372.203 130.186 370.467 Q132.501 368.731 132.501 365.421 Q132.501 362.365 130.348 360.653 Q128.218 358.916 124.399 358.916 L120.371 358.916 L120.371 355.074 L124.584 355.074 Q128.033 355.074 129.862 353.708 Q131.691 352.319 131.691 349.727 Q131.691 347.065 129.792 345.653 Q127.917 344.217 124.399 344.217 Q122.478 344.217 120.279 344.634 Q118.08 345.051 115.441 345.93 L115.441 341.764 Q118.103 341.023 120.418 340.653 Q122.755 340.282 124.816 340.282 Q130.14 340.282 133.242 342.713 Q136.343 345.12 136.343 349.241 Q136.343 352.111 134.7 354.102 Q133.056 356.069 130.024 356.833 Z" fill="#000000" fill-rule="nonzero" fill-opacity="1" /><path clip-path="url(#clip080)" d="M156.019 343.986 Q152.408 343.986 150.579 347.551 Q148.774 351.092 148.774 358.222 Q148.774 365.328 150.579 368.893 Q152.408 372.435 156.019 372.435 Q159.653 372.435 161.459 368.893 Q163.288 365.328 163.288 358.222 Q163.288 351.092 161.459 347.551 Q159.653 343.986 156.019 343.986 M156.019 340.282 Q161.829 340.282 164.885 344.889 Q167.964 349.472 167.964 358.222 Q167.964 366.949 164.885 371.555 Q161.829 376.139 156.019 376.139 Q150.209 376.139 147.13 371.555 Q144.075 366.949 144.075 358.222 Q144.075 349.472 147.13 344.889 Q150.209 340.282 156.019 340.282 Z" fill="#000000" fill-rule="nonzero" fill-opacity="1" /><path clip-path="url(#clip080)" d="M131.019 176.276 Q134.376 176.994 136.251 179.262 Q138.149 181.531 138.149 184.864 Q138.149 189.98 134.63 192.781 Q131.112 195.582 124.63 195.582 Q122.455 195.582 120.14 195.142 Q117.848 194.725 115.394 193.869 L115.394 189.355 Q117.339 190.489 119.654 191.068 Q121.968 191.646 124.492 191.646 Q128.89 191.646 131.181 189.91 Q133.496 188.174 133.496 184.864 Q133.496 181.808 131.343 180.096 Q129.214 178.359 125.394 178.359 L121.367 178.359 L121.367 174.517 L125.58 174.517 Q129.029 174.517 130.857 173.151 Q132.686 171.762 132.686 169.17 Q132.686 166.508 130.788 165.096 Q128.913 163.66 125.394 163.66 Q123.473 163.66 121.274 164.077 Q119.075 164.494 116.436 165.373 L116.436 161.207 Q119.098 160.466 121.413 160.096 Q123.751 159.725 125.811 159.725 Q131.135 159.725 134.237 162.156 Q137.339 164.563 137.339 168.684 Q137.339 171.554 135.695 173.545 Q134.052 175.512 131.019 176.276 Z" fill="#000000" fill-rule="nonzero" fill-opacity="1" /><path clip-path="url(#clip080)" d="M147.061 160.35 L165.417 160.35 L165.417 164.285 L151.343 164.285 L151.343 172.758 Q152.362 172.41 153.38 172.248 Q154.399 172.063 155.417 172.063 Q161.204 172.063 164.584 175.234 Q167.964 178.406 167.964 183.822 Q167.964 189.401 164.491 192.503 Q161.019 195.582 154.7 195.582 Q152.524 195.582 150.255 195.211 Q148.01 194.841 145.603 194.1 L145.603 189.401 Q147.686 190.535 149.908 191.091 Q152.13 191.646 154.607 191.646 Q158.612 191.646 160.95 189.54 Q163.288 187.433 163.288 183.822 Q163.288 180.211 160.95 178.105 Q158.612 175.998 154.607 175.998 Q152.732 175.998 150.857 176.415 Q149.005 176.832 147.061 177.711 L147.061 160.35 Z" fill="#000000" fill-rule="nonzero" fill-opacity="1" /><path clip-path="url(#clip080)" d="M21.7677 1114.35 L39.6235 1114.35 L39.6235 1106.27 Q39.6235 1101.78 37.3 1099.33 Q34.9765 1096.88 30.6797 1096.88 Q26.4147 1096.88 24.0912 1099.33 Q21.7677 1101.78 21.7677 1106.27 L21.7677 1114.35 M16.4842 1120.78 L16.4842 1106.27 Q16.4842 1098.28 20.1126 1094.21 Q23.7092 1090.1 30.6797 1090.1 Q37.7138 1090.1 41.3104 1094.21 Q44.907 1098.28 44.907 1106.27 L44.907 1114.35 L64.0042 1114.35 L64.0042 1120.78 L16.4842 1120.78 Z" fill="#000000" fill-rule="nonzero" fill-opacity="1" /><path clip-path="url(#clip080)" d="M32.4621 1070.24 Q32.4621 1074.95 36.1542 1077.69 Q39.8145 1080.42 46.212 1080.42 Q52.6095 1080.42 56.3017 1077.72 Q59.9619 1074.98 59.9619 1070.24 Q59.9619 1065.56 56.2698 1062.82 Q52.5777 1060.09 46.212 1060.09 Q39.8781 1060.09 36.186 1062.82 Q32.4621 1065.56 32.4621 1070.24 M27.4968 1070.24 Q27.4968 1062.6 32.4621 1058.24 Q37.4273 1053.88 46.212 1053.88 Q54.9649 1053.88 59.9619 1058.24 Q64.9272 1062.6 64.9272 1070.24 Q64.9272 1077.91 59.9619 1082.27 Q54.9649 1086.6 46.212 1086.6 Q37.4273 1086.6 32.4621 1082.27 Q27.4968 1077.91 27.4968 1070.24 Z" fill="#000000" fill-rule="nonzero" fill-opacity="1" /><path clip-path="url(#clip080)" d="M28.3562 1047.58 L28.3562 1041.72 L56.1743 1034.4 L28.3562 1027.11 L28.3562 1020.2 L56.1743 1012.88 L28.3562 1005.59 L28.3562 999.738 L64.0042 1009.06 L64.0042 1015.97 L34.7856 1023.64 L64.0042 1031.34 L64.0042 1038.25 L28.3562 1047.58 Z" fill="#000000" fill-rule="nonzero" fill-opacity="1" /><path clip-path="url(#clip080)" d="M44.7161 960.366 L47.5806 960.366 L47.5806 987.293 Q53.6281 986.911 56.8109 983.665 Q59.9619 980.387 59.9619 974.562 Q59.9619 971.188 59.1344 968.037 Q58.3069 964.854 56.6518 961.735 L62.1899 961.735 Q63.5267 964.886 64.227 968.196 Q64.9272 971.506 64.9272 974.912 Q64.9272 983.442 59.9619 988.439 Q54.9967 993.404 46.5303 993.404 Q37.7774 993.404 32.6531 988.694 Q27.4968 983.951 27.4968 975.931 Q27.4968 968.737 32.1438 964.568 Q36.7589 960.366 44.7161 960.366 M42.9973 966.223 Q38.1912 966.286 35.3266 968.928 Q32.4621 971.538 32.4621 975.867 Q32.4621 980.768 35.2312 983.729 Q38.0002 986.657 43.0292 987.102 L42.9973 966.223 Z" fill="#000000" fill-rule="nonzero" fill-opacity="1" /><path clip-path="url(#clip080)" d="M33.8307 930.097 Q33.2578 931.084 33.0032 932.262 Q32.7167 933.408 32.7167 934.808 Q32.7167 939.773 35.9632 942.447 Q39.1779 945.089 45.2253 945.089 L64.0042 945.089 L64.0042 950.977 L28.3562 950.977 L28.3562 945.089 L33.8944 945.089 Q30.6479 943.243 29.0883 940.283 Q27.4968 937.323 27.4968 933.089 Q27.4968 932.485 27.5923 931.753 Q27.656 931.02 27.8151 930.129 L33.8307 930.097 Z" fill="#000000" fill-rule="nonzero" fill-opacity="1" /><path clip-path="url(#clip080)" d="M20.1444 867.395 L26.9239 867.395 Q23.9002 870.642 22.4043 874.334 Q20.9083 877.994 20.9083 882.132 Q20.9083 890.28 25.9054 894.609 Q30.8707 898.937 40.2919 898.937 Q49.6813 898.937 54.6784 894.609 Q59.6436 890.28 59.6436 882.132 Q59.6436 877.994 58.1477 874.334 Q56.6518 870.642 53.6281 867.395 L60.3439 867.395 Q62.6355 870.769 63.7814 874.557 Q64.9272 878.312 64.9272 882.514 Q64.9272 893.304 58.3387 899.51 Q51.7183 905.717 40.2919 905.717 Q28.8336 905.717 22.2451 899.51 Q15.6248 893.304 15.6248 882.514 Q15.6248 878.249 16.7706 874.493 Q17.8846 870.705 20.1444 867.395 Z" fill="#000000" fill-rule="nonzero" fill-opacity="1" /><path clip-path="url(#clip080)" d="M49.9359 858.324 L28.3562 858.324 L28.3562 852.468 L49.7131 852.468 Q54.7739 852.468 57.3202 850.494 Q59.8346 848.521 59.8346 844.574 Q59.8346 839.832 56.8109 837.094 Q53.7872 834.325 48.5673 834.325 L28.3562 834.325 L28.3562 828.469 L64.0042 828.469 L64.0042 834.325 L58.5296 834.325 Q61.7762 836.458 63.3676 839.291 Q64.9272 842.092 64.9272 845.815 Q64.9272 851.958 61.1078 855.141 Q57.2883 858.324 49.9359 858.324 M27.4968 843.587 L27.4968 843.587 Z" fill="#000000" fill-rule="nonzero" fill-opacity="1" /><path clip-path="url(#clip080)" d="M33.8307 795.749 Q33.2578 796.736 33.0032 797.914 Q32.7167 799.059 32.7167 800.46 Q32.7167 805.425 35.9632 808.099 Q39.1779 810.74 45.2253 810.74 L64.0042 810.74 L64.0042 816.629 L28.3562 816.629 L28.3562 810.74 L33.8944 810.74 Q30.6479 808.894 29.0883 805.934 Q27.4968 802.974 27.4968 798.741 Q27.4968 798.136 27.5923 797.404 Q27.656 796.672 27.8151 795.781 L33.8307 795.749 Z" fill="#000000" fill-rule="nonzero" fill-opacity="1" /><path clip-path="url(#clip080)" d="M18.2347 783.813 L28.3562 783.813 L28.3562 771.75 L32.9077 771.75 L32.9077 783.813 L52.2594 783.813 Q56.6199 783.813 57.8613 782.636 Q59.1026 781.426 59.1026 777.766 L59.1026 771.75 L64.0042 771.75 L64.0042 777.766 Q64.0042 784.546 61.4897 787.124 Q58.9434 789.702 52.2594 789.702 L32.9077 789.702 L32.9077 793.999 L28.3562 793.999 L28.3562 789.702 L18.2347 789.702 L18.2347 783.813 Z" fill="#000000" fill-rule="nonzero" fill-opacity="1" /><path clip-path="url(#clip080)" d="M46.0847 747.847 Q46.0847 754.945 47.7079 757.682 Q49.3312 760.42 53.2461 760.42 Q56.3653 760.42 58.2114 758.382 Q60.0256 756.314 60.0256 752.781 Q60.0256 747.911 56.5881 744.983 Q53.1188 742.023 47.3897 742.023 L46.0847 742.023 L46.0847 747.847 M43.6657 736.166 L64.0042 736.166 L64.0042 742.023 L58.5933 742.023 Q61.8398 744.028 63.3994 747.02 Q64.9272 750.012 64.9272 754.34 Q64.9272 759.815 61.8716 763.061 Q58.7843 766.276 53.6281 766.276 Q47.6125 766.276 44.5569 762.266 Q41.5014 758.223 41.5014 750.234 L41.5014 742.023 L40.9285 742.023 Q36.8862 742.023 34.6901 744.696 Q32.4621 747.338 32.4621 752.144 Q32.4621 755.2 33.1941 758.096 Q33.9262 760.992 35.3903 763.666 L29.9795 763.666 Q28.7381 760.451 28.1334 757.428 Q27.4968 754.404 27.4968 751.539 Q27.4968 743.805 31.5072 739.986 Q35.5176 736.166 43.6657 736.166 Z" fill="#000000" fill-rule="nonzero" fill-opacity="1" /><path clip-path="url(#clip080)" d="M28.3562 724.103 L28.3562 718.247 L64.0042 718.247 L64.0042 724.103 L28.3562 724.103 M14.479 724.103 L14.479 718.247 L21.895 718.247 L21.895 724.103 L14.479 724.103 Z" fill="#000000" fill-rule="nonzero" fill-opacity="1" /><path clip-path="url(#clip080)" d="M14.479 705.993 L14.479 700.136 L64.0042 700.136 L64.0042 705.993 L14.479 705.993 Z" fill="#000000" fill-rule="nonzero" fill-opacity="1" /><path clip-path="url(#clip080)" d="M44.7161 657.391 L47.5806 657.391 L47.5806 684.317 Q53.6281 683.936 56.8109 680.689 Q59.9619 677.411 59.9619 671.586 Q59.9619 668.212 59.1344 665.061 Q58.3069 661.878 56.6518 658.759 L62.1899 658.759 Q63.5267 661.91 64.227 665.22 Q64.9272 668.531 64.9272 671.936 Q64.9272 680.466 59.9619 685.463 Q54.9967 690.429 46.5303 690.429 Q37.7774 690.429 32.6531 685.718 Q27.4968 680.975 27.4968 672.955 Q27.4968 665.761 32.1438 661.592 Q36.7589 657.391 44.7161 657.391 M42.9973 663.247 Q38.1912 663.311 35.3266 665.952 Q32.4621 668.562 32.4621 672.891 Q32.4621 677.793 35.2312 680.753 Q38.0002 683.681 43.0292 684.127 L42.9973 663.247 Z" fill="#000000" fill-rule="nonzero" fill-opacity="1" /><path clip-path="url(#clip080)" d="M33.7671 624.321 L14.479 624.321 L14.479 618.464 L64.0042 618.464 L64.0042 624.321 L58.657 624.321 Q61.8398 626.167 63.3994 629 Q64.9272 631.8 64.9272 635.747 Q64.9272 642.208 59.771 646.282 Q54.6147 650.325 46.212 650.325 Q37.8093 650.325 32.6531 646.282 Q27.4968 642.208 27.4968 635.747 Q27.4968 631.8 29.0564 629 Q30.5842 626.167 33.7671 624.321 M46.212 644.277 Q52.6732 644.277 56.3653 641.635 Q60.0256 638.962 60.0256 634.315 Q60.0256 629.668 56.3653 626.994 Q52.6732 624.321 46.212 624.321 Q39.7508 624.321 36.0905 626.994 Q32.3984 629.668 32.3984 634.315 Q32.3984 638.962 36.0905 641.635 Q39.7508 644.277 46.212 644.277 Z" fill="#000000" fill-rule="nonzero" fill-opacity="1" /><path clip-path="url(#clip080)" d="M14.5426 571.613 Q21.8632 575.878 29.0246 577.947 Q36.186 580.015 43.5384 580.015 Q50.8908 580.015 58.1159 577.947 Q65.3091 575.846 72.5979 571.613 L72.5979 576.705 Q65.1182 581.48 57.8931 583.867 Q50.668 586.222 43.5384 586.222 Q36.4406 586.222 29.2474 583.867 Q22.0542 581.511 14.5426 576.705 L14.5426 571.613 Z" fill="#000000" fill-rule="nonzero" fill-opacity="1" /><path clip-path="url(#clip080)" d="M16.4842 559.995 L16.4842 550.415 L48.8219 538.288 L16.4842 526.098 L16.4842 516.517 L64.0042 516.517 L64.0042 522.788 L22.277 522.788 L54.8694 535.042 L54.8694 541.503 L22.277 553.757 L64.0042 553.757 L64.0042 559.995 L16.4842 559.995 Z" fill="#000000" fill-rule="nonzero" fill-opacity="1" /><path clip-path="url(#clip080)" d="M16.4842 507.987 L16.4842 501.494 L56.6518 491.5 L16.4842 481.538 L16.4842 474.313 L56.6518 464.319 L16.4842 454.356 L16.4842 447.831 L64.0042 459.767 L64.0042 467.852 L22.7544 477.878 L64.0042 487.999 L64.0042 496.084 L16.4842 507.987 Z" fill="#000000" fill-rule="nonzero" fill-opacity="1" /><path clip-path="url(#clip080)" d="M14.5426 440.479 L14.5426 435.387 Q22.0542 430.612 29.2474 428.257 Q36.4406 425.87 43.5384 425.87 Q50.668 425.87 57.8931 428.257 Q65.1182 430.612 72.5979 435.387 L72.5979 440.479 Q65.3091 436.246 58.1159 434.177 Q50.8908 432.076 43.5384 432.076 Q36.186 432.076 29.0246 434.177 Q21.8632 436.246 14.5426 440.479 Z" fill="#000000" fill-rule="nonzero" fill-opacity="1" /><path clip-path="url(#clip080)" d="M556.023 17.6457 Q547.111 17.6457 541.845 24.2892 Q536.619 30.9327 536.619 42.3968 Q536.619 53.8203 541.845 60.4638 Q547.111 67.1073 556.023 67.1073 Q564.935 67.1073 570.12 60.4638 Q575.346 53.8203 575.346 42.3968 Q575.346 30.9327 570.12 24.2892 Q564.935 17.6457 556.023 17.6457 M556.023 11.0023 Q568.743 11.0023 576.358 19.5497 Q583.974 28.0566 583.974 42.3968 Q583.974 56.6965 576.358 65.2439 Q568.743 73.7508 556.023 73.7508 Q543.262 73.7508 535.606 65.2439 Q527.99 56.737 527.99 42.3968 Q527.99 28.0566 535.606 19.5497 Q543.262 11.0023 556.023 11.0023 Z" fill="#000000" fill-rule="nonzero" fill-opacity="1" /><path clip-path="url(#clip080)" d="M603.661 65.7705 L603.661 89.8329 L596.167 89.8329 L596.167 27.2059 L603.661 27.2059 L603.661 34.0924 Q606.011 30.0415 609.576 28.0971 Q613.181 26.1121 618.164 26.1121 Q626.427 26.1121 631.572 32.6746 Q636.757 39.2371 636.757 49.9314 Q636.757 60.6258 631.572 67.1883 Q626.427 73.7508 618.164 73.7508 Q613.181 73.7508 609.576 71.8063 Q606.011 69.8214 603.661 65.7705 M629.02 49.9314 Q629.02 41.7081 625.617 37.0496 Q622.255 32.3505 616.341 32.3505 Q610.426 32.3505 607.024 37.0496 Q603.661 41.7081 603.661 49.9314 Q603.661 58.1548 607.024 62.8538 Q610.426 67.5124 616.341 67.5124 Q622.255 67.5124 625.617 62.8538 Q629.02 58.1548 629.02 49.9314 Z" fill="#000000" fill-rule="nonzero" fill-opacity="1" /><path clip-path="url(#clip080)" d="M656.485 14.324 L656.485 27.2059 L671.838 27.2059 L671.838 32.9987 L656.485 32.9987 L656.485 57.6282 Q656.485 63.1779 657.984 64.7578 Q659.523 66.3376 664.182 66.3376 L671.838 66.3376 L671.838 72.576 L664.182 72.576 Q655.553 72.576 652.272 69.3758 Q648.991 66.1351 648.991 57.6282 L648.991 32.9987 L643.522 32.9987 L643.522 27.2059 L648.991 27.2059 L648.991 14.324 L656.485 14.324 Z" fill="#000000" fill-rule="nonzero" fill-opacity="1" /><path clip-path="url(#clip080)" d="M681.641 27.2059 L689.095 27.2059 L689.095 72.576 L681.641 72.576 L681.641 27.2059 M681.641 9.54393 L689.095 9.54393 L689.095 18.9825 L681.641 18.9825 L681.641 9.54393 Z" fill="#000000" fill-rule="nonzero" fill-opacity="1" /><path clip-path="url(#clip080)" d="M740.015 35.9153 Q742.81 30.8922 746.699 28.5022 Q750.588 26.1121 755.854 26.1121 Q762.943 26.1121 766.791 31.0947 Q770.64 36.0368 770.64 45.1919 L770.64 72.576 L763.145 72.576 L763.145 45.4349 Q763.145 38.913 760.836 35.7533 Q758.527 32.5936 753.788 32.5936 Q747.995 32.5936 744.633 36.4419 Q741.271 40.2903 741.271 46.9338 L741.271 72.576 L733.776 72.576 L733.776 45.4349 Q733.776 38.8725 731.467 35.7533 Q729.158 32.5936 724.338 32.5936 Q718.626 32.5936 715.264 36.4824 Q711.902 40.3308 711.902 46.9338 L711.902 72.576 L704.407 72.576 L704.407 27.2059 L711.902 27.2059 L711.902 34.2544 Q714.454 30.082 718.018 28.0971 Q721.583 26.1121 726.485 26.1121 Q731.427 26.1121 734.87 28.6237 Q738.354 31.1352 740.015 35.9153 Z" fill="#000000" fill-rule="nonzero" fill-opacity="1" /><path clip-path="url(#clip080)" d="M806.126 49.7694 Q797.092 49.7694 793.608 51.8354 Q790.125 53.9013 790.125 58.8839 Q790.125 62.8538 792.717 65.2034 Q795.35 67.5124 799.847 67.5124 Q806.045 67.5124 809.771 63.1374 Q813.539 58.7219 813.539 51.4303 L813.539 49.7694 L806.126 49.7694 M820.992 46.6907 L820.992 72.576 L813.539 72.576 L813.539 65.6895 Q810.987 69.8214 807.179 71.8063 Q803.371 73.7508 797.862 73.7508 Q790.894 73.7508 786.762 69.8619 Q782.671 65.9325 782.671 59.3701 Q782.671 51.7138 787.775 47.825 Q792.92 43.9361 803.087 43.9361 L813.539 43.9361 L813.539 43.2069 Q813.539 38.0623 810.136 35.2672 Q806.774 32.4315 800.657 32.4315 Q796.768 32.4315 793.082 33.3632 Q789.395 34.295 785.993 36.1584 L785.993 29.2718 Q790.084 27.692 793.932 26.9223 Q797.781 26.1121 801.427 26.1121 Q811.27 26.1121 816.131 31.2163 Q820.992 36.3204 820.992 46.6907 Z" fill="#000000" fill-rule="nonzero" fill-opacity="1" /><path clip-path="url(#clip080)" d="M836.345 9.54393 L843.799 9.54393 L843.799 72.576 L836.345 72.576 L836.345 9.54393 Z" fill="#000000" fill-rule="nonzero" fill-opacity="1" /><path clip-path="url(#clip080)" d="M894.273 18.8205 L894.273 41.5461 L904.563 41.5461 Q910.274 41.5461 913.394 38.5889 Q916.513 35.6318 916.513 30.163 Q916.513 24.7348 913.394 21.7777 Q910.274 18.8205 904.563 18.8205 L894.273 18.8205 M886.09 12.096 L904.563 12.096 Q914.73 12.096 919.915 16.714 Q925.141 21.2916 925.141 30.163 Q925.141 39.1155 919.915 43.6931 Q914.73 48.2706 904.563 48.2706 L894.273 48.2706 L894.273 72.576 L886.09 72.576 L886.09 12.096 Z" fill="#000000" fill-rule="nonzero" fill-opacity="1" /><path clip-path="url(#clip080)" d="M950.419 32.4315 Q944.423 32.4315 940.94 37.1306 Q937.456 41.7891 937.456 49.9314 Q937.456 58.0738 940.899 62.7728 Q944.383 67.4314 950.419 67.4314 Q956.374 67.4314 959.857 62.7323 Q963.341 58.0333 963.341 49.9314 Q963.341 41.8701 959.857 37.1711 Q956.374 32.4315 950.419 32.4315 M950.419 26.1121 Q960.141 26.1121 965.691 32.4315 Q971.24 38.7509 971.24 49.9314 Q971.24 61.0714 965.691 67.4314 Q960.141 73.7508 950.419 73.7508 Q940.656 73.7508 935.106 67.4314 Q929.597 61.0714 929.597 49.9314 Q929.597 38.7509 935.106 32.4315 Q940.656 26.1121 950.419 26.1121 Z" fill="#000000" fill-rule="nonzero" fill-opacity="1" /><path clip-path="url(#clip080)" d="M979.261 27.2059 L986.715 27.2059 L996.032 62.6108 L1005.31 27.2059 L1014.1 27.2059 L1023.42 62.6108 L1032.69 27.2059 L1040.15 27.2059 L1028.28 72.576 L1019.49 72.576 L1009.72 35.3887 L999.921 72.576 L991.13 72.576 L979.261 27.2059 Z" fill="#000000" fill-rule="nonzero" fill-opacity="1" /><path clip-path="url(#clip080)" d="M1090.26 48.0275 L1090.26 51.6733 L1055.99 51.6733 Q1056.47 59.3701 1060.6 63.421 Q1064.78 67.4314 1072.19 67.4314 Q1076.48 67.4314 1080.49 66.3781 Q1084.54 65.3249 1088.51 63.2184 L1088.51 70.267 Q1084.5 71.9684 1080.29 72.8596 Q1076.08 73.7508 1071.74 73.7508 Q1060.89 73.7508 1054.53 67.4314 Q1048.21 61.1119 1048.21 50.3365 Q1048.21 39.1965 1054.2 32.6746 Q1060.24 26.1121 1070.45 26.1121 Q1079.6 26.1121 1084.91 32.0264 Q1090.26 37.9003 1090.26 48.0275 M1082.8 45.84 Q1082.72 39.7232 1079.36 36.0774 Q1076.04 32.4315 1070.53 32.4315 Q1064.29 32.4315 1060.52 35.9558 Q1056.8 39.4801 1056.23 45.8805 L1082.8 45.84 Z" fill="#000000" fill-rule="nonzero" fill-opacity="1" /><path clip-path="url(#clip080)" d="M1128.78 34.1734 Q1127.52 33.4443 1126.03 33.1202 Q1124.57 32.7556 1122.78 32.7556 Q1116.47 32.7556 1113.06 36.8875 Q1109.7 40.9789 1109.7 48.6757 L1109.7 72.576 L1102.21 72.576 L1102.21 27.2059 L1109.7 27.2059 L1109.7 34.2544 Q1112.05 30.1225 1115.82 28.1376 Q1119.58 26.1121 1124.97 26.1121 Q1125.74 26.1121 1126.67 26.2337 Q1127.61 26.3147 1128.74 26.5172 L1128.78 34.1734 Z" fill="#000000" fill-rule="nonzero" fill-opacity="1" /><path clip-path="url(#clip080)" d="M1208.58 16.7545 L1208.58 25.383 Q1204.45 21.5346 1199.75 19.6307 Q1195.09 17.7268 1189.83 17.7268 Q1179.46 17.7268 1173.95 24.0867 Q1168.44 30.4061 1168.44 42.3968 Q1168.44 54.3469 1173.95 60.7069 Q1179.46 67.0263 1189.83 67.0263 Q1195.09 67.0263 1199.75 65.1223 Q1204.45 63.2184 1208.58 59.3701 L1208.58 67.9175 Q1204.29 70.8341 1199.47 72.2924 Q1194.69 73.7508 1189.34 73.7508 Q1175.61 73.7508 1167.71 65.3654 Q1159.81 56.9395 1159.81 42.3968 Q1159.81 27.8135 1167.71 19.4281 Q1175.61 11.0023 1189.34 11.0023 Q1194.77 11.0023 1199.55 12.4606 Q1204.37 13.8784 1208.58 16.7545 Z" fill="#000000" fill-rule="nonzero" fill-opacity="1" /><path clip-path="url(#clip080)" d="M1220.13 54.671 L1220.13 27.2059 L1227.58 27.2059 L1227.58 54.3874 Q1227.58 60.8284 1230.09 64.0691 Q1232.6 67.2693 1237.63 67.2693 Q1243.66 67.2693 1247.15 63.421 Q1250.67 59.5726 1250.67 52.9291 L1250.67 27.2059 L1258.13 27.2059 L1258.13 72.576 L1250.67 72.576 L1250.67 65.6084 Q1247.96 69.7404 1244.35 71.7658 Q1240.79 73.7508 1236.05 73.7508 Q1228.23 73.7508 1224.18 68.8897 Q1220.13 64.0286 1220.13 54.671 M1238.88 26.1121 L1238.88 26.1121 Z" fill="#000000" fill-rule="nonzero" fill-opacity="1" /><path clip-path="url(#clip080)" d="M1299.77 34.1734 Q1298.51 33.4443 1297.01 33.1202 Q1295.56 32.7556 1293.77 32.7556 Q1287.45 32.7556 1284.05 36.8875 Q1280.69 40.9789 1280.69 48.6757 L1280.69 72.576 L1273.19 72.576 L1273.19 27.2059 L1280.69 27.2059 L1280.69 34.2544 Q1283.04 30.1225 1286.81 28.1376 Q1290.57 26.1121 1295.96 26.1121 Q1296.73 26.1121 1297.66 26.2337 Q1298.59 26.3147 1299.73 26.5172 L1299.77 34.1734 Z" fill="#000000" fill-rule="nonzero" fill-opacity="1" /><path clip-path="url(#clip080)" d="M1314.96 14.324 L1314.96 27.2059 L1330.31 27.2059 L1330.31 32.9987 L1314.96 32.9987 L1314.96 57.6282 Q1314.96 63.1779 1316.46 64.7578 Q1318 66.3376 1322.66 66.3376 L1330.31 66.3376 L1330.31 72.576 L1322.66 72.576 Q1314.03 72.576 1310.75 69.3758 Q1307.47 66.1351 1307.47 57.6282 L1307.47 32.9987 L1302 32.9987 L1302 27.2059 L1307.47 27.2059 L1307.47 14.324 L1314.96 14.324 Z" fill="#000000" fill-rule="nonzero" fill-opacity="1" /><path clip-path="url(#clip080)" d="M1360.73 49.7694 Q1351.7 49.7694 1348.22 51.8354 Q1344.73 53.9013 1344.73 58.8839 Q1344.73 62.8538 1347.33 65.2034 Q1349.96 67.5124 1354.46 67.5124 Q1360.65 67.5124 1364.38 63.1374 Q1368.15 58.7219 1368.15 51.4303 L1368.15 49.7694 L1360.73 49.7694 M1375.6 46.6907 L1375.6 72.576 L1368.15 72.576 L1368.15 65.6895 Q1365.6 69.8214 1361.79 71.8063 Q1357.98 73.7508 1352.47 73.7508 Q1345.5 73.7508 1341.37 69.8619 Q1337.28 65.9325 1337.28 59.3701 Q1337.28 51.7138 1342.38 47.825 Q1347.53 43.9361 1357.7 43.9361 L1368.15 43.9361 L1368.15 43.2069 Q1368.15 38.0623 1364.75 35.2672 Q1361.38 32.4315 1355.27 32.4315 Q1351.38 32.4315 1347.69 33.3632 Q1344 34.295 1340.6 36.1584 L1340.6 29.2718 Q1344.69 27.692 1348.54 26.9223 Q1352.39 26.1121 1356.04 26.1121 Q1365.88 26.1121 1370.74 31.2163 Q1375.6 36.3204 1375.6 46.6907 Z" fill="#000000" fill-rule="nonzero" fill-opacity="1" /><path clip-path="url(#clip080)" d="M1390.95 27.2059 L1398.41 27.2059 L1398.41 72.576 L1390.95 72.576 L1390.95 27.2059 M1390.95 9.54393 L1398.41 9.54393 L1398.41 18.9825 L1390.95 18.9825 L1390.95 9.54393 Z" fill="#000000" fill-rule="nonzero" fill-opacity="1" /><path clip-path="url(#clip080)" d="M1414 9.54393 L1421.46 9.54393 L1421.46 72.576 L1414 72.576 L1414 9.54393 Z" fill="#000000" fill-rule="nonzero" fill-opacity="1" /><path clip-path="url(#clip080)" d="M1475.86 48.0275 L1475.86 51.6733 L1441.59 51.6733 Q1442.08 59.3701 1446.21 63.421 Q1450.38 67.4314 1457.79 67.4314 Q1462.09 67.4314 1466.1 66.3781 Q1470.15 65.3249 1474.12 63.2184 L1474.12 70.267 Q1470.11 71.9684 1465.9 72.8596 Q1461.68 73.7508 1457.35 73.7508 Q1446.49 73.7508 1440.13 67.4314 Q1433.81 61.1119 1433.81 50.3365 Q1433.81 39.1965 1439.81 32.6746 Q1445.84 26.1121 1456.05 26.1121 Q1465.21 26.1121 1470.51 32.0264 Q1475.86 37.9003 1475.86 48.0275 M1468.41 45.84 Q1468.33 39.7232 1464.96 36.0774 Q1461.64 32.4315 1456.13 32.4315 Q1449.9 32.4315 1446.13 35.9558 Q1442.4 39.4801 1441.83 45.8805 L1468.41 45.84 Z" fill="#000000" fill-rule="nonzero" fill-opacity="1" /><path clip-path="url(#clip080)" d="M1517.95 34.0924 L1517.95 9.54393 L1525.4 9.54393 L1525.4 72.576 L1517.95 72.576 L1517.95 65.7705 Q1515.6 69.8214 1512 71.8063 Q1508.43 73.7508 1503.41 73.7508 Q1495.18 73.7508 1490 67.1883 Q1484.85 60.6258 1484.85 49.9314 Q1484.85 39.2371 1490 32.6746 Q1495.18 26.1121 1503.41 26.1121 Q1508.43 26.1121 1512 28.0971 Q1515.6 30.0415 1517.95 34.0924 M1492.55 49.9314 Q1492.55 58.1548 1495.91 62.8538 Q1499.32 67.5124 1505.23 67.5124 Q1511.14 67.5124 1514.55 62.8538 Q1517.95 58.1548 1517.95 49.9314 Q1517.95 41.7081 1514.55 37.0496 Q1511.14 32.3505 1505.23 32.3505 Q1499.32 32.3505 1495.91 37.0496 Q1492.55 41.7081 1492.55 49.9314 Z" fill="#000000" fill-rule="nonzero" fill-opacity="1" /><path clip-path="url(#clip080)" d="M1585.03 9.62495 Q1579.61 18.942 1576.97 28.0566 Q1574.34 37.1711 1574.34 46.5287 Q1574.34 55.8863 1576.97 65.0818 Q1579.65 74.2369 1585.03 83.5134 L1578.55 83.5134 Q1572.48 73.9938 1569.44 64.7983 Q1566.44 55.6027 1566.44 46.5287 Q1566.44 37.4952 1569.44 28.3401 Q1572.44 19.1851 1578.55 9.62495 L1585.03 9.62495 Z" fill="#000000" fill-rule="nonzero" fill-opacity="1" /><path clip-path="url(#clip080)" d="M1636.07 14.0809 L1636.07 22.0612 Q1631.42 19.8332 1627.28 18.7395 Q1623.15 17.6457 1619.3 17.6457 Q1612.62 17.6457 1608.97 20.2383 Q1605.37 22.8309 1605.37 27.611 Q1605.37 31.6214 1607.76 33.6873 Q1610.19 35.7128 1616.91 36.9686 L1621.86 37.9813 Q1631.01 39.7232 1635.35 44.1387 Q1639.72 48.5136 1639.72 55.8863 Q1639.72 64.6767 1633.81 69.2137 Q1627.93 73.7508 1616.55 73.7508 Q1612.26 73.7508 1607.39 72.7785 Q1602.57 71.8063 1597.39 69.9024 L1597.39 61.4765 Q1602.37 64.2716 1607.15 65.6895 Q1611.93 67.1073 1616.55 67.1073 Q1623.56 67.1073 1627.37 64.3527 Q1631.17 61.598 1631.17 56.4939 Q1631.17 52.0379 1628.42 49.5264 Q1625.7 47.0148 1619.47 45.759 L1614.48 44.7868 Q1605.33 42.9639 1601.24 39.075 Q1597.15 35.1862 1597.15 28.2591 Q1597.15 20.2383 1602.78 15.6203 Q1608.45 11.0023 1618.37 11.0023 Q1622.63 11.0023 1627.04 11.7719 Q1631.46 12.5416 1636.07 14.0809 Z" fill="#000000" fill-rule="nonzero" fill-opacity="1" /><path clip-path="url(#clip080)" d="M1684.81 28.9478 L1684.81 35.9153 Q1681.65 34.1734 1678.45 33.3227 Q1675.29 32.4315 1672.05 32.4315 Q1664.8 32.4315 1660.79 37.0496 Q1656.77 41.6271 1656.77 49.9314 Q1656.77 58.2358 1660.79 62.8538 Q1664.8 67.4314 1672.05 67.4314 Q1675.29 67.4314 1678.45 66.5807 Q1681.65 65.6895 1684.81 63.9476 L1684.81 70.8341 Q1681.69 72.2924 1678.33 73.0216 Q1675 73.7508 1671.24 73.7508 Q1660.99 73.7508 1654.95 67.3098 Q1648.92 60.8689 1648.92 49.9314 Q1648.92 38.832 1654.99 32.472 Q1661.11 26.1121 1671.72 26.1121 Q1675.17 26.1121 1678.45 26.8413 Q1681.73 27.5299 1684.81 28.9478 Z" fill="#000000" fill-rule="nonzero" fill-opacity="1" /><path clip-path="url(#clip080)" d="M1697.77 27.2059 L1705.22 27.2059 L1705.22 72.576 L1697.77 72.576 L1697.77 27.2059 M1697.77 9.54393 L1705.22 9.54393 L1705.22 18.9825 L1697.77 18.9825 L1697.77 9.54393 Z" fill="#000000" fill-rule="nonzero" fill-opacity="1" /><path clip-path="url(#clip080)" d="M1758.53 45.1919 L1758.53 72.576 L1751.08 72.576 L1751.08 45.4349 Q1751.08 38.994 1748.57 35.7938 Q1746.06 32.5936 1741.03 32.5936 Q1735 32.5936 1731.51 36.4419 Q1728.03 40.2903 1728.03 46.9338 L1728.03 72.576 L1720.54 72.576 L1720.54 27.2059 L1728.03 27.2059 L1728.03 34.2544 Q1730.7 30.163 1734.31 28.1376 Q1737.96 26.1121 1742.69 26.1121 Q1750.51 26.1121 1754.52 30.9732 Q1758.53 35.7938 1758.53 45.1919 Z" fill="#000000" fill-rule="nonzero" fill-opacity="1" /><path clip-path="url(#clip080)" d="M1794.02 49.7694 Q1784.99 49.7694 1781.5 51.8354 Q1778.02 53.9013 1778.02 58.8839 Q1778.02 62.8538 1780.61 65.2034 Q1783.24 67.5124 1787.74 67.5124 Q1793.94 67.5124 1797.67 63.1374 Q1801.43 58.7219 1801.43 51.4303 L1801.43 49.7694 L1794.02 49.7694 M1808.89 46.6907 L1808.89 72.576 L1801.43 72.576 L1801.43 65.6895 Q1798.88 69.8214 1795.07 71.8063 Q1791.26 73.7508 1785.76 73.7508 Q1778.79 73.7508 1774.66 69.8619 Q1770.56 65.9325 1770.56 59.3701 Q1770.56 51.7138 1775.67 47.825 Q1780.81 43.9361 1790.98 43.9361 L1801.43 43.9361 L1801.43 43.2069 Q1801.43 38.0623 1798.03 35.2672 Q1794.67 32.4315 1788.55 32.4315 Q1784.66 32.4315 1780.98 33.3632 Q1777.29 34.295 1773.89 36.1584 L1773.89 29.2718 Q1777.98 27.692 1781.83 26.9223 Q1785.67 26.1121 1789.32 26.1121 Q1799.16 26.1121 1804.03 31.2163 Q1808.89 36.3204 1808.89 46.6907 Z" fill="#000000" fill-rule="nonzero" fill-opacity="1" /><path clip-path="url(#clip080)" d="M1850.53 34.1734 Q1849.27 33.4443 1847.78 33.1202 Q1846.32 32.7556 1844.53 32.7556 Q1838.21 32.7556 1834.81 36.8875 Q1831.45 40.9789 1831.45 48.6757 L1831.45 72.576 L1823.96 72.576 L1823.96 27.2059 L1831.45 27.2059 L1831.45 34.2544 Q1833.8 30.1225 1837.57 28.1376 Q1841.33 26.1121 1846.72 26.1121 Q1847.49 26.1121 1848.42 26.2337 Q1849.35 26.3147 1850.49 26.5172 L1850.53 34.1734 Z" fill="#000000" fill-rule="nonzero" fill-opacity="1" /><path clip-path="url(#clip080)" d="M1858.35 27.2059 L1865.8 27.2059 L1865.8 72.576 L1858.35 72.576 L1858.35 27.2059 M1858.35 9.54393 L1865.8 9.54393 L1865.8 18.9825 L1858.35 18.9825 L1858.35 9.54393 Z" fill="#000000" fill-rule="nonzero" fill-opacity="1" /><path clip-path="url(#clip080)" d="M1898.98 32.4315 Q1892.98 32.4315 1889.5 37.1306 Q1886.02 41.7891 1886.02 49.9314 Q1886.02 58.0738 1889.46 62.7728 Q1892.94 67.4314 1898.98 67.4314 Q1904.93 67.4314 1908.42 62.7323 Q1911.9 58.0333 1911.9 49.9314 Q1911.9 41.8701 1908.42 37.1711 Q1904.93 32.4315 1898.98 32.4315 M1898.98 26.1121 Q1908.7 26.1121 1914.25 32.4315 Q1919.8 38.7509 1919.8 49.9314 Q1919.8 61.0714 1914.25 67.4314 Q1908.7 73.7508 1898.98 73.7508 Q1889.22 73.7508 1883.67 67.4314 Q1878.16 61.0714 1878.16 49.9314 Q1878.16 38.7509 1883.67 32.4315 Q1889.22 26.1121 1898.98 26.1121 Z" fill="#000000" fill-rule="nonzero" fill-opacity="1" /><path clip-path="url(#clip080)" d="M1966.63 65.6895 L1995.19 65.6895 L1995.19 72.576 L1956.78 72.576 L1956.78 65.6895 Q1961.44 60.8689 1969.46 52.7671 Q1977.53 44.6248 1979.59 42.2752 Q1983.52 37.8598 1985.06 34.8216 Q1986.64 31.7429 1986.64 28.7857 Q1986.64 23.9651 1983.24 20.927 Q1979.88 17.8888 1974.45 17.8888 Q1970.6 17.8888 1966.3 19.2256 Q1962.05 20.5624 1957.19 23.2765 L1957.19 15.0127 Q1962.13 13.0277 1966.43 12.015 Q1970.72 11.0023 1974.28 11.0023 Q1983.68 11.0023 1989.27 15.7013 Q1994.86 20.4004 1994.86 28.2591 Q1994.86 31.9859 1993.45 35.3482 Q1992.07 38.6699 1988.38 43.2069 Q1987.37 44.3817 1981.94 50.0125 Q1976.51 55.6027 1966.63 65.6895 Z" fill="#000000" fill-rule="nonzero" fill-opacity="1" /><path clip-path="url(#clip080)" d="M2010.14 9.62495 L2016.62 9.62495 Q2022.69 19.1851 2025.69 28.3401 Q2028.73 37.4952 2028.73 46.5287 Q2028.73 55.6027 2025.69 64.7983 Q2022.69 73.9938 2016.62 83.5134 L2010.14 83.5134 Q2015.52 74.2369 2018.16 65.0818 Q2020.83 55.8863 2020.83 46.5287 Q2020.83 37.1711 2018.16 28.0566 Q2015.52 18.942 2010.14 9.62495 Z" fill="#000000" fill-rule="nonzero" fill-opacity="1" /><polyline clip-path="url(#clip082)" style="stroke:#009af9; stroke-linecap:round; stroke-linejoin:round; stroke-width:4; stroke-opacity:1; fill:none" points="264.778,1297.08 264.778,1178.42 352.916,1178.42 352.916,1126.66 441.053,1126.66 441.053,1366.7 529.191,1366.7 529.191,1280.7 617.328,1280.7 617.328,1192.63 705.466,1192.63 705.466,1088.63 793.603,1088.63 793.603,1163.34 881.741,1163.34 881.741,1131.54 969.878,1131.54 969.878,1157.18 1058.02,1157.18 1058.02,952.681 1146.15,952.681 1146.15,1116.52 1234.29,1116.52 1234.29,1116.57 1322.43,1116.57 1322.43,1380.38 1410.57,1380.38 1410.57,1309.82 1498.7,1309.82 1498.7,1070.64 1586.84,1070.64 1586.84,1056.31 1674.98,1056.31 1674.98,1219.39 1763.12,1219.39 1763.12,1217.64 1851.25,1217.64 1851.25,1000.95 1939.39,1000.95 1939.39,1298.41 2027.53,1298.41 2027.53,1137.89 2115.67,1137.89 2115.67,1151.12 2203.8,1151.12 2203.8,1085.44 2291.94,1085.44 "/>
<polyline clip-path="url(#clip082)" style="stroke:#e26f46; stroke-linecap:round; stroke-linejoin:round; stroke-width:4; stroke-opacity:1; fill:none" points="264.778,1188.75 264.778,1089.93 352.916,1089.93 352.916,1035.27 441.053,1035.27 441.053,1372.77 529.191,1372.77 529.191,1262.41 617.328,1262.41 617.328,1130.9 705.466,1130.9 705.466,988.01 793.603,988.01 793.603,1090.8 881.741,1090.8 881.741,1039.38 969.878,1039.38 969.878,1078 1058.02,1078 1058.02,789.695 1146.15,789.695 1146.15,1023 1234.29,1023 1234.29,1022.59 1322.43,1022.59 1322.43,1386.4 1410.57,1386.4 1410.57,1305.43 1498.7,1305.43 1498.7,957.717 1586.84,957.717 1586.84,936.87 1674.98,936.87 1674.98,1172.59 1763.12,1172.59 1763.12,1169.93 1851.25,1169.93 1851.25,857.85 1939.39,857.85 1939.39,1288.22 2027.53,1288.22 2027.53,1053.41 2115.67,1053.41 2115.67,1072.67 2203.8,1072.67 2203.8,978.497 2291.94,978.497 "/>
<polyline clip-path="url(#clip082)" style="stroke:#3da44d; stroke-linecap:round; stroke-linejoin:round; stroke-width:4; stroke-opacity:1; fill:none" points="264.778,1260.97 264.778,1067.5 352.916,1067.5 352.916,923.048 441.053,923.048 441.053,1361.23 529.191,1361.23 529.191,1190.53 617.328,1190.53 617.328,1026.7 705.466,1026.7 705.466,806.184 793.603,806.184 793.603,950.93 881.741,950.93 881.741,873.884 969.878,873.884 969.878,930.386 1058.02,930.386 1058.02,542.007 1146.15,542.007 1146.15,854.851 1234.29,854.851 1234.29,857.152 1322.43,857.152 1322.43,1379.83 1410.57,1379.83 1410.57,1262.93 1498.7,1262.93 1498.7,767.18 1586.84,767.18 1586.84,737.195 1674.98,737.195 1674.98,1065.14 1763.12,1065.14 1763.12,1061.59 1851.25,1061.59 1851.25,632.412 1939.39,632.412 1939.39,1237.55 2027.53,1237.55 2027.53,896.426 2115.67,896.426 2115.67,923.101 2203.8,923.101 2203.8,793.432 2291.94,793.432 "/>
<polyline clip-path="url(#clip082)" style="stroke:#c271d2; stroke-linecap:round; stroke-linejoin:round; stroke-width:4; stroke-opacity:1; fill:none" points="264.778,1224.86 264.778,935.084 352.916,935.084 352.916,828.772 441.053,828.772 441.053,1351.2 529.191,1351.2 529.191,1142.89 617.328,1142.89 617.328,880.44 705.466,880.44 705.466,655.974 793.603,655.974 793.603,819.441 881.741,819.441 881.741,724.384 969.878,724.384 969.878,796.879 1058.02,796.879 1058.02,319.494 1146.15,319.494 1146.15,700.029 1234.29,700.029 1234.29,699.623 1322.43,699.623 1322.43,1373.65 1410.57,1373.65 1410.57,1220.2 1498.7,1220.2 1498.7,592.753 1586.84,592.753 1586.84,558.004 1674.98,558.004 1674.98,961.457 1763.12,961.457 1763.12,956.212 1851.25,956.212 1851.25,429.387 1939.39,429.387 1939.39,1184.99 2027.53,1184.99 2027.53,749.999 2115.67,749.999 2115.67,783.267 2203.8,783.267 2203.8,624.263 2291.94,624.263 "/>
<polyline clip-path="url(#clip082)" style="stroke:#ac8d18; stroke-linecap:round; stroke-linejoin:round; stroke-width:4; stroke-opacity:1; fill:none" points="264.778,1260.97 264.778,1003.76 352.916,1003.76 352.916,672.087 441.053,672.087 441.053,1337.11 529.191,1337.11 529.191,1085.72 617.328,1085.72 617.328,811.775 705.466,811.775 705.466,532.42 793.603,532.42 793.603,731.17 881.741,731.17 881.741,630.595 969.878,630.595 969.878,700.198 1058.02,700.198 1058.02,201.053 1146.15,201.053 1146.15,599.697 1234.29,599.697 1234.29,599.752 1322.43,599.752 1322.43,1365.87 1410.57,1365.87 1410.57,1172.58 1498.7,1172.58 1498.7,485.389 1586.84,485.389 1586.84,450.648 1674.98,450.648 1674.98,880.956 1763.12,880.956 1763.12,875.288 1851.25,875.288 1851.25,314.553 1939.39,314.553 1939.39,1132.24 2027.53,1132.24 2027.53,654.063 2115.67,654.063 2115.67,689.283 2203.8,689.283 2203.8,520.495 2291.94,520.495 "/>
<polyline clip-path="url(#clip082)" style="stroke:#00a9ad; stroke-linecap:round; stroke-linejoin:round; stroke-width:4; stroke-opacity:1; fill:none" points="264.778,1188.75 264.778,742.371 352.916,742.371 352.916,571.381 441.053,571.381 441.053,1106.56 529.191,1106.56 529.191,829.221 617.328,829.221 617.328,647.601 705.466,647.601 705.466,455.196 793.603,455.196 793.603,575.804 881.741,575.804 881.741,517.8 969.878,517.8 969.878,570.606 1058.02,570.606 1058.02,240.821 1146.15,240.821 1146.15,501.638 1234.29,501.638 1234.29,499.988 1322.43,499.988 1322.43,1184.74 1410.57,1184.74 1410.57,903.13 1498.7,903.13 1498.7,423.258 1586.84,423.258 1586.84,399.195 1674.98,399.195 1674.98,688.833 1763.12,688.833 1763.12,685.436 1851.25,685.436 1851.25,312.306 1939.39,312.306 1939.39,870.768 2027.53,870.768 2027.53,535.821 2115.67,535.821 2115.67,559.195 2203.8,559.195 2203.8,447.239 2291.94,447.239 "/>
<polyline clip-path="url(#clip082)" style="stroke:#ed5d92; stroke-linecap:round; stroke-linejoin:round; stroke-width:4; stroke-opacity:1; fill:none" points="264.778,1152.64 264.778,650.642 352.916,650.642 352.916,448.197 441.053,448.197 441.053,970.198 529.191,970.198 529.191,691.75 617.328,691.75 617.328,534.399 705.466,534.399 705.466,360.298 793.603,360.298 793.603,477.367 881.741,477.367 881.741,419.406 969.878,419.406 969.878,461.872 1058.02,461.872 1058.02,160.256 1146.15,160.256 1146.15,398.879 1234.29,398.879 1234.29,399.059 1322.43,399.059 1322.43,1044.45 1410.57,1044.45 1410.57,772.389 1498.7,772.389 1498.7,330.17 1586.84,330.17 1586.84,307.911 1674.98,307.911 1674.98,574.35 1763.12,574.35 1763.12,571.218 1851.25,571.218 1851.25,227.542 1939.39,227.542 1939.39,742.411 2027.53,742.411 2027.53,431.62 2115.67,431.62 2115.67,452.828 2203.8,452.828 2203.8,350.008 2291.94,350.008 "/>
<path clip-path="url(#clip080)" d="M275.59 581.516 L753.662 581.516 L753.662 166.796 L275.59 166.796  Z" fill="#ffffff" fill-rule="evenodd" fill-opacity="1"/>
<polyline clip-path="url(#clip080)" style="stroke:#000000; stroke-linecap:round; stroke-linejoin:round; stroke-width:4; stroke-opacity:1; fill:none" points="275.59,581.516 753.662,581.516 753.662,166.796 275.59,166.796 275.59,581.516 "/>
<polyline clip-path="url(#clip080)" style="stroke:#009af9; stroke-linecap:round; stroke-linejoin:round; stroke-width:4; stroke-opacity:1; fill:none" points="299.465,218.636 442.718,218.636 "/>
<path clip-path="url(#clip080)" d="M487.103 210.985 L487.103 214.967 Q485.297 213.971 483.469 213.485 Q481.663 212.976 479.811 212.976 Q475.668 212.976 473.376 215.615 Q471.084 218.231 471.084 222.976 Q471.084 227.721 473.376 230.36 Q475.668 232.976 479.811 232.976 Q481.663 232.976 483.469 232.49 Q485.297 231.981 487.103 230.985 L487.103 234.92 Q485.32 235.754 483.399 236.17 Q481.501 236.587 479.348 236.587 Q473.492 236.587 470.043 232.906 Q466.594 229.226 466.594 222.976 Q466.594 216.633 470.066 212.999 Q473.561 209.365 479.626 209.365 Q481.594 209.365 483.469 209.782 Q485.344 210.175 487.103 210.985 Z" fill="#000000" fill-rule="nonzero" fill-opacity="1" /><path clip-path="url(#clip080)" d="M494.07 225.684 L494.07 209.99 L498.33 209.99 L498.33 225.522 Q498.33 229.203 499.765 231.055 Q501.2 232.883 504.07 232.883 Q507.519 232.883 509.51 230.684 Q511.524 228.485 511.524 224.689 L511.524 209.99 L515.783 209.99 L515.783 235.916 L511.524 235.916 L511.524 231.934 Q509.973 234.295 507.913 235.453 Q505.876 236.587 503.168 236.587 Q498.7 236.587 496.385 233.809 Q494.07 231.031 494.07 225.684 M504.788 209.365 L504.788 209.365 Z" fill="#000000" fill-rule="nonzero" fill-opacity="1" /><path clip-path="url(#clip080)" d="M541.084 210.754 L541.084 214.782 Q539.279 213.856 537.334 213.393 Q535.39 212.93 533.306 212.93 Q530.135 212.93 528.538 213.902 Q526.964 214.874 526.964 216.819 Q526.964 218.3 528.098 219.157 Q529.232 219.99 532.658 220.754 L534.117 221.078 Q538.654 222.05 540.552 223.832 Q542.473 225.592 542.473 228.763 Q542.473 232.374 539.603 234.481 Q536.755 236.587 531.755 236.587 Q529.672 236.587 527.404 236.17 Q525.158 235.777 522.658 234.967 L522.658 230.569 Q525.019 231.795 527.311 232.42 Q529.603 233.022 531.848 233.022 Q534.857 233.022 536.478 232.004 Q538.098 230.962 538.098 229.087 Q538.098 227.351 536.917 226.425 Q535.76 225.499 531.802 224.643 L530.32 224.295 Q526.362 223.462 524.603 221.749 Q522.843 220.013 522.843 217.004 Q522.843 213.346 525.436 211.356 Q528.029 209.365 532.797 209.365 Q535.158 209.365 537.242 209.712 Q539.325 210.059 541.084 210.754 Z" fill="#000000" fill-rule="nonzero" fill-opacity="1" /><path clip-path="url(#clip080)" d="M553.468 202.629 L553.468 209.99 L562.241 209.99 L562.241 213.3 L553.468 213.3 L553.468 227.374 Q553.468 230.545 554.325 231.448 Q555.204 232.351 557.866 232.351 L562.241 232.351 L562.241 235.916 L557.866 235.916 Q552.936 235.916 551.061 234.087 Q549.186 232.235 549.186 227.374 L549.186 213.3 L546.061 213.3 L546.061 209.99 L549.186 209.99 L549.186 202.629 L553.468 202.629 Z" fill="#000000" fill-rule="nonzero" fill-opacity="1" /><path clip-path="url(#clip080)" d="M577.889 212.976 Q574.464 212.976 572.473 215.661 Q570.482 218.323 570.482 222.976 Q570.482 227.629 572.45 230.314 Q574.44 232.976 577.889 232.976 Q581.292 232.976 583.283 230.291 Q585.274 227.606 585.274 222.976 Q585.274 218.37 583.283 215.684 Q581.292 212.976 577.889 212.976 M577.889 209.365 Q583.445 209.365 586.616 212.976 Q589.788 216.587 589.788 222.976 Q589.788 229.342 586.616 232.976 Q583.445 236.587 577.889 236.587 Q572.311 236.587 569.139 232.976 Q565.991 229.342 565.991 222.976 Q565.991 216.587 569.139 212.976 Q572.311 209.365 577.889 209.365 Z" fill="#000000" fill-rule="nonzero" fill-opacity="1" /><path clip-path="url(#clip080)" d="M617.033 214.967 Q618.63 212.096 620.852 210.731 Q623.074 209.365 626.084 209.365 Q630.135 209.365 632.334 212.212 Q634.533 215.036 634.533 220.268 L634.533 235.916 L630.25 235.916 L630.25 220.407 Q630.25 216.68 628.931 214.874 Q627.611 213.069 624.903 213.069 Q621.593 213.069 619.672 215.268 Q617.75 217.467 617.75 221.263 L617.75 235.916 L613.468 235.916 L613.468 220.407 Q613.468 216.657 612.149 214.874 Q610.829 213.069 608.074 213.069 Q604.811 213.069 602.889 215.291 Q600.968 217.49 600.968 221.263 L600.968 235.916 L596.686 235.916 L596.686 209.99 L600.968 209.99 L600.968 214.018 Q602.426 211.633 604.463 210.499 Q606.5 209.365 609.301 209.365 Q612.125 209.365 614.093 210.8 Q616.084 212.235 617.033 214.967 Z" fill="#000000" fill-rule="nonzero" fill-opacity="1" /><path clip-path="url(#clip080)" d="M665.204 221.888 L665.204 223.971 L645.621 223.971 Q645.898 228.369 648.259 230.684 Q650.644 232.976 654.88 232.976 Q657.333 232.976 659.625 232.374 Q661.94 231.772 664.208 230.569 L664.208 234.596 Q661.917 235.568 659.509 236.078 Q657.102 236.587 654.625 236.587 Q648.421 236.587 644.787 232.976 Q641.176 229.365 641.176 223.207 Q641.176 216.842 644.602 213.115 Q648.051 209.365 653.884 209.365 Q659.116 209.365 662.148 212.745 Q665.204 216.101 665.204 221.888 M660.945 220.638 Q660.898 217.143 658.977 215.059 Q657.079 212.976 653.931 212.976 Q650.366 212.976 648.213 214.99 Q646.084 217.004 645.759 220.661 L660.945 220.638 Z" fill="#000000" fill-rule="nonzero" fill-opacity="1" /><path clip-path="url(#clip080)" d="M687.218 213.971 Q686.5 213.555 685.643 213.37 Q684.81 213.161 683.792 213.161 Q680.181 213.161 678.236 215.522 Q676.315 217.86 676.315 222.258 L676.315 235.916 L672.032 235.916 L672.032 209.99 L676.315 209.99 L676.315 214.018 Q677.657 211.657 679.81 210.522 Q681.963 209.365 685.042 209.365 Q685.481 209.365 686.014 209.434 Q686.546 209.481 687.194 209.596 L687.218 213.971 Z" fill="#000000" fill-rule="nonzero" fill-opacity="1" /><path clip-path="url(#clip080)" d="M708.167 231.981 L715.805 231.981 L715.805 205.615 L707.495 207.282 L707.495 203.022 L715.759 201.356 L720.435 201.356 L720.435 231.981 L728.074 231.981 L728.074 235.916 L708.167 235.916 L708.167 231.981 Z" fill="#000000" fill-rule="nonzero" fill-opacity="1" /><polyline clip-path="url(#clip080)" style="stroke:#e26f46; stroke-linecap:round; stroke-linejoin:round; stroke-width:4; stroke-opacity:1; fill:none" points="299.465,270.476 442.718,270.476 "/>
<path clip-path="url(#clip080)" d="M487.103 262.825 L487.103 266.807 Q485.297 265.811 483.469 265.325 Q481.663 264.816 479.811 264.816 Q475.668 264.816 473.376 267.455 Q471.084 270.071 471.084 274.816 Q471.084 279.561 473.376 282.2 Q475.668 284.816 479.811 284.816 Q481.663 284.816 483.469 284.33 Q485.297 283.821 487.103 282.825 L487.103 286.76 Q485.32 287.594 483.399 288.01 Q481.501 288.427 479.348 288.427 Q473.492 288.427 470.043 284.746 Q466.594 281.066 466.594 274.816 Q466.594 268.473 470.066 264.839 Q473.561 261.205 479.626 261.205 Q481.594 261.205 483.469 261.622 Q485.344 262.015 487.103 262.825 Z" fill="#000000" fill-rule="nonzero" fill-opacity="1" /><path clip-path="url(#clip080)" d="M494.07 277.524 L494.07 261.83 L498.33 261.83 L498.33 277.362 Q498.33 281.043 499.765 282.895 Q501.2 284.723 504.07 284.723 Q507.519 284.723 509.51 282.524 Q511.524 280.325 511.524 276.529 L511.524 261.83 L515.783 261.83 L515.783 287.756 L511.524 287.756 L511.524 283.774 Q509.973 286.135 507.913 287.293 Q505.876 288.427 503.168 288.427 Q498.7 288.427 496.385 285.649 Q494.07 282.871 494.07 277.524 M504.788 261.205 L504.788 261.205 Z" fill="#000000" fill-rule="nonzero" fill-opacity="1" /><path clip-path="url(#clip080)" d="M541.084 262.594 L541.084 266.622 Q539.279 265.696 537.334 265.233 Q535.39 264.77 533.306 264.77 Q530.135 264.77 528.538 265.742 Q526.964 266.714 526.964 268.659 Q526.964 270.14 528.098 270.997 Q529.232 271.83 532.658 272.594 L534.117 272.918 Q538.654 273.89 540.552 275.672 Q542.473 277.432 542.473 280.603 Q542.473 284.214 539.603 286.321 Q536.755 288.427 531.755 288.427 Q529.672 288.427 527.404 288.01 Q525.158 287.617 522.658 286.807 L522.658 282.409 Q525.019 283.635 527.311 284.26 Q529.603 284.862 531.848 284.862 Q534.857 284.862 536.478 283.844 Q538.098 282.802 538.098 280.927 Q538.098 279.191 536.917 278.265 Q535.76 277.339 531.802 276.483 L530.32 276.135 Q526.362 275.302 524.603 273.589 Q522.843 271.853 522.843 268.844 Q522.843 265.186 525.436 263.196 Q528.029 261.205 532.797 261.205 Q535.158 261.205 537.242 261.552 Q539.325 261.899 541.084 262.594 Z" fill="#000000" fill-rule="nonzero" fill-opacity="1" /><path clip-path="url(#clip080)" d="M553.468 254.469 L553.468 261.83 L562.241 261.83 L562.241 265.14 L553.468 265.14 L553.468 279.214 Q553.468 282.385 554.325 283.288 Q555.204 284.191 557.866 284.191 L562.241 284.191 L562.241 287.756 L557.866 287.756 Q552.936 287.756 551.061 285.927 Q549.186 284.075 549.186 279.214 L549.186 265.14 L546.061 265.14 L546.061 261.83 L549.186 261.83 L549.186 254.469 L553.468 254.469 Z" fill="#000000" fill-rule="nonzero" fill-opacity="1" /><path clip-path="url(#clip080)" d="M577.889 264.816 Q574.464 264.816 572.473 267.501 Q570.482 270.163 570.482 274.816 Q570.482 279.469 572.45 282.154 Q574.44 284.816 577.889 284.816 Q581.292 284.816 583.283 282.131 Q585.274 279.446 585.274 274.816 Q585.274 270.21 583.283 267.524 Q581.292 264.816 577.889 264.816 M577.889 261.205 Q583.445 261.205 586.616 264.816 Q589.788 268.427 589.788 274.816 Q589.788 281.182 586.616 284.816 Q583.445 288.427 577.889 288.427 Q572.311 288.427 569.139 284.816 Q565.991 281.182 565.991 274.816 Q565.991 268.427 569.139 264.816 Q572.311 261.205 577.889 261.205 Z" fill="#000000" fill-rule="nonzero" fill-opacity="1" /><path clip-path="url(#clip080)" d="M617.033 266.807 Q618.63 263.936 620.852 262.571 Q623.074 261.205 626.084 261.205 Q630.135 261.205 632.334 264.052 Q634.533 266.876 634.533 272.108 L634.533 287.756 L630.25 287.756 L630.25 272.247 Q630.25 268.52 628.931 266.714 Q627.611 264.909 624.903 264.909 Q621.593 264.909 619.672 267.108 Q617.75 269.307 617.75 273.103 L617.75 287.756 L613.468 287.756 L613.468 272.247 Q613.468 268.497 612.149 266.714 Q610.829 264.909 608.074 264.909 Q604.811 264.909 602.889 267.131 Q600.968 269.33 600.968 273.103 L600.968 287.756 L596.686 287.756 L596.686 261.83 L600.968 261.83 L600.968 265.858 Q602.426 263.473 604.463 262.339 Q606.5 261.205 609.301 261.205 Q612.125 261.205 614.093 262.64 Q616.084 264.075 617.033 266.807 Z" fill="#000000" fill-rule="nonzero" fill-opacity="1" /><path clip-path="url(#clip080)" d="M665.204 273.728 L665.204 275.811 L645.621 275.811 Q645.898 280.209 648.259 282.524 Q650.644 284.816 654.88 284.816 Q657.333 284.816 659.625 284.214 Q661.94 283.612 664.208 282.409 L664.208 286.436 Q661.917 287.408 659.509 287.918 Q657.102 288.427 654.625 288.427 Q648.421 288.427 644.787 284.816 Q641.176 281.205 641.176 275.047 Q641.176 268.682 644.602 264.955 Q648.051 261.205 653.884 261.205 Q659.116 261.205 662.148 264.585 Q665.204 267.941 665.204 273.728 M660.945 272.478 Q660.898 268.983 658.977 266.899 Q657.079 264.816 653.931 264.816 Q650.366 264.816 648.213 266.83 Q646.084 268.844 645.759 272.501 L660.945 272.478 Z" fill="#000000" fill-rule="nonzero" fill-opacity="1" /><path clip-path="url(#clip080)" d="M687.218 265.811 Q686.5 265.395 685.643 265.21 Q684.81 265.001 683.792 265.001 Q680.181 265.001 678.236 267.362 Q676.315 269.7 676.315 274.098 L676.315 287.756 L672.032 287.756 L672.032 261.83 L676.315 261.83 L676.315 265.858 Q677.657 263.497 679.81 262.362 Q681.963 261.205 685.042 261.205 Q685.481 261.205 686.014 261.274 Q686.546 261.321 687.194 261.436 L687.218 265.811 Z" fill="#000000" fill-rule="nonzero" fill-opacity="1" /><path clip-path="url(#clip080)" d="M711.384 283.821 L727.703 283.821 L727.703 287.756 L705.759 287.756 L705.759 283.821 Q708.421 281.066 713.004 276.436 Q717.611 271.784 718.791 270.441 Q721.037 267.918 721.916 266.182 Q722.819 264.423 722.819 262.733 Q722.819 259.978 720.875 258.242 Q718.954 256.506 715.852 256.506 Q713.653 256.506 711.199 257.27 Q708.768 258.034 705.991 259.585 L705.991 254.862 Q708.815 253.728 711.268 253.149 Q713.722 252.571 715.759 252.571 Q721.129 252.571 724.324 255.256 Q727.518 257.941 727.518 262.432 Q727.518 264.561 726.708 266.483 Q725.921 268.381 723.815 270.973 Q723.236 271.645 720.134 274.862 Q717.032 278.057 711.384 283.821 Z" fill="#000000" fill-rule="nonzero" fill-opacity="1" /><polyline clip-path="url(#clip080)" style="stroke:#3da44d; stroke-linecap:round; stroke-linejoin:round; stroke-width:4; stroke-opacity:1; fill:none" points="299.465,322.316 442.718,322.316 "/>
<path clip-path="url(#clip080)" d="M487.103 314.665 L487.103 318.647 Q485.297 317.651 483.469 317.165 Q481.663 316.656 479.811 316.656 Q475.668 316.656 473.376 319.295 Q471.084 321.911 471.084 326.656 Q471.084 331.401 473.376 334.04 Q475.668 336.656 479.811 336.656 Q481.663 336.656 483.469 336.17 Q485.297 335.661 487.103 334.665 L487.103 338.6 Q485.32 339.434 483.399 339.85 Q481.501 340.267 479.348 340.267 Q473.492 340.267 470.043 336.586 Q466.594 332.906 466.594 326.656 Q466.594 320.313 470.066 316.679 Q473.561 313.045 479.626 313.045 Q481.594 313.045 483.469 313.462 Q485.344 313.855 487.103 314.665 Z" fill="#000000" fill-rule="nonzero" fill-opacity="1" /><path clip-path="url(#clip080)" d="M494.07 329.364 L494.07 313.67 L498.33 313.67 L498.33 329.202 Q498.33 332.883 499.765 334.735 Q501.2 336.563 504.07 336.563 Q507.519 336.563 509.51 334.364 Q511.524 332.165 511.524 328.369 L511.524 313.67 L515.783 313.67 L515.783 339.596 L511.524 339.596 L511.524 335.614 Q509.973 337.975 507.913 339.133 Q505.876 340.267 503.168 340.267 Q498.7 340.267 496.385 337.489 Q494.07 334.711 494.07 329.364 M504.788 313.045 L504.788 313.045 Z" fill="#000000" fill-rule="nonzero" fill-opacity="1" /><path clip-path="url(#clip080)" d="M541.084 314.434 L541.084 318.462 Q539.279 317.536 537.334 317.073 Q535.39 316.61 533.306 316.61 Q530.135 316.61 528.538 317.582 Q526.964 318.554 526.964 320.499 Q526.964 321.98 528.098 322.837 Q529.232 323.67 532.658 324.434 L534.117 324.758 Q538.654 325.73 540.552 327.512 Q542.473 329.272 542.473 332.443 Q542.473 336.054 539.603 338.161 Q536.755 340.267 531.755 340.267 Q529.672 340.267 527.404 339.85 Q525.158 339.457 522.658 338.647 L522.658 334.249 Q525.019 335.475 527.311 336.1 Q529.603 336.702 531.848 336.702 Q534.857 336.702 536.478 335.684 Q538.098 334.642 538.098 332.767 Q538.098 331.031 536.917 330.105 Q535.76 329.179 531.802 328.323 L530.32 327.975 Q526.362 327.142 524.603 325.429 Q522.843 323.693 522.843 320.684 Q522.843 317.026 525.436 315.036 Q528.029 313.045 532.797 313.045 Q535.158 313.045 537.242 313.392 Q539.325 313.739 541.084 314.434 Z" fill="#000000" fill-rule="nonzero" fill-opacity="1" /><path clip-path="url(#clip080)" d="M553.468 306.309 L553.468 313.67 L562.241 313.67 L562.241 316.98 L553.468 316.98 L553.468 331.054 Q553.468 334.225 554.325 335.128 Q555.204 336.031 557.866 336.031 L562.241 336.031 L562.241 339.596 L557.866 339.596 Q552.936 339.596 551.061 337.767 Q549.186 335.915 549.186 331.054 L549.186 316.98 L546.061 316.98 L546.061 313.67 L549.186 313.67 L549.186 306.309 L553.468 306.309 Z" fill="#000000" fill-rule="nonzero" fill-opacity="1" /><path clip-path="url(#clip080)" d="M577.889 316.656 Q574.464 316.656 572.473 319.341 Q570.482 322.003 570.482 326.656 Q570.482 331.309 572.45 333.994 Q574.44 336.656 577.889 336.656 Q581.292 336.656 583.283 333.971 Q585.274 331.286 585.274 326.656 Q585.274 322.05 583.283 319.364 Q581.292 316.656 577.889 316.656 M577.889 313.045 Q583.445 313.045 586.616 316.656 Q589.788 320.267 589.788 326.656 Q589.788 333.022 586.616 336.656 Q583.445 340.267 577.889 340.267 Q572.311 340.267 569.139 336.656 Q565.991 333.022 565.991 326.656 Q565.991 320.267 569.139 316.656 Q572.311 313.045 577.889 313.045 Z" fill="#000000" fill-rule="nonzero" fill-opacity="1" /><path clip-path="url(#clip080)" d="M617.033 318.647 Q618.63 315.776 620.852 314.411 Q623.074 313.045 626.084 313.045 Q630.135 313.045 632.334 315.892 Q634.533 318.716 634.533 323.948 L634.533 339.596 L630.25 339.596 L630.25 324.087 Q630.25 320.36 628.931 318.554 Q627.611 316.749 624.903 316.749 Q621.593 316.749 619.672 318.948 Q617.75 321.147 617.75 324.943 L617.75 339.596 L613.468 339.596 L613.468 324.087 Q613.468 320.337 612.149 318.554 Q610.829 316.749 608.074 316.749 Q604.811 316.749 602.889 318.971 Q600.968 321.17 600.968 324.943 L600.968 339.596 L596.686 339.596 L596.686 313.67 L600.968 313.67 L600.968 317.698 Q602.426 315.313 604.463 314.179 Q606.5 313.045 609.301 313.045 Q612.125 313.045 614.093 314.48 Q616.084 315.915 617.033 318.647 Z" fill="#000000" fill-rule="nonzero" fill-opacity="1" /><path clip-path="url(#clip080)" d="M665.204 325.568 L665.204 327.651 L645.621 327.651 Q645.898 332.049 648.259 334.364 Q650.644 336.656 654.88 336.656 Q657.333 336.656 659.625 336.054 Q661.94 335.452 664.208 334.249 L664.208 338.276 Q661.917 339.248 659.509 339.758 Q657.102 340.267 654.625 340.267 Q648.421 340.267 644.787 336.656 Q641.176 333.045 641.176 326.887 Q641.176 320.522 644.602 316.795 Q648.051 313.045 653.884 313.045 Q659.116 313.045 662.148 316.425 Q665.204 319.781 665.204 325.568 M660.945 324.318 Q660.898 320.823 658.977 318.739 Q657.079 316.656 653.931 316.656 Q650.366 316.656 648.213 318.67 Q646.084 320.684 645.759 324.341 L660.945 324.318 Z" fill="#000000" fill-rule="nonzero" fill-opacity="1" /><path clip-path="url(#clip080)" d="M687.218 317.651 Q686.5 317.235 685.643 317.05 Q684.81 316.841 683.792 316.841 Q680.181 316.841 678.236 319.202 Q676.315 321.54 676.315 325.938 L676.315 339.596 L672.032 339.596 L672.032 313.67 L676.315 313.67 L676.315 317.698 Q677.657 315.337 679.81 314.202 Q681.963 313.045 685.042 313.045 Q685.481 313.045 686.014 313.114 Q686.546 313.161 687.194 313.276 L687.218 317.651 Z" fill="#000000" fill-rule="nonzero" fill-opacity="1" /><path clip-path="url(#clip080)" d="M721.523 320.962 Q724.879 321.679 726.754 323.948 Q728.653 326.216 728.653 329.549 Q728.653 334.665 725.134 337.466 Q721.616 340.267 715.134 340.267 Q712.958 340.267 710.643 339.827 Q708.352 339.411 705.898 338.554 L705.898 334.04 Q707.842 335.174 710.157 335.753 Q712.472 336.332 714.995 336.332 Q719.393 336.332 721.685 334.596 Q724 332.86 724 329.549 Q724 326.494 721.847 324.781 Q719.717 323.045 715.898 323.045 L711.87 323.045 L711.87 319.202 L716.083 319.202 Q719.532 319.202 721.361 317.837 Q723.19 316.448 723.19 313.855 Q723.19 311.193 721.291 309.781 Q719.416 308.346 715.898 308.346 Q713.977 308.346 711.778 308.763 Q709.579 309.179 706.94 310.059 L706.94 305.892 Q709.602 305.151 711.917 304.781 Q714.254 304.411 716.315 304.411 Q721.639 304.411 724.741 306.841 Q727.842 309.249 727.842 313.369 Q727.842 316.239 726.199 318.23 Q724.555 320.198 721.523 320.962 Z" fill="#000000" fill-rule="nonzero" fill-opacity="1" /><polyline clip-path="url(#clip080)" style="stroke:#c271d2; stroke-linecap:round; stroke-linejoin:round; stroke-width:4; stroke-opacity:1; fill:none" points="299.465,374.156 442.718,374.156 "/>
<path clip-path="url(#clip080)" d="M487.103 366.505 L487.103 370.487 Q485.297 369.491 483.469 369.005 Q481.663 368.496 479.811 368.496 Q475.668 368.496 473.376 371.135 Q471.084 373.751 471.084 378.496 Q471.084 383.241 473.376 385.88 Q475.668 388.496 479.811 388.496 Q481.663 388.496 483.469 388.01 Q485.297 387.501 487.103 386.505 L487.103 390.44 Q485.32 391.274 483.399 391.69 Q481.501 392.107 479.348 392.107 Q473.492 392.107 470.043 388.426 Q466.594 384.746 466.594 378.496 Q466.594 372.153 470.066 368.519 Q473.561 364.885 479.626 364.885 Q481.594 364.885 483.469 365.302 Q485.344 365.695 487.103 366.505 Z" fill="#000000" fill-rule="nonzero" fill-opacity="1" /><path clip-path="url(#clip080)" d="M494.07 381.204 L494.07 365.51 L498.33 365.51 L498.33 381.042 Q498.33 384.723 499.765 386.575 Q501.2 388.403 504.07 388.403 Q507.519 388.403 509.51 386.204 Q511.524 384.005 511.524 380.209 L511.524 365.51 L515.783 365.51 L515.783 391.436 L511.524 391.436 L511.524 387.454 Q509.973 389.815 507.913 390.973 Q505.876 392.107 503.168 392.107 Q498.7 392.107 496.385 389.329 Q494.07 386.551 494.07 381.204 M504.788 364.885 L504.788 364.885 Z" fill="#000000" fill-rule="nonzero" fill-opacity="1" /><path clip-path="url(#clip080)" d="M541.084 366.274 L541.084 370.302 Q539.279 369.376 537.334 368.913 Q535.39 368.45 533.306 368.45 Q530.135 368.45 528.538 369.422 Q526.964 370.394 526.964 372.339 Q526.964 373.82 528.098 374.677 Q529.232 375.51 532.658 376.274 L534.117 376.598 Q538.654 377.57 540.552 379.352 Q542.473 381.112 542.473 384.283 Q542.473 387.894 539.603 390.001 Q536.755 392.107 531.755 392.107 Q529.672 392.107 527.404 391.69 Q525.158 391.297 522.658 390.487 L522.658 386.089 Q525.019 387.315 527.311 387.94 Q529.603 388.542 531.848 388.542 Q534.857 388.542 536.478 387.524 Q538.098 386.482 538.098 384.607 Q538.098 382.871 536.917 381.945 Q535.76 381.019 531.802 380.163 L530.32 379.815 Q526.362 378.982 524.603 377.269 Q522.843 375.533 522.843 372.524 Q522.843 368.866 525.436 366.876 Q528.029 364.885 532.797 364.885 Q535.158 364.885 537.242 365.232 Q539.325 365.579 541.084 366.274 Z" fill="#000000" fill-rule="nonzero" fill-opacity="1" /><path clip-path="url(#clip080)" d="M553.468 358.149 L553.468 365.51 L562.241 365.51 L562.241 368.82 L553.468 368.82 L553.468 382.894 Q553.468 386.065 554.325 386.968 Q555.204 387.871 557.866 387.871 L562.241 387.871 L562.241 391.436 L557.866 391.436 Q552.936 391.436 551.061 389.607 Q549.186 387.755 549.186 382.894 L549.186 368.82 L546.061 368.82 L546.061 365.51 L549.186 365.51 L549.186 358.149 L553.468 358.149 Z" fill="#000000" fill-rule="nonzero" fill-opacity="1" /><path clip-path="url(#clip080)" d="M577.889 368.496 Q574.464 368.496 572.473 371.181 Q570.482 373.843 570.482 378.496 Q570.482 383.149 572.45 385.834 Q574.44 388.496 577.889 388.496 Q581.292 388.496 583.283 385.811 Q585.274 383.126 585.274 378.496 Q585.274 373.89 583.283 371.204 Q581.292 368.496 577.889 368.496 M577.889 364.885 Q583.445 364.885 586.616 368.496 Q589.788 372.107 589.788 378.496 Q589.788 384.862 586.616 388.496 Q583.445 392.107 577.889 392.107 Q572.311 392.107 569.139 388.496 Q565.991 384.862 565.991 378.496 Q565.991 372.107 569.139 368.496 Q572.311 364.885 577.889 364.885 Z" fill="#000000" fill-rule="nonzero" fill-opacity="1" /><path clip-path="url(#clip080)" d="M617.033 370.487 Q618.63 367.616 620.852 366.251 Q623.074 364.885 626.084 364.885 Q630.135 364.885 632.334 367.732 Q634.533 370.556 634.533 375.788 L634.533 391.436 L630.25 391.436 L630.25 375.927 Q630.25 372.2 628.931 370.394 Q627.611 368.589 624.903 368.589 Q621.593 368.589 619.672 370.788 Q617.75 372.987 617.75 376.783 L617.75 391.436 L613.468 391.436 L613.468 375.927 Q613.468 372.177 612.149 370.394 Q610.829 368.589 608.074 368.589 Q604.811 368.589 602.889 370.811 Q600.968 373.01 600.968 376.783 L600.968 391.436 L596.686 391.436 L596.686 365.51 L600.968 365.51 L600.968 369.538 Q602.426 367.153 604.463 366.019 Q606.5 364.885 609.301 364.885 Q612.125 364.885 614.093 366.32 Q616.084 367.755 617.033 370.487 Z" fill="#000000" fill-rule="nonzero" fill-opacity="1" /><path clip-path="url(#clip080)" d="M665.204 377.408 L665.204 379.491 L645.621 379.491 Q645.898 383.889 648.259 386.204 Q650.644 388.496 654.88 388.496 Q657.333 388.496 659.625 387.894 Q661.94 387.292 664.208 386.089 L664.208 390.116 Q661.917 391.088 659.509 391.598 Q657.102 392.107 654.625 392.107 Q648.421 392.107 644.787 388.496 Q641.176 384.885 641.176 378.727 Q641.176 372.362 644.602 368.635 Q648.051 364.885 653.884 364.885 Q659.116 364.885 662.148 368.265 Q665.204 371.621 665.204 377.408 M660.945 376.158 Q660.898 372.663 658.977 370.579 Q657.079 368.496 653.931 368.496 Q650.366 368.496 648.213 370.51 Q646.084 372.524 645.759 376.181 L660.945 376.158 Z" fill="#000000" fill-rule="nonzero" fill-opacity="1" /><path clip-path="url(#clip080)" d="M687.218 369.491 Q686.5 369.075 685.643 368.89 Q684.81 368.681 683.792 368.681 Q680.181 368.681 678.236 371.042 Q676.315 373.38 676.315 377.778 L676.315 391.436 L672.032 391.436 L672.032 365.51 L676.315 365.51 L676.315 369.538 Q677.657 367.177 679.81 366.042 Q681.963 364.885 685.042 364.885 Q685.481 364.885 686.014 364.954 Q686.546 365.001 687.194 365.116 L687.218 369.491 Z" fill="#000000" fill-rule="nonzero" fill-opacity="1" /><path clip-path="url(#clip080)" d="M720.203 360.95 L708.398 379.399 L720.203 379.399 L720.203 360.95 M718.977 356.876 L724.856 356.876 L724.856 379.399 L729.787 379.399 L729.787 383.288 L724.856 383.288 L724.856 391.436 L720.203 391.436 L720.203 383.288 L704.602 383.288 L704.602 378.774 L718.977 356.876 Z" fill="#000000" fill-rule="nonzero" fill-opacity="1" /><polyline clip-path="url(#clip080)" style="stroke:#ac8d18; stroke-linecap:round; stroke-linejoin:round; stroke-width:4; stroke-opacity:1; fill:none" points="299.465,425.996 442.718,425.996 "/>
<path clip-path="url(#clip080)" d="M487.103 418.345 L487.103 422.327 Q485.297 421.331 483.469 420.845 Q481.663 420.336 479.811 420.336 Q475.668 420.336 473.376 422.975 Q471.084 425.591 471.084 430.336 Q471.084 435.081 473.376 437.72 Q475.668 440.336 479.811 440.336 Q481.663 440.336 483.469 439.85 Q485.297 439.341 487.103 438.345 L487.103 442.28 Q485.32 443.114 483.399 443.53 Q481.501 443.947 479.348 443.947 Q473.492 443.947 470.043 440.266 Q466.594 436.586 466.594 430.336 Q466.594 423.993 470.066 420.359 Q473.561 416.725 479.626 416.725 Q481.594 416.725 483.469 417.142 Q485.344 417.535 487.103 418.345 Z" fill="#000000" fill-rule="nonzero" fill-opacity="1" /><path clip-path="url(#clip080)" d="M494.07 433.044 L494.07 417.35 L498.33 417.35 L498.33 432.882 Q498.33 436.563 499.765 438.415 Q501.2 440.243 504.07 440.243 Q507.519 440.243 509.51 438.044 Q511.524 435.845 511.524 432.049 L511.524 417.35 L515.783 417.35 L515.783 443.276 L511.524 443.276 L511.524 439.294 Q509.973 441.655 507.913 442.813 Q505.876 443.947 503.168 443.947 Q498.7 443.947 496.385 441.169 Q494.07 438.391 494.07 433.044 M504.788 416.725 L504.788 416.725 Z" fill="#000000" fill-rule="nonzero" fill-opacity="1" /><path clip-path="url(#clip080)" d="M541.084 418.114 L541.084 422.142 Q539.279 421.216 537.334 420.753 Q535.39 420.29 533.306 420.29 Q530.135 420.29 528.538 421.262 Q526.964 422.234 526.964 424.179 Q526.964 425.66 528.098 426.517 Q529.232 427.35 532.658 428.114 L534.117 428.438 Q538.654 429.41 540.552 431.192 Q542.473 432.952 542.473 436.123 Q542.473 439.734 539.603 441.841 Q536.755 443.947 531.755 443.947 Q529.672 443.947 527.404 443.53 Q525.158 443.137 522.658 442.327 L522.658 437.929 Q525.019 439.155 527.311 439.78 Q529.603 440.382 531.848 440.382 Q534.857 440.382 536.478 439.364 Q538.098 438.322 538.098 436.447 Q538.098 434.711 536.917 433.785 Q535.76 432.859 531.802 432.003 L530.32 431.655 Q526.362 430.822 524.603 429.109 Q522.843 427.373 522.843 424.364 Q522.843 420.706 525.436 418.716 Q528.029 416.725 532.797 416.725 Q535.158 416.725 537.242 417.072 Q539.325 417.419 541.084 418.114 Z" fill="#000000" fill-rule="nonzero" fill-opacity="1" /><path clip-path="url(#clip080)" d="M553.468 409.989 L553.468 417.35 L562.241 417.35 L562.241 420.66 L553.468 420.66 L553.468 434.734 Q553.468 437.905 554.325 438.808 Q555.204 439.711 557.866 439.711 L562.241 439.711 L562.241 443.276 L557.866 443.276 Q552.936 443.276 551.061 441.447 Q549.186 439.595 549.186 434.734 L549.186 420.66 L546.061 420.66 L546.061 417.35 L549.186 417.35 L549.186 409.989 L553.468 409.989 Z" fill="#000000" fill-rule="nonzero" fill-opacity="1" /><path clip-path="url(#clip080)" d="M577.889 420.336 Q574.464 420.336 572.473 423.021 Q570.482 425.683 570.482 430.336 Q570.482 434.989 572.45 437.674 Q574.44 440.336 577.889 440.336 Q581.292 440.336 583.283 437.651 Q585.274 434.966 585.274 430.336 Q585.274 425.73 583.283 423.044 Q581.292 420.336 577.889 420.336 M577.889 416.725 Q583.445 416.725 586.616 420.336 Q589.788 423.947 589.788 430.336 Q589.788 436.702 586.616 440.336 Q583.445 443.947 577.889 443.947 Q572.311 443.947 569.139 440.336 Q565.991 436.702 565.991 430.336 Q565.991 423.947 569.139 420.336 Q572.311 416.725 577.889 416.725 Z" fill="#000000" fill-rule="nonzero" fill-opacity="1" /><path clip-path="url(#clip080)" d="M617.033 422.327 Q618.63 419.456 620.852 418.091 Q623.074 416.725 626.084 416.725 Q630.135 416.725 632.334 419.572 Q634.533 422.396 634.533 427.628 L634.533 443.276 L630.25 443.276 L630.25 427.767 Q630.25 424.04 628.931 422.234 Q627.611 420.429 624.903 420.429 Q621.593 420.429 619.672 422.628 Q617.75 424.827 617.75 428.623 L617.75 443.276 L613.468 443.276 L613.468 427.767 Q613.468 424.017 612.149 422.234 Q610.829 420.429 608.074 420.429 Q604.811 420.429 602.889 422.651 Q600.968 424.85 600.968 428.623 L600.968 443.276 L596.686 443.276 L596.686 417.35 L600.968 417.35 L600.968 421.378 Q602.426 418.993 604.463 417.859 Q606.5 416.725 609.301 416.725 Q612.125 416.725 614.093 418.16 Q616.084 419.595 617.033 422.327 Z" fill="#000000" fill-rule="nonzero" fill-opacity="1" /><path clip-path="url(#clip080)" d="M665.204 429.248 L665.204 431.331 L645.621 431.331 Q645.898 435.729 648.259 438.044 Q650.644 440.336 654.88 440.336 Q657.333 440.336 659.625 439.734 Q661.94 439.132 664.208 437.929 L664.208 441.956 Q661.917 442.928 659.509 443.438 Q657.102 443.947 654.625 443.947 Q648.421 443.947 644.787 440.336 Q641.176 436.725 641.176 430.567 Q641.176 424.202 644.602 420.475 Q648.051 416.725 653.884 416.725 Q659.116 416.725 662.148 420.105 Q665.204 423.461 665.204 429.248 M660.945 427.998 Q660.898 424.503 658.977 422.419 Q657.079 420.336 653.931 420.336 Q650.366 420.336 648.213 422.35 Q646.084 424.364 645.759 428.021 L660.945 427.998 Z" fill="#000000" fill-rule="nonzero" fill-opacity="1" /><path clip-path="url(#clip080)" d="M687.218 421.331 Q686.5 420.915 685.643 420.73 Q684.81 420.521 683.792 420.521 Q680.181 420.521 678.236 422.882 Q676.315 425.22 676.315 429.618 L676.315 443.276 L672.032 443.276 L672.032 417.35 L676.315 417.35 L676.315 421.378 Q677.657 419.017 679.81 417.882 Q681.963 416.725 685.042 416.725 Q685.481 416.725 686.014 416.794 Q686.546 416.841 687.194 416.956 L687.218 421.331 Z" fill="#000000" fill-rule="nonzero" fill-opacity="1" /><path clip-path="url(#clip080)" d="M707.403 408.716 L725.759 408.716 L725.759 412.651 L711.685 412.651 L711.685 421.123 Q712.704 420.776 713.722 420.614 Q714.741 420.429 715.759 420.429 Q721.546 420.429 724.926 423.6 Q728.305 426.771 728.305 432.188 Q728.305 437.766 724.833 440.868 Q721.361 443.947 715.041 443.947 Q712.866 443.947 710.597 443.577 Q708.352 443.206 705.944 442.466 L705.944 437.766 Q708.028 438.901 710.25 439.456 Q712.472 440.012 714.949 440.012 Q718.954 440.012 721.291 437.905 Q723.629 435.799 723.629 432.188 Q723.629 428.577 721.291 426.47 Q718.954 424.364 714.949 424.364 Q713.074 424.364 711.199 424.78 Q709.347 425.197 707.403 426.077 L707.403 408.716 Z" fill="#000000" fill-rule="nonzero" fill-opacity="1" /><polyline clip-path="url(#clip080)" style="stroke:#00a9ad; stroke-linecap:round; stroke-linejoin:round; stroke-width:4; stroke-opacity:1; fill:none" points="299.465,477.836 442.718,477.836 "/>
<path clip-path="url(#clip080)" d="M487.103 470.185 L487.103 474.167 Q485.297 473.171 483.469 472.685 Q481.663 472.176 479.811 472.176 Q475.668 472.176 473.376 474.815 Q471.084 477.431 471.084 482.176 Q471.084 486.921 473.376 489.56 Q475.668 492.176 479.811 492.176 Q481.663 492.176 483.469 491.69 Q485.297 491.181 487.103 490.185 L487.103 494.12 Q485.32 494.954 483.399 495.37 Q481.501 495.787 479.348 495.787 Q473.492 495.787 470.043 492.106 Q466.594 488.426 466.594 482.176 Q466.594 475.833 470.066 472.199 Q473.561 468.565 479.626 468.565 Q481.594 468.565 483.469 468.982 Q485.344 469.375 487.103 470.185 Z" fill="#000000" fill-rule="nonzero" fill-opacity="1" /><path clip-path="url(#clip080)" d="M494.07 484.884 L494.07 469.19 L498.33 469.19 L498.33 484.722 Q498.33 488.403 499.765 490.255 Q501.2 492.083 504.07 492.083 Q507.519 492.083 509.51 489.884 Q511.524 487.685 511.524 483.889 L511.524 469.19 L515.783 469.19 L515.783 495.116 L511.524 495.116 L511.524 491.134 Q509.973 493.495 507.913 494.653 Q505.876 495.787 503.168 495.787 Q498.7 495.787 496.385 493.009 Q494.07 490.231 494.07 484.884 M504.788 468.565 L504.788 468.565 Z" fill="#000000" fill-rule="nonzero" fill-opacity="1" /><path clip-path="url(#clip080)" d="M541.084 469.954 L541.084 473.982 Q539.279 473.056 537.334 472.593 Q535.39 472.13 533.306 472.13 Q530.135 472.13 528.538 473.102 Q526.964 474.074 526.964 476.019 Q526.964 477.5 528.098 478.357 Q529.232 479.19 532.658 479.954 L534.117 480.278 Q538.654 481.25 540.552 483.032 Q542.473 484.792 542.473 487.963 Q542.473 491.574 539.603 493.681 Q536.755 495.787 531.755 495.787 Q529.672 495.787 527.404 495.37 Q525.158 494.977 522.658 494.167 L522.658 489.769 Q525.019 490.995 527.311 491.62 Q529.603 492.222 531.848 492.222 Q534.857 492.222 536.478 491.204 Q538.098 490.162 538.098 488.287 Q538.098 486.551 536.917 485.625 Q535.76 484.699 531.802 483.843 L530.32 483.495 Q526.362 482.662 524.603 480.949 Q522.843 479.213 522.843 476.204 Q522.843 472.546 525.436 470.556 Q528.029 468.565 532.797 468.565 Q535.158 468.565 537.242 468.912 Q539.325 469.259 541.084 469.954 Z" fill="#000000" fill-rule="nonzero" fill-opacity="1" /><path clip-path="url(#clip080)" d="M553.468 461.829 L553.468 469.19 L562.241 469.19 L562.241 472.5 L553.468 472.5 L553.468 486.574 Q553.468 489.745 554.325 490.648 Q555.204 491.551 557.866 491.551 L562.241 491.551 L562.241 495.116 L557.866 495.116 Q552.936 495.116 551.061 493.287 Q549.186 491.435 549.186 486.574 L549.186 472.5 L546.061 472.5 L546.061 469.19 L549.186 469.19 L549.186 461.829 L553.468 461.829 Z" fill="#000000" fill-rule="nonzero" fill-opacity="1" /><path clip-path="url(#clip080)" d="M577.889 472.176 Q574.464 472.176 572.473 474.861 Q570.482 477.523 570.482 482.176 Q570.482 486.829 572.45 489.514 Q574.44 492.176 577.889 492.176 Q581.292 492.176 583.283 489.491 Q585.274 486.806 585.274 482.176 Q585.274 477.57 583.283 474.884 Q581.292 472.176 577.889 472.176 M577.889 468.565 Q583.445 468.565 586.616 472.176 Q589.788 475.787 589.788 482.176 Q589.788 488.542 586.616 492.176 Q583.445 495.787 577.889 495.787 Q572.311 495.787 569.139 492.176 Q565.991 488.542 565.991 482.176 Q565.991 475.787 569.139 472.176 Q572.311 468.565 577.889 468.565 Z" fill="#000000" fill-rule="nonzero" fill-opacity="1" /><path clip-path="url(#clip080)" d="M617.033 474.167 Q618.63 471.296 620.852 469.931 Q623.074 468.565 626.084 468.565 Q630.135 468.565 632.334 471.412 Q634.533 474.236 634.533 479.468 L634.533 495.116 L630.25 495.116 L630.25 479.607 Q630.25 475.88 628.931 474.074 Q627.611 472.269 624.903 472.269 Q621.593 472.269 619.672 474.468 Q617.75 476.667 617.75 480.463 L617.75 495.116 L613.468 495.116 L613.468 479.607 Q613.468 475.857 612.149 474.074 Q610.829 472.269 608.074 472.269 Q604.811 472.269 602.889 474.491 Q600.968 476.69 600.968 480.463 L600.968 495.116 L596.686 495.116 L596.686 469.19 L600.968 469.19 L600.968 473.218 Q602.426 470.833 604.463 469.699 Q606.5 468.565 609.301 468.565 Q612.125 468.565 614.093 470 Q616.084 471.435 617.033 474.167 Z" fill="#000000" fill-rule="nonzero" fill-opacity="1" /><path clip-path="url(#clip080)" d="M665.204 481.088 L665.204 483.171 L645.621 483.171 Q645.898 487.569 648.259 489.884 Q650.644 492.176 654.88 492.176 Q657.333 492.176 659.625 491.574 Q661.94 490.972 664.208 489.769 L664.208 493.796 Q661.917 494.768 659.509 495.278 Q657.102 495.787 654.625 495.787 Q648.421 495.787 644.787 492.176 Q641.176 488.565 641.176 482.407 Q641.176 476.042 644.602 472.315 Q648.051 468.565 653.884 468.565 Q659.116 468.565 662.148 471.945 Q665.204 475.301 665.204 481.088 M660.945 479.838 Q660.898 476.343 658.977 474.259 Q657.079 472.176 653.931 472.176 Q650.366 472.176 648.213 474.19 Q646.084 476.204 645.759 479.861 L660.945 479.838 Z" fill="#000000" fill-rule="nonzero" fill-opacity="1" /><path clip-path="url(#clip080)" d="M687.218 473.171 Q686.5 472.755 685.643 472.57 Q684.81 472.361 683.792 472.361 Q680.181 472.361 678.236 474.722 Q676.315 477.06 676.315 481.458 L676.315 495.116 L672.032 495.116 L672.032 469.19 L676.315 469.19 L676.315 473.218 Q677.657 470.857 679.81 469.722 Q681.963 468.565 685.042 468.565 Q685.481 468.565 686.014 468.634 Q686.546 468.681 687.194 468.796 L687.218 473.171 Z" fill="#000000" fill-rule="nonzero" fill-opacity="1" /><path clip-path="url(#clip080)" d="M717.935 475.972 Q714.787 475.972 712.935 478.125 Q711.106 480.278 711.106 484.028 Q711.106 487.755 712.935 489.931 Q714.787 492.083 717.935 492.083 Q721.083 492.083 722.912 489.931 Q724.764 487.755 724.764 484.028 Q724.764 480.278 722.912 478.125 Q721.083 475.972 717.935 475.972 M727.217 461.32 L727.217 465.579 Q725.458 464.746 723.653 464.306 Q721.87 463.866 720.111 463.866 Q715.481 463.866 713.028 466.991 Q710.597 470.116 710.25 476.435 Q711.616 474.421 713.676 473.357 Q715.736 472.269 718.213 472.269 Q723.421 472.269 726.43 475.44 Q729.463 478.588 729.463 484.028 Q729.463 489.352 726.315 492.569 Q723.166 495.787 717.935 495.787 Q711.94 495.787 708.768 491.204 Q705.597 486.597 705.597 477.87 Q705.597 469.676 709.486 464.815 Q713.375 459.931 719.926 459.931 Q721.685 459.931 723.467 460.278 Q725.273 460.625 727.217 461.32 Z" fill="#000000" fill-rule="nonzero" fill-opacity="1" /><polyline clip-path="url(#clip080)" style="stroke:#ed5d92; stroke-linecap:round; stroke-linejoin:round; stroke-width:4; stroke-opacity:1; fill:none" points="299.465,529.676 442.718,529.676 "/>
<path clip-path="url(#clip080)" d="M487.103 522.025 L487.103 526.007 Q485.297 525.011 483.469 524.525 Q481.663 524.016 479.811 524.016 Q475.668 524.016 473.376 526.655 Q471.084 529.271 471.084 534.016 Q471.084 538.761 473.376 541.4 Q475.668 544.016 479.811 544.016 Q481.663 544.016 483.469 543.53 Q485.297 543.021 487.103 542.025 L487.103 545.96 Q485.32 546.794 483.399 547.21 Q481.501 547.627 479.348 547.627 Q473.492 547.627 470.043 543.946 Q466.594 540.266 466.594 534.016 Q466.594 527.673 470.066 524.039 Q473.561 520.405 479.626 520.405 Q481.594 520.405 483.469 520.822 Q485.344 521.215 487.103 522.025 Z" fill="#000000" fill-rule="nonzero" fill-opacity="1" /><path clip-path="url(#clip080)" d="M494.07 536.724 L494.07 521.03 L498.33 521.03 L498.33 536.562 Q498.33 540.243 499.765 542.095 Q501.2 543.923 504.07 543.923 Q507.519 543.923 509.51 541.724 Q511.524 539.525 511.524 535.729 L511.524 521.03 L515.783 521.03 L515.783 546.956 L511.524 546.956 L511.524 542.974 Q509.973 545.335 507.913 546.493 Q505.876 547.627 503.168 547.627 Q498.7 547.627 496.385 544.849 Q494.07 542.071 494.07 536.724 M504.788 520.405 L504.788 520.405 Z" fill="#000000" fill-rule="nonzero" fill-opacity="1" /><path clip-path="url(#clip080)" d="M541.084 521.794 L541.084 525.822 Q539.279 524.896 537.334 524.433 Q535.39 523.97 533.306 523.97 Q530.135 523.97 528.538 524.942 Q526.964 525.914 526.964 527.859 Q526.964 529.34 528.098 530.197 Q529.232 531.03 532.658 531.794 L534.117 532.118 Q538.654 533.09 540.552 534.872 Q542.473 536.632 542.473 539.803 Q542.473 543.414 539.603 545.521 Q536.755 547.627 531.755 547.627 Q529.672 547.627 527.404 547.21 Q525.158 546.817 522.658 546.007 L522.658 541.609 Q525.019 542.835 527.311 543.46 Q529.603 544.062 531.848 544.062 Q534.857 544.062 536.478 543.044 Q538.098 542.002 538.098 540.127 Q538.098 538.391 536.917 537.465 Q535.76 536.539 531.802 535.683 L530.32 535.335 Q526.362 534.502 524.603 532.789 Q522.843 531.053 522.843 528.044 Q522.843 524.386 525.436 522.396 Q528.029 520.405 532.797 520.405 Q535.158 520.405 537.242 520.752 Q539.325 521.099 541.084 521.794 Z" fill="#000000" fill-rule="nonzero" fill-opacity="1" /><path clip-path="url(#clip080)" d="M553.468 513.669 L553.468 521.03 L562.241 521.03 L562.241 524.34 L553.468 524.34 L553.468 538.414 Q553.468 541.585 554.325 542.488 Q555.204 543.391 557.866 543.391 L562.241 543.391 L562.241 546.956 L557.866 546.956 Q552.936 546.956 551.061 545.127 Q549.186 543.275 549.186 538.414 L549.186 524.34 L546.061 524.34 L546.061 521.03 L549.186 521.03 L549.186 513.669 L553.468 513.669 Z" fill="#000000" fill-rule="nonzero" fill-opacity="1" /><path clip-path="url(#clip080)" d="M577.889 524.016 Q574.464 524.016 572.473 526.701 Q570.482 529.363 570.482 534.016 Q570.482 538.669 572.45 541.354 Q574.44 544.016 577.889 544.016 Q581.292 544.016 583.283 541.331 Q585.274 538.646 585.274 534.016 Q585.274 529.41 583.283 526.724 Q581.292 524.016 577.889 524.016 M577.889 520.405 Q583.445 520.405 586.616 524.016 Q589.788 527.627 589.788 534.016 Q589.788 540.382 586.616 544.016 Q583.445 547.627 577.889 547.627 Q572.311 547.627 569.139 544.016 Q565.991 540.382 565.991 534.016 Q565.991 527.627 569.139 524.016 Q572.311 520.405 577.889 520.405 Z" fill="#000000" fill-rule="nonzero" fill-opacity="1" /><path clip-path="url(#clip080)" d="M617.033 526.007 Q618.63 523.136 620.852 521.771 Q623.074 520.405 626.084 520.405 Q630.135 520.405 632.334 523.252 Q634.533 526.076 634.533 531.308 L634.533 546.956 L630.25 546.956 L630.25 531.447 Q630.25 527.72 628.931 525.914 Q627.611 524.109 624.903 524.109 Q621.593 524.109 619.672 526.308 Q617.75 528.507 617.75 532.303 L617.75 546.956 L613.468 546.956 L613.468 531.447 Q613.468 527.697 612.149 525.914 Q610.829 524.109 608.074 524.109 Q604.811 524.109 602.889 526.331 Q600.968 528.53 600.968 532.303 L600.968 546.956 L596.686 546.956 L596.686 521.03 L600.968 521.03 L600.968 525.058 Q602.426 522.673 604.463 521.539 Q606.5 520.405 609.301 520.405 Q612.125 520.405 614.093 521.84 Q616.084 523.275 617.033 526.007 Z" fill="#000000" fill-rule="nonzero" fill-opacity="1" /><path clip-path="url(#clip080)" d="M665.204 532.928 L665.204 535.011 L645.621 535.011 Q645.898 539.409 648.259 541.724 Q650.644 544.016 654.88 544.016 Q657.333 544.016 659.625 543.414 Q661.94 542.812 664.208 541.609 L664.208 545.636 Q661.917 546.608 659.509 547.118 Q657.102 547.627 654.625 547.627 Q648.421 547.627 644.787 544.016 Q641.176 540.405 641.176 534.247 Q641.176 527.882 644.602 524.155 Q648.051 520.405 653.884 520.405 Q659.116 520.405 662.148 523.785 Q665.204 527.141 665.204 532.928 M660.945 531.678 Q660.898 528.183 658.977 526.099 Q657.079 524.016 653.931 524.016 Q650.366 524.016 648.213 526.03 Q646.084 528.044 645.759 531.701 L660.945 531.678 Z" fill="#000000" fill-rule="nonzero" fill-opacity="1" /><path clip-path="url(#clip080)" d="M687.218 525.011 Q686.5 524.595 685.643 524.41 Q684.81 524.201 683.792 524.201 Q680.181 524.201 678.236 526.562 Q676.315 528.9 676.315 533.298 L676.315 546.956 L672.032 546.956 L672.032 521.03 L676.315 521.03 L676.315 525.058 Q677.657 522.697 679.81 521.562 Q681.963 520.405 685.042 520.405 Q685.481 520.405 686.014 520.474 Q686.546 520.521 687.194 520.636 L687.218 525.011 Z" fill="#000000" fill-rule="nonzero" fill-opacity="1" /><path clip-path="url(#clip080)" d="M706.176 512.396 L728.398 512.396 L728.398 514.386 L715.852 546.956 L710.967 546.956 L722.773 516.331 L706.176 516.331 L706.176 512.396 Z" fill="#000000" fill-rule="nonzero" fill-opacity="1" /></svg>
