<?xml version="1.0" encoding="utf-8"?>
<svg xmlns="http://www.w3.org/2000/svg" xmlns:xlink="http://www.w3.org/1999/xlink" width="600" height="400" viewBox="0 0 2400 1600">
<defs>
  <clipPath id="clip200">
    <rect x="0" y="0" width="2400" height="1600"/>
  </clipPath>
</defs>
<path clip-path="url(#clip200)" d="M0 1600 L2400 1600 L2400 0 L0 0  Z" fill="#ffffff" fill-rule="evenodd" fill-opacity="1"/>
<defs>
  <clipPath id="clip201">
    <rect x="480" y="0" width="1681" height="1600"/>
  </clipPath>
</defs>
<path clip-path="url(#clip200)" d="M205.121 1423.18 L2352.76 1423.18 L2352.76 123.472 L205.121 123.472  Z" fill="#ffffff" fill-rule="evenodd" fill-opacity="1"/>
<defs>
  <clipPath id="clip202">
    <rect x="205" y="123" width="2149" height="1301"/>
  </clipPath>
</defs>
<polyline clip-path="url(#clip202)" style="stroke:#000000; stroke-linecap:round; stroke-linejoin:round; stroke-width:2; stroke-opacity:0.1; fill:none" points="618.263,1423.18 618.263,123.472 "/>
<polyline clip-path="url(#clip202)" style="stroke:#000000; stroke-linecap:round; stroke-linejoin:round; stroke-width:2; stroke-opacity:0.1; fill:none" points="1058.71,1423.18 1058.71,123.472 "/>
<polyline clip-path="url(#clip202)" style="stroke:#000000; stroke-linecap:round; stroke-linejoin:round; stroke-width:2; stroke-opacity:0.1; fill:none" points="1499.16,1423.18 1499.16,123.472 "/>
<polyline clip-path="url(#clip202)" style="stroke:#000000; stroke-linecap:round; stroke-linejoin:round; stroke-width:2; stroke-opacity:0.1; fill:none" points="1939.61,1423.18 1939.61,123.472 "/>
<polyline clip-path="url(#clip200)" style="stroke:#000000; stroke-linecap:round; stroke-linejoin:round; stroke-width:4; stroke-opacity:1; fill:none" points="205.121,1423.18 2352.76,1423.18 "/>
<polyline clip-path="url(#clip200)" style="stroke:#000000; stroke-linecap:round; stroke-linejoin:round; stroke-width:4; stroke-opacity:1; fill:none" points="618.263,1423.18 618.263,1404.28 "/>
<polyline clip-path="url(#clip200)" style="stroke:#000000; stroke-linecap:round; stroke-linejoin:round; stroke-width:4; stroke-opacity:1; fill:none" points="1058.71,1423.18 1058.71,1404.28 "/>
<polyline clip-path="url(#clip200)" style="stroke:#000000; stroke-linecap:round; stroke-linejoin:round; stroke-width:4; stroke-opacity:1; fill:none" points="1499.16,1423.18 1499.16,1404.28 "/>
<polyline clip-path="url(#clip200)" style="stroke:#000000; stroke-linecap:round; stroke-linejoin:round; stroke-width:4; stroke-opacity:1; fill:none" points="1939.61,1423.18 1939.61,1404.28 "/>
<path clip-path="url(#clip200)" d="M608.541 1451.02 L626.897 1451.02 L626.897 1454.96 L612.823 1454.96 L612.823 1463.43 Q613.842 1463.08 614.86 1462.92 Q615.879 1462.73 616.897 1462.73 Q622.684 1462.73 626.064 1465.9 Q629.444 1469.08 629.444 1474.49 Q629.444 1480.07 625.972 1483.17 Q622.499 1486.25 616.18 1486.25 Q614.004 1486.25 611.735 1485.88 Q609.49 1485.51 607.083 1484.77 L607.083 1480.07 Q609.166 1481.2 611.388 1481.76 Q613.61 1482.32 616.087 1482.32 Q620.092 1482.32 622.43 1480.21 Q624.768 1478.1 624.768 1474.49 Q624.768 1470.88 622.43 1468.77 Q620.092 1466.67 616.087 1466.67 Q614.212 1466.67 612.337 1467.08 Q610.485 1467.5 608.541 1468.38 L608.541 1451.02 Z" fill="#000000" fill-rule="nonzero" fill-opacity="1" /><path clip-path="url(#clip200)" d="M1033.4 1481.64 L1041.04 1481.64 L1041.04 1455.28 L1032.73 1456.95 L1032.73 1452.69 L1040.99 1451.02 L1045.67 1451.02 L1045.67 1481.64 L1053.31 1481.64 L1053.31 1485.58 L1033.4 1485.58 L1033.4 1481.64 Z" fill="#000000" fill-rule="nonzero" fill-opacity="1" /><path clip-path="url(#clip200)" d="M1072.75 1454.1 Q1069.14 1454.1 1067.31 1457.66 Q1065.51 1461.2 1065.51 1468.33 Q1065.51 1475.44 1067.31 1479.01 Q1069.14 1482.55 1072.75 1482.55 Q1076.39 1482.55 1078.19 1479.01 Q1080.02 1475.44 1080.02 1468.33 Q1080.02 1461.2 1078.19 1457.66 Q1076.39 1454.1 1072.75 1454.1 M1072.75 1450.39 Q1078.56 1450.39 1081.62 1455 Q1084.7 1459.58 1084.7 1468.33 Q1084.7 1477.06 1081.62 1481.67 Q1078.56 1486.25 1072.75 1486.25 Q1066.94 1486.25 1063.86 1481.67 Q1060.81 1477.06 1060.81 1468.33 Q1060.81 1459.58 1063.86 1455 Q1066.94 1450.39 1072.75 1450.39 Z" fill="#000000" fill-rule="nonzero" fill-opacity="1" /><path clip-path="url(#clip200)" d="M1474.35 1481.64 L1481.99 1481.64 L1481.99 1455.28 L1473.68 1456.95 L1473.68 1452.69 L1481.94 1451.02 L1486.62 1451.02 L1486.62 1481.64 L1494.26 1481.64 L1494.26 1485.58 L1474.35 1485.58 L1474.35 1481.64 Z" fill="#000000" fill-rule="nonzero" fill-opacity="1" /><path clip-path="url(#clip200)" d="M1503.75 1451.02 L1522.1 1451.02 L1522.1 1454.96 L1508.03 1454.96 L1508.03 1463.43 Q1509.05 1463.08 1510.07 1462.92 Q1511.08 1462.73 1512.1 1462.73 Q1517.89 1462.73 1521.27 1465.9 Q1524.65 1469.08 1524.65 1474.49 Q1524.65 1480.07 1521.18 1483.17 Q1517.71 1486.25 1511.39 1486.25 Q1509.21 1486.25 1506.94 1485.88 Q1504.7 1485.51 1502.29 1484.77 L1502.29 1480.07 Q1504.37 1481.2 1506.59 1481.76 Q1508.82 1482.32 1511.29 1482.32 Q1515.3 1482.32 1517.64 1480.21 Q1519.97 1478.1 1519.97 1474.49 Q1519.97 1470.88 1517.64 1468.77 Q1515.3 1466.67 1511.29 1466.67 Q1509.42 1466.67 1507.54 1467.08 Q1505.69 1467.5 1503.75 1468.38 L1503.75 1451.02 Z" fill="#000000" fill-rule="nonzero" fill-opacity="1" /><path clip-path="url(#clip200)" d="M1918.39 1481.64 L1934.71 1481.64 L1934.71 1485.58 L1912.76 1485.58 L1912.76 1481.64 Q1915.42 1478.89 1920.01 1474.26 Q1924.61 1469.61 1925.79 1468.27 Q1928.04 1465.74 1928.92 1464.01 Q1929.82 1462.25 1929.82 1460.56 Q1929.82 1457.8 1927.88 1456.07 Q1925.96 1454.33 1922.85 1454.33 Q1920.66 1454.33 1918.2 1455.09 Q1915.77 1455.86 1912.99 1457.41 L1912.99 1452.69 Q1915.82 1451.55 1918.27 1450.97 Q1920.72 1450.39 1922.76 1450.39 Q1928.13 1450.39 1931.33 1453.08 Q1934.52 1455.77 1934.52 1460.26 Q1934.52 1462.39 1933.71 1464.31 Q1932.92 1466.2 1930.82 1468.8 Q1930.24 1469.47 1927.14 1472.69 Q1924.04 1475.88 1918.39 1481.64 Z" fill="#000000" fill-rule="nonzero" fill-opacity="1" /><path clip-path="url(#clip200)" d="M1954.52 1454.1 Q1950.91 1454.1 1949.08 1457.66 Q1947.28 1461.2 1947.28 1468.33 Q1947.28 1475.44 1949.08 1479.01 Q1950.91 1482.55 1954.52 1482.55 Q1958.16 1482.55 1959.96 1479.01 Q1961.79 1475.44 1961.79 1468.33 Q1961.79 1461.2 1959.96 1457.66 Q1958.16 1454.1 1954.52 1454.1 M1954.52 1450.39 Q1960.33 1450.39 1963.39 1455 Q1966.47 1459.58 1966.47 1468.33 Q1966.47 1477.06 1963.39 1481.67 Q1960.33 1486.25 1954.52 1486.25 Q1948.71 1486.25 1945.63 1481.67 Q1942.58 1477.06 1942.58 1468.33 Q1942.58 1459.58 1945.63 1455 Q1948.71 1450.39 1954.52 1450.39 Z" fill="#000000" fill-rule="nonzero" fill-opacity="1" /><path clip-path="url(#clip200)" d="M1091.44 1520.52 L1131.64 1520.52 L1131.64 1525.93 L1114.77 1525.93 L1114.77 1568.04 L1108.31 1568.04 L1108.31 1525.93 L1091.44 1525.93 L1091.44 1520.52 Z" fill="#000000" fill-rule="nonzero" fill-opacity="1" /><path clip-path="url(#clip200)" d="M1135.58 1532.4 L1141.44 1532.4 L1141.44 1568.04 L1135.58 1568.04 L1135.58 1532.4 M1135.58 1518.52 L1141.44 1518.52 L1141.44 1525.93 L1135.58 1525.93 L1135.58 1518.52 Z" fill="#000000" fill-rule="nonzero" fill-opacity="1" /><path clip-path="url(#clip200)" d="M1181.45 1539.24 Q1183.64 1535.29 1186.7 1533.41 Q1189.75 1531.54 1193.89 1531.54 Q1199.46 1531.54 1202.49 1535.45 Q1205.51 1539.33 1205.51 1546.53 L1205.51 1568.04 L1199.62 1568.04 L1199.62 1546.72 Q1199.62 1541.59 1197.81 1539.11 Q1195.99 1536.63 1192.27 1536.63 Q1187.72 1536.63 1185.08 1539.65 Q1182.43 1542.68 1182.43 1547.9 L1182.43 1568.04 L1176.55 1568.04 L1176.55 1546.72 Q1176.55 1541.56 1174.73 1539.11 Q1172.92 1536.63 1169.13 1536.63 Q1164.64 1536.63 1162 1539.68 Q1159.36 1542.71 1159.36 1547.9 L1159.36 1568.04 L1153.47 1568.04 L1153.47 1532.4 L1159.36 1532.4 L1159.36 1537.93 Q1161.36 1534.66 1164.16 1533.1 Q1166.97 1531.54 1170.82 1531.54 Q1174.7 1531.54 1177.41 1533.51 Q1180.14 1535.48 1181.45 1539.24 Z" fill="#000000" fill-rule="nonzero" fill-opacity="1" /><path clip-path="url(#clip200)" d="M1247.68 1548.76 L1247.68 1551.62 L1220.76 1551.62 Q1221.14 1557.67 1224.38 1560.85 Q1227.66 1564 1233.49 1564 Q1236.86 1564 1240.01 1563.17 Q1243.19 1562.35 1246.31 1560.69 L1246.31 1566.23 Q1243.16 1567.57 1239.85 1568.27 Q1236.54 1568.97 1233.14 1568.97 Q1224.61 1568.97 1219.61 1564 Q1214.64 1559.04 1214.64 1550.57 Q1214.64 1541.82 1219.36 1536.69 Q1224.1 1531.54 1232.12 1531.54 Q1239.31 1531.54 1243.48 1536.18 Q1247.68 1540.8 1247.68 1548.76 M1241.83 1547.04 Q1241.76 1542.23 1239.12 1539.37 Q1236.51 1536.5 1232.18 1536.5 Q1227.28 1536.5 1224.32 1539.27 Q1221.39 1542.04 1220.95 1547.07 L1241.83 1547.04 Z" fill="#000000" fill-rule="nonzero" fill-opacity="1" /><path clip-path="url(#clip200)" d="M1292.08 1518.58 Q1287.82 1525.9 1285.75 1533.06 Q1283.68 1540.23 1283.68 1547.58 Q1283.68 1554.93 1285.75 1562.16 Q1287.85 1569.35 1292.08 1576.64 L1286.99 1576.64 Q1282.22 1569.16 1279.83 1561.93 Q1277.47 1554.71 1277.47 1547.58 Q1277.47 1540.48 1279.83 1533.29 Q1282.18 1526.09 1286.99 1518.58 L1292.08 1518.58 Z" fill="#000000" fill-rule="nonzero" fill-opacity="1" /><path clip-path="url(#clip200)" d="M1333.08 1546.53 L1333.08 1568.04 L1327.22 1568.04 L1327.22 1546.72 Q1327.22 1541.66 1325.25 1539.14 Q1323.28 1536.63 1319.33 1536.63 Q1314.59 1536.63 1311.85 1539.65 Q1309.11 1542.68 1309.11 1547.9 L1309.11 1568.04 L1303.22 1568.04 L1303.22 1518.52 L1309.11 1518.52 L1309.11 1537.93 Q1311.21 1534.72 1314.05 1533.13 Q1316.91 1531.54 1320.63 1531.54 Q1326.78 1531.54 1329.93 1535.36 Q1333.08 1539.14 1333.08 1546.53 Z" fill="#000000" fill-rule="nonzero" fill-opacity="1" /><path clip-path="url(#clip200)" d="M1358.57 1536.5 Q1353.86 1536.5 1351.13 1540.19 Q1348.39 1543.85 1348.39 1550.25 Q1348.39 1556.65 1351.09 1560.34 Q1353.83 1564 1358.57 1564 Q1363.25 1564 1365.99 1560.31 Q1368.73 1556.62 1368.73 1550.25 Q1368.73 1543.92 1365.99 1540.23 Q1363.25 1536.5 1358.57 1536.5 M1358.57 1531.54 Q1366.21 1531.54 1370.57 1536.5 Q1374.93 1541.47 1374.93 1550.25 Q1374.93 1559 1370.57 1564 Q1366.21 1568.97 1358.57 1568.97 Q1350.9 1568.97 1346.54 1564 Q1342.21 1559 1342.21 1550.25 Q1342.21 1541.47 1346.54 1536.5 Q1350.9 1531.54 1358.57 1531.54 Z" fill="#000000" fill-rule="nonzero" fill-opacity="1" /><path clip-path="url(#clip200)" d="M1384.04 1553.98 L1384.04 1532.4 L1389.89 1532.4 L1389.89 1553.75 Q1389.89 1558.81 1391.87 1561.36 Q1393.84 1563.87 1397.79 1563.87 Q1402.53 1563.87 1405.27 1560.85 Q1408.03 1557.83 1408.03 1552.61 L1408.03 1532.4 L1413.89 1532.4 L1413.89 1568.04 L1408.03 1568.04 L1408.03 1562.57 Q1405.9 1565.82 1403.07 1567.41 Q1400.27 1568.97 1396.54 1568.97 Q1390.4 1568.97 1387.22 1565.15 Q1384.04 1561.33 1384.04 1553.98 M1398.77 1531.54 L1398.77 1531.54 Z" fill="#000000" fill-rule="nonzero" fill-opacity="1" /><path clip-path="url(#clip200)" d="M1446.61 1537.87 Q1445.62 1537.3 1444.45 1537.04 Q1443.3 1536.76 1441.9 1536.76 Q1436.94 1536.76 1434.26 1540 Q1431.62 1543.22 1431.62 1549.27 L1431.62 1568.04 L1425.73 1568.04 L1425.73 1532.4 L1431.62 1532.4 L1431.62 1537.93 Q1433.47 1534.69 1436.43 1533.13 Q1439.39 1531.54 1443.62 1531.54 Q1444.22 1531.54 1444.96 1531.63 Q1445.69 1531.7 1446.58 1531.85 L1446.61 1537.87 Z" fill="#000000" fill-rule="nonzero" fill-opacity="1" /><path clip-path="url(#clip200)" d="M1451.83 1518.58 L1456.92 1518.58 Q1461.7 1526.09 1464.05 1533.29 Q1466.44 1540.48 1466.44 1547.58 Q1466.44 1554.71 1464.05 1561.93 Q1461.7 1569.16 1456.92 1576.64 L1451.83 1576.64 Q1456.06 1569.35 1458.13 1562.16 Q1460.23 1554.93 1460.23 1547.58 Q1460.23 1540.23 1458.13 1533.06 Q1456.06 1525.9 1451.83 1518.58 Z" fill="#000000" fill-rule="nonzero" fill-opacity="1" /><polyline clip-path="url(#clip202)" style="stroke:#000000; stroke-linecap:round; stroke-linejoin:round; stroke-width:2; stroke-opacity:0.1; fill:none" points="205.121,1386.4 2352.76,1386.4 "/>
<polyline clip-path="url(#clip202)" style="stroke:#000000; stroke-linecap:round; stroke-linejoin:round; stroke-width:2; stroke-opacity:0.1; fill:none" points="205.121,1081.04 2352.76,1081.04 "/>
<polyline clip-path="url(#clip202)" style="stroke:#000000; stroke-linecap:round; stroke-linejoin:round; stroke-width:2; stroke-opacity:0.1; fill:none" points="205.121,775.679 2352.76,775.679 "/>
<polyline clip-path="url(#clip202)" style="stroke:#000000; stroke-linecap:round; stroke-linejoin:round; stroke-width:2; stroke-opacity:0.1; fill:none" points="205.121,470.321 2352.76,470.321 "/>
<polyline clip-path="url(#clip202)" style="stroke:#000000; stroke-linecap:round; stroke-linejoin:round; stroke-width:2; stroke-opacity:0.1; fill:none" points="205.121,164.963 2352.76,164.963 "/>
<polyline clip-path="url(#clip200)" style="stroke:#000000; stroke-linecap:round; stroke-linejoin:round; stroke-width:4; stroke-opacity:1; fill:none" points="205.121,1423.18 205.121,123.472 "/>
<polyline clip-path="url(#clip200)" style="stroke:#000000; stroke-linecap:round; stroke-linejoin:round; stroke-width:4; stroke-opacity:1; fill:none" points="205.121,1386.4 224.019,1386.4 "/>
<polyline clip-path="url(#clip200)" style="stroke:#000000; stroke-linecap:round; stroke-linejoin:round; stroke-width:4; stroke-opacity:1; fill:none" points="205.121,1081.04 224.019,1081.04 "/>
<polyline clip-path="url(#clip200)" style="stroke:#000000; stroke-linecap:round; stroke-linejoin:round; stroke-width:4; stroke-opacity:1; fill:none" points="205.121,775.679 224.019,775.679 "/>
<polyline clip-path="url(#clip200)" style="stroke:#000000; stroke-linecap:round; stroke-linejoin:round; stroke-width:4; stroke-opacity:1; fill:none" points="205.121,470.321 224.019,470.321 "/>
<polyline clip-path="url(#clip200)" style="stroke:#000000; stroke-linecap:round; stroke-linejoin:round; stroke-width:4; stroke-opacity:1; fill:none" points="205.121,164.963 224.019,164.963 "/>
<path clip-path="url(#clip200)" d="M157.177 1372.19 Q153.566 1372.19 151.737 1375.76 Q149.931 1379.3 149.931 1386.43 Q149.931 1393.54 151.737 1397.1 Q153.566 1400.64 157.177 1400.64 Q160.811 1400.64 162.616 1397.1 Q164.445 1393.54 164.445 1386.43 Q164.445 1379.3 162.616 1375.76 Q160.811 1372.19 157.177 1372.19 M157.177 1368.49 Q162.987 1368.49 166.042 1373.1 Q169.121 1377.68 169.121 1386.43 Q169.121 1395.16 166.042 1399.76 Q162.987 1404.35 157.177 1404.35 Q151.366 1404.35 148.288 1399.76 Q145.232 1395.16 145.232 1386.43 Q145.232 1377.68 148.288 1373.1 Q151.366 1368.49 157.177 1368.49 Z" fill="#000000" fill-rule="nonzero" fill-opacity="1" /><path clip-path="url(#clip200)" d="M117.825 1094.38 L125.464 1094.38 L125.464 1068.02 L117.154 1069.68 L117.154 1065.42 L125.418 1063.76 L130.093 1063.76 L130.093 1094.38 L137.732 1094.38 L137.732 1098.32 L117.825 1098.32 L117.825 1094.38 Z" fill="#000000" fill-rule="nonzero" fill-opacity="1" /><path clip-path="url(#clip200)" d="M157.177 1066.84 Q153.566 1066.84 151.737 1070.4 Q149.931 1073.94 149.931 1081.07 Q149.931 1088.18 151.737 1091.74 Q153.566 1095.29 157.177 1095.29 Q160.811 1095.29 162.616 1091.74 Q164.445 1088.18 164.445 1081.07 Q164.445 1073.94 162.616 1070.4 Q160.811 1066.84 157.177 1066.84 M157.177 1063.13 Q162.987 1063.13 166.042 1067.74 Q169.121 1072.32 169.121 1081.07 Q169.121 1089.8 166.042 1094.41 Q162.987 1098.99 157.177 1098.99 Q151.366 1098.99 148.288 1094.41 Q145.232 1089.8 145.232 1081.07 Q145.232 1072.32 148.288 1067.74 Q151.366 1063.13 157.177 1063.13 Z" fill="#000000" fill-rule="nonzero" fill-opacity="1" /><path clip-path="url(#clip200)" d="M121.043 789.024 L137.362 789.024 L137.362 792.959 L115.418 792.959 L115.418 789.024 Q118.08 786.269 122.663 781.64 Q127.269 776.987 128.45 775.644 Q130.695 773.121 131.575 771.385 Q132.478 769.626 132.478 767.936 Q132.478 765.182 130.533 763.445 Q128.612 761.709 125.51 761.709 Q123.311 761.709 120.857 762.473 Q118.427 763.237 115.649 764.788 L115.649 760.066 Q118.473 758.932 120.927 758.353 Q123.38 757.774 125.418 757.774 Q130.788 757.774 133.982 760.459 Q137.177 763.145 137.177 767.635 Q137.177 769.765 136.367 771.686 Q135.579 773.584 133.473 776.177 Q132.894 776.848 129.792 780.066 Q126.691 783.26 121.043 789.024 Z" fill="#000000" fill-rule="nonzero" fill-opacity="1" /><path clip-path="url(#clip200)" d="M157.177 761.478 Q153.566 761.478 151.737 765.043 Q149.931 768.584 149.931 775.714 Q149.931 782.82 151.737 786.385 Q153.566 789.927 157.177 789.927 Q160.811 789.927 162.616 786.385 Q164.445 782.82 164.445 775.714 Q164.445 768.584 162.616 765.043 Q160.811 761.478 157.177 761.478 M157.177 757.774 Q162.987 757.774 166.042 762.381 Q169.121 766.964 169.121 775.714 Q169.121 784.441 166.042 789.047 Q162.987 793.631 157.177 793.631 Q151.366 793.631 148.288 789.047 Q145.232 784.441 145.232 775.714 Q145.232 766.964 148.288 762.381 Q151.366 757.774 157.177 757.774 Z" fill="#000000" fill-rule="nonzero" fill-opacity="1" /><path clip-path="url(#clip200)" d="M131.181 468.967 Q134.538 469.684 136.413 471.953 Q138.311 474.221 138.311 477.555 Q138.311 482.67 134.792 485.471 Q131.274 488.272 124.793 488.272 Q122.617 488.272 120.302 487.832 Q118.01 487.416 115.556 486.559 L115.556 482.045 Q117.501 483.18 119.816 483.758 Q122.13 484.337 124.654 484.337 Q129.052 484.337 131.343 482.601 Q133.658 480.865 133.658 477.555 Q133.658 474.499 131.505 472.786 Q129.376 471.05 125.556 471.05 L121.529 471.05 L121.529 467.208 L125.742 467.208 Q129.191 467.208 131.019 465.842 Q132.848 464.453 132.848 461.86 Q132.848 459.198 130.95 457.786 Q129.075 456.351 125.556 456.351 Q123.635 456.351 121.436 456.768 Q119.237 457.184 116.598 458.064 L116.598 453.897 Q119.26 453.157 121.575 452.786 Q123.913 452.416 125.973 452.416 Q131.297 452.416 134.399 454.847 Q137.501 457.254 137.501 461.374 Q137.501 464.245 135.857 466.235 Q134.214 468.203 131.181 468.967 Z" fill="#000000" fill-rule="nonzero" fill-opacity="1" /><path clip-path="url(#clip200)" d="M157.177 456.12 Q153.566 456.12 151.737 459.684 Q149.931 463.226 149.931 470.356 Q149.931 477.462 151.737 481.027 Q153.566 484.569 157.177 484.569 Q160.811 484.569 162.616 481.027 Q164.445 477.462 164.445 470.356 Q164.445 463.226 162.616 459.684 Q160.811 456.12 157.177 456.12 M157.177 452.416 Q162.987 452.416 166.042 457.022 Q169.121 461.606 169.121 470.356 Q169.121 479.083 166.042 483.689 Q162.987 488.272 157.177 488.272 Q151.366 488.272 148.288 483.689 Q145.232 479.083 145.232 470.356 Q145.232 461.606 148.288 457.022 Q151.366 452.416 157.177 452.416 Z" fill="#000000" fill-rule="nonzero" fill-opacity="1" /><path clip-path="url(#clip200)" d="M129.862 151.757 L118.056 170.206 L129.862 170.206 L129.862 151.757 M128.635 147.683 L134.515 147.683 L134.515 170.206 L139.445 170.206 L139.445 174.095 L134.515 174.095 L134.515 182.243 L129.862 182.243 L129.862 174.095 L114.26 174.095 L114.26 169.581 L128.635 147.683 Z" fill="#000000" fill-rule="nonzero" fill-opacity="1" /><path clip-path="url(#clip200)" d="M157.177 150.761 Q153.566 150.761 151.737 154.326 Q149.931 157.868 149.931 164.997 Q149.931 172.104 151.737 175.669 Q153.566 179.21 157.177 179.21 Q160.811 179.21 162.616 175.669 Q164.445 172.104 164.445 164.997 Q164.445 157.868 162.616 154.326 Q160.811 150.761 157.177 150.761 M157.177 147.058 Q162.987 147.058 166.042 151.664 Q169.121 156.248 169.121 164.997 Q169.121 173.724 166.042 178.331 Q162.987 182.914 157.177 182.914 Q151.366 182.914 148.288 178.331 Q145.232 173.724 145.232 164.997 Q145.232 156.248 148.288 151.664 Q151.366 147.058 157.177 147.058 Z" fill="#000000" fill-rule="nonzero" fill-opacity="1" /><path clip-path="url(#clip200)" d="M21.7677 1114.35 L39.6235 1114.35 L39.6235 1106.27 Q39.6235 1101.78 37.3 1099.33 Q34.9765 1096.88 30.6797 1096.88 Q26.4147 1096.88 24.0912 1099.33 Q21.7677 1101.78 21.7677 1106.27 L21.7677 1114.35 M16.4842 1120.78 L16.4842 1106.27 Q16.4842 1098.28 20.1126 1094.21 Q23.7092 1090.1 30.6797 1090.1 Q37.7138 1090.1 41.3104 1094.21 Q44.907 1098.28 44.907 1106.27 L44.907 1114.35 L64.0042 1114.35 L64.0042 1120.78 L16.4842 1120.78 Z" fill="#000000" fill-rule="nonzero" fill-opacity="1" /><path clip-path="url(#clip200)" d="M32.4621 1070.24 Q32.4621 1074.95 36.1542 1077.69 Q39.8145 1080.42 46.212 1080.42 Q52.6095 1080.42 56.3017 1077.72 Q59.9619 1074.98 59.9619 1070.24 Q59.9619 1065.56 56.2698 1062.82 Q52.5777 1060.09 46.212 1060.09 Q39.8781 1060.09 36.186 1062.82 Q32.4621 1065.56 32.4621 1070.24 M27.4968 1070.24 Q27.4968 1062.6 32.4621 1058.24 Q37.4273 1053.88 46.212 1053.88 Q54.9649 1053.88 59.9619 1058.24 Q64.9272 1062.6 64.9272 1070.24 Q64.9272 1077.91 59.9619 1082.27 Q54.9649 1086.6 46.212 1086.6 Q37.4273 1086.6 32.4621 1082.27 Q27.4968 1077.91 27.4968 1070.24 Z" fill="#000000" fill-rule="nonzero" fill-opacity="1" /><path clip-path="url(#clip200)" d="M28.3562 1047.58 L28.3562 1041.72 L56.1743 1034.4 L28.3562 1027.11 L28.3562 1020.2 L56.1743 1012.88 L28.3562 1005.59 L28.3562 999.738 L64.0042 1009.06 L64.0042 1015.97 L34.7856 1023.64 L64.0042 1031.34 L64.0042 1038.25 L28.3562 1047.58 Z" fill="#000000" fill-rule="nonzero" fill-opacity="1" /><path clip-path="url(#clip200)" d="M44.7161 960.366 L47.5806 960.366 L47.5806 987.293 Q53.6281 986.911 56.8109 983.665 Q59.9619 980.387 59.9619 974.562 Q59.9619 971.188 59.1344 968.037 Q58.3069 964.854 56.6518 961.735 L62.1899 961.735 Q63.5267 964.886 64.227 968.196 Q64.9272 971.506 64.9272 974.912 Q64.9272 983.442 59.9619 988.439 Q54.9967 993.404 46.5303 993.404 Q37.7774 993.404 32.6531 988.694 Q27.4968 983.951 27.4968 975.931 Q27.4968 968.737 32.1438 964.568 Q36.7589 960.366 44.7161 960.366 M42.9973 966.223 Q38.1912 966.286 35.3266 968.928 Q32.4621 971.538 32.4621 975.867 Q32.4621 980.768 35.2312 983.729 Q38.0002 986.657 43.0292 987.102 L42.9973 966.223 Z" fill="#000000" fill-rule="nonzero" fill-opacity="1" /><path clip-path="url(#clip200)" d="M33.8307 930.097 Q33.2578 931.084 33.0032 932.262 Q32.7167 933.408 32.7167 934.808 Q32.7167 939.773 35.9632 942.447 Q39.1779 945.089 45.2253 945.089 L64.0042 945.089 L64.0042 950.977 L28.3562 950.977 L28.3562 945.089 L33.8944 945.089 Q30.6479 943.243 29.0883 940.283 Q27.4968 937.323 27.4968 933.089 Q27.4968 932.485 27.5923 931.753 Q27.656 931.02 27.8151 930.129 L33.8307 930.097 Z" fill="#000000" fill-rule="nonzero" fill-opacity="1" /><path clip-path="url(#clip200)" d="M20.1444 867.395 L26.9239 867.395 Q23.9002 870.642 22.4043 874.334 Q20.9083 877.994 20.9083 882.132 Q20.9083 890.28 25.9054 894.609 Q30.8707 898.937 40.2919 898.937 Q49.6813 898.937 54.6784 894.609 Q59.6436 890.28 59.6436 882.132 Q59.6436 877.994 58.1477 874.334 Q56.6518 870.642 53.6281 867.395 L60.3439 867.395 Q62.6355 870.769 63.7814 874.557 Q64.9272 878.312 64.9272 882.514 Q64.9272 893.304 58.3387 899.51 Q51.7183 905.717 40.2919 905.717 Q28.8336 905.717 22.2451 899.51 Q15.6248 893.304 15.6248 882.514 Q15.6248 878.249 16.7706 874.493 Q17.8846 870.705 20.1444 867.395 Z" fill="#000000" fill-rule="nonzero" fill-opacity="1" /><path clip-path="url(#clip200)" d="M49.9359 858.324 L28.3562 858.324 L28.3562 852.468 L49.7131 852.468 Q54.7739 852.468 57.3202 850.494 Q59.8346 848.521 59.8346 844.574 Q59.8346 839.832 56.8109 837.094 Q53.7872 834.325 48.5673 834.325 L28.3562 834.325 L28.3562 828.469 L64.0042 828.469 L64.0042 834.325 L58.5296 834.325 Q61.7762 836.458 63.3676 839.291 Q64.9272 842.092 64.9272 845.815 Q64.9272 851.958 61.1078 855.141 Q57.2883 858.324 49.9359 858.324 M27.4968 843.587 L27.4968 843.587 Z" fill="#000000" fill-rule="nonzero" fill-opacity="1" /><path clip-path="url(#clip200)" d="M33.8307 795.749 Q33.2578 796.736 33.0032 797.914 Q32.7167 799.059 32.7167 800.46 Q32.7167 805.425 35.9632 808.099 Q39.1779 810.74 45.2253 810.74 L64.0042 810.74 L64.0042 816.629 L28.3562 816.629 L28.3562 810.74 L33.8944 810.74 Q30.6479 808.894 29.0883 805.934 Q27.4968 802.974 27.4968 798.741 Q27.4968 798.136 27.5923 797.404 Q27.656 796.672 27.8151 795.781 L33.8307 795.749 Z" fill="#000000" fill-rule="nonzero" fill-opacity="1" /><path clip-path="url(#clip200)" d="M18.2347 783.813 L28.3562 783.813 L28.3562 771.75 L32.9077 771.75 L32.9077 783.813 L52.2594 783.813 Q56.6199 783.813 57.8613 782.636 Q59.1026 781.426 59.1026 777.766 L59.1026 771.75 L64.0042 771.75 L64.0042 777.766 Q64.0042 784.546 61.4897 787.124 Q58.9434 789.702 52.2594 789.702 L32.9077 789.702 L32.9077 793.999 L28.3562 793.999 L28.3562 789.702 L18.2347 789.702 L18.2347 783.813 Z" fill="#000000" fill-rule="nonzero" fill-opacity="1" /><path clip-path="url(#clip200)" d="M46.0847 747.847 Q46.0847 754.945 47.7079 757.682 Q49.3312 760.42 53.2461 760.42 Q56.3653 760.42 58.2114 758.382 Q60.0256 756.314 60.0256 752.781 Q60.0256 747.911 56.5881 744.983 Q53.1188 742.023 47.3897 742.023 L46.0847 742.023 L46.0847 747.847 M43.6657 736.166 L64.0042 736.166 L64.0042 742.023 L58.5933 742.023 Q61.8398 744.028 63.3994 747.02 Q64.9272 750.012 64.9272 754.34 Q64.9272 759.815 61.8716 763.061 Q58.7843 766.276 53.6281 766.276 Q47.6125 766.276 44.5569 762.266 Q41.5014 758.223 41.5014 750.234 L41.5014 742.023 L40.9285 742.023 Q36.8862 742.023 34.6901 744.696 Q32.4621 747.338 32.4621 752.144 Q32.4621 755.2 33.1941 758.096 Q33.9262 760.992 35.3903 763.666 L29.9795 763.666 Q28.7381 760.451 28.1334 757.428 Q27.4968 754.404 27.4968 751.539 Q27.4968 743.805 31.5072 739.986 Q35.5176 736.166 43.6657 736.166 Z" fill="#000000" fill-rule="nonzero" fill-opacity="1" /><path clip-path="url(#clip200)" d="M28.3562 724.103 L28.3562 718.247 L64.0042 718.247 L64.0042 724.103 L28.3562 724.103 M14.479 724.103 L14.479 718.247 L21.895 718.247 L21.895 724.103 L14.479 724.103 Z" fill="#000000" fill-rule="nonzero" fill-opacity="1" /><path clip-path="url(#clip200)" d="M14.479 705.993 L14.479 700.136 L64.0042 700.136 L64.0042 705.993 L14.479 705.993 Z" fill="#000000" fill-rule="nonzero" fill-opacity="1" /><path clip-path="url(#clip200)" d="M44.7161 657.391 L47.5806 657.391 L47.5806 684.317 Q53.6281 683.936 56.8109 680.689 Q59.9619 677.411 59.9619 671.586 Q59.9619 668.212 59.1344 665.061 Q58.3069 661.878 56.6518 658.759 L62.1899 658.759 Q63.5267 661.91 64.227 665.22 Q64.9272 668.531 64.9272 671.936 Q64.9272 680.466 59.9619 685.463 Q54.9967 690.429 46.5303 690.429 Q37.7774 690.429 32.6531 685.718 Q27.4968 680.975 27.4968 672.955 Q27.4968 665.761 32.1438 661.592 Q36.7589 657.391 44.7161 657.391 M42.9973 663.247 Q38.1912 663.311 35.3266 665.952 Q32.4621 668.562 32.4621 672.891 Q32.4621 677.793 35.2312 680.753 Q38.0002 683.681 43.0292 684.127 L42.9973 663.247 Z" fill="#000000" fill-rule="nonzero" fill-opacity="1" /><path clip-path="url(#clip200)" d="M33.7671 624.321 L14.479 624.321 L14.479 618.464 L64.0042 618.464 L64.0042 624.321 L58.657 624.321 Q61.8398 626.167 63.3994 629 Q64.9272 631.8 64.9272 635.747 Q64.9272 642.208 59.771 646.282 Q54.6147 650.325 46.212 650.325 Q37.8093 650.325 32.6531 646.282 Q27.4968 642.208 27.4968 635.747 Q27.4968 631.8 29.0564 629 Q30.5842 626.167 33.7671 624.321 M46.212 644.277 Q52.6732 644.277 56.3653 641.635 Q60.0256 638.962 60.0256 634.315 Q60.0256 629.668 56.3653 626.994 Q52.6732 624.321 46.212 624.321 Q39.7508 624.321 36.0905 626.994 Q32.3984 629.668 32.3984 634.315 Q32.3984 638.962 36.0905 641.635 Q39.7508 644.277 46.212 644.277 Z" fill="#000000" fill-rule="nonzero" fill-opacity="1" /><path clip-path="url(#clip200)" d="M14.5426 571.613 Q21.8632 575.878 29.0246 577.947 Q36.186 580.015 43.5384 580.015 Q50.8908 580.015 58.1159 577.947 Q65.3091 575.846 72.5979 571.613 L72.5979 576.705 Q65.1182 581.48 57.8931 583.867 Q50.668 586.222 43.5384 586.222 Q36.4406 586.222 29.2474 583.867 Q22.0542 581.511 14.5426 576.705 L14.5426 571.613 Z" fill="#000000" fill-rule="nonzero" fill-opacity="1" /><path clip-path="url(#clip200)" d="M16.4842 559.995 L16.4842 550.415 L48.8219 538.288 L16.4842 526.098 L16.4842 516.517 L64.0042 516.517 L64.0042 522.788 L22.277 522.788 L54.8694 535.042 L54.8694 541.503 L22.277 553.757 L64.0042 553.757 L64.0042 559.995 L16.4842 559.995 Z" fill="#000000" fill-rule="nonzero" fill-opacity="1" /><path clip-path="url(#clip200)" d="M16.4842 507.987 L16.4842 501.494 L56.6518 491.5 L16.4842 481.538 L16.4842 474.313 L56.6518 464.319 L16.4842 454.356 L16.4842 447.831 L64.0042 459.767 L64.0042 467.852 L22.7544 477.878 L64.0042 487.999 L64.0042 496.084 L16.4842 507.987 Z" fill="#000000" fill-rule="nonzero" fill-opacity="1" /><path clip-path="url(#clip200)" d="M14.5426 440.479 L14.5426 435.387 Q22.0542 430.612 29.2474 428.257 Q36.4406 425.87 43.5384 425.87 Q50.668 425.87 57.8931 428.257 Q65.1182 430.612 72.5979 435.387 L72.5979 440.479 Q65.3091 436.246 58.1159 434.177 Q50.8908 432.076 43.5384 432.076 Q36.186 432.076 29.0246 434.177 Q21.8632 436.246 14.5426 440.479 Z" fill="#000000" fill-rule="nonzero" fill-opacity="1" /><path clip-path="url(#clip200)" d="M556.601 17.6457 Q547.689 17.6457 542.423 24.2892 Q537.198 30.9327 537.198 42.3968 Q537.198 53.8203 542.423 60.4638 Q547.689 67.1073 556.601 67.1073 Q565.513 67.1073 570.699 60.4638 Q575.924 53.8203 575.924 42.3968 Q575.924 30.9327 570.699 24.2892 Q565.513 17.6457 556.601 17.6457 M556.601 11.0023 Q569.321 11.0023 576.937 19.5497 Q584.553 28.0566 584.553 42.3968 Q584.553 56.6965 576.937 65.2439 Q569.321 73.7508 556.601 73.7508 Q543.841 73.7508 536.185 65.2439 Q528.569 56.737 528.569 42.3968 Q528.569 28.0566 536.185 19.5497 Q543.841 11.0023 556.601 11.0023 Z" fill="#000000" fill-rule="nonzero" fill-opacity="1" /><path clip-path="url(#clip200)" d="M604.24 65.7705 L604.24 89.8329 L596.746 89.8329 L596.746 27.2059 L604.24 27.2059 L604.24 34.0924 Q606.59 30.0415 610.154 28.0971 Q613.76 26.1121 618.742 26.1121 Q627.006 26.1121 632.151 32.6746 Q637.336 39.2371 637.336 49.9314 Q637.336 60.6258 632.151 67.1883 Q627.006 73.7508 618.742 73.7508 Q613.76 73.7508 610.154 71.8063 Q606.59 69.8214 604.24 65.7705 M629.599 49.9314 Q629.599 41.7081 626.196 37.0496 Q622.834 32.3505 616.919 32.3505 Q611.005 32.3505 607.602 37.0496 Q604.24 41.7081 604.24 49.9314 Q604.24 58.1548 607.602 62.8538 Q611.005 67.5124 616.919 67.5124 Q622.834 67.5124 626.196 62.8538 Q629.599 58.1548 629.599 49.9314 Z" fill="#000000" fill-rule="nonzero" fill-opacity="1" /><path clip-path="url(#clip200)" d="M657.064 14.324 L657.064 27.2059 L672.417 27.2059 L672.417 32.9987 L657.064 32.9987 L657.064 57.6282 Q657.064 63.1779 658.563 64.7578 Q660.102 66.3376 664.761 66.3376 L672.417 66.3376 L672.417 72.576 L664.761 72.576 Q656.132 72.576 652.851 69.3758 Q649.57 66.1351 649.57 57.6282 L649.57 32.9987 L644.101 32.9987 L644.101 27.2059 L649.57 27.2059 L649.57 14.324 L657.064 14.324 Z" fill="#000000" fill-rule="nonzero" fill-opacity="1" /><path clip-path="url(#clip200)" d="M682.22 27.2059 L689.674 27.2059 L689.674 72.576 L682.22 72.576 L682.22 27.2059 M682.22 9.54393 L689.674 9.54393 L689.674 18.9825 L682.22 18.9825 L682.22 9.54393 Z" fill="#000000" fill-rule="nonzero" fill-opacity="1" /><path clip-path="url(#clip200)" d="M740.594 35.9153 Q743.389 30.8922 747.278 28.5022 Q751.166 26.1121 756.433 26.1121 Q763.522 26.1121 767.37 31.0947 Q771.218 36.0368 771.218 45.1919 L771.218 72.576 L763.724 72.576 L763.724 45.4349 Q763.724 38.913 761.415 35.7533 Q759.106 32.5936 754.367 32.5936 Q748.574 32.5936 745.212 36.4419 Q741.849 40.2903 741.849 46.9338 L741.849 72.576 L734.355 72.576 L734.355 45.4349 Q734.355 38.8725 732.046 35.7533 Q729.737 32.5936 724.917 32.5936 Q719.205 32.5936 715.842 36.4824 Q712.48 40.3308 712.48 46.9338 L712.48 72.576 L704.986 72.576 L704.986 27.2059 L712.48 27.2059 L712.48 34.2544 Q715.032 30.082 718.597 28.0971 Q722.162 26.1121 727.064 26.1121 Q732.006 26.1121 735.449 28.6237 Q738.933 31.1352 740.594 35.9153 Z" fill="#000000" fill-rule="nonzero" fill-opacity="1" /><path clip-path="url(#clip200)" d="M806.704 49.7694 Q797.671 49.7694 794.187 51.8354 Q790.703 53.9013 790.703 58.8839 Q790.703 62.8538 793.296 65.2034 Q795.929 67.5124 800.425 67.5124 Q806.623 67.5124 810.35 63.1374 Q814.117 58.7219 814.117 51.4303 L814.117 49.7694 L806.704 49.7694 M821.571 46.6907 L821.571 72.576 L814.117 72.576 L814.117 65.6895 Q811.565 69.8214 807.758 71.8063 Q803.95 73.7508 798.44 73.7508 Q791.473 73.7508 787.341 69.8619 Q783.25 65.9325 783.25 59.3701 Q783.25 51.7138 788.354 47.825 Q793.498 43.9361 803.666 43.9361 L814.117 43.9361 L814.117 43.2069 Q814.117 38.0623 810.715 35.2672 Q807.352 32.4315 801.236 32.4315 Q797.347 32.4315 793.66 33.3632 Q789.974 34.295 786.571 36.1584 L786.571 29.2718 Q790.663 27.692 794.511 26.9223 Q798.359 26.1121 802.005 26.1121 Q811.849 26.1121 816.71 31.2163 Q821.571 36.3204 821.571 46.6907 Z" fill="#000000" fill-rule="nonzero" fill-opacity="1" /><path clip-path="url(#clip200)" d="M836.924 9.54393 L844.378 9.54393 L844.378 72.576 L836.924 72.576 L836.924 9.54393 Z" fill="#000000" fill-rule="nonzero" fill-opacity="1" /><path clip-path="url(#clip200)" d="M894.852 18.8205 L894.852 41.5461 L905.141 41.5461 Q910.853 41.5461 913.972 38.5889 Q917.091 35.6318 917.091 30.163 Q917.091 24.7348 913.972 21.7777 Q910.853 18.8205 905.141 18.8205 L894.852 18.8205 M886.669 12.096 L905.141 12.096 Q915.309 12.096 920.494 16.714 Q925.72 21.2916 925.72 30.163 Q925.72 39.1155 920.494 43.6931 Q915.309 48.2706 905.141 48.2706 L894.852 48.2706 L894.852 72.576 L886.669 72.576 L886.669 12.096 Z" fill="#000000" fill-rule="nonzero" fill-opacity="1" /><path clip-path="url(#clip200)" d="M950.997 32.4315 Q945.002 32.4315 941.518 37.1306 Q938.035 41.7891 938.035 49.9314 Q938.035 58.0738 941.478 62.7728 Q944.962 67.4314 950.997 67.4314 Q956.952 67.4314 960.436 62.7323 Q963.92 58.0333 963.92 49.9314 Q963.92 41.8701 960.436 37.1711 Q956.952 32.4315 950.997 32.4315 M950.997 26.1121 Q960.72 26.1121 966.269 32.4315 Q971.819 38.7509 971.819 49.9314 Q971.819 61.0714 966.269 67.4314 Q960.72 73.7508 950.997 73.7508 Q941.235 73.7508 935.685 67.4314 Q930.176 61.0714 930.176 49.9314 Q930.176 38.7509 935.685 32.4315 Q941.235 26.1121 950.997 26.1121 Z" fill="#000000" fill-rule="nonzero" fill-opacity="1" /><path clip-path="url(#clip200)" d="M979.84 27.2059 L987.294 27.2059 L996.611 62.6108 L1005.89 27.2059 L1014.68 27.2059 L1023.99 62.6108 L1033.27 27.2059 L1040.73 27.2059 L1028.86 72.576 L1020.07 72.576 L1010.3 35.3887 L1000.5 72.576 L991.709 72.576 L979.84 27.2059 Z" fill="#000000" fill-rule="nonzero" fill-opacity="1" /><path clip-path="url(#clip200)" d="M1090.83 48.0275 L1090.83 51.6733 L1056.56 51.6733 Q1057.05 59.3701 1061.18 63.421 Q1065.35 67.4314 1072.77 67.4314 Q1077.06 67.4314 1081.07 66.3781 Q1085.12 65.3249 1089.09 63.2184 L1089.09 70.267 Q1085.08 71.9684 1080.87 72.8596 Q1076.66 73.7508 1072.32 73.7508 Q1061.47 73.7508 1055.11 67.4314 Q1048.79 61.1119 1048.79 50.3365 Q1048.79 39.1965 1054.78 32.6746 Q1060.82 26.1121 1071.03 26.1121 Q1080.18 26.1121 1085.49 32.0264 Q1090.83 37.9003 1090.83 48.0275 M1083.38 45.84 Q1083.3 39.7232 1079.94 36.0774 Q1076.62 32.4315 1071.11 32.4315 Q1064.87 32.4315 1061.1 35.9558 Q1057.37 39.4801 1056.81 45.8805 L1083.38 45.84 Z" fill="#000000" fill-rule="nonzero" fill-opacity="1" /><path clip-path="url(#clip200)" d="M1129.36 34.1734 Q1128.1 33.4443 1126.6 33.1202 Q1125.15 32.7556 1123.36 32.7556 Q1117.04 32.7556 1113.64 36.8875 Q1110.28 40.9789 1110.28 48.6757 L1110.28 72.576 L1102.78 72.576 L1102.78 27.2059 L1110.28 27.2059 L1110.28 34.2544 Q1112.63 30.1225 1116.4 28.1376 Q1120.16 26.1121 1125.55 26.1121 Q1126.32 26.1121 1127.25 26.2337 Q1128.18 26.3147 1129.32 26.5172 L1129.36 34.1734 Z" fill="#000000" fill-rule="nonzero" fill-opacity="1" /><path clip-path="url(#clip200)" d="M1209.16 16.7545 L1209.16 25.383 Q1205.03 21.5346 1200.33 19.6307 Q1195.67 17.7268 1190.41 17.7268 Q1180.04 17.7268 1174.53 24.0867 Q1169.02 30.4061 1169.02 42.3968 Q1169.02 54.3469 1174.53 60.7069 Q1180.04 67.0263 1190.41 67.0263 Q1195.67 67.0263 1200.33 65.1223 Q1205.03 63.2184 1209.16 59.3701 L1209.16 67.9175 Q1204.87 70.8341 1200.05 72.2924 Q1195.27 73.7508 1189.92 73.7508 Q1176.19 73.7508 1168.29 65.3654 Q1160.39 56.9395 1160.39 42.3968 Q1160.39 27.8135 1168.29 19.4281 Q1176.19 11.0023 1189.92 11.0023 Q1195.35 11.0023 1200.13 12.4606 Q1204.95 13.8784 1209.16 16.7545 Z" fill="#000000" fill-rule="nonzero" fill-opacity="1" /><path clip-path="url(#clip200)" d="M1220.71 54.671 L1220.71 27.2059 L1228.16 27.2059 L1228.16 54.3874 Q1228.16 60.8284 1230.67 64.0691 Q1233.18 67.2693 1238.21 67.2693 Q1244.24 67.2693 1247.73 63.421 Q1251.25 59.5726 1251.25 52.9291 L1251.25 27.2059 L1258.7 27.2059 L1258.7 72.576 L1251.25 72.576 L1251.25 65.6084 Q1248.54 69.7404 1244.93 71.7658 Q1241.37 73.7508 1236.63 73.7508 Q1228.81 73.7508 1224.76 68.8897 Q1220.71 64.0286 1220.71 54.671 M1239.46 26.1121 L1239.46 26.1121 Z" fill="#000000" fill-rule="nonzero" fill-opacity="1" /><path clip-path="url(#clip200)" d="M1300.35 34.1734 Q1299.09 33.4443 1297.59 33.1202 Q1296.13 32.7556 1294.35 32.7556 Q1288.03 32.7556 1284.63 36.8875 Q1281.27 40.9789 1281.27 48.6757 L1281.27 72.576 L1273.77 72.576 L1273.77 27.2059 L1281.27 27.2059 L1281.27 34.2544 Q1283.62 30.1225 1287.38 28.1376 Q1291.15 26.1121 1296.54 26.1121 Q1297.31 26.1121 1298.24 26.2337 Q1299.17 26.3147 1300.31 26.5172 L1300.35 34.1734 Z" fill="#000000" fill-rule="nonzero" fill-opacity="1" /><path clip-path="url(#clip200)" d="M1315.54 14.324 L1315.54 27.2059 L1330.89 27.2059 L1330.89 32.9987 L1315.54 32.9987 L1315.54 57.6282 Q1315.54 63.1779 1317.04 64.7578 Q1318.58 66.3376 1323.24 66.3376 L1330.89 66.3376 L1330.89 72.576 L1323.24 72.576 Q1314.61 72.576 1311.33 69.3758 Q1308.04 66.1351 1308.04 57.6282 L1308.04 32.9987 L1302.58 32.9987 L1302.58 27.2059 L1308.04 27.2059 L1308.04 14.324 L1315.54 14.324 Z" fill="#000000" fill-rule="nonzero" fill-opacity="1" /><path clip-path="url(#clip200)" d="M1361.31 49.7694 Q1352.28 49.7694 1348.8 51.8354 Q1345.31 53.9013 1345.31 58.8839 Q1345.31 62.8538 1347.91 65.2034 Q1350.54 67.5124 1355.03 67.5124 Q1361.23 67.5124 1364.96 63.1374 Q1368.73 58.7219 1368.73 51.4303 L1368.73 49.7694 L1361.31 49.7694 M1376.18 46.6907 L1376.18 72.576 L1368.73 72.576 L1368.73 65.6895 Q1366.17 69.8214 1362.37 71.8063 Q1358.56 73.7508 1353.05 73.7508 Q1346.08 73.7508 1341.95 69.8619 Q1337.86 65.9325 1337.86 59.3701 Q1337.86 51.7138 1342.96 47.825 Q1348.11 43.9361 1358.28 43.9361 L1368.73 43.9361 L1368.73 43.2069 Q1368.73 38.0623 1365.32 35.2672 Q1361.96 32.4315 1355.84 32.4315 Q1351.96 32.4315 1348.27 33.3632 Q1344.58 34.295 1341.18 36.1584 L1341.18 29.2718 Q1345.27 27.692 1349.12 26.9223 Q1352.97 26.1121 1356.61 26.1121 Q1366.46 26.1121 1371.32 31.2163 Q1376.18 36.3204 1376.18 46.6907 Z" fill="#000000" fill-rule="nonzero" fill-opacity="1" /><path clip-path="url(#clip200)" d="M1391.53 27.2059 L1398.99 27.2059 L1398.99 72.576 L1391.53 72.576 L1391.53 27.2059 M1391.53 9.54393 L1398.99 9.54393 L1398.99 18.9825 L1391.53 18.9825 L1391.53 9.54393 Z" fill="#000000" fill-rule="nonzero" fill-opacity="1" /><path clip-path="url(#clip200)" d="M1414.58 9.54393 L1422.04 9.54393 L1422.04 72.576 L1414.58 72.576 L1414.58 9.54393 Z" fill="#000000" fill-rule="nonzero" fill-opacity="1" /><path clip-path="url(#clip200)" d="M1476.44 48.0275 L1476.44 51.6733 L1442.17 51.6733 Q1442.66 59.3701 1446.79 63.421 Q1450.96 67.4314 1458.37 67.4314 Q1462.67 67.4314 1466.68 66.3781 Q1470.73 65.3249 1474.7 63.2184 L1474.7 70.267 Q1470.69 71.9684 1466.48 72.8596 Q1462.26 73.7508 1457.93 73.7508 Q1447.07 73.7508 1440.71 67.4314 Q1434.39 61.1119 1434.39 50.3365 Q1434.39 39.1965 1440.39 32.6746 Q1446.42 26.1121 1456.63 26.1121 Q1465.79 26.1121 1471.09 32.0264 Q1476.44 37.9003 1476.44 48.0275 M1468.99 45.84 Q1468.91 39.7232 1465.54 36.0774 Q1462.22 32.4315 1456.71 32.4315 Q1450.47 32.4315 1446.71 35.9558 Q1442.98 39.4801 1442.41 45.8805 L1468.99 45.84 Z" fill="#000000" fill-rule="nonzero" fill-opacity="1" /><path clip-path="url(#clip200)" d="M1518.53 34.0924 L1518.53 9.54393 L1525.98 9.54393 L1525.98 72.576 L1518.53 72.576 L1518.53 65.7705 Q1516.18 69.8214 1512.57 71.8063 Q1509.01 73.7508 1503.99 73.7508 Q1495.76 73.7508 1490.58 67.1883 Q1485.43 60.6258 1485.43 49.9314 Q1485.43 39.2371 1490.58 32.6746 Q1495.76 26.1121 1503.99 26.1121 Q1509.01 26.1121 1512.57 28.0971 Q1516.18 30.0415 1518.53 34.0924 M1493.13 49.9314 Q1493.13 58.1548 1496.49 62.8538 Q1499.9 67.5124 1505.81 67.5124 Q1511.72 67.5124 1515.13 62.8538 Q1518.53 58.1548 1518.53 49.9314 Q1518.53 41.7081 1515.13 37.0496 Q1511.72 32.3505 1505.81 32.3505 Q1499.9 32.3505 1496.49 37.0496 Q1493.13 41.7081 1493.13 49.9314 Z" fill="#000000" fill-rule="nonzero" fill-opacity="1" /><path clip-path="url(#clip200)" d="M1585.61 9.62495 Q1580.18 18.942 1577.55 28.0566 Q1574.92 37.1711 1574.92 46.5287 Q1574.92 55.8863 1577.55 65.0818 Q1580.22 74.2369 1585.61 83.5134 L1579.13 83.5134 Q1573.05 73.9938 1570.02 64.7983 Q1567.02 55.6027 1567.02 46.5287 Q1567.02 37.4952 1570.02 28.3401 Q1573.01 19.1851 1579.13 9.62495 L1585.61 9.62495 Z" fill="#000000" fill-rule="nonzero" fill-opacity="1" /><path clip-path="url(#clip200)" d="M1636.65 14.0809 L1636.65 22.0612 Q1631.99 19.8332 1627.86 18.7395 Q1623.73 17.6457 1619.88 17.6457 Q1613.2 17.6457 1609.55 20.2383 Q1605.95 22.8309 1605.95 27.611 Q1605.95 31.6214 1608.34 33.6873 Q1610.77 35.7128 1617.49 36.9686 L1622.43 37.9813 Q1631.59 39.7232 1635.92 44.1387 Q1640.3 48.5136 1640.3 55.8863 Q1640.3 64.6767 1634.39 69.2137 Q1628.51 73.7508 1617.13 73.7508 Q1612.83 73.7508 1607.97 72.7785 Q1603.15 71.8063 1597.97 69.9024 L1597.97 61.4765 Q1602.95 64.2716 1607.73 65.6895 Q1612.51 67.1073 1617.13 67.1073 Q1624.14 67.1073 1627.94 64.3527 Q1631.75 61.598 1631.75 56.4939 Q1631.75 52.0379 1629 49.5264 Q1626.28 47.0148 1620.04 45.759 L1615.06 44.7868 Q1605.91 42.9639 1601.82 39.075 Q1597.72 35.1862 1597.72 28.2591 Q1597.72 20.2383 1603.36 15.6203 Q1609.03 11.0023 1618.95 11.0023 Q1623.2 11.0023 1627.62 11.7719 Q1632.04 12.5416 1636.65 14.0809 Z" fill="#000000" fill-rule="nonzero" fill-opacity="1" /><path clip-path="url(#clip200)" d="M1685.39 28.9478 L1685.39 35.9153 Q1682.23 34.1734 1679.03 33.3227 Q1675.87 32.4315 1672.63 32.4315 Q1665.37 32.4315 1661.36 37.0496 Q1657.35 41.6271 1657.35 49.9314 Q1657.35 58.2358 1661.36 62.8538 Q1665.37 67.4314 1672.63 67.4314 Q1675.87 67.4314 1679.03 66.5807 Q1682.23 65.6895 1685.39 63.9476 L1685.39 70.8341 Q1682.27 72.2924 1678.9 73.0216 Q1675.58 73.7508 1671.82 73.7508 Q1661.57 73.7508 1655.53 67.3098 Q1649.49 60.8689 1649.49 49.9314 Q1649.49 38.832 1655.57 32.472 Q1661.69 26.1121 1672.3 26.1121 Q1675.74 26.1121 1679.03 26.8413 Q1682.31 27.5299 1685.39 28.9478 Z" fill="#000000" fill-rule="nonzero" fill-opacity="1" /><path clip-path="url(#clip200)" d="M1698.35 27.2059 L1705.8 27.2059 L1705.8 72.576 L1698.35 72.576 L1698.35 27.2059 M1698.35 9.54393 L1705.8 9.54393 L1705.8 18.9825 L1698.35 18.9825 L1698.35 9.54393 Z" fill="#000000" fill-rule="nonzero" fill-opacity="1" /><path clip-path="url(#clip200)" d="M1759.11 45.1919 L1759.11 72.576 L1751.66 72.576 L1751.66 45.4349 Q1751.66 38.994 1749.15 35.7938 Q1746.64 32.5936 1741.61 32.5936 Q1735.58 32.5936 1732.09 36.4419 Q1728.61 40.2903 1728.61 46.9338 L1728.61 72.576 L1721.11 72.576 L1721.11 27.2059 L1728.61 27.2059 L1728.61 34.2544 Q1731.28 30.163 1734.89 28.1376 Q1738.53 26.1121 1743.27 26.1121 Q1751.09 26.1121 1755.1 30.9732 Q1759.11 35.7938 1759.11 45.1919 Z" fill="#000000" fill-rule="nonzero" fill-opacity="1" /><path clip-path="url(#clip200)" d="M1794.6 49.7694 Q1785.56 49.7694 1782.08 51.8354 Q1778.6 53.9013 1778.6 58.8839 Q1778.6 62.8538 1781.19 65.2034 Q1783.82 67.5124 1788.32 67.5124 Q1794.52 67.5124 1798.24 63.1374 Q1802.01 58.7219 1802.01 51.4303 L1802.01 49.7694 L1794.6 49.7694 M1809.47 46.6907 L1809.47 72.576 L1802.01 72.576 L1802.01 65.6895 Q1799.46 69.8214 1795.65 71.8063 Q1791.84 73.7508 1786.33 73.7508 Q1779.37 73.7508 1775.23 69.8619 Q1771.14 65.9325 1771.14 59.3701 Q1771.14 51.7138 1776.25 47.825 Q1781.39 43.9361 1791.56 43.9361 L1802.01 43.9361 L1802.01 43.2069 Q1802.01 38.0623 1798.61 35.2672 Q1795.25 32.4315 1789.13 32.4315 Q1785.24 32.4315 1781.55 33.3632 Q1777.87 34.295 1774.47 36.1584 L1774.47 29.2718 Q1778.56 27.692 1782.41 26.9223 Q1786.25 26.1121 1789.9 26.1121 Q1799.74 26.1121 1804.6 31.2163 Q1809.47 36.3204 1809.47 46.6907 Z" fill="#000000" fill-rule="nonzero" fill-opacity="1" /><path clip-path="url(#clip200)" d="M1851.11 34.1734 Q1849.85 33.4443 1848.35 33.1202 Q1846.9 32.7556 1845.11 32.7556 Q1838.79 32.7556 1835.39 36.8875 Q1832.03 40.9789 1832.03 48.6757 L1832.03 72.576 L1824.53 72.576 L1824.53 27.2059 L1832.03 27.2059 L1832.03 34.2544 Q1834.38 30.1225 1838.15 28.1376 Q1841.91 26.1121 1847.3 26.1121 Q1848.07 26.1121 1849 26.2337 Q1849.93 26.3147 1851.07 26.5172 L1851.11 34.1734 Z" fill="#000000" fill-rule="nonzero" fill-opacity="1" /><path clip-path="url(#clip200)" d="M1858.93 27.2059 L1866.38 27.2059 L1866.38 72.576 L1858.93 72.576 L1858.93 27.2059 M1858.93 9.54393 L1866.38 9.54393 L1866.38 18.9825 L1858.93 18.9825 L1858.93 9.54393 Z" fill="#000000" fill-rule="nonzero" fill-opacity="1" /><path clip-path="url(#clip200)" d="M1899.56 32.4315 Q1893.56 32.4315 1890.08 37.1306 Q1886.59 41.7891 1886.59 49.9314 Q1886.59 58.0738 1890.04 62.7728 Q1893.52 67.4314 1899.56 67.4314 Q1905.51 67.4314 1909 62.7323 Q1912.48 58.0333 1912.48 49.9314 Q1912.48 41.8701 1909 37.1711 Q1905.51 32.4315 1899.56 32.4315 M1899.56 26.1121 Q1909.28 26.1121 1914.83 32.4315 Q1920.38 38.7509 1920.38 49.9314 Q1920.38 61.0714 1914.83 67.4314 Q1909.28 73.7508 1899.56 73.7508 Q1889.79 73.7508 1884.24 67.4314 Q1878.74 61.0714 1878.74 49.9314 Q1878.74 38.7509 1884.24 32.4315 Q1889.79 26.1121 1899.56 26.1121 Z" fill="#000000" fill-rule="nonzero" fill-opacity="1" /><path clip-path="url(#clip200)" d="M1967.21 65.6895 L1995.77 65.6895 L1995.77 72.576 L1957.36 72.576 L1957.36 65.6895 Q1962.02 60.8689 1970.04 52.7671 Q1978.1 44.6248 1980.17 42.2752 Q1984.1 37.8598 1985.64 34.8216 Q1987.22 31.7429 1987.22 28.7857 Q1987.22 23.9651 1983.82 20.927 Q1980.45 17.8888 1975.03 17.8888 Q1971.18 17.8888 1966.88 19.2256 Q1962.63 20.5624 1957.77 23.2765 L1957.77 15.0127 Q1962.71 13.0277 1967 12.015 Q1971.3 11.0023 1974.86 11.0023 Q1984.26 11.0023 1989.85 15.7013 Q1995.44 20.4004 1995.44 28.2591 Q1995.44 31.9859 1994.02 35.3482 Q1992.65 38.6699 1988.96 43.2069 Q1987.95 44.3817 1982.52 50.0125 Q1977.09 55.6027 1967.21 65.6895 Z" fill="#000000" fill-rule="nonzero" fill-opacity="1" /><path clip-path="url(#clip200)" d="M2010.71 9.62495 L2017.2 9.62495 Q2023.27 19.1851 2026.27 28.3401 Q2029.31 37.4952 2029.31 46.5287 Q2029.31 55.6027 2026.27 64.7983 Q2023.27 73.9938 2017.2 83.5134 L2010.71 83.5134 Q2016.1 74.2369 2018.73 65.0818 Q2021.41 55.8863 2021.41 46.5287 Q2021.41 37.1711 2018.73 28.0566 Q2016.1 18.942 2010.71 9.62495 Z" fill="#000000" fill-rule="nonzero" fill-opacity="1" /><polyline clip-path="url(#clip202)" style="stroke:#009af9; stroke-linecap:round; stroke-linejoin:round; stroke-width:4; stroke-opacity:1; fill:none" points="265.903,1172.64 265.903,1173.84 353.993,1173.84 353.993,1238.52 442.083,1238.52 442.083,1293.1 530.173,1293.1 530.173,1250.44 618.263,1250.44 618.263,1156.38 706.353,1156.38 706.353,1016.07 794.443,1016.07 794.443,1142.33 882.533,1142.33 882.533,1121.04 970.623,1121.04 970.623,1127.24 1058.71,1127.24 1058.71,1100.77 1146.8,1100.77 1146.8,1386.4 1234.89,1386.4 1234.89,1249.02 1322.98,1249.02 1322.98,1142.23 1411.07,1142.23 1411.07,1386.4 1499.16,1386.4 1499.16,1180.61 1587.25,1180.61 1587.25,1206.1 1675.34,1206.1 1675.34,1245.5 1763.43,1245.5 1763.43,1129.55 1851.52,1129.55 1851.52,1115.9 1939.61,1115.9 1939.61,923.213 2027.7,923.213 2027.7,974.916 2115.79,974.916 2115.79,1004.01 2203.88,1004.01 2203.88,1130.29 2291.97,1130.29 "/>
<polyline clip-path="url(#clip202)" style="stroke:#e26f46; stroke-linecap:round; stroke-linejoin:round; stroke-width:4; stroke-opacity:1; fill:none" points="265.903,1264.25 265.903,1182 353.993,1182 353.993,1222.81 442.083,1222.81 442.083,1284.79 530.173,1284.79 530.173,1241.82 618.263,1241.82 618.263,1105.59 706.353,1105.59 706.353,893.263 794.443,893.263 794.443,1057.51 882.533,1057.51 882.533,1029.97 970.623,1029.97 970.623,1041.12 1058.71,1041.12 1058.71,988.816 1146.8,988.816 1146.8,1386.4 1234.89,1386.4 1234.89,1226.48 1322.98,1226.48 1322.98,1059.69 1411.07,1059.69 1411.07,1386.4 1499.16,1386.4 1499.16,1122.68 1587.25,1122.68 1587.25,1160.21 1675.34,1160.21 1675.34,1221.38 1763.43,1221.38 1763.43,1039.44 1851.52,1039.44 1851.52,1015.93 1939.61,1015.93 1939.61,733.494 2027.7,733.494 2027.7,805.971 2115.79,805.971 2115.79,850.082 2203.88,850.082 2203.88,1041.57 2291.97,1041.57 "/>
<polyline clip-path="url(#clip202)" style="stroke:#3da44d; stroke-linecap:round; stroke-linejoin:round; stroke-width:4; stroke-opacity:1; fill:none" points="265.903,1203.18 265.903,1121.07 353.993,1121.07 353.993,1182.49 442.083,1182.49 442.083,1272.92 530.173,1272.92 530.173,1187.52 618.263,1187.52 618.263,999.358 706.353,999.358 706.353,715.035 794.443,715.035 794.443,954.953 882.533,954.953 882.533,903.861 970.623,903.861 970.623,906.933 1058.71,906.933 1058.71,845.272 1146.8,845.272 1146.8,1386.4 1234.89,1386.4 1234.89,1186.56 1322.98,1186.56 1322.98,943.976 1411.07,943.976 1411.07,1386.4 1499.16,1386.4 1499.16,1030.74 1587.25,1030.74 1587.25,1087.38 1675.34,1087.38 1675.34,1175.62 1763.43,1175.62 1763.43,914.34 1851.52,914.34 1851.52,885.605 1939.61,885.605 1939.61,495.697 2027.7,495.697 2027.7,593.674 2115.79,593.674 2115.79,651.816 2203.88,651.816 2203.88,916.921 2291.97,916.921 "/>
<polyline clip-path="url(#clip202)" style="stroke:#c271d2; stroke-linecap:round; stroke-linejoin:round; stroke-width:4; stroke-opacity:1; fill:none" points="265.903,1264.25 265.903,1082.59 353.993,1082.59 353.993,1141.31 442.083,1141.31 442.083,1255.2 530.173,1255.2 530.173,1147.25 618.263,1147.25 618.263,901.173 706.353,901.173 706.353,557.214 794.443,557.214 794.443,815.253 882.533,815.253 882.533,751.089 970.623,751.089 970.623,781.222 1058.71,781.222 1058.71,696.416 1146.8,696.416 1146.8,1386.4 1234.89,1386.4 1234.89,1130.67 1322.98,1130.67 1322.98,818.018 1411.07,818.018 1411.07,1386.4 1499.16,1386.4 1499.16,922.333 1587.25,922.333 1587.25,1002.38 1675.34,1002.38 1675.34,1120.13 1763.43,1120.13 1763.43,777.692 1851.52,777.692 1851.52,738.989 1939.61,738.989 1939.61,261.068 2027.7,261.068 2027.7,380.607 2115.79,380.607 2115.79,452.159 2203.88,452.159 2203.88,779.406 2291.97,779.406 "/>
<polyline clip-path="url(#clip202)" style="stroke:#ac8d18; stroke-linecap:round; stroke-linejoin:round; stroke-width:4; stroke-opacity:1; fill:none" points="265.903,1172.64 265.903,1030.39 353.993,1030.39 353.993,1099.85 442.083,1099.85 442.083,1236.75 530.173,1236.75 530.173,1105.22 618.263,1105.22 618.263,847.384 706.353,847.384 706.353,444.784 794.443,444.784 794.443,763.712 882.533,763.712 882.533,665.338 970.623,665.338 970.623,693.435 1058.71,693.435 1058.71,626.666 1146.8,626.666 1146.8,1386.4 1234.89,1386.4 1234.89,1090.01 1322.98,1090.01 1322.98,741.82 1411.07,741.82 1411.07,1386.4 1499.16,1386.4 1499.16,865.973 1587.25,865.973 1587.25,939.734 1675.34,939.734 1675.34,1078.29 1763.43,1078.29 1763.43,703.239 1851.52,703.239 1851.52,666.4 1939.61,666.4 1939.61,160.256 2027.7,160.256 2027.7,282.561 2115.79,282.561 2115.79,357.774 2203.88,357.774 2203.88,705.072 2291.97,705.072 "/>
<polyline clip-path="url(#clip202)" style="stroke:#00a9ad; stroke-linecap:round; stroke-linejoin:round; stroke-width:4; stroke-opacity:1; fill:none" points="265.903,1172.64 265.903,1028.99 353.993,1028.99 353.993,1053.53 442.083,1053.53 442.083,1164.53 530.173,1164.53 530.173,1059.08 618.263,1059.08 618.263,871.16 706.353,871.16 706.353,579.806 794.443,579.806 794.443,802.935 882.533,802.935 882.533,761.117 970.623,761.117 970.623,756.706 1058.71,756.706 1058.71,704.62 1146.8,704.62 1146.8,1386.4 1234.89,1386.4 1234.89,1036.42 1322.98,1036.42 1322.98,793.915 1411.07,793.915 1411.07,1386.4 1499.16,1386.4 1499.16,872.41 1587.25,872.41 1587.25,926.845 1675.34,926.845 1675.34,1024.19 1763.43,1024.19 1763.43,764.533 1851.52,764.533 1851.52,736.782 1939.61,736.782 1939.61,408.549 2027.7,408.549 2027.7,489.974 2115.79,489.974 2115.79,539.047 2203.88,539.047 2203.88,767.046 2291.97,767.046 "/>
<polyline clip-path="url(#clip202)" style="stroke:#ed5d92; stroke-linecap:round; stroke-linejoin:round; stroke-width:4; stroke-opacity:1; fill:none" points="265.903,1233.72 265.903,1034.52 353.993,1034.52 353.993,1040.36 442.083,1040.36 442.083,1199.01 530.173,1199.01 530.173,1087.43 618.263,1087.43 618.263,873.296 706.353,873.296 706.353,653.852 794.443,653.852 794.443,829.861 882.533,829.861 882.533,784.744 970.623,784.744 970.623,796.828 1058.71,796.828 1058.71,745.912 1146.8,745.912 1146.8,1386.4 1234.89,1386.4 1234.89,1054.59 1322.98,1054.59 1322.98,827.714 1411.07,827.714 1411.07,1386.4 1499.16,1386.4 1499.16,911.11 1587.25,911.11 1587.25,955.713 1675.34,955.713 1675.34,1046.85 1763.43,1046.85 1763.43,803.13 1851.52,803.13 1851.52,780.441 1939.61,780.441 1939.61,476.962 2027.7,476.962 2027.7,550.672 2115.79,550.672 2115.79,595.573 2203.88,595.573 2203.88,804.018 2291.97,804.018 "/>
<path clip-path="url(#clip200)" d="M276.709 581.516 L754.665 581.516 L754.665 166.796 L276.709 166.796  Z" fill="#ffffff" fill-rule="evenodd" fill-opacity="1"/>
<polyline clip-path="url(#clip200)" style="stroke:#000000; stroke-linecap:round; stroke-linejoin:round; stroke-width:4; stroke-opacity:1; fill:none" points="276.709,581.516 754.665,581.516 754.665,166.796 276.709,166.796 276.709,581.516 "/>
<polyline clip-path="url(#clip200)" style="stroke:#009af9; stroke-linecap:round; stroke-linejoin:round; stroke-width:4; stroke-opacity:1; fill:none" points="300.571,218.636 443.747,218.636 "/>
<path clip-path="url(#clip200)" d="M488.119 210.985 L488.119 214.967 Q486.313 213.971 484.485 213.485 Q482.679 212.976 480.827 212.976 Q476.684 212.976 474.392 215.615 Q472.1 218.231 472.1 222.976 Q472.1 227.721 474.392 230.36 Q476.684 232.976 480.827 232.976 Q482.679 232.976 484.485 232.49 Q486.313 231.981 488.119 230.985 L488.119 234.92 Q486.336 235.754 484.415 236.17 Q482.517 236.587 480.364 236.587 Q474.508 236.587 471.059 232.906 Q467.61 229.226 467.61 222.976 Q467.61 216.633 471.082 212.999 Q474.577 209.365 480.642 209.365 Q482.61 209.365 484.485 209.782 Q486.36 210.175 488.119 210.985 Z" fill="#000000" fill-rule="nonzero" fill-opacity="1" /><path clip-path="url(#clip200)" d="M495.086 225.684 L495.086 209.99 L499.346 209.99 L499.346 225.522 Q499.346 229.203 500.781 231.055 Q502.216 232.883 505.086 232.883 Q508.535 232.883 510.526 230.684 Q512.54 228.485 512.54 224.689 L512.54 209.99 L516.799 209.99 L516.799 235.916 L512.54 235.916 L512.54 231.934 Q510.989 234.295 508.929 235.453 Q506.892 236.587 504.184 236.587 Q499.716 236.587 497.401 233.809 Q495.086 231.031 495.086 225.684 M505.804 209.365 L505.804 209.365 Z" fill="#000000" fill-rule="nonzero" fill-opacity="1" /><path clip-path="url(#clip200)" d="M542.1 210.754 L542.1 214.782 Q540.294 213.856 538.35 213.393 Q536.406 212.93 534.322 212.93 Q531.151 212.93 529.554 213.902 Q527.98 214.874 527.98 216.819 Q527.98 218.3 529.114 219.157 Q530.248 219.99 533.674 220.754 L535.132 221.078 Q539.669 222.05 541.568 223.832 Q543.489 225.592 543.489 228.763 Q543.489 232.374 540.619 234.481 Q537.771 236.587 532.771 236.587 Q530.688 236.587 528.42 236.17 Q526.174 235.777 523.674 234.967 L523.674 230.569 Q526.035 231.795 528.327 232.42 Q530.619 233.022 532.864 233.022 Q535.873 233.022 537.494 232.004 Q539.114 230.962 539.114 229.087 Q539.114 227.351 537.933 226.425 Q536.776 225.499 532.818 224.643 L531.336 224.295 Q527.378 223.462 525.619 221.749 Q523.859 220.013 523.859 217.004 Q523.859 213.346 526.452 211.356 Q529.045 209.365 533.813 209.365 Q536.174 209.365 538.257 209.712 Q540.341 210.059 542.1 210.754 Z" fill="#000000" fill-rule="nonzero" fill-opacity="1" /><path clip-path="url(#clip200)" d="M554.484 202.629 L554.484 209.99 L563.257 209.99 L563.257 213.3 L554.484 213.3 L554.484 227.374 Q554.484 230.545 555.341 231.448 Q556.22 232.351 558.882 232.351 L563.257 232.351 L563.257 235.916 L558.882 235.916 Q553.952 235.916 552.077 234.087 Q550.202 232.235 550.202 227.374 L550.202 213.3 L547.077 213.3 L547.077 209.99 L550.202 209.99 L550.202 202.629 L554.484 202.629 Z" fill="#000000" fill-rule="nonzero" fill-opacity="1" /><path clip-path="url(#clip200)" d="M578.905 212.976 Q575.479 212.976 573.489 215.661 Q571.498 218.323 571.498 222.976 Q571.498 227.629 573.466 230.314 Q575.456 232.976 578.905 232.976 Q582.308 232.976 584.299 230.291 Q586.29 227.606 586.29 222.976 Q586.29 218.37 584.299 215.684 Q582.308 212.976 578.905 212.976 M578.905 209.365 Q584.461 209.365 587.632 212.976 Q590.803 216.587 590.803 222.976 Q590.803 229.342 587.632 232.976 Q584.461 236.587 578.905 236.587 Q573.327 236.587 570.155 232.976 Q567.007 229.342 567.007 222.976 Q567.007 216.587 570.155 212.976 Q573.327 209.365 578.905 209.365 Z" fill="#000000" fill-rule="nonzero" fill-opacity="1" /><path clip-path="url(#clip200)" d="M618.049 214.967 Q619.646 212.096 621.868 210.731 Q624.09 209.365 627.1 209.365 Q631.15 209.365 633.35 212.212 Q635.549 215.036 635.549 220.268 L635.549 235.916 L631.266 235.916 L631.266 220.407 Q631.266 216.68 629.947 214.874 Q628.627 213.069 625.919 213.069 Q622.609 213.069 620.688 215.268 Q618.766 217.467 618.766 221.263 L618.766 235.916 L614.484 235.916 L614.484 220.407 Q614.484 216.657 613.164 214.874 Q611.845 213.069 609.09 213.069 Q605.827 213.069 603.905 215.291 Q601.984 217.49 601.984 221.263 L601.984 235.916 L597.702 235.916 L597.702 209.99 L601.984 209.99 L601.984 214.018 Q603.442 211.633 605.479 210.499 Q607.516 209.365 610.317 209.365 Q613.141 209.365 615.109 210.8 Q617.1 212.235 618.049 214.967 Z" fill="#000000" fill-rule="nonzero" fill-opacity="1" /><path clip-path="url(#clip200)" d="M666.22 221.888 L666.22 223.971 L646.637 223.971 Q646.914 228.369 649.275 230.684 Q651.66 232.976 655.896 232.976 Q658.349 232.976 660.641 232.374 Q662.956 231.772 665.224 230.569 L665.224 234.596 Q662.933 235.568 660.525 236.078 Q658.118 236.587 655.641 236.587 Q649.437 236.587 645.803 232.976 Q642.192 229.365 642.192 223.207 Q642.192 216.842 645.618 213.115 Q649.067 209.365 654.9 209.365 Q660.132 209.365 663.164 212.745 Q666.22 216.101 666.22 221.888 M661.96 220.638 Q661.914 217.143 659.993 215.059 Q658.095 212.976 654.947 212.976 Q651.382 212.976 649.229 214.99 Q647.099 217.004 646.775 220.661 L661.96 220.638 Z" fill="#000000" fill-rule="nonzero" fill-opacity="1" /><path clip-path="url(#clip200)" d="M688.234 213.971 Q687.516 213.555 686.659 213.37 Q685.826 213.161 684.808 213.161 Q681.197 213.161 679.252 215.522 Q677.331 217.86 677.331 222.258 L677.331 235.916 L673.048 235.916 L673.048 209.99 L677.331 209.99 L677.331 214.018 Q678.673 211.657 680.826 210.522 Q682.979 209.365 686.058 209.365 Q686.497 209.365 687.03 209.434 Q687.562 209.481 688.21 209.596 L688.234 213.971 Z" fill="#000000" fill-rule="nonzero" fill-opacity="1" /><path clip-path="url(#clip200)" d="M709.182 231.981 L716.821 231.981 L716.821 205.615 L708.511 207.282 L708.511 203.022 L716.775 201.356 L721.451 201.356 L721.451 231.981 L729.09 231.981 L729.09 235.916 L709.182 235.916 L709.182 231.981 Z" fill="#000000" fill-rule="nonzero" fill-opacity="1" /><polyline clip-path="url(#clip200)" style="stroke:#e26f46; stroke-linecap:round; stroke-linejoin:round; stroke-width:4; stroke-opacity:1; fill:none" points="300.571,270.476 443.747,270.476 "/>
<path clip-path="url(#clip200)" d="M488.119 262.825 L488.119 266.807 Q486.313 265.811 484.485 265.325 Q482.679 264.816 480.827 264.816 Q476.684 264.816 474.392 267.455 Q472.1 270.071 472.1 274.816 Q472.1 279.561 474.392 282.2 Q476.684 284.816 480.827 284.816 Q482.679 284.816 484.485 284.33 Q486.313 283.821 488.119 282.825 L488.119 286.76 Q486.336 287.594 484.415 288.01 Q482.517 288.427 480.364 288.427 Q474.508 288.427 471.059 284.746 Q467.61 281.066 467.61 274.816 Q467.61 268.473 471.082 264.839 Q474.577 261.205 480.642 261.205 Q482.61 261.205 484.485 261.622 Q486.36 262.015 488.119 262.825 Z" fill="#000000" fill-rule="nonzero" fill-opacity="1" /><path clip-path="url(#clip200)" d="M495.086 277.524 L495.086 261.83 L499.346 261.83 L499.346 277.362 Q499.346 281.043 500.781 282.895 Q502.216 284.723 505.086 284.723 Q508.535 284.723 510.526 282.524 Q512.54 280.325 512.54 276.529 L512.54 261.83 L516.799 261.83 L516.799 287.756 L512.54 287.756 L512.54 283.774 Q510.989 286.135 508.929 287.293 Q506.892 288.427 504.184 288.427 Q499.716 288.427 497.401 285.649 Q495.086 282.871 495.086 277.524 M505.804 261.205 L505.804 261.205 Z" fill="#000000" fill-rule="nonzero" fill-opacity="1" /><path clip-path="url(#clip200)" d="M542.1 262.594 L542.1 266.622 Q540.294 265.696 538.35 265.233 Q536.406 264.77 534.322 264.77 Q531.151 264.77 529.554 265.742 Q527.98 266.714 527.98 268.659 Q527.98 270.14 529.114 270.997 Q530.248 271.83 533.674 272.594 L535.132 272.918 Q539.669 273.89 541.568 275.672 Q543.489 277.432 543.489 280.603 Q543.489 284.214 540.619 286.321 Q537.771 288.427 532.771 288.427 Q530.688 288.427 528.42 288.01 Q526.174 287.617 523.674 286.807 L523.674 282.409 Q526.035 283.635 528.327 284.26 Q530.619 284.862 532.864 284.862 Q535.873 284.862 537.494 283.844 Q539.114 282.802 539.114 280.927 Q539.114 279.191 537.933 278.265 Q536.776 277.339 532.818 276.483 L531.336 276.135 Q527.378 275.302 525.619 273.589 Q523.859 271.853 523.859 268.844 Q523.859 265.186 526.452 263.196 Q529.045 261.205 533.813 261.205 Q536.174 261.205 538.257 261.552 Q540.341 261.899 542.1 262.594 Z" fill="#000000" fill-rule="nonzero" fill-opacity="1" /><path clip-path="url(#clip200)" d="M554.484 254.469 L554.484 261.83 L563.257 261.83 L563.257 265.14 L554.484 265.14 L554.484 279.214 Q554.484 282.385 555.341 283.288 Q556.22 284.191 558.882 284.191 L563.257 284.191 L563.257 287.756 L558.882 287.756 Q553.952 287.756 552.077 285.927 Q550.202 284.075 550.202 279.214 L550.202 265.14 L547.077 265.14 L547.077 261.83 L550.202 261.83 L550.202 254.469 L554.484 254.469 Z" fill="#000000" fill-rule="nonzero" fill-opacity="1" /><path clip-path="url(#clip200)" d="M578.905 264.816 Q575.479 264.816 573.489 267.501 Q571.498 270.163 571.498 274.816 Q571.498 279.469 573.466 282.154 Q575.456 284.816 578.905 284.816 Q582.308 284.816 584.299 282.131 Q586.29 279.446 586.29 274.816 Q586.29 270.21 584.299 267.524 Q582.308 264.816 578.905 264.816 M578.905 261.205 Q584.461 261.205 587.632 264.816 Q590.803 268.427 590.803 274.816 Q590.803 281.182 587.632 284.816 Q584.461 288.427 578.905 288.427 Q573.327 288.427 570.155 284.816 Q567.007 281.182 567.007 274.816 Q567.007 268.427 570.155 264.816 Q573.327 261.205 578.905 261.205 Z" fill="#000000" fill-rule="nonzero" fill-opacity="1" /><path clip-path="url(#clip200)" d="M618.049 266.807 Q619.646 263.936 621.868 262.571 Q624.09 261.205 627.1 261.205 Q631.15 261.205 633.35 264.052 Q635.549 266.876 635.549 272.108 L635.549 287.756 L631.266 287.756 L631.266 272.247 Q631.266 268.52 629.947 266.714 Q628.627 264.909 625.919 264.909 Q622.609 264.909 620.688 267.108 Q618.766 269.307 618.766 273.103 L618.766 287.756 L614.484 287.756 L614.484 272.247 Q614.484 268.497 613.164 266.714 Q611.845 264.909 609.09 264.909 Q605.827 264.909 603.905 267.131 Q601.984 269.33 601.984 273.103 L601.984 287.756 L597.702 287.756 L597.702 261.83 L601.984 261.83 L601.984 265.858 Q603.442 263.473 605.479 262.339 Q607.516 261.205 610.317 261.205 Q613.141 261.205 615.109 262.64 Q617.1 264.075 618.049 266.807 Z" fill="#000000" fill-rule="nonzero" fill-opacity="1" /><path clip-path="url(#clip200)" d="M666.22 273.728 L666.22 275.811 L646.637 275.811 Q646.914 280.209 649.275 282.524 Q651.66 284.816 655.896 284.816 Q658.349 284.816 660.641 284.214 Q662.956 283.612 665.224 282.409 L665.224 286.436 Q662.933 287.408 660.525 287.918 Q658.118 288.427 655.641 288.427 Q649.437 288.427 645.803 284.816 Q642.192 281.205 642.192 275.047 Q642.192 268.682 645.618 264.955 Q649.067 261.205 654.9 261.205 Q660.132 261.205 663.164 264.585 Q666.22 267.941 666.22 273.728 M661.96 272.478 Q661.914 268.983 659.993 266.899 Q658.095 264.816 654.947 264.816 Q651.382 264.816 649.229 266.83 Q647.099 268.844 646.775 272.501 L661.96 272.478 Z" fill="#000000" fill-rule="nonzero" fill-opacity="1" /><path clip-path="url(#clip200)" d="M688.234 265.811 Q687.516 265.395 686.659 265.21 Q685.826 265.001 684.808 265.001 Q681.197 265.001 679.252 267.362 Q677.331 269.7 677.331 274.098 L677.331 287.756 L673.048 287.756 L673.048 261.83 L677.331 261.83 L677.331 265.858 Q678.673 263.497 680.826 262.362 Q682.979 261.205 686.058 261.205 Q686.497 261.205 687.03 261.274 Q687.562 261.321 688.21 261.436 L688.234 265.811 Z" fill="#000000" fill-rule="nonzero" fill-opacity="1" /><path clip-path="url(#clip200)" d="M712.4 283.821 L728.719 283.821 L728.719 287.756 L706.775 287.756 L706.775 283.821 Q709.437 281.066 714.02 276.436 Q718.627 271.784 719.807 270.441 Q722.053 267.918 722.932 266.182 Q723.835 264.423 723.835 262.733 Q723.835 259.978 721.891 258.242 Q719.969 256.506 716.868 256.506 Q714.669 256.506 712.215 257.27 Q709.784 258.034 707.007 259.585 L707.007 254.862 Q709.831 253.728 712.284 253.149 Q714.738 252.571 716.775 252.571 Q722.145 252.571 725.34 255.256 Q728.534 257.941 728.534 262.432 Q728.534 264.561 727.724 266.483 Q726.937 268.381 724.831 270.973 Q724.252 271.645 721.15 274.862 Q718.048 278.057 712.4 283.821 Z" fill="#000000" fill-rule="nonzero" fill-opacity="1" /><polyline clip-path="url(#clip200)" style="stroke:#3da44d; stroke-linecap:round; stroke-linejoin:round; stroke-width:4; stroke-opacity:1; fill:none" points="300.571,322.316 443.747,322.316 "/>
<path clip-path="url(#clip200)" d="M488.119 314.665 L488.119 318.647 Q486.313 317.651 484.485 317.165 Q482.679 316.656 480.827 316.656 Q476.684 316.656 474.392 319.295 Q472.1 321.911 472.1 326.656 Q472.1 331.401 474.392 334.04 Q476.684 336.656 480.827 336.656 Q482.679 336.656 484.485 336.17 Q486.313 335.661 488.119 334.665 L488.119 338.6 Q486.336 339.434 484.415 339.85 Q482.517 340.267 480.364 340.267 Q474.508 340.267 471.059 336.586 Q467.61 332.906 467.61 326.656 Q467.61 320.313 471.082 316.679 Q474.577 313.045 480.642 313.045 Q482.61 313.045 484.485 313.462 Q486.36 313.855 488.119 314.665 Z" fill="#000000" fill-rule="nonzero" fill-opacity="1" /><path clip-path="url(#clip200)" d="M495.086 329.364 L495.086 313.67 L499.346 313.67 L499.346 329.202 Q499.346 332.883 500.781 334.735 Q502.216 336.563 505.086 336.563 Q508.535 336.563 510.526 334.364 Q512.54 332.165 512.54 328.369 L512.54 313.67 L516.799 313.67 L516.799 339.596 L512.54 339.596 L512.54 335.614 Q510.989 337.975 508.929 339.133 Q506.892 340.267 504.184 340.267 Q499.716 340.267 497.401 337.489 Q495.086 334.711 495.086 329.364 M505.804 313.045 L505.804 313.045 Z" fill="#000000" fill-rule="nonzero" fill-opacity="1" /><path clip-path="url(#clip200)" d="M542.1 314.434 L542.1 318.462 Q540.294 317.536 538.35 317.073 Q536.406 316.61 534.322 316.61 Q531.151 316.61 529.554 317.582 Q527.98 318.554 527.98 320.499 Q527.98 321.98 529.114 322.837 Q530.248 323.67 533.674 324.434 L535.132 324.758 Q539.669 325.73 541.568 327.512 Q543.489 329.272 543.489 332.443 Q543.489 336.054 540.619 338.161 Q537.771 340.267 532.771 340.267 Q530.688 340.267 528.42 339.85 Q526.174 339.457 523.674 338.647 L523.674 334.249 Q526.035 335.475 528.327 336.1 Q530.619 336.702 532.864 336.702 Q535.873 336.702 537.494 335.684 Q539.114 334.642 539.114 332.767 Q539.114 331.031 537.933 330.105 Q536.776 329.179 532.818 328.323 L531.336 327.975 Q527.378 327.142 525.619 325.429 Q523.859 323.693 523.859 320.684 Q523.859 317.026 526.452 315.036 Q529.045 313.045 533.813 313.045 Q536.174 313.045 538.257 313.392 Q540.341 313.739 542.1 314.434 Z" fill="#000000" fill-rule="nonzero" fill-opacity="1" /><path clip-path="url(#clip200)" d="M554.484 306.309 L554.484 313.67 L563.257 313.67 L563.257 316.98 L554.484 316.98 L554.484 331.054 Q554.484 334.225 555.341 335.128 Q556.22 336.031 558.882 336.031 L563.257 336.031 L563.257 339.596 L558.882 339.596 Q553.952 339.596 552.077 337.767 Q550.202 335.915 550.202 331.054 L550.202 316.98 L547.077 316.98 L547.077 313.67 L550.202 313.67 L550.202 306.309 L554.484 306.309 Z" fill="#000000" fill-rule="nonzero" fill-opacity="1" /><path clip-path="url(#clip200)" d="M578.905 316.656 Q575.479 316.656 573.489 319.341 Q571.498 322.003 571.498 326.656 Q571.498 331.309 573.466 333.994 Q575.456 336.656 578.905 336.656 Q582.308 336.656 584.299 333.971 Q586.29 331.286 586.29 326.656 Q586.29 322.05 584.299 319.364 Q582.308 316.656 578.905 316.656 M578.905 313.045 Q584.461 313.045 587.632 316.656 Q590.803 320.267 590.803 326.656 Q590.803 333.022 587.632 336.656 Q584.461 340.267 578.905 340.267 Q573.327 340.267 570.155 336.656 Q567.007 333.022 567.007 326.656 Q567.007 320.267 570.155 316.656 Q573.327 313.045 578.905 313.045 Z" fill="#000000" fill-rule="nonzero" fill-opacity="1" /><path clip-path="url(#clip200)" d="M618.049 318.647 Q619.646 315.776 621.868 314.411 Q624.09 313.045 627.1 313.045 Q631.15 313.045 633.35 315.892 Q635.549 318.716 635.549 323.948 L635.549 339.596 L631.266 339.596 L631.266 324.087 Q631.266 320.36 629.947 318.554 Q628.627 316.749 625.919 316.749 Q622.609 316.749 620.688 318.948 Q618.766 321.147 618.766 324.943 L618.766 339.596 L614.484 339.596 L614.484 324.087 Q614.484 320.337 613.164 318.554 Q611.845 316.749 609.09 316.749 Q605.827 316.749 603.905 318.971 Q601.984 321.17 601.984 324.943 L601.984 339.596 L597.702 339.596 L597.702 313.67 L601.984 313.67 L601.984 317.698 Q603.442 315.313 605.479 314.179 Q607.516 313.045 610.317 313.045 Q613.141 313.045 615.109 314.48 Q617.1 315.915 618.049 318.647 Z" fill="#000000" fill-rule="nonzero" fill-opacity="1" /><path clip-path="url(#clip200)" d="M666.22 325.568 L666.22 327.651 L646.637 327.651 Q646.914 332.049 649.275 334.364 Q651.66 336.656 655.896 336.656 Q658.349 336.656 660.641 336.054 Q662.956 335.452 665.224 334.249 L665.224 338.276 Q662.933 339.248 660.525 339.758 Q658.118 340.267 655.641 340.267 Q649.437 340.267 645.803 336.656 Q642.192 333.045 642.192 326.887 Q642.192 320.522 645.618 316.795 Q649.067 313.045 654.9 313.045 Q660.132 313.045 663.164 316.425 Q666.22 319.781 666.22 325.568 M661.96 324.318 Q661.914 320.823 659.993 318.739 Q658.095 316.656 654.947 316.656 Q651.382 316.656 649.229 318.67 Q647.099 320.684 646.775 324.341 L661.96 324.318 Z" fill="#000000" fill-rule="nonzero" fill-opacity="1" /><path clip-path="url(#clip200)" d="M688.234 317.651 Q687.516 317.235 686.659 317.05 Q685.826 316.841 684.808 316.841 Q681.197 316.841 679.252 319.202 Q677.331 321.54 677.331 325.938 L677.331 339.596 L673.048 339.596 L673.048 313.67 L677.331 313.67 L677.331 317.698 Q678.673 315.337 680.826 314.202 Q682.979 313.045 686.058 313.045 Q686.497 313.045 687.03 313.114 Q687.562 313.161 688.21 313.276 L688.234 317.651 Z" fill="#000000" fill-rule="nonzero" fill-opacity="1" /><path clip-path="url(#clip200)" d="M722.539 320.962 Q725.895 321.679 727.77 323.948 Q729.668 326.216 729.668 329.549 Q729.668 334.665 726.15 337.466 Q722.631 340.267 716.15 340.267 Q713.974 340.267 711.659 339.827 Q709.368 339.411 706.914 338.554 L706.914 334.04 Q708.858 335.174 711.173 335.753 Q713.488 336.332 716.011 336.332 Q720.409 336.332 722.701 334.596 Q725.016 332.86 725.016 329.549 Q725.016 326.494 722.863 324.781 Q720.733 323.045 716.914 323.045 L712.886 323.045 L712.886 319.202 L717.099 319.202 Q720.548 319.202 722.377 317.837 Q724.206 316.448 724.206 313.855 Q724.206 311.193 722.307 309.781 Q720.432 308.346 716.914 308.346 Q714.993 308.346 712.794 308.763 Q710.594 309.179 707.956 310.059 L707.956 305.892 Q710.618 305.151 712.932 304.781 Q715.27 304.411 717.331 304.411 Q722.655 304.411 725.756 306.841 Q728.858 309.249 728.858 313.369 Q728.858 316.239 727.215 318.23 Q725.571 320.198 722.539 320.962 Z" fill="#000000" fill-rule="nonzero" fill-opacity="1" /><polyline clip-path="url(#clip200)" style="stroke:#c271d2; stroke-linecap:round; stroke-linejoin:round; stroke-width:4; stroke-opacity:1; fill:none" points="300.571,374.156 443.747,374.156 "/>
<path clip-path="url(#clip200)" d="M488.119 366.505 L488.119 370.487 Q486.313 369.491 484.485 369.005 Q482.679 368.496 480.827 368.496 Q476.684 368.496 474.392 371.135 Q472.1 373.751 472.1 378.496 Q472.1 383.241 474.392 385.88 Q476.684 388.496 480.827 388.496 Q482.679 388.496 484.485 388.01 Q486.313 387.501 488.119 386.505 L488.119 390.44 Q486.336 391.274 484.415 391.69 Q482.517 392.107 480.364 392.107 Q474.508 392.107 471.059 388.426 Q467.61 384.746 467.61 378.496 Q467.61 372.153 471.082 368.519 Q474.577 364.885 480.642 364.885 Q482.61 364.885 484.485 365.302 Q486.36 365.695 488.119 366.505 Z" fill="#000000" fill-rule="nonzero" fill-opacity="1" /><path clip-path="url(#clip200)" d="M495.086 381.204 L495.086 365.51 L499.346 365.51 L499.346 381.042 Q499.346 384.723 500.781 386.575 Q502.216 388.403 505.086 388.403 Q508.535 388.403 510.526 386.204 Q512.54 384.005 512.54 380.209 L512.54 365.51 L516.799 365.51 L516.799 391.436 L512.54 391.436 L512.54 387.454 Q510.989 389.815 508.929 390.973 Q506.892 392.107 504.184 392.107 Q499.716 392.107 497.401 389.329 Q495.086 386.551 495.086 381.204 M505.804 364.885 L505.804 364.885 Z" fill="#000000" fill-rule="nonzero" fill-opacity="1" /><path clip-path="url(#clip200)" d="M542.1 366.274 L542.1 370.302 Q540.294 369.376 538.35 368.913 Q536.406 368.45 534.322 368.45 Q531.151 368.45 529.554 369.422 Q527.98 370.394 527.98 372.339 Q527.98 373.82 529.114 374.677 Q530.248 375.51 533.674 376.274 L535.132 376.598 Q539.669 377.57 541.568 379.352 Q543.489 381.112 543.489 384.283 Q543.489 387.894 540.619 390.001 Q537.771 392.107 532.771 392.107 Q530.688 392.107 528.42 391.69 Q526.174 391.297 523.674 390.487 L523.674 386.089 Q526.035 387.315 528.327 387.94 Q530.619 388.542 532.864 388.542 Q535.873 388.542 537.494 387.524 Q539.114 386.482 539.114 384.607 Q539.114 382.871 537.933 381.945 Q536.776 381.019 532.818 380.163 L531.336 379.815 Q527.378 378.982 525.619 377.269 Q523.859 375.533 523.859 372.524 Q523.859 368.866 526.452 366.876 Q529.045 364.885 533.813 364.885 Q536.174 364.885 538.257 365.232 Q540.341 365.579 542.1 366.274 Z" fill="#000000" fill-rule="nonzero" fill-opacity="1" /><path clip-path="url(#clip200)" d="M554.484 358.149 L554.484 365.51 L563.257 365.51 L563.257 368.82 L554.484 368.82 L554.484 382.894 Q554.484 386.065 555.341 386.968 Q556.22 387.871 558.882 387.871 L563.257 387.871 L563.257 391.436 L558.882 391.436 Q553.952 391.436 552.077 389.607 Q550.202 387.755 550.202 382.894 L550.202 368.82 L547.077 368.82 L547.077 365.51 L550.202 365.51 L550.202 358.149 L554.484 358.149 Z" fill="#000000" fill-rule="nonzero" fill-opacity="1" /><path clip-path="url(#clip200)" d="M578.905 368.496 Q575.479 368.496 573.489 371.181 Q571.498 373.843 571.498 378.496 Q571.498 383.149 573.466 385.834 Q575.456 388.496 578.905 388.496 Q582.308 388.496 584.299 385.811 Q586.29 383.126 586.29 378.496 Q586.29 373.89 584.299 371.204 Q582.308 368.496 578.905 368.496 M578.905 364.885 Q584.461 364.885 587.632 368.496 Q590.803 372.107 590.803 378.496 Q590.803 384.862 587.632 388.496 Q584.461 392.107 578.905 392.107 Q573.327 392.107 570.155 388.496 Q567.007 384.862 567.007 378.496 Q567.007 372.107 570.155 368.496 Q573.327 364.885 578.905 364.885 Z" fill="#000000" fill-rule="nonzero" fill-opacity="1" /><path clip-path="url(#clip200)" d="M618.049 370.487 Q619.646 367.616 621.868 366.251 Q624.09 364.885 627.1 364.885 Q631.15 364.885 633.35 367.732 Q635.549 370.556 635.549 375.788 L635.549 391.436 L631.266 391.436 L631.266 375.927 Q631.266 372.2 629.947 370.394 Q628.627 368.589 625.919 368.589 Q622.609 368.589 620.688 370.788 Q618.766 372.987 618.766 376.783 L618.766 391.436 L614.484 391.436 L614.484 375.927 Q614.484 372.177 613.164 370.394 Q611.845 368.589 609.09 368.589 Q605.827 368.589 603.905 370.811 Q601.984 373.01 601.984 376.783 L601.984 391.436 L597.702 391.436 L597.702 365.51 L601.984 365.51 L601.984 369.538 Q603.442 367.153 605.479 366.019 Q607.516 364.885 610.317 364.885 Q613.141 364.885 615.109 366.32 Q617.1 367.755 618.049 370.487 Z" fill="#000000" fill-rule="nonzero" fill-opacity="1" /><path clip-path="url(#clip200)" d="M666.22 377.408 L666.22 379.491 L646.637 379.491 Q646.914 383.889 649.275 386.204 Q651.66 388.496 655.896 388.496 Q658.349 388.496 660.641 387.894 Q662.956 387.292 665.224 386.089 L665.224 390.116 Q662.933 391.088 660.525 391.598 Q658.118 392.107 655.641 392.107 Q649.437 392.107 645.803 388.496 Q642.192 384.885 642.192 378.727 Q642.192 372.362 645.618 368.635 Q649.067 364.885 654.9 364.885 Q660.132 364.885 663.164 368.265 Q666.22 371.621 666.22 377.408 M661.96 376.158 Q661.914 372.663 659.993 370.579 Q658.095 368.496 654.947 368.496 Q651.382 368.496 649.229 370.51 Q647.099 372.524 646.775 376.181 L661.96 376.158 Z" fill="#000000" fill-rule="nonzero" fill-opacity="1" /><path clip-path="url(#clip200)" d="M688.234 369.491 Q687.516 369.075 686.659 368.89 Q685.826 368.681 684.808 368.681 Q681.197 368.681 679.252 371.042 Q677.331 373.38 677.331 377.778 L677.331 391.436 L673.048 391.436 L673.048 365.51 L677.331 365.51 L677.331 369.538 Q678.673 367.177 680.826 366.042 Q682.979 364.885 686.058 364.885 Q686.497 364.885 687.03 364.954 Q687.562 365.001 688.21 365.116 L688.234 369.491 Z" fill="#000000" fill-rule="nonzero" fill-opacity="1" /><path clip-path="url(#clip200)" d="M721.219 360.95 L709.414 379.399 L721.219 379.399 L721.219 360.95 M719.993 356.876 L725.872 356.876 L725.872 379.399 L730.803 379.399 L730.803 383.288 L725.872 383.288 L725.872 391.436 L721.219 391.436 L721.219 383.288 L705.618 383.288 L705.618 378.774 L719.993 356.876 Z" fill="#000000" fill-rule="nonzero" fill-opacity="1" /><polyline clip-path="url(#clip200)" style="stroke:#ac8d18; stroke-linecap:round; stroke-linejoin:round; stroke-width:4; stroke-opacity:1; fill:none" points="300.571,425.996 443.747,425.996 "/>
<path clip-path="url(#clip200)" d="M488.119 418.345 L488.119 422.327 Q486.313 421.331 484.485 420.845 Q482.679 420.336 480.827 420.336 Q476.684 420.336 474.392 422.975 Q472.1 425.591 472.1 430.336 Q472.1 435.081 474.392 437.72 Q476.684 440.336 480.827 440.336 Q482.679 440.336 484.485 439.85 Q486.313 439.341 488.119 438.345 L488.119 442.28 Q486.336 443.114 484.415 443.53 Q482.517 443.947 480.364 443.947 Q474.508 443.947 471.059 440.266 Q467.61 436.586 467.61 430.336 Q467.61 423.993 471.082 420.359 Q474.577 416.725 480.642 416.725 Q482.61 416.725 484.485 417.142 Q486.36 417.535 488.119 418.345 Z" fill="#000000" fill-rule="nonzero" fill-opacity="1" /><path clip-path="url(#clip200)" d="M495.086 433.044 L495.086 417.35 L499.346 417.35 L499.346 432.882 Q499.346 436.563 500.781 438.415 Q502.216 440.243 505.086 440.243 Q508.535 440.243 510.526 438.044 Q512.54 435.845 512.54 432.049 L512.54 417.35 L516.799 417.35 L516.799 443.276 L512.54 443.276 L512.54 439.294 Q510.989 441.655 508.929 442.813 Q506.892 443.947 504.184 443.947 Q499.716 443.947 497.401 441.169 Q495.086 438.391 495.086 433.044 M505.804 416.725 L505.804 416.725 Z" fill="#000000" fill-rule="nonzero" fill-opacity="1" /><path clip-path="url(#clip200)" d="M542.1 418.114 L542.1 422.142 Q540.294 421.216 538.35 420.753 Q536.406 420.29 534.322 420.29 Q531.151 420.29 529.554 421.262 Q527.98 422.234 527.98 424.179 Q527.98 425.66 529.114 426.517 Q530.248 427.35 533.674 428.114 L535.132 428.438 Q539.669 429.41 541.568 431.192 Q543.489 432.952 543.489 436.123 Q543.489 439.734 540.619 441.841 Q537.771 443.947 532.771 443.947 Q530.688 443.947 528.42 443.53 Q526.174 443.137 523.674 442.327 L523.674 437.929 Q526.035 439.155 528.327 439.78 Q530.619 440.382 532.864 440.382 Q535.873 440.382 537.494 439.364 Q539.114 438.322 539.114 436.447 Q539.114 434.711 537.933 433.785 Q536.776 432.859 532.818 432.003 L531.336 431.655 Q527.378 430.822 525.619 429.109 Q523.859 427.373 523.859 424.364 Q523.859 420.706 526.452 418.716 Q529.045 416.725 533.813 416.725 Q536.174 416.725 538.257 417.072 Q540.341 417.419 542.1 418.114 Z" fill="#000000" fill-rule="nonzero" fill-opacity="1" /><path clip-path="url(#clip200)" d="M554.484 409.989 L554.484 417.35 L563.257 417.35 L563.257 420.66 L554.484 420.66 L554.484 434.734 Q554.484 437.905 555.341 438.808 Q556.22 439.711 558.882 439.711 L563.257 439.711 L563.257 443.276 L558.882 443.276 Q553.952 443.276 552.077 441.447 Q550.202 439.595 550.202 434.734 L550.202 420.66 L547.077 420.66 L547.077 417.35 L550.202 417.35 L550.202 409.989 L554.484 409.989 Z" fill="#000000" fill-rule="nonzero" fill-opacity="1" /><path clip-path="url(#clip200)" d="M578.905 420.336 Q575.479 420.336 573.489 423.021 Q571.498 425.683 571.498 430.336 Q571.498 434.989 573.466 437.674 Q575.456 440.336 578.905 440.336 Q582.308 440.336 584.299 437.651 Q586.29 434.966 586.29 430.336 Q586.29 425.73 584.299 423.044 Q582.308 420.336 578.905 420.336 M578.905 416.725 Q584.461 416.725 587.632 420.336 Q590.803 423.947 590.803 430.336 Q590.803 436.702 587.632 440.336 Q584.461 443.947 578.905 443.947 Q573.327 443.947 570.155 440.336 Q567.007 436.702 567.007 430.336 Q567.007 423.947 570.155 420.336 Q573.327 416.725 578.905 416.725 Z" fill="#000000" fill-rule="nonzero" fill-opacity="1" /><path clip-path="url(#clip200)" d="M618.049 422.327 Q619.646 419.456 621.868 418.091 Q624.09 416.725 627.1 416.725 Q631.15 416.725 633.35 419.572 Q635.549 422.396 635.549 427.628 L635.549 443.276 L631.266 443.276 L631.266 427.767 Q631.266 424.04 629.947 422.234 Q628.627 420.429 625.919 420.429 Q622.609 420.429 620.688 422.628 Q618.766 424.827 618.766 428.623 L618.766 443.276 L614.484 443.276 L614.484 427.767 Q614.484 424.017 613.164 422.234 Q611.845 420.429 609.09 420.429 Q605.827 420.429 603.905 422.651 Q601.984 424.85 601.984 428.623 L601.984 443.276 L597.702 443.276 L597.702 417.35 L601.984 417.35 L601.984 421.378 Q603.442 418.993 605.479 417.859 Q607.516 416.725 610.317 416.725 Q613.141 416.725 615.109 418.16 Q617.1 419.595 618.049 422.327 Z" fill="#000000" fill-rule="nonzero" fill-opacity="1" /><path clip-path="url(#clip200)" d="M666.22 429.248 L666.22 431.331 L646.637 431.331 Q646.914 435.729 649.275 438.044 Q651.66 440.336 655.896 440.336 Q658.349 440.336 660.641 439.734 Q662.956 439.132 665.224 437.929 L665.224 441.956 Q662.933 442.928 660.525 443.438 Q658.118 443.947 655.641 443.947 Q649.437 443.947 645.803 440.336 Q642.192 436.725 642.192 430.567 Q642.192 424.202 645.618 420.475 Q649.067 416.725 654.9 416.725 Q660.132 416.725 663.164 420.105 Q666.22 423.461 666.22 429.248 M661.96 427.998 Q661.914 424.503 659.993 422.419 Q658.095 420.336 654.947 420.336 Q651.382 420.336 649.229 422.35 Q647.099 424.364 646.775 428.021 L661.96 427.998 Z" fill="#000000" fill-rule="nonzero" fill-opacity="1" /><path clip-path="url(#clip200)" d="M688.234 421.331 Q687.516 420.915 686.659 420.73 Q685.826 420.521 684.808 420.521 Q681.197 420.521 679.252 422.882 Q677.331 425.22 677.331 429.618 L677.331 443.276 L673.048 443.276 L673.048 417.35 L677.331 417.35 L677.331 421.378 Q678.673 419.017 680.826 417.882 Q682.979 416.725 686.058 416.725 Q686.497 416.725 687.03 416.794 Q687.562 416.841 688.21 416.956 L688.234 421.331 Z" fill="#000000" fill-rule="nonzero" fill-opacity="1" /><path clip-path="url(#clip200)" d="M708.419 408.716 L726.775 408.716 L726.775 412.651 L712.701 412.651 L712.701 421.123 Q713.719 420.776 714.738 420.614 Q715.757 420.429 716.775 420.429 Q722.562 420.429 725.942 423.6 Q729.321 426.771 729.321 432.188 Q729.321 437.766 725.849 440.868 Q722.377 443.947 716.057 443.947 Q713.882 443.947 711.613 443.577 Q709.368 443.206 706.96 442.466 L706.96 437.766 Q709.044 438.901 711.266 439.456 Q713.488 440.012 715.965 440.012 Q719.969 440.012 722.307 437.905 Q724.645 435.799 724.645 432.188 Q724.645 428.577 722.307 426.47 Q719.969 424.364 715.965 424.364 Q714.09 424.364 712.215 424.78 Q710.363 425.197 708.419 426.077 L708.419 408.716 Z" fill="#000000" fill-rule="nonzero" fill-opacity="1" /><polyline clip-path="url(#clip200)" style="stroke:#00a9ad; stroke-linecap:round; stroke-linejoin:round; stroke-width:4; stroke-opacity:1; fill:none" points="300.571,477.836 443.747,477.836 "/>
<path clip-path="url(#clip200)" d="M488.119 470.185 L488.119 474.167 Q486.313 473.171 484.485 472.685 Q482.679 472.176 480.827 472.176 Q476.684 472.176 474.392 474.815 Q472.1 477.431 472.1 482.176 Q472.1 486.921 474.392 489.56 Q476.684 492.176 480.827 492.176 Q482.679 492.176 484.485 491.69 Q486.313 491.181 488.119 490.185 L488.119 494.12 Q486.336 494.954 484.415 495.37 Q482.517 495.787 480.364 495.787 Q474.508 495.787 471.059 492.106 Q467.61 488.426 467.61 482.176 Q467.61 475.833 471.082 472.199 Q474.577 468.565 480.642 468.565 Q482.61 468.565 484.485 468.982 Q486.36 469.375 488.119 470.185 Z" fill="#000000" fill-rule="nonzero" fill-opacity="1" /><path clip-path="url(#clip200)" d="M495.086 484.884 L495.086 469.19 L499.346 469.19 L499.346 484.722 Q499.346 488.403 500.781 490.255 Q502.216 492.083 505.086 492.083 Q508.535 492.083 510.526 489.884 Q512.54 487.685 512.54 483.889 L512.54 469.19 L516.799 469.19 L516.799 495.116 L512.54 495.116 L512.54 491.134 Q510.989 493.495 508.929 494.653 Q506.892 495.787 504.184 495.787 Q499.716 495.787 497.401 493.009 Q495.086 490.231 495.086 484.884 M505.804 468.565 L505.804 468.565 Z" fill="#000000" fill-rule="nonzero" fill-opacity="1" /><path clip-path="url(#clip200)" d="M542.1 469.954 L542.1 473.982 Q540.294 473.056 538.35 472.593 Q536.406 472.13 534.322 472.13 Q531.151 472.13 529.554 473.102 Q527.98 474.074 527.98 476.019 Q527.98 477.5 529.114 478.357 Q530.248 479.19 533.674 479.954 L535.132 480.278 Q539.669 481.25 541.568 483.032 Q543.489 484.792 543.489 487.963 Q543.489 491.574 540.619 493.681 Q537.771 495.787 532.771 495.787 Q530.688 495.787 528.42 495.37 Q526.174 494.977 523.674 494.167 L523.674 489.769 Q526.035 490.995 528.327 491.62 Q530.619 492.222 532.864 492.222 Q535.873 492.222 537.494 491.204 Q539.114 490.162 539.114 488.287 Q539.114 486.551 537.933 485.625 Q536.776 484.699 532.818 483.843 L531.336 483.495 Q527.378 482.662 525.619 480.949 Q523.859 479.213 523.859 476.204 Q523.859 472.546 526.452 470.556 Q529.045 468.565 533.813 468.565 Q536.174 468.565 538.257 468.912 Q540.341 469.259 542.1 469.954 Z" fill="#000000" fill-rule="nonzero" fill-opacity="1" /><path clip-path="url(#clip200)" d="M554.484 461.829 L554.484 469.19 L563.257 469.19 L563.257 472.5 L554.484 472.5 L554.484 486.574 Q554.484 489.745 555.341 490.648 Q556.22 491.551 558.882 491.551 L563.257 491.551 L563.257 495.116 L558.882 495.116 Q553.952 495.116 552.077 493.287 Q550.202 491.435 550.202 486.574 L550.202 472.5 L547.077 472.5 L547.077 469.19 L550.202 469.19 L550.202 461.829 L554.484 461.829 Z" fill="#000000" fill-rule="nonzero" fill-opacity="1" /><path clip-path="url(#clip200)" d="M578.905 472.176 Q575.479 472.176 573.489 474.861 Q571.498 477.523 571.498 482.176 Q571.498 486.829 573.466 489.514 Q575.456 492.176 578.905 492.176 Q582.308 492.176 584.299 489.491 Q586.29 486.806 586.29 482.176 Q586.29 477.57 584.299 474.884 Q582.308 472.176 578.905 472.176 M578.905 468.565 Q584.461 468.565 587.632 472.176 Q590.803 475.787 590.803 482.176 Q590.803 488.542 587.632 492.176 Q584.461 495.787 578.905 495.787 Q573.327 495.787 570.155 492.176 Q567.007 488.542 567.007 482.176 Q567.007 475.787 570.155 472.176 Q573.327 468.565 578.905 468.565 Z" fill="#000000" fill-rule="nonzero" fill-opacity="1" /><path clip-path="url(#clip200)" d="M618.049 474.167 Q619.646 471.296 621.868 469.931 Q624.09 468.565 627.1 468.565 Q631.15 468.565 633.35 471.412 Q635.549 474.236 635.549 479.468 L635.549 495.116 L631.266 495.116 L631.266 479.607 Q631.266 475.88 629.947 474.074 Q628.627 472.269 625.919 472.269 Q622.609 472.269 620.688 474.468 Q618.766 476.667 618.766 480.463 L618.766 495.116 L614.484 495.116 L614.484 479.607 Q614.484 475.857 613.164 474.074 Q611.845 472.269 609.09 472.269 Q605.827 472.269 603.905 474.491 Q601.984 476.69 601.984 480.463 L601.984 495.116 L597.702 495.116 L597.702 469.19 L601.984 469.19 L601.984 473.218 Q603.442 470.833 605.479 469.699 Q607.516 468.565 610.317 468.565 Q613.141 468.565 615.109 470 Q617.1 471.435 618.049 474.167 Z" fill="#000000" fill-rule="nonzero" fill-opacity="1" /><path clip-path="url(#clip200)" d="M666.22 481.088 L666.22 483.171 L646.637 483.171 Q646.914 487.569 649.275 489.884 Q651.66 492.176 655.896 492.176 Q658.349 492.176 660.641 491.574 Q662.956 490.972 665.224 489.769 L665.224 493.796 Q662.933 494.768 660.525 495.278 Q658.118 495.787 655.641 495.787 Q649.437 495.787 645.803 492.176 Q642.192 488.565 642.192 482.407 Q642.192 476.042 645.618 472.315 Q649.067 468.565 654.9 468.565 Q660.132 468.565 663.164 471.945 Q666.22 475.301 666.22 481.088 M661.96 479.838 Q661.914 476.343 659.993 474.259 Q658.095 472.176 654.947 472.176 Q651.382 472.176 649.229 474.19 Q647.099 476.204 646.775 479.861 L661.96 479.838 Z" fill="#000000" fill-rule="nonzero" fill-opacity="1" /><path clip-path="url(#clip200)" d="M688.234 473.171 Q687.516 472.755 686.659 472.57 Q685.826 472.361 684.808 472.361 Q681.197 472.361 679.252 474.722 Q677.331 477.06 677.331 481.458 L677.331 495.116 L673.048 495.116 L673.048 469.19 L677.331 469.19 L677.331 473.218 Q678.673 470.857 680.826 469.722 Q682.979 468.565 686.058 468.565 Q686.497 468.565 687.03 468.634 Q687.562 468.681 688.21 468.796 L688.234 473.171 Z" fill="#000000" fill-rule="nonzero" fill-opacity="1" /><path clip-path="url(#clip200)" d="M718.951 475.972 Q715.803 475.972 713.951 478.125 Q712.122 480.278 712.122 484.028 Q712.122 487.755 713.951 489.931 Q715.803 492.083 718.951 492.083 Q722.099 492.083 723.928 489.931 Q725.78 487.755 725.78 484.028 Q725.78 480.278 723.928 478.125 Q722.099 475.972 718.951 475.972 M728.233 461.32 L728.233 465.579 Q726.474 464.746 724.668 464.306 Q722.886 463.866 721.127 463.866 Q716.497 463.866 714.044 466.991 Q711.613 470.116 711.266 476.435 Q712.632 474.421 714.692 473.357 Q716.752 472.269 719.229 472.269 Q724.437 472.269 727.446 475.44 Q730.479 478.588 730.479 484.028 Q730.479 489.352 727.331 492.569 Q724.182 495.787 718.951 495.787 Q712.956 495.787 709.784 491.204 Q706.613 486.597 706.613 477.87 Q706.613 469.676 710.502 464.815 Q714.391 459.931 720.942 459.931 Q722.701 459.931 724.483 460.278 Q726.289 460.625 728.233 461.32 Z" fill="#000000" fill-rule="nonzero" fill-opacity="1" /><polyline clip-path="url(#clip200)" style="stroke:#ed5d92; stroke-linecap:round; stroke-linejoin:round; stroke-width:4; stroke-opacity:1; fill:none" points="300.571,529.676 443.747,529.676 "/>
<path clip-path="url(#clip200)" d="M488.119 522.025 L488.119 526.007 Q486.313 525.011 484.485 524.525 Q482.679 524.016 480.827 524.016 Q476.684 524.016 474.392 526.655 Q472.1 529.271 472.1 534.016 Q472.1 538.761 474.392 541.4 Q476.684 544.016 480.827 544.016 Q482.679 544.016 484.485 543.53 Q486.313 543.021 488.119 542.025 L488.119 545.96 Q486.336 546.794 484.415 547.21 Q482.517 547.627 480.364 547.627 Q474.508 547.627 471.059 543.946 Q467.61 540.266 467.61 534.016 Q467.61 527.673 471.082 524.039 Q474.577 520.405 480.642 520.405 Q482.61 520.405 484.485 520.822 Q486.36 521.215 488.119 522.025 Z" fill="#000000" fill-rule="nonzero" fill-opacity="1" /><path clip-path="url(#clip200)" d="M495.086 536.724 L495.086 521.03 L499.346 521.03 L499.346 536.562 Q499.346 540.243 500.781 542.095 Q502.216 543.923 505.086 543.923 Q508.535 543.923 510.526 541.724 Q512.54 539.525 512.54 535.729 L512.54 521.03 L516.799 521.03 L516.799 546.956 L512.54 546.956 L512.54 542.974 Q510.989 545.335 508.929 546.493 Q506.892 547.627 504.184 547.627 Q499.716 547.627 497.401 544.849 Q495.086 542.071 495.086 536.724 M505.804 520.405 L505.804 520.405 Z" fill="#000000" fill-rule="nonzero" fill-opacity="1" /><path clip-path="url(#clip200)" d="M542.1 521.794 L542.1 525.822 Q540.294 524.896 538.35 524.433 Q536.406 523.97 534.322 523.97 Q531.151 523.97 529.554 524.942 Q527.98 525.914 527.98 527.859 Q527.98 529.34 529.114 530.197 Q530.248 531.03 533.674 531.794 L535.132 532.118 Q539.669 533.09 541.568 534.872 Q543.489 536.632 543.489 539.803 Q543.489 543.414 540.619 545.521 Q537.771 547.627 532.771 547.627 Q530.688 547.627 528.42 547.21 Q526.174 546.817 523.674 546.007 L523.674 541.609 Q526.035 542.835 528.327 543.46 Q530.619 544.062 532.864 544.062 Q535.873 544.062 537.494 543.044 Q539.114 542.002 539.114 540.127 Q539.114 538.391 537.933 537.465 Q536.776 536.539 532.818 535.683 L531.336 535.335 Q527.378 534.502 525.619 532.789 Q523.859 531.053 523.859 528.044 Q523.859 524.386 526.452 522.396 Q529.045 520.405 533.813 520.405 Q536.174 520.405 538.257 520.752 Q540.341 521.099 542.1 521.794 Z" fill="#000000" fill-rule="nonzero" fill-opacity="1" /><path clip-path="url(#clip200)" d="M554.484 513.669 L554.484 521.03 L563.257 521.03 L563.257 524.34 L554.484 524.34 L554.484 538.414 Q554.484 541.585 555.341 542.488 Q556.22 543.391 558.882 543.391 L563.257 543.391 L563.257 546.956 L558.882 546.956 Q553.952 546.956 552.077 545.127 Q550.202 543.275 550.202 538.414 L550.202 524.34 L547.077 524.34 L547.077 521.03 L550.202 521.03 L550.202 513.669 L554.484 513.669 Z" fill="#000000" fill-rule="nonzero" fill-opacity="1" /><path clip-path="url(#clip200)" d="M578.905 524.016 Q575.479 524.016 573.489 526.701 Q571.498 529.363 571.498 534.016 Q571.498 538.669 573.466 541.354 Q575.456 544.016 578.905 544.016 Q582.308 544.016 584.299 541.331 Q586.29 538.646 586.29 534.016 Q586.29 529.41 584.299 526.724 Q582.308 524.016 578.905 524.016 M578.905 520.405 Q584.461 520.405 587.632 524.016 Q590.803 527.627 590.803 534.016 Q590.803 540.382 587.632 544.016 Q584.461 547.627 578.905 547.627 Q573.327 547.627 570.155 544.016 Q567.007 540.382 567.007 534.016 Q567.007 527.627 570.155 524.016 Q573.327 520.405 578.905 520.405 Z" fill="#000000" fill-rule="nonzero" fill-opacity="1" /><path clip-path="url(#clip200)" d="M618.049 526.007 Q619.646 523.136 621.868 521.771 Q624.09 520.405 627.1 520.405 Q631.15 520.405 633.35 523.252 Q635.549 526.076 635.549 531.308 L635.549 546.956 L631.266 546.956 L631.266 531.447 Q631.266 527.72 629.947 525.914 Q628.627 524.109 625.919 524.109 Q622.609 524.109 620.688 526.308 Q618.766 528.507 618.766 532.303 L618.766 546.956 L614.484 546.956 L614.484 531.447 Q614.484 527.697 613.164 525.914 Q611.845 524.109 609.09 524.109 Q605.827 524.109 603.905 526.331 Q601.984 528.53 601.984 532.303 L601.984 546.956 L597.702 546.956 L597.702 521.03 L601.984 521.03 L601.984 525.058 Q603.442 522.673 605.479 521.539 Q607.516 520.405 610.317 520.405 Q613.141 520.405 615.109 521.84 Q617.1 523.275 618.049 526.007 Z" fill="#000000" fill-rule="nonzero" fill-opacity="1" /><path clip-path="url(#clip200)" d="M666.22 532.928 L666.22 535.011 L646.637 535.011 Q646.914 539.409 649.275 541.724 Q651.66 544.016 655.896 544.016 Q658.349 544.016 660.641 543.414 Q662.956 542.812 665.224 541.609 L665.224 545.636 Q662.933 546.608 660.525 547.118 Q658.118 547.627 655.641 547.627 Q649.437 547.627 645.803 544.016 Q642.192 540.405 642.192 534.247 Q642.192 527.882 645.618 524.155 Q649.067 520.405 654.9 520.405 Q660.132 520.405 663.164 523.785 Q666.22 527.141 666.22 532.928 M661.96 531.678 Q661.914 528.183 659.993 526.099 Q658.095 524.016 654.947 524.016 Q651.382 524.016 649.229 526.03 Q647.099 528.044 646.775 531.701 L661.96 531.678 Z" fill="#000000" fill-rule="nonzero" fill-opacity="1" /><path clip-path="url(#clip200)" d="M688.234 525.011 Q687.516 524.595 686.659 524.41 Q685.826 524.201 684.808 524.201 Q681.197 524.201 679.252 526.562 Q677.331 528.9 677.331 533.298 L677.331 546.956 L673.048 546.956 L673.048 521.03 L677.331 521.03 L677.331 525.058 Q678.673 522.697 680.826 521.562 Q682.979 520.405 686.058 520.405 Q686.497 520.405 687.03 520.474 Q687.562 520.521 688.21 520.636 L688.234 525.011 Z" fill="#000000" fill-rule="nonzero" fill-opacity="1" /><path clip-path="url(#clip200)" d="M707.192 512.396 L729.414 512.396 L729.414 514.386 L716.868 546.956 L711.983 546.956 L723.789 516.331 L707.192 516.331 L707.192 512.396 Z" fill="#000000" fill-rule="nonzero" fill-opacity="1" /></svg>
