<?xml version="1.0" encoding="utf-8"?>
<svg xmlns="http://www.w3.org/2000/svg" xmlns:xlink="http://www.w3.org/1999/xlink" width="600" height="400" viewBox="0 0 2400 1600">
<defs>
  <clipPath id="clip760">
    <rect x="0" y="0" width="2400" height="1600"/>
  </clipPath>
</defs>
<path clip-path="url(#clip760)" d="M0 1600 L2400 1600 L2400 0 L0 0  Z" fill="#ffffff" fill-rule="evenodd" fill-opacity="1"/>
<defs>
  <clipPath id="clip761">
    <rect x="480" y="0" width="1681" height="1600"/>
  </clipPath>
</defs>
<path clip-path="url(#clip760)" d="M262.551 1423.18 L2352.76 1423.18 L2352.76 123.472 L262.551 123.472  Z" fill="#ffffff" fill-rule="evenodd" fill-opacity="1"/>
<defs>
  <clipPath id="clip762">
    <rect x="262" y="123" width="2091" height="1301"/>
  </clipPath>
</defs>
<polyline clip-path="url(#clip762)" style="stroke:#000000; stroke-linecap:round; stroke-linejoin:round; stroke-width:2; stroke-opacity:0.1; fill:none" points="664.646,1423.18 664.646,123.472 "/>
<polyline clip-path="url(#clip762)" style="stroke:#000000; stroke-linecap:round; stroke-linejoin:round; stroke-width:2; stroke-opacity:0.1; fill:none" points="1093.32,1423.18 1093.32,123.472 "/>
<polyline clip-path="url(#clip762)" style="stroke:#000000; stroke-linecap:round; stroke-linejoin:round; stroke-width:2; stroke-opacity:0.1; fill:none" points="1521.99,1423.18 1521.99,123.472 "/>
<polyline clip-path="url(#clip762)" style="stroke:#000000; stroke-linecap:round; stroke-linejoin:round; stroke-width:2; stroke-opacity:0.1; fill:none" points="1950.66,1423.18 1950.66,123.472 "/>
<polyline clip-path="url(#clip760)" style="stroke:#000000; stroke-linecap:round; stroke-linejoin:round; stroke-width:4; stroke-opacity:1; fill:none" points="262.551,1423.18 2352.76,1423.18 "/>
<polyline clip-path="url(#clip760)" style="stroke:#000000; stroke-linecap:round; stroke-linejoin:round; stroke-width:4; stroke-opacity:1; fill:none" points="664.646,1423.18 664.646,1404.28 "/>
<polyline clip-path="url(#clip760)" style="stroke:#000000; stroke-linecap:round; stroke-linejoin:round; stroke-width:4; stroke-opacity:1; fill:none" points="1093.32,1423.18 1093.32,1404.28 "/>
<polyline clip-path="url(#clip760)" style="stroke:#000000; stroke-linecap:round; stroke-linejoin:round; stroke-width:4; stroke-opacity:1; fill:none" points="1521.99,1423.18 1521.99,1404.28 "/>
<polyline clip-path="url(#clip760)" style="stroke:#000000; stroke-linecap:round; stroke-linejoin:round; stroke-width:4; stroke-opacity:1; fill:none" points="1950.66,1423.18 1950.66,1404.28 "/>
<path clip-path="url(#clip760)" d="M654.923 1451.02 L673.28 1451.02 L673.28 1454.96 L659.206 1454.96 L659.206 1463.43 Q660.224 1463.08 661.243 1462.92 Q662.261 1462.73 663.28 1462.73 Q669.067 1462.73 672.446 1465.9 Q675.826 1469.08 675.826 1474.49 Q675.826 1480.07 672.354 1483.17 Q668.882 1486.25 662.562 1486.25 Q660.386 1486.25 658.118 1485.88 Q655.872 1485.51 653.465 1484.77 L653.465 1480.07 Q655.548 1481.2 657.771 1481.76 Q659.993 1482.32 662.47 1482.32 Q666.474 1482.32 668.812 1480.21 Q671.15 1478.1 671.15 1474.49 Q671.15 1470.88 668.812 1468.77 Q666.474 1466.67 662.47 1466.67 Q660.595 1466.67 658.72 1467.08 Q656.868 1467.5 654.923 1468.38 L654.923 1451.02 Z" fill="#000000" fill-rule="nonzero" fill-opacity="1" /><path clip-path="url(#clip760)" d="M1068.01 1481.64 L1075.64 1481.64 L1075.64 1455.28 L1067.33 1456.95 L1067.33 1452.69 L1075.6 1451.02 L1080.27 1451.02 L1080.27 1481.64 L1087.91 1481.64 L1087.91 1485.58 L1068.01 1485.58 L1068.01 1481.64 Z" fill="#000000" fill-rule="nonzero" fill-opacity="1" /><path clip-path="url(#clip760)" d="M1107.36 1454.1 Q1103.75 1454.1 1101.92 1457.66 Q1100.11 1461.2 1100.11 1468.33 Q1100.11 1475.44 1101.92 1479.01 Q1103.75 1482.55 1107.36 1482.55 Q1110.99 1482.55 1112.8 1479.01 Q1114.63 1475.44 1114.63 1468.33 Q1114.63 1461.2 1112.8 1457.66 Q1110.99 1454.1 1107.36 1454.1 M1107.36 1450.39 Q1113.17 1450.39 1116.22 1455 Q1119.3 1459.58 1119.3 1468.33 Q1119.3 1477.06 1116.22 1481.67 Q1113.17 1486.25 1107.36 1486.25 Q1101.55 1486.25 1098.47 1481.67 Q1095.41 1477.06 1095.41 1468.33 Q1095.41 1459.58 1098.47 1455 Q1101.55 1450.39 1107.36 1450.39 Z" fill="#000000" fill-rule="nonzero" fill-opacity="1" /><path clip-path="url(#clip760)" d="M1497.17 1481.64 L1504.81 1481.64 L1504.81 1455.28 L1496.5 1456.95 L1496.5 1452.69 L1504.77 1451.02 L1509.44 1451.02 L1509.44 1481.64 L1517.08 1481.64 L1517.08 1485.58 L1497.17 1485.58 L1497.17 1481.64 Z" fill="#000000" fill-rule="nonzero" fill-opacity="1" /><path clip-path="url(#clip760)" d="M1526.57 1451.02 L1544.93 1451.02 L1544.93 1454.96 L1530.86 1454.96 L1530.86 1463.43 Q1531.87 1463.08 1532.89 1462.92 Q1533.91 1462.73 1534.93 1462.73 Q1540.72 1462.73 1544.1 1465.9 Q1547.48 1469.08 1547.48 1474.49 Q1547.48 1480.07 1544 1483.17 Q1540.53 1486.25 1534.21 1486.25 Q1532.04 1486.25 1529.77 1485.88 Q1527.52 1485.51 1525.11 1484.77 L1525.11 1480.07 Q1527.2 1481.2 1529.42 1481.76 Q1531.64 1482.32 1534.12 1482.32 Q1538.12 1482.32 1540.46 1480.21 Q1542.8 1478.1 1542.8 1474.49 Q1542.8 1470.88 1540.46 1468.77 Q1538.12 1466.67 1534.12 1466.67 Q1532.24 1466.67 1530.37 1467.08 Q1528.52 1467.5 1526.57 1468.38 L1526.57 1451.02 Z" fill="#000000" fill-rule="nonzero" fill-opacity="1" /><path clip-path="url(#clip760)" d="M1929.43 1481.64 L1945.75 1481.64 L1945.75 1485.58 L1923.81 1485.58 L1923.81 1481.64 Q1926.47 1478.89 1931.06 1474.26 Q1935.66 1469.61 1936.84 1468.27 Q1939.09 1465.74 1939.97 1464.01 Q1940.87 1462.25 1940.87 1460.56 Q1940.87 1457.8 1938.93 1456.07 Q1937 1454.33 1933.9 1454.33 Q1931.7 1454.33 1929.25 1455.09 Q1926.82 1455.86 1924.04 1457.41 L1924.04 1452.69 Q1926.87 1451.55 1929.32 1450.97 Q1931.77 1450.39 1933.81 1450.39 Q1939.18 1450.39 1942.37 1453.08 Q1945.57 1455.77 1945.57 1460.26 Q1945.57 1462.39 1944.76 1464.31 Q1943.97 1466.2 1941.87 1468.8 Q1941.29 1469.47 1938.18 1472.69 Q1935.08 1475.88 1929.43 1481.64 Z" fill="#000000" fill-rule="nonzero" fill-opacity="1" /><path clip-path="url(#clip760)" d="M1965.57 1454.1 Q1961.96 1454.1 1960.13 1457.66 Q1958.32 1461.2 1958.32 1468.33 Q1958.32 1475.44 1960.13 1479.01 Q1961.96 1482.55 1965.57 1482.55 Q1969.2 1482.55 1971.01 1479.01 Q1972.84 1475.44 1972.84 1468.33 Q1972.84 1461.2 1971.01 1457.66 Q1969.2 1454.1 1965.57 1454.1 M1965.57 1450.39 Q1971.38 1450.39 1974.43 1455 Q1977.51 1459.58 1977.51 1468.33 Q1977.51 1477.06 1974.43 1481.67 Q1971.38 1486.25 1965.57 1486.25 Q1959.76 1486.25 1956.68 1481.67 Q1953.62 1477.06 1953.62 1468.33 Q1953.62 1459.58 1956.68 1455 Q1959.76 1450.39 1965.57 1450.39 Z" fill="#000000" fill-rule="nonzero" fill-opacity="1" /><path clip-path="url(#clip760)" d="M1120.15 1520.52 L1160.35 1520.52 L1160.35 1525.93 L1143.48 1525.93 L1143.48 1568.04 L1137.02 1568.04 L1137.02 1525.93 L1120.15 1525.93 L1120.15 1520.52 Z" fill="#000000" fill-rule="nonzero" fill-opacity="1" /><path clip-path="url(#clip760)" d="M1164.3 1532.4 L1170.15 1532.4 L1170.15 1568.04 L1164.3 1568.04 L1164.3 1532.4 M1164.3 1518.52 L1170.15 1518.52 L1170.15 1525.93 L1164.3 1525.93 L1164.3 1518.52 Z" fill="#000000" fill-rule="nonzero" fill-opacity="1" /><path clip-path="url(#clip760)" d="M1210.16 1539.24 Q1212.36 1535.29 1215.41 1533.41 Q1218.47 1531.54 1222.61 1531.54 Q1228.18 1531.54 1231.2 1535.45 Q1234.23 1539.33 1234.23 1546.53 L1234.23 1568.04 L1228.34 1568.04 L1228.34 1546.72 Q1228.34 1541.59 1226.52 1539.11 Q1224.71 1536.63 1220.98 1536.63 Q1216.43 1536.63 1213.79 1539.65 Q1211.15 1542.68 1211.15 1547.9 L1211.15 1568.04 L1205.26 1568.04 L1205.26 1546.72 Q1205.26 1541.56 1203.45 1539.11 Q1201.63 1536.63 1197.85 1536.63 Q1193.36 1536.63 1190.72 1539.68 Q1188.07 1542.71 1188.07 1547.9 L1188.07 1568.04 L1182.19 1568.04 L1182.19 1532.4 L1188.07 1532.4 L1188.07 1537.93 Q1190.08 1534.66 1192.88 1533.1 Q1195.68 1531.54 1199.53 1531.54 Q1203.42 1531.54 1206.12 1533.51 Q1208.86 1535.48 1210.16 1539.24 Z" fill="#000000" fill-rule="nonzero" fill-opacity="1" /><path clip-path="url(#clip760)" d="M1276.4 1548.76 L1276.4 1551.62 L1249.47 1551.62 Q1249.85 1557.67 1253.1 1560.85 Q1256.38 1564 1262.2 1564 Q1265.58 1564 1268.73 1563.17 Q1271.91 1562.35 1275.03 1560.69 L1275.03 1566.23 Q1271.88 1567.57 1268.57 1568.27 Q1265.26 1568.97 1261.85 1568.97 Q1253.32 1568.97 1248.33 1564 Q1243.36 1559.04 1243.36 1550.57 Q1243.36 1541.82 1248.07 1536.69 Q1252.81 1531.54 1260.83 1531.54 Q1268.03 1531.54 1272.2 1536.18 Q1276.4 1540.8 1276.4 1548.76 M1270.54 1547.04 Q1270.48 1542.23 1267.84 1539.37 Q1265.23 1536.5 1260.9 1536.5 Q1256 1536.5 1253.04 1539.27 Q1250.11 1542.04 1249.66 1547.07 L1270.54 1547.04 Z" fill="#000000" fill-rule="nonzero" fill-opacity="1" /><path clip-path="url(#clip760)" d="M1320.8 1518.58 Q1316.53 1525.9 1314.46 1533.06 Q1312.4 1540.23 1312.4 1547.58 Q1312.4 1554.93 1314.46 1562.16 Q1316.57 1569.35 1320.8 1576.64 L1315.71 1576.64 Q1310.93 1569.16 1308.54 1561.93 Q1306.19 1554.71 1306.19 1547.58 Q1306.19 1540.48 1308.54 1533.29 Q1310.9 1526.09 1315.71 1518.58 L1320.8 1518.58 Z" fill="#000000" fill-rule="nonzero" fill-opacity="1" /><path clip-path="url(#clip760)" d="M1361.79 1546.53 L1361.79 1568.04 L1355.94 1568.04 L1355.94 1546.72 Q1355.94 1541.66 1353.96 1539.14 Q1351.99 1536.63 1348.04 1536.63 Q1343.3 1536.63 1340.56 1539.65 Q1337.83 1542.68 1337.83 1547.9 L1337.83 1568.04 L1331.94 1568.04 L1331.94 1518.52 L1337.83 1518.52 L1337.83 1537.93 Q1339.93 1534.72 1342.76 1533.13 Q1345.63 1531.54 1349.35 1531.54 Q1355.49 1531.54 1358.64 1535.36 Q1361.79 1539.14 1361.79 1546.53 Z" fill="#000000" fill-rule="nonzero" fill-opacity="1" /><path clip-path="url(#clip760)" d="M1387.29 1536.5 Q1382.58 1536.5 1379.84 1540.19 Q1377.1 1543.85 1377.1 1550.25 Q1377.1 1556.65 1379.81 1560.34 Q1382.55 1564 1387.29 1564 Q1391.97 1564 1394.7 1560.31 Q1397.44 1556.62 1397.44 1550.25 Q1397.44 1543.92 1394.7 1540.23 Q1391.97 1536.5 1387.29 1536.5 M1387.29 1531.54 Q1394.93 1531.54 1399.29 1536.5 Q1403.65 1541.47 1403.65 1550.25 Q1403.65 1559 1399.29 1564 Q1394.93 1568.97 1387.29 1568.97 Q1379.62 1568.97 1375.26 1564 Q1370.93 1559 1370.93 1550.25 Q1370.93 1541.47 1375.26 1536.5 Q1379.62 1531.54 1387.29 1531.54 Z" fill="#000000" fill-rule="nonzero" fill-opacity="1" /><path clip-path="url(#clip760)" d="M1412.75 1553.98 L1412.75 1532.4 L1418.61 1532.4 L1418.61 1553.75 Q1418.61 1558.81 1420.58 1561.36 Q1422.55 1563.87 1426.5 1563.87 Q1431.24 1563.87 1433.98 1560.85 Q1436.75 1557.83 1436.75 1552.61 L1436.75 1532.4 L1442.61 1532.4 L1442.61 1568.04 L1436.75 1568.04 L1436.75 1562.57 Q1434.62 1565.82 1431.78 1567.41 Q1428.98 1568.97 1425.26 1568.97 Q1419.12 1568.97 1415.93 1565.15 Q1412.75 1561.33 1412.75 1553.98 M1427.49 1531.54 L1427.49 1531.54 Z" fill="#000000" fill-rule="nonzero" fill-opacity="1" /><path clip-path="url(#clip760)" d="M1475.33 1537.87 Q1474.34 1537.3 1473.16 1537.04 Q1472.02 1536.76 1470.62 1536.76 Q1465.65 1536.76 1462.98 1540 Q1460.34 1543.22 1460.34 1549.27 L1460.34 1568.04 L1454.45 1568.04 L1454.45 1532.4 L1460.34 1532.4 L1460.34 1537.93 Q1462.18 1534.69 1465.14 1533.13 Q1468.1 1531.54 1472.33 1531.54 Q1472.94 1531.54 1473.67 1531.63 Q1474.4 1531.7 1475.29 1531.85 L1475.33 1537.87 Z" fill="#000000" fill-rule="nonzero" fill-opacity="1" /><path clip-path="url(#clip760)" d="M1480.55 1518.58 L1485.64 1518.58 Q1490.41 1526.09 1492.77 1533.29 Q1495.16 1540.48 1495.16 1547.58 Q1495.16 1554.71 1492.77 1561.93 Q1490.41 1569.16 1485.64 1576.64 L1480.55 1576.64 Q1484.78 1569.35 1486.85 1562.16 Q1488.95 1554.93 1488.95 1547.58 Q1488.95 1540.23 1486.85 1533.06 Q1484.78 1525.9 1480.55 1518.58 Z" fill="#000000" fill-rule="nonzero" fill-opacity="1" /><polyline clip-path="url(#clip762)" style="stroke:#000000; stroke-linecap:round; stroke-linejoin:round; stroke-width:2; stroke-opacity:0.1; fill:none" points="262.551,1411.39 2352.76,1411.39 "/>
<polyline clip-path="url(#clip762)" style="stroke:#000000; stroke-linecap:round; stroke-linejoin:round; stroke-width:2; stroke-opacity:0.1; fill:none" points="262.551,1127.14 2352.76,1127.14 "/>
<polyline clip-path="url(#clip762)" style="stroke:#000000; stroke-linecap:round; stroke-linejoin:round; stroke-width:2; stroke-opacity:0.1; fill:none" points="262.551,842.877 2352.76,842.877 "/>
<polyline clip-path="url(#clip762)" style="stroke:#000000; stroke-linecap:round; stroke-linejoin:round; stroke-width:2; stroke-opacity:0.1; fill:none" points="262.551,558.619 2352.76,558.619 "/>
<polyline clip-path="url(#clip762)" style="stroke:#000000; stroke-linecap:round; stroke-linejoin:round; stroke-width:2; stroke-opacity:0.1; fill:none" points="262.551,274.361 2352.76,274.361 "/>
<polyline clip-path="url(#clip760)" style="stroke:#000000; stroke-linecap:round; stroke-linejoin:round; stroke-width:4; stroke-opacity:1; fill:none" points="262.551,1423.18 262.551,123.472 "/>
<polyline clip-path="url(#clip760)" style="stroke:#000000; stroke-linecap:round; stroke-linejoin:round; stroke-width:4; stroke-opacity:1; fill:none" points="262.551,1411.39 281.449,1411.39 "/>
<polyline clip-path="url(#clip760)" style="stroke:#000000; stroke-linecap:round; stroke-linejoin:round; stroke-width:4; stroke-opacity:1; fill:none" points="262.551,1127.14 281.449,1127.14 "/>
<polyline clip-path="url(#clip760)" style="stroke:#000000; stroke-linecap:round; stroke-linejoin:round; stroke-width:4; stroke-opacity:1; fill:none" points="262.551,842.877 281.449,842.877 "/>
<polyline clip-path="url(#clip760)" style="stroke:#000000; stroke-linecap:round; stroke-linejoin:round; stroke-width:4; stroke-opacity:1; fill:none" points="262.551,558.619 281.449,558.619 "/>
<polyline clip-path="url(#clip760)" style="stroke:#000000; stroke-linecap:round; stroke-linejoin:round; stroke-width:4; stroke-opacity:1; fill:none" points="262.551,274.361 281.449,274.361 "/>
<path clip-path="url(#clip760)" d="M214.607 1397.19 Q210.996 1397.19 209.167 1400.76 Q207.362 1404.3 207.362 1411.43 Q207.362 1418.53 209.167 1422.1 Q210.996 1425.64 214.607 1425.64 Q218.241 1425.64 220.047 1422.1 Q221.875 1418.53 221.875 1411.43 Q221.875 1404.3 220.047 1400.76 Q218.241 1397.19 214.607 1397.19 M214.607 1393.49 Q220.417 1393.49 223.473 1398.09 Q226.551 1402.68 226.551 1411.43 Q226.551 1420.15 223.473 1424.76 Q220.417 1429.34 214.607 1429.34 Q208.797 1429.34 205.718 1424.76 Q202.662 1420.15 202.662 1411.43 Q202.662 1402.68 205.718 1398.09 Q208.797 1393.49 214.607 1393.49 Z" fill="#000000" fill-rule="nonzero" fill-opacity="1" /><path clip-path="url(#clip760)" d="M148.311 1140.48 L164.63 1140.48 L164.63 1144.42 L142.686 1144.42 L142.686 1140.48 Q145.348 1137.73 149.931 1133.1 Q154.538 1128.44 155.718 1127.1 Q157.964 1124.58 158.843 1122.84 Q159.746 1121.08 159.746 1119.39 Q159.746 1116.64 157.802 1114.9 Q155.88 1113.17 152.778 1113.17 Q150.579 1113.17 148.126 1113.93 Q145.695 1114.69 142.917 1116.24 L142.917 1111.52 Q145.741 1110.39 148.195 1109.81 Q150.649 1109.23 152.686 1109.23 Q158.056 1109.23 161.251 1111.92 Q164.445 1114.6 164.445 1119.09 Q164.445 1121.22 163.635 1123.14 Q162.848 1125.04 160.741 1127.63 Q160.163 1128.3 157.061 1131.52 Q153.959 1134.72 148.311 1140.48 Z" fill="#000000" fill-rule="nonzero" fill-opacity="1" /><path clip-path="url(#clip760)" d="M174.491 1109.86 L192.848 1109.86 L192.848 1113.79 L178.774 1113.79 L178.774 1122.26 Q179.792 1121.92 180.811 1121.75 Q181.829 1121.57 182.848 1121.57 Q188.635 1121.57 192.014 1124.74 Q195.394 1127.91 195.394 1133.33 Q195.394 1138.91 191.922 1142.01 Q188.45 1145.09 182.13 1145.09 Q179.954 1145.09 177.686 1144.72 Q175.44 1144.35 173.033 1143.61 L173.033 1138.91 Q175.116 1140.04 177.339 1140.6 Q179.561 1141.15 182.038 1141.15 Q186.042 1141.15 188.38 1139.04 Q190.718 1136.94 190.718 1133.33 Q190.718 1129.72 188.38 1127.61 Q186.042 1125.5 182.038 1125.5 Q180.163 1125.5 178.288 1125.92 Q176.436 1126.34 174.491 1127.22 L174.491 1109.86 Z" fill="#000000" fill-rule="nonzero" fill-opacity="1" /><path clip-path="url(#clip760)" d="M214.607 1112.93 Q210.996 1112.93 209.167 1116.5 Q207.362 1120.04 207.362 1127.17 Q207.362 1134.28 209.167 1137.84 Q210.996 1141.38 214.607 1141.38 Q218.241 1141.38 220.047 1137.84 Q221.875 1134.28 221.875 1127.17 Q221.875 1120.04 220.047 1116.5 Q218.241 1112.93 214.607 1112.93 M214.607 1109.23 Q220.417 1109.23 223.473 1113.84 Q226.551 1118.42 226.551 1127.17 Q226.551 1135.9 223.473 1140.5 Q220.417 1145.09 214.607 1145.09 Q208.797 1145.09 205.718 1140.5 Q202.662 1135.9 202.662 1127.17 Q202.662 1118.42 205.718 1113.84 Q208.797 1109.23 214.607 1109.23 Z" fill="#000000" fill-rule="nonzero" fill-opacity="1" /><path clip-path="url(#clip760)" d="M144.329 825.597 L162.686 825.597 L162.686 829.532 L148.612 829.532 L148.612 838.005 Q149.63 837.657 150.649 837.495 Q151.667 837.31 152.686 837.31 Q158.473 837.31 161.852 840.481 Q165.232 843.653 165.232 849.069 Q165.232 854.648 161.76 857.75 Q158.288 860.829 151.968 860.829 Q149.792 860.829 147.524 860.458 Q145.279 860.088 142.871 859.347 L142.871 854.648 Q144.954 855.782 147.177 856.338 Q149.399 856.893 151.876 856.893 Q155.88 856.893 158.218 854.787 Q160.556 852.68 160.556 849.069 Q160.556 845.458 158.218 843.352 Q155.88 841.245 151.876 841.245 Q150.001 841.245 148.126 841.662 Q146.274 842.079 144.329 842.958 L144.329 825.597 Z" fill="#000000" fill-rule="nonzero" fill-opacity="1" /><path clip-path="url(#clip760)" d="M184.445 828.676 Q180.834 828.676 179.005 832.241 Q177.2 835.782 177.2 842.912 Q177.2 850.018 179.005 853.583 Q180.834 857.125 184.445 857.125 Q188.079 857.125 189.885 853.583 Q191.713 850.018 191.713 842.912 Q191.713 835.782 189.885 832.241 Q188.079 828.676 184.445 828.676 M184.445 824.972 Q190.255 824.972 193.311 829.579 Q196.389 834.162 196.389 842.912 Q196.389 851.639 193.311 856.245 Q190.255 860.829 184.445 860.829 Q178.635 860.829 175.556 856.245 Q172.501 851.639 172.501 842.912 Q172.501 834.162 175.556 829.579 Q178.635 824.972 184.445 824.972 Z" fill="#000000" fill-rule="nonzero" fill-opacity="1" /><path clip-path="url(#clip760)" d="M214.607 828.676 Q210.996 828.676 209.167 832.241 Q207.362 835.782 207.362 842.912 Q207.362 850.018 209.167 853.583 Q210.996 857.125 214.607 857.125 Q218.241 857.125 220.047 853.583 Q221.875 850.018 221.875 842.912 Q221.875 835.782 220.047 832.241 Q218.241 828.676 214.607 828.676 M214.607 824.972 Q220.417 824.972 223.473 829.579 Q226.551 834.162 226.551 842.912 Q226.551 851.639 223.473 856.245 Q220.417 860.829 214.607 860.829 Q208.797 860.829 205.718 856.245 Q202.662 851.639 202.662 842.912 Q202.662 834.162 205.718 829.579 Q208.797 824.972 214.607 824.972 Z" fill="#000000" fill-rule="nonzero" fill-opacity="1" /><path clip-path="url(#clip760)" d="M143.103 541.339 L165.325 541.339 L165.325 543.33 L152.778 575.899 L147.894 575.899 L159.7 545.274 L143.103 545.274 L143.103 541.339 Z" fill="#000000" fill-rule="nonzero" fill-opacity="1" /><path clip-path="url(#clip760)" d="M174.491 541.339 L192.848 541.339 L192.848 545.274 L178.774 545.274 L178.774 553.747 Q179.792 553.399 180.811 553.237 Q181.829 553.052 182.848 553.052 Q188.635 553.052 192.014 556.223 Q195.394 559.395 195.394 564.811 Q195.394 570.39 191.922 573.492 Q188.45 576.571 182.13 576.571 Q179.954 576.571 177.686 576.2 Q175.44 575.83 173.033 575.089 L173.033 570.39 Q175.116 571.524 177.339 572.08 Q179.561 572.635 182.038 572.635 Q186.042 572.635 188.38 570.529 Q190.718 568.422 190.718 564.811 Q190.718 561.2 188.38 559.094 Q186.042 556.987 182.038 556.987 Q180.163 556.987 178.288 557.404 Q176.436 557.821 174.491 558.7 L174.491 541.339 Z" fill="#000000" fill-rule="nonzero" fill-opacity="1" /><path clip-path="url(#clip760)" d="M214.607 544.418 Q210.996 544.418 209.167 547.983 Q207.362 551.524 207.362 558.654 Q207.362 565.76 209.167 569.325 Q210.996 572.867 214.607 572.867 Q218.241 572.867 220.047 569.325 Q221.875 565.76 221.875 558.654 Q221.875 551.524 220.047 547.983 Q218.241 544.418 214.607 544.418 M214.607 540.714 Q220.417 540.714 223.473 545.321 Q226.551 549.904 226.551 558.654 Q226.551 567.381 223.473 571.987 Q220.417 576.571 214.607 576.571 Q208.797 576.571 205.718 571.987 Q202.662 567.381 202.662 558.654 Q202.662 549.904 205.718 545.321 Q208.797 540.714 214.607 540.714 Z" fill="#000000" fill-rule="nonzero" fill-opacity="1" /><path clip-path="url(#clip760)" d="M114.931 287.706 L122.57 287.706 L122.57 261.341 L114.26 263.007 L114.26 258.748 L122.524 257.081 L127.2 257.081 L127.2 287.706 L134.839 287.706 L134.839 291.641 L114.931 291.641 L114.931 287.706 Z" fill="#000000" fill-rule="nonzero" fill-opacity="1" /><path clip-path="url(#clip760)" d="M154.283 260.16 Q150.672 260.16 148.843 263.725 Q147.038 267.266 147.038 274.396 Q147.038 281.502 148.843 285.067 Q150.672 288.609 154.283 288.609 Q157.917 288.609 159.723 285.067 Q161.552 281.502 161.552 274.396 Q161.552 267.266 159.723 263.725 Q157.917 260.16 154.283 260.16 M154.283 256.456 Q160.093 256.456 163.149 261.063 Q166.227 265.646 166.227 274.396 Q166.227 283.123 163.149 287.729 Q160.093 292.313 154.283 292.313 Q148.473 292.313 145.394 287.729 Q142.339 283.123 142.339 274.396 Q142.339 265.646 145.394 261.063 Q148.473 256.456 154.283 256.456 Z" fill="#000000" fill-rule="nonzero" fill-opacity="1" /><path clip-path="url(#clip760)" d="M184.445 260.16 Q180.834 260.16 179.005 263.725 Q177.2 267.266 177.2 274.396 Q177.2 281.502 179.005 285.067 Q180.834 288.609 184.445 288.609 Q188.079 288.609 189.885 285.067 Q191.713 281.502 191.713 274.396 Q191.713 267.266 189.885 263.725 Q188.079 260.16 184.445 260.16 M184.445 256.456 Q190.255 256.456 193.311 261.063 Q196.389 265.646 196.389 274.396 Q196.389 283.123 193.311 287.729 Q190.255 292.313 184.445 292.313 Q178.635 292.313 175.556 287.729 Q172.501 283.123 172.501 274.396 Q172.501 265.646 175.556 261.063 Q178.635 256.456 184.445 256.456 Z" fill="#000000" fill-rule="nonzero" fill-opacity="1" /><path clip-path="url(#clip760)" d="M214.607 260.16 Q210.996 260.16 209.167 263.725 Q207.362 267.266 207.362 274.396 Q207.362 281.502 209.167 285.067 Q210.996 288.609 214.607 288.609 Q218.241 288.609 220.047 285.067 Q221.875 281.502 221.875 274.396 Q221.875 267.266 220.047 263.725 Q218.241 260.16 214.607 260.16 M214.607 256.456 Q220.417 256.456 223.473 261.063 Q226.551 265.646 226.551 274.396 Q226.551 283.123 223.473 287.729 Q220.417 292.313 214.607 292.313 Q208.797 292.313 205.718 287.729 Q202.662 283.123 202.662 274.396 Q202.662 265.646 205.718 261.063 Q208.797 256.456 214.607 256.456 Z" fill="#000000" fill-rule="nonzero" fill-opacity="1" /><path clip-path="url(#clip760)" d="M16.4842 973.925 L16.4842 967.496 L64.0042 967.496 L64.0042 973.925 L16.4842 973.925 Z" fill="#000000" fill-rule="nonzero" fill-opacity="1" /><path clip-path="url(#clip760)" d="M42.4881 925.323 L64.0042 925.323 L64.0042 931.18 L42.679 931.18 Q37.6183 931.18 35.1038 933.153 Q32.5894 935.126 32.5894 939.073 Q32.5894 943.816 35.6131 946.553 Q38.6368 949.29 43.8567 949.29 L64.0042 949.29 L64.0042 955.178 L28.3562 955.178 L28.3562 949.29 L33.8944 949.29 Q30.6797 947.189 29.0883 944.357 Q27.4968 941.492 27.4968 937.768 Q27.4968 931.625 31.3163 928.474 Q35.1038 925.323 42.4881 925.323 Z" fill="#000000" fill-rule="nonzero" fill-opacity="1" /><path clip-path="url(#clip760)" d="M29.7248 887.988 L35.1993 887.988 Q33.8307 890.471 33.1623 892.985 Q32.4621 895.468 32.4621 898.014 Q32.4621 903.712 36.0905 906.863 Q39.6872 910.014 46.212 910.014 Q52.7369 910.014 56.3653 906.863 Q59.9619 903.712 59.9619 898.014 Q59.9619 895.468 59.2935 892.985 Q58.5933 890.471 57.2247 887.988 L62.6355 887.988 Q63.7814 890.439 64.3543 893.081 Q64.9272 895.691 64.9272 898.651 Q64.9272 906.703 59.8664 911.446 Q54.8057 916.188 46.212 916.188 Q37.491 916.188 32.4939 911.414 Q27.4968 906.608 27.4968 898.269 Q27.4968 895.563 28.0697 892.985 Q28.6108 890.407 29.7248 887.988 Z" fill="#000000" fill-rule="nonzero" fill-opacity="1" /><path clip-path="url(#clip760)" d="M44.7161 847.311 L47.5806 847.311 L47.5806 874.238 Q53.6281 873.856 56.8109 870.61 Q59.9619 867.332 59.9619 861.507 Q59.9619 858.133 59.1344 854.982 Q58.3069 851.799 56.6518 848.68 L62.1899 848.68 Q63.5267 851.831 64.227 855.141 Q64.9272 858.451 64.9272 861.857 Q64.9272 870.387 59.9619 875.384 Q54.9967 880.349 46.5303 880.349 Q37.7774 880.349 32.6531 875.639 Q27.4968 870.896 27.4968 862.876 Q27.4968 855.682 32.1438 851.513 Q36.7589 847.311 44.7161 847.311 M42.9973 853.168 Q38.1912 853.232 35.3266 855.873 Q32.4621 858.483 32.4621 862.812 Q32.4621 867.713 35.2312 870.674 Q38.0002 873.602 43.0292 874.047 L42.9973 853.168 Z" fill="#000000" fill-rule="nonzero" fill-opacity="1" /><path clip-path="url(#clip760)" d="M42.4881 808.067 L64.0042 808.067 L64.0042 813.923 L42.679 813.923 Q37.6183 813.923 35.1038 815.897 Q32.5894 817.87 32.5894 821.817 Q32.5894 826.559 35.6131 829.296 Q38.6368 832.034 43.8567 832.034 L64.0042 832.034 L64.0042 837.922 L28.3562 837.922 L28.3562 832.034 L33.8944 832.034 Q30.6797 829.933 29.0883 827.1 Q27.4968 824.236 27.4968 820.512 Q27.4968 814.369 31.3163 811.218 Q35.1038 808.067 42.4881 808.067 Z" fill="#000000" fill-rule="nonzero" fill-opacity="1" /><path clip-path="url(#clip760)" d="M18.2347 790.593 L28.3562 790.593 L28.3562 778.53 L32.9077 778.53 L32.9077 790.593 L52.2594 790.593 Q56.6199 790.593 57.8613 789.415 Q59.1026 788.206 59.1026 784.546 L59.1026 778.53 L64.0042 778.53 L64.0042 784.546 Q64.0042 791.325 61.4897 793.903 Q58.9434 796.481 52.2594 796.481 L32.9077 796.481 L32.9077 800.778 L28.3562 800.778 L28.3562 796.481 L18.2347 796.481 L18.2347 790.593 Z" fill="#000000" fill-rule="nonzero" fill-opacity="1" /><path clip-path="url(#clip760)" d="M28.3562 770.827 L28.3562 764.971 L64.0042 764.971 L64.0042 770.827 L28.3562 770.827 M14.479 770.827 L14.479 764.971 L21.895 764.971 L21.895 770.827 L14.479 770.827 Z" fill="#000000" fill-rule="nonzero" fill-opacity="1" /><path clip-path="url(#clip760)" d="M28.3562 756.918 L28.3562 750.712 L58.275 739.572 L28.3562 728.432 L28.3562 722.225 L64.0042 735.593 L64.0042 743.55 L28.3562 756.918 Z" fill="#000000" fill-rule="nonzero" fill-opacity="1" /><path clip-path="url(#clip760)" d="M44.7161 683.649 L47.5806 683.649 L47.5806 710.576 Q53.6281 710.194 56.8109 706.948 Q59.9619 703.669 59.9619 697.845 Q59.9619 694.471 59.1344 691.32 Q58.3069 688.137 56.6518 685.018 L62.1899 685.018 Q63.5267 688.169 64.227 691.479 Q64.9272 694.789 64.9272 698.195 Q64.9272 706.725 59.9619 711.722 Q54.9967 716.687 46.5303 716.687 Q37.7774 716.687 32.6531 711.976 Q27.4968 707.234 27.4968 699.213 Q27.4968 692.02 32.1438 687.85 Q36.7589 683.649 44.7161 683.649 M42.9973 689.506 Q38.1912 689.569 35.3266 692.211 Q32.4621 694.821 32.4621 699.15 Q32.4621 704.051 35.2312 707.011 Q38.0002 709.939 43.0292 710.385 L42.9973 689.506 Z" fill="#000000" fill-rule="nonzero" fill-opacity="1" /><path clip-path="url(#clip760)" d="M14.5426 639.248 Q21.8632 643.513 29.0246 645.582 Q36.186 647.651 43.5384 647.651 Q50.8908 647.651 58.1159 645.582 Q65.3091 643.481 72.5979 639.248 L72.5979 644.341 Q65.1182 649.115 57.8931 651.502 Q50.668 653.858 43.5384 653.858 Q36.4406 653.858 29.2474 651.502 Q22.0542 649.147 14.5426 644.341 L14.5426 639.248 Z" fill="#000000" fill-rule="nonzero" fill-opacity="1" /><path clip-path="url(#clip760)" d="M73.5845 612.003 L73.5845 615.186 L64.0042 615.218 Q63.9405 618.56 63.2403 621.902 Q62.5082 625.244 61.0759 628.618 L55.3468 628.618 Q57.3838 625.371 58.4342 622.061 Q59.4527 618.719 59.4845 615.186 L44.9707 615.186 Q43.8249 622.22 41.0876 625.435 Q38.3504 628.618 33.5761 628.618 Q28.388 628.618 25.3961 625.148 Q22.4043 621.679 21.9587 615.186 L14.479 615.186 L14.479 612.003 L21.8632 612.003 Q21.9905 609.043 22.4998 606.274 Q22.9772 603.505 23.8365 600.863 L29.4065 600.863 Q28.0697 603.505 27.3377 606.306 Q26.6056 609.075 26.4783 612.003 L40.0691 612.003 Q41.1831 604.778 44.0477 601.372 Q46.9122 597.967 51.8775 597.967 Q57.2565 597.967 60.3757 601.595 Q63.4631 605.192 63.9405 612.003 L73.5845 612.003 M39.4962 615.186 L26.4465 615.186 Q26.8603 618.878 28.5472 620.82 Q30.2341 622.761 33.035 622.761 Q35.7722 622.761 37.3 620.979 Q38.8278 619.164 39.4962 615.186 M45.6073 612.003 L59.389 612.003 Q58.8479 607.961 57.0974 605.924 Q55.3468 603.855 52.4822 603.855 Q49.6813 603.855 48.0262 605.828 Q46.3712 607.77 45.6073 612.003 Z" fill="#000000" fill-rule="nonzero" fill-opacity="1" /><path clip-path="url(#clip760)" d="M14.5426 587.336 L14.5426 582.243 Q22.0542 577.469 29.2474 575.114 Q36.4406 572.727 43.5384 572.727 Q50.668 572.727 57.8931 575.114 Q65.1182 577.469 72.5979 582.243 L72.5979 587.336 Q65.3091 583.103 58.1159 581.034 Q50.8908 578.933 43.5384 578.933 Q36.186 578.933 29.0246 581.034 Q21.8632 583.103 14.5426 587.336 Z" fill="#000000" fill-rule="nonzero" fill-opacity="1" /><path clip-path="url(#clip760)" d="M721.812 17.6457 Q712.9 17.6457 707.634 24.2892 Q702.408 30.9327 702.408 42.3968 Q702.408 53.8203 707.634 60.4638 Q712.9 67.1073 721.812 67.1073 Q730.724 67.1073 735.909 60.4638 Q741.135 53.8203 741.135 42.3968 Q741.135 30.9327 735.909 24.2892 Q730.724 17.6457 721.812 17.6457 M721.812 11.0023 Q734.532 11.0023 742.147 19.5497 Q749.763 28.0566 749.763 42.3968 Q749.763 56.6965 742.147 65.2439 Q734.532 73.7508 721.812 73.7508 Q709.051 73.7508 701.395 65.2439 Q693.78 56.737 693.78 42.3968 Q693.78 28.0566 701.395 19.5497 Q709.051 11.0023 721.812 11.0023 Z" fill="#000000" fill-rule="nonzero" fill-opacity="1" /><path clip-path="url(#clip760)" d="M769.45 65.7705 L769.45 89.8329 L761.956 89.8329 L761.956 27.2059 L769.45 27.2059 L769.45 34.0924 Q771.8 30.0415 775.365 28.0971 Q778.97 26.1121 783.953 26.1121 Q792.217 26.1121 797.361 32.6746 Q802.546 39.2371 802.546 49.9314 Q802.546 60.6258 797.361 67.1883 Q792.217 73.7508 783.953 73.7508 Q778.97 73.7508 775.365 71.8063 Q771.8 69.8214 769.45 65.7705 M794.809 49.9314 Q794.809 41.7081 791.406 37.0496 Q788.044 32.3505 782.13 32.3505 Q776.215 32.3505 772.813 37.0496 Q769.45 41.7081 769.45 49.9314 Q769.45 58.1548 772.813 62.8538 Q776.215 67.5124 782.13 67.5124 Q788.044 67.5124 791.406 62.8538 Q794.809 58.1548 794.809 49.9314 Z" fill="#000000" fill-rule="nonzero" fill-opacity="1" /><path clip-path="url(#clip760)" d="M822.274 14.324 L822.274 27.2059 L837.627 27.2059 L837.627 32.9987 L822.274 32.9987 L822.274 57.6282 Q822.274 63.1779 823.773 64.7578 Q825.312 66.3376 829.971 66.3376 L837.627 66.3376 L837.627 72.576 L829.971 72.576 Q821.343 72.576 818.061 69.3758 Q814.78 66.1351 814.78 57.6282 L814.78 32.9987 L809.311 32.9987 L809.311 27.2059 L814.78 27.2059 L814.78 14.324 L822.274 14.324 Z" fill="#000000" fill-rule="nonzero" fill-opacity="1" /><path clip-path="url(#clip760)" d="M847.43 27.2059 L854.884 27.2059 L854.884 72.576 L847.43 72.576 L847.43 27.2059 M847.43 9.54393 L854.884 9.54393 L854.884 18.9825 L847.43 18.9825 L847.43 9.54393 Z" fill="#000000" fill-rule="nonzero" fill-opacity="1" /><path clip-path="url(#clip760)" d="M905.804 35.9153 Q908.599 30.8922 912.488 28.5022 Q916.377 26.1121 921.643 26.1121 Q928.732 26.1121 932.58 31.0947 Q936.429 36.0368 936.429 45.1919 L936.429 72.576 L928.935 72.576 L928.935 45.4349 Q928.935 38.913 926.626 35.7533 Q924.316 32.5936 919.577 32.5936 Q913.784 32.5936 910.422 36.4419 Q907.06 40.2903 907.06 46.9338 L907.06 72.576 L899.565 72.576 L899.565 45.4349 Q899.565 38.8725 897.256 35.7533 Q894.947 32.5936 890.127 32.5936 Q884.415 32.5936 881.053 36.4824 Q877.691 40.3308 877.691 46.9338 L877.691 72.576 L870.196 72.576 L870.196 27.2059 L877.691 27.2059 L877.691 34.2544 Q880.243 30.082 883.807 28.0971 Q887.372 26.1121 892.274 26.1121 Q897.216 26.1121 900.659 28.6237 Q904.143 31.1352 905.804 35.9153 Z" fill="#000000" fill-rule="nonzero" fill-opacity="1" /><path clip-path="url(#clip760)" d="M971.915 49.7694 Q962.881 49.7694 959.397 51.8354 Q955.914 53.9013 955.914 58.8839 Q955.914 62.8538 958.506 65.2034 Q961.139 67.5124 965.636 67.5124 Q971.834 67.5124 975.56 63.1374 Q979.328 58.7219 979.328 51.4303 L979.328 49.7694 L971.915 49.7694 M986.781 46.6907 L986.781 72.576 L979.328 72.576 L979.328 65.6895 Q976.776 69.8214 972.968 71.8063 Q969.16 73.7508 963.651 73.7508 Q956.683 73.7508 952.551 69.8619 Q948.46 65.9325 948.46 59.3701 Q948.46 51.7138 953.564 47.825 Q958.709 43.9361 968.876 43.9361 L979.328 43.9361 L979.328 43.2069 Q979.328 38.0623 975.925 35.2672 Q972.563 32.4315 966.446 32.4315 Q962.557 32.4315 958.871 33.3632 Q955.184 34.295 951.782 36.1584 L951.782 29.2718 Q955.873 27.692 959.721 26.9223 Q963.57 26.1121 967.216 26.1121 Q977.059 26.1121 981.92 31.2163 Q986.781 36.3204 986.781 46.6907 Z" fill="#000000" fill-rule="nonzero" fill-opacity="1" /><path clip-path="url(#clip760)" d="M1002.13 9.54393 L1009.59 9.54393 L1009.59 72.576 L1002.13 72.576 L1002.13 9.54393 Z" fill="#000000" fill-rule="nonzero" fill-opacity="1" /><path clip-path="url(#clip760)" d="M1051.88 12.096 L1060.06 12.096 L1060.06 72.576 L1051.88 72.576 L1051.88 12.096 Z" fill="#000000" fill-rule="nonzero" fill-opacity="1" /><path clip-path="url(#clip760)" d="M1113.74 45.1919 L1113.74 72.576 L1106.28 72.576 L1106.28 45.4349 Q1106.28 38.994 1103.77 35.7938 Q1101.26 32.5936 1096.24 32.5936 Q1090.2 32.5936 1086.72 36.4419 Q1083.23 40.2903 1083.23 46.9338 L1083.23 72.576 L1075.74 72.576 L1075.74 27.2059 L1083.23 27.2059 L1083.23 34.2544 Q1085.91 30.163 1089.51 28.1376 Q1093.16 26.1121 1097.9 26.1121 Q1105.72 26.1121 1109.73 30.9732 Q1113.74 35.7938 1113.74 45.1919 Z" fill="#000000" fill-rule="nonzero" fill-opacity="1" /><path clip-path="url(#clip760)" d="M1161.25 28.9478 L1161.25 35.9153 Q1158.09 34.1734 1154.89 33.3227 Q1151.73 32.4315 1148.49 32.4315 Q1141.24 32.4315 1137.23 37.0496 Q1133.22 41.6271 1133.22 49.9314 Q1133.22 58.2358 1137.23 62.8538 Q1141.24 67.4314 1148.49 67.4314 Q1151.73 67.4314 1154.89 66.5807 Q1158.09 65.6895 1161.25 63.9476 L1161.25 70.8341 Q1158.13 72.2924 1154.77 73.0216 Q1151.45 73.7508 1147.68 73.7508 Q1137.43 73.7508 1131.4 67.3098 Q1125.36 60.8689 1125.36 49.9314 Q1125.36 38.832 1131.44 32.472 Q1137.56 26.1121 1148.17 26.1121 Q1151.61 26.1121 1154.89 26.8413 Q1158.18 27.5299 1161.25 28.9478 Z" fill="#000000" fill-rule="nonzero" fill-opacity="1" /><path clip-path="url(#clip760)" d="M1213.02 48.0275 L1213.02 51.6733 L1178.75 51.6733 Q1179.24 59.3701 1183.37 63.421 Q1187.54 67.4314 1194.96 67.4314 Q1199.25 67.4314 1203.26 66.3781 Q1207.31 65.3249 1211.28 63.2184 L1211.28 70.267 Q1207.27 71.9684 1203.06 72.8596 Q1198.85 73.7508 1194.51 73.7508 Q1183.66 73.7508 1177.3 67.4314 Q1170.98 61.1119 1170.98 50.3365 Q1170.98 39.1965 1176.97 32.6746 Q1183.01 26.1121 1193.22 26.1121 Q1202.37 26.1121 1207.68 32.0264 Q1213.02 37.9003 1213.02 48.0275 M1205.57 45.84 Q1205.49 39.7232 1202.13 36.0774 Q1198.81 32.4315 1193.3 32.4315 Q1187.06 32.4315 1183.29 35.9558 Q1179.56 39.4801 1179 45.8805 L1205.57 45.84 Z" fill="#000000" fill-rule="nonzero" fill-opacity="1" /><path clip-path="url(#clip760)" d="M1262.97 45.1919 L1262.97 72.576 L1255.52 72.576 L1255.52 45.4349 Q1255.52 38.994 1253.01 35.7938 Q1250.5 32.5936 1245.47 32.5936 Q1239.44 32.5936 1235.95 36.4419 Q1232.47 40.2903 1232.47 46.9338 L1232.47 72.576 L1224.97 72.576 L1224.97 27.2059 L1232.47 27.2059 L1232.47 34.2544 Q1235.14 30.163 1238.75 28.1376 Q1242.39 26.1121 1247.13 26.1121 Q1254.95 26.1121 1258.96 30.9732 Q1262.97 35.7938 1262.97 45.1919 Z" fill="#000000" fill-rule="nonzero" fill-opacity="1" /><path clip-path="url(#clip760)" d="M1285.21 14.324 L1285.21 27.2059 L1300.56 27.2059 L1300.56 32.9987 L1285.21 32.9987 L1285.21 57.6282 Q1285.21 63.1779 1286.71 64.7578 Q1288.25 66.3376 1292.91 66.3376 L1300.56 66.3376 L1300.56 72.576 L1292.91 72.576 Q1284.28 72.576 1281 69.3758 Q1277.72 66.1351 1277.72 57.6282 L1277.72 32.9987 L1272.25 32.9987 L1272.25 27.2059 L1277.72 27.2059 L1277.72 14.324 L1285.21 14.324 Z" fill="#000000" fill-rule="nonzero" fill-opacity="1" /><path clip-path="url(#clip760)" d="M1310.37 27.2059 L1317.82 27.2059 L1317.82 72.576 L1310.37 72.576 L1310.37 27.2059 M1310.37 9.54393 L1317.82 9.54393 L1317.82 18.9825 L1310.37 18.9825 L1310.37 9.54393 Z" fill="#000000" fill-rule="nonzero" fill-opacity="1" /><path clip-path="url(#clip760)" d="M1328.07 27.2059 L1335.97 27.2059 L1350.15 65.2844 L1364.33 27.2059 L1372.22 27.2059 L1355.21 72.576 L1345.08 72.576 L1328.07 27.2059 Z" fill="#000000" fill-rule="nonzero" fill-opacity="1" /><path clip-path="url(#clip760)" d="M1421.32 48.0275 L1421.32 51.6733 L1387.05 51.6733 Q1387.54 59.3701 1391.67 63.421 Q1395.84 67.4314 1403.25 67.4314 Q1407.55 67.4314 1411.56 66.3781 Q1415.61 65.3249 1419.58 63.2184 L1419.58 70.267 Q1415.57 71.9684 1411.36 72.8596 Q1407.14 73.7508 1402.81 73.7508 Q1391.95 73.7508 1385.59 67.4314 Q1379.27 61.1119 1379.27 50.3365 Q1379.27 39.1965 1385.27 32.6746 Q1391.3 26.1121 1401.51 26.1121 Q1410.67 26.1121 1415.97 32.0264 Q1421.32 37.9003 1421.32 48.0275 M1413.87 45.84 Q1413.79 39.7232 1410.43 36.0774 Q1407.1 32.4315 1401.59 32.4315 Q1395.36 32.4315 1391.59 35.9558 Q1387.86 39.4801 1387.29 45.8805 L1413.87 45.84 Z" fill="#000000" fill-rule="nonzero" fill-opacity="1" /><path clip-path="url(#clip760)" d="M1477.83 9.62495 Q1472.4 18.942 1469.77 28.0566 Q1467.14 37.1711 1467.14 46.5287 Q1467.14 55.8863 1469.77 65.0818 Q1472.44 74.2369 1477.83 83.5134 L1471.35 83.5134 Q1465.27 73.9938 1462.24 64.7983 Q1459.24 55.6027 1459.24 46.5287 Q1459.24 37.4952 1462.24 28.3401 Q1465.23 19.1851 1471.35 9.62495 L1477.83 9.62495 Z" fill="#000000" fill-rule="nonzero" fill-opacity="1" /><path clip-path="url(#clip760)" d="M1528.87 14.0809 L1528.87 22.0612 Q1524.21 19.8332 1520.08 18.7395 Q1515.95 17.6457 1512.1 17.6457 Q1505.42 17.6457 1501.77 20.2383 Q1498.17 22.8309 1498.17 27.611 Q1498.17 31.6214 1500.56 33.6873 Q1502.99 35.7128 1509.71 36.9686 L1514.65 37.9813 Q1523.81 39.7232 1528.14 44.1387 Q1532.52 48.5136 1532.52 55.8863 Q1532.52 64.6767 1526.6 69.2137 Q1520.73 73.7508 1509.35 73.7508 Q1505.05 73.7508 1500.19 72.7785 Q1495.37 71.8063 1490.19 69.9024 L1490.19 61.4765 Q1495.17 64.2716 1499.95 65.6895 Q1504.73 67.1073 1509.35 67.1073 Q1516.36 67.1073 1520.16 64.3527 Q1523.97 61.598 1523.97 56.4939 Q1523.97 52.0379 1521.22 49.5264 Q1518.5 47.0148 1512.26 45.759 L1507.28 44.7868 Q1498.13 42.9639 1494.04 39.075 Q1489.94 35.1862 1489.94 28.2591 Q1489.94 20.2383 1495.58 15.6203 Q1501.25 11.0023 1511.17 11.0023 Q1515.42 11.0023 1519.84 11.7719 Q1524.26 12.5416 1528.87 14.0809 Z" fill="#000000" fill-rule="nonzero" fill-opacity="1" /><path clip-path="url(#clip760)" d="M1577.61 28.9478 L1577.61 35.9153 Q1574.45 34.1734 1571.25 33.3227 Q1568.09 32.4315 1564.85 32.4315 Q1557.59 32.4315 1553.58 37.0496 Q1549.57 41.6271 1549.57 49.9314 Q1549.57 58.2358 1553.58 62.8538 Q1557.59 67.4314 1564.85 67.4314 Q1568.09 67.4314 1571.25 66.5807 Q1574.45 65.6895 1577.61 63.9476 L1577.61 70.8341 Q1574.49 72.2924 1571.12 73.0216 Q1567.8 73.7508 1564.04 73.7508 Q1553.79 73.7508 1547.75 67.3098 Q1541.71 60.8689 1541.71 49.9314 Q1541.71 38.832 1547.79 32.472 Q1553.91 26.1121 1564.52 26.1121 Q1567.96 26.1121 1571.25 26.8413 Q1574.53 27.5299 1577.61 28.9478 Z" fill="#000000" fill-rule="nonzero" fill-opacity="1" /><path clip-path="url(#clip760)" d="M1590.57 27.2059 L1598.02 27.2059 L1598.02 72.576 L1590.57 72.576 L1590.57 27.2059 M1590.57 9.54393 L1598.02 9.54393 L1598.02 18.9825 L1590.57 18.9825 L1590.57 9.54393 Z" fill="#000000" fill-rule="nonzero" fill-opacity="1" /><path clip-path="url(#clip760)" d="M1651.33 45.1919 L1651.33 72.576 L1643.88 72.576 L1643.88 45.4349 Q1643.88 38.994 1641.37 35.7938 Q1638.86 32.5936 1633.83 32.5936 Q1627.8 32.5936 1624.31 36.4419 Q1620.83 40.2903 1620.83 46.9338 L1620.83 72.576 L1613.33 72.576 L1613.33 27.2059 L1620.83 27.2059 L1620.83 34.2544 Q1623.5 30.163 1627.11 28.1376 Q1630.75 26.1121 1635.49 26.1121 Q1643.31 26.1121 1647.32 30.9732 Q1651.33 35.7938 1651.33 45.1919 Z" fill="#000000" fill-rule="nonzero" fill-opacity="1" /><path clip-path="url(#clip760)" d="M1686.82 49.7694 Q1677.78 49.7694 1674.3 51.8354 Q1670.82 53.9013 1670.82 58.8839 Q1670.82 62.8538 1673.41 65.2034 Q1676.04 67.5124 1680.54 67.5124 Q1686.74 67.5124 1690.46 63.1374 Q1694.23 58.7219 1694.23 51.4303 L1694.23 49.7694 L1686.82 49.7694 M1701.69 46.6907 L1701.69 72.576 L1694.23 72.576 L1694.23 65.6895 Q1691.68 69.8214 1687.87 71.8063 Q1684.06 73.7508 1678.55 73.7508 Q1671.59 73.7508 1667.45 69.8619 Q1663.36 65.9325 1663.36 59.3701 Q1663.36 51.7138 1668.47 47.825 Q1673.61 43.9361 1683.78 43.9361 L1694.23 43.9361 L1694.23 43.2069 Q1694.23 38.0623 1690.83 35.2672 Q1687.47 32.4315 1681.35 32.4315 Q1677.46 32.4315 1673.77 33.3632 Q1670.09 34.295 1666.69 36.1584 L1666.69 29.2718 Q1670.78 27.692 1674.62 26.9223 Q1678.47 26.1121 1682.12 26.1121 Q1691.96 26.1121 1696.82 31.2163 Q1701.69 36.3204 1701.69 46.6907 Z" fill="#000000" fill-rule="nonzero" fill-opacity="1" /><path clip-path="url(#clip760)" d="M1743.33 34.1734 Q1742.07 33.4443 1740.57 33.1202 Q1739.12 32.7556 1737.33 32.7556 Q1731.01 32.7556 1727.61 36.8875 Q1724.25 40.9789 1724.25 48.6757 L1724.25 72.576 L1716.75 72.576 L1716.75 27.2059 L1724.25 27.2059 L1724.25 34.2544 Q1726.6 30.1225 1730.37 28.1376 Q1734.13 26.1121 1739.52 26.1121 Q1740.29 26.1121 1741.22 26.2337 Q1742.15 26.3147 1743.29 26.5172 L1743.33 34.1734 Z" fill="#000000" fill-rule="nonzero" fill-opacity="1" /><path clip-path="url(#clip760)" d="M1751.15 27.2059 L1758.6 27.2059 L1758.6 72.576 L1751.15 72.576 L1751.15 27.2059 M1751.15 9.54393 L1758.6 9.54393 L1758.6 18.9825 L1751.15 18.9825 L1751.15 9.54393 Z" fill="#000000" fill-rule="nonzero" fill-opacity="1" /><path clip-path="url(#clip760)" d="M1791.78 32.4315 Q1785.78 32.4315 1782.3 37.1306 Q1778.81 41.7891 1778.81 49.9314 Q1778.81 58.0738 1782.26 62.7728 Q1785.74 67.4314 1791.78 67.4314 Q1797.73 67.4314 1801.22 62.7323 Q1804.7 58.0333 1804.7 49.9314 Q1804.7 41.8701 1801.22 37.1711 Q1797.73 32.4315 1791.78 32.4315 M1791.78 26.1121 Q1801.5 26.1121 1807.05 32.4315 Q1812.6 38.7509 1812.6 49.9314 Q1812.6 61.0714 1807.05 67.4314 Q1801.5 73.7508 1791.78 73.7508 Q1782.01 73.7508 1776.46 67.4314 Q1770.96 61.0714 1770.96 49.9314 Q1770.96 38.7509 1776.46 32.4315 Q1782.01 26.1121 1791.78 26.1121 Z" fill="#000000" fill-rule="nonzero" fill-opacity="1" /><path clip-path="url(#clip760)" d="M1853.8 65.6895 L1867.16 65.6895 L1867.16 19.5497 L1852.62 22.4663 L1852.62 15.0127 L1867.08 12.096 L1875.27 12.096 L1875.27 65.6895 L1888.63 65.6895 L1888.63 72.576 L1853.8 72.576 L1853.8 65.6895 Z" fill="#000000" fill-rule="nonzero" fill-opacity="1" /><path clip-path="url(#clip760)" d="M1902.93 9.62495 L1909.42 9.62495 Q1915.49 19.1851 1918.49 28.3401 Q1921.53 37.4952 1921.53 46.5287 Q1921.53 55.6027 1918.49 64.7983 Q1915.49 73.9938 1909.42 83.5134 L1902.93 83.5134 Q1908.32 74.2369 1910.95 65.0818 Q1913.63 55.8863 1913.63 46.5287 Q1913.63 37.1711 1910.95 28.0566 Q1908.32 18.942 1902.93 9.62495 Z" fill="#000000" fill-rule="nonzero" fill-opacity="1" /><polyline clip-path="url(#clip762)" style="stroke:#009af9; stroke-linecap:round; stroke-linejoin:round; stroke-width:4; stroke-opacity:1; fill:none" points="321.708,1256.38 321.708,1191.4 407.442,1191.4 407.442,1187.23 493.177,1187.23 493.177,989.163 578.911,989.163 578.911,1199.68 664.646,1199.68 664.646,1138.61 750.38,1138.61 750.38,1163 836.114,1163 836.114,1086.27 921.849,1086.27 921.849,1287.91 1007.58,1287.91 1007.58,1182.3 1093.32,1182.3 1093.32,1200.47 1179.05,1200.47 1179.05,1190.75 1264.79,1190.75 1264.79,1186.01 1350.52,1186.01 1350.52,1223.47 1436.26,1223.47 1436.26,1148.31 1521.99,1148.31 1521.99,1046.46 1607.72,1046.46 1607.72,946.097 1693.46,946.097 1693.46,1245.64 1779.19,1245.64 1779.19,1163.37 1864.93,1163.37 1864.93,922.274 1950.66,922.274 1950.66,1009.84 2036.4,1009.84 2036.4,1150.29 2122.13,1150.29 2122.13,1202.35 2207.86,1202.35 2207.86,1232.49 2293.6,1232.49 "/>
<polyline clip-path="url(#clip762)" style="stroke:#e26f46; stroke-linecap:round; stroke-linejoin:round; stroke-width:4; stroke-opacity:1; fill:none" points="321.708,1223.67 321.708,1117.23 407.442,1117.23 407.442,1111.73 493.177,1111.73 493.177,849.606 578.911,849.606 578.911,1128.16 664.646,1128.16 664.646,1047.48 750.38,1047.48 750.38,1079.72 836.114,1079.72 836.114,978.241 921.849,978.241 921.849,1244.4 1007.58,1244.4 1007.58,1105.21 1093.32,1105.21 1093.32,1129.21 1179.05,1129.21 1179.05,1116.37 1264.79,1116.37 1264.79,1110.11 1350.52,1110.11 1350.52,1159.56 1436.26,1159.56 1436.26,1060.31 1521.99,1060.31 1521.99,925.521 1607.72,925.521 1607.72,792.505 1693.46,792.505 1693.46,1188.78 1779.19,1188.78 1779.19,1080.2 1864.93,1080.2 1864.93,760.906 1950.66,760.906 1950.66,877.009 2036.4,877.009 2036.4,1062.92 2122.13,1062.92 2122.13,1131.68 2207.86,1131.68 2207.86,1171.44 2293.6,1171.44 "/>
<polyline clip-path="url(#clip762)" style="stroke:#3da44d; stroke-linecap:round; stroke-linejoin:round; stroke-width:4; stroke-opacity:1; fill:none" points="321.708,1327.28 321.708,987.844 407.442,987.844 407.442,980.539 493.177,980.539 493.177,634.518 578.911,634.518 578.911,1002.36 664.646,1002.36 664.646,895.396 750.38,895.396 750.38,938.083 836.114,938.083 836.114,803.912 921.849,803.912 921.849,1157.58 1007.58,1157.58 1007.58,971.89 1093.32,971.89 1093.32,1003.76 1179.05,1003.76 1179.05,986.701 1264.79,986.701 1264.79,978.394 1350.52,978.394 1350.52,1044.14 1436.26,1044.14 1436.26,912.373 1521.99,912.373 1521.99,734.409 1607.72,734.409 1607.72,559.507 1693.46,559.507 1693.46,1083.11 1779.19,1083.11 1779.19,938.729 1864.93,938.729 1864.93,518.037 1950.66,518.037 1950.66,670.552 2036.4,670.552 2036.4,915.827 2122.13,915.827 2122.13,1007.05 2207.86,1007.05 2207.86,1059.97 2293.6,1059.97 "/>
<polyline clip-path="url(#clip762)" style="stroke:#c271d2; stroke-linecap:round; stroke-linejoin:round; stroke-width:4; stroke-opacity:1; fill:none" points="321.708,1367.2 321.708,934.768 407.442,934.768 407.442,926.4 493.177,926.4 493.177,528.141 578.911,528.141 578.911,951.395 664.646,951.395 664.646,828.718 750.38,828.718 750.38,877.725 836.114,877.725 836.114,723.498 921.849,723.498 921.849,1128.38 1007.58,1128.38 1007.58,916.49 1093.32,916.49 1093.32,952.994 1179.05,952.994 1179.05,933.459 1264.79,933.459 1264.79,923.942 1350.52,923.942 1350.52,999.168 1436.26,999.168 1436.26,848.215 1521.99,848.215 1521.99,643.417 1607.72,643.417 1607.72,441.46 1693.46,441.46 1693.46,1043.65 1779.19,1043.65 1779.19,878.465 1864.93,878.465 1864.93,393.501 1950.66,393.501 1950.66,569.747 2036.4,569.747 2036.4,852.181 2122.13,852.181 2122.13,956.753 2207.86,956.753 2207.86,1017.26 2293.6,1017.26 "/>
<polyline clip-path="url(#clip762)" style="stroke:#ac8d18; stroke-linecap:round; stroke-linejoin:round; stroke-width:4; stroke-opacity:1; fill:none" points="321.708,1386.4 321.708,779.623 407.442,779.623 407.442,769.847 493.177,769.847 493.177,312.492 578.911,312.492 578.911,799.075 664.646,799.075 664.646,656.367 750.38,656.367 750.38,713.162 836.114,713.162 836.114,535.217 921.849,535.217 921.849,1009.18 1007.58,1009.18 1007.58,758.281 1093.32,758.281 1093.32,800.947 1179.05,800.947 1179.05,778.092 1264.79,778.092 1264.79,766.978 1350.52,766.978 1350.52,855.197 1436.26,855.197 1436.26,678.932 1521.99,678.932 1521.99,443.612 1607.72,443.612 1607.72,214.382 1693.46,214.382 1693.46,907.804 1779.19,907.804 1779.19,714.022 1864.93,714.022 1864.93,160.256 1950.66,160.256 1950.66,359.724 2036.4,359.724 2036.4,683.527 2122.13,683.527 2122.13,805.351 2207.86,805.351 2207.86,876.546 2293.6,876.546 "/>
<path clip-path="url(#clip760)" d="M332.225 477.836 L1037.12 477.836 L1037.12 166.796 L332.225 166.796  Z" fill="#ffffff" fill-rule="evenodd" fill-opacity="1"/>
<polyline clip-path="url(#clip760)" style="stroke:#000000; stroke-linecap:round; stroke-linejoin:round; stroke-width:4; stroke-opacity:1; fill:none" points="332.225,477.836 1037.12,477.836 1037.12,166.796 332.225,166.796 332.225,477.836 "/>
<polyline clip-path="url(#clip760)" style="stroke:#009af9; stroke-linecap:round; stroke-linejoin:round; stroke-width:4; stroke-opacity:1; fill:none" points="355.449,218.636 494.796,218.636 "/>
<path clip-path="url(#clip760)" d="M538.53 210.985 L538.53 214.967 Q536.724 213.971 534.896 213.485 Q533.09 212.976 531.238 212.976 Q527.095 212.976 524.803 215.615 Q522.511 218.231 522.511 222.976 Q522.511 227.721 524.803 230.36 Q527.095 232.976 531.238 232.976 Q533.09 232.976 534.896 232.49 Q536.724 231.981 538.53 230.985 L538.53 234.92 Q536.747 235.754 534.826 236.17 Q532.928 236.587 530.775 236.587 Q524.919 236.587 521.47 232.906 Q518.021 229.226 518.021 222.976 Q518.021 216.633 521.493 212.999 Q524.988 209.365 531.053 209.365 Q533.021 209.365 534.896 209.782 Q536.771 210.175 538.53 210.985 Z" fill="#000000" fill-rule="nonzero" fill-opacity="1" /><path clip-path="url(#clip760)" d="M545.497 225.684 L545.497 209.99 L549.757 209.99 L549.757 225.522 Q549.757 229.203 551.192 231.055 Q552.627 232.883 555.497 232.883 Q558.946 232.883 560.937 230.684 Q562.951 228.485 562.951 224.689 L562.951 209.99 L567.21 209.99 L567.21 235.916 L562.951 235.916 L562.951 231.934 Q561.4 234.295 559.34 235.453 Q557.303 236.587 554.595 236.587 Q550.127 236.587 547.812 233.809 Q545.497 231.031 545.497 225.684 M556.215 209.365 L556.215 209.365 Z" fill="#000000" fill-rule="nonzero" fill-opacity="1" /><path clip-path="url(#clip760)" d="M592.511 210.754 L592.511 214.782 Q590.705 213.856 588.761 213.393 Q586.817 212.93 584.733 212.93 Q581.562 212.93 579.965 213.902 Q578.391 214.874 578.391 216.819 Q578.391 218.3 579.525 219.157 Q580.659 219.99 584.085 220.754 L585.543 221.078 Q590.08 222.05 591.979 223.832 Q593.9 225.592 593.9 228.763 Q593.9 232.374 591.03 234.481 Q588.182 236.587 583.182 236.587 Q581.099 236.587 578.831 236.17 Q576.585 235.777 574.085 234.967 L574.085 230.569 Q576.446 231.795 578.738 232.42 Q581.03 233.022 583.275 233.022 Q586.284 233.022 587.905 232.004 Q589.525 230.962 589.525 229.087 Q589.525 227.351 588.344 226.425 Q587.187 225.499 583.229 224.643 L581.747 224.295 Q577.789 223.462 576.03 221.749 Q574.27 220.013 574.27 217.004 Q574.27 213.346 576.863 211.356 Q579.456 209.365 584.224 209.365 Q586.585 209.365 588.668 209.712 Q590.752 210.059 592.511 210.754 Z" fill="#000000" fill-rule="nonzero" fill-opacity="1" /><path clip-path="url(#clip760)" d="M604.895 202.629 L604.895 209.99 L613.668 209.99 L613.668 213.3 L604.895 213.3 L604.895 227.374 Q604.895 230.545 605.752 231.448 Q606.631 232.351 609.293 232.351 L613.668 232.351 L613.668 235.916 L609.293 235.916 Q604.363 235.916 602.488 234.087 Q600.613 232.235 600.613 227.374 L600.613 213.3 L597.488 213.3 L597.488 209.99 L600.613 209.99 L600.613 202.629 L604.895 202.629 Z" fill="#000000" fill-rule="nonzero" fill-opacity="1" /><path clip-path="url(#clip760)" d="M629.316 212.976 Q625.89 212.976 623.9 215.661 Q621.909 218.323 621.909 222.976 Q621.909 227.629 623.877 230.314 Q625.867 232.976 629.316 232.976 Q632.719 232.976 634.71 230.291 Q636.701 227.606 636.701 222.976 Q636.701 218.37 634.71 215.684 Q632.719 212.976 629.316 212.976 M629.316 209.365 Q634.872 209.365 638.043 212.976 Q641.214 216.587 641.214 222.976 Q641.214 229.342 638.043 232.976 Q634.872 236.587 629.316 236.587 Q623.738 236.587 620.566 232.976 Q617.418 229.342 617.418 222.976 Q617.418 216.587 620.566 212.976 Q623.738 209.365 629.316 209.365 Z" fill="#000000" fill-rule="nonzero" fill-opacity="1" /><path clip-path="url(#clip760)" d="M668.46 214.967 Q670.057 212.096 672.279 210.731 Q674.501 209.365 677.511 209.365 Q681.561 209.365 683.761 212.212 Q685.96 215.036 685.96 220.268 L685.96 235.916 L681.677 235.916 L681.677 220.407 Q681.677 216.68 680.358 214.874 Q679.038 213.069 676.33 213.069 Q673.02 213.069 671.099 215.268 Q669.177 217.467 669.177 221.263 L669.177 235.916 L664.895 235.916 L664.895 220.407 Q664.895 216.657 663.575 214.874 Q662.256 213.069 659.501 213.069 Q656.238 213.069 654.316 215.291 Q652.395 217.49 652.395 221.263 L652.395 235.916 L648.113 235.916 L648.113 209.99 L652.395 209.99 L652.395 214.018 Q653.853 211.633 655.89 210.499 Q657.927 209.365 660.728 209.365 Q663.552 209.365 665.52 210.8 Q667.511 212.235 668.46 214.967 Z" fill="#000000" fill-rule="nonzero" fill-opacity="1" /><path clip-path="url(#clip760)" d="M716.631 221.888 L716.631 223.971 L697.048 223.971 Q697.325 228.369 699.686 230.684 Q702.071 232.976 706.307 232.976 Q708.76 232.976 711.052 232.374 Q713.367 231.772 715.635 230.569 L715.635 234.596 Q713.344 235.568 710.936 236.078 Q708.529 236.587 706.052 236.587 Q699.848 236.587 696.214 232.976 Q692.603 229.365 692.603 223.207 Q692.603 216.842 696.029 213.115 Q699.478 209.365 705.311 209.365 Q710.543 209.365 713.575 212.745 Q716.631 216.101 716.631 221.888 M712.371 220.638 Q712.325 217.143 710.404 215.059 Q708.506 212.976 705.358 212.976 Q701.793 212.976 699.64 214.99 Q697.51 217.004 697.186 220.661 L712.371 220.638 Z" fill="#000000" fill-rule="nonzero" fill-opacity="1" /><path clip-path="url(#clip760)" d="M738.645 213.971 Q737.927 213.555 737.07 213.37 Q736.237 213.161 735.219 213.161 Q731.608 213.161 729.663 215.522 Q727.742 217.86 727.742 222.258 L727.742 235.916 L723.459 235.916 L723.459 209.99 L727.742 209.99 L727.742 214.018 Q729.084 211.657 731.237 210.522 Q733.39 209.365 736.469 209.365 Q736.908 209.365 737.441 209.434 Q737.973 209.481 738.621 209.596 L738.645 213.971 Z" fill="#000000" fill-rule="nonzero" fill-opacity="1" /><path clip-path="url(#clip760)" d="M759.593 231.981 L767.232 231.981 L767.232 205.615 L758.922 207.282 L758.922 203.022 L767.186 201.356 L771.862 201.356 L771.862 231.981 L779.501 231.981 L779.501 235.916 L759.593 235.916 L759.593 231.981 Z" fill="#000000" fill-rule="nonzero" fill-opacity="1" /><path clip-path="url(#clip760)" d="M803.413 209.99 L807.672 209.99 L807.672 235.916 L803.413 235.916 L803.413 209.99 M803.413 199.897 L807.672 199.897 L807.672 205.291 L803.413 205.291 L803.413 199.897 Z" fill="#000000" fill-rule="nonzero" fill-opacity="1" /><path clip-path="url(#clip760)" d="M838.135 220.268 L838.135 235.916 L833.875 235.916 L833.875 220.407 Q833.875 216.726 832.44 214.897 Q831.005 213.069 828.135 213.069 Q824.686 213.069 822.695 215.268 Q820.704 217.467 820.704 221.263 L820.704 235.916 L816.422 235.916 L816.422 209.99 L820.704 209.99 L820.704 214.018 Q822.232 211.68 824.292 210.522 Q826.376 209.365 829.084 209.365 Q833.551 209.365 835.843 212.143 Q838.135 214.897 838.135 220.268 Z" fill="#000000" fill-rule="nonzero" fill-opacity="1" /><path clip-path="url(#clip760)" d="M865.287 210.985 L865.287 214.967 Q863.482 213.971 861.653 213.485 Q859.848 212.976 857.996 212.976 Q853.852 212.976 851.561 215.615 Q849.269 218.231 849.269 222.976 Q849.269 227.721 851.561 230.36 Q853.852 232.976 857.996 232.976 Q859.848 232.976 861.653 232.49 Q863.482 231.981 865.287 230.985 L865.287 234.92 Q863.505 235.754 861.584 236.17 Q859.686 236.587 857.533 236.587 Q851.676 236.587 848.227 232.906 Q844.778 229.226 844.778 222.976 Q844.778 216.633 848.25 212.999 Q851.746 209.365 857.811 209.365 Q859.778 209.365 861.653 209.782 Q863.528 210.175 865.287 210.985 Z" fill="#000000" fill-rule="nonzero" fill-opacity="1" /><path clip-path="url(#clip760)" d="M894.871 221.888 L894.871 223.971 L875.287 223.971 Q875.565 228.369 877.926 230.684 Q880.31 232.976 884.546 232.976 Q887 232.976 889.292 232.374 Q891.607 231.772 893.875 230.569 L893.875 234.596 Q891.583 235.568 889.176 236.078 Q886.769 236.587 884.292 236.587 Q878.088 236.587 874.454 232.976 Q870.843 229.365 870.843 223.207 Q870.843 216.842 874.269 213.115 Q877.718 209.365 883.551 209.365 Q888.783 209.365 891.815 212.745 Q894.871 216.101 894.871 221.888 M890.611 220.638 Q890.565 217.143 888.644 215.059 Q886.746 212.976 883.597 212.976 Q880.033 212.976 877.88 214.99 Q875.75 217.004 875.426 220.661 L890.611 220.638 Z" fill="#000000" fill-rule="nonzero" fill-opacity="1" /><path clip-path="url(#clip760)" d="M923.412 220.268 L923.412 235.916 L919.153 235.916 L919.153 220.407 Q919.153 216.726 917.718 214.897 Q916.282 213.069 913.412 213.069 Q909.963 213.069 907.972 215.268 Q905.982 217.467 905.982 221.263 L905.982 235.916 L901.699 235.916 L901.699 209.99 L905.982 209.99 L905.982 214.018 Q907.509 211.68 909.57 210.522 Q911.653 209.365 914.361 209.365 Q918.829 209.365 921.12 212.143 Q923.412 214.897 923.412 220.268 Z" fill="#000000" fill-rule="nonzero" fill-opacity="1" /><path clip-path="url(#clip760)" d="M936.12 202.629 L936.12 209.99 L944.893 209.99 L944.893 213.3 L936.12 213.3 L936.12 227.374 Q936.12 230.545 936.977 231.448 Q937.856 232.351 940.518 232.351 L944.893 232.351 L944.893 235.916 L940.518 235.916 Q935.588 235.916 933.713 234.087 Q931.838 232.235 931.838 227.374 L931.838 213.3 L928.713 213.3 L928.713 209.99 L931.838 209.99 L931.838 202.629 L936.12 202.629 Z" fill="#000000" fill-rule="nonzero" fill-opacity="1" /><path clip-path="url(#clip760)" d="M950.495 209.99 L954.754 209.99 L954.754 235.916 L950.495 235.916 L950.495 209.99 M950.495 199.897 L954.754 199.897 L954.754 205.291 L950.495 205.291 L950.495 199.897 Z" fill="#000000" fill-rule="nonzero" fill-opacity="1" /><path clip-path="url(#clip760)" d="M960.611 209.99 L965.125 209.99 L973.227 231.749 L981.328 209.99 L985.842 209.99 L976.12 235.916 L970.333 235.916 L960.611 209.99 Z" fill="#000000" fill-rule="nonzero" fill-opacity="1" /><path clip-path="url(#clip760)" d="M1013.9 221.888 L1013.9 223.971 L994.314 223.971 Q994.592 228.369 996.953 230.684 Q999.338 232.976 1003.57 232.976 Q1006.03 232.976 1008.32 232.374 Q1010.63 231.772 1012.9 230.569 L1012.9 234.596 Q1010.61 235.568 1008.2 236.078 Q1005.8 236.587 1003.32 236.587 Q997.115 236.587 993.481 232.976 Q989.87 229.365 989.87 223.207 Q989.87 216.842 993.296 213.115 Q996.745 209.365 1002.58 209.365 Q1007.81 209.365 1010.84 212.745 Q1013.9 216.101 1013.9 221.888 M1009.64 220.638 Q1009.59 217.143 1007.67 215.059 Q1005.77 212.976 1002.62 212.976 Q999.06 212.976 996.907 214.99 Q994.777 217.004 994.453 220.661 L1009.64 220.638 Z" fill="#000000" fill-rule="nonzero" fill-opacity="1" /><polyline clip-path="url(#clip760)" style="stroke:#e26f46; stroke-linecap:round; stroke-linejoin:round; stroke-width:4; stroke-opacity:1; fill:none" points="355.449,270.476 494.796,270.476 "/>
<path clip-path="url(#clip760)" d="M538.53 262.825 L538.53 266.807 Q536.724 265.811 534.896 265.325 Q533.09 264.816 531.238 264.816 Q527.095 264.816 524.803 267.455 Q522.511 270.071 522.511 274.816 Q522.511 279.561 524.803 282.2 Q527.095 284.816 531.238 284.816 Q533.09 284.816 534.896 284.33 Q536.724 283.821 538.53 282.825 L538.53 286.76 Q536.747 287.594 534.826 288.01 Q532.928 288.427 530.775 288.427 Q524.919 288.427 521.47 284.746 Q518.021 281.066 518.021 274.816 Q518.021 268.473 521.493 264.839 Q524.988 261.205 531.053 261.205 Q533.021 261.205 534.896 261.622 Q536.771 262.015 538.53 262.825 Z" fill="#000000" fill-rule="nonzero" fill-opacity="1" /><path clip-path="url(#clip760)" d="M545.497 277.524 L545.497 261.83 L549.757 261.83 L549.757 277.362 Q549.757 281.043 551.192 282.895 Q552.627 284.723 555.497 284.723 Q558.946 284.723 560.937 282.524 Q562.951 280.325 562.951 276.529 L562.951 261.83 L567.21 261.83 L567.21 287.756 L562.951 287.756 L562.951 283.774 Q561.4 286.135 559.34 287.293 Q557.303 288.427 554.595 288.427 Q550.127 288.427 547.812 285.649 Q545.497 282.871 545.497 277.524 M556.215 261.205 L556.215 261.205 Z" fill="#000000" fill-rule="nonzero" fill-opacity="1" /><path clip-path="url(#clip760)" d="M592.511 262.594 L592.511 266.622 Q590.705 265.696 588.761 265.233 Q586.817 264.77 584.733 264.77 Q581.562 264.77 579.965 265.742 Q578.391 266.714 578.391 268.659 Q578.391 270.14 579.525 270.997 Q580.659 271.83 584.085 272.594 L585.543 272.918 Q590.08 273.89 591.979 275.672 Q593.9 277.432 593.9 280.603 Q593.9 284.214 591.03 286.321 Q588.182 288.427 583.182 288.427 Q581.099 288.427 578.831 288.01 Q576.585 287.617 574.085 286.807 L574.085 282.409 Q576.446 283.635 578.738 284.26 Q581.03 284.862 583.275 284.862 Q586.284 284.862 587.905 283.844 Q589.525 282.802 589.525 280.927 Q589.525 279.191 588.344 278.265 Q587.187 277.339 583.229 276.483 L581.747 276.135 Q577.789 275.302 576.03 273.589 Q574.27 271.853 574.27 268.844 Q574.27 265.186 576.863 263.196 Q579.456 261.205 584.224 261.205 Q586.585 261.205 588.668 261.552 Q590.752 261.899 592.511 262.594 Z" fill="#000000" fill-rule="nonzero" fill-opacity="1" /><path clip-path="url(#clip760)" d="M604.895 254.469 L604.895 261.83 L613.668 261.83 L613.668 265.14 L604.895 265.14 L604.895 279.214 Q604.895 282.385 605.752 283.288 Q606.631 284.191 609.293 284.191 L613.668 284.191 L613.668 287.756 L609.293 287.756 Q604.363 287.756 602.488 285.927 Q600.613 284.075 600.613 279.214 L600.613 265.14 L597.488 265.14 L597.488 261.83 L600.613 261.83 L600.613 254.469 L604.895 254.469 Z" fill="#000000" fill-rule="nonzero" fill-opacity="1" /><path clip-path="url(#clip760)" d="M629.316 264.816 Q625.89 264.816 623.9 267.501 Q621.909 270.163 621.909 274.816 Q621.909 279.469 623.877 282.154 Q625.867 284.816 629.316 284.816 Q632.719 284.816 634.71 282.131 Q636.701 279.446 636.701 274.816 Q636.701 270.21 634.71 267.524 Q632.719 264.816 629.316 264.816 M629.316 261.205 Q634.872 261.205 638.043 264.816 Q641.214 268.427 641.214 274.816 Q641.214 281.182 638.043 284.816 Q634.872 288.427 629.316 288.427 Q623.738 288.427 620.566 284.816 Q617.418 281.182 617.418 274.816 Q617.418 268.427 620.566 264.816 Q623.738 261.205 629.316 261.205 Z" fill="#000000" fill-rule="nonzero" fill-opacity="1" /><path clip-path="url(#clip760)" d="M668.46 266.807 Q670.057 263.936 672.279 262.571 Q674.501 261.205 677.511 261.205 Q681.561 261.205 683.761 264.052 Q685.96 266.876 685.96 272.108 L685.96 287.756 L681.677 287.756 L681.677 272.247 Q681.677 268.52 680.358 266.714 Q679.038 264.909 676.33 264.909 Q673.02 264.909 671.099 267.108 Q669.177 269.307 669.177 273.103 L669.177 287.756 L664.895 287.756 L664.895 272.247 Q664.895 268.497 663.575 266.714 Q662.256 264.909 659.501 264.909 Q656.238 264.909 654.316 267.131 Q652.395 269.33 652.395 273.103 L652.395 287.756 L648.113 287.756 L648.113 261.83 L652.395 261.83 L652.395 265.858 Q653.853 263.473 655.89 262.339 Q657.927 261.205 660.728 261.205 Q663.552 261.205 665.52 262.64 Q667.511 264.075 668.46 266.807 Z" fill="#000000" fill-rule="nonzero" fill-opacity="1" /><path clip-path="url(#clip760)" d="M716.631 273.728 L716.631 275.811 L697.048 275.811 Q697.325 280.209 699.686 282.524 Q702.071 284.816 706.307 284.816 Q708.76 284.816 711.052 284.214 Q713.367 283.612 715.635 282.409 L715.635 286.436 Q713.344 287.408 710.936 287.918 Q708.529 288.427 706.052 288.427 Q699.848 288.427 696.214 284.816 Q692.603 281.205 692.603 275.047 Q692.603 268.682 696.029 264.955 Q699.478 261.205 705.311 261.205 Q710.543 261.205 713.575 264.585 Q716.631 267.941 716.631 273.728 M712.371 272.478 Q712.325 268.983 710.404 266.899 Q708.506 264.816 705.358 264.816 Q701.793 264.816 699.64 266.83 Q697.51 268.844 697.186 272.501 L712.371 272.478 Z" fill="#000000" fill-rule="nonzero" fill-opacity="1" /><path clip-path="url(#clip760)" d="M738.645 265.811 Q737.927 265.395 737.07 265.21 Q736.237 265.001 735.219 265.001 Q731.608 265.001 729.663 267.362 Q727.742 269.7 727.742 274.098 L727.742 287.756 L723.459 287.756 L723.459 261.83 L727.742 261.83 L727.742 265.858 Q729.084 263.497 731.237 262.362 Q733.39 261.205 736.469 261.205 Q736.908 261.205 737.441 261.274 Q737.973 261.321 738.621 261.436 L738.645 265.811 Z" fill="#000000" fill-rule="nonzero" fill-opacity="1" /><path clip-path="url(#clip760)" d="M762.811 283.821 L779.13 283.821 L779.13 287.756 L757.186 287.756 L757.186 283.821 Q759.848 281.066 764.431 276.436 Q769.038 271.784 770.218 270.441 Q772.464 267.918 773.343 266.182 Q774.246 264.423 774.246 262.733 Q774.246 259.978 772.302 258.242 Q770.38 256.506 767.279 256.506 Q765.08 256.506 762.626 257.27 Q760.195 258.034 757.418 259.585 L757.418 254.862 Q760.242 253.728 762.695 253.149 Q765.149 252.571 767.186 252.571 Q772.556 252.571 775.751 255.256 Q778.945 257.941 778.945 262.432 Q778.945 264.561 778.135 266.483 Q777.348 268.381 775.242 270.973 Q774.663 271.645 771.561 274.862 Q768.459 278.057 762.811 283.821 Z" fill="#000000" fill-rule="nonzero" fill-opacity="1" /><path clip-path="url(#clip760)" d="M803.413 261.83 L807.672 261.83 L807.672 287.756 L803.413 287.756 L803.413 261.83 M803.413 251.737 L807.672 251.737 L807.672 257.131 L803.413 257.131 L803.413 251.737 Z" fill="#000000" fill-rule="nonzero" fill-opacity="1" /><path clip-path="url(#clip760)" d="M838.135 272.108 L838.135 287.756 L833.875 287.756 L833.875 272.247 Q833.875 268.566 832.44 266.737 Q831.005 264.909 828.135 264.909 Q824.686 264.909 822.695 267.108 Q820.704 269.307 820.704 273.103 L820.704 287.756 L816.422 287.756 L816.422 261.83 L820.704 261.83 L820.704 265.858 Q822.232 263.52 824.292 262.362 Q826.376 261.205 829.084 261.205 Q833.551 261.205 835.843 263.983 Q838.135 266.737 838.135 272.108 Z" fill="#000000" fill-rule="nonzero" fill-opacity="1" /><path clip-path="url(#clip760)" d="M865.287 262.825 L865.287 266.807 Q863.482 265.811 861.653 265.325 Q859.848 264.816 857.996 264.816 Q853.852 264.816 851.561 267.455 Q849.269 270.071 849.269 274.816 Q849.269 279.561 851.561 282.2 Q853.852 284.816 857.996 284.816 Q859.848 284.816 861.653 284.33 Q863.482 283.821 865.287 282.825 L865.287 286.76 Q863.505 287.594 861.584 288.01 Q859.686 288.427 857.533 288.427 Q851.676 288.427 848.227 284.746 Q844.778 281.066 844.778 274.816 Q844.778 268.473 848.25 264.839 Q851.746 261.205 857.811 261.205 Q859.778 261.205 861.653 261.622 Q863.528 262.015 865.287 262.825 Z" fill="#000000" fill-rule="nonzero" fill-opacity="1" /><path clip-path="url(#clip760)" d="M894.871 273.728 L894.871 275.811 L875.287 275.811 Q875.565 280.209 877.926 282.524 Q880.31 284.816 884.546 284.816 Q887 284.816 889.292 284.214 Q891.607 283.612 893.875 282.409 L893.875 286.436 Q891.583 287.408 889.176 287.918 Q886.769 288.427 884.292 288.427 Q878.088 288.427 874.454 284.816 Q870.843 281.205 870.843 275.047 Q870.843 268.682 874.269 264.955 Q877.718 261.205 883.551 261.205 Q888.783 261.205 891.815 264.585 Q894.871 267.941 894.871 273.728 M890.611 272.478 Q890.565 268.983 888.644 266.899 Q886.746 264.816 883.597 264.816 Q880.033 264.816 877.88 266.83 Q875.75 268.844 875.426 272.501 L890.611 272.478 Z" fill="#000000" fill-rule="nonzero" fill-opacity="1" /><path clip-path="url(#clip760)" d="M923.412 272.108 L923.412 287.756 L919.153 287.756 L919.153 272.247 Q919.153 268.566 917.718 266.737 Q916.282 264.909 913.412 264.909 Q909.963 264.909 907.972 267.108 Q905.982 269.307 905.982 273.103 L905.982 287.756 L901.699 287.756 L901.699 261.83 L905.982 261.83 L905.982 265.858 Q907.509 263.52 909.57 262.362 Q911.653 261.205 914.361 261.205 Q918.829 261.205 921.12 263.983 Q923.412 266.737 923.412 272.108 Z" fill="#000000" fill-rule="nonzero" fill-opacity="1" /><path clip-path="url(#clip760)" d="M936.12 254.469 L936.12 261.83 L944.893 261.83 L944.893 265.14 L936.12 265.14 L936.12 279.214 Q936.12 282.385 936.977 283.288 Q937.856 284.191 940.518 284.191 L944.893 284.191 L944.893 287.756 L940.518 287.756 Q935.588 287.756 933.713 285.927 Q931.838 284.075 931.838 279.214 L931.838 265.14 L928.713 265.14 L928.713 261.83 L931.838 261.83 L931.838 254.469 L936.12 254.469 Z" fill="#000000" fill-rule="nonzero" fill-opacity="1" /><path clip-path="url(#clip760)" d="M950.495 261.83 L954.754 261.83 L954.754 287.756 L950.495 287.756 L950.495 261.83 M950.495 251.737 L954.754 251.737 L954.754 257.131 L950.495 257.131 L950.495 251.737 Z" fill="#000000" fill-rule="nonzero" fill-opacity="1" /><path clip-path="url(#clip760)" d="M960.611 261.83 L965.125 261.83 L973.227 283.589 L981.328 261.83 L985.842 261.83 L976.12 287.756 L970.333 287.756 L960.611 261.83 Z" fill="#000000" fill-rule="nonzero" fill-opacity="1" /><path clip-path="url(#clip760)" d="M1013.9 273.728 L1013.9 275.811 L994.314 275.811 Q994.592 280.209 996.953 282.524 Q999.338 284.816 1003.57 284.816 Q1006.03 284.816 1008.32 284.214 Q1010.63 283.612 1012.9 282.409 L1012.9 286.436 Q1010.61 287.408 1008.2 287.918 Q1005.8 288.427 1003.32 288.427 Q997.115 288.427 993.481 284.816 Q989.87 281.205 989.87 275.047 Q989.87 268.682 993.296 264.955 Q996.745 261.205 1002.58 261.205 Q1007.81 261.205 1010.84 264.585 Q1013.9 267.941 1013.9 273.728 M1009.64 272.478 Q1009.59 268.983 1007.67 266.899 Q1005.77 264.816 1002.62 264.816 Q999.06 264.816 996.907 266.83 Q994.777 268.844 994.453 272.501 L1009.64 272.478 Z" fill="#000000" fill-rule="nonzero" fill-opacity="1" /><polyline clip-path="url(#clip760)" style="stroke:#3da44d; stroke-linecap:round; stroke-linejoin:round; stroke-width:4; stroke-opacity:1; fill:none" points="355.449,322.316 494.796,322.316 "/>
<path clip-path="url(#clip760)" d="M538.53 314.665 L538.53 318.647 Q536.724 317.651 534.896 317.165 Q533.09 316.656 531.238 316.656 Q527.095 316.656 524.803 319.295 Q522.511 321.911 522.511 326.656 Q522.511 331.401 524.803 334.04 Q527.095 336.656 531.238 336.656 Q533.09 336.656 534.896 336.17 Q536.724 335.661 538.53 334.665 L538.53 338.6 Q536.747 339.434 534.826 339.85 Q532.928 340.267 530.775 340.267 Q524.919 340.267 521.47 336.586 Q518.021 332.906 518.021 326.656 Q518.021 320.313 521.493 316.679 Q524.988 313.045 531.053 313.045 Q533.021 313.045 534.896 313.462 Q536.771 313.855 538.53 314.665 Z" fill="#000000" fill-rule="nonzero" fill-opacity="1" /><path clip-path="url(#clip760)" d="M545.497 329.364 L545.497 313.67 L549.757 313.67 L549.757 329.202 Q549.757 332.883 551.192 334.735 Q552.627 336.563 555.497 336.563 Q558.946 336.563 560.937 334.364 Q562.951 332.165 562.951 328.369 L562.951 313.67 L567.21 313.67 L567.21 339.596 L562.951 339.596 L562.951 335.614 Q561.4 337.975 559.34 339.133 Q557.303 340.267 554.595 340.267 Q550.127 340.267 547.812 337.489 Q545.497 334.711 545.497 329.364 M556.215 313.045 L556.215 313.045 Z" fill="#000000" fill-rule="nonzero" fill-opacity="1" /><path clip-path="url(#clip760)" d="M592.511 314.434 L592.511 318.462 Q590.705 317.536 588.761 317.073 Q586.817 316.61 584.733 316.61 Q581.562 316.61 579.965 317.582 Q578.391 318.554 578.391 320.499 Q578.391 321.98 579.525 322.837 Q580.659 323.67 584.085 324.434 L585.543 324.758 Q590.08 325.73 591.979 327.512 Q593.9 329.272 593.9 332.443 Q593.9 336.054 591.03 338.161 Q588.182 340.267 583.182 340.267 Q581.099 340.267 578.831 339.85 Q576.585 339.457 574.085 338.647 L574.085 334.249 Q576.446 335.475 578.738 336.1 Q581.03 336.702 583.275 336.702 Q586.284 336.702 587.905 335.684 Q589.525 334.642 589.525 332.767 Q589.525 331.031 588.344 330.105 Q587.187 329.179 583.229 328.323 L581.747 327.975 Q577.789 327.142 576.03 325.429 Q574.27 323.693 574.27 320.684 Q574.27 317.026 576.863 315.036 Q579.456 313.045 584.224 313.045 Q586.585 313.045 588.668 313.392 Q590.752 313.739 592.511 314.434 Z" fill="#000000" fill-rule="nonzero" fill-opacity="1" /><path clip-path="url(#clip760)" d="M604.895 306.309 L604.895 313.67 L613.668 313.67 L613.668 316.98 L604.895 316.98 L604.895 331.054 Q604.895 334.225 605.752 335.128 Q606.631 336.031 609.293 336.031 L613.668 336.031 L613.668 339.596 L609.293 339.596 Q604.363 339.596 602.488 337.767 Q600.613 335.915 600.613 331.054 L600.613 316.98 L597.488 316.98 L597.488 313.67 L600.613 313.67 L600.613 306.309 L604.895 306.309 Z" fill="#000000" fill-rule="nonzero" fill-opacity="1" /><path clip-path="url(#clip760)" d="M629.316 316.656 Q625.89 316.656 623.9 319.341 Q621.909 322.003 621.909 326.656 Q621.909 331.309 623.877 333.994 Q625.867 336.656 629.316 336.656 Q632.719 336.656 634.71 333.971 Q636.701 331.286 636.701 326.656 Q636.701 322.05 634.71 319.364 Q632.719 316.656 629.316 316.656 M629.316 313.045 Q634.872 313.045 638.043 316.656 Q641.214 320.267 641.214 326.656 Q641.214 333.022 638.043 336.656 Q634.872 340.267 629.316 340.267 Q623.738 340.267 620.566 336.656 Q617.418 333.022 617.418 326.656 Q617.418 320.267 620.566 316.656 Q623.738 313.045 629.316 313.045 Z" fill="#000000" fill-rule="nonzero" fill-opacity="1" /><path clip-path="url(#clip760)" d="M668.46 318.647 Q670.057 315.776 672.279 314.411 Q674.501 313.045 677.511 313.045 Q681.561 313.045 683.761 315.892 Q685.96 318.716 685.96 323.948 L685.96 339.596 L681.677 339.596 L681.677 324.087 Q681.677 320.36 680.358 318.554 Q679.038 316.749 676.33 316.749 Q673.02 316.749 671.099 318.948 Q669.177 321.147 669.177 324.943 L669.177 339.596 L664.895 339.596 L664.895 324.087 Q664.895 320.337 663.575 318.554 Q662.256 316.749 659.501 316.749 Q656.238 316.749 654.316 318.971 Q652.395 321.17 652.395 324.943 L652.395 339.596 L648.113 339.596 L648.113 313.67 L652.395 313.67 L652.395 317.698 Q653.853 315.313 655.89 314.179 Q657.927 313.045 660.728 313.045 Q663.552 313.045 665.52 314.48 Q667.511 315.915 668.46 318.647 Z" fill="#000000" fill-rule="nonzero" fill-opacity="1" /><path clip-path="url(#clip760)" d="M716.631 325.568 L716.631 327.651 L697.048 327.651 Q697.325 332.049 699.686 334.364 Q702.071 336.656 706.307 336.656 Q708.76 336.656 711.052 336.054 Q713.367 335.452 715.635 334.249 L715.635 338.276 Q713.344 339.248 710.936 339.758 Q708.529 340.267 706.052 340.267 Q699.848 340.267 696.214 336.656 Q692.603 333.045 692.603 326.887 Q692.603 320.522 696.029 316.795 Q699.478 313.045 705.311 313.045 Q710.543 313.045 713.575 316.425 Q716.631 319.781 716.631 325.568 M712.371 324.318 Q712.325 320.823 710.404 318.739 Q708.506 316.656 705.358 316.656 Q701.793 316.656 699.64 318.67 Q697.51 320.684 697.186 324.341 L712.371 324.318 Z" fill="#000000" fill-rule="nonzero" fill-opacity="1" /><path clip-path="url(#clip760)" d="M738.645 317.651 Q737.927 317.235 737.07 317.05 Q736.237 316.841 735.219 316.841 Q731.608 316.841 729.663 319.202 Q727.742 321.54 727.742 325.938 L727.742 339.596 L723.459 339.596 L723.459 313.67 L727.742 313.67 L727.742 317.698 Q729.084 315.337 731.237 314.202 Q733.39 313.045 736.469 313.045 Q736.908 313.045 737.441 313.114 Q737.973 313.161 738.621 313.276 L738.645 317.651 Z" fill="#000000" fill-rule="nonzero" fill-opacity="1" /><path clip-path="url(#clip760)" d="M772.95 320.962 Q776.306 321.679 778.181 323.948 Q780.079 326.216 780.079 329.549 Q780.079 334.665 776.561 337.466 Q773.042 340.267 766.561 340.267 Q764.385 340.267 762.07 339.827 Q759.779 339.411 757.325 338.554 L757.325 334.04 Q759.269 335.174 761.584 335.753 Q763.899 336.332 766.422 336.332 Q770.82 336.332 773.112 334.596 Q775.427 332.86 775.427 329.549 Q775.427 326.494 773.274 324.781 Q771.144 323.045 767.325 323.045 L763.297 323.045 L763.297 319.202 L767.51 319.202 Q770.959 319.202 772.788 317.837 Q774.617 316.448 774.617 313.855 Q774.617 311.193 772.718 309.781 Q770.843 308.346 767.325 308.346 Q765.404 308.346 763.205 308.763 Q761.005 309.179 758.367 310.059 L758.367 305.892 Q761.029 305.151 763.343 304.781 Q765.681 304.411 767.742 304.411 Q773.066 304.411 776.167 306.841 Q779.269 309.249 779.269 313.369 Q779.269 316.239 777.626 318.23 Q775.982 320.198 772.95 320.962 Z" fill="#000000" fill-rule="nonzero" fill-opacity="1" /><path clip-path="url(#clip760)" d="M803.413 313.67 L807.672 313.67 L807.672 339.596 L803.413 339.596 L803.413 313.67 M803.413 303.577 L807.672 303.577 L807.672 308.971 L803.413 308.971 L803.413 303.577 Z" fill="#000000" fill-rule="nonzero" fill-opacity="1" /><path clip-path="url(#clip760)" d="M838.135 323.948 L838.135 339.596 L833.875 339.596 L833.875 324.087 Q833.875 320.406 832.44 318.577 Q831.005 316.749 828.135 316.749 Q824.686 316.749 822.695 318.948 Q820.704 321.147 820.704 324.943 L820.704 339.596 L816.422 339.596 L816.422 313.67 L820.704 313.67 L820.704 317.698 Q822.232 315.36 824.292 314.202 Q826.376 313.045 829.084 313.045 Q833.551 313.045 835.843 315.823 Q838.135 318.577 838.135 323.948 Z" fill="#000000" fill-rule="nonzero" fill-opacity="1" /><path clip-path="url(#clip760)" d="M865.287 314.665 L865.287 318.647 Q863.482 317.651 861.653 317.165 Q859.848 316.656 857.996 316.656 Q853.852 316.656 851.561 319.295 Q849.269 321.911 849.269 326.656 Q849.269 331.401 851.561 334.04 Q853.852 336.656 857.996 336.656 Q859.848 336.656 861.653 336.17 Q863.482 335.661 865.287 334.665 L865.287 338.6 Q863.505 339.434 861.584 339.85 Q859.686 340.267 857.533 340.267 Q851.676 340.267 848.227 336.586 Q844.778 332.906 844.778 326.656 Q844.778 320.313 848.25 316.679 Q851.746 313.045 857.811 313.045 Q859.778 313.045 861.653 313.462 Q863.528 313.855 865.287 314.665 Z" fill="#000000" fill-rule="nonzero" fill-opacity="1" /><path clip-path="url(#clip760)" d="M894.871 325.568 L894.871 327.651 L875.287 327.651 Q875.565 332.049 877.926 334.364 Q880.31 336.656 884.546 336.656 Q887 336.656 889.292 336.054 Q891.607 335.452 893.875 334.249 L893.875 338.276 Q891.583 339.248 889.176 339.758 Q886.769 340.267 884.292 340.267 Q878.088 340.267 874.454 336.656 Q870.843 333.045 870.843 326.887 Q870.843 320.522 874.269 316.795 Q877.718 313.045 883.551 313.045 Q888.783 313.045 891.815 316.425 Q894.871 319.781 894.871 325.568 M890.611 324.318 Q890.565 320.823 888.644 318.739 Q886.746 316.656 883.597 316.656 Q880.033 316.656 877.88 318.67 Q875.75 320.684 875.426 324.341 L890.611 324.318 Z" fill="#000000" fill-rule="nonzero" fill-opacity="1" /><path clip-path="url(#clip760)" d="M923.412 323.948 L923.412 339.596 L919.153 339.596 L919.153 324.087 Q919.153 320.406 917.718 318.577 Q916.282 316.749 913.412 316.749 Q909.963 316.749 907.972 318.948 Q905.982 321.147 905.982 324.943 L905.982 339.596 L901.699 339.596 L901.699 313.67 L905.982 313.67 L905.982 317.698 Q907.509 315.36 909.57 314.202 Q911.653 313.045 914.361 313.045 Q918.829 313.045 921.12 315.823 Q923.412 318.577 923.412 323.948 Z" fill="#000000" fill-rule="nonzero" fill-opacity="1" /><path clip-path="url(#clip760)" d="M936.12 306.309 L936.12 313.67 L944.893 313.67 L944.893 316.98 L936.12 316.98 L936.12 331.054 Q936.12 334.225 936.977 335.128 Q937.856 336.031 940.518 336.031 L944.893 336.031 L944.893 339.596 L940.518 339.596 Q935.588 339.596 933.713 337.767 Q931.838 335.915 931.838 331.054 L931.838 316.98 L928.713 316.98 L928.713 313.67 L931.838 313.67 L931.838 306.309 L936.12 306.309 Z" fill="#000000" fill-rule="nonzero" fill-opacity="1" /><path clip-path="url(#clip760)" d="M950.495 313.67 L954.754 313.67 L954.754 339.596 L950.495 339.596 L950.495 313.67 M950.495 303.577 L954.754 303.577 L954.754 308.971 L950.495 308.971 L950.495 303.577 Z" fill="#000000" fill-rule="nonzero" fill-opacity="1" /><path clip-path="url(#clip760)" d="M960.611 313.67 L965.125 313.67 L973.227 335.429 L981.328 313.67 L985.842 313.67 L976.12 339.596 L970.333 339.596 L960.611 313.67 Z" fill="#000000" fill-rule="nonzero" fill-opacity="1" /><path clip-path="url(#clip760)" d="M1013.9 325.568 L1013.9 327.651 L994.314 327.651 Q994.592 332.049 996.953 334.364 Q999.338 336.656 1003.57 336.656 Q1006.03 336.656 1008.32 336.054 Q1010.63 335.452 1012.9 334.249 L1012.9 338.276 Q1010.61 339.248 1008.2 339.758 Q1005.8 340.267 1003.32 340.267 Q997.115 340.267 993.481 336.656 Q989.87 333.045 989.87 326.887 Q989.87 320.522 993.296 316.795 Q996.745 313.045 1002.58 313.045 Q1007.81 313.045 1010.84 316.425 Q1013.9 319.781 1013.9 325.568 M1009.64 324.318 Q1009.59 320.823 1007.67 318.739 Q1005.77 316.656 1002.62 316.656 Q999.06 316.656 996.907 318.67 Q994.777 320.684 994.453 324.341 L1009.64 324.318 Z" fill="#000000" fill-rule="nonzero" fill-opacity="1" /><polyline clip-path="url(#clip760)" style="stroke:#c271d2; stroke-linecap:round; stroke-linejoin:round; stroke-width:4; stroke-opacity:1; fill:none" points="355.449,374.156 494.796,374.156 "/>
<path clip-path="url(#clip760)" d="M538.53 366.505 L538.53 370.487 Q536.724 369.491 534.896 369.005 Q533.09 368.496 531.238 368.496 Q527.095 368.496 524.803 371.135 Q522.511 373.751 522.511 378.496 Q522.511 383.241 524.803 385.88 Q527.095 388.496 531.238 388.496 Q533.09 388.496 534.896 388.01 Q536.724 387.501 538.53 386.505 L538.53 390.44 Q536.747 391.274 534.826 391.69 Q532.928 392.107 530.775 392.107 Q524.919 392.107 521.47 388.426 Q518.021 384.746 518.021 378.496 Q518.021 372.153 521.493 368.519 Q524.988 364.885 531.053 364.885 Q533.021 364.885 534.896 365.302 Q536.771 365.695 538.53 366.505 Z" fill="#000000" fill-rule="nonzero" fill-opacity="1" /><path clip-path="url(#clip760)" d="M545.497 381.204 L545.497 365.51 L549.757 365.51 L549.757 381.042 Q549.757 384.723 551.192 386.575 Q552.627 388.403 555.497 388.403 Q558.946 388.403 560.937 386.204 Q562.951 384.005 562.951 380.209 L562.951 365.51 L567.21 365.51 L567.21 391.436 L562.951 391.436 L562.951 387.454 Q561.4 389.815 559.34 390.973 Q557.303 392.107 554.595 392.107 Q550.127 392.107 547.812 389.329 Q545.497 386.551 545.497 381.204 M556.215 364.885 L556.215 364.885 Z" fill="#000000" fill-rule="nonzero" fill-opacity="1" /><path clip-path="url(#clip760)" d="M592.511 366.274 L592.511 370.302 Q590.705 369.376 588.761 368.913 Q586.817 368.45 584.733 368.45 Q581.562 368.45 579.965 369.422 Q578.391 370.394 578.391 372.339 Q578.391 373.82 579.525 374.677 Q580.659 375.51 584.085 376.274 L585.543 376.598 Q590.08 377.57 591.979 379.352 Q593.9 381.112 593.9 384.283 Q593.9 387.894 591.03 390.001 Q588.182 392.107 583.182 392.107 Q581.099 392.107 578.831 391.69 Q576.585 391.297 574.085 390.487 L574.085 386.089 Q576.446 387.315 578.738 387.94 Q581.03 388.542 583.275 388.542 Q586.284 388.542 587.905 387.524 Q589.525 386.482 589.525 384.607 Q589.525 382.871 588.344 381.945 Q587.187 381.019 583.229 380.163 L581.747 379.815 Q577.789 378.982 576.03 377.269 Q574.27 375.533 574.27 372.524 Q574.27 368.866 576.863 366.876 Q579.456 364.885 584.224 364.885 Q586.585 364.885 588.668 365.232 Q590.752 365.579 592.511 366.274 Z" fill="#000000" fill-rule="nonzero" fill-opacity="1" /><path clip-path="url(#clip760)" d="M604.895 358.149 L604.895 365.51 L613.668 365.51 L613.668 368.82 L604.895 368.82 L604.895 382.894 Q604.895 386.065 605.752 386.968 Q606.631 387.871 609.293 387.871 L613.668 387.871 L613.668 391.436 L609.293 391.436 Q604.363 391.436 602.488 389.607 Q600.613 387.755 600.613 382.894 L600.613 368.82 L597.488 368.82 L597.488 365.51 L600.613 365.51 L600.613 358.149 L604.895 358.149 Z" fill="#000000" fill-rule="nonzero" fill-opacity="1" /><path clip-path="url(#clip760)" d="M629.316 368.496 Q625.89 368.496 623.9 371.181 Q621.909 373.843 621.909 378.496 Q621.909 383.149 623.877 385.834 Q625.867 388.496 629.316 388.496 Q632.719 388.496 634.71 385.811 Q636.701 383.126 636.701 378.496 Q636.701 373.89 634.71 371.204 Q632.719 368.496 629.316 368.496 M629.316 364.885 Q634.872 364.885 638.043 368.496 Q641.214 372.107 641.214 378.496 Q641.214 384.862 638.043 388.496 Q634.872 392.107 629.316 392.107 Q623.738 392.107 620.566 388.496 Q617.418 384.862 617.418 378.496 Q617.418 372.107 620.566 368.496 Q623.738 364.885 629.316 364.885 Z" fill="#000000" fill-rule="nonzero" fill-opacity="1" /><path clip-path="url(#clip760)" d="M668.46 370.487 Q670.057 367.616 672.279 366.251 Q674.501 364.885 677.511 364.885 Q681.561 364.885 683.761 367.732 Q685.96 370.556 685.96 375.788 L685.96 391.436 L681.677 391.436 L681.677 375.927 Q681.677 372.2 680.358 370.394 Q679.038 368.589 676.33 368.589 Q673.02 368.589 671.099 370.788 Q669.177 372.987 669.177 376.783 L669.177 391.436 L664.895 391.436 L664.895 375.927 Q664.895 372.177 663.575 370.394 Q662.256 368.589 659.501 368.589 Q656.238 368.589 654.316 370.811 Q652.395 373.01 652.395 376.783 L652.395 391.436 L648.113 391.436 L648.113 365.51 L652.395 365.51 L652.395 369.538 Q653.853 367.153 655.89 366.019 Q657.927 364.885 660.728 364.885 Q663.552 364.885 665.52 366.32 Q667.511 367.755 668.46 370.487 Z" fill="#000000" fill-rule="nonzero" fill-opacity="1" /><path clip-path="url(#clip760)" d="M716.631 377.408 L716.631 379.491 L697.048 379.491 Q697.325 383.889 699.686 386.204 Q702.071 388.496 706.307 388.496 Q708.76 388.496 711.052 387.894 Q713.367 387.292 715.635 386.089 L715.635 390.116 Q713.344 391.088 710.936 391.598 Q708.529 392.107 706.052 392.107 Q699.848 392.107 696.214 388.496 Q692.603 384.885 692.603 378.727 Q692.603 372.362 696.029 368.635 Q699.478 364.885 705.311 364.885 Q710.543 364.885 713.575 368.265 Q716.631 371.621 716.631 377.408 M712.371 376.158 Q712.325 372.663 710.404 370.579 Q708.506 368.496 705.358 368.496 Q701.793 368.496 699.64 370.51 Q697.51 372.524 697.186 376.181 L712.371 376.158 Z" fill="#000000" fill-rule="nonzero" fill-opacity="1" /><path clip-path="url(#clip760)" d="M738.645 369.491 Q737.927 369.075 737.07 368.89 Q736.237 368.681 735.219 368.681 Q731.608 368.681 729.663 371.042 Q727.742 373.38 727.742 377.778 L727.742 391.436 L723.459 391.436 L723.459 365.51 L727.742 365.51 L727.742 369.538 Q729.084 367.177 731.237 366.042 Q733.39 364.885 736.469 364.885 Q736.908 364.885 737.441 364.954 Q737.973 365.001 738.621 365.116 L738.645 369.491 Z" fill="#000000" fill-rule="nonzero" fill-opacity="1" /><path clip-path="url(#clip760)" d="M771.63 360.95 L759.825 379.399 L771.63 379.399 L771.63 360.95 M770.404 356.876 L776.283 356.876 L776.283 379.399 L781.214 379.399 L781.214 383.288 L776.283 383.288 L776.283 391.436 L771.63 391.436 L771.63 383.288 L756.029 383.288 L756.029 378.774 L770.404 356.876 Z" fill="#000000" fill-rule="nonzero" fill-opacity="1" /><path clip-path="url(#clip760)" d="M803.413 365.51 L807.672 365.51 L807.672 391.436 L803.413 391.436 L803.413 365.51 M803.413 355.417 L807.672 355.417 L807.672 360.811 L803.413 360.811 L803.413 355.417 Z" fill="#000000" fill-rule="nonzero" fill-opacity="1" /><path clip-path="url(#clip760)" d="M838.135 375.788 L838.135 391.436 L833.875 391.436 L833.875 375.927 Q833.875 372.246 832.44 370.417 Q831.005 368.589 828.135 368.589 Q824.686 368.589 822.695 370.788 Q820.704 372.987 820.704 376.783 L820.704 391.436 L816.422 391.436 L816.422 365.51 L820.704 365.51 L820.704 369.538 Q822.232 367.2 824.292 366.042 Q826.376 364.885 829.084 364.885 Q833.551 364.885 835.843 367.663 Q838.135 370.417 838.135 375.788 Z" fill="#000000" fill-rule="nonzero" fill-opacity="1" /><path clip-path="url(#clip760)" d="M865.287 366.505 L865.287 370.487 Q863.482 369.491 861.653 369.005 Q859.848 368.496 857.996 368.496 Q853.852 368.496 851.561 371.135 Q849.269 373.751 849.269 378.496 Q849.269 383.241 851.561 385.88 Q853.852 388.496 857.996 388.496 Q859.848 388.496 861.653 388.01 Q863.482 387.501 865.287 386.505 L865.287 390.44 Q863.505 391.274 861.584 391.69 Q859.686 392.107 857.533 392.107 Q851.676 392.107 848.227 388.426 Q844.778 384.746 844.778 378.496 Q844.778 372.153 848.25 368.519 Q851.746 364.885 857.811 364.885 Q859.778 364.885 861.653 365.302 Q863.528 365.695 865.287 366.505 Z" fill="#000000" fill-rule="nonzero" fill-opacity="1" /><path clip-path="url(#clip760)" d="M894.871 377.408 L894.871 379.491 L875.287 379.491 Q875.565 383.889 877.926 386.204 Q880.31 388.496 884.546 388.496 Q887 388.496 889.292 387.894 Q891.607 387.292 893.875 386.089 L893.875 390.116 Q891.583 391.088 889.176 391.598 Q886.769 392.107 884.292 392.107 Q878.088 392.107 874.454 388.496 Q870.843 384.885 870.843 378.727 Q870.843 372.362 874.269 368.635 Q877.718 364.885 883.551 364.885 Q888.783 364.885 891.815 368.265 Q894.871 371.621 894.871 377.408 M890.611 376.158 Q890.565 372.663 888.644 370.579 Q886.746 368.496 883.597 368.496 Q880.033 368.496 877.88 370.51 Q875.75 372.524 875.426 376.181 L890.611 376.158 Z" fill="#000000" fill-rule="nonzero" fill-opacity="1" /><path clip-path="url(#clip760)" d="M923.412 375.788 L923.412 391.436 L919.153 391.436 L919.153 375.927 Q919.153 372.246 917.718 370.417 Q916.282 368.589 913.412 368.589 Q909.963 368.589 907.972 370.788 Q905.982 372.987 905.982 376.783 L905.982 391.436 L901.699 391.436 L901.699 365.51 L905.982 365.51 L905.982 369.538 Q907.509 367.2 909.57 366.042 Q911.653 364.885 914.361 364.885 Q918.829 364.885 921.12 367.663 Q923.412 370.417 923.412 375.788 Z" fill="#000000" fill-rule="nonzero" fill-opacity="1" /><path clip-path="url(#clip760)" d="M936.12 358.149 L936.12 365.51 L944.893 365.51 L944.893 368.82 L936.12 368.82 L936.12 382.894 Q936.12 386.065 936.977 386.968 Q937.856 387.871 940.518 387.871 L944.893 387.871 L944.893 391.436 L940.518 391.436 Q935.588 391.436 933.713 389.607 Q931.838 387.755 931.838 382.894 L931.838 368.82 L928.713 368.82 L928.713 365.51 L931.838 365.51 L931.838 358.149 L936.12 358.149 Z" fill="#000000" fill-rule="nonzero" fill-opacity="1" /><path clip-path="url(#clip760)" d="M950.495 365.51 L954.754 365.51 L954.754 391.436 L950.495 391.436 L950.495 365.51 M950.495 355.417 L954.754 355.417 L954.754 360.811 L950.495 360.811 L950.495 355.417 Z" fill="#000000" fill-rule="nonzero" fill-opacity="1" /><path clip-path="url(#clip760)" d="M960.611 365.51 L965.125 365.51 L973.227 387.269 L981.328 365.51 L985.842 365.51 L976.12 391.436 L970.333 391.436 L960.611 365.51 Z" fill="#000000" fill-rule="nonzero" fill-opacity="1" /><path clip-path="url(#clip760)" d="M1013.9 377.408 L1013.9 379.491 L994.314 379.491 Q994.592 383.889 996.953 386.204 Q999.338 388.496 1003.57 388.496 Q1006.03 388.496 1008.32 387.894 Q1010.63 387.292 1012.9 386.089 L1012.9 390.116 Q1010.61 391.088 1008.2 391.598 Q1005.8 392.107 1003.32 392.107 Q997.115 392.107 993.481 388.496 Q989.87 384.885 989.87 378.727 Q989.87 372.362 993.296 368.635 Q996.745 364.885 1002.58 364.885 Q1007.81 364.885 1010.84 368.265 Q1013.9 371.621 1013.9 377.408 M1009.64 376.158 Q1009.59 372.663 1007.67 370.579 Q1005.77 368.496 1002.62 368.496 Q999.06 368.496 996.907 370.51 Q994.777 372.524 994.453 376.181 L1009.64 376.158 Z" fill="#000000" fill-rule="nonzero" fill-opacity="1" /><polyline clip-path="url(#clip760)" style="stroke:#ac8d18; stroke-linecap:round; stroke-linejoin:round; stroke-width:4; stroke-opacity:1; fill:none" points="355.449,425.996 494.796,425.996 "/>
<path clip-path="url(#clip760)" d="M538.53 418.345 L538.53 422.327 Q536.724 421.331 534.896 420.845 Q533.09 420.336 531.238 420.336 Q527.095 420.336 524.803 422.975 Q522.511 425.591 522.511 430.336 Q522.511 435.081 524.803 437.72 Q527.095 440.336 531.238 440.336 Q533.09 440.336 534.896 439.85 Q536.724 439.341 538.53 438.345 L538.53 442.28 Q536.747 443.114 534.826 443.53 Q532.928 443.947 530.775 443.947 Q524.919 443.947 521.47 440.266 Q518.021 436.586 518.021 430.336 Q518.021 423.993 521.493 420.359 Q524.988 416.725 531.053 416.725 Q533.021 416.725 534.896 417.142 Q536.771 417.535 538.53 418.345 Z" fill="#000000" fill-rule="nonzero" fill-opacity="1" /><path clip-path="url(#clip760)" d="M545.497 433.044 L545.497 417.35 L549.757 417.35 L549.757 432.882 Q549.757 436.563 551.192 438.415 Q552.627 440.243 555.497 440.243 Q558.946 440.243 560.937 438.044 Q562.951 435.845 562.951 432.049 L562.951 417.35 L567.21 417.35 L567.21 443.276 L562.951 443.276 L562.951 439.294 Q561.4 441.655 559.34 442.813 Q557.303 443.947 554.595 443.947 Q550.127 443.947 547.812 441.169 Q545.497 438.391 545.497 433.044 M556.215 416.725 L556.215 416.725 Z" fill="#000000" fill-rule="nonzero" fill-opacity="1" /><path clip-path="url(#clip760)" d="M592.511 418.114 L592.511 422.142 Q590.705 421.216 588.761 420.753 Q586.817 420.29 584.733 420.29 Q581.562 420.29 579.965 421.262 Q578.391 422.234 578.391 424.179 Q578.391 425.66 579.525 426.517 Q580.659 427.35 584.085 428.114 L585.543 428.438 Q590.08 429.41 591.979 431.192 Q593.9 432.952 593.9 436.123 Q593.9 439.734 591.03 441.841 Q588.182 443.947 583.182 443.947 Q581.099 443.947 578.831 443.53 Q576.585 443.137 574.085 442.327 L574.085 437.929 Q576.446 439.155 578.738 439.78 Q581.03 440.382 583.275 440.382 Q586.284 440.382 587.905 439.364 Q589.525 438.322 589.525 436.447 Q589.525 434.711 588.344 433.785 Q587.187 432.859 583.229 432.003 L581.747 431.655 Q577.789 430.822 576.03 429.109 Q574.27 427.373 574.27 424.364 Q574.27 420.706 576.863 418.716 Q579.456 416.725 584.224 416.725 Q586.585 416.725 588.668 417.072 Q590.752 417.419 592.511 418.114 Z" fill="#000000" fill-rule="nonzero" fill-opacity="1" /><path clip-path="url(#clip760)" d="M604.895 409.989 L604.895 417.35 L613.668 417.35 L613.668 420.66 L604.895 420.66 L604.895 434.734 Q604.895 437.905 605.752 438.808 Q606.631 439.711 609.293 439.711 L613.668 439.711 L613.668 443.276 L609.293 443.276 Q604.363 443.276 602.488 441.447 Q600.613 439.595 600.613 434.734 L600.613 420.66 L597.488 420.66 L597.488 417.35 L600.613 417.35 L600.613 409.989 L604.895 409.989 Z" fill="#000000" fill-rule="nonzero" fill-opacity="1" /><path clip-path="url(#clip760)" d="M629.316 420.336 Q625.89 420.336 623.9 423.021 Q621.909 425.683 621.909 430.336 Q621.909 434.989 623.877 437.674 Q625.867 440.336 629.316 440.336 Q632.719 440.336 634.71 437.651 Q636.701 434.966 636.701 430.336 Q636.701 425.73 634.71 423.044 Q632.719 420.336 629.316 420.336 M629.316 416.725 Q634.872 416.725 638.043 420.336 Q641.214 423.947 641.214 430.336 Q641.214 436.702 638.043 440.336 Q634.872 443.947 629.316 443.947 Q623.738 443.947 620.566 440.336 Q617.418 436.702 617.418 430.336 Q617.418 423.947 620.566 420.336 Q623.738 416.725 629.316 416.725 Z" fill="#000000" fill-rule="nonzero" fill-opacity="1" /><path clip-path="url(#clip760)" d="M668.46 422.327 Q670.057 419.456 672.279 418.091 Q674.501 416.725 677.511 416.725 Q681.561 416.725 683.761 419.572 Q685.96 422.396 685.96 427.628 L685.96 443.276 L681.677 443.276 L681.677 427.767 Q681.677 424.04 680.358 422.234 Q679.038 420.429 676.33 420.429 Q673.02 420.429 671.099 422.628 Q669.177 424.827 669.177 428.623 L669.177 443.276 L664.895 443.276 L664.895 427.767 Q664.895 424.017 663.575 422.234 Q662.256 420.429 659.501 420.429 Q656.238 420.429 654.316 422.651 Q652.395 424.85 652.395 428.623 L652.395 443.276 L648.113 443.276 L648.113 417.35 L652.395 417.35 L652.395 421.378 Q653.853 418.993 655.89 417.859 Q657.927 416.725 660.728 416.725 Q663.552 416.725 665.52 418.16 Q667.511 419.595 668.46 422.327 Z" fill="#000000" fill-rule="nonzero" fill-opacity="1" /><path clip-path="url(#clip760)" d="M716.631 429.248 L716.631 431.331 L697.048 431.331 Q697.325 435.729 699.686 438.044 Q702.071 440.336 706.307 440.336 Q708.76 440.336 711.052 439.734 Q713.367 439.132 715.635 437.929 L715.635 441.956 Q713.344 442.928 710.936 443.438 Q708.529 443.947 706.052 443.947 Q699.848 443.947 696.214 440.336 Q692.603 436.725 692.603 430.567 Q692.603 424.202 696.029 420.475 Q699.478 416.725 705.311 416.725 Q710.543 416.725 713.575 420.105 Q716.631 423.461 716.631 429.248 M712.371 427.998 Q712.325 424.503 710.404 422.419 Q708.506 420.336 705.358 420.336 Q701.793 420.336 699.64 422.35 Q697.51 424.364 697.186 428.021 L712.371 427.998 Z" fill="#000000" fill-rule="nonzero" fill-opacity="1" /><path clip-path="url(#clip760)" d="M738.645 421.331 Q737.927 420.915 737.07 420.73 Q736.237 420.521 735.219 420.521 Q731.608 420.521 729.663 422.882 Q727.742 425.22 727.742 429.618 L727.742 443.276 L723.459 443.276 L723.459 417.35 L727.742 417.35 L727.742 421.378 Q729.084 419.017 731.237 417.882 Q733.39 416.725 736.469 416.725 Q736.908 416.725 737.441 416.794 Q737.973 416.841 738.621 416.956 L738.645 421.331 Z" fill="#000000" fill-rule="nonzero" fill-opacity="1" /><path clip-path="url(#clip760)" d="M758.83 408.716 L777.186 408.716 L777.186 412.651 L763.112 412.651 L763.112 421.123 Q764.13 420.776 765.149 420.614 Q766.168 420.429 767.186 420.429 Q772.973 420.429 776.353 423.6 Q779.732 426.771 779.732 432.188 Q779.732 437.766 776.26 440.868 Q772.788 443.947 766.468 443.947 Q764.293 443.947 762.024 443.577 Q759.779 443.206 757.371 442.466 L757.371 437.766 Q759.455 438.901 761.677 439.456 Q763.899 440.012 766.376 440.012 Q770.38 440.012 772.718 437.905 Q775.056 435.799 775.056 432.188 Q775.056 428.577 772.718 426.47 Q770.38 424.364 766.376 424.364 Q764.501 424.364 762.626 424.78 Q760.774 425.197 758.83 426.077 L758.83 408.716 Z" fill="#000000" fill-rule="nonzero" fill-opacity="1" /><path clip-path="url(#clip760)" d="M803.413 417.35 L807.672 417.35 L807.672 443.276 L803.413 443.276 L803.413 417.35 M803.413 407.257 L807.672 407.257 L807.672 412.651 L803.413 412.651 L803.413 407.257 Z" fill="#000000" fill-rule="nonzero" fill-opacity="1" /><path clip-path="url(#clip760)" d="M838.135 427.628 L838.135 443.276 L833.875 443.276 L833.875 427.767 Q833.875 424.086 832.44 422.257 Q831.005 420.429 828.135 420.429 Q824.686 420.429 822.695 422.628 Q820.704 424.827 820.704 428.623 L820.704 443.276 L816.422 443.276 L816.422 417.35 L820.704 417.35 L820.704 421.378 Q822.232 419.04 824.292 417.882 Q826.376 416.725 829.084 416.725 Q833.551 416.725 835.843 419.503 Q838.135 422.257 838.135 427.628 Z" fill="#000000" fill-rule="nonzero" fill-opacity="1" /><path clip-path="url(#clip760)" d="M865.287 418.345 L865.287 422.327 Q863.482 421.331 861.653 420.845 Q859.848 420.336 857.996 420.336 Q853.852 420.336 851.561 422.975 Q849.269 425.591 849.269 430.336 Q849.269 435.081 851.561 437.72 Q853.852 440.336 857.996 440.336 Q859.848 440.336 861.653 439.85 Q863.482 439.341 865.287 438.345 L865.287 442.28 Q863.505 443.114 861.584 443.53 Q859.686 443.947 857.533 443.947 Q851.676 443.947 848.227 440.266 Q844.778 436.586 844.778 430.336 Q844.778 423.993 848.25 420.359 Q851.746 416.725 857.811 416.725 Q859.778 416.725 861.653 417.142 Q863.528 417.535 865.287 418.345 Z" fill="#000000" fill-rule="nonzero" fill-opacity="1" /><path clip-path="url(#clip760)" d="M894.871 429.248 L894.871 431.331 L875.287 431.331 Q875.565 435.729 877.926 438.044 Q880.31 440.336 884.546 440.336 Q887 440.336 889.292 439.734 Q891.607 439.132 893.875 437.929 L893.875 441.956 Q891.583 442.928 889.176 443.438 Q886.769 443.947 884.292 443.947 Q878.088 443.947 874.454 440.336 Q870.843 436.725 870.843 430.567 Q870.843 424.202 874.269 420.475 Q877.718 416.725 883.551 416.725 Q888.783 416.725 891.815 420.105 Q894.871 423.461 894.871 429.248 M890.611 427.998 Q890.565 424.503 888.644 422.419 Q886.746 420.336 883.597 420.336 Q880.033 420.336 877.88 422.35 Q875.75 424.364 875.426 428.021 L890.611 427.998 Z" fill="#000000" fill-rule="nonzero" fill-opacity="1" /><path clip-path="url(#clip760)" d="M923.412 427.628 L923.412 443.276 L919.153 443.276 L919.153 427.767 Q919.153 424.086 917.718 422.257 Q916.282 420.429 913.412 420.429 Q909.963 420.429 907.972 422.628 Q905.982 424.827 905.982 428.623 L905.982 443.276 L901.699 443.276 L901.699 417.35 L905.982 417.35 L905.982 421.378 Q907.509 419.04 909.57 417.882 Q911.653 416.725 914.361 416.725 Q918.829 416.725 921.12 419.503 Q923.412 422.257 923.412 427.628 Z" fill="#000000" fill-rule="nonzero" fill-opacity="1" /><path clip-path="url(#clip760)" d="M936.12 409.989 L936.12 417.35 L944.893 417.35 L944.893 420.66 L936.12 420.66 L936.12 434.734 Q936.12 437.905 936.977 438.808 Q937.856 439.711 940.518 439.711 L944.893 439.711 L944.893 443.276 L940.518 443.276 Q935.588 443.276 933.713 441.447 Q931.838 439.595 931.838 434.734 L931.838 420.66 L928.713 420.66 L928.713 417.35 L931.838 417.35 L931.838 409.989 L936.12 409.989 Z" fill="#000000" fill-rule="nonzero" fill-opacity="1" /><path clip-path="url(#clip760)" d="M950.495 417.35 L954.754 417.35 L954.754 443.276 L950.495 443.276 L950.495 417.35 M950.495 407.257 L954.754 407.257 L954.754 412.651 L950.495 412.651 L950.495 407.257 Z" fill="#000000" fill-rule="nonzero" fill-opacity="1" /><path clip-path="url(#clip760)" d="M960.611 417.35 L965.125 417.35 L973.227 439.109 L981.328 417.35 L985.842 417.35 L976.12 443.276 L970.333 443.276 L960.611 417.35 Z" fill="#000000" fill-rule="nonzero" fill-opacity="1" /><path clip-path="url(#clip760)" d="M1013.9 429.248 L1013.9 431.331 L994.314 431.331 Q994.592 435.729 996.953 438.044 Q999.338 440.336 1003.57 440.336 Q1006.03 440.336 1008.32 439.734 Q1010.63 439.132 1012.9 437.929 L1012.9 441.956 Q1010.61 442.928 1008.2 443.438 Q1005.8 443.947 1003.32 443.947 Q997.115 443.947 993.481 440.336 Q989.87 436.725 989.87 430.567 Q989.87 424.202 993.296 420.475 Q996.745 416.725 1002.58 416.725 Q1007.81 416.725 1010.84 420.105 Q1013.9 423.461 1013.9 429.248 M1009.64 427.998 Q1009.59 424.503 1007.67 422.419 Q1005.77 420.336 1002.62 420.336 Q999.06 420.336 996.907 422.35 Q994.777 424.364 994.453 428.021 L1009.64 427.998 Z" fill="#000000" fill-rule="nonzero" fill-opacity="1" /></svg>
