<?xml version="1.0" encoding="utf-8"?>
<svg xmlns="http://www.w3.org/2000/svg" xmlns:xlink="http://www.w3.org/1999/xlink" width="600" height="400" viewBox="0 0 2400 1600">
<defs>
  <clipPath id="clip680">
    <rect x="0" y="0" width="2400" height="1600"/>
  </clipPath>
</defs>
<path clip-path="url(#clip680)" d="M0 1600 L2400 1600 L2400 0 L0 0  Z" fill="#ffffff" fill-rule="evenodd" fill-opacity="1"/>
<defs>
  <clipPath id="clip681">
    <rect x="480" y="0" width="1681" height="1600"/>
  </clipPath>
</defs>
<path clip-path="url(#clip680)" d="M235.283 1423.18 L2352.76 1423.18 L2352.76 123.472 L235.283 123.472  Z" fill="#ffffff" fill-rule="evenodd" fill-opacity="1"/>
<defs>
  <clipPath id="clip682">
    <rect x="235" y="123" width="2118" height="1301"/>
  </clipPath>
</defs>
<polyline clip-path="url(#clip682)" style="stroke:#000000; stroke-linecap:round; stroke-linejoin:round; stroke-width:2; stroke-opacity:0.1; fill:none" points="642.623,1423.18 642.623,123.472 "/>
<polyline clip-path="url(#clip682)" style="stroke:#000000; stroke-linecap:round; stroke-linejoin:round; stroke-width:2; stroke-opacity:0.1; fill:none" points="1076.89,1423.18 1076.89,123.472 "/>
<polyline clip-path="url(#clip682)" style="stroke:#000000; stroke-linecap:round; stroke-linejoin:round; stroke-width:2; stroke-opacity:0.1; fill:none" points="1511.15,1423.18 1511.15,123.472 "/>
<polyline clip-path="url(#clip682)" style="stroke:#000000; stroke-linecap:round; stroke-linejoin:round; stroke-width:2; stroke-opacity:0.1; fill:none" points="1945.42,1423.18 1945.42,123.472 "/>
<polyline clip-path="url(#clip680)" style="stroke:#000000; stroke-linecap:round; stroke-linejoin:round; stroke-width:4; stroke-opacity:1; fill:none" points="235.283,1423.18 2352.76,1423.18 "/>
<polyline clip-path="url(#clip680)" style="stroke:#000000; stroke-linecap:round; stroke-linejoin:round; stroke-width:4; stroke-opacity:1; fill:none" points="642.623,1423.18 642.623,1404.28 "/>
<polyline clip-path="url(#clip680)" style="stroke:#000000; stroke-linecap:round; stroke-linejoin:round; stroke-width:4; stroke-opacity:1; fill:none" points="1076.89,1423.18 1076.89,1404.28 "/>
<polyline clip-path="url(#clip680)" style="stroke:#000000; stroke-linecap:round; stroke-linejoin:round; stroke-width:4; stroke-opacity:1; fill:none" points="1511.15,1423.18 1511.15,1404.28 "/>
<polyline clip-path="url(#clip680)" style="stroke:#000000; stroke-linecap:round; stroke-linejoin:round; stroke-width:4; stroke-opacity:1; fill:none" points="1945.42,1423.18 1945.42,1404.28 "/>
<path clip-path="url(#clip680)" d="M632.901 1451.02 L651.257 1451.02 L651.257 1454.96 L637.183 1454.96 L637.183 1463.43 Q638.202 1463.08 639.22 1462.92 Q640.239 1462.73 641.257 1462.73 Q647.044 1462.73 650.424 1465.9 Q653.803 1469.08 653.803 1474.49 Q653.803 1480.07 650.331 1483.17 Q646.859 1486.25 640.54 1486.25 Q638.364 1486.25 636.095 1485.88 Q633.85 1485.51 631.442 1484.77 L631.442 1480.07 Q633.526 1481.2 635.748 1481.76 Q637.97 1482.32 640.447 1482.32 Q644.452 1482.32 646.789 1480.21 Q649.127 1478.1 649.127 1474.49 Q649.127 1470.88 646.789 1468.77 Q644.452 1466.67 640.447 1466.67 Q638.572 1466.67 636.697 1467.08 Q634.845 1467.5 632.901 1468.38 L632.901 1451.02 Z" fill="#000000" fill-rule="nonzero" fill-opacity="1" /><path clip-path="url(#clip680)" d="M1051.57 1481.64 L1059.21 1481.64 L1059.21 1455.28 L1050.9 1456.95 L1050.9 1452.69 L1059.17 1451.02 L1063.84 1451.02 L1063.84 1481.64 L1071.48 1481.64 L1071.48 1485.58 L1051.57 1485.58 L1051.57 1481.64 Z" fill="#000000" fill-rule="nonzero" fill-opacity="1" /><path clip-path="url(#clip680)" d="M1090.93 1454.1 Q1087.32 1454.1 1085.49 1457.66 Q1083.68 1461.2 1083.68 1468.33 Q1083.68 1475.44 1085.49 1479.01 Q1087.32 1482.55 1090.93 1482.55 Q1094.56 1482.55 1096.37 1479.01 Q1098.19 1475.44 1098.19 1468.33 Q1098.19 1461.2 1096.37 1457.66 Q1094.56 1454.1 1090.93 1454.1 M1090.93 1450.39 Q1096.74 1450.39 1099.79 1455 Q1102.87 1459.58 1102.87 1468.33 Q1102.87 1477.06 1099.79 1481.67 Q1096.74 1486.25 1090.93 1486.25 Q1085.12 1486.25 1082.04 1481.67 Q1078.98 1477.06 1078.98 1468.33 Q1078.98 1459.58 1082.04 1455 Q1085.12 1450.39 1090.93 1450.39 Z" fill="#000000" fill-rule="nonzero" fill-opacity="1" /><path clip-path="url(#clip680)" d="M1486.34 1481.64 L1493.98 1481.64 L1493.98 1455.28 L1485.67 1456.95 L1485.67 1452.69 L1493.93 1451.02 L1498.61 1451.02 L1498.61 1481.64 L1506.24 1481.64 L1506.24 1485.58 L1486.34 1485.58 L1486.34 1481.64 Z" fill="#000000" fill-rule="nonzero" fill-opacity="1" /><path clip-path="url(#clip680)" d="M1515.73 1451.02 L1534.09 1451.02 L1534.09 1454.96 L1520.02 1454.96 L1520.02 1463.43 Q1521.04 1463.08 1522.05 1462.92 Q1523.07 1462.73 1524.09 1462.73 Q1529.88 1462.73 1533.26 1465.9 Q1536.64 1469.08 1536.64 1474.49 Q1536.64 1480.07 1533.17 1483.17 Q1529.69 1486.25 1523.37 1486.25 Q1521.2 1486.25 1518.93 1485.88 Q1516.68 1485.51 1514.28 1484.77 L1514.28 1480.07 Q1516.36 1481.2 1518.58 1481.76 Q1520.8 1482.32 1523.28 1482.32 Q1527.29 1482.32 1529.62 1480.21 Q1531.96 1478.1 1531.96 1474.49 Q1531.96 1470.88 1529.62 1468.77 Q1527.29 1466.67 1523.28 1466.67 Q1521.41 1466.67 1519.53 1467.08 Q1517.68 1467.5 1515.73 1468.38 L1515.73 1451.02 Z" fill="#000000" fill-rule="nonzero" fill-opacity="1" /><path clip-path="url(#clip680)" d="M1924.19 1481.64 L1940.51 1481.64 L1940.51 1485.58 L1918.56 1485.58 L1918.56 1481.64 Q1921.23 1478.89 1925.81 1474.26 Q1930.42 1469.61 1931.6 1468.27 Q1933.84 1465.74 1934.72 1464.01 Q1935.62 1462.25 1935.62 1460.56 Q1935.62 1457.8 1933.68 1456.07 Q1931.76 1454.33 1928.66 1454.33 Q1926.46 1454.33 1924 1455.09 Q1921.57 1455.86 1918.8 1457.41 L1918.8 1452.69 Q1921.62 1451.55 1924.07 1450.97 Q1926.53 1450.39 1928.56 1450.39 Q1933.93 1450.39 1937.13 1453.08 Q1940.32 1455.77 1940.32 1460.26 Q1940.32 1462.39 1939.51 1464.31 Q1938.73 1466.2 1936.62 1468.8 Q1936.04 1469.47 1932.94 1472.69 Q1929.84 1475.88 1924.19 1481.64 Z" fill="#000000" fill-rule="nonzero" fill-opacity="1" /><path clip-path="url(#clip680)" d="M1960.32 1454.1 Q1956.71 1454.1 1954.88 1457.66 Q1953.08 1461.2 1953.08 1468.33 Q1953.08 1475.44 1954.88 1479.01 Q1956.71 1482.55 1960.32 1482.55 Q1963.96 1482.55 1965.76 1479.01 Q1967.59 1475.44 1967.59 1468.33 Q1967.59 1461.2 1965.76 1457.66 Q1963.96 1454.1 1960.32 1454.1 M1960.32 1450.39 Q1966.13 1450.39 1969.19 1455 Q1972.27 1459.58 1972.27 1468.33 Q1972.27 1477.06 1969.19 1481.67 Q1966.13 1486.25 1960.32 1486.25 Q1954.51 1486.25 1951.43 1481.67 Q1948.38 1477.06 1948.38 1468.33 Q1948.38 1459.58 1951.43 1455 Q1954.51 1450.39 1960.32 1450.39 Z" fill="#000000" fill-rule="nonzero" fill-opacity="1" /><path clip-path="url(#clip680)" d="M1106.52 1520.52 L1146.72 1520.52 L1146.72 1525.93 L1129.85 1525.93 L1129.85 1568.04 L1123.39 1568.04 L1123.39 1525.93 L1106.52 1525.93 L1106.52 1520.52 Z" fill="#000000" fill-rule="nonzero" fill-opacity="1" /><path clip-path="url(#clip680)" d="M1150.66 1532.4 L1156.52 1532.4 L1156.52 1568.04 L1150.66 1568.04 L1150.66 1532.4 M1150.66 1518.52 L1156.52 1518.52 L1156.52 1525.93 L1150.66 1525.93 L1150.66 1518.52 Z" fill="#000000" fill-rule="nonzero" fill-opacity="1" /><path clip-path="url(#clip680)" d="M1196.53 1539.24 Q1198.72 1535.29 1201.78 1533.41 Q1204.84 1531.54 1208.97 1531.54 Q1214.54 1531.54 1217.57 1535.45 Q1220.59 1539.33 1220.59 1546.53 L1220.59 1568.04 L1214.7 1568.04 L1214.7 1546.72 Q1214.7 1541.59 1212.89 1539.11 Q1211.07 1536.63 1207.35 1536.63 Q1202.8 1536.63 1200.16 1539.65 Q1197.52 1542.68 1197.52 1547.9 L1197.52 1568.04 L1191.63 1568.04 L1191.63 1546.72 Q1191.63 1541.56 1189.81 1539.11 Q1188 1536.63 1184.21 1536.63 Q1179.72 1536.63 1177.08 1539.68 Q1174.44 1542.71 1174.44 1547.9 L1174.44 1568.04 L1168.55 1568.04 L1168.55 1532.4 L1174.44 1532.4 L1174.44 1537.93 Q1176.44 1534.66 1179.25 1533.1 Q1182.05 1531.54 1185.9 1531.54 Q1189.78 1531.54 1192.49 1533.51 Q1195.22 1535.48 1196.53 1539.24 Z" fill="#000000" fill-rule="nonzero" fill-opacity="1" /><path clip-path="url(#clip680)" d="M1262.76 1548.76 L1262.76 1551.62 L1235.84 1551.62 Q1236.22 1557.67 1239.47 1560.85 Q1242.74 1564 1248.57 1564 Q1251.94 1564 1255.09 1563.17 Q1258.28 1562.35 1261.4 1560.69 L1261.4 1566.23 Q1258.24 1567.57 1254.93 1568.27 Q1251.62 1568.97 1248.22 1568.97 Q1239.69 1568.97 1234.69 1564 Q1229.73 1559.04 1229.73 1550.57 Q1229.73 1541.82 1234.44 1536.69 Q1239.18 1531.54 1247.2 1531.54 Q1254.39 1531.54 1258.56 1536.18 Q1262.76 1540.8 1262.76 1548.76 M1256.91 1547.04 Q1256.84 1542.23 1254.2 1539.37 Q1251.59 1536.5 1247.26 1536.5 Q1242.36 1536.5 1239.4 1539.27 Q1236.47 1542.04 1236.03 1547.07 L1256.91 1547.04 Z" fill="#000000" fill-rule="nonzero" fill-opacity="1" /><path clip-path="url(#clip680)" d="M1307.16 1518.58 Q1302.9 1525.9 1300.83 1533.06 Q1298.76 1540.23 1298.76 1547.58 Q1298.76 1554.93 1300.83 1562.16 Q1302.93 1569.35 1307.16 1576.64 L1302.07 1576.64 Q1297.3 1569.16 1294.91 1561.93 Q1292.56 1554.71 1292.56 1547.58 Q1292.56 1540.48 1294.91 1533.29 Q1297.27 1526.09 1302.07 1518.58 L1307.16 1518.58 Z" fill="#000000" fill-rule="nonzero" fill-opacity="1" /><path clip-path="url(#clip680)" d="M1348.16 1546.53 L1348.16 1568.04 L1342.3 1568.04 L1342.3 1546.72 Q1342.3 1541.66 1340.33 1539.14 Q1338.36 1536.63 1334.41 1536.63 Q1329.67 1536.63 1326.93 1539.65 Q1324.19 1542.68 1324.19 1547.9 L1324.19 1568.04 L1318.3 1568.04 L1318.3 1518.52 L1324.19 1518.52 L1324.19 1537.93 Q1326.29 1534.72 1329.13 1533.13 Q1331.99 1531.54 1335.71 1531.54 Q1341.86 1531.54 1345.01 1535.36 Q1348.16 1539.14 1348.16 1546.53 Z" fill="#000000" fill-rule="nonzero" fill-opacity="1" /><path clip-path="url(#clip680)" d="M1373.65 1536.5 Q1368.94 1536.5 1366.21 1540.19 Q1363.47 1543.85 1363.47 1550.25 Q1363.47 1556.65 1366.17 1560.34 Q1368.91 1564 1373.65 1564 Q1378.33 1564 1381.07 1560.31 Q1383.81 1556.62 1383.81 1550.25 Q1383.81 1543.92 1381.07 1540.23 Q1378.33 1536.5 1373.65 1536.5 M1373.65 1531.54 Q1381.29 1531.54 1385.65 1536.5 Q1390.01 1541.47 1390.01 1550.25 Q1390.01 1559 1385.65 1564 Q1381.29 1568.97 1373.65 1568.97 Q1365.98 1568.97 1361.62 1564 Q1357.29 1559 1357.29 1550.25 Q1357.29 1541.47 1361.62 1536.5 Q1365.98 1531.54 1373.65 1531.54 Z" fill="#000000" fill-rule="nonzero" fill-opacity="1" /><path clip-path="url(#clip680)" d="M1399.12 1553.98 L1399.12 1532.4 L1404.97 1532.4 L1404.97 1553.75 Q1404.97 1558.81 1406.95 1561.36 Q1408.92 1563.87 1412.87 1563.87 Q1417.61 1563.87 1420.35 1560.85 Q1423.12 1557.83 1423.12 1552.61 L1423.12 1532.4 L1428.97 1532.4 L1428.97 1568.04 L1423.12 1568.04 L1423.12 1562.57 Q1420.98 1565.82 1418.15 1567.41 Q1415.35 1568.97 1411.63 1568.97 Q1405.48 1568.97 1402.3 1565.15 Q1399.12 1561.33 1399.12 1553.98 M1413.85 1531.54 L1413.85 1531.54 Z" fill="#000000" fill-rule="nonzero" fill-opacity="1" /><path clip-path="url(#clip680)" d="M1461.69 1537.87 Q1460.71 1537.3 1459.53 1537.04 Q1458.38 1536.76 1456.98 1536.76 Q1452.02 1536.76 1449.34 1540 Q1446.7 1543.22 1446.7 1549.27 L1446.7 1568.04 L1440.81 1568.04 L1440.81 1532.4 L1446.7 1532.4 L1446.7 1537.93 Q1448.55 1534.69 1451.51 1533.13 Q1454.47 1531.54 1458.7 1531.54 Q1459.3 1531.54 1460.04 1531.63 Q1460.77 1531.7 1461.66 1531.85 L1461.69 1537.87 Z" fill="#000000" fill-rule="nonzero" fill-opacity="1" /><path clip-path="url(#clip680)" d="M1466.91 1518.58 L1472 1518.58 Q1476.78 1526.09 1479.13 1533.29 Q1481.52 1540.48 1481.52 1547.58 Q1481.52 1554.71 1479.13 1561.93 Q1476.78 1569.16 1472 1576.64 L1466.91 1576.64 Q1471.15 1569.35 1473.21 1562.16 Q1475.31 1554.93 1475.31 1547.58 Q1475.31 1540.23 1473.21 1533.06 Q1471.15 1525.9 1466.91 1518.58 Z" fill="#000000" fill-rule="nonzero" fill-opacity="1" /><polyline clip-path="url(#clip682)" style="stroke:#000000; stroke-linecap:round; stroke-linejoin:round; stroke-width:2; stroke-opacity:0.1; fill:none" points="235.283,1274.16 2352.76,1274.16 "/>
<polyline clip-path="url(#clip682)" style="stroke:#000000; stroke-linecap:round; stroke-linejoin:round; stroke-width:2; stroke-opacity:0.1; fill:none" points="235.283,1036.71 2352.76,1036.71 "/>
<polyline clip-path="url(#clip682)" style="stroke:#000000; stroke-linecap:round; stroke-linejoin:round; stroke-width:2; stroke-opacity:0.1; fill:none" points="235.283,799.246 2352.76,799.246 "/>
<polyline clip-path="url(#clip682)" style="stroke:#000000; stroke-linecap:round; stroke-linejoin:round; stroke-width:2; stroke-opacity:0.1; fill:none" points="235.283,561.787 2352.76,561.787 "/>
<polyline clip-path="url(#clip682)" style="stroke:#000000; stroke-linecap:round; stroke-linejoin:round; stroke-width:2; stroke-opacity:0.1; fill:none" points="235.283,324.328 2352.76,324.328 "/>
<polyline clip-path="url(#clip680)" style="stroke:#000000; stroke-linecap:round; stroke-linejoin:round; stroke-width:4; stroke-opacity:1; fill:none" points="235.283,1423.18 235.283,123.472 "/>
<polyline clip-path="url(#clip680)" style="stroke:#000000; stroke-linecap:round; stroke-linejoin:round; stroke-width:4; stroke-opacity:1; fill:none" points="235.283,1274.16 254.18,1274.16 "/>
<polyline clip-path="url(#clip680)" style="stroke:#000000; stroke-linecap:round; stroke-linejoin:round; stroke-width:4; stroke-opacity:1; fill:none" points="235.283,1036.71 254.18,1036.71 "/>
<polyline clip-path="url(#clip680)" style="stroke:#000000; stroke-linecap:round; stroke-linejoin:round; stroke-width:4; stroke-opacity:1; fill:none" points="235.283,799.246 254.18,799.246 "/>
<polyline clip-path="url(#clip680)" style="stroke:#000000; stroke-linecap:round; stroke-linejoin:round; stroke-width:4; stroke-opacity:1; fill:none" points="235.283,561.787 254.18,561.787 "/>
<polyline clip-path="url(#clip680)" style="stroke:#000000; stroke-linecap:round; stroke-linejoin:round; stroke-width:4; stroke-opacity:1; fill:none" points="235.283,324.328 254.18,324.328 "/>
<path clip-path="url(#clip680)" d="M129.862 1260.96 L118.056 1279.41 L129.862 1279.41 L129.862 1260.96 M128.635 1256.88 L134.515 1256.88 L134.515 1279.41 L139.445 1279.41 L139.445 1283.3 L134.515 1283.3 L134.515 1291.44 L129.862 1291.44 L129.862 1283.3 L114.26 1283.3 L114.26 1278.78 L128.635 1256.88 Z" fill="#000000" fill-rule="nonzero" fill-opacity="1" /><path clip-path="url(#clip680)" d="M147.223 1256.88 L165.579 1256.88 L165.579 1260.82 L151.505 1260.82 L151.505 1269.29 Q152.524 1268.94 153.542 1268.78 Q154.561 1268.6 155.579 1268.6 Q161.366 1268.6 164.746 1271.77 Q168.126 1274.94 168.126 1280.36 Q168.126 1285.94 164.653 1289.04 Q161.181 1292.12 154.862 1292.12 Q152.686 1292.12 150.417 1291.75 Q148.172 1291.37 145.765 1290.63 L145.765 1285.94 Q147.848 1287.07 150.07 1287.62 Q152.292 1288.18 154.769 1288.18 Q158.774 1288.18 161.112 1286.07 Q163.45 1283.97 163.45 1280.36 Q163.45 1276.75 161.112 1274.64 Q158.774 1272.53 154.769 1272.53 Q152.894 1272.53 151.019 1272.95 Q149.167 1273.37 147.223 1274.25 L147.223 1256.88 Z" fill="#000000" fill-rule="nonzero" fill-opacity="1" /><path clip-path="url(#clip680)" d="M187.338 1259.96 Q183.727 1259.96 181.899 1263.53 Q180.093 1267.07 180.093 1274.2 Q180.093 1281.31 181.899 1284.87 Q183.727 1288.41 187.338 1288.41 Q190.973 1288.41 192.778 1284.87 Q194.607 1281.31 194.607 1274.2 Q194.607 1267.07 192.778 1263.53 Q190.973 1259.96 187.338 1259.96 M187.338 1256.26 Q193.149 1256.26 196.204 1260.87 Q199.283 1265.45 199.283 1274.2 Q199.283 1282.93 196.204 1287.53 Q193.149 1292.12 187.338 1292.12 Q181.528 1292.12 178.45 1287.53 Q175.394 1282.93 175.394 1274.2 Q175.394 1265.45 178.45 1260.87 Q181.528 1256.26 187.338 1256.26 Z" fill="#000000" fill-rule="nonzero" fill-opacity="1" /><path clip-path="url(#clip680)" d="M129.862 1023.5 L118.056 1041.95 L129.862 1041.95 L129.862 1023.5 M128.635 1019.43 L134.515 1019.43 L134.515 1041.95 L139.445 1041.95 L139.445 1045.84 L134.515 1045.84 L134.515 1053.99 L129.862 1053.99 L129.862 1045.84 L114.26 1045.84 L114.26 1041.32 L128.635 1019.43 Z" fill="#000000" fill-rule="nonzero" fill-opacity="1" /><path clip-path="url(#clip680)" d="M157.177 1037.57 Q153.843 1037.57 151.922 1039.36 Q150.024 1041.14 150.024 1044.26 Q150.024 1047.39 151.922 1049.17 Q153.843 1050.95 157.177 1050.95 Q160.51 1050.95 162.431 1049.17 Q164.352 1047.36 164.352 1044.26 Q164.352 1041.14 162.431 1039.36 Q160.533 1037.57 157.177 1037.57 M152.501 1035.58 Q149.491 1034.84 147.802 1032.78 Q146.135 1030.72 146.135 1027.76 Q146.135 1023.61 149.075 1021.21 Q152.038 1018.8 157.177 1018.8 Q162.339 1018.8 165.278 1021.21 Q168.218 1023.61 168.218 1027.76 Q168.218 1030.72 166.528 1032.78 Q164.862 1034.84 161.876 1035.58 Q165.255 1036.37 167.13 1038.66 Q169.028 1040.95 169.028 1044.26 Q169.028 1049.29 165.95 1051.97 Q162.894 1054.66 157.177 1054.66 Q151.459 1054.66 148.38 1051.97 Q145.325 1049.29 145.325 1044.26 Q145.325 1040.95 147.223 1038.66 Q149.121 1036.37 152.501 1035.58 M150.788 1028.2 Q150.788 1030.88 152.454 1032.39 Q154.144 1033.89 157.177 1033.89 Q160.186 1033.89 161.876 1032.39 Q163.589 1030.88 163.589 1028.2 Q163.589 1025.51 161.876 1024.01 Q160.186 1022.5 157.177 1022.5 Q154.144 1022.5 152.454 1024.01 Q150.788 1025.51 150.788 1028.2 Z" fill="#000000" fill-rule="nonzero" fill-opacity="1" /><path clip-path="url(#clip680)" d="M187.338 1022.5 Q183.727 1022.5 181.899 1026.07 Q180.093 1029.61 180.093 1036.74 Q180.093 1043.85 181.899 1047.41 Q183.727 1050.95 187.338 1050.95 Q190.973 1050.95 192.778 1047.41 Q194.607 1043.85 194.607 1036.74 Q194.607 1029.61 192.778 1026.07 Q190.973 1022.5 187.338 1022.5 M187.338 1018.8 Q193.149 1018.8 196.204 1023.41 Q199.283 1027.99 199.283 1036.74 Q199.283 1045.47 196.204 1050.07 Q193.149 1054.66 187.338 1054.66 Q181.528 1054.66 178.45 1050.07 Q175.394 1045.47 175.394 1036.74 Q175.394 1027.99 178.45 1023.41 Q181.528 1018.8 187.338 1018.8 Z" fill="#000000" fill-rule="nonzero" fill-opacity="1" /><path clip-path="url(#clip680)" d="M117.061 781.966 L135.417 781.966 L135.417 785.901 L121.343 785.901 L121.343 794.373 Q122.362 794.026 123.38 793.864 Q124.399 793.679 125.418 793.679 Q131.205 793.679 134.584 796.85 Q137.964 800.022 137.964 805.438 Q137.964 811.017 134.492 814.119 Q131.019 817.197 124.7 817.197 Q122.524 817.197 120.255 816.827 Q118.01 816.457 115.603 815.716 L115.603 811.017 Q117.686 812.151 119.908 812.707 Q122.13 813.262 124.607 813.262 Q128.612 813.262 130.95 811.156 Q133.288 809.049 133.288 805.438 Q133.288 801.827 130.95 799.721 Q128.612 797.614 124.607 797.614 Q122.732 797.614 120.857 798.031 Q119.006 798.447 117.061 799.327 L117.061 781.966 Z" fill="#000000" fill-rule="nonzero" fill-opacity="1" /><path clip-path="url(#clip680)" d="M147.987 812.591 L155.626 812.591 L155.626 786.225 L147.316 787.892 L147.316 783.633 L155.579 781.966 L160.255 781.966 L160.255 812.591 L167.894 812.591 L167.894 816.526 L147.987 816.526 L147.987 812.591 Z" fill="#000000" fill-rule="nonzero" fill-opacity="1" /><path clip-path="url(#clip680)" d="M187.338 785.045 Q183.727 785.045 181.899 788.61 Q180.093 792.151 180.093 799.281 Q180.093 806.387 181.899 809.952 Q183.727 813.494 187.338 813.494 Q190.973 813.494 192.778 809.952 Q194.607 806.387 194.607 799.281 Q194.607 792.151 192.778 788.61 Q190.973 785.045 187.338 785.045 M187.338 781.341 Q193.149 781.341 196.204 785.948 Q199.283 790.531 199.283 799.281 Q199.283 808.008 196.204 812.614 Q193.149 817.197 187.338 817.197 Q181.528 817.197 178.45 812.614 Q175.394 808.008 175.394 799.281 Q175.394 790.531 178.45 785.948 Q181.528 781.341 187.338 781.341 Z" fill="#000000" fill-rule="nonzero" fill-opacity="1" /><path clip-path="url(#clip680)" d="M117.061 544.507 L135.417 544.507 L135.417 548.442 L121.343 548.442 L121.343 556.914 Q122.362 556.567 123.38 556.405 Q124.399 556.22 125.418 556.22 Q131.205 556.22 134.584 559.391 Q137.964 562.562 137.964 567.979 Q137.964 573.558 134.492 576.66 Q131.019 579.738 124.7 579.738 Q122.524 579.738 120.255 579.368 Q118.01 578.998 115.603 578.257 L115.603 573.558 Q117.686 574.692 119.908 575.248 Q122.13 575.803 124.607 575.803 Q128.612 575.803 130.95 573.697 Q133.288 571.59 133.288 567.979 Q133.288 564.368 130.95 562.261 Q128.612 560.155 124.607 560.155 Q122.732 560.155 120.857 560.572 Q119.006 560.988 117.061 561.868 L117.061 544.507 Z" fill="#000000" fill-rule="nonzero" fill-opacity="1" /><path clip-path="url(#clip680)" d="M160.024 548.581 L148.218 567.03 L160.024 567.03 L160.024 548.581 M158.797 544.507 L164.677 544.507 L164.677 567.03 L169.607 567.03 L169.607 570.919 L164.677 570.919 L164.677 579.067 L160.024 579.067 L160.024 570.919 L144.422 570.919 L144.422 566.405 L158.797 544.507 Z" fill="#000000" fill-rule="nonzero" fill-opacity="1" /><path clip-path="url(#clip680)" d="M187.338 547.586 Q183.727 547.586 181.899 551.15 Q180.093 554.692 180.093 561.822 Q180.093 568.928 181.899 572.493 Q183.727 576.035 187.338 576.035 Q190.973 576.035 192.778 572.493 Q194.607 568.928 194.607 561.822 Q194.607 554.692 192.778 551.15 Q190.973 547.586 187.338 547.586 M187.338 543.882 Q193.149 543.882 196.204 548.488 Q199.283 553.072 199.283 561.822 Q199.283 570.548 196.204 575.155 Q193.149 579.738 187.338 579.738 Q181.528 579.738 178.45 575.155 Q175.394 570.548 175.394 561.822 Q175.394 553.072 178.45 548.488 Q181.528 543.882 187.338 543.882 Z" fill="#000000" fill-rule="nonzero" fill-opacity="1" /><path clip-path="url(#clip680)" d="M117.061 307.048 L135.417 307.048 L135.417 310.983 L121.343 310.983 L121.343 319.455 Q122.362 319.108 123.38 318.946 Q124.399 318.761 125.418 318.761 Q131.205 318.761 134.584 321.932 Q137.964 325.103 137.964 330.52 Q137.964 336.099 134.492 339.2 Q131.019 342.279 124.7 342.279 Q122.524 342.279 120.255 341.909 Q118.01 341.538 115.603 340.798 L115.603 336.099 Q117.686 337.233 119.908 337.788 Q122.13 338.344 124.607 338.344 Q128.612 338.344 130.95 336.237 Q133.288 334.131 133.288 330.52 Q133.288 326.909 130.95 324.802 Q128.612 322.696 124.607 322.696 Q122.732 322.696 120.857 323.113 Q119.006 323.529 117.061 324.409 L117.061 307.048 Z" fill="#000000" fill-rule="nonzero" fill-opacity="1" /><path clip-path="url(#clip680)" d="M145.996 307.048 L168.218 307.048 L168.218 309.039 L155.672 341.608 L150.788 341.608 L162.593 310.983 L145.996 310.983 L145.996 307.048 Z" fill="#000000" fill-rule="nonzero" fill-opacity="1" /><path clip-path="url(#clip680)" d="M187.338 310.127 Q183.727 310.127 181.899 313.691 Q180.093 317.233 180.093 324.363 Q180.093 331.469 181.899 335.034 Q183.727 338.575 187.338 338.575 Q190.973 338.575 192.778 335.034 Q194.607 331.469 194.607 324.363 Q194.607 317.233 192.778 313.691 Q190.973 310.127 187.338 310.127 M187.338 306.423 Q193.149 306.423 196.204 311.029 Q199.283 315.613 199.283 324.363 Q199.283 333.089 196.204 337.696 Q193.149 342.279 187.338 342.279 Q181.528 342.279 178.45 337.696 Q175.394 333.089 175.394 324.363 Q175.394 315.613 178.45 311.029 Q181.528 306.423 187.338 306.423 Z" fill="#000000" fill-rule="nonzero" fill-opacity="1" /><path clip-path="url(#clip680)" d="M57.2247 1104.1 L44.4614 1104.1 L44.4614 1114.61 L39.1779 1114.61 L39.1779 1097.74 L59.58 1097.74 Q62.2218 1101.46 63.5904 1105.95 Q64.9272 1110.44 64.9272 1115.53 Q64.9272 1126.67 58.4342 1132.97 Q51.9093 1139.24 40.2919 1139.24 Q28.6427 1139.24 22.1496 1132.97 Q15.6248 1126.67 15.6248 1115.53 Q15.6248 1110.88 16.7706 1106.71 Q17.9164 1102.51 20.1444 1098.98 L26.9876 1098.98 Q23.9639 1102.54 22.4361 1106.55 Q20.9083 1110.57 20.9083 1114.99 Q20.9083 1123.71 25.7781 1128.1 Q30.6479 1132.46 40.2919 1132.46 Q49.9041 1132.46 54.7739 1128.1 Q59.6436 1123.71 59.6436 1114.99 Q59.6436 1111.58 59.0707 1108.91 Q58.466 1106.24 57.2247 1104.1 Z" fill="#000000" fill-rule="nonzero" fill-opacity="1" /><path clip-path="url(#clip680)" d="M44.7161 1055.76 L47.5806 1055.76 L47.5806 1082.68 Q53.6281 1082.3 56.8109 1079.05 Q59.9619 1075.78 59.9619 1069.95 Q59.9619 1066.58 59.1344 1063.43 Q58.3069 1060.24 56.6518 1057.13 L62.1899 1057.13 Q63.5267 1060.28 64.227 1063.59 Q64.9272 1066.9 64.9272 1070.3 Q64.9272 1078.83 59.9619 1083.83 Q54.9967 1088.79 46.5303 1088.79 Q37.7774 1088.79 32.6531 1084.08 Q27.4968 1079.34 27.4968 1071.32 Q27.4968 1064.13 32.1438 1059.96 Q36.7589 1055.76 44.7161 1055.76 M42.9973 1061.61 Q38.1912 1061.68 35.3266 1064.32 Q32.4621 1066.93 32.4621 1071.26 Q32.4621 1076.16 35.2312 1079.12 Q38.0002 1082.05 43.0292 1082.49 L42.9973 1061.61 Z" fill="#000000" fill-rule="nonzero" fill-opacity="1" /><path clip-path="url(#clip680)" d="M42.4881 1016.51 L64.0042 1016.51 L64.0042 1022.37 L42.679 1022.37 Q37.6183 1022.37 35.1038 1024.34 Q32.5894 1026.32 32.5894 1030.26 Q32.5894 1035 35.6131 1037.74 Q38.6368 1040.48 43.8567 1040.48 L64.0042 1040.48 L64.0042 1046.37 L28.3562 1046.37 L28.3562 1040.48 L33.8944 1040.48 Q30.6797 1038.38 29.0883 1035.55 Q27.4968 1032.68 27.4968 1028.96 Q27.4968 1022.81 31.3163 1019.66 Q35.1038 1016.51 42.4881 1016.51 Z" fill="#000000" fill-rule="nonzero" fill-opacity="1" /><path clip-path="url(#clip680)" d="M44.7161 974.339 L47.5806 974.339 L47.5806 1001.27 Q53.6281 1000.88 56.8109 997.638 Q59.9619 994.359 59.9619 988.535 Q59.9619 985.161 59.1344 982.01 Q58.3069 978.827 56.6518 975.708 L62.1899 975.708 Q63.5267 978.859 64.227 982.169 Q64.9272 985.479 64.9272 988.885 Q64.9272 997.415 59.9619 1002.41 Q54.9967 1007.38 46.5303 1007.38 Q37.7774 1007.38 32.6531 1002.67 Q27.4968 997.924 27.4968 989.903 Q27.4968 982.71 32.1438 978.54 Q36.7589 974.339 44.7161 974.339 M42.9973 980.196 Q38.1912 980.259 35.3266 982.901 Q32.4621 985.511 32.4621 989.84 Q32.4621 994.741 35.2312 997.701 Q38.0002 1000.63 43.0292 1001.08 L42.9973 980.196 Z" fill="#000000" fill-rule="nonzero" fill-opacity="1" /><path clip-path="url(#clip680)" d="M33.8307 944.07 Q33.2578 945.057 33.0032 946.234 Q32.7167 947.38 32.7167 948.781 Q32.7167 953.746 35.9632 956.42 Q39.1779 959.061 45.2253 959.061 L64.0042 959.061 L64.0042 964.95 L28.3562 964.95 L28.3562 959.061 L33.8944 959.061 Q30.6479 957.215 29.0883 954.255 Q27.4968 951.295 27.4968 947.062 Q27.4968 946.457 27.5923 945.725 Q27.656 944.993 27.8151 944.102 L33.8307 944.07 Z" fill="#000000" fill-rule="nonzero" fill-opacity="1" /><path clip-path="url(#clip680)" d="M46.0847 921.727 Q46.0847 928.824 47.7079 931.562 Q49.3312 934.299 53.2461 934.299 Q56.3653 934.299 58.2114 932.262 Q60.0256 930.193 60.0256 926.66 Q60.0256 921.79 56.5881 918.862 Q53.1188 915.902 47.3897 915.902 L46.0847 915.902 L46.0847 921.727 M43.6657 910.045 L64.0042 910.045 L64.0042 915.902 L58.5933 915.902 Q61.8398 917.907 63.3994 920.899 Q64.9272 923.891 64.9272 928.22 Q64.9272 933.694 61.8716 936.941 Q58.7843 940.155 53.6281 940.155 Q47.6125 940.155 44.5569 936.145 Q41.5014 932.103 41.5014 924.114 L41.5014 915.902 L40.9285 915.902 Q36.8862 915.902 34.6901 918.575 Q32.4621 921.217 32.4621 926.023 Q32.4621 929.079 33.1941 931.975 Q33.9262 934.872 35.3903 937.545 L29.9795 937.545 Q28.7381 934.331 28.1334 931.307 Q27.4968 928.283 27.4968 925.419 Q27.4968 917.684 31.5072 913.865 Q35.5176 910.045 43.6657 910.045 Z" fill="#000000" fill-rule="nonzero" fill-opacity="1" /><path clip-path="url(#clip680)" d="M18.2347 892.19 L28.3562 892.19 L28.3562 880.127 L32.9077 880.127 L32.9077 892.19 L52.2594 892.19 Q56.6199 892.19 57.8613 891.012 Q59.1026 889.803 59.1026 886.142 L59.1026 880.127 L64.0042 880.127 L64.0042 886.142 Q64.0042 892.922 61.4897 895.5 Q58.9434 898.078 52.2594 898.078 L32.9077 898.078 L32.9077 902.375 L28.3562 902.375 L28.3562 898.078 L18.2347 898.078 L18.2347 892.19 Z" fill="#000000" fill-rule="nonzero" fill-opacity="1" /><path clip-path="url(#clip680)" d="M32.4621 858.611 Q32.4621 863.321 36.1542 866.058 Q39.8145 868.796 46.212 868.796 Q52.6095 868.796 56.3017 866.09 Q59.9619 863.353 59.9619 858.611 Q59.9619 853.932 56.2698 851.194 Q52.5777 848.457 46.212 848.457 Q39.8781 848.457 36.186 851.194 Q32.4621 853.932 32.4621 858.611 M27.4968 858.611 Q27.4968 850.972 32.4621 846.611 Q37.4273 842.251 46.212 842.251 Q54.9649 842.251 59.9619 846.611 Q64.9272 850.972 64.9272 858.611 Q64.9272 866.281 59.9619 870.642 Q54.9649 874.97 46.212 874.97 Q37.4273 874.97 32.4621 870.642 Q27.4968 866.281 27.4968 858.611 Z" fill="#000000" fill-rule="nonzero" fill-opacity="1" /><path clip-path="url(#clip680)" d="M33.8307 811.886 Q33.2578 812.873 33.0032 814.051 Q32.7167 815.196 32.7167 816.597 Q32.7167 821.562 35.9632 824.236 Q39.1779 826.877 45.2253 826.877 L64.0042 826.877 L64.0042 832.766 L28.3562 832.766 L28.3562 826.877 L33.8944 826.877 Q30.6479 825.031 29.0883 822.071 Q27.4968 819.111 27.4968 814.878 Q27.4968 814.273 27.5923 813.541 Q27.656 812.809 27.8151 811.918 L33.8307 811.886 Z" fill="#000000" fill-rule="nonzero" fill-opacity="1" /><path clip-path="url(#clip680)" d="M21.7677 778.339 L39.6235 778.339 L39.6235 770.255 Q39.6235 765.767 37.3 763.316 Q34.9765 760.865 30.6797 760.865 Q26.4147 760.865 24.0912 763.316 Q21.7677 765.767 21.7677 770.255 L21.7677 778.339 M16.4842 784.768 L16.4842 770.255 Q16.4842 762.266 20.1126 758.192 Q23.7092 754.086 30.6797 754.086 Q37.7138 754.086 41.3104 758.192 Q44.907 762.266 44.907 770.255 L44.907 778.339 L64.0042 778.339 L64.0042 784.768 L16.4842 784.768 Z" fill="#000000" fill-rule="nonzero" fill-opacity="1" /><path clip-path="url(#clip680)" d="M32.4621 734.225 Q32.4621 738.935 36.1542 741.673 Q39.8145 744.41 46.212 744.41 Q52.6095 744.41 56.3017 741.704 Q59.9619 738.967 59.9619 734.225 Q59.9619 729.546 56.2698 726.809 Q52.5777 724.071 46.212 724.071 Q39.8781 724.071 36.186 726.809 Q32.4621 729.546 32.4621 734.225 M27.4968 734.225 Q27.4968 726.586 32.4621 722.225 Q37.4273 717.865 46.212 717.865 Q54.9649 717.865 59.9619 722.225 Q64.9272 726.586 64.9272 734.225 Q64.9272 741.895 59.9619 746.256 Q54.9649 750.584 46.212 750.584 Q37.4273 750.584 32.4621 746.256 Q27.4968 741.895 27.4968 734.225 Z" fill="#000000" fill-rule="nonzero" fill-opacity="1" /><path clip-path="url(#clip680)" d="M28.3562 711.563 L28.3562 705.706 L56.1743 698.386 L28.3562 691.097 L28.3562 684.19 L56.1743 676.87 L28.3562 669.581 L28.3562 663.724 L64.0042 673.05 L64.0042 679.957 L34.7856 687.628 L64.0042 695.33 L64.0042 702.237 L28.3562 711.563 Z" fill="#000000" fill-rule="nonzero" fill-opacity="1" /><path clip-path="url(#clip680)" d="M44.7161 624.353 L47.5806 624.353 L47.5806 651.279 Q53.6281 650.898 56.8109 647.651 Q59.9619 644.373 59.9619 638.548 Q59.9619 635.174 59.1344 632.023 Q58.3069 628.84 56.6518 625.721 L62.1899 625.721 Q63.5267 628.872 64.227 632.182 Q64.9272 635.493 64.9272 638.898 Q64.9272 647.428 59.9619 652.425 Q54.9967 657.391 46.5303 657.391 Q37.7774 657.391 32.6531 652.68 Q27.4968 647.937 27.4968 639.917 Q27.4968 632.723 32.1438 628.554 Q36.7589 624.353 44.7161 624.353 M42.9973 630.209 Q38.1912 630.273 35.3266 632.914 Q32.4621 635.524 32.4621 639.853 Q32.4621 644.755 35.2312 647.715 Q38.0002 650.643 43.0292 651.089 L42.9973 630.209 Z" fill="#000000" fill-rule="nonzero" fill-opacity="1" /><path clip-path="url(#clip680)" d="M33.8307 594.084 Q33.2578 595.07 33.0032 596.248 Q32.7167 597.394 32.7167 598.794 Q32.7167 603.759 35.9632 606.433 Q39.1779 609.075 45.2253 609.075 L64.0042 609.075 L64.0042 614.963 L28.3562 614.963 L28.3562 609.075 L33.8944 609.075 Q30.6479 607.229 29.0883 604.269 Q27.4968 601.309 27.4968 597.075 Q27.4968 596.471 27.5923 595.739 Q27.656 595.007 27.8151 594.115 L33.8307 594.084 Z" fill="#000000" fill-rule="nonzero" fill-opacity="1" /><path clip-path="url(#clip680)" d="M14.5426 553.152 Q21.8632 557.417 29.0246 559.486 Q36.186 561.555 43.5384 561.555 Q50.8908 561.555 58.1159 559.486 Q65.3091 557.385 72.5979 553.152 L72.5979 558.245 Q65.1182 563.019 57.8931 565.406 Q50.668 567.761 43.5384 567.761 Q36.4406 567.761 29.2474 565.406 Q22.0542 563.051 14.5426 558.245 L14.5426 553.152 Z" fill="#000000" fill-rule="nonzero" fill-opacity="1" /><path clip-path="url(#clip680)" d="M16.4842 541.535 L16.4842 531.954 L48.8219 519.828 L16.4842 507.637 L16.4842 498.057 L64.0042 498.057 L64.0042 504.327 L22.277 504.327 L54.8694 516.581 L54.8694 523.042 L22.277 535.296 L64.0042 535.296 L64.0042 541.535 L16.4842 541.535 Z" fill="#000000" fill-rule="nonzero" fill-opacity="1" /><path clip-path="url(#clip680)" d="M16.4842 489.527 L16.4842 483.034 L56.6518 473.04 L16.4842 463.077 L16.4842 455.852 L56.6518 445.858 L16.4842 435.896 L16.4842 429.371 L64.0042 441.307 L64.0042 449.391 L22.7544 459.417 L64.0042 469.539 L64.0042 477.623 L16.4842 489.527 Z" fill="#000000" fill-rule="nonzero" fill-opacity="1" /><path clip-path="url(#clip680)" d="M14.5426 422.019 L14.5426 416.926 Q22.0542 412.152 29.2474 409.796 Q36.4406 407.409 43.5384 407.409 Q50.668 407.409 57.8931 409.796 Q65.1182 412.152 72.5979 416.926 L72.5979 422.019 Q65.3091 417.785 58.1159 415.716 Q50.8908 413.616 43.5384 413.616 Q36.186 413.616 29.0246 415.716 Q21.8632 417.785 14.5426 422.019 Z" fill="#000000" fill-rule="nonzero" fill-opacity="1" /><path clip-path="url(#clip680)" d="M308.799 63.9476 L308.799 47.7034 L295.431 47.7034 L295.431 40.9789 L316.901 40.9789 L316.901 66.9452 Q312.161 70.3075 306.449 72.0494 Q300.738 73.7508 294.256 73.7508 Q280.078 73.7508 272.057 65.4869 Q264.077 57.1826 264.077 42.3968 Q264.077 27.5705 272.057 19.3066 Q280.078 11.0023 294.256 11.0023 Q300.171 11.0023 305.477 12.4606 Q310.824 13.9189 315.321 16.7545 L315.321 25.464 Q310.784 21.6156 305.68 19.6712 Q300.576 17.7268 294.945 17.7268 Q283.845 17.7268 278.255 23.9246 Q272.705 30.1225 272.705 42.3968 Q272.705 54.6305 278.255 60.8284 Q283.845 67.0263 294.945 67.0263 Q299.279 67.0263 302.682 66.2971 Q306.085 65.5274 308.799 63.9476 Z" fill="#000000" fill-rule="nonzero" fill-opacity="1" /><path clip-path="url(#clip680)" d="M370.332 48.0275 L370.332 51.6733 L336.062 51.6733 Q336.548 59.3701 340.68 63.421 Q344.852 67.4314 352.265 67.4314 Q356.559 67.4314 360.57 66.3781 Q364.62 65.3249 368.59 63.2184 L368.59 70.267 Q364.58 71.9684 360.367 72.8596 Q356.154 73.7508 351.82 73.7508 Q340.963 73.7508 334.603 67.4314 Q328.284 61.1119 328.284 50.3365 Q328.284 39.1965 334.279 32.6746 Q340.315 26.1121 350.523 26.1121 Q359.678 26.1121 364.985 32.0264 Q370.332 37.9003 370.332 48.0275 M362.879 45.84 Q362.798 39.7232 359.435 36.0774 Q356.114 32.4315 350.604 32.4315 Q344.366 32.4315 340.599 35.9558 Q336.872 39.4801 336.305 45.8805 L362.879 45.84 Z" fill="#000000" fill-rule="nonzero" fill-opacity="1" /><path clip-path="url(#clip680)" d="M420.28 45.1919 L420.28 72.576 L412.826 72.576 L412.826 45.4349 Q412.826 38.994 410.315 35.7938 Q407.803 32.5936 402.78 32.5936 Q396.744 32.5936 393.26 36.4419 Q389.777 40.2903 389.777 46.9338 L389.777 72.576 L382.282 72.576 L382.282 27.2059 L389.777 27.2059 L389.777 34.2544 Q392.45 30.163 396.055 28.1376 Q399.701 26.1121 404.441 26.1121 Q412.259 26.1121 416.269 30.9732 Q420.28 35.7938 420.28 45.1919 Z" fill="#000000" fill-rule="nonzero" fill-opacity="1" /><path clip-path="url(#clip680)" d="M473.954 48.0275 L473.954 51.6733 L439.684 51.6733 Q440.17 59.3701 444.302 63.421 Q448.474 67.4314 455.887 67.4314 Q460.181 67.4314 464.192 66.3781 Q468.243 65.3249 472.212 63.2184 L472.212 70.267 Q468.202 71.9684 463.989 72.8596 Q459.776 73.7508 455.442 73.7508 Q444.585 73.7508 438.225 67.4314 Q431.906 61.1119 431.906 50.3365 Q431.906 39.1965 437.901 32.6746 Q443.937 26.1121 454.145 26.1121 Q463.3 26.1121 468.607 32.0264 Q473.954 37.9003 473.954 48.0275 M466.501 45.84 Q466.42 39.7232 463.057 36.0774 Q459.736 32.4315 454.226 32.4315 Q447.988 32.4315 444.221 35.9558 Q440.494 39.4801 439.927 45.8805 L466.501 45.84 Z" fill="#000000" fill-rule="nonzero" fill-opacity="1" /><path clip-path="url(#clip680)" d="M512.478 34.1734 Q511.223 33.4443 509.724 33.1202 Q508.265 32.7556 506.483 32.7556 Q500.164 32.7556 496.761 36.8875 Q493.399 40.9789 493.399 48.6757 L493.399 72.576 L485.904 72.576 L485.904 27.2059 L493.399 27.2059 L493.399 34.2544 Q495.748 30.1225 499.516 28.1376 Q503.283 26.1121 508.671 26.1121 Q509.44 26.1121 510.372 26.2337 Q511.304 26.3147 512.438 26.5172 L512.478 34.1734 Z" fill="#000000" fill-rule="nonzero" fill-opacity="1" /><path clip-path="url(#clip680)" d="M540.916 49.7694 Q531.882 49.7694 528.398 51.8354 Q524.915 53.9013 524.915 58.8839 Q524.915 62.8538 527.507 65.2034 Q530.14 67.5124 534.637 67.5124 Q540.835 67.5124 544.562 63.1374 Q548.329 58.7219 548.329 51.4303 L548.329 49.7694 L540.916 49.7694 M555.783 46.6907 L555.783 72.576 L548.329 72.576 L548.329 65.6895 Q545.777 69.8214 541.969 71.8063 Q538.161 73.7508 532.652 73.7508 Q525.684 73.7508 521.552 69.8619 Q517.461 65.9325 517.461 59.3701 Q517.461 51.7138 522.565 47.825 Q527.71 43.9361 537.878 43.9361 L548.329 43.9361 L548.329 43.2069 Q548.329 38.0623 544.926 35.2672 Q541.564 32.4315 535.447 32.4315 Q531.558 32.4315 527.872 33.3632 Q524.186 34.295 520.783 36.1584 L520.783 29.2718 Q524.874 27.692 528.723 26.9223 Q532.571 26.1121 536.217 26.1121 Q546.06 26.1121 550.922 31.2163 Q555.783 36.3204 555.783 46.6907 Z" fill="#000000" fill-rule="nonzero" fill-opacity="1" /><path clip-path="url(#clip680)" d="M578.508 14.324 L578.508 27.2059 L593.861 27.2059 L593.861 32.9987 L578.508 32.9987 L578.508 57.6282 Q578.508 63.1779 580.007 64.7578 Q581.546 66.3376 586.205 66.3376 L593.861 66.3376 L593.861 72.576 L586.205 72.576 Q577.576 72.576 574.295 69.3758 Q571.014 66.1351 571.014 57.6282 L571.014 32.9987 L565.545 32.9987 L565.545 27.2059 L571.014 27.2059 L571.014 14.324 L578.508 14.324 Z" fill="#000000" fill-rule="nonzero" fill-opacity="1" /><path clip-path="url(#clip680)" d="M621.245 32.4315 Q615.25 32.4315 611.766 37.1306 Q608.282 41.7891 608.282 49.9314 Q608.282 58.0738 611.726 62.7728 Q615.209 67.4314 621.245 67.4314 Q627.2 67.4314 630.684 62.7323 Q634.168 58.0333 634.168 49.9314 Q634.168 41.8701 630.684 37.1711 Q627.2 32.4315 621.245 32.4315 M621.245 26.1121 Q630.967 26.1121 636.517 32.4315 Q642.067 38.7509 642.067 49.9314 Q642.067 61.0714 636.517 67.4314 Q630.967 73.7508 621.245 73.7508 Q611.483 73.7508 605.933 67.4314 Q600.424 61.0714 600.424 49.9314 Q600.424 38.7509 605.933 32.4315 Q611.483 26.1121 621.245 26.1121 Z" fill="#000000" fill-rule="nonzero" fill-opacity="1" /><path clip-path="url(#clip680)" d="M680.712 34.1734 Q679.457 33.4443 677.958 33.1202 Q676.5 32.7556 674.717 32.7556 Q668.398 32.7556 664.995 36.8875 Q661.633 40.9789 661.633 48.6757 L661.633 72.576 L654.139 72.576 L654.139 27.2059 L661.633 27.2059 L661.633 34.2544 Q663.982 30.1225 667.75 28.1376 Q671.517 26.1121 676.905 26.1121 Q677.674 26.1121 678.606 26.2337 Q679.538 26.3147 680.672 26.5172 L680.712 34.1734 Z" fill="#000000" fill-rule="nonzero" fill-opacity="1" /><path clip-path="url(#clip680)" d="M717.454 28.5427 L717.454 35.5912 Q714.294 33.9709 710.892 33.1607 Q707.489 32.3505 703.843 32.3505 Q698.293 32.3505 695.498 34.0519 Q692.744 35.7533 692.744 39.156 Q692.744 41.7486 694.729 43.2475 Q696.714 44.7058 702.709 46.0426 L705.261 46.6097 Q713.201 48.3111 716.522 51.4303 Q719.885 54.509 719.885 60.0587 Q719.885 66.3781 714.862 70.0644 Q709.879 73.7508 701.129 73.7508 Q697.483 73.7508 693.513 73.0216 Q689.584 72.3329 685.209 70.9151 L685.209 63.2184 Q689.341 65.3654 693.351 66.4591 Q697.362 67.5124 701.291 67.5124 Q706.557 67.5124 709.393 65.73 Q712.229 63.9071 712.229 60.6258 Q712.229 57.5877 710.163 55.9673 Q708.137 54.3469 701.21 52.8481 L698.617 52.2405 Q691.69 50.7821 688.612 47.7845 Q685.533 44.7463 685.533 39.4801 Q685.533 33.0797 690.07 29.5959 Q694.607 26.1121 702.952 26.1121 Q707.084 26.1121 710.73 26.7198 Q714.375 27.3274 717.454 28.5427 Z" fill="#000000" fill-rule="nonzero" fill-opacity="1" /><path clip-path="url(#clip680)" d="M758.449 12.096 L766.632 12.096 L766.632 65.6895 L796.082 65.6895 L796.082 72.576 L758.449 72.576 L758.449 12.096 Z" fill="#000000" fill-rule="nonzero" fill-opacity="1" /><path clip-path="url(#clip680)" d="M820.469 32.4315 Q814.473 32.4315 810.99 37.1306 Q807.506 41.7891 807.506 49.9314 Q807.506 58.0738 810.949 62.7728 Q814.433 67.4314 820.469 67.4314 Q826.424 67.4314 829.907 62.7323 Q833.391 58.0333 833.391 49.9314 Q833.391 41.8701 829.907 37.1711 Q826.424 32.4315 820.469 32.4315 M820.469 26.1121 Q830.191 26.1121 835.741 32.4315 Q841.29 38.7509 841.29 49.9314 Q841.29 61.0714 835.741 67.4314 Q830.191 73.7508 820.469 73.7508 Q810.706 73.7508 805.156 67.4314 Q799.647 61.0714 799.647 49.9314 Q799.647 38.7509 805.156 32.4315 Q810.706 26.1121 820.469 26.1121 Z" fill="#000000" fill-rule="nonzero" fill-opacity="1" /><path clip-path="url(#clip680)" d="M874.265 49.7694 Q865.231 49.7694 861.747 51.8354 Q858.264 53.9013 858.264 58.8839 Q858.264 62.8538 860.856 65.2034 Q863.489 67.5124 867.986 67.5124 Q874.184 67.5124 877.91 63.1374 Q881.678 58.7219 881.678 51.4303 L881.678 49.7694 L874.265 49.7694 M889.132 46.6907 L889.132 72.576 L881.678 72.576 L881.678 65.6895 Q879.126 69.8214 875.318 71.8063 Q871.51 73.7508 866.001 73.7508 Q859.033 73.7508 854.901 69.8619 Q850.81 65.9325 850.81 59.3701 Q850.81 51.7138 855.914 47.825 Q861.059 43.9361 871.227 43.9361 L881.678 43.9361 L881.678 43.2069 Q881.678 38.0623 878.275 35.2672 Q874.913 32.4315 868.796 32.4315 Q864.907 32.4315 861.221 33.3632 Q857.534 34.295 854.132 36.1584 L854.132 29.2718 Q858.223 27.692 862.071 26.9223 Q865.92 26.1121 869.566 26.1121 Q879.409 26.1121 884.27 31.2163 Q889.132 36.3204 889.132 46.6907 Z" fill="#000000" fill-rule="nonzero" fill-opacity="1" /><path clip-path="url(#clip680)" d="M934.34 34.0924 L934.34 9.54393 L941.793 9.54393 L941.793 72.576 L934.34 72.576 L934.34 65.7705 Q931.99 69.8214 928.385 71.8063 Q924.82 73.7508 919.797 73.7508 Q911.574 73.7508 906.388 67.1883 Q901.244 60.6258 901.244 49.9314 Q901.244 39.2371 906.388 32.6746 Q911.574 26.1121 919.797 26.1121 Q924.82 26.1121 928.385 28.0971 Q931.99 30.0415 934.34 34.0924 M908.94 49.9314 Q908.94 58.1548 912.303 62.8538 Q915.705 67.5124 921.62 67.5124 Q927.534 67.5124 930.937 62.8538 Q934.34 58.1548 934.34 49.9314 Q934.34 41.7081 930.937 37.0496 Q927.534 32.3505 921.62 32.3505 Q915.705 32.3505 912.303 37.0496 Q908.94 41.7081 908.94 49.9314 Z" fill="#000000" fill-rule="nonzero" fill-opacity="1" /><path clip-path="url(#clip680)" d="M992.024 18.8205 L992.024 41.5461 L1002.31 41.5461 Q1008.03 41.5461 1011.14 38.5889 Q1014.26 35.6318 1014.26 30.163 Q1014.26 24.7348 1011.14 21.7777 Q1008.03 18.8205 1002.31 18.8205 L992.024 18.8205 M983.842 12.096 L1002.31 12.096 Q1012.48 12.096 1017.67 16.714 Q1022.89 21.2916 1022.89 30.163 Q1022.89 39.1155 1017.67 43.6931 Q1012.48 48.2706 1002.31 48.2706 L992.024 48.2706 L992.024 72.576 L983.842 72.576 L983.842 12.096 Z" fill="#000000" fill-rule="nonzero" fill-opacity="1" /><path clip-path="url(#clip680)" d="M1058.38 34.1734 Q1057.12 33.4443 1055.62 33.1202 Q1054.17 32.7556 1052.38 32.7556 Q1046.06 32.7556 1042.66 36.8875 Q1039.3 40.9789 1039.3 48.6757 L1039.3 72.576 L1031.8 72.576 L1031.8 27.2059 L1039.3 27.2059 L1039.3 34.2544 Q1041.65 30.1225 1045.42 28.1376 Q1049.18 26.1121 1054.57 26.1121 Q1055.34 26.1121 1056.27 26.2337 Q1057.2 26.3147 1058.34 26.5172 L1058.38 34.1734 Z" fill="#000000" fill-rule="nonzero" fill-opacity="1" /><path clip-path="url(#clip680)" d="M1081.95 32.4315 Q1075.96 32.4315 1072.48 37.1306 Q1068.99 41.7891 1068.99 49.9314 Q1068.99 58.0738 1072.43 62.7728 Q1075.92 67.4314 1081.95 67.4314 Q1087.91 67.4314 1091.39 62.7323 Q1094.88 58.0333 1094.88 49.9314 Q1094.88 41.8701 1091.39 37.1711 Q1087.91 32.4315 1081.95 32.4315 M1081.95 26.1121 Q1091.68 26.1121 1097.23 32.4315 Q1102.78 38.7509 1102.78 49.9314 Q1102.78 61.0714 1097.23 67.4314 Q1091.68 73.7508 1081.95 73.7508 Q1072.19 73.7508 1066.64 67.4314 Q1061.13 61.0714 1061.13 49.9314 Q1061.13 38.7509 1066.64 32.4315 Q1072.19 26.1121 1081.95 26.1121 Z" fill="#000000" fill-rule="nonzero" fill-opacity="1" /><path clip-path="url(#clip680)" d="M1138.1 9.54393 L1138.1 15.7418 L1130.97 15.7418 Q1126.96 15.7418 1125.38 17.3622 Q1123.84 18.9825 1123.84 23.1955 L1123.84 27.2059 L1136.12 27.2059 L1136.12 32.9987 L1123.84 32.9987 L1123.84 72.576 L1116.35 72.576 L1116.35 32.9987 L1109.22 32.9987 L1109.22 27.2059 L1116.35 27.2059 L1116.35 24.0462 Q1116.35 16.471 1119.87 13.0277 Q1123.4 9.54393 1131.05 9.54393 L1138.1 9.54393 Z" fill="#000000" fill-rule="nonzero" fill-opacity="1" /><path clip-path="url(#clip680)" d="M1144.34 27.2059 L1151.79 27.2059 L1151.79 72.576 L1144.34 72.576 L1144.34 27.2059 M1144.34 9.54393 L1151.79 9.54393 L1151.79 18.9825 L1144.34 18.9825 L1144.34 9.54393 Z" fill="#000000" fill-rule="nonzero" fill-opacity="1" /><path clip-path="url(#clip680)" d="M1167.39 9.54393 L1174.84 9.54393 L1174.84 72.576 L1167.39 72.576 L1167.39 9.54393 Z" fill="#000000" fill-rule="nonzero" fill-opacity="1" /><path clip-path="url(#clip680)" d="M1229.25 48.0275 L1229.25 51.6733 L1194.97 51.6733 Q1195.46 59.3701 1199.59 63.421 Q1203.77 67.4314 1211.18 67.4314 Q1215.47 67.4314 1219.48 66.3781 Q1223.53 65.3249 1227.5 63.2184 L1227.5 70.267 Q1223.49 71.9684 1219.28 72.8596 Q1215.07 73.7508 1210.73 73.7508 Q1199.88 73.7508 1193.52 67.4314 Q1187.2 61.1119 1187.2 50.3365 Q1187.2 39.1965 1193.19 32.6746 Q1199.23 26.1121 1209.44 26.1121 Q1218.59 26.1121 1223.9 32.0264 Q1229.25 37.9003 1229.25 48.0275 M1221.79 45.84 Q1221.71 39.7232 1218.35 36.0774 Q1215.03 32.4315 1209.52 32.4315 Q1203.28 32.4315 1199.51 35.9558 Q1195.78 39.4801 1195.22 45.8805 L1221.79 45.84 Z" fill="#000000" fill-rule="nonzero" fill-opacity="1" /><path clip-path="url(#clip680)" d="M1276.36 43.6931 L1276.36 65.8515 L1289.48 65.8515 Q1296.09 65.8515 1299.25 63.1374 Q1302.45 60.3828 1302.45 54.752 Q1302.45 49.0808 1299.25 46.4072 Q1296.09 43.6931 1289.48 43.6931 L1276.36 43.6931 M1276.36 18.8205 L1276.36 37.0496 L1288.47 37.0496 Q1294.46 37.0496 1297.38 34.8216 Q1300.34 32.5531 1300.34 27.935 Q1300.34 23.3575 1297.38 21.089 Q1294.46 18.8205 1288.47 18.8205 L1276.36 18.8205 M1268.17 12.096 L1289.08 12.096 Q1298.43 12.096 1303.5 15.9849 Q1308.56 19.8737 1308.56 27.0438 Q1308.56 32.5936 1305.97 35.8748 Q1303.38 39.156 1298.35 39.9662 Q1304.39 41.2625 1307.71 45.3944 Q1311.07 49.4858 1311.07 55.6432 Q1311.07 63.745 1305.56 68.1605 Q1300.06 72.576 1289.89 72.576 L1268.17 72.576 L1268.17 12.096 Z" fill="#000000" fill-rule="nonzero" fill-opacity="1" /><path clip-path="url(#clip680)" d="M1363.57 48.0275 L1363.57 51.6733 L1329.3 51.6733 Q1329.79 59.3701 1333.92 63.421 Q1338.09 67.4314 1345.51 67.4314 Q1349.8 67.4314 1353.81 66.3781 Q1357.86 65.3249 1361.83 63.2184 L1361.83 70.267 Q1357.82 71.9684 1353.61 72.8596 Q1349.4 73.7508 1345.06 73.7508 Q1334.2 73.7508 1327.84 67.4314 Q1321.53 61.1119 1321.53 50.3365 Q1321.53 39.1965 1327.52 32.6746 Q1333.56 26.1121 1343.76 26.1121 Q1352.92 26.1121 1358.23 32.0264 Q1363.57 37.9003 1363.57 48.0275 M1356.12 45.84 Q1356.04 39.7232 1352.68 36.0774 Q1349.35 32.4315 1343.85 32.4315 Q1337.61 32.4315 1333.84 35.9558 Q1330.11 39.4801 1329.55 45.8805 L1356.12 45.84 Z" fill="#000000" fill-rule="nonzero" fill-opacity="1" /><path clip-path="url(#clip680)" d="M1398.78 9.54393 L1398.78 15.7418 L1391.65 15.7418 Q1387.64 15.7418 1386.06 17.3622 Q1384.52 18.9825 1384.52 23.1955 L1384.52 27.2059 L1396.79 27.2059 L1396.79 32.9987 L1384.52 32.9987 L1384.52 72.576 L1377.02 72.576 L1377.02 32.9987 L1369.89 32.9987 L1369.89 27.2059 L1377.02 27.2059 L1377.02 24.0462 Q1377.02 16.471 1380.55 13.0277 Q1384.07 9.54393 1391.73 9.54393 L1398.78 9.54393 Z" fill="#000000" fill-rule="nonzero" fill-opacity="1" /><path clip-path="url(#clip680)" d="M1422.6 32.4315 Q1416.6 32.4315 1413.12 37.1306 Q1409.63 41.7891 1409.63 49.9314 Q1409.63 58.0738 1413.08 62.7728 Q1416.56 67.4314 1422.6 67.4314 Q1428.55 67.4314 1432.03 62.7323 Q1435.52 58.0333 1435.52 49.9314 Q1435.52 41.8701 1432.03 37.1711 Q1428.55 32.4315 1422.6 32.4315 M1422.6 26.1121 Q1432.32 26.1121 1437.87 32.4315 Q1443.42 38.7509 1443.42 49.9314 Q1443.42 61.0714 1437.87 67.4314 Q1432.32 73.7508 1422.6 73.7508 Q1412.83 73.7508 1407.28 67.4314 Q1401.77 61.0714 1401.77 49.9314 Q1401.77 38.7509 1407.28 32.4315 Q1412.83 26.1121 1422.6 26.1121 Z" fill="#000000" fill-rule="nonzero" fill-opacity="1" /><path clip-path="url(#clip680)" d="M1482.06 34.1734 Q1480.81 33.4443 1479.31 33.1202 Q1477.85 32.7556 1476.07 32.7556 Q1469.75 32.7556 1466.34 36.8875 Q1462.98 40.9789 1462.98 48.6757 L1462.98 72.576 L1455.49 72.576 L1455.49 27.2059 L1462.98 27.2059 L1462.98 34.2544 Q1465.33 30.1225 1469.1 28.1376 Q1472.87 26.1121 1478.25 26.1121 Q1479.02 26.1121 1479.96 26.2337 Q1480.89 26.3147 1482.02 26.5172 L1482.06 34.1734 Z" fill="#000000" fill-rule="nonzero" fill-opacity="1" /><path clip-path="url(#clip680)" d="M1526.87 48.0275 L1526.87 51.6733 L1492.59 51.6733 Q1493.08 59.3701 1497.21 63.421 Q1501.39 67.4314 1508.8 67.4314 Q1513.09 67.4314 1517.1 66.3781 Q1521.15 65.3249 1525.12 63.2184 L1525.12 70.267 Q1521.11 71.9684 1516.9 72.8596 Q1512.69 73.7508 1508.35 73.7508 Q1497.5 73.7508 1491.14 67.4314 Q1484.82 61.1119 1484.82 50.3365 Q1484.82 39.1965 1490.81 32.6746 Q1496.85 26.1121 1507.06 26.1121 Q1516.21 26.1121 1521.52 32.0264 Q1526.87 37.9003 1526.87 48.0275 M1519.41 45.84 Q1519.33 39.7232 1515.97 36.0774 Q1512.65 32.4315 1507.14 32.4315 Q1500.9 32.4315 1497.13 35.9558 Q1493.4 39.4801 1492.84 45.8805 L1519.41 45.84 Z" fill="#000000" fill-rule="nonzero" fill-opacity="1" /><path clip-path="url(#clip680)" d="M1586.09 49.7694 Q1577.06 49.7694 1573.57 51.8354 Q1570.09 53.9013 1570.09 58.8839 Q1570.09 62.8538 1572.68 65.2034 Q1575.31 67.5124 1579.81 67.5124 Q1586.01 67.5124 1589.74 63.1374 Q1593.5 58.7219 1593.5 51.4303 L1593.5 49.7694 L1586.09 49.7694 M1600.96 46.6907 L1600.96 72.576 L1593.5 72.576 L1593.5 65.6895 Q1590.95 69.8214 1587.14 71.8063 Q1583.33 73.7508 1577.83 73.7508 Q1570.86 73.7508 1566.73 69.8619 Q1562.63 65.9325 1562.63 59.3701 Q1562.63 51.7138 1567.74 47.825 Q1572.88 43.9361 1583.05 43.9361 L1593.5 43.9361 L1593.5 43.2069 Q1593.5 38.0623 1590.1 35.2672 Q1586.74 32.4315 1580.62 32.4315 Q1576.73 32.4315 1573.05 33.3632 Q1569.36 34.295 1565.96 36.1584 L1565.96 29.2718 Q1570.05 27.692 1573.9 26.9223 Q1577.74 26.1121 1581.39 26.1121 Q1591.23 26.1121 1596.1 31.2163 Q1600.96 36.3204 1600.96 46.6907 Z" fill="#000000" fill-rule="nonzero" fill-opacity="1" /><path clip-path="url(#clip680)" d="M1654.02 45.1919 L1654.02 72.576 L1646.57 72.576 L1646.57 45.4349 Q1646.57 38.994 1644.06 35.7938 Q1641.55 32.5936 1636.52 32.5936 Q1630.49 32.5936 1627 36.4419 Q1623.52 40.2903 1623.52 46.9338 L1623.52 72.576 L1616.03 72.576 L1616.03 27.2059 L1623.52 27.2059 L1623.52 34.2544 Q1626.19 30.163 1629.8 28.1376 Q1633.44 26.1121 1638.18 26.1121 Q1646 26.1121 1650.01 30.9732 Q1654.02 35.7938 1654.02 45.1919 Z" fill="#000000" fill-rule="nonzero" fill-opacity="1" /><path clip-path="url(#clip680)" d="M1698.75 34.0924 L1698.75 9.54393 L1706.2 9.54393 L1706.2 72.576 L1698.75 72.576 L1698.75 65.7705 Q1696.4 69.8214 1692.79 71.8063 Q1689.23 73.7508 1684.2 73.7508 Q1675.98 73.7508 1670.79 67.1883 Q1665.65 60.6258 1665.65 49.9314 Q1665.65 39.2371 1670.79 32.6746 Q1675.98 26.1121 1684.2 26.1121 Q1689.23 26.1121 1692.79 28.0971 Q1696.4 30.0415 1698.75 34.0924 M1673.35 49.9314 Q1673.35 58.1548 1676.71 62.8538 Q1680.11 67.5124 1686.03 67.5124 Q1691.94 67.5124 1695.34 62.8538 Q1698.75 58.1548 1698.75 49.9314 Q1698.75 41.7081 1695.34 37.0496 Q1691.94 32.3505 1686.03 32.3505 Q1680.11 32.3505 1676.71 37.0496 Q1673.35 41.7081 1673.35 49.9314 Z" fill="#000000" fill-rule="nonzero" fill-opacity="1" /><path clip-path="url(#clip680)" d="M1768.46 20.1573 L1757.36 50.2555 L1779.6 50.2555 L1768.46 20.1573 M1763.84 12.096 L1773.12 12.096 L1796.17 72.576 L1787.66 72.576 L1782.15 57.061 L1754.89 57.061 L1749.38 72.576 L1740.75 72.576 L1763.84 12.096 Z" fill="#000000" fill-rule="nonzero" fill-opacity="1" /><path clip-path="url(#clip680)" d="M1824.69 9.54393 L1824.69 15.7418 L1817.56 15.7418 Q1813.55 15.7418 1811.97 17.3622 Q1810.43 18.9825 1810.43 23.1955 L1810.43 27.2059 L1822.7 27.2059 L1822.7 32.9987 L1810.43 32.9987 L1810.43 72.576 L1802.93 72.576 L1802.93 32.9987 L1795.8 32.9987 L1795.8 27.2059 L1802.93 27.2059 L1802.93 24.0462 Q1802.93 16.471 1806.46 13.0277 Q1809.98 9.54393 1817.64 9.54393 L1824.69 9.54393 Z" fill="#000000" fill-rule="nonzero" fill-opacity="1" /><path clip-path="url(#clip680)" d="M1836.84 14.324 L1836.84 27.2059 L1852.19 27.2059 L1852.19 32.9987 L1836.84 32.9987 L1836.84 57.6282 Q1836.84 63.1779 1838.34 64.7578 Q1839.88 66.3376 1844.54 66.3376 L1852.19 66.3376 L1852.19 72.576 L1844.54 72.576 Q1835.91 72.576 1832.63 69.3758 Q1829.35 66.1351 1829.35 57.6282 L1829.35 32.9987 L1823.88 32.9987 L1823.88 27.2059 L1829.35 27.2059 L1829.35 14.324 L1836.84 14.324 Z" fill="#000000" fill-rule="nonzero" fill-opacity="1" /><path clip-path="url(#clip680)" d="M1900.8 48.0275 L1900.8 51.6733 L1866.53 51.6733 Q1867.02 59.3701 1871.15 63.421 Q1875.32 67.4314 1882.74 67.4314 Q1887.03 67.4314 1891.04 66.3781 Q1895.09 65.3249 1899.06 63.2184 L1899.06 70.267 Q1895.05 71.9684 1890.84 72.8596 Q1886.63 73.7508 1882.29 73.7508 Q1871.44 73.7508 1865.08 67.4314 Q1858.76 61.1119 1858.76 50.3365 Q1858.76 39.1965 1864.75 32.6746 Q1870.79 26.1121 1881 26.1121 Q1890.15 26.1121 1895.46 32.0264 Q1900.8 37.9003 1900.8 48.0275 M1893.35 45.84 Q1893.27 39.7232 1889.91 36.0774 Q1886.59 32.4315 1881.08 32.4315 Q1874.84 32.4315 1871.07 35.9558 Q1867.34 39.4801 1866.78 45.8805 L1893.35 45.84 Z" fill="#000000" fill-rule="nonzero" fill-opacity="1" /><path clip-path="url(#clip680)" d="M1939.33 34.1734 Q1938.07 33.4443 1936.57 33.1202 Q1935.12 32.7556 1933.33 32.7556 Q1927.01 32.7556 1923.61 36.8875 Q1920.25 40.9789 1920.25 48.6757 L1920.25 72.576 L1912.75 72.576 L1912.75 27.2059 L1920.25 27.2059 L1920.25 34.2544 Q1922.6 30.1225 1926.37 28.1376 Q1930.13 26.1121 1935.52 26.1121 Q1936.29 26.1121 1937.22 26.2337 Q1938.15 26.3147 1939.29 26.5172 L1939.33 34.1734 Z" fill="#000000" fill-rule="nonzero" fill-opacity="1" /><path clip-path="url(#clip680)" d="M2010.1 14.0809 L2010.1 22.0612 Q2005.44 19.8332 2001.31 18.7395 Q1997.18 17.6457 1993.33 17.6457 Q1986.64 17.6457 1983 20.2383 Q1979.39 22.8309 1979.39 27.611 Q1979.39 31.6214 1981.78 33.6873 Q1984.21 35.7128 1990.94 36.9686 L1995.88 37.9813 Q2005.03 39.7232 2009.37 44.1387 Q2013.74 48.5136 2013.74 55.8863 Q2013.74 64.6767 2007.83 69.2137 Q2001.96 73.7508 1990.57 73.7508 Q1986.28 73.7508 1981.42 72.7785 Q1976.6 71.8063 1971.41 69.9024 L1971.41 61.4765 Q1976.39 64.2716 1981.17 65.6895 Q1985.95 67.1073 1990.57 67.1073 Q1997.58 67.1073 2001.39 64.3527 Q2005.2 61.598 2005.2 56.4939 Q2005.2 52.0379 2002.44 49.5264 Q1999.73 47.0148 1993.49 45.759 L1988.51 44.7868 Q1979.35 42.9639 1975.26 39.075 Q1971.17 35.1862 1971.17 28.2591 Q1971.17 20.2383 1976.8 15.6203 Q1982.47 11.0023 1992.4 11.0023 Q1996.65 11.0023 2001.06 11.7719 Q2005.48 12.5416 2010.1 14.0809 Z" fill="#000000" fill-rule="nonzero" fill-opacity="1" /><path clip-path="url(#clip680)" d="M2067.74 63.9476 L2067.74 47.7034 L2054.37 47.7034 L2054.37 40.9789 L2075.84 40.9789 L2075.84 66.9452 Q2071.1 70.3075 2065.39 72.0494 Q2059.68 73.7508 2053.2 73.7508 Q2039.02 73.7508 2031 65.4869 Q2023.02 57.1826 2023.02 42.3968 Q2023.02 27.5705 2031 19.3066 Q2039.02 11.0023 2053.2 11.0023 Q2059.11 11.0023 2064.42 12.4606 Q2069.77 13.9189 2074.26 16.7545 L2074.26 25.464 Q2069.73 21.6156 2064.62 19.6712 Q2059.52 17.7268 2053.89 17.7268 Q2042.79 17.7268 2037.2 23.9246 Q2031.65 30.1225 2031.65 42.3968 Q2031.65 54.6305 2037.2 60.8284 Q2042.79 67.0263 2053.89 67.0263 Q2058.22 67.0263 2061.63 66.2971 Q2065.03 65.5274 2067.74 63.9476 Z" fill="#000000" fill-rule="nonzero" fill-opacity="1" /><path clip-path="url(#clip680)" d="M2090.79 12.096 L2102.98 12.096 L2118.42 53.2532 L2133.93 12.096 L2146.13 12.096 L2146.13 72.576 L2138.15 72.576 L2138.15 19.4686 L2122.55 60.9499 L2114.33 60.9499 L2098.73 19.4686 L2098.73 72.576 L2090.79 72.576 L2090.79 12.096 Z" fill="#000000" fill-rule="nonzero" fill-opacity="1" /><path clip-path="url(#clip680)" d="M2179.63 32.4315 Q2173.63 32.4315 2170.15 37.1306 Q2166.67 41.7891 2166.67 49.9314 Q2166.67 58.0738 2170.11 62.7728 Q2173.59 67.4314 2179.63 67.4314 Q2185.58 67.4314 2189.07 62.7323 Q2192.55 58.0333 2192.55 49.9314 Q2192.55 41.8701 2189.07 37.1711 Q2185.58 32.4315 2179.63 32.4315 M2179.63 26.1121 Q2189.35 26.1121 2194.9 32.4315 Q2200.45 38.7509 2200.45 49.9314 Q2200.45 61.0714 2194.9 67.4314 Q2189.35 73.7508 2179.63 73.7508 Q2169.87 73.7508 2164.32 67.4314 Q2158.81 61.0714 2158.81 49.9314 Q2158.81 38.7509 2164.32 32.4315 Q2169.87 26.1121 2179.63 26.1121 Z" fill="#000000" fill-rule="nonzero" fill-opacity="1" /><path clip-path="url(#clip680)" d="M2242.66 34.0924 L2242.66 9.54393 L2250.11 9.54393 L2250.11 72.576 L2242.66 72.576 L2242.66 65.7705 Q2240.31 69.8214 2236.71 71.8063 Q2233.14 73.7508 2228.12 73.7508 Q2219.89 73.7508 2214.71 67.1883 Q2209.56 60.6258 2209.56 49.9314 Q2209.56 39.2371 2214.71 32.6746 Q2219.89 26.1121 2228.12 26.1121 Q2233.14 26.1121 2236.71 28.0971 Q2240.31 30.0415 2242.66 34.0924 M2217.26 49.9314 Q2217.26 58.1548 2220.62 62.8538 Q2224.03 67.5124 2229.94 67.5124 Q2235.85 67.5124 2239.26 62.8538 Q2242.66 58.1548 2242.66 49.9314 Q2242.66 41.7081 2239.26 37.0496 Q2235.85 32.3505 2229.94 32.3505 Q2224.03 32.3505 2220.62 37.0496 Q2217.26 41.7081 2217.26 49.9314 Z" fill="#000000" fill-rule="nonzero" fill-opacity="1" /><path clip-path="url(#clip680)" d="M2304.27 48.0275 L2304.27 51.6733 L2270 51.6733 Q2270.49 59.3701 2274.62 63.421 Q2278.79 67.4314 2286.21 67.4314 Q2290.5 67.4314 2294.51 66.3781 Q2298.56 65.3249 2302.53 63.2184 L2302.53 70.267 Q2298.52 71.9684 2294.31 72.8596 Q2290.1 73.7508 2285.76 73.7508 Q2274.91 73.7508 2268.55 67.4314 Q2262.23 61.1119 2262.23 50.3365 Q2262.23 39.1965 2268.22 32.6746 Q2274.26 26.1121 2284.47 26.1121 Q2293.62 26.1121 2298.93 32.0264 Q2304.27 37.9003 2304.27 48.0275 M2296.82 45.84 Q2296.74 39.7232 2293.38 36.0774 Q2290.06 32.4315 2284.55 32.4315 Q2278.31 32.4315 2274.54 35.9558 Q2270.81 39.4801 2270.25 45.8805 L2296.82 45.84 Z" fill="#000000" fill-rule="nonzero" fill-opacity="1" /><path clip-path="url(#clip680)" d="M2316.51 9.54393 L2323.96 9.54393 L2323.96 72.576 L2316.51 72.576 L2316.51 9.54393 Z" fill="#000000" fill-rule="nonzero" fill-opacity="1" /><polyline clip-path="url(#clip682)" style="stroke:#009af9; stroke-linecap:round; stroke-linejoin:round; stroke-width:4; stroke-opacity:1; fill:none" points="295.211,370.311 295.211,250.056 382.064,250.056 382.064,665.61 468.917,665.61 468.917,272.021 555.77,272.021 555.77,694.994 642.623,694.994 642.623,557.438 729.476,557.438 729.476,610.474 816.329,610.474 816.329,450.615 903.181,450.615 903.181,931.141 990.034,931.141 990.034,654.168 1076.89,654.168 1076.89,696.901 1163.74,696.901 1163.74,673.83 1250.59,673.83 1250.59,662.762 1337.45,662.762 1337.45,753.458 1424.3,753.458 1424.3,578.262 1511.15,578.262 1511.15,374.686 1598,374.686 1598,199.169 1684.86,199.169 1684.86,811.009 1771.71,811.009 1771.71,611.293 1858.56,611.293 1858.56,160.256 1945.42,160.256 1945.42,308.257 2032.27,308.257 2032.27,582.541 2119.12,582.541 2119.12,701.396 2205.97,701.396 2205.97,776.47 2292.83,776.47 "/>
<polyline clip-path="url(#clip682)" style="stroke:#e26f46; stroke-linecap:round; stroke-linejoin:round; stroke-width:4; stroke-opacity:1; fill:none" points="295.211,585.263 295.211,856.974 382.064,856.974 382.064,1282.5 468.917,1282.5 468.917,1128.55 555.77,1128.55 555.77,1293.99 642.623,1293.99 642.623,1240.18 729.476,1240.18 729.476,1260.93 816.329,1260.93 816.329,1198.4 903.181,1198.4 903.181,1386.4 990.034,1386.4 990.034,1278.02 1076.89,1278.02 1076.89,1294.74 1163.74,1294.74 1163.74,1285.71 1250.59,1285.71 1250.59,1281.38 1337.45,1281.38 1337.45,1316.87 1424.3,1316.87 1424.3,1248.33 1511.15,1248.33 1511.15,1168.7 1598,1168.7 1598,1100.06 1684.86,1100.06 1684.86,1339.39 1771.71,1339.39 1771.71,1261.25 1858.56,1261.25 1858.56,1084.85 1945.42,1084.85 1945.42,1142.72 2032.27,1142.72 2032.27,1250 2119.12,1250 2119.12,1296.5 2205.97,1296.5 2205.97,1325.87 2292.83,1325.87 "/>
<path clip-path="url(#clip680)" d="M1453.37 322.316 L2282.17 322.316 L2282.17 166.796 L1453.37 166.796  Z" fill="#ffffff" fill-rule="evenodd" fill-opacity="1"/>
<polyline clip-path="url(#clip680)" style="stroke:#000000; stroke-linecap:round; stroke-linejoin:round; stroke-width:4; stroke-opacity:1; fill:none" points="1453.37,322.316 2282.17,322.316 2282.17,166.796 1453.37,166.796 1453.37,322.316 "/>
<polyline clip-path="url(#clip680)" style="stroke:#009af9; stroke-linecap:round; stroke-linejoin:round; stroke-width:4; stroke-opacity:1; fill:none" points="1476.9,218.636 1618.06,218.636 "/>
<path clip-path="url(#clip680)" d="M1641.59 201.356 L1646.27 201.356 L1646.27 235.916 L1641.59 235.916 L1641.59 201.356 Z" fill="#000000" fill-rule="nonzero" fill-opacity="1" /><path clip-path="url(#clip680)" d="M1676.94 220.268 L1676.94 235.916 L1672.68 235.916 L1672.68 220.407 Q1672.68 216.726 1671.24 214.897 Q1669.81 213.069 1666.94 213.069 Q1663.49 213.069 1661.5 215.268 Q1659.51 217.467 1659.51 221.263 L1659.51 235.916 L1655.22 235.916 L1655.22 209.99 L1659.51 209.99 L1659.51 214.018 Q1661.03 211.68 1663.09 210.522 Q1665.18 209.365 1667.89 209.365 Q1672.35 209.365 1674.64 212.143 Q1676.94 214.897 1676.94 220.268 Z" fill="#000000" fill-rule="nonzero" fill-opacity="1" /><path clip-path="url(#clip680)" d="M1685.43 209.99 L1689.69 209.99 L1689.69 235.916 L1685.43 235.916 L1685.43 209.99 M1685.43 199.897 L1689.69 199.897 L1689.69 205.291 L1685.43 205.291 L1685.43 199.897 Z" fill="#000000" fill-rule="nonzero" fill-opacity="1" /><path clip-path="url(#clip680)" d="M1702.82 202.629 L1702.82 209.99 L1711.59 209.99 L1711.59 213.3 L1702.82 213.3 L1702.82 227.374 Q1702.82 230.545 1703.67 231.448 Q1704.55 232.351 1707.21 232.351 L1711.59 232.351 L1711.59 235.916 L1707.21 235.916 Q1702.28 235.916 1700.41 234.087 Q1698.53 232.235 1698.53 227.374 L1698.53 213.3 L1695.41 213.3 L1695.41 209.99 L1698.53 209.99 L1698.53 202.629 L1702.82 202.629 Z" fill="#000000" fill-rule="nonzero" fill-opacity="1" /><path clip-path="url(#clip680)" d="M1717.19 209.99 L1721.45 209.99 L1721.45 235.916 L1717.19 235.916 L1717.19 209.99 M1717.19 199.897 L1721.45 199.897 L1721.45 205.291 L1717.19 205.291 L1717.19 199.897 Z" fill="#000000" fill-rule="nonzero" fill-opacity="1" /><path clip-path="url(#clip680)" d="M1742.14 222.883 Q1736.98 222.883 1734.99 224.064 Q1733 225.244 1733 228.092 Q1733 230.36 1734.48 231.703 Q1735.99 233.022 1738.56 233.022 Q1742.1 233.022 1744.23 230.522 Q1746.38 227.999 1746.38 223.832 L1746.38 222.883 L1742.14 222.883 M1750.64 221.124 L1750.64 235.916 L1746.38 235.916 L1746.38 231.981 Q1744.92 234.342 1742.75 235.476 Q1740.57 236.587 1737.42 236.587 Q1733.44 236.587 1731.08 234.365 Q1728.74 232.119 1728.74 228.369 Q1728.74 223.994 1731.66 221.772 Q1734.6 219.55 1740.41 219.55 L1746.38 219.55 L1746.38 219.133 Q1746.38 216.194 1744.44 214.596 Q1742.51 212.976 1739.02 212.976 Q1736.8 212.976 1734.69 213.508 Q1732.58 214.041 1730.64 215.106 L1730.64 211.17 Q1732.98 210.268 1735.18 209.828 Q1737.38 209.365 1739.46 209.365 Q1745.08 209.365 1747.86 212.282 Q1750.64 215.198 1750.64 221.124 Z" fill="#000000" fill-rule="nonzero" fill-opacity="1" /><path clip-path="url(#clip680)" d="M1759.41 199.897 L1763.67 199.897 L1763.67 235.916 L1759.41 235.916 L1759.41 199.897 Z" fill="#000000" fill-rule="nonzero" fill-opacity="1" /><path clip-path="url(#clip680)" d="M1787.84 201.356 L1792.51 201.356 L1792.51 231.981 L1809.34 231.981 L1809.34 235.916 L1787.84 235.916 L1787.84 201.356 Z" fill="#000000" fill-rule="nonzero" fill-opacity="1" /><path clip-path="url(#clip680)" d="M1823.28 212.976 Q1819.85 212.976 1817.86 215.661 Q1815.87 218.323 1815.87 222.976 Q1815.87 227.629 1817.84 230.314 Q1819.83 232.976 1823.28 232.976 Q1826.68 232.976 1828.67 230.291 Q1830.66 227.606 1830.66 222.976 Q1830.66 218.37 1828.67 215.684 Q1826.68 212.976 1823.28 212.976 M1823.28 209.365 Q1828.83 209.365 1832 212.976 Q1835.18 216.587 1835.18 222.976 Q1835.18 229.342 1832 232.976 Q1828.83 236.587 1823.28 236.587 Q1817.7 236.587 1814.53 232.976 Q1811.38 229.342 1811.38 222.976 Q1811.38 216.587 1814.53 212.976 Q1817.7 209.365 1823.28 209.365 Z" fill="#000000" fill-rule="nonzero" fill-opacity="1" /><path clip-path="url(#clip680)" d="M1854.02 222.883 Q1848.86 222.883 1846.87 224.064 Q1844.88 225.244 1844.88 228.092 Q1844.88 230.36 1846.36 231.703 Q1847.86 233.022 1850.43 233.022 Q1853.97 233.022 1856.1 230.522 Q1858.25 227.999 1858.25 223.832 L1858.25 222.883 L1854.02 222.883 M1862.51 221.124 L1862.51 235.916 L1858.25 235.916 L1858.25 231.981 Q1856.8 234.342 1854.62 235.476 Q1852.44 236.587 1849.3 236.587 Q1845.31 236.587 1842.95 234.365 Q1840.62 232.119 1840.62 228.369 Q1840.62 223.994 1843.53 221.772 Q1846.47 219.55 1852.28 219.55 L1858.25 219.55 L1858.25 219.133 Q1858.25 216.194 1856.31 214.596 Q1854.39 212.976 1850.89 212.976 Q1848.67 212.976 1846.56 213.508 Q1844.46 214.041 1842.51 215.106 L1842.51 211.17 Q1844.85 210.268 1847.05 209.828 Q1849.25 209.365 1851.33 209.365 Q1856.96 209.365 1859.74 212.282 Q1862.51 215.198 1862.51 221.124 Z" fill="#000000" fill-rule="nonzero" fill-opacity="1" /><path clip-path="url(#clip680)" d="M1888.35 213.925 L1888.35 199.897 L1892.61 199.897 L1892.61 235.916 L1888.35 235.916 L1888.35 232.027 Q1887 234.342 1884.94 235.476 Q1882.91 236.587 1880.04 236.587 Q1875.34 236.587 1872.37 232.837 Q1869.44 229.087 1869.44 222.976 Q1869.44 216.865 1872.37 213.115 Q1875.34 209.365 1880.04 209.365 Q1882.91 209.365 1884.94 210.499 Q1887 211.61 1888.35 213.925 M1873.83 222.976 Q1873.83 227.675 1875.75 230.36 Q1877.7 233.022 1881.08 233.022 Q1884.46 233.022 1886.4 230.36 Q1888.35 227.675 1888.35 222.976 Q1888.35 218.277 1886.4 215.615 Q1884.46 212.93 1881.08 212.93 Q1877.7 212.93 1875.75 215.615 Q1873.83 218.277 1873.83 222.976 Z" fill="#000000" fill-rule="nonzero" fill-opacity="1" /><path clip-path="url(#clip680)" d="M1921.31 219.411 L1921.31 232.073 L1928.81 232.073 Q1932.58 232.073 1934.39 230.522 Q1936.22 228.948 1936.22 225.731 Q1936.22 222.49 1934.39 220.962 Q1932.58 219.411 1928.81 219.411 L1921.31 219.411 M1921.31 205.198 L1921.31 215.615 L1928.23 215.615 Q1931.66 215.615 1933.32 214.342 Q1935.01 213.045 1935.01 210.407 Q1935.01 207.791 1933.32 206.495 Q1931.66 205.198 1928.23 205.198 L1921.31 205.198 M1916.63 201.356 L1928.58 201.356 Q1933.93 201.356 1936.82 203.578 Q1939.71 205.8 1939.71 209.897 Q1939.71 213.069 1938.23 214.944 Q1936.75 216.819 1933.88 217.282 Q1937.33 218.022 1939.23 220.383 Q1941.15 222.721 1941.15 226.24 Q1941.15 230.869 1938 233.393 Q1934.85 235.916 1929.04 235.916 L1916.63 235.916 L1916.63 201.356 Z" fill="#000000" fill-rule="nonzero" fill-opacity="1" /><path clip-path="url(#clip680)" d="M1971.15 221.888 L1971.15 223.971 L1951.56 223.971 Q1951.84 228.369 1954.2 230.684 Q1956.59 232.976 1960.82 232.976 Q1963.28 232.976 1965.57 232.374 Q1967.88 231.772 1970.15 230.569 L1970.15 234.596 Q1967.86 235.568 1965.45 236.078 Q1963.05 236.587 1960.57 236.587 Q1954.37 236.587 1950.73 232.976 Q1947.12 229.365 1947.12 223.207 Q1947.12 216.842 1950.55 213.115 Q1953.99 209.365 1959.83 209.365 Q1965.06 209.365 1968.09 212.745 Q1971.15 216.101 1971.15 221.888 M1966.89 220.638 Q1966.84 217.143 1964.92 215.059 Q1963.02 212.976 1959.87 212.976 Q1956.31 212.976 1954.16 214.99 Q1952.03 217.004 1951.7 220.661 L1966.89 220.638 Z" fill="#000000" fill-rule="nonzero" fill-opacity="1" /><path clip-path="url(#clip680)" d="M1991.26 199.897 L1991.26 203.439 L1987.19 203.439 Q1984.9 203.439 1983.99 204.365 Q1983.12 205.291 1983.12 207.698 L1983.12 209.99 L1990.13 209.99 L1990.13 213.3 L1983.12 213.3 L1983.12 235.916 L1978.83 235.916 L1978.83 213.3 L1974.76 213.3 L1974.76 209.99 L1978.83 209.99 L1978.83 208.184 Q1978.83 203.856 1980.85 201.888 Q1982.86 199.897 1987.24 199.897 L1991.26 199.897 Z" fill="#000000" fill-rule="nonzero" fill-opacity="1" /><path clip-path="url(#clip680)" d="M2004.87 212.976 Q2001.45 212.976 1999.46 215.661 Q1997.47 218.323 1997.47 222.976 Q1997.47 227.629 1999.43 230.314 Q2001.43 232.976 2004.87 232.976 Q2008.28 232.976 2010.27 230.291 Q2012.26 227.606 2012.26 222.976 Q2012.26 218.37 2010.27 215.684 Q2008.28 212.976 2004.87 212.976 M2004.87 209.365 Q2010.43 209.365 2013.6 212.976 Q2016.77 216.587 2016.77 222.976 Q2016.77 229.342 2013.6 232.976 Q2010.43 236.587 2004.87 236.587 Q1999.3 236.587 1996.12 232.976 Q1992.98 229.342 1992.98 222.976 Q1992.98 216.587 1996.12 212.976 Q1999.3 209.365 2004.87 209.365 Z" fill="#000000" fill-rule="nonzero" fill-opacity="1" /><path clip-path="url(#clip680)" d="M2038.86 213.971 Q2038.14 213.555 2037.28 213.37 Q2036.45 213.161 2035.43 213.161 Q2031.82 213.161 2029.87 215.522 Q2027.95 217.86 2027.95 222.258 L2027.95 235.916 L2023.67 235.916 L2023.67 209.99 L2027.95 209.99 L2027.95 214.018 Q2029.3 211.657 2031.45 210.522 Q2033.6 209.365 2036.68 209.365 Q2037.12 209.365 2037.65 209.434 Q2038.18 209.481 2038.83 209.596 L2038.86 213.971 Z" fill="#000000" fill-rule="nonzero" fill-opacity="1" /><path clip-path="url(#clip680)" d="M2079.3 202.49 L2079.3 207.05 Q2076.63 205.777 2074.27 205.152 Q2071.91 204.527 2069.71 204.527 Q2065.89 204.527 2063.81 206.008 Q2061.75 207.49 2061.75 210.221 Q2061.75 212.513 2063.11 213.694 Q2064.5 214.851 2068.35 215.569 L2071.17 216.147 Q2076.4 217.143 2078.88 219.666 Q2081.38 222.166 2081.38 226.379 Q2081.38 231.402 2078 233.994 Q2074.64 236.587 2068.14 236.587 Q2065.68 236.587 2062.91 236.031 Q2060.15 235.476 2057.19 234.388 L2057.19 229.573 Q2060.04 231.17 2062.77 231.981 Q2065.5 232.791 2068.14 232.791 Q2072.14 232.791 2074.32 231.217 Q2076.49 229.643 2076.49 226.726 Q2076.49 224.18 2074.92 222.744 Q2073.37 221.309 2069.8 220.592 L2066.96 220.036 Q2061.73 218.995 2059.39 216.772 Q2057.05 214.55 2057.05 210.592 Q2057.05 206.008 2060.27 203.37 Q2063.51 200.731 2069.18 200.731 Q2071.61 200.731 2074.13 201.171 Q2076.66 201.61 2079.3 202.49 Z" fill="#000000" fill-rule="nonzero" fill-opacity="1" /><path clip-path="url(#clip680)" d="M2112.23 230.985 L2112.23 221.703 L2104.6 221.703 L2104.6 217.86 L2116.86 217.86 L2116.86 232.698 Q2114.16 234.619 2110.89 235.615 Q2107.63 236.587 2103.92 236.587 Q2095.82 236.587 2091.24 231.865 Q2086.68 227.119 2086.68 218.67 Q2086.68 210.198 2091.24 205.476 Q2095.82 200.731 2103.92 200.731 Q2107.3 200.731 2110.34 201.564 Q2113.39 202.397 2115.96 204.018 L2115.96 208.995 Q2113.37 206.796 2110.45 205.684 Q2107.54 204.573 2104.32 204.573 Q2097.98 204.573 2094.78 208.115 Q2091.61 211.657 2091.61 218.67 Q2091.61 225.661 2094.78 229.203 Q2097.98 232.744 2104.32 232.744 Q2106.79 232.744 2108.74 232.328 Q2110.68 231.888 2112.23 230.985 Z" fill="#000000" fill-rule="nonzero" fill-opacity="1" /><path clip-path="url(#clip680)" d="M2125.41 201.356 L2132.37 201.356 L2141.19 224.874 L2150.06 201.356 L2157.03 201.356 L2157.03 235.916 L2152.47 235.916 L2152.47 205.569 L2143.55 229.272 L2138.85 229.272 L2129.94 205.569 L2129.94 235.916 L2125.41 235.916 L2125.41 201.356 Z" fill="#000000" fill-rule="nonzero" fill-opacity="1" /><path clip-path="url(#clip680)" d="M2176.17 212.976 Q2172.74 212.976 2170.75 215.661 Q2168.76 218.323 2168.76 222.976 Q2168.76 227.629 2170.73 230.314 Q2172.72 232.976 2176.17 232.976 Q2179.57 232.976 2181.56 230.291 Q2183.55 227.606 2183.55 222.976 Q2183.55 218.37 2181.56 215.684 Q2179.57 212.976 2176.17 212.976 M2176.17 209.365 Q2181.73 209.365 2184.9 212.976 Q2188.07 216.587 2188.07 222.976 Q2188.07 229.342 2184.9 232.976 Q2181.73 236.587 2176.17 236.587 Q2170.59 236.587 2167.42 232.976 Q2164.27 229.342 2164.27 222.976 Q2164.27 216.587 2167.42 212.976 Q2170.59 209.365 2176.17 209.365 Z" fill="#000000" fill-rule="nonzero" fill-opacity="1" /><path clip-path="url(#clip680)" d="M2212.19 213.925 L2212.19 199.897 L2216.45 199.897 L2216.45 235.916 L2212.19 235.916 L2212.19 232.027 Q2210.85 234.342 2208.79 235.476 Q2206.75 236.587 2203.88 236.587 Q2199.18 236.587 2196.22 232.837 Q2193.28 229.087 2193.28 222.976 Q2193.28 216.865 2196.22 213.115 Q2199.18 209.365 2203.88 209.365 Q2206.75 209.365 2208.79 210.499 Q2210.85 211.61 2212.19 213.925 M2197.67 222.976 Q2197.67 227.675 2199.6 230.36 Q2201.54 233.022 2204.92 233.022 Q2208.3 233.022 2210.24 230.36 Q2212.19 227.675 2212.19 222.976 Q2212.19 218.277 2210.24 215.615 Q2208.3 212.93 2204.92 212.93 Q2201.54 212.93 2199.6 215.615 Q2197.67 218.277 2197.67 222.976 Z" fill="#000000" fill-rule="nonzero" fill-opacity="1" /><path clip-path="url(#clip680)" d="M2247.4 221.888 L2247.4 223.971 L2227.81 223.971 Q2228.09 228.369 2230.45 230.684 Q2232.84 232.976 2237.07 232.976 Q2239.53 232.976 2241.82 232.374 Q2244.13 231.772 2246.4 230.569 L2246.4 234.596 Q2244.11 235.568 2241.7 236.078 Q2239.29 236.587 2236.82 236.587 Q2230.61 236.587 2226.98 232.976 Q2223.37 229.365 2223.37 223.207 Q2223.37 216.842 2226.79 213.115 Q2230.24 209.365 2236.08 209.365 Q2241.31 209.365 2244.34 212.745 Q2247.4 216.101 2247.4 221.888 M2243.14 220.638 Q2243.09 217.143 2241.17 215.059 Q2239.27 212.976 2236.12 212.976 Q2232.56 212.976 2230.41 214.99 Q2228.28 217.004 2227.95 220.661 L2243.14 220.638 Z" fill="#000000" fill-rule="nonzero" fill-opacity="1" /><path clip-path="url(#clip680)" d="M2254.39 199.897 L2258.65 199.897 L2258.65 235.916 L2254.39 235.916 L2254.39 199.897 Z" fill="#000000" fill-rule="nonzero" fill-opacity="1" /><polyline clip-path="url(#clip680)" style="stroke:#e26f46; stroke-linecap:round; stroke-linejoin:round; stroke-width:4; stroke-opacity:1; fill:none" points="1476.9,270.476 1618.06,270.476 "/>
<path clip-path="url(#clip680)" d="M1641.59 253.196 L1661.45 253.196 L1661.45 257.131 L1646.27 257.131 L1646.27 267.316 L1659.97 267.316 L1659.97 271.251 L1646.27 271.251 L1646.27 287.756 L1641.59 287.756 L1641.59 253.196 Z" fill="#000000" fill-rule="nonzero" fill-opacity="1" /><path clip-path="url(#clip680)" d="M1665.22 261.83 L1669.48 261.83 L1669.48 287.756 L1665.22 287.756 L1665.22 261.83 M1665.22 251.737 L1669.48 251.737 L1669.48 257.131 L1665.22 257.131 L1665.22 251.737 Z" fill="#000000" fill-rule="nonzero" fill-opacity="1" /><path clip-path="url(#clip680)" d="M1699.95 272.108 L1699.95 287.756 L1695.69 287.756 L1695.69 272.247 Q1695.69 268.566 1694.25 266.737 Q1692.82 264.909 1689.95 264.909 Q1686.5 264.909 1684.51 267.108 Q1682.51 269.307 1682.51 273.103 L1682.51 287.756 L1678.23 287.756 L1678.23 261.83 L1682.51 261.83 L1682.51 265.858 Q1684.04 263.52 1686.1 262.362 Q1688.19 261.205 1690.89 261.205 Q1695.36 261.205 1697.65 263.983 Q1699.95 266.737 1699.95 272.108 Z" fill="#000000" fill-rule="nonzero" fill-opacity="1" /><path clip-path="url(#clip680)" d="M1720.22 274.723 Q1715.06 274.723 1713.07 275.904 Q1711.08 277.084 1711.08 279.932 Q1711.08 282.2 1712.56 283.543 Q1714.07 284.862 1716.64 284.862 Q1720.18 284.862 1722.31 282.362 Q1724.46 279.839 1724.46 275.672 L1724.46 274.723 L1720.22 274.723 M1728.72 272.964 L1728.72 287.756 L1724.46 287.756 L1724.46 283.821 Q1723 286.182 1720.82 287.316 Q1718.65 288.427 1715.5 288.427 Q1711.52 288.427 1709.16 286.205 Q1706.82 283.959 1706.82 280.209 Q1706.82 275.834 1709.74 273.612 Q1712.68 271.39 1718.49 271.39 L1724.46 271.39 L1724.46 270.973 Q1724.46 268.034 1722.51 266.436 Q1720.59 264.816 1717.1 264.816 Q1714.88 264.816 1712.77 265.348 Q1710.66 265.881 1708.72 266.946 L1708.72 263.01 Q1711.06 262.108 1713.26 261.668 Q1715.45 261.205 1717.54 261.205 Q1723.16 261.205 1725.94 264.122 Q1728.72 267.038 1728.72 272.964 Z" fill="#000000" fill-rule="nonzero" fill-opacity="1" /><path clip-path="url(#clip680)" d="M1737.49 251.737 L1741.75 251.737 L1741.75 287.756 L1737.49 287.756 L1737.49 251.737 Z" fill="#000000" fill-rule="nonzero" fill-opacity="1" /><path clip-path="url(#clip680)" d="M1765.92 253.196 L1770.59 253.196 L1770.59 283.821 L1787.42 283.821 L1787.42 287.756 L1765.92 287.756 L1765.92 253.196 Z" fill="#000000" fill-rule="nonzero" fill-opacity="1" /><path clip-path="url(#clip680)" d="M1801.36 264.816 Q1797.93 264.816 1795.94 267.501 Q1793.95 270.163 1793.95 274.816 Q1793.95 279.469 1795.92 282.154 Q1797.91 284.816 1801.36 284.816 Q1804.76 284.816 1806.75 282.131 Q1808.74 279.446 1808.74 274.816 Q1808.74 270.21 1806.75 267.524 Q1804.76 264.816 1801.36 264.816 M1801.36 261.205 Q1806.91 261.205 1810.08 264.816 Q1813.25 268.427 1813.25 274.816 Q1813.25 281.182 1810.08 284.816 Q1806.91 288.427 1801.36 288.427 Q1795.78 288.427 1792.61 284.816 Q1789.46 281.182 1789.46 274.816 Q1789.46 268.427 1792.61 264.816 Q1795.78 261.205 1801.36 261.205 Z" fill="#000000" fill-rule="nonzero" fill-opacity="1" /><path clip-path="url(#clip680)" d="M1832.1 274.723 Q1826.94 274.723 1824.94 275.904 Q1822.95 277.084 1822.95 279.932 Q1822.95 282.2 1824.44 283.543 Q1825.94 284.862 1828.51 284.862 Q1832.05 284.862 1834.18 282.362 Q1836.33 279.839 1836.33 275.672 L1836.33 274.723 L1832.1 274.723 M1840.59 272.964 L1840.59 287.756 L1836.33 287.756 L1836.33 283.821 Q1834.88 286.182 1832.7 287.316 Q1830.52 288.427 1827.38 288.427 Q1823.39 288.427 1821.03 286.205 Q1818.69 283.959 1818.69 280.209 Q1818.69 275.834 1821.61 273.612 Q1824.55 271.39 1830.36 271.39 L1836.33 271.39 L1836.33 270.973 Q1836.33 268.034 1834.39 266.436 Q1832.47 264.816 1828.97 264.816 Q1826.75 264.816 1824.64 265.348 Q1822.54 265.881 1820.59 266.946 L1820.59 263.01 Q1822.93 262.108 1825.13 261.668 Q1827.33 261.205 1829.41 261.205 Q1835.04 261.205 1837.81 264.122 Q1840.59 267.038 1840.59 272.964 Z" fill="#000000" fill-rule="nonzero" fill-opacity="1" /><path clip-path="url(#clip680)" d="M1866.43 265.765 L1866.43 251.737 L1870.69 251.737 L1870.69 287.756 L1866.43 287.756 L1866.43 283.867 Q1865.08 286.182 1863.02 287.316 Q1860.99 288.427 1858.12 288.427 Q1853.42 288.427 1850.45 284.677 Q1847.51 280.927 1847.51 274.816 Q1847.51 268.705 1850.45 264.955 Q1853.42 261.205 1858.12 261.205 Q1860.99 261.205 1863.02 262.339 Q1865.08 263.45 1866.43 265.765 M1851.91 274.816 Q1851.91 279.515 1853.83 282.2 Q1855.78 284.862 1859.16 284.862 Q1862.54 284.862 1864.48 282.2 Q1866.43 279.515 1866.43 274.816 Q1866.43 270.117 1864.48 267.455 Q1862.54 264.77 1859.16 264.77 Q1855.78 264.77 1853.83 267.455 Q1851.91 270.117 1851.91 274.816 Z" fill="#000000" fill-rule="nonzero" fill-opacity="1" /><path clip-path="url(#clip680)" d="M1906.26 257.802 L1899.92 275.001 L1912.63 275.001 L1906.26 257.802 M1903.62 253.196 L1908.93 253.196 L1922.1 287.756 L1917.24 287.756 L1914.09 278.89 L1898.51 278.89 L1895.36 287.756 L1890.43 287.756 L1903.62 253.196 Z" fill="#000000" fill-rule="nonzero" fill-opacity="1" /><path clip-path="url(#clip680)" d="M1938.39 251.737 L1938.39 255.279 L1934.32 255.279 Q1932.03 255.279 1931.12 256.205 Q1930.24 257.131 1930.24 259.538 L1930.24 261.83 L1937.26 261.83 L1937.26 265.14 L1930.24 265.14 L1930.24 287.756 L1925.96 287.756 L1925.96 265.14 L1921.89 265.14 L1921.89 261.83 L1925.96 261.83 L1925.96 260.024 Q1925.96 255.696 1927.98 253.728 Q1929.99 251.737 1934.37 251.737 L1938.39 251.737 Z" fill="#000000" fill-rule="nonzero" fill-opacity="1" /><path clip-path="url(#clip680)" d="M1945.34 254.469 L1945.34 261.83 L1954.11 261.83 L1954.11 265.14 L1945.34 265.14 L1945.34 279.214 Q1945.34 282.385 1946.19 283.288 Q1947.07 284.191 1949.74 284.191 L1954.11 284.191 L1954.11 287.756 L1949.74 287.756 Q1944.81 287.756 1942.93 285.927 Q1941.06 284.075 1941.06 279.214 L1941.06 265.14 L1937.93 265.14 L1937.93 261.83 L1941.06 261.83 L1941.06 254.469 L1945.34 254.469 Z" fill="#000000" fill-rule="nonzero" fill-opacity="1" /><path clip-path="url(#clip680)" d="M1981.89 273.728 L1981.89 275.811 L1962.3 275.811 Q1962.58 280.209 1964.94 282.524 Q1967.33 284.816 1971.56 284.816 Q1974.02 284.816 1976.31 284.214 Q1978.62 283.612 1980.89 282.409 L1980.89 286.436 Q1978.6 287.408 1976.19 287.918 Q1973.79 288.427 1971.31 288.427 Q1965.11 288.427 1961.47 284.816 Q1957.86 281.205 1957.86 275.047 Q1957.86 268.682 1961.29 264.955 Q1964.74 261.205 1970.57 261.205 Q1975.8 261.205 1978.83 264.585 Q1981.89 267.941 1981.89 273.728 M1977.63 272.478 Q1977.58 268.983 1975.66 266.899 Q1973.76 264.816 1970.62 264.816 Q1967.05 264.816 1964.9 266.83 Q1962.77 268.844 1962.44 272.501 L1977.63 272.478 Z" fill="#000000" fill-rule="nonzero" fill-opacity="1" /><path clip-path="url(#clip680)" d="M2003.9 265.811 Q2003.18 265.395 2002.33 265.21 Q2001.49 265.001 2000.48 265.001 Q1996.86 265.001 1994.92 267.362 Q1993 269.7 1993 274.098 L1993 287.756 L1988.72 287.756 L1988.72 261.83 L1993 261.83 L1993 265.858 Q1994.34 263.497 1996.49 262.362 Q1998.65 261.205 2001.73 261.205 Q2002.17 261.205 2002.7 261.274 Q2003.23 261.321 2003.88 261.436 L2003.9 265.811 Z" fill="#000000" fill-rule="nonzero" fill-opacity="1" /><path clip-path="url(#clip680)" d="M2044.34 254.33 L2044.34 258.89 Q2041.68 257.617 2039.32 256.992 Q2036.96 256.367 2034.76 256.367 Q2030.94 256.367 2028.86 257.848 Q2026.8 259.33 2026.8 262.061 Q2026.8 264.353 2028.16 265.534 Q2029.55 266.691 2033.39 267.409 L2036.22 267.987 Q2041.45 268.983 2043.92 271.506 Q2046.42 274.006 2046.42 278.219 Q2046.42 283.242 2043.05 285.834 Q2039.69 288.427 2033.18 288.427 Q2030.73 288.427 2027.95 287.871 Q2025.2 287.316 2022.24 286.228 L2022.24 281.413 Q2025.08 283.01 2027.81 283.821 Q2030.55 284.631 2033.18 284.631 Q2037.19 284.631 2039.36 283.057 Q2041.54 281.483 2041.54 278.566 Q2041.54 276.02 2039.97 274.584 Q2038.42 273.149 2034.85 272.432 L2032 271.876 Q2026.77 270.835 2024.43 268.612 Q2022.1 266.39 2022.1 262.432 Q2022.1 257.848 2025.31 255.21 Q2028.55 252.571 2034.23 252.571 Q2036.66 252.571 2039.18 253.011 Q2041.7 253.45 2044.34 254.33 Z" fill="#000000" fill-rule="nonzero" fill-opacity="1" /><path clip-path="url(#clip680)" d="M2077.28 282.825 L2077.28 273.543 L2069.64 273.543 L2069.64 269.7 L2081.91 269.7 L2081.91 284.538 Q2079.2 286.459 2075.94 287.455 Q2072.67 288.427 2068.97 288.427 Q2060.87 288.427 2056.29 283.705 Q2051.73 278.959 2051.73 270.51 Q2051.73 262.038 2056.29 257.316 Q2060.87 252.571 2068.97 252.571 Q2072.35 252.571 2075.38 253.404 Q2078.44 254.237 2081.01 255.858 L2081.01 260.835 Q2078.42 258.636 2075.5 257.524 Q2072.58 256.413 2069.36 256.413 Q2063.02 256.413 2059.83 259.955 Q2056.66 263.497 2056.66 270.51 Q2056.66 277.501 2059.83 281.043 Q2063.02 284.584 2069.36 284.584 Q2071.84 284.584 2073.79 284.168 Q2075.73 283.728 2077.28 282.825 Z" fill="#000000" fill-rule="nonzero" fill-opacity="1" /><path clip-path="url(#clip680)" d="M2090.45 253.196 L2097.42 253.196 L2106.24 276.714 L2115.11 253.196 L2122.07 253.196 L2122.07 287.756 L2117.51 287.756 L2117.51 257.409 L2108.6 281.112 L2103.9 281.112 L2094.99 257.409 L2094.99 287.756 L2090.45 287.756 L2090.45 253.196 Z" fill="#000000" fill-rule="nonzero" fill-opacity="1" /><path clip-path="url(#clip680)" d="M2141.22 264.816 Q2137.79 264.816 2135.8 267.501 Q2133.81 270.163 2133.81 274.816 Q2133.81 279.469 2135.78 282.154 Q2137.77 284.816 2141.22 284.816 Q2144.62 284.816 2146.61 282.131 Q2148.6 279.446 2148.6 274.816 Q2148.6 270.21 2146.61 267.524 Q2144.62 264.816 2141.22 264.816 M2141.22 261.205 Q2146.77 261.205 2149.94 264.816 Q2153.11 268.427 2153.11 274.816 Q2153.11 281.182 2149.94 284.816 Q2146.77 288.427 2141.22 288.427 Q2135.64 288.427 2132.47 284.816 Q2129.32 281.182 2129.32 274.816 Q2129.32 268.427 2132.47 264.816 Q2135.64 261.205 2141.22 261.205 Z" fill="#000000" fill-rule="nonzero" fill-opacity="1" /><path clip-path="url(#clip680)" d="M2177.23 265.765 L2177.23 251.737 L2181.49 251.737 L2181.49 287.756 L2177.23 287.756 L2177.23 283.867 Q2175.89 286.182 2173.83 287.316 Q2171.79 288.427 2168.92 288.427 Q2164.23 288.427 2161.26 284.677 Q2158.32 280.927 2158.32 274.816 Q2158.32 268.705 2161.26 264.955 Q2164.23 261.205 2168.92 261.205 Q2171.79 261.205 2173.83 262.339 Q2175.89 263.45 2177.23 265.765 M2162.72 274.816 Q2162.72 279.515 2164.64 282.2 Q2166.59 284.862 2169.97 284.862 Q2173.35 284.862 2175.29 282.2 Q2177.23 279.515 2177.23 274.816 Q2177.23 270.117 2175.29 267.455 Q2173.35 264.77 2169.97 264.77 Q2166.59 264.77 2164.64 267.455 Q2162.72 270.117 2162.72 274.816 Z" fill="#000000" fill-rule="nonzero" fill-opacity="1" /><path clip-path="url(#clip680)" d="M2212.44 273.728 L2212.44 275.811 L2192.86 275.811 Q2193.14 280.209 2195.5 282.524 Q2197.88 284.816 2202.12 284.816 Q2204.57 284.816 2206.86 284.214 Q2209.18 283.612 2211.45 282.409 L2211.45 286.436 Q2209.16 287.408 2206.75 287.918 Q2204.34 288.427 2201.86 288.427 Q2195.66 288.427 2192.03 284.816 Q2188.41 281.205 2188.41 275.047 Q2188.41 268.682 2191.84 264.955 Q2195.29 261.205 2201.12 261.205 Q2206.35 261.205 2209.39 264.585 Q2212.44 267.941 2212.44 273.728 M2208.18 272.478 Q2208.14 268.983 2206.22 266.899 Q2204.32 264.816 2201.17 264.816 Q2197.6 264.816 2195.45 266.83 Q2193.32 268.844 2193 272.501 L2208.18 272.478 Z" fill="#000000" fill-rule="nonzero" fill-opacity="1" /><path clip-path="url(#clip680)" d="M2219.43 251.737 L2223.69 251.737 L2223.69 287.756 L2219.43 287.756 L2219.43 251.737 Z" fill="#000000" fill-rule="nonzero" fill-opacity="1" /></svg>
