<?xml version="1.0" encoding="utf-8"?>
<svg xmlns="http://www.w3.org/2000/svg" xmlns:xlink="http://www.w3.org/1999/xlink" width="600" height="400" viewBox="0 0 2400 1600">
<defs>
  <clipPath id="clip800">
    <rect x="0" y="0" width="2400" height="1600"/>
  </clipPath>
</defs>
<path clip-path="url(#clip800)" d="M0 1600 L2400 1600 L2400 0 L0 0  Z" fill="#ffffff" fill-rule="evenodd" fill-opacity="1"/>
<defs>
  <clipPath id="clip801">
    <rect x="480" y="0" width="1681" height="1600"/>
  </clipPath>
</defs>
<path clip-path="url(#clip800)" d="M235.283 1423.18 L2352.76 1423.18 L2352.76 123.472 L235.283 123.472  Z" fill="#ffffff" fill-rule="evenodd" fill-opacity="1"/>
<defs>
  <clipPath id="clip802">
    <rect x="235" y="123" width="2118" height="1301"/>
  </clipPath>
</defs>
<polyline clip-path="url(#clip802)" style="stroke:#000000; stroke-linecap:round; stroke-linejoin:round; stroke-width:2; stroke-opacity:0.1; fill:none" points="642.623,1423.18 642.623,123.472 "/>
<polyline clip-path="url(#clip802)" style="stroke:#000000; stroke-linecap:round; stroke-linejoin:round; stroke-width:2; stroke-opacity:0.1; fill:none" points="1076.89,1423.18 1076.89,123.472 "/>
<polyline clip-path="url(#clip802)" style="stroke:#000000; stroke-linecap:round; stroke-linejoin:round; stroke-width:2; stroke-opacity:0.1; fill:none" points="1511.15,1423.18 1511.15,123.472 "/>
<polyline clip-path="url(#clip802)" style="stroke:#000000; stroke-linecap:round; stroke-linejoin:round; stroke-width:2; stroke-opacity:0.1; fill:none" points="1945.42,1423.18 1945.42,123.472 "/>
<polyline clip-path="url(#clip800)" style="stroke:#000000; stroke-linecap:round; stroke-linejoin:round; stroke-width:4; stroke-opacity:1; fill:none" points="235.283,1423.18 2352.76,1423.18 "/>
<polyline clip-path="url(#clip800)" style="stroke:#000000; stroke-linecap:round; stroke-linejoin:round; stroke-width:4; stroke-opacity:1; fill:none" points="642.623,1423.18 642.623,1404.28 "/>
<polyline clip-path="url(#clip800)" style="stroke:#000000; stroke-linecap:round; stroke-linejoin:round; stroke-width:4; stroke-opacity:1; fill:none" points="1076.89,1423.18 1076.89,1404.28 "/>
<polyline clip-path="url(#clip800)" style="stroke:#000000; stroke-linecap:round; stroke-linejoin:round; stroke-width:4; stroke-opacity:1; fill:none" points="1511.15,1423.18 1511.15,1404.28 "/>
<polyline clip-path="url(#clip800)" style="stroke:#000000; stroke-linecap:round; stroke-linejoin:round; stroke-width:4; stroke-opacity:1; fill:none" points="1945.42,1423.18 1945.42,1404.28 "/>
<path clip-path="url(#clip800)" d="M632.901 1451.02 L651.257 1451.02 L651.257 1454.96 L637.183 1454.96 L637.183 1463.43 Q638.202 1463.08 639.22 1462.92 Q640.239 1462.73 641.257 1462.73 Q647.044 1462.73 650.424 1465.9 Q653.803 1469.08 653.803 1474.49 Q653.803 1480.07 650.331 1483.17 Q646.859 1486.25 640.54 1486.25 Q638.364 1486.25 636.095 1485.88 Q633.85 1485.51 631.442 1484.77 L631.442 1480.07 Q633.526 1481.2 635.748 1481.76 Q637.97 1482.32 640.447 1482.32 Q644.452 1482.32 646.789 1480.21 Q649.127 1478.1 649.127 1474.49 Q649.127 1470.88 646.789 1468.77 Q644.452 1466.67 640.447 1466.67 Q638.572 1466.67 636.697 1467.08 Q634.845 1467.5 632.901 1468.38 L632.901 1451.02 Z" fill="#000000" fill-rule="nonzero" fill-opacity="1" /><path clip-path="url(#clip800)" d="M1051.57 1481.64 L1059.21 1481.64 L1059.21 1455.28 L1050.9 1456.95 L1050.9 1452.69 L1059.17 1451.02 L1063.84 1451.02 L1063.84 1481.64 L1071.48 1481.64 L1071.48 1485.58 L1051.57 1485.58 L1051.57 1481.64 Z" fill="#000000" fill-rule="nonzero" fill-opacity="1" /><path clip-path="url(#clip800)" d="M1090.93 1454.1 Q1087.32 1454.1 1085.49 1457.66 Q1083.68 1461.2 1083.68 1468.33 Q1083.68 1475.44 1085.49 1479.01 Q1087.32 1482.55 1090.93 1482.55 Q1094.56 1482.55 1096.37 1479.01 Q1098.19 1475.44 1098.19 1468.33 Q1098.19 1461.2 1096.37 1457.66 Q1094.56 1454.1 1090.93 1454.1 M1090.93 1450.39 Q1096.74 1450.39 1099.79 1455 Q1102.87 1459.58 1102.87 1468.33 Q1102.87 1477.06 1099.79 1481.67 Q1096.74 1486.25 1090.93 1486.25 Q1085.12 1486.25 1082.04 1481.67 Q1078.98 1477.06 1078.98 1468.33 Q1078.98 1459.58 1082.04 1455 Q1085.12 1450.39 1090.93 1450.39 Z" fill="#000000" fill-rule="nonzero" fill-opacity="1" /><path clip-path="url(#clip800)" d="M1486.34 1481.64 L1493.98 1481.64 L1493.98 1455.28 L1485.67 1456.95 L1485.67 1452.69 L1493.93 1451.02 L1498.61 1451.02 L1498.61 1481.64 L1506.24 1481.64 L1506.24 1485.58 L1486.34 1485.58 L1486.34 1481.64 Z" fill="#000000" fill-rule="nonzero" fill-opacity="1" /><path clip-path="url(#clip800)" d="M1515.73 1451.02 L1534.09 1451.02 L1534.09 1454.96 L1520.02 1454.96 L1520.02 1463.43 Q1521.04 1463.08 1522.05 1462.92 Q1523.07 1462.73 1524.09 1462.73 Q1529.88 1462.73 1533.26 1465.9 Q1536.64 1469.08 1536.64 1474.49 Q1536.64 1480.07 1533.17 1483.17 Q1529.69 1486.25 1523.37 1486.25 Q1521.2 1486.25 1518.93 1485.88 Q1516.68 1485.51 1514.28 1484.77 L1514.28 1480.07 Q1516.36 1481.2 1518.58 1481.76 Q1520.8 1482.32 1523.28 1482.32 Q1527.29 1482.32 1529.62 1480.21 Q1531.96 1478.1 1531.96 1474.49 Q1531.96 1470.88 1529.62 1468.77 Q1527.29 1466.67 1523.28 1466.67 Q1521.41 1466.67 1519.53 1467.08 Q1517.68 1467.5 1515.73 1468.38 L1515.73 1451.02 Z" fill="#000000" fill-rule="nonzero" fill-opacity="1" /><path clip-path="url(#clip800)" d="M1924.19 1481.64 L1940.51 1481.64 L1940.51 1485.58 L1918.56 1485.58 L1918.56 1481.64 Q1921.23 1478.89 1925.81 1474.26 Q1930.42 1469.61 1931.6 1468.27 Q1933.84 1465.74 1934.72 1464.01 Q1935.62 1462.25 1935.62 1460.56 Q1935.62 1457.8 1933.68 1456.07 Q1931.76 1454.33 1928.66 1454.33 Q1926.46 1454.33 1924 1455.09 Q1921.57 1455.86 1918.8 1457.41 L1918.8 1452.69 Q1921.62 1451.55 1924.07 1450.97 Q1926.53 1450.39 1928.56 1450.39 Q1933.93 1450.39 1937.13 1453.08 Q1940.32 1455.77 1940.32 1460.26 Q1940.32 1462.39 1939.51 1464.31 Q1938.73 1466.2 1936.62 1468.8 Q1936.04 1469.47 1932.94 1472.69 Q1929.84 1475.88 1924.19 1481.64 Z" fill="#000000" fill-rule="nonzero" fill-opacity="1" /><path clip-path="url(#clip800)" d="M1960.32 1454.1 Q1956.71 1454.1 1954.88 1457.66 Q1953.08 1461.2 1953.08 1468.33 Q1953.08 1475.44 1954.88 1479.01 Q1956.71 1482.55 1960.32 1482.55 Q1963.96 1482.55 1965.76 1479.01 Q1967.59 1475.44 1967.59 1468.33 Q1967.59 1461.2 1965.76 1457.66 Q1963.96 1454.1 1960.32 1454.1 M1960.32 1450.39 Q1966.13 1450.39 1969.19 1455 Q1972.27 1459.58 1972.27 1468.33 Q1972.27 1477.06 1969.19 1481.67 Q1966.13 1486.25 1960.32 1486.25 Q1954.51 1486.25 1951.43 1481.67 Q1948.38 1477.06 1948.38 1468.33 Q1948.38 1459.58 1951.43 1455 Q1954.51 1450.39 1960.32 1450.39 Z" fill="#000000" fill-rule="nonzero" fill-opacity="1" /><path clip-path="url(#clip800)" d="M1106.52 1520.52 L1146.72 1520.52 L1146.72 1525.93 L1129.85 1525.93 L1129.85 1568.04 L1123.39 1568.04 L1123.39 1525.93 L1106.52 1525.93 L1106.52 1520.52 Z" fill="#000000" fill-rule="nonzero" fill-opacity="1" /><path clip-path="url(#clip800)" d="M1150.66 1532.4 L1156.52 1532.4 L1156.52 1568.04 L1150.66 1568.04 L1150.66 1532.4 M1150.66 1518.52 L1156.52 1518.52 L1156.52 1525.93 L1150.66 1525.93 L1150.66 1518.52 Z" fill="#000000" fill-rule="nonzero" fill-opacity="1" /><path clip-path="url(#clip800)" d="M1196.53 1539.24 Q1198.72 1535.29 1201.78 1533.41 Q1204.84 1531.54 1208.97 1531.54 Q1214.54 1531.54 1217.57 1535.45 Q1220.59 1539.33 1220.59 1546.53 L1220.59 1568.04 L1214.7 1568.04 L1214.7 1546.72 Q1214.7 1541.59 1212.89 1539.11 Q1211.07 1536.63 1207.35 1536.63 Q1202.8 1536.63 1200.16 1539.65 Q1197.52 1542.68 1197.52 1547.9 L1197.52 1568.04 L1191.63 1568.04 L1191.63 1546.72 Q1191.63 1541.56 1189.81 1539.11 Q1188 1536.63 1184.21 1536.63 Q1179.72 1536.63 1177.08 1539.68 Q1174.44 1542.71 1174.44 1547.9 L1174.44 1568.04 L1168.55 1568.04 L1168.55 1532.4 L1174.44 1532.4 L1174.44 1537.93 Q1176.44 1534.66 1179.25 1533.1 Q1182.05 1531.54 1185.9 1531.54 Q1189.78 1531.54 1192.49 1533.51 Q1195.22 1535.48 1196.53 1539.24 Z" fill="#000000" fill-rule="nonzero" fill-opacity="1" /><path clip-path="url(#clip800)" d="M1262.76 1548.76 L1262.76 1551.62 L1235.84 1551.62 Q1236.22 1557.67 1239.47 1560.85 Q1242.74 1564 1248.57 1564 Q1251.94 1564 1255.09 1563.17 Q1258.28 1562.35 1261.4 1560.69 L1261.4 1566.23 Q1258.24 1567.57 1254.93 1568.27 Q1251.62 1568.97 1248.22 1568.97 Q1239.69 1568.97 1234.69 1564 Q1229.73 1559.04 1229.73 1550.57 Q1229.73 1541.82 1234.44 1536.69 Q1239.18 1531.54 1247.2 1531.54 Q1254.39 1531.54 1258.56 1536.18 Q1262.76 1540.8 1262.76 1548.76 M1256.91 1547.04 Q1256.84 1542.23 1254.2 1539.37 Q1251.59 1536.5 1247.26 1536.5 Q1242.36 1536.5 1239.4 1539.27 Q1236.47 1542.04 1236.03 1547.07 L1256.91 1547.04 Z" fill="#000000" fill-rule="nonzero" fill-opacity="1" /><path clip-path="url(#clip800)" d="M1307.16 1518.58 Q1302.9 1525.9 1300.83 1533.06 Q1298.76 1540.23 1298.76 1547.58 Q1298.76 1554.93 1300.83 1562.16 Q1302.93 1569.35 1307.16 1576.64 L1302.07 1576.64 Q1297.3 1569.16 1294.91 1561.93 Q1292.56 1554.71 1292.56 1547.58 Q1292.56 1540.48 1294.91 1533.29 Q1297.27 1526.09 1302.07 1518.58 L1307.16 1518.58 Z" fill="#000000" fill-rule="nonzero" fill-opacity="1" /><path clip-path="url(#clip800)" d="M1348.16 1546.53 L1348.16 1568.04 L1342.3 1568.04 L1342.3 1546.72 Q1342.3 1541.66 1340.33 1539.14 Q1338.36 1536.63 1334.41 1536.63 Q1329.67 1536.63 1326.93 1539.65 Q1324.19 1542.68 1324.19 1547.9 L1324.19 1568.04 L1318.3 1568.04 L1318.3 1518.52 L1324.19 1518.52 L1324.19 1537.93 Q1326.29 1534.72 1329.13 1533.13 Q1331.99 1531.54 1335.71 1531.54 Q1341.86 1531.54 1345.01 1535.36 Q1348.16 1539.14 1348.16 1546.53 Z" fill="#000000" fill-rule="nonzero" fill-opacity="1" /><path clip-path="url(#clip800)" d="M1373.65 1536.5 Q1368.94 1536.5 1366.21 1540.19 Q1363.47 1543.85 1363.47 1550.25 Q1363.47 1556.65 1366.17 1560.34 Q1368.91 1564 1373.65 1564 Q1378.33 1564 1381.07 1560.31 Q1383.81 1556.62 1383.81 1550.25 Q1383.81 1543.92 1381.07 1540.23 Q1378.33 1536.5 1373.65 1536.5 M1373.65 1531.54 Q1381.29 1531.54 1385.65 1536.5 Q1390.01 1541.47 1390.01 1550.25 Q1390.01 1559 1385.65 1564 Q1381.29 1568.97 1373.65 1568.97 Q1365.98 1568.97 1361.62 1564 Q1357.29 1559 1357.29 1550.25 Q1357.29 1541.47 1361.62 1536.5 Q1365.98 1531.54 1373.65 1531.54 Z" fill="#000000" fill-rule="nonzero" fill-opacity="1" /><path clip-path="url(#clip800)" d="M1399.12 1553.98 L1399.12 1532.4 L1404.97 1532.4 L1404.97 1553.75 Q1404.97 1558.81 1406.95 1561.36 Q1408.92 1563.87 1412.87 1563.87 Q1417.61 1563.87 1420.35 1560.85 Q1423.12 1557.83 1423.12 1552.61 L1423.12 1532.4 L1428.97 1532.4 L1428.97 1568.04 L1423.12 1568.04 L1423.12 1562.57 Q1420.98 1565.82 1418.15 1567.41 Q1415.35 1568.97 1411.63 1568.97 Q1405.48 1568.97 1402.3 1565.15 Q1399.12 1561.33 1399.12 1553.98 M1413.85 1531.54 L1413.85 1531.54 Z" fill="#000000" fill-rule="nonzero" fill-opacity="1" /><path clip-path="url(#clip800)" d="M1461.69 1537.87 Q1460.71 1537.3 1459.53 1537.04 Q1458.38 1536.76 1456.98 1536.76 Q1452.02 1536.76 1449.34 1540 Q1446.7 1543.22 1446.7 1549.27 L1446.7 1568.04 L1440.81 1568.04 L1440.81 1532.4 L1446.7 1532.4 L1446.7 1537.93 Q1448.55 1534.69 1451.51 1533.13 Q1454.47 1531.54 1458.7 1531.54 Q1459.3 1531.54 1460.04 1531.63 Q1460.77 1531.7 1461.66 1531.85 L1461.69 1537.87 Z" fill="#000000" fill-rule="nonzero" fill-opacity="1" /><path clip-path="url(#clip800)" d="M1466.91 1518.58 L1472 1518.58 Q1476.78 1526.09 1479.13 1533.29 Q1481.52 1540.48 1481.52 1547.58 Q1481.52 1554.71 1479.13 1561.93 Q1476.78 1569.16 1472 1576.64 L1466.91 1576.64 Q1471.15 1569.35 1473.21 1562.16 Q1475.31 1554.93 1475.31 1547.58 Q1475.31 1540.23 1473.21 1533.06 Q1471.15 1525.9 1466.91 1518.58 Z" fill="#000000" fill-rule="nonzero" fill-opacity="1" /><polyline clip-path="url(#clip802)" style="stroke:#000000; stroke-linecap:round; stroke-linejoin:round; stroke-width:2; stroke-opacity:0.1; fill:none" points="235.283,1280.27 2352.76,1280.27 "/>
<polyline clip-path="url(#clip802)" style="stroke:#000000; stroke-linecap:round; stroke-linejoin:round; stroke-width:2; stroke-opacity:0.1; fill:none" points="235.283,968.147 2352.76,968.147 "/>
<polyline clip-path="url(#clip802)" style="stroke:#000000; stroke-linecap:round; stroke-linejoin:round; stroke-width:2; stroke-opacity:0.1; fill:none" points="235.283,656.02 2352.76,656.02 "/>
<polyline clip-path="url(#clip802)" style="stroke:#000000; stroke-linecap:round; stroke-linejoin:round; stroke-width:2; stroke-opacity:0.1; fill:none" points="235.283,343.894 2352.76,343.894 "/>
<polyline clip-path="url(#clip800)" style="stroke:#000000; stroke-linecap:round; stroke-linejoin:round; stroke-width:4; stroke-opacity:1; fill:none" points="235.283,1423.18 235.283,123.472 "/>
<polyline clip-path="url(#clip800)" style="stroke:#000000; stroke-linecap:round; stroke-linejoin:round; stroke-width:4; stroke-opacity:1; fill:none" points="235.283,1280.27 254.18,1280.27 "/>
<polyline clip-path="url(#clip800)" style="stroke:#000000; stroke-linecap:round; stroke-linejoin:round; stroke-width:4; stroke-opacity:1; fill:none" points="235.283,968.147 254.18,968.147 "/>
<polyline clip-path="url(#clip800)" style="stroke:#000000; stroke-linecap:round; stroke-linejoin:round; stroke-width:4; stroke-opacity:1; fill:none" points="235.283,656.02 254.18,656.02 "/>
<polyline clip-path="url(#clip800)" style="stroke:#000000; stroke-linecap:round; stroke-linejoin:round; stroke-width:4; stroke-opacity:1; fill:none" points="235.283,343.894 254.18,343.894 "/>
<path clip-path="url(#clip800)" d="M129.862 1267.07 L118.056 1285.52 L129.862 1285.52 L129.862 1267.07 M128.635 1262.99 L134.515 1262.99 L134.515 1285.52 L139.445 1285.52 L139.445 1289.4 L134.515 1289.4 L134.515 1297.55 L129.862 1297.55 L129.862 1289.4 L114.26 1289.4 L114.26 1284.89 L128.635 1262.99 Z" fill="#000000" fill-rule="nonzero" fill-opacity="1" /><path clip-path="url(#clip800)" d="M157.177 1266.07 Q153.566 1266.07 151.737 1269.64 Q149.931 1273.18 149.931 1280.31 Q149.931 1287.41 151.737 1290.98 Q153.566 1294.52 157.177 1294.52 Q160.811 1294.52 162.616 1290.98 Q164.445 1287.41 164.445 1280.31 Q164.445 1273.18 162.616 1269.64 Q160.811 1266.07 157.177 1266.07 M157.177 1262.37 Q162.987 1262.37 166.042 1266.97 Q169.121 1271.56 169.121 1280.31 Q169.121 1289.03 166.042 1293.64 Q162.987 1298.22 157.177 1298.22 Q151.366 1298.22 148.288 1293.64 Q145.232 1289.03 145.232 1280.31 Q145.232 1271.56 148.288 1266.97 Q151.366 1262.37 157.177 1262.37 Z" fill="#000000" fill-rule="nonzero" fill-opacity="1" /><path clip-path="url(#clip800)" d="M187.338 1266.07 Q183.727 1266.07 181.899 1269.64 Q180.093 1273.18 180.093 1280.31 Q180.093 1287.41 181.899 1290.98 Q183.727 1294.52 187.338 1294.52 Q190.973 1294.52 192.778 1290.98 Q194.607 1287.41 194.607 1280.31 Q194.607 1273.18 192.778 1269.64 Q190.973 1266.07 187.338 1266.07 M187.338 1262.37 Q193.149 1262.37 196.204 1266.97 Q199.283 1271.56 199.283 1280.31 Q199.283 1289.03 196.204 1293.64 Q193.149 1298.22 187.338 1298.22 Q181.528 1298.22 178.45 1293.64 Q175.394 1289.03 175.394 1280.31 Q175.394 1271.56 178.45 1266.97 Q181.528 1262.37 187.338 1262.37 Z" fill="#000000" fill-rule="nonzero" fill-opacity="1" /><path clip-path="url(#clip800)" d="M129.862 954.941 L118.056 973.39 L129.862 973.39 L129.862 954.941 M128.635 950.867 L134.515 950.867 L134.515 973.39 L139.445 973.39 L139.445 977.278 L134.515 977.278 L134.515 985.427 L129.862 985.427 L129.862 977.278 L114.26 977.278 L114.26 972.765 L128.635 950.867 Z" fill="#000000" fill-rule="nonzero" fill-opacity="1" /><path clip-path="url(#clip800)" d="M147.223 950.867 L165.579 950.867 L165.579 954.802 L151.505 954.802 L151.505 963.274 Q152.524 962.927 153.542 962.765 Q154.561 962.579 155.579 962.579 Q161.366 962.579 164.746 965.751 Q168.126 968.922 168.126 974.339 Q168.126 979.917 164.653 983.019 Q161.181 986.098 154.862 986.098 Q152.686 986.098 150.417 985.727 Q148.172 985.357 145.765 984.616 L145.765 979.917 Q147.848 981.052 150.07 981.607 Q152.292 982.163 154.769 982.163 Q158.774 982.163 161.112 980.056 Q163.45 977.95 163.45 974.339 Q163.45 970.728 161.112 968.621 Q158.774 966.515 154.769 966.515 Q152.894 966.515 151.019 966.931 Q149.167 967.348 147.223 968.228 L147.223 950.867 Z" fill="#000000" fill-rule="nonzero" fill-opacity="1" /><path clip-path="url(#clip800)" d="M187.338 953.945 Q183.727 953.945 181.899 957.51 Q180.093 961.052 180.093 968.181 Q180.093 975.288 181.899 978.853 Q183.727 982.394 187.338 982.394 Q190.973 982.394 192.778 978.853 Q194.607 975.288 194.607 968.181 Q194.607 961.052 192.778 957.51 Q190.973 953.945 187.338 953.945 M187.338 950.242 Q193.149 950.242 196.204 954.848 Q199.283 959.431 199.283 968.181 Q199.283 976.908 196.204 981.515 Q193.149 986.098 187.338 986.098 Q181.528 986.098 178.45 981.515 Q175.394 976.908 175.394 968.181 Q175.394 959.431 178.45 954.848 Q181.528 950.242 187.338 950.242 Z" fill="#000000" fill-rule="nonzero" fill-opacity="1" /><path clip-path="url(#clip800)" d="M117.061 638.74 L135.417 638.74 L135.417 642.676 L121.343 642.676 L121.343 651.148 Q122.362 650.8 123.38 650.638 Q124.399 650.453 125.418 650.453 Q131.205 650.453 134.584 653.625 Q137.964 656.796 137.964 662.212 Q137.964 667.791 134.492 670.893 Q131.019 673.972 124.7 673.972 Q122.524 673.972 120.255 673.601 Q118.01 673.231 115.603 672.49 L115.603 667.791 Q117.686 668.925 119.908 669.481 Q122.13 670.037 124.607 670.037 Q128.612 670.037 130.95 667.93 Q133.288 665.824 133.288 662.212 Q133.288 658.601 130.95 656.495 Q128.612 654.388 124.607 654.388 Q122.732 654.388 120.857 654.805 Q119.006 655.222 117.061 656.101 L117.061 638.74 Z" fill="#000000" fill-rule="nonzero" fill-opacity="1" /><path clip-path="url(#clip800)" d="M157.177 641.819 Q153.566 641.819 151.737 645.384 Q149.931 648.926 149.931 656.055 Q149.931 663.162 151.737 666.726 Q153.566 670.268 157.177 670.268 Q160.811 670.268 162.616 666.726 Q164.445 663.162 164.445 656.055 Q164.445 648.926 162.616 645.384 Q160.811 641.819 157.177 641.819 M157.177 638.115 Q162.987 638.115 166.042 642.722 Q169.121 647.305 169.121 656.055 Q169.121 664.782 166.042 669.388 Q162.987 673.972 157.177 673.972 Q151.366 673.972 148.288 669.388 Q145.232 664.782 145.232 656.055 Q145.232 647.305 148.288 642.722 Q151.366 638.115 157.177 638.115 Z" fill="#000000" fill-rule="nonzero" fill-opacity="1" /><path clip-path="url(#clip800)" d="M187.338 641.819 Q183.727 641.819 181.899 645.384 Q180.093 648.926 180.093 656.055 Q180.093 663.162 181.899 666.726 Q183.727 670.268 187.338 670.268 Q190.973 670.268 192.778 666.726 Q194.607 663.162 194.607 656.055 Q194.607 648.926 192.778 645.384 Q190.973 641.819 187.338 641.819 M187.338 638.115 Q193.149 638.115 196.204 642.722 Q199.283 647.305 199.283 656.055 Q199.283 664.782 196.204 669.388 Q193.149 673.972 187.338 673.972 Q181.528 673.972 178.45 669.388 Q175.394 664.782 175.394 656.055 Q175.394 647.305 178.45 642.722 Q181.528 638.115 187.338 638.115 Z" fill="#000000" fill-rule="nonzero" fill-opacity="1" /><path clip-path="url(#clip800)" d="M117.061 326.614 L135.417 326.614 L135.417 330.549 L121.343 330.549 L121.343 339.022 Q122.362 338.674 123.38 338.512 Q124.399 338.327 125.418 338.327 Q131.205 338.327 134.584 341.498 Q137.964 344.67 137.964 350.086 Q137.964 355.665 134.492 358.767 Q131.019 361.845 124.7 361.845 Q122.524 361.845 120.255 361.475 Q118.01 361.105 115.603 360.364 L115.603 355.665 Q117.686 356.799 119.908 357.355 Q122.13 357.91 124.607 357.91 Q128.612 357.91 130.95 355.804 Q133.288 353.697 133.288 350.086 Q133.288 346.475 130.95 344.369 Q128.612 342.262 124.607 342.262 Q122.732 342.262 120.857 342.679 Q119.006 343.096 117.061 343.975 L117.061 326.614 Z" fill="#000000" fill-rule="nonzero" fill-opacity="1" /><path clip-path="url(#clip800)" d="M147.223 326.614 L165.579 326.614 L165.579 330.549 L151.505 330.549 L151.505 339.022 Q152.524 338.674 153.542 338.512 Q154.561 338.327 155.579 338.327 Q161.366 338.327 164.746 341.498 Q168.126 344.67 168.126 350.086 Q168.126 355.665 164.653 358.767 Q161.181 361.845 154.862 361.845 Q152.686 361.845 150.417 361.475 Q148.172 361.105 145.765 360.364 L145.765 355.665 Q147.848 356.799 150.07 357.355 Q152.292 357.91 154.769 357.91 Q158.774 357.91 161.112 355.804 Q163.45 353.697 163.45 350.086 Q163.45 346.475 161.112 344.369 Q158.774 342.262 154.769 342.262 Q152.894 342.262 151.019 342.679 Q149.167 343.096 147.223 343.975 L147.223 326.614 Z" fill="#000000" fill-rule="nonzero" fill-opacity="1" /><path clip-path="url(#clip800)" d="M187.338 329.693 Q183.727 329.693 181.899 333.258 Q180.093 336.799 180.093 343.929 Q180.093 351.035 181.899 354.6 Q183.727 358.142 187.338 358.142 Q190.973 358.142 192.778 354.6 Q194.607 351.035 194.607 343.929 Q194.607 336.799 192.778 333.258 Q190.973 329.693 187.338 329.693 M187.338 325.989 Q193.149 325.989 196.204 330.596 Q199.283 335.179 199.283 343.929 Q199.283 352.656 196.204 357.262 Q193.149 361.845 187.338 361.845 Q181.528 361.845 178.45 357.262 Q175.394 352.656 175.394 343.929 Q175.394 335.179 178.45 330.596 Q181.528 325.989 187.338 325.989 Z" fill="#000000" fill-rule="nonzero" fill-opacity="1" /><path clip-path="url(#clip800)" d="M57.2247 1104.1 L44.4614 1104.1 L44.4614 1114.61 L39.1779 1114.61 L39.1779 1097.74 L59.58 1097.74 Q62.2218 1101.46 63.5904 1105.95 Q64.9272 1110.44 64.9272 1115.53 Q64.9272 1126.67 58.4342 1132.97 Q51.9093 1139.24 40.2919 1139.24 Q28.6427 1139.24 22.1496 1132.97 Q15.6248 1126.67 15.6248 1115.53 Q15.6248 1110.88 16.7706 1106.71 Q17.9164 1102.51 20.1444 1098.98 L26.9876 1098.98 Q23.9639 1102.54 22.4361 1106.55 Q20.9083 1110.57 20.9083 1114.99 Q20.9083 1123.71 25.7781 1128.1 Q30.6479 1132.46 40.2919 1132.46 Q49.9041 1132.46 54.7739 1128.1 Q59.6436 1123.71 59.6436 1114.99 Q59.6436 1111.58 59.0707 1108.91 Q58.466 1106.24 57.2247 1104.1 Z" fill="#000000" fill-rule="nonzero" fill-opacity="1" /><path clip-path="url(#clip800)" d="M44.7161 1055.76 L47.5806 1055.76 L47.5806 1082.68 Q53.6281 1082.3 56.8109 1079.05 Q59.9619 1075.78 59.9619 1069.95 Q59.9619 1066.58 59.1344 1063.43 Q58.3069 1060.24 56.6518 1057.13 L62.1899 1057.13 Q63.5267 1060.28 64.227 1063.59 Q64.9272 1066.9 64.9272 1070.3 Q64.9272 1078.83 59.9619 1083.83 Q54.9967 1088.79 46.5303 1088.79 Q37.7774 1088.79 32.6531 1084.08 Q27.4968 1079.34 27.4968 1071.32 Q27.4968 1064.13 32.1438 1059.96 Q36.7589 1055.76 44.7161 1055.76 M42.9973 1061.61 Q38.1912 1061.68 35.3266 1064.32 Q32.4621 1066.93 32.4621 1071.26 Q32.4621 1076.16 35.2312 1079.12 Q38.0002 1082.05 43.0292 1082.49 L42.9973 1061.61 Z" fill="#000000" fill-rule="nonzero" fill-opacity="1" /><path clip-path="url(#clip800)" d="M42.4881 1016.51 L64.0042 1016.51 L64.0042 1022.37 L42.679 1022.37 Q37.6183 1022.37 35.1038 1024.34 Q32.5894 1026.32 32.5894 1030.26 Q32.5894 1035 35.6131 1037.74 Q38.6368 1040.48 43.8567 1040.48 L64.0042 1040.48 L64.0042 1046.37 L28.3562 1046.37 L28.3562 1040.48 L33.8944 1040.48 Q30.6797 1038.38 29.0883 1035.55 Q27.4968 1032.68 27.4968 1028.96 Q27.4968 1022.81 31.3163 1019.66 Q35.1038 1016.51 42.4881 1016.51 Z" fill="#000000" fill-rule="nonzero" fill-opacity="1" /><path clip-path="url(#clip800)" d="M44.7161 974.339 L47.5806 974.339 L47.5806 1001.27 Q53.6281 1000.88 56.8109 997.638 Q59.9619 994.359 59.9619 988.535 Q59.9619 985.161 59.1344 982.01 Q58.3069 978.827 56.6518 975.708 L62.1899 975.708 Q63.5267 978.859 64.227 982.169 Q64.9272 985.479 64.9272 988.885 Q64.9272 997.415 59.9619 1002.41 Q54.9967 1007.38 46.5303 1007.38 Q37.7774 1007.38 32.6531 1002.67 Q27.4968 997.924 27.4968 989.903 Q27.4968 982.71 32.1438 978.54 Q36.7589 974.339 44.7161 974.339 M42.9973 980.196 Q38.1912 980.259 35.3266 982.901 Q32.4621 985.511 32.4621 989.84 Q32.4621 994.741 35.2312 997.701 Q38.0002 1000.63 43.0292 1001.08 L42.9973 980.196 Z" fill="#000000" fill-rule="nonzero" fill-opacity="1" /><path clip-path="url(#clip800)" d="M33.8307 944.07 Q33.2578 945.057 33.0032 946.234 Q32.7167 947.38 32.7167 948.781 Q32.7167 953.746 35.9632 956.42 Q39.1779 959.061 45.2253 959.061 L64.0042 959.061 L64.0042 964.95 L28.3562 964.95 L28.3562 959.061 L33.8944 959.061 Q30.6479 957.215 29.0883 954.255 Q27.4968 951.295 27.4968 947.062 Q27.4968 946.457 27.5923 945.725 Q27.656 944.993 27.8151 944.102 L33.8307 944.07 Z" fill="#000000" fill-rule="nonzero" fill-opacity="1" /><path clip-path="url(#clip800)" d="M46.0847 921.727 Q46.0847 928.824 47.7079 931.562 Q49.3312 934.299 53.2461 934.299 Q56.3653 934.299 58.2114 932.262 Q60.0256 930.193 60.0256 926.66 Q60.0256 921.79 56.5881 918.862 Q53.1188 915.902 47.3897 915.902 L46.0847 915.902 L46.0847 921.727 M43.6657 910.045 L64.0042 910.045 L64.0042 915.902 L58.5933 915.902 Q61.8398 917.907 63.3994 920.899 Q64.9272 923.891 64.9272 928.22 Q64.9272 933.694 61.8716 936.941 Q58.7843 940.155 53.6281 940.155 Q47.6125 940.155 44.5569 936.145 Q41.5014 932.103 41.5014 924.114 L41.5014 915.902 L40.9285 915.902 Q36.8862 915.902 34.6901 918.575 Q32.4621 921.217 32.4621 926.023 Q32.4621 929.079 33.1941 931.975 Q33.9262 934.872 35.3903 937.545 L29.9795 937.545 Q28.7381 934.331 28.1334 931.307 Q27.4968 928.283 27.4968 925.419 Q27.4968 917.684 31.5072 913.865 Q35.5176 910.045 43.6657 910.045 Z" fill="#000000" fill-rule="nonzero" fill-opacity="1" /><path clip-path="url(#clip800)" d="M18.2347 892.19 L28.3562 892.19 L28.3562 880.127 L32.9077 880.127 L32.9077 892.19 L52.2594 892.19 Q56.6199 892.19 57.8613 891.012 Q59.1026 889.803 59.1026 886.142 L59.1026 880.127 L64.0042 880.127 L64.0042 886.142 Q64.0042 892.922 61.4897 895.5 Q58.9434 898.078 52.2594 898.078 L32.9077 898.078 L32.9077 902.375 L28.3562 902.375 L28.3562 898.078 L18.2347 898.078 L18.2347 892.19 Z" fill="#000000" fill-rule="nonzero" fill-opacity="1" /><path clip-path="url(#clip800)" d="M32.4621 858.611 Q32.4621 863.321 36.1542 866.058 Q39.8145 868.796 46.212 868.796 Q52.6095 868.796 56.3017 866.09 Q59.9619 863.353 59.9619 858.611 Q59.9619 853.932 56.2698 851.194 Q52.5777 848.457 46.212 848.457 Q39.8781 848.457 36.186 851.194 Q32.4621 853.932 32.4621 858.611 M27.4968 858.611 Q27.4968 850.972 32.4621 846.611 Q37.4273 842.251 46.212 842.251 Q54.9649 842.251 59.9619 846.611 Q64.9272 850.972 64.9272 858.611 Q64.9272 866.281 59.9619 870.642 Q54.9649 874.97 46.212 874.97 Q37.4273 874.97 32.4621 870.642 Q27.4968 866.281 27.4968 858.611 Z" fill="#000000" fill-rule="nonzero" fill-opacity="1" /><path clip-path="url(#clip800)" d="M33.8307 811.886 Q33.2578 812.873 33.0032 814.051 Q32.7167 815.196 32.7167 816.597 Q32.7167 821.562 35.9632 824.236 Q39.1779 826.877 45.2253 826.877 L64.0042 826.877 L64.0042 832.766 L28.3562 832.766 L28.3562 826.877 L33.8944 826.877 Q30.6479 825.031 29.0883 822.071 Q27.4968 819.111 27.4968 814.878 Q27.4968 814.273 27.5923 813.541 Q27.656 812.809 27.8151 811.918 L33.8307 811.886 Z" fill="#000000" fill-rule="nonzero" fill-opacity="1" /><path clip-path="url(#clip800)" d="M21.7677 778.339 L39.6235 778.339 L39.6235 770.255 Q39.6235 765.767 37.3 763.316 Q34.9765 760.865 30.6797 760.865 Q26.4147 760.865 24.0912 763.316 Q21.7677 765.767 21.7677 770.255 L21.7677 778.339 M16.4842 784.768 L16.4842 770.255 Q16.4842 762.266 20.1126 758.192 Q23.7092 754.086 30.6797 754.086 Q37.7138 754.086 41.3104 758.192 Q44.907 762.266 44.907 770.255 L44.907 778.339 L64.0042 778.339 L64.0042 784.768 L16.4842 784.768 Z" fill="#000000" fill-rule="nonzero" fill-opacity="1" /><path clip-path="url(#clip800)" d="M32.4621 734.225 Q32.4621 738.935 36.1542 741.673 Q39.8145 744.41 46.212 744.41 Q52.6095 744.41 56.3017 741.704 Q59.9619 738.967 59.9619 734.225 Q59.9619 729.546 56.2698 726.809 Q52.5777 724.071 46.212 724.071 Q39.8781 724.071 36.186 726.809 Q32.4621 729.546 32.4621 734.225 M27.4968 734.225 Q27.4968 726.586 32.4621 722.225 Q37.4273 717.865 46.212 717.865 Q54.9649 717.865 59.9619 722.225 Q64.9272 726.586 64.9272 734.225 Q64.9272 741.895 59.9619 746.256 Q54.9649 750.584 46.212 750.584 Q37.4273 750.584 32.4621 746.256 Q27.4968 741.895 27.4968 734.225 Z" fill="#000000" fill-rule="nonzero" fill-opacity="1" /><path clip-path="url(#clip800)" d="M28.3562 711.563 L28.3562 705.706 L56.1743 698.386 L28.3562 691.097 L28.3562 684.19 L56.1743 676.87 L28.3562 669.581 L28.3562 663.724 L64.0042 673.05 L64.0042 679.957 L34.7856 687.628 L64.0042 695.33 L64.0042 702.237 L28.3562 711.563 Z" fill="#000000" fill-rule="nonzero" fill-opacity="1" /><path clip-path="url(#clip800)" d="M44.7161 624.353 L47.5806 624.353 L47.5806 651.279 Q53.6281 650.898 56.8109 647.651 Q59.9619 644.373 59.9619 638.548 Q59.9619 635.174 59.1344 632.023 Q58.3069 628.84 56.6518 625.721 L62.1899 625.721 Q63.5267 628.872 64.227 632.182 Q64.9272 635.493 64.9272 638.898 Q64.9272 647.428 59.9619 652.425 Q54.9967 657.391 46.5303 657.391 Q37.7774 657.391 32.6531 652.68 Q27.4968 647.937 27.4968 639.917 Q27.4968 632.723 32.1438 628.554 Q36.7589 624.353 44.7161 624.353 M42.9973 630.209 Q38.1912 630.273 35.3266 632.914 Q32.4621 635.524 32.4621 639.853 Q32.4621 644.755 35.2312 647.715 Q38.0002 650.643 43.0292 651.089 L42.9973 630.209 Z" fill="#000000" fill-rule="nonzero" fill-opacity="1" /><path clip-path="url(#clip800)" d="M33.8307 594.084 Q33.2578 595.07 33.0032 596.248 Q32.7167 597.394 32.7167 598.794 Q32.7167 603.759 35.9632 606.433 Q39.1779 609.075 45.2253 609.075 L64.0042 609.075 L64.0042 614.963 L28.3562 614.963 L28.3562 609.075 L33.8944 609.075 Q30.6479 607.229 29.0883 604.269 Q27.4968 601.309 27.4968 597.075 Q27.4968 596.471 27.5923 595.739 Q27.656 595.007 27.8151 594.115 L33.8307 594.084 Z" fill="#000000" fill-rule="nonzero" fill-opacity="1" /><path clip-path="url(#clip800)" d="M14.5426 553.152 Q21.8632 557.417 29.0246 559.486 Q36.186 561.555 43.5384 561.555 Q50.8908 561.555 58.1159 559.486 Q65.3091 557.385 72.5979 553.152 L72.5979 558.245 Q65.1182 563.019 57.8931 565.406 Q50.668 567.761 43.5384 567.761 Q36.4406 567.761 29.2474 565.406 Q22.0542 563.051 14.5426 558.245 L14.5426 553.152 Z" fill="#000000" fill-rule="nonzero" fill-opacity="1" /><path clip-path="url(#clip800)" d="M16.4842 541.535 L16.4842 531.954 L48.8219 519.828 L16.4842 507.637 L16.4842 498.057 L64.0042 498.057 L64.0042 504.327 L22.277 504.327 L54.8694 516.581 L54.8694 523.042 L22.277 535.296 L64.0042 535.296 L64.0042 541.535 L16.4842 541.535 Z" fill="#000000" fill-rule="nonzero" fill-opacity="1" /><path clip-path="url(#clip800)" d="M16.4842 489.527 L16.4842 483.034 L56.6518 473.04 L16.4842 463.077 L16.4842 455.852 L56.6518 445.858 L16.4842 435.896 L16.4842 429.371 L64.0042 441.307 L64.0042 449.391 L22.7544 459.417 L64.0042 469.539 L64.0042 477.623 L16.4842 489.527 Z" fill="#000000" fill-rule="nonzero" fill-opacity="1" /><path clip-path="url(#clip800)" d="M14.5426 422.019 L14.5426 416.926 Q22.0542 412.152 29.2474 409.796 Q36.4406 407.409 43.5384 407.409 Q50.668 407.409 57.8931 409.796 Q65.1182 412.152 72.5979 416.926 L72.5979 422.019 Q65.3091 417.785 58.1159 415.716 Q50.8908 413.616 43.5384 413.616 Q36.186 413.616 29.0246 415.716 Q21.8632 417.785 14.5426 422.019 Z" fill="#000000" fill-rule="nonzero" fill-opacity="1" /><path clip-path="url(#clip800)" d="M308.799 63.9476 L308.799 47.7034 L295.431 47.7034 L295.431 40.9789 L316.901 40.9789 L316.901 66.9452 Q312.161 70.3075 306.449 72.0494 Q300.738 73.7508 294.256 73.7508 Q280.078 73.7508 272.057 65.4869 Q264.077 57.1826 264.077 42.3968 Q264.077 27.5705 272.057 19.3066 Q280.078 11.0023 294.256 11.0023 Q300.171 11.0023 305.477 12.4606 Q310.824 13.9189 315.321 16.7545 L315.321 25.464 Q310.784 21.6156 305.68 19.6712 Q300.576 17.7268 294.945 17.7268 Q283.845 17.7268 278.255 23.9246 Q272.705 30.1225 272.705 42.3968 Q272.705 54.6305 278.255 60.8284 Q283.845 67.0263 294.945 67.0263 Q299.279 67.0263 302.682 66.2971 Q306.085 65.5274 308.799 63.9476 Z" fill="#000000" fill-rule="nonzero" fill-opacity="1" /><path clip-path="url(#clip800)" d="M370.332 48.0275 L370.332 51.6733 L336.062 51.6733 Q336.548 59.3701 340.68 63.421 Q344.852 67.4314 352.265 67.4314 Q356.559 67.4314 360.57 66.3781 Q364.62 65.3249 368.59 63.2184 L368.59 70.267 Q364.58 71.9684 360.367 72.8596 Q356.154 73.7508 351.82 73.7508 Q340.963 73.7508 334.603 67.4314 Q328.284 61.1119 328.284 50.3365 Q328.284 39.1965 334.279 32.6746 Q340.315 26.1121 350.523 26.1121 Q359.678 26.1121 364.985 32.0264 Q370.332 37.9003 370.332 48.0275 M362.879 45.84 Q362.798 39.7232 359.435 36.0774 Q356.114 32.4315 350.604 32.4315 Q344.366 32.4315 340.599 35.9558 Q336.872 39.4801 336.305 45.8805 L362.879 45.84 Z" fill="#000000" fill-rule="nonzero" fill-opacity="1" /><path clip-path="url(#clip800)" d="M420.28 45.1919 L420.28 72.576 L412.826 72.576 L412.826 45.4349 Q412.826 38.994 410.315 35.7938 Q407.803 32.5936 402.78 32.5936 Q396.744 32.5936 393.26 36.4419 Q389.777 40.2903 389.777 46.9338 L389.777 72.576 L382.282 72.576 L382.282 27.2059 L389.777 27.2059 L389.777 34.2544 Q392.45 30.163 396.055 28.1376 Q399.701 26.1121 404.441 26.1121 Q412.259 26.1121 416.269 30.9732 Q420.28 35.7938 420.28 45.1919 Z" fill="#000000" fill-rule="nonzero" fill-opacity="1" /><path clip-path="url(#clip800)" d="M473.954 48.0275 L473.954 51.6733 L439.684 51.6733 Q440.17 59.3701 444.302 63.421 Q448.474 67.4314 455.887 67.4314 Q460.181 67.4314 464.192 66.3781 Q468.243 65.3249 472.212 63.2184 L472.212 70.267 Q468.202 71.9684 463.989 72.8596 Q459.776 73.7508 455.442 73.7508 Q444.585 73.7508 438.225 67.4314 Q431.906 61.1119 431.906 50.3365 Q431.906 39.1965 437.901 32.6746 Q443.937 26.1121 454.145 26.1121 Q463.3 26.1121 468.607 32.0264 Q473.954 37.9003 473.954 48.0275 M466.501 45.84 Q466.42 39.7232 463.057 36.0774 Q459.736 32.4315 454.226 32.4315 Q447.988 32.4315 444.221 35.9558 Q440.494 39.4801 439.927 45.8805 L466.501 45.84 Z" fill="#000000" fill-rule="nonzero" fill-opacity="1" /><path clip-path="url(#clip800)" d="M512.478 34.1734 Q511.223 33.4443 509.724 33.1202 Q508.265 32.7556 506.483 32.7556 Q500.164 32.7556 496.761 36.8875 Q493.399 40.9789 493.399 48.6757 L493.399 72.576 L485.904 72.576 L485.904 27.2059 L493.399 27.2059 L493.399 34.2544 Q495.748 30.1225 499.516 28.1376 Q503.283 26.1121 508.671 26.1121 Q509.44 26.1121 510.372 26.2337 Q511.304 26.3147 512.438 26.5172 L512.478 34.1734 Z" fill="#000000" fill-rule="nonzero" fill-opacity="1" /><path clip-path="url(#clip800)" d="M540.916 49.7694 Q531.882 49.7694 528.398 51.8354 Q524.915 53.9013 524.915 58.8839 Q524.915 62.8538 527.507 65.2034 Q530.14 67.5124 534.637 67.5124 Q540.835 67.5124 544.562 63.1374 Q548.329 58.7219 548.329 51.4303 L548.329 49.7694 L540.916 49.7694 M555.783 46.6907 L555.783 72.576 L548.329 72.576 L548.329 65.6895 Q545.777 69.8214 541.969 71.8063 Q538.161 73.7508 532.652 73.7508 Q525.684 73.7508 521.552 69.8619 Q517.461 65.9325 517.461 59.3701 Q517.461 51.7138 522.565 47.825 Q527.71 43.9361 537.878 43.9361 L548.329 43.9361 L548.329 43.2069 Q548.329 38.0623 544.926 35.2672 Q541.564 32.4315 535.447 32.4315 Q531.558 32.4315 527.872 33.3632 Q524.186 34.295 520.783 36.1584 L520.783 29.2718 Q524.874 27.692 528.723 26.9223 Q532.571 26.1121 536.217 26.1121 Q546.06 26.1121 550.922 31.2163 Q555.783 36.3204 555.783 46.6907 Z" fill="#000000" fill-rule="nonzero" fill-opacity="1" /><path clip-path="url(#clip800)" d="M578.508 14.324 L578.508 27.2059 L593.861 27.2059 L593.861 32.9987 L578.508 32.9987 L578.508 57.6282 Q578.508 63.1779 580.007 64.7578 Q581.546 66.3376 586.205 66.3376 L593.861 66.3376 L593.861 72.576 L586.205 72.576 Q577.576 72.576 574.295 69.3758 Q571.014 66.1351 571.014 57.6282 L571.014 32.9987 L565.545 32.9987 L565.545 27.2059 L571.014 27.2059 L571.014 14.324 L578.508 14.324 Z" fill="#000000" fill-rule="nonzero" fill-opacity="1" /><path clip-path="url(#clip800)" d="M621.245 32.4315 Q615.25 32.4315 611.766 37.1306 Q608.282 41.7891 608.282 49.9314 Q608.282 58.0738 611.726 62.7728 Q615.209 67.4314 621.245 67.4314 Q627.2 67.4314 630.684 62.7323 Q634.168 58.0333 634.168 49.9314 Q634.168 41.8701 630.684 37.1711 Q627.2 32.4315 621.245 32.4315 M621.245 26.1121 Q630.967 26.1121 636.517 32.4315 Q642.067 38.7509 642.067 49.9314 Q642.067 61.0714 636.517 67.4314 Q630.967 73.7508 621.245 73.7508 Q611.483 73.7508 605.933 67.4314 Q600.424 61.0714 600.424 49.9314 Q600.424 38.7509 605.933 32.4315 Q611.483 26.1121 621.245 26.1121 Z" fill="#000000" fill-rule="nonzero" fill-opacity="1" /><path clip-path="url(#clip800)" d="M680.712 34.1734 Q679.457 33.4443 677.958 33.1202 Q676.5 32.7556 674.717 32.7556 Q668.398 32.7556 664.995 36.8875 Q661.633 40.9789 661.633 48.6757 L661.633 72.576 L654.139 72.576 L654.139 27.2059 L661.633 27.2059 L661.633 34.2544 Q663.982 30.1225 667.75 28.1376 Q671.517 26.1121 676.905 26.1121 Q677.674 26.1121 678.606 26.2337 Q679.538 26.3147 680.672 26.5172 L680.712 34.1734 Z" fill="#000000" fill-rule="nonzero" fill-opacity="1" /><path clip-path="url(#clip800)" d="M717.454 28.5427 L717.454 35.5912 Q714.294 33.9709 710.892 33.1607 Q707.489 32.3505 703.843 32.3505 Q698.293 32.3505 695.498 34.0519 Q692.744 35.7533 692.744 39.156 Q692.744 41.7486 694.729 43.2475 Q696.714 44.7058 702.709 46.0426 L705.261 46.6097 Q713.201 48.3111 716.522 51.4303 Q719.885 54.509 719.885 60.0587 Q719.885 66.3781 714.862 70.0644 Q709.879 73.7508 701.129 73.7508 Q697.483 73.7508 693.513 73.0216 Q689.584 72.3329 685.209 70.9151 L685.209 63.2184 Q689.341 65.3654 693.351 66.4591 Q697.362 67.5124 701.291 67.5124 Q706.557 67.5124 709.393 65.73 Q712.229 63.9071 712.229 60.6258 Q712.229 57.5877 710.163 55.9673 Q708.137 54.3469 701.21 52.8481 L698.617 52.2405 Q691.69 50.7821 688.612 47.7845 Q685.533 44.7463 685.533 39.4801 Q685.533 33.0797 690.07 29.5959 Q694.607 26.1121 702.952 26.1121 Q707.084 26.1121 710.73 26.7198 Q714.375 27.3274 717.454 28.5427 Z" fill="#000000" fill-rule="nonzero" fill-opacity="1" /><path clip-path="url(#clip800)" d="M758.449 12.096 L766.632 12.096 L766.632 65.6895 L796.082 65.6895 L796.082 72.576 L758.449 72.576 L758.449 12.096 Z" fill="#000000" fill-rule="nonzero" fill-opacity="1" /><path clip-path="url(#clip800)" d="M820.469 32.4315 Q814.473 32.4315 810.99 37.1306 Q807.506 41.7891 807.506 49.9314 Q807.506 58.0738 810.949 62.7728 Q814.433 67.4314 820.469 67.4314 Q826.424 67.4314 829.907 62.7323 Q833.391 58.0333 833.391 49.9314 Q833.391 41.8701 829.907 37.1711 Q826.424 32.4315 820.469 32.4315 M820.469 26.1121 Q830.191 26.1121 835.741 32.4315 Q841.29 38.7509 841.29 49.9314 Q841.29 61.0714 835.741 67.4314 Q830.191 73.7508 820.469 73.7508 Q810.706 73.7508 805.156 67.4314 Q799.647 61.0714 799.647 49.9314 Q799.647 38.7509 805.156 32.4315 Q810.706 26.1121 820.469 26.1121 Z" fill="#000000" fill-rule="nonzero" fill-opacity="1" /><path clip-path="url(#clip800)" d="M874.265 49.7694 Q865.231 49.7694 861.747 51.8354 Q858.264 53.9013 858.264 58.8839 Q858.264 62.8538 860.856 65.2034 Q863.489 67.5124 867.986 67.5124 Q874.184 67.5124 877.91 63.1374 Q881.678 58.7219 881.678 51.4303 L881.678 49.7694 L874.265 49.7694 M889.132 46.6907 L889.132 72.576 L881.678 72.576 L881.678 65.6895 Q879.126 69.8214 875.318 71.8063 Q871.51 73.7508 866.001 73.7508 Q859.033 73.7508 854.901 69.8619 Q850.81 65.9325 850.81 59.3701 Q850.81 51.7138 855.914 47.825 Q861.059 43.9361 871.227 43.9361 L881.678 43.9361 L881.678 43.2069 Q881.678 38.0623 878.275 35.2672 Q874.913 32.4315 868.796 32.4315 Q864.907 32.4315 861.221 33.3632 Q857.534 34.295 854.132 36.1584 L854.132 29.2718 Q858.223 27.692 862.071 26.9223 Q865.92 26.1121 869.566 26.1121 Q879.409 26.1121 884.27 31.2163 Q889.132 36.3204 889.132 46.6907 Z" fill="#000000" fill-rule="nonzero" fill-opacity="1" /><path clip-path="url(#clip800)" d="M934.34 34.0924 L934.34 9.54393 L941.793 9.54393 L941.793 72.576 L934.34 72.576 L934.34 65.7705 Q931.99 69.8214 928.385 71.8063 Q924.82 73.7508 919.797 73.7508 Q911.574 73.7508 906.388 67.1883 Q901.244 60.6258 901.244 49.9314 Q901.244 39.2371 906.388 32.6746 Q911.574 26.1121 919.797 26.1121 Q924.82 26.1121 928.385 28.0971 Q931.99 30.0415 934.34 34.0924 M908.94 49.9314 Q908.94 58.1548 912.303 62.8538 Q915.705 67.5124 921.62 67.5124 Q927.534 67.5124 930.937 62.8538 Q934.34 58.1548 934.34 49.9314 Q934.34 41.7081 930.937 37.0496 Q927.534 32.3505 921.62 32.3505 Q915.705 32.3505 912.303 37.0496 Q908.94 41.7081 908.94 49.9314 Z" fill="#000000" fill-rule="nonzero" fill-opacity="1" /><path clip-path="url(#clip800)" d="M992.024 18.8205 L992.024 41.5461 L1002.31 41.5461 Q1008.03 41.5461 1011.14 38.5889 Q1014.26 35.6318 1014.26 30.163 Q1014.26 24.7348 1011.14 21.7777 Q1008.03 18.8205 1002.31 18.8205 L992.024 18.8205 M983.842 12.096 L1002.31 12.096 Q1012.48 12.096 1017.67 16.714 Q1022.89 21.2916 1022.89 30.163 Q1022.89 39.1155 1017.67 43.6931 Q1012.48 48.2706 1002.31 48.2706 L992.024 48.2706 L992.024 72.576 L983.842 72.576 L983.842 12.096 Z" fill="#000000" fill-rule="nonzero" fill-opacity="1" /><path clip-path="url(#clip800)" d="M1058.38 34.1734 Q1057.12 33.4443 1055.62 33.1202 Q1054.17 32.7556 1052.38 32.7556 Q1046.06 32.7556 1042.66 36.8875 Q1039.3 40.9789 1039.3 48.6757 L1039.3 72.576 L1031.8 72.576 L1031.8 27.2059 L1039.3 27.2059 L1039.3 34.2544 Q1041.65 30.1225 1045.42 28.1376 Q1049.18 26.1121 1054.57 26.1121 Q1055.34 26.1121 1056.27 26.2337 Q1057.2 26.3147 1058.34 26.5172 L1058.38 34.1734 Z" fill="#000000" fill-rule="nonzero" fill-opacity="1" /><path clip-path="url(#clip800)" d="M1081.95 32.4315 Q1075.96 32.4315 1072.48 37.1306 Q1068.99 41.7891 1068.99 49.9314 Q1068.99 58.0738 1072.43 62.7728 Q1075.92 67.4314 1081.95 67.4314 Q1087.91 67.4314 1091.39 62.7323 Q1094.88 58.0333 1094.88 49.9314 Q1094.88 41.8701 1091.39 37.1711 Q1087.91 32.4315 1081.95 32.4315 M1081.95 26.1121 Q1091.68 26.1121 1097.23 32.4315 Q1102.78 38.7509 1102.78 49.9314 Q1102.78 61.0714 1097.23 67.4314 Q1091.68 73.7508 1081.95 73.7508 Q1072.19 73.7508 1066.64 67.4314 Q1061.13 61.0714 1061.13 49.9314 Q1061.13 38.7509 1066.64 32.4315 Q1072.19 26.1121 1081.95 26.1121 Z" fill="#000000" fill-rule="nonzero" fill-opacity="1" /><path clip-path="url(#clip800)" d="M1138.1 9.54393 L1138.1 15.7418 L1130.97 15.7418 Q1126.96 15.7418 1125.38 17.3622 Q1123.84 18.9825 1123.84 23.1955 L1123.84 27.2059 L1136.12 27.2059 L1136.12 32.9987 L1123.84 32.9987 L1123.84 72.576 L1116.35 72.576 L1116.35 32.9987 L1109.22 32.9987 L1109.22 27.2059 L1116.35 27.2059 L1116.35 24.0462 Q1116.35 16.471 1119.87 13.0277 Q1123.4 9.54393 1131.05 9.54393 L1138.1 9.54393 Z" fill="#000000" fill-rule="nonzero" fill-opacity="1" /><path clip-path="url(#clip800)" d="M1144.34 27.2059 L1151.79 27.2059 L1151.79 72.576 L1144.34 72.576 L1144.34 27.2059 M1144.34 9.54393 L1151.79 9.54393 L1151.79 18.9825 L1144.34 18.9825 L1144.34 9.54393 Z" fill="#000000" fill-rule="nonzero" fill-opacity="1" /><path clip-path="url(#clip800)" d="M1167.39 9.54393 L1174.84 9.54393 L1174.84 72.576 L1167.39 72.576 L1167.39 9.54393 Z" fill="#000000" fill-rule="nonzero" fill-opacity="1" /><path clip-path="url(#clip800)" d="M1229.25 48.0275 L1229.25 51.6733 L1194.97 51.6733 Q1195.46 59.3701 1199.59 63.421 Q1203.77 67.4314 1211.18 67.4314 Q1215.47 67.4314 1219.48 66.3781 Q1223.53 65.3249 1227.5 63.2184 L1227.5 70.267 Q1223.49 71.9684 1219.28 72.8596 Q1215.07 73.7508 1210.73 73.7508 Q1199.88 73.7508 1193.52 67.4314 Q1187.2 61.1119 1187.2 50.3365 Q1187.2 39.1965 1193.19 32.6746 Q1199.23 26.1121 1209.44 26.1121 Q1218.59 26.1121 1223.9 32.0264 Q1229.25 37.9003 1229.25 48.0275 M1221.79 45.84 Q1221.71 39.7232 1218.35 36.0774 Q1215.03 32.4315 1209.52 32.4315 Q1203.28 32.4315 1199.51 35.9558 Q1195.78 39.4801 1195.22 45.8805 L1221.79 45.84 Z" fill="#000000" fill-rule="nonzero" fill-opacity="1" /><path clip-path="url(#clip800)" d="M1276.36 43.6931 L1276.36 65.8515 L1289.48 65.8515 Q1296.09 65.8515 1299.25 63.1374 Q1302.45 60.3828 1302.45 54.752 Q1302.45 49.0808 1299.25 46.4072 Q1296.09 43.6931 1289.48 43.6931 L1276.36 43.6931 M1276.36 18.8205 L1276.36 37.0496 L1288.47 37.0496 Q1294.46 37.0496 1297.38 34.8216 Q1300.34 32.5531 1300.34 27.935 Q1300.34 23.3575 1297.38 21.089 Q1294.46 18.8205 1288.47 18.8205 L1276.36 18.8205 M1268.17 12.096 L1289.08 12.096 Q1298.43 12.096 1303.5 15.9849 Q1308.56 19.8737 1308.56 27.0438 Q1308.56 32.5936 1305.97 35.8748 Q1303.38 39.156 1298.35 39.9662 Q1304.39 41.2625 1307.71 45.3944 Q1311.07 49.4858 1311.07 55.6432 Q1311.07 63.745 1305.56 68.1605 Q1300.06 72.576 1289.89 72.576 L1268.17 72.576 L1268.17 12.096 Z" fill="#000000" fill-rule="nonzero" fill-opacity="1" /><path clip-path="url(#clip800)" d="M1363.57 48.0275 L1363.57 51.6733 L1329.3 51.6733 Q1329.79 59.3701 1333.92 63.421 Q1338.09 67.4314 1345.51 67.4314 Q1349.8 67.4314 1353.81 66.3781 Q1357.86 65.3249 1361.83 63.2184 L1361.83 70.267 Q1357.82 71.9684 1353.61 72.8596 Q1349.4 73.7508 1345.06 73.7508 Q1334.2 73.7508 1327.84 67.4314 Q1321.53 61.1119 1321.53 50.3365 Q1321.53 39.1965 1327.52 32.6746 Q1333.56 26.1121 1343.76 26.1121 Q1352.92 26.1121 1358.23 32.0264 Q1363.57 37.9003 1363.57 48.0275 M1356.12 45.84 Q1356.04 39.7232 1352.68 36.0774 Q1349.35 32.4315 1343.85 32.4315 Q1337.61 32.4315 1333.84 35.9558 Q1330.11 39.4801 1329.55 45.8805 L1356.12 45.84 Z" fill="#000000" fill-rule="nonzero" fill-opacity="1" /><path clip-path="url(#clip800)" d="M1398.78 9.54393 L1398.78 15.7418 L1391.65 15.7418 Q1387.64 15.7418 1386.06 17.3622 Q1384.52 18.9825 1384.52 23.1955 L1384.52 27.2059 L1396.79 27.2059 L1396.79 32.9987 L1384.52 32.9987 L1384.52 72.576 L1377.02 72.576 L1377.02 32.9987 L1369.89 32.9987 L1369.89 27.2059 L1377.02 27.2059 L1377.02 24.0462 Q1377.02 16.471 1380.55 13.0277 Q1384.07 9.54393 1391.73 9.54393 L1398.78 9.54393 Z" fill="#000000" fill-rule="nonzero" fill-opacity="1" /><path clip-path="url(#clip800)" d="M1422.6 32.4315 Q1416.6 32.4315 1413.12 37.1306 Q1409.63 41.7891 1409.63 49.9314 Q1409.63 58.0738 1413.08 62.7728 Q1416.56 67.4314 1422.6 67.4314 Q1428.55 67.4314 1432.03 62.7323 Q1435.52 58.0333 1435.52 49.9314 Q1435.52 41.8701 1432.03 37.1711 Q1428.55 32.4315 1422.6 32.4315 M1422.6 26.1121 Q1432.32 26.1121 1437.87 32.4315 Q1443.42 38.7509 1443.42 49.9314 Q1443.42 61.0714 1437.87 67.4314 Q1432.32 73.7508 1422.6 73.7508 Q1412.83 73.7508 1407.28 67.4314 Q1401.77 61.0714 1401.77 49.9314 Q1401.77 38.7509 1407.28 32.4315 Q1412.83 26.1121 1422.6 26.1121 Z" fill="#000000" fill-rule="nonzero" fill-opacity="1" /><path clip-path="url(#clip800)" d="M1482.06 34.1734 Q1480.81 33.4443 1479.31 33.1202 Q1477.85 32.7556 1476.07 32.7556 Q1469.75 32.7556 1466.34 36.8875 Q1462.98 40.9789 1462.98 48.6757 L1462.98 72.576 L1455.49 72.576 L1455.49 27.2059 L1462.98 27.2059 L1462.98 34.2544 Q1465.33 30.1225 1469.1 28.1376 Q1472.87 26.1121 1478.25 26.1121 Q1479.02 26.1121 1479.96 26.2337 Q1480.89 26.3147 1482.02 26.5172 L1482.06 34.1734 Z" fill="#000000" fill-rule="nonzero" fill-opacity="1" /><path clip-path="url(#clip800)" d="M1526.87 48.0275 L1526.87 51.6733 L1492.59 51.6733 Q1493.08 59.3701 1497.21 63.421 Q1501.39 67.4314 1508.8 67.4314 Q1513.09 67.4314 1517.1 66.3781 Q1521.15 65.3249 1525.12 63.2184 L1525.12 70.267 Q1521.11 71.9684 1516.9 72.8596 Q1512.69 73.7508 1508.35 73.7508 Q1497.5 73.7508 1491.14 67.4314 Q1484.82 61.1119 1484.82 50.3365 Q1484.82 39.1965 1490.81 32.6746 Q1496.85 26.1121 1507.06 26.1121 Q1516.21 26.1121 1521.52 32.0264 Q1526.87 37.9003 1526.87 48.0275 M1519.41 45.84 Q1519.33 39.7232 1515.97 36.0774 Q1512.65 32.4315 1507.14 32.4315 Q1500.9 32.4315 1497.13 35.9558 Q1493.4 39.4801 1492.84 45.8805 L1519.41 45.84 Z" fill="#000000" fill-rule="nonzero" fill-opacity="1" /><path clip-path="url(#clip800)" d="M1586.09 49.7694 Q1577.06 49.7694 1573.57 51.8354 Q1570.09 53.9013 1570.09 58.8839 Q1570.09 62.8538 1572.68 65.2034 Q1575.31 67.5124 1579.81 67.5124 Q1586.01 67.5124 1589.74 63.1374 Q1593.5 58.7219 1593.5 51.4303 L1593.5 49.7694 L1586.09 49.7694 M1600.96 46.6907 L1600.96 72.576 L1593.5 72.576 L1593.5 65.6895 Q1590.95 69.8214 1587.14 71.8063 Q1583.33 73.7508 1577.83 73.7508 Q1570.86 73.7508 1566.73 69.8619 Q1562.63 65.9325 1562.63 59.3701 Q1562.63 51.7138 1567.74 47.825 Q1572.88 43.9361 1583.05 43.9361 L1593.5 43.9361 L1593.5 43.2069 Q1593.5 38.0623 1590.1 35.2672 Q1586.74 32.4315 1580.62 32.4315 Q1576.73 32.4315 1573.05 33.3632 Q1569.36 34.295 1565.96 36.1584 L1565.96 29.2718 Q1570.05 27.692 1573.9 26.9223 Q1577.74 26.1121 1581.39 26.1121 Q1591.23 26.1121 1596.1 31.2163 Q1600.96 36.3204 1600.96 46.6907 Z" fill="#000000" fill-rule="nonzero" fill-opacity="1" /><path clip-path="url(#clip800)" d="M1654.02 45.1919 L1654.02 72.576 L1646.57 72.576 L1646.57 45.4349 Q1646.57 38.994 1644.06 35.7938 Q1641.55 32.5936 1636.52 32.5936 Q1630.49 32.5936 1627 36.4419 Q1623.52 40.2903 1623.52 46.9338 L1623.52 72.576 L1616.03 72.576 L1616.03 27.2059 L1623.52 27.2059 L1623.52 34.2544 Q1626.19 30.163 1629.8 28.1376 Q1633.44 26.1121 1638.18 26.1121 Q1646 26.1121 1650.01 30.9732 Q1654.02 35.7938 1654.02 45.1919 Z" fill="#000000" fill-rule="nonzero" fill-opacity="1" /><path clip-path="url(#clip800)" d="M1698.75 34.0924 L1698.75 9.54393 L1706.2 9.54393 L1706.2 72.576 L1698.75 72.576 L1698.75 65.7705 Q1696.4 69.8214 1692.79 71.8063 Q1689.23 73.7508 1684.2 73.7508 Q1675.98 73.7508 1670.79 67.1883 Q1665.65 60.6258 1665.65 49.9314 Q1665.65 39.2371 1670.79 32.6746 Q1675.98 26.1121 1684.2 26.1121 Q1689.23 26.1121 1692.79 28.0971 Q1696.4 30.0415 1698.75 34.0924 M1673.35 49.9314 Q1673.35 58.1548 1676.71 62.8538 Q1680.11 67.5124 1686.03 67.5124 Q1691.94 67.5124 1695.34 62.8538 Q1698.75 58.1548 1698.75 49.9314 Q1698.75 41.7081 1695.34 37.0496 Q1691.94 32.3505 1686.03 32.3505 Q1680.11 32.3505 1676.71 37.0496 Q1673.35 41.7081 1673.35 49.9314 Z" fill="#000000" fill-rule="nonzero" fill-opacity="1" /><path clip-path="url(#clip800)" d="M1768.46 20.1573 L1757.36 50.2555 L1779.6 50.2555 L1768.46 20.1573 M1763.84 12.096 L1773.12 12.096 L1796.17 72.576 L1787.66 72.576 L1782.15 57.061 L1754.89 57.061 L1749.38 72.576 L1740.75 72.576 L1763.84 12.096 Z" fill="#000000" fill-rule="nonzero" fill-opacity="1" /><path clip-path="url(#clip800)" d="M1824.69 9.54393 L1824.69 15.7418 L1817.56 15.7418 Q1813.55 15.7418 1811.97 17.3622 Q1810.43 18.9825 1810.43 23.1955 L1810.43 27.2059 L1822.7 27.2059 L1822.7 32.9987 L1810.43 32.9987 L1810.43 72.576 L1802.93 72.576 L1802.93 32.9987 L1795.8 32.9987 L1795.8 27.2059 L1802.93 27.2059 L1802.93 24.0462 Q1802.93 16.471 1806.46 13.0277 Q1809.98 9.54393 1817.64 9.54393 L1824.69 9.54393 Z" fill="#000000" fill-rule="nonzero" fill-opacity="1" /><path clip-path="url(#clip800)" d="M1836.84 14.324 L1836.84 27.2059 L1852.19 27.2059 L1852.19 32.9987 L1836.84 32.9987 L1836.84 57.6282 Q1836.84 63.1779 1838.34 64.7578 Q1839.88 66.3376 1844.54 66.3376 L1852.19 66.3376 L1852.19 72.576 L1844.54 72.576 Q1835.91 72.576 1832.63 69.3758 Q1829.35 66.1351 1829.35 57.6282 L1829.35 32.9987 L1823.88 32.9987 L1823.88 27.2059 L1829.35 27.2059 L1829.35 14.324 L1836.84 14.324 Z" fill="#000000" fill-rule="nonzero" fill-opacity="1" /><path clip-path="url(#clip800)" d="M1900.8 48.0275 L1900.8 51.6733 L1866.53 51.6733 Q1867.02 59.3701 1871.15 63.421 Q1875.32 67.4314 1882.74 67.4314 Q1887.03 67.4314 1891.04 66.3781 Q1895.09 65.3249 1899.06 63.2184 L1899.06 70.267 Q1895.05 71.9684 1890.84 72.8596 Q1886.63 73.7508 1882.29 73.7508 Q1871.44 73.7508 1865.08 67.4314 Q1858.76 61.1119 1858.76 50.3365 Q1858.76 39.1965 1864.75 32.6746 Q1870.79 26.1121 1881 26.1121 Q1890.15 26.1121 1895.46 32.0264 Q1900.8 37.9003 1900.8 48.0275 M1893.35 45.84 Q1893.27 39.7232 1889.91 36.0774 Q1886.59 32.4315 1881.08 32.4315 Q1874.84 32.4315 1871.07 35.9558 Q1867.34 39.4801 1866.78 45.8805 L1893.35 45.84 Z" fill="#000000" fill-rule="nonzero" fill-opacity="1" /><path clip-path="url(#clip800)" d="M1939.33 34.1734 Q1938.07 33.4443 1936.57 33.1202 Q1935.12 32.7556 1933.33 32.7556 Q1927.01 32.7556 1923.61 36.8875 Q1920.25 40.9789 1920.25 48.6757 L1920.25 72.576 L1912.75 72.576 L1912.75 27.2059 L1920.25 27.2059 L1920.25 34.2544 Q1922.6 30.1225 1926.37 28.1376 Q1930.13 26.1121 1935.52 26.1121 Q1936.29 26.1121 1937.22 26.2337 Q1938.15 26.3147 1939.29 26.5172 L1939.33 34.1734 Z" fill="#000000" fill-rule="nonzero" fill-opacity="1" /><path clip-path="url(#clip800)" d="M2010.1 14.0809 L2010.1 22.0612 Q2005.44 19.8332 2001.31 18.7395 Q1997.18 17.6457 1993.33 17.6457 Q1986.64 17.6457 1983 20.2383 Q1979.39 22.8309 1979.39 27.611 Q1979.39 31.6214 1981.78 33.6873 Q1984.21 35.7128 1990.94 36.9686 L1995.88 37.9813 Q2005.03 39.7232 2009.37 44.1387 Q2013.74 48.5136 2013.74 55.8863 Q2013.74 64.6767 2007.83 69.2137 Q2001.96 73.7508 1990.57 73.7508 Q1986.28 73.7508 1981.42 72.7785 Q1976.6 71.8063 1971.41 69.9024 L1971.41 61.4765 Q1976.39 64.2716 1981.17 65.6895 Q1985.95 67.1073 1990.57 67.1073 Q1997.58 67.1073 2001.39 64.3527 Q2005.2 61.598 2005.2 56.4939 Q2005.2 52.0379 2002.44 49.5264 Q1999.73 47.0148 1993.49 45.759 L1988.51 44.7868 Q1979.35 42.9639 1975.26 39.075 Q1971.17 35.1862 1971.17 28.2591 Q1971.17 20.2383 1976.8 15.6203 Q1982.47 11.0023 1992.4 11.0023 Q1996.65 11.0023 2001.06 11.7719 Q2005.48 12.5416 2010.1 14.0809 Z" fill="#000000" fill-rule="nonzero" fill-opacity="1" /><path clip-path="url(#clip800)" d="M2067.74 63.9476 L2067.74 47.7034 L2054.37 47.7034 L2054.37 40.9789 L2075.84 40.9789 L2075.84 66.9452 Q2071.1 70.3075 2065.39 72.0494 Q2059.68 73.7508 2053.2 73.7508 Q2039.02 73.7508 2031 65.4869 Q2023.02 57.1826 2023.02 42.3968 Q2023.02 27.5705 2031 19.3066 Q2039.02 11.0023 2053.2 11.0023 Q2059.11 11.0023 2064.42 12.4606 Q2069.77 13.9189 2074.26 16.7545 L2074.26 25.464 Q2069.73 21.6156 2064.62 19.6712 Q2059.52 17.7268 2053.89 17.7268 Q2042.79 17.7268 2037.2 23.9246 Q2031.65 30.1225 2031.65 42.3968 Q2031.65 54.6305 2037.2 60.8284 Q2042.79 67.0263 2053.89 67.0263 Q2058.22 67.0263 2061.63 66.2971 Q2065.03 65.5274 2067.74 63.9476 Z" fill="#000000" fill-rule="nonzero" fill-opacity="1" /><path clip-path="url(#clip800)" d="M2090.79 12.096 L2102.98 12.096 L2118.42 53.2532 L2133.93 12.096 L2146.13 12.096 L2146.13 72.576 L2138.15 72.576 L2138.15 19.4686 L2122.55 60.9499 L2114.33 60.9499 L2098.73 19.4686 L2098.73 72.576 L2090.79 72.576 L2090.79 12.096 Z" fill="#000000" fill-rule="nonzero" fill-opacity="1" /><path clip-path="url(#clip800)" d="M2179.63 32.4315 Q2173.63 32.4315 2170.15 37.1306 Q2166.67 41.7891 2166.67 49.9314 Q2166.67 58.0738 2170.11 62.7728 Q2173.59 67.4314 2179.63 67.4314 Q2185.58 67.4314 2189.07 62.7323 Q2192.55 58.0333 2192.55 49.9314 Q2192.55 41.8701 2189.07 37.1711 Q2185.58 32.4315 2179.63 32.4315 M2179.63 26.1121 Q2189.35 26.1121 2194.9 32.4315 Q2200.45 38.7509 2200.45 49.9314 Q2200.45 61.0714 2194.9 67.4314 Q2189.35 73.7508 2179.63 73.7508 Q2169.87 73.7508 2164.32 67.4314 Q2158.81 61.0714 2158.81 49.9314 Q2158.81 38.7509 2164.32 32.4315 Q2169.87 26.1121 2179.63 26.1121 Z" fill="#000000" fill-rule="nonzero" fill-opacity="1" /><path clip-path="url(#clip800)" d="M2242.66 34.0924 L2242.66 9.54393 L2250.11 9.54393 L2250.11 72.576 L2242.66 72.576 L2242.66 65.7705 Q2240.31 69.8214 2236.71 71.8063 Q2233.14 73.7508 2228.12 73.7508 Q2219.89 73.7508 2214.71 67.1883 Q2209.56 60.6258 2209.56 49.9314 Q2209.56 39.2371 2214.71 32.6746 Q2219.89 26.1121 2228.12 26.1121 Q2233.14 26.1121 2236.71 28.0971 Q2240.31 30.0415 2242.66 34.0924 M2217.26 49.9314 Q2217.26 58.1548 2220.62 62.8538 Q2224.03 67.5124 2229.94 67.5124 Q2235.85 67.5124 2239.26 62.8538 Q2242.66 58.1548 2242.66 49.9314 Q2242.66 41.7081 2239.26 37.0496 Q2235.85 32.3505 2229.94 32.3505 Q2224.03 32.3505 2220.62 37.0496 Q2217.26 41.7081 2217.26 49.9314 Z" fill="#000000" fill-rule="nonzero" fill-opacity="1" /><path clip-path="url(#clip800)" d="M2304.27 48.0275 L2304.27 51.6733 L2270 51.6733 Q2270.49 59.3701 2274.62 63.421 Q2278.79 67.4314 2286.21 67.4314 Q2290.5 67.4314 2294.51 66.3781 Q2298.56 65.3249 2302.53 63.2184 L2302.53 70.267 Q2298.52 71.9684 2294.31 72.8596 Q2290.1 73.7508 2285.76 73.7508 Q2274.91 73.7508 2268.55 67.4314 Q2262.23 61.1119 2262.23 50.3365 Q2262.23 39.1965 2268.22 32.6746 Q2274.26 26.1121 2284.47 26.1121 Q2293.62 26.1121 2298.93 32.0264 Q2304.27 37.9003 2304.27 48.0275 M2296.82 45.84 Q2296.74 39.7232 2293.38 36.0774 Q2290.06 32.4315 2284.55 32.4315 Q2278.31 32.4315 2274.54 35.9558 Q2270.81 39.4801 2270.25 45.8805 L2296.82 45.84 Z" fill="#000000" fill-rule="nonzero" fill-opacity="1" /><path clip-path="url(#clip800)" d="M2316.51 9.54393 L2323.96 9.54393 L2323.96 72.576 L2316.51 72.576 L2316.51 9.54393 Z" fill="#000000" fill-rule="nonzero" fill-opacity="1" /><polyline clip-path="url(#clip802)" style="stroke:#009af9; stroke-linecap:round; stroke-linejoin:round; stroke-width:4; stroke-opacity:1; fill:none" points="295.211,672.242 295.211,436.634 382.064,436.634 382.064,616.471 468.917,616.471 468.917,161.793 555.77,161.793 555.77,513.634 642.623,513.634 642.623,461.947 729.476,461.947 729.476,582.494 816.329,582.494 816.329,202.226 903.181,202.226 903.181,236.617 990.034,236.617 990.034,409.062 1076.89,409.062 1076.89,404.469 1163.74,404.469 1163.74,395.101 1250.59,395.101 1250.59,588.487 1337.45,588.487 1337.45,455.247 1424.3,455.247 1424.3,183.875 1511.15,183.875 1511.15,446.973 1598,446.973 1598,377.729 1684.86,377.729 1684.86,160.256 1771.71,160.256 1771.71,440.215 1858.56,440.215 1858.56,330.114 1945.42,330.114 1945.42,490.719 2032.27,490.719 2032.27,539.09 2119.12,539.09 2119.12,330.529 2205.97,330.529 2205.97,487.221 2292.83,487.221 "/>
<polyline clip-path="url(#clip802)" style="stroke:#e26f46; stroke-linecap:round; stroke-linejoin:round; stroke-width:4; stroke-opacity:1; fill:none" points="295.211,815.495 295.211,810.499 382.064,810.499 382.064,1298.78 468.917,1298.78 468.917,1096.59 555.77,1096.59 555.77,1386.4 642.623,1386.4 642.623,1303.83 729.476,1303.83 729.476,1386.4 816.329,1386.4 816.329,993.809 903.181,993.809 903.181,1009.73 990.034,1009.73 990.034,1089.28 1076.89,1089.28 1076.89,1038.12 1163.74,1038.12 1163.74,957.572 1250.59,957.572 1250.59,1072.17 1337.45,1072.17 1337.45,912.297 1424.3,912.297 1424.3,560.807 1511.15,560.807 1511.15,781.977 1598,781.977 1598,675.629 1684.86,675.629 1684.86,396.82 1771.71,396.82 1771.71,617.822 1858.56,617.822 1858.56,460.347 1945.42,460.347 1945.42,559.814 2032.27,559.814 2032.27,574.267 2119.12,574.267 2119.12,317.522 2205.97,317.522 2205.97,461.093 2292.83,461.093 "/>
<path clip-path="url(#clip800)" d="M1453.37 1379.86 L2282.17 1379.86 L2282.17 1224.34 L1453.37 1224.34  Z" fill="#ffffff" fill-rule="evenodd" fill-opacity="1"/>
<polyline clip-path="url(#clip800)" style="stroke:#000000; stroke-linecap:round; stroke-linejoin:round; stroke-width:4; stroke-opacity:1; fill:none" points="1453.37,1379.86 2282.17,1379.86 2282.17,1224.34 1453.37,1224.34 1453.37,1379.86 "/>
<polyline clip-path="url(#clip800)" style="stroke:#009af9; stroke-linecap:round; stroke-linejoin:round; stroke-width:4; stroke-opacity:1; fill:none" points="1476.9,1276.18 1618.06,1276.18 "/>
<path clip-path="url(#clip800)" d="M1641.59 1258.9 L1646.27 1258.9 L1646.27 1293.46 L1641.59 1293.46 L1641.59 1258.9 Z" fill="#000000" fill-rule="nonzero" fill-opacity="1" /><path clip-path="url(#clip800)" d="M1676.94 1277.81 L1676.94 1293.46 L1672.68 1293.46 L1672.68 1277.95 Q1672.68 1274.27 1671.24 1272.44 Q1669.81 1270.61 1666.94 1270.61 Q1663.49 1270.61 1661.5 1272.81 Q1659.51 1275.01 1659.51 1278.8 L1659.51 1293.46 L1655.22 1293.46 L1655.22 1267.53 L1659.51 1267.53 L1659.51 1271.56 Q1661.03 1269.22 1663.09 1268.06 Q1665.18 1266.91 1667.89 1266.91 Q1672.35 1266.91 1674.64 1269.68 Q1676.94 1272.44 1676.94 1277.81 Z" fill="#000000" fill-rule="nonzero" fill-opacity="1" /><path clip-path="url(#clip800)" d="M1685.43 1267.53 L1689.69 1267.53 L1689.69 1293.46 L1685.43 1293.46 L1685.43 1267.53 M1685.43 1257.44 L1689.69 1257.44 L1689.69 1262.83 L1685.43 1262.83 L1685.43 1257.44 Z" fill="#000000" fill-rule="nonzero" fill-opacity="1" /><path clip-path="url(#clip800)" d="M1702.82 1260.17 L1702.82 1267.53 L1711.59 1267.53 L1711.59 1270.84 L1702.82 1270.84 L1702.82 1284.91 Q1702.82 1288.09 1703.67 1288.99 Q1704.55 1289.89 1707.21 1289.89 L1711.59 1289.89 L1711.59 1293.46 L1707.21 1293.46 Q1702.28 1293.46 1700.41 1291.63 Q1698.53 1289.78 1698.53 1284.91 L1698.53 1270.84 L1695.41 1270.84 L1695.41 1267.53 L1698.53 1267.53 L1698.53 1260.17 L1702.82 1260.17 Z" fill="#000000" fill-rule="nonzero" fill-opacity="1" /><path clip-path="url(#clip800)" d="M1717.19 1267.53 L1721.45 1267.53 L1721.45 1293.46 L1717.19 1293.46 L1717.19 1267.53 M1717.19 1257.44 L1721.45 1257.44 L1721.45 1262.83 L1717.19 1262.83 L1717.19 1257.44 Z" fill="#000000" fill-rule="nonzero" fill-opacity="1" /><path clip-path="url(#clip800)" d="M1742.14 1280.42 Q1736.98 1280.42 1734.99 1281.6 Q1733 1282.79 1733 1285.63 Q1733 1287.9 1734.48 1289.24 Q1735.99 1290.56 1738.56 1290.56 Q1742.1 1290.56 1744.23 1288.06 Q1746.38 1285.54 1746.38 1281.37 L1746.38 1280.42 L1742.14 1280.42 M1750.64 1278.66 L1750.64 1293.46 L1746.38 1293.46 L1746.38 1289.52 Q1744.92 1291.88 1742.75 1293.02 Q1740.57 1294.13 1737.42 1294.13 Q1733.44 1294.13 1731.08 1291.91 Q1728.74 1289.66 1728.74 1285.91 Q1728.74 1281.54 1731.66 1279.31 Q1734.6 1277.09 1740.41 1277.09 L1746.38 1277.09 L1746.38 1276.67 Q1746.38 1273.73 1744.44 1272.14 Q1742.51 1270.52 1739.02 1270.52 Q1736.8 1270.52 1734.69 1271.05 Q1732.58 1271.58 1730.64 1272.65 L1730.64 1268.71 Q1732.98 1267.81 1735.18 1267.37 Q1737.38 1266.91 1739.46 1266.91 Q1745.08 1266.91 1747.86 1269.82 Q1750.64 1272.74 1750.64 1278.66 Z" fill="#000000" fill-rule="nonzero" fill-opacity="1" /><path clip-path="url(#clip800)" d="M1759.41 1257.44 L1763.67 1257.44 L1763.67 1293.46 L1759.41 1293.46 L1759.41 1257.44 Z" fill="#000000" fill-rule="nonzero" fill-opacity="1" /><path clip-path="url(#clip800)" d="M1787.84 1258.9 L1792.51 1258.9 L1792.51 1289.52 L1809.34 1289.52 L1809.34 1293.46 L1787.84 1293.46 L1787.84 1258.9 Z" fill="#000000" fill-rule="nonzero" fill-opacity="1" /><path clip-path="url(#clip800)" d="M1823.28 1270.52 Q1819.85 1270.52 1817.86 1273.2 Q1815.87 1275.86 1815.87 1280.52 Q1815.87 1285.17 1817.84 1287.85 Q1819.83 1290.52 1823.28 1290.52 Q1826.68 1290.52 1828.67 1287.83 Q1830.66 1285.15 1830.66 1280.52 Q1830.66 1275.91 1828.67 1273.22 Q1826.68 1270.52 1823.28 1270.52 M1823.28 1266.91 Q1828.83 1266.91 1832 1270.52 Q1835.18 1274.13 1835.18 1280.52 Q1835.18 1286.88 1832 1290.52 Q1828.83 1294.13 1823.28 1294.13 Q1817.7 1294.13 1814.53 1290.52 Q1811.38 1286.88 1811.38 1280.52 Q1811.38 1274.13 1814.53 1270.52 Q1817.7 1266.91 1823.28 1266.91 Z" fill="#000000" fill-rule="nonzero" fill-opacity="1" /><path clip-path="url(#clip800)" d="M1854.02 1280.42 Q1848.86 1280.42 1846.87 1281.6 Q1844.88 1282.79 1844.88 1285.63 Q1844.88 1287.9 1846.36 1289.24 Q1847.86 1290.56 1850.43 1290.56 Q1853.97 1290.56 1856.1 1288.06 Q1858.25 1285.54 1858.25 1281.37 L1858.25 1280.42 L1854.02 1280.42 M1862.51 1278.66 L1862.51 1293.46 L1858.25 1293.46 L1858.25 1289.52 Q1856.8 1291.88 1854.62 1293.02 Q1852.44 1294.13 1849.3 1294.13 Q1845.31 1294.13 1842.95 1291.91 Q1840.62 1289.66 1840.62 1285.91 Q1840.62 1281.54 1843.53 1279.31 Q1846.47 1277.09 1852.28 1277.09 L1858.25 1277.09 L1858.25 1276.67 Q1858.25 1273.73 1856.31 1272.14 Q1854.39 1270.52 1850.89 1270.52 Q1848.67 1270.52 1846.56 1271.05 Q1844.46 1271.58 1842.51 1272.65 L1842.51 1268.71 Q1844.85 1267.81 1847.05 1267.37 Q1849.25 1266.91 1851.33 1266.91 Q1856.96 1266.91 1859.74 1269.82 Q1862.51 1272.74 1862.51 1278.66 Z" fill="#000000" fill-rule="nonzero" fill-opacity="1" /><path clip-path="url(#clip800)" d="M1888.35 1271.47 L1888.35 1257.44 L1892.61 1257.44 L1892.61 1293.46 L1888.35 1293.46 L1888.35 1289.57 Q1887 1291.88 1884.94 1293.02 Q1882.91 1294.13 1880.04 1294.13 Q1875.34 1294.13 1872.37 1290.38 Q1869.44 1286.63 1869.44 1280.52 Q1869.44 1274.41 1872.37 1270.66 Q1875.34 1266.91 1880.04 1266.91 Q1882.91 1266.91 1884.94 1268.04 Q1887 1269.15 1888.35 1271.47 M1873.83 1280.52 Q1873.83 1285.22 1875.75 1287.9 Q1877.7 1290.56 1881.08 1290.56 Q1884.46 1290.56 1886.4 1287.9 Q1888.35 1285.22 1888.35 1280.52 Q1888.35 1275.82 1886.4 1273.16 Q1884.46 1270.47 1881.08 1270.47 Q1877.7 1270.47 1875.75 1273.16 Q1873.83 1275.82 1873.83 1280.52 Z" fill="#000000" fill-rule="nonzero" fill-opacity="1" /><path clip-path="url(#clip800)" d="M1921.31 1276.95 L1921.31 1289.61 L1928.81 1289.61 Q1932.58 1289.61 1934.39 1288.06 Q1936.22 1286.49 1936.22 1283.27 Q1936.22 1280.03 1934.39 1278.5 Q1932.58 1276.95 1928.81 1276.95 L1921.31 1276.95 M1921.31 1262.74 L1921.31 1273.16 L1928.23 1273.16 Q1931.66 1273.16 1933.32 1271.88 Q1935.01 1270.59 1935.01 1267.95 Q1935.01 1265.33 1933.32 1264.04 Q1931.66 1262.74 1928.23 1262.74 L1921.31 1262.74 M1916.63 1258.9 L1928.58 1258.9 Q1933.93 1258.9 1936.82 1261.12 Q1939.71 1263.34 1939.71 1267.44 Q1939.71 1270.61 1938.23 1272.48 Q1936.75 1274.36 1933.88 1274.82 Q1937.33 1275.56 1939.23 1277.92 Q1941.15 1280.26 1941.15 1283.78 Q1941.15 1288.41 1938 1290.93 Q1934.85 1293.46 1929.04 1293.46 L1916.63 1293.46 L1916.63 1258.9 Z" fill="#000000" fill-rule="nonzero" fill-opacity="1" /><path clip-path="url(#clip800)" d="M1971.15 1279.43 L1971.15 1281.51 L1951.56 1281.51 Q1951.84 1285.91 1954.2 1288.22 Q1956.59 1290.52 1960.82 1290.52 Q1963.28 1290.52 1965.57 1289.91 Q1967.88 1289.31 1970.15 1288.11 L1970.15 1292.14 Q1967.86 1293.11 1965.45 1293.62 Q1963.05 1294.13 1960.57 1294.13 Q1954.37 1294.13 1950.73 1290.52 Q1947.12 1286.91 1947.12 1280.75 Q1947.12 1274.38 1950.55 1270.66 Q1953.99 1266.91 1959.83 1266.91 Q1965.06 1266.91 1968.09 1270.29 Q1971.15 1273.64 1971.15 1279.43 M1966.89 1278.18 Q1966.84 1274.68 1964.92 1272.6 Q1963.02 1270.52 1959.87 1270.52 Q1956.31 1270.52 1954.16 1272.53 Q1952.03 1274.54 1951.7 1278.2 L1966.89 1278.18 Z" fill="#000000" fill-rule="nonzero" fill-opacity="1" /><path clip-path="url(#clip800)" d="M1991.26 1257.44 L1991.26 1260.98 L1987.19 1260.98 Q1984.9 1260.98 1983.99 1261.91 Q1983.12 1262.83 1983.12 1265.24 L1983.12 1267.53 L1990.13 1267.53 L1990.13 1270.84 L1983.12 1270.84 L1983.12 1293.46 L1978.83 1293.46 L1978.83 1270.84 L1974.76 1270.84 L1974.76 1267.53 L1978.83 1267.53 L1978.83 1265.72 Q1978.83 1261.4 1980.85 1259.43 Q1982.86 1257.44 1987.24 1257.44 L1991.26 1257.44 Z" fill="#000000" fill-rule="nonzero" fill-opacity="1" /><path clip-path="url(#clip800)" d="M2004.87 1270.52 Q2001.45 1270.52 1999.46 1273.2 Q1997.47 1275.86 1997.47 1280.52 Q1997.47 1285.17 1999.43 1287.85 Q2001.43 1290.52 2004.87 1290.52 Q2008.28 1290.52 2010.27 1287.83 Q2012.26 1285.15 2012.26 1280.52 Q2012.26 1275.91 2010.27 1273.22 Q2008.28 1270.52 2004.87 1270.52 M2004.87 1266.91 Q2010.43 1266.91 2013.6 1270.52 Q2016.77 1274.13 2016.77 1280.52 Q2016.77 1286.88 2013.6 1290.52 Q2010.43 1294.13 2004.87 1294.13 Q1999.3 1294.13 1996.12 1290.52 Q1992.98 1286.88 1992.98 1280.52 Q1992.98 1274.13 1996.12 1270.52 Q1999.3 1266.91 2004.87 1266.91 Z" fill="#000000" fill-rule="nonzero" fill-opacity="1" /><path clip-path="url(#clip800)" d="M2038.86 1271.51 Q2038.14 1271.1 2037.28 1270.91 Q2036.45 1270.7 2035.43 1270.7 Q2031.82 1270.7 2029.87 1273.06 Q2027.95 1275.4 2027.95 1279.8 L2027.95 1293.46 L2023.67 1293.46 L2023.67 1267.53 L2027.95 1267.53 L2027.95 1271.56 Q2029.3 1269.2 2031.45 1268.06 Q2033.6 1266.91 2036.68 1266.91 Q2037.12 1266.91 2037.65 1266.97 Q2038.18 1267.02 2038.83 1267.14 L2038.86 1271.51 Z" fill="#000000" fill-rule="nonzero" fill-opacity="1" /><path clip-path="url(#clip800)" d="M2079.3 1260.03 L2079.3 1264.59 Q2076.63 1263.32 2074.27 1262.69 Q2071.91 1262.07 2069.71 1262.07 Q2065.89 1262.07 2063.81 1263.55 Q2061.75 1265.03 2061.75 1267.76 Q2061.75 1270.05 2063.11 1271.23 Q2064.5 1272.39 2068.35 1273.11 L2071.17 1273.69 Q2076.4 1274.68 2078.88 1277.21 Q2081.38 1279.71 2081.38 1283.92 Q2081.38 1288.94 2078 1291.53 Q2074.64 1294.13 2068.14 1294.13 Q2065.68 1294.13 2062.91 1293.57 Q2060.15 1293.02 2057.19 1291.93 L2057.19 1287.11 Q2060.04 1288.71 2062.77 1289.52 Q2065.5 1290.33 2068.14 1290.33 Q2072.14 1290.33 2074.32 1288.76 Q2076.49 1287.18 2076.49 1284.27 Q2076.49 1281.72 2074.92 1280.29 Q2073.37 1278.85 2069.8 1278.13 L2066.96 1277.58 Q2061.73 1276.54 2059.39 1274.31 Q2057.05 1272.09 2057.05 1268.13 Q2057.05 1263.55 2060.27 1260.91 Q2063.51 1258.27 2069.18 1258.27 Q2071.61 1258.27 2074.13 1258.71 Q2076.66 1259.15 2079.3 1260.03 Z" fill="#000000" fill-rule="nonzero" fill-opacity="1" /><path clip-path="url(#clip800)" d="M2112.23 1288.53 L2112.23 1279.24 L2104.6 1279.24 L2104.6 1275.4 L2116.86 1275.4 L2116.86 1290.24 Q2114.16 1292.16 2110.89 1293.16 Q2107.63 1294.13 2103.92 1294.13 Q2095.82 1294.13 2091.24 1289.41 Q2086.68 1284.66 2086.68 1276.21 Q2086.68 1267.74 2091.24 1263.02 Q2095.82 1258.27 2103.92 1258.27 Q2107.3 1258.27 2110.34 1259.1 Q2113.39 1259.94 2115.96 1261.56 L2115.96 1266.54 Q2113.37 1264.34 2110.45 1263.22 Q2107.54 1262.11 2104.32 1262.11 Q2097.98 1262.11 2094.78 1265.66 Q2091.61 1269.2 2091.61 1276.21 Q2091.61 1283.2 2094.78 1286.74 Q2097.98 1290.28 2104.32 1290.28 Q2106.79 1290.28 2108.74 1289.87 Q2110.68 1289.43 2112.23 1288.53 Z" fill="#000000" fill-rule="nonzero" fill-opacity="1" /><path clip-path="url(#clip800)" d="M2125.41 1258.9 L2132.37 1258.9 L2141.19 1282.41 L2150.06 1258.9 L2157.03 1258.9 L2157.03 1293.46 L2152.47 1293.46 L2152.47 1263.11 L2143.55 1286.81 L2138.85 1286.81 L2129.94 1263.11 L2129.94 1293.46 L2125.41 1293.46 L2125.41 1258.9 Z" fill="#000000" fill-rule="nonzero" fill-opacity="1" /><path clip-path="url(#clip800)" d="M2176.17 1270.52 Q2172.74 1270.52 2170.75 1273.2 Q2168.76 1275.86 2168.76 1280.52 Q2168.76 1285.17 2170.73 1287.85 Q2172.72 1290.52 2176.17 1290.52 Q2179.57 1290.52 2181.56 1287.83 Q2183.55 1285.15 2183.55 1280.52 Q2183.55 1275.91 2181.56 1273.22 Q2179.57 1270.52 2176.17 1270.52 M2176.17 1266.91 Q2181.73 1266.91 2184.9 1270.52 Q2188.07 1274.13 2188.07 1280.52 Q2188.07 1286.88 2184.9 1290.52 Q2181.73 1294.13 2176.17 1294.13 Q2170.59 1294.13 2167.42 1290.52 Q2164.27 1286.88 2164.27 1280.52 Q2164.27 1274.13 2167.42 1270.52 Q2170.59 1266.91 2176.17 1266.91 Z" fill="#000000" fill-rule="nonzero" fill-opacity="1" /><path clip-path="url(#clip800)" d="M2212.19 1271.47 L2212.19 1257.44 L2216.45 1257.44 L2216.45 1293.46 L2212.19 1293.46 L2212.19 1289.57 Q2210.85 1291.88 2208.79 1293.02 Q2206.75 1294.13 2203.88 1294.13 Q2199.18 1294.13 2196.22 1290.38 Q2193.28 1286.63 2193.28 1280.52 Q2193.28 1274.41 2196.22 1270.66 Q2199.18 1266.91 2203.88 1266.91 Q2206.75 1266.91 2208.79 1268.04 Q2210.85 1269.15 2212.19 1271.47 M2197.67 1280.52 Q2197.67 1285.22 2199.6 1287.9 Q2201.54 1290.56 2204.92 1290.56 Q2208.3 1290.56 2210.24 1287.9 Q2212.19 1285.22 2212.19 1280.52 Q2212.19 1275.82 2210.24 1273.16 Q2208.3 1270.47 2204.92 1270.47 Q2201.54 1270.47 2199.6 1273.16 Q2197.67 1275.82 2197.67 1280.52 Z" fill="#000000" fill-rule="nonzero" fill-opacity="1" /><path clip-path="url(#clip800)" d="M2247.4 1279.43 L2247.4 1281.51 L2227.81 1281.51 Q2228.09 1285.91 2230.45 1288.22 Q2232.84 1290.52 2237.07 1290.52 Q2239.53 1290.52 2241.82 1289.91 Q2244.13 1289.31 2246.4 1288.11 L2246.4 1292.14 Q2244.11 1293.11 2241.7 1293.62 Q2239.29 1294.13 2236.82 1294.13 Q2230.61 1294.13 2226.98 1290.52 Q2223.37 1286.91 2223.37 1280.75 Q2223.37 1274.38 2226.79 1270.66 Q2230.24 1266.91 2236.08 1266.91 Q2241.31 1266.91 2244.34 1270.29 Q2247.4 1273.64 2247.4 1279.43 M2243.14 1278.18 Q2243.09 1274.68 2241.17 1272.6 Q2239.27 1270.52 2236.12 1270.52 Q2232.56 1270.52 2230.41 1272.53 Q2228.28 1274.54 2227.95 1278.2 L2243.14 1278.18 Z" fill="#000000" fill-rule="nonzero" fill-opacity="1" /><path clip-path="url(#clip800)" d="M2254.39 1257.44 L2258.65 1257.44 L2258.65 1293.46 L2254.39 1293.46 L2254.39 1257.44 Z" fill="#000000" fill-rule="nonzero" fill-opacity="1" /><polyline clip-path="url(#clip800)" style="stroke:#e26f46; stroke-linecap:round; stroke-linejoin:round; stroke-width:4; stroke-opacity:1; fill:none" points="1476.9,1328.02 1618.06,1328.02 "/>
<path clip-path="url(#clip800)" d="M1641.59 1310.74 L1661.45 1310.74 L1661.45 1314.67 L1646.27 1314.67 L1646.27 1324.86 L1659.97 1324.86 L1659.97 1328.79 L1646.27 1328.79 L1646.27 1345.3 L1641.59 1345.3 L1641.59 1310.74 Z" fill="#000000" fill-rule="nonzero" fill-opacity="1" /><path clip-path="url(#clip800)" d="M1665.22 1319.37 L1669.48 1319.37 L1669.48 1345.3 L1665.22 1345.3 L1665.22 1319.37 M1665.22 1309.28 L1669.48 1309.28 L1669.48 1314.67 L1665.22 1314.67 L1665.22 1309.28 Z" fill="#000000" fill-rule="nonzero" fill-opacity="1" /><path clip-path="url(#clip800)" d="M1699.95 1329.65 L1699.95 1345.3 L1695.69 1345.3 L1695.69 1329.79 Q1695.69 1326.11 1694.25 1324.28 Q1692.82 1322.45 1689.95 1322.45 Q1686.5 1322.45 1684.51 1324.65 Q1682.51 1326.85 1682.51 1330.64 L1682.51 1345.3 L1678.23 1345.3 L1678.23 1319.37 L1682.51 1319.37 L1682.51 1323.4 Q1684.04 1321.06 1686.1 1319.9 Q1688.19 1318.75 1690.89 1318.75 Q1695.36 1318.75 1697.65 1321.52 Q1699.95 1324.28 1699.95 1329.65 Z" fill="#000000" fill-rule="nonzero" fill-opacity="1" /><path clip-path="url(#clip800)" d="M1720.22 1332.26 Q1715.06 1332.26 1713.07 1333.44 Q1711.08 1334.63 1711.08 1337.47 Q1711.08 1339.74 1712.56 1341.08 Q1714.07 1342.4 1716.64 1342.4 Q1720.18 1342.4 1722.31 1339.9 Q1724.46 1337.38 1724.46 1333.21 L1724.46 1332.26 L1720.22 1332.26 M1728.72 1330.5 L1728.72 1345.3 L1724.46 1345.3 L1724.46 1341.36 Q1723 1343.72 1720.82 1344.86 Q1718.65 1345.97 1715.5 1345.97 Q1711.52 1345.97 1709.16 1343.75 Q1706.82 1341.5 1706.82 1337.75 Q1706.82 1333.38 1709.74 1331.15 Q1712.68 1328.93 1718.49 1328.93 L1724.46 1328.93 L1724.46 1328.51 Q1724.46 1325.57 1722.51 1323.98 Q1720.59 1322.36 1717.1 1322.36 Q1714.88 1322.36 1712.77 1322.89 Q1710.66 1323.42 1708.72 1324.49 L1708.72 1320.55 Q1711.06 1319.65 1713.26 1319.21 Q1715.45 1318.75 1717.54 1318.75 Q1723.16 1318.75 1725.94 1321.66 Q1728.72 1324.58 1728.72 1330.5 Z" fill="#000000" fill-rule="nonzero" fill-opacity="1" /><path clip-path="url(#clip800)" d="M1737.49 1309.28 L1741.75 1309.28 L1741.75 1345.3 L1737.49 1345.3 L1737.49 1309.28 Z" fill="#000000" fill-rule="nonzero" fill-opacity="1" /><path clip-path="url(#clip800)" d="M1765.92 1310.74 L1770.59 1310.74 L1770.59 1341.36 L1787.42 1341.36 L1787.42 1345.3 L1765.92 1345.3 L1765.92 1310.74 Z" fill="#000000" fill-rule="nonzero" fill-opacity="1" /><path clip-path="url(#clip800)" d="M1801.36 1322.36 Q1797.93 1322.36 1795.94 1325.04 Q1793.95 1327.7 1793.95 1332.36 Q1793.95 1337.01 1795.92 1339.69 Q1797.91 1342.36 1801.36 1342.36 Q1804.76 1342.36 1806.75 1339.67 Q1808.74 1336.99 1808.74 1332.36 Q1808.74 1327.75 1806.75 1325.06 Q1804.76 1322.36 1801.36 1322.36 M1801.36 1318.75 Q1806.91 1318.75 1810.08 1322.36 Q1813.25 1325.97 1813.25 1332.36 Q1813.25 1338.72 1810.08 1342.36 Q1806.91 1345.97 1801.36 1345.97 Q1795.78 1345.97 1792.61 1342.36 Q1789.46 1338.72 1789.46 1332.36 Q1789.46 1325.97 1792.61 1322.36 Q1795.78 1318.75 1801.36 1318.75 Z" fill="#000000" fill-rule="nonzero" fill-opacity="1" /><path clip-path="url(#clip800)" d="M1832.1 1332.26 Q1826.94 1332.26 1824.94 1333.44 Q1822.95 1334.63 1822.95 1337.47 Q1822.95 1339.74 1824.44 1341.08 Q1825.94 1342.4 1828.51 1342.4 Q1832.05 1342.4 1834.18 1339.9 Q1836.33 1337.38 1836.33 1333.21 L1836.33 1332.26 L1832.1 1332.26 M1840.59 1330.5 L1840.59 1345.3 L1836.33 1345.3 L1836.33 1341.36 Q1834.88 1343.72 1832.7 1344.86 Q1830.52 1345.97 1827.38 1345.97 Q1823.39 1345.97 1821.03 1343.75 Q1818.69 1341.5 1818.69 1337.75 Q1818.69 1333.38 1821.61 1331.15 Q1824.55 1328.93 1830.36 1328.93 L1836.33 1328.93 L1836.33 1328.51 Q1836.33 1325.57 1834.39 1323.98 Q1832.47 1322.36 1828.97 1322.36 Q1826.75 1322.36 1824.64 1322.89 Q1822.54 1323.42 1820.59 1324.49 L1820.59 1320.55 Q1822.93 1319.65 1825.13 1319.21 Q1827.33 1318.75 1829.41 1318.75 Q1835.04 1318.75 1837.81 1321.66 Q1840.59 1324.58 1840.59 1330.5 Z" fill="#000000" fill-rule="nonzero" fill-opacity="1" /><path clip-path="url(#clip800)" d="M1866.43 1323.31 L1866.43 1309.28 L1870.69 1309.28 L1870.69 1345.3 L1866.43 1345.3 L1866.43 1341.41 Q1865.08 1343.72 1863.02 1344.86 Q1860.99 1345.97 1858.12 1345.97 Q1853.42 1345.97 1850.45 1342.22 Q1847.51 1338.47 1847.51 1332.36 Q1847.51 1326.25 1850.45 1322.5 Q1853.42 1318.75 1858.12 1318.75 Q1860.99 1318.75 1863.02 1319.88 Q1865.08 1320.99 1866.43 1323.31 M1851.91 1332.36 Q1851.91 1337.06 1853.83 1339.74 Q1855.78 1342.4 1859.16 1342.4 Q1862.54 1342.4 1864.48 1339.74 Q1866.43 1337.06 1866.43 1332.36 Q1866.43 1327.66 1864.48 1325 Q1862.54 1322.31 1859.16 1322.31 Q1855.78 1322.31 1853.83 1325 Q1851.91 1327.66 1851.91 1332.36 Z" fill="#000000" fill-rule="nonzero" fill-opacity="1" /><path clip-path="url(#clip800)" d="M1906.26 1315.34 L1899.92 1332.54 L1912.63 1332.54 L1906.26 1315.34 M1903.62 1310.74 L1908.93 1310.74 L1922.1 1345.3 L1917.24 1345.3 L1914.09 1336.43 L1898.51 1336.43 L1895.36 1345.3 L1890.43 1345.3 L1903.62 1310.74 Z" fill="#000000" fill-rule="nonzero" fill-opacity="1" /><path clip-path="url(#clip800)" d="M1938.39 1309.28 L1938.39 1312.82 L1934.32 1312.82 Q1932.03 1312.82 1931.12 1313.75 Q1930.24 1314.67 1930.24 1317.08 L1930.24 1319.37 L1937.26 1319.37 L1937.26 1322.68 L1930.24 1322.68 L1930.24 1345.3 L1925.96 1345.3 L1925.96 1322.68 L1921.89 1322.68 L1921.89 1319.37 L1925.96 1319.37 L1925.96 1317.56 Q1925.96 1313.24 1927.98 1311.27 Q1929.99 1309.28 1934.37 1309.28 L1938.39 1309.28 Z" fill="#000000" fill-rule="nonzero" fill-opacity="1" /><path clip-path="url(#clip800)" d="M1945.34 1312.01 L1945.34 1319.37 L1954.11 1319.37 L1954.11 1322.68 L1945.34 1322.68 L1945.34 1336.75 Q1945.34 1339.93 1946.19 1340.83 Q1947.07 1341.73 1949.74 1341.73 L1954.11 1341.73 L1954.11 1345.3 L1949.74 1345.3 Q1944.81 1345.3 1942.93 1343.47 Q1941.06 1341.62 1941.06 1336.75 L1941.06 1322.68 L1937.93 1322.68 L1937.93 1319.37 L1941.06 1319.37 L1941.06 1312.01 L1945.34 1312.01 Z" fill="#000000" fill-rule="nonzero" fill-opacity="1" /><path clip-path="url(#clip800)" d="M1981.89 1331.27 L1981.89 1333.35 L1962.3 1333.35 Q1962.58 1337.75 1964.94 1340.06 Q1967.33 1342.36 1971.56 1342.36 Q1974.02 1342.36 1976.31 1341.75 Q1978.62 1341.15 1980.89 1339.95 L1980.89 1343.98 Q1978.6 1344.95 1976.19 1345.46 Q1973.79 1345.97 1971.31 1345.97 Q1965.11 1345.97 1961.47 1342.36 Q1957.86 1338.75 1957.86 1332.59 Q1957.86 1326.22 1961.29 1322.5 Q1964.74 1318.75 1970.57 1318.75 Q1975.8 1318.75 1978.83 1322.13 Q1981.89 1325.48 1981.89 1331.27 M1977.63 1330.02 Q1977.58 1326.52 1975.66 1324.44 Q1973.76 1322.36 1970.62 1322.36 Q1967.05 1322.36 1964.9 1324.37 Q1962.77 1326.38 1962.44 1330.04 L1977.63 1330.02 Z" fill="#000000" fill-rule="nonzero" fill-opacity="1" /><path clip-path="url(#clip800)" d="M2003.9 1323.35 Q2003.18 1322.94 2002.33 1322.75 Q2001.49 1322.54 2000.48 1322.54 Q1996.86 1322.54 1994.92 1324.9 Q1993 1327.24 1993 1331.64 L1993 1345.3 L1988.72 1345.3 L1988.72 1319.37 L1993 1319.37 L1993 1323.4 Q1994.34 1321.04 1996.49 1319.9 Q1998.65 1318.75 2001.73 1318.75 Q2002.17 1318.75 2002.7 1318.81 Q2003.23 1318.86 2003.88 1318.98 L2003.9 1323.35 Z" fill="#000000" fill-rule="nonzero" fill-opacity="1" /><path clip-path="url(#clip800)" d="M2044.34 1311.87 L2044.34 1316.43 Q2041.68 1315.16 2039.32 1314.53 Q2036.96 1313.91 2034.76 1313.91 Q2030.94 1313.91 2028.86 1315.39 Q2026.8 1316.87 2026.8 1319.6 Q2026.8 1321.89 2028.16 1323.07 Q2029.55 1324.23 2033.39 1324.95 L2036.22 1325.53 Q2041.45 1326.52 2043.92 1329.05 Q2046.42 1331.55 2046.42 1335.76 Q2046.42 1340.78 2043.05 1343.37 Q2039.69 1345.97 2033.18 1345.97 Q2030.73 1345.97 2027.95 1345.41 Q2025.2 1344.86 2022.24 1343.77 L2022.24 1338.95 Q2025.08 1340.55 2027.81 1341.36 Q2030.55 1342.17 2033.18 1342.17 Q2037.19 1342.17 2039.36 1340.6 Q2041.54 1339.02 2041.54 1336.11 Q2041.54 1333.56 2039.97 1332.13 Q2038.42 1330.69 2034.85 1329.97 L2032 1329.42 Q2026.77 1328.38 2024.43 1326.15 Q2022.1 1323.93 2022.1 1319.97 Q2022.1 1315.39 2025.31 1312.75 Q2028.55 1310.11 2034.23 1310.11 Q2036.66 1310.11 2039.18 1310.55 Q2041.7 1310.99 2044.34 1311.87 Z" fill="#000000" fill-rule="nonzero" fill-opacity="1" /><path clip-path="url(#clip800)" d="M2077.28 1340.37 L2077.28 1331.08 L2069.64 1331.08 L2069.64 1327.24 L2081.91 1327.24 L2081.91 1342.08 Q2079.2 1344 2075.94 1345 Q2072.67 1345.97 2068.97 1345.97 Q2060.87 1345.97 2056.29 1341.25 Q2051.73 1336.5 2051.73 1328.05 Q2051.73 1319.58 2056.29 1314.86 Q2060.87 1310.11 2068.97 1310.11 Q2072.35 1310.11 2075.38 1310.94 Q2078.44 1311.78 2081.01 1313.4 L2081.01 1318.38 Q2078.42 1316.18 2075.5 1315.06 Q2072.58 1313.95 2069.36 1313.95 Q2063.02 1313.95 2059.83 1317.5 Q2056.66 1321.04 2056.66 1328.05 Q2056.66 1335.04 2059.83 1338.58 Q2063.02 1342.12 2069.36 1342.12 Q2071.84 1342.12 2073.79 1341.71 Q2075.73 1341.27 2077.28 1340.37 Z" fill="#000000" fill-rule="nonzero" fill-opacity="1" /><path clip-path="url(#clip800)" d="M2090.45 1310.74 L2097.42 1310.74 L2106.24 1334.25 L2115.11 1310.74 L2122.07 1310.74 L2122.07 1345.3 L2117.51 1345.3 L2117.51 1314.95 L2108.6 1338.65 L2103.9 1338.65 L2094.99 1314.95 L2094.99 1345.3 L2090.45 1345.3 L2090.45 1310.74 Z" fill="#000000" fill-rule="nonzero" fill-opacity="1" /><path clip-path="url(#clip800)" d="M2141.22 1322.36 Q2137.79 1322.36 2135.8 1325.04 Q2133.81 1327.7 2133.81 1332.36 Q2133.81 1337.01 2135.78 1339.69 Q2137.77 1342.36 2141.22 1342.36 Q2144.62 1342.36 2146.61 1339.67 Q2148.6 1336.99 2148.6 1332.36 Q2148.6 1327.75 2146.61 1325.06 Q2144.62 1322.36 2141.22 1322.36 M2141.22 1318.75 Q2146.77 1318.75 2149.94 1322.36 Q2153.11 1325.97 2153.11 1332.36 Q2153.11 1338.72 2149.94 1342.36 Q2146.77 1345.97 2141.22 1345.97 Q2135.64 1345.97 2132.47 1342.36 Q2129.32 1338.72 2129.32 1332.36 Q2129.32 1325.97 2132.47 1322.36 Q2135.64 1318.75 2141.22 1318.75 Z" fill="#000000" fill-rule="nonzero" fill-opacity="1" /><path clip-path="url(#clip800)" d="M2177.23 1323.31 L2177.23 1309.28 L2181.49 1309.28 L2181.49 1345.3 L2177.23 1345.3 L2177.23 1341.41 Q2175.89 1343.72 2173.83 1344.86 Q2171.79 1345.97 2168.92 1345.97 Q2164.23 1345.97 2161.26 1342.22 Q2158.32 1338.47 2158.32 1332.36 Q2158.32 1326.25 2161.26 1322.5 Q2164.23 1318.75 2168.92 1318.75 Q2171.79 1318.75 2173.83 1319.88 Q2175.89 1320.99 2177.23 1323.31 M2162.72 1332.36 Q2162.72 1337.06 2164.64 1339.74 Q2166.59 1342.4 2169.97 1342.4 Q2173.35 1342.4 2175.29 1339.74 Q2177.23 1337.06 2177.23 1332.36 Q2177.23 1327.66 2175.29 1325 Q2173.35 1322.31 2169.97 1322.31 Q2166.59 1322.31 2164.64 1325 Q2162.72 1327.66 2162.72 1332.36 Z" fill="#000000" fill-rule="nonzero" fill-opacity="1" /><path clip-path="url(#clip800)" d="M2212.44 1331.27 L2212.44 1333.35 L2192.86 1333.35 Q2193.14 1337.75 2195.5 1340.06 Q2197.88 1342.36 2202.12 1342.36 Q2204.57 1342.36 2206.86 1341.75 Q2209.18 1341.15 2211.45 1339.95 L2211.45 1343.98 Q2209.16 1344.95 2206.75 1345.46 Q2204.34 1345.97 2201.86 1345.97 Q2195.66 1345.97 2192.03 1342.36 Q2188.41 1338.75 2188.41 1332.59 Q2188.41 1326.22 2191.84 1322.5 Q2195.29 1318.75 2201.12 1318.75 Q2206.35 1318.75 2209.39 1322.13 Q2212.44 1325.48 2212.44 1331.27 M2208.18 1330.02 Q2208.14 1326.52 2206.22 1324.44 Q2204.32 1322.36 2201.17 1322.36 Q2197.6 1322.36 2195.45 1324.37 Q2193.32 1326.38 2193 1330.04 L2208.18 1330.02 Z" fill="#000000" fill-rule="nonzero" fill-opacity="1" /><path clip-path="url(#clip800)" d="M2219.43 1309.28 L2223.69 1309.28 L2223.69 1345.3 L2219.43 1345.3 L2219.43 1309.28 Z" fill="#000000" fill-rule="nonzero" fill-opacity="1" /></svg>
