<?xml version="1.0" encoding="utf-8"?>
<svg xmlns="http://www.w3.org/2000/svg" xmlns:xlink="http://www.w3.org/1999/xlink" width="600" height="400" viewBox="0 0 2400 1600">
<defs>
  <clipPath id="clip840">
    <rect x="0" y="0" width="2400" height="1600"/>
  </clipPath>
</defs>
<path clip-path="url(#clip840)" d="M0 1600 L2400 1600 L2400 0 L0 0  Z" fill="#ffffff" fill-rule="evenodd" fill-opacity="1"/>
<defs>
  <clipPath id="clip841">
    <rect x="480" y="0" width="1681" height="1600"/>
  </clipPath>
</defs>
<path clip-path="url(#clip840)" d="M205.121 1423.18 L2352.76 1423.18 L2352.76 123.472 L205.121 123.472  Z" fill="#ffffff" fill-rule="evenodd" fill-opacity="1"/>
<defs>
  <clipPath id="clip842">
    <rect x="205" y="123" width="2149" height="1301"/>
  </clipPath>
</defs>
<polyline clip-path="url(#clip842)" style="stroke:#000000; stroke-linecap:round; stroke-linejoin:round; stroke-width:2; stroke-opacity:0.1; fill:none" points="618.263,1423.18 618.263,123.472 "/>
<polyline clip-path="url(#clip842)" style="stroke:#000000; stroke-linecap:round; stroke-linejoin:round; stroke-width:2; stroke-opacity:0.1; fill:none" points="1058.71,1423.18 1058.71,123.472 "/>
<polyline clip-path="url(#clip842)" style="stroke:#000000; stroke-linecap:round; stroke-linejoin:round; stroke-width:2; stroke-opacity:0.1; fill:none" points="1499.16,1423.18 1499.16,123.472 "/>
<polyline clip-path="url(#clip842)" style="stroke:#000000; stroke-linecap:round; stroke-linejoin:round; stroke-width:2; stroke-opacity:0.1; fill:none" points="1939.61,1423.18 1939.61,123.472 "/>
<polyline clip-path="url(#clip840)" style="stroke:#000000; stroke-linecap:round; stroke-linejoin:round; stroke-width:4; stroke-opacity:1; fill:none" points="205.121,1423.18 2352.76,1423.18 "/>
<polyline clip-path="url(#clip840)" style="stroke:#000000; stroke-linecap:round; stroke-linejoin:round; stroke-width:4; stroke-opacity:1; fill:none" points="618.263,1423.18 618.263,1404.28 "/>
<polyline clip-path="url(#clip840)" style="stroke:#000000; stroke-linecap:round; stroke-linejoin:round; stroke-width:4; stroke-opacity:1; fill:none" points="1058.71,1423.18 1058.71,1404.28 "/>
<polyline clip-path="url(#clip840)" style="stroke:#000000; stroke-linecap:round; stroke-linejoin:round; stroke-width:4; stroke-opacity:1; fill:none" points="1499.16,1423.18 1499.16,1404.28 "/>
<polyline clip-path="url(#clip840)" style="stroke:#000000; stroke-linecap:round; stroke-linejoin:round; stroke-width:4; stroke-opacity:1; fill:none" points="1939.61,1423.18 1939.61,1404.28 "/>
<path clip-path="url(#clip840)" d="M608.541 1451.02 L626.897 1451.02 L626.897 1454.96 L612.823 1454.96 L612.823 1463.43 Q613.842 1463.08 614.86 1462.92 Q615.879 1462.73 616.897 1462.73 Q622.684 1462.73 626.064 1465.9 Q629.444 1469.08 629.444 1474.49 Q629.444 1480.07 625.972 1483.17 Q622.499 1486.25 616.18 1486.25 Q614.004 1486.25 611.735 1485.88 Q609.49 1485.51 607.083 1484.77 L607.083 1480.07 Q609.166 1481.2 611.388 1481.76 Q613.61 1482.32 616.087 1482.32 Q620.092 1482.32 622.43 1480.21 Q624.768 1478.1 624.768 1474.49 Q624.768 1470.88 622.43 1468.77 Q620.092 1466.67 616.087 1466.67 Q614.212 1466.67 612.337 1467.08 Q610.485 1467.5 608.541 1468.38 L608.541 1451.02 Z" fill="#000000" fill-rule="nonzero" fill-opacity="1" /><path clip-path="url(#clip840)" d="M1033.4 1481.64 L1041.04 1481.64 L1041.04 1455.28 L1032.73 1456.95 L1032.73 1452.69 L1040.99 1451.02 L1045.67 1451.02 L1045.67 1481.64 L1053.31 1481.64 L1053.31 1485.58 L1033.4 1485.58 L1033.4 1481.64 Z" fill="#000000" fill-rule="nonzero" fill-opacity="1" /><path clip-path="url(#clip840)" d="M1072.75 1454.1 Q1069.14 1454.1 1067.31 1457.66 Q1065.51 1461.2 1065.51 1468.33 Q1065.51 1475.44 1067.31 1479.01 Q1069.14 1482.55 1072.75 1482.55 Q1076.39 1482.55 1078.19 1479.01 Q1080.02 1475.44 1080.02 1468.33 Q1080.02 1461.2 1078.19 1457.66 Q1076.39 1454.1 1072.75 1454.1 M1072.75 1450.39 Q1078.56 1450.39 1081.62 1455 Q1084.7 1459.58 1084.7 1468.33 Q1084.7 1477.06 1081.62 1481.67 Q1078.56 1486.25 1072.75 1486.25 Q1066.94 1486.25 1063.86 1481.67 Q1060.81 1477.06 1060.81 1468.33 Q1060.81 1459.58 1063.86 1455 Q1066.94 1450.39 1072.75 1450.39 Z" fill="#000000" fill-rule="nonzero" fill-opacity="1" /><path clip-path="url(#clip840)" d="M1474.35 1481.64 L1481.99 1481.64 L1481.99 1455.28 L1473.68 1456.95 L1473.68 1452.69 L1481.94 1451.02 L1486.62 1451.02 L1486.62 1481.64 L1494.26 1481.64 L1494.26 1485.58 L1474.35 1485.58 L1474.35 1481.64 Z" fill="#000000" fill-rule="nonzero" fill-opacity="1" /><path clip-path="url(#clip840)" d="M1503.75 1451.02 L1522.1 1451.02 L1522.1 1454.96 L1508.03 1454.96 L1508.03 1463.43 Q1509.05 1463.08 1510.07 1462.92 Q1511.08 1462.73 1512.1 1462.73 Q1517.89 1462.73 1521.27 1465.9 Q1524.65 1469.08 1524.65 1474.49 Q1524.65 1480.07 1521.18 1483.17 Q1517.71 1486.25 1511.39 1486.25 Q1509.21 1486.25 1506.94 1485.88 Q1504.7 1485.51 1502.29 1484.77 L1502.29 1480.07 Q1504.37 1481.2 1506.59 1481.76 Q1508.82 1482.32 1511.29 1482.32 Q1515.3 1482.32 1517.64 1480.21 Q1519.97 1478.1 1519.97 1474.49 Q1519.97 1470.88 1517.64 1468.77 Q1515.3 1466.67 1511.29 1466.67 Q1509.42 1466.67 1507.54 1467.08 Q1505.69 1467.5 1503.75 1468.38 L1503.75 1451.02 Z" fill="#000000" fill-rule="nonzero" fill-opacity="1" /><path clip-path="url(#clip840)" d="M1918.39 1481.64 L1934.71 1481.64 L1934.71 1485.58 L1912.76 1485.58 L1912.76 1481.64 Q1915.42 1478.89 1920.01 1474.26 Q1924.61 1469.61 1925.79 1468.27 Q1928.04 1465.74 1928.92 1464.01 Q1929.82 1462.25 1929.82 1460.56 Q1929.82 1457.8 1927.88 1456.07 Q1925.96 1454.33 1922.85 1454.33 Q1920.66 1454.33 1918.2 1455.09 Q1915.77 1455.86 1912.99 1457.41 L1912.99 1452.69 Q1915.82 1451.55 1918.27 1450.97 Q1920.72 1450.39 1922.76 1450.39 Q1928.13 1450.39 1931.33 1453.08 Q1934.52 1455.77 1934.52 1460.26 Q1934.52 1462.39 1933.71 1464.31 Q1932.92 1466.2 1930.82 1468.8 Q1930.24 1469.47 1927.14 1472.69 Q1924.04 1475.88 1918.39 1481.64 Z" fill="#000000" fill-rule="nonzero" fill-opacity="1" /><path clip-path="url(#clip840)" d="M1954.52 1454.1 Q1950.91 1454.1 1949.08 1457.66 Q1947.28 1461.2 1947.28 1468.33 Q1947.28 1475.44 1949.08 1479.01 Q1950.91 1482.55 1954.52 1482.55 Q1958.16 1482.55 1959.96 1479.01 Q1961.79 1475.44 1961.79 1468.33 Q1961.79 1461.2 1959.96 1457.66 Q1958.16 1454.1 1954.52 1454.1 M1954.52 1450.39 Q1960.33 1450.39 1963.39 1455 Q1966.47 1459.58 1966.47 1468.33 Q1966.47 1477.06 1963.39 1481.67 Q1960.33 1486.25 1954.52 1486.25 Q1948.71 1486.25 1945.63 1481.67 Q1942.58 1477.06 1942.58 1468.33 Q1942.58 1459.58 1945.63 1455 Q1948.71 1450.39 1954.52 1450.39 Z" fill="#000000" fill-rule="nonzero" fill-opacity="1" /><path clip-path="url(#clip840)" d="M1091.44 1520.52 L1131.64 1520.52 L1131.64 1525.93 L1114.77 1525.93 L1114.77 1568.04 L1108.31 1568.04 L1108.31 1525.93 L1091.44 1525.93 L1091.44 1520.52 Z" fill="#000000" fill-rule="nonzero" fill-opacity="1" /><path clip-path="url(#clip840)" d="M1135.58 1532.4 L1141.44 1532.4 L1141.44 1568.04 L1135.58 1568.04 L1135.58 1532.4 M1135.58 1518.52 L1141.44 1518.52 L1141.44 1525.93 L1135.58 1525.93 L1135.58 1518.52 Z" fill="#000000" fill-rule="nonzero" fill-opacity="1" /><path clip-path="url(#clip840)" d="M1181.45 1539.24 Q1183.64 1535.29 1186.7 1533.41 Q1189.75 1531.54 1193.89 1531.54 Q1199.46 1531.54 1202.49 1535.45 Q1205.51 1539.33 1205.51 1546.53 L1205.51 1568.04 L1199.62 1568.04 L1199.62 1546.72 Q1199.62 1541.59 1197.81 1539.11 Q1195.99 1536.63 1192.27 1536.63 Q1187.72 1536.63 1185.08 1539.65 Q1182.43 1542.68 1182.43 1547.9 L1182.43 1568.04 L1176.55 1568.04 L1176.55 1546.72 Q1176.55 1541.56 1174.73 1539.11 Q1172.92 1536.63 1169.13 1536.63 Q1164.64 1536.63 1162 1539.68 Q1159.36 1542.71 1159.36 1547.9 L1159.36 1568.04 L1153.47 1568.04 L1153.47 1532.4 L1159.36 1532.4 L1159.36 1537.93 Q1161.36 1534.66 1164.16 1533.1 Q1166.97 1531.54 1170.82 1531.54 Q1174.7 1531.54 1177.41 1533.51 Q1180.14 1535.48 1181.45 1539.24 Z" fill="#000000" fill-rule="nonzero" fill-opacity="1" /><path clip-path="url(#clip840)" d="M1247.68 1548.76 L1247.68 1551.62 L1220.76 1551.62 Q1221.14 1557.67 1224.38 1560.85 Q1227.66 1564 1233.49 1564 Q1236.86 1564 1240.01 1563.17 Q1243.19 1562.35 1246.31 1560.69 L1246.31 1566.23 Q1243.16 1567.57 1239.85 1568.27 Q1236.54 1568.97 1233.14 1568.97 Q1224.61 1568.97 1219.61 1564 Q1214.64 1559.04 1214.64 1550.57 Q1214.64 1541.82 1219.36 1536.69 Q1224.1 1531.54 1232.12 1531.54 Q1239.31 1531.54 1243.48 1536.18 Q1247.68 1540.8 1247.68 1548.76 M1241.83 1547.04 Q1241.76 1542.23 1239.12 1539.37 Q1236.51 1536.5 1232.18 1536.5 Q1227.28 1536.5 1224.32 1539.27 Q1221.39 1542.04 1220.95 1547.07 L1241.83 1547.04 Z" fill="#000000" fill-rule="nonzero" fill-opacity="1" /><path clip-path="url(#clip840)" d="M1292.08 1518.58 Q1287.82 1525.9 1285.75 1533.06 Q1283.68 1540.23 1283.68 1547.58 Q1283.68 1554.93 1285.75 1562.16 Q1287.85 1569.35 1292.08 1576.64 L1286.99 1576.64 Q1282.22 1569.16 1279.83 1561.93 Q1277.47 1554.71 1277.47 1547.58 Q1277.47 1540.48 1279.83 1533.29 Q1282.18 1526.09 1286.99 1518.58 L1292.08 1518.58 Z" fill="#000000" fill-rule="nonzero" fill-opacity="1" /><path clip-path="url(#clip840)" d="M1333.08 1546.53 L1333.08 1568.04 L1327.22 1568.04 L1327.22 1546.72 Q1327.22 1541.66 1325.25 1539.14 Q1323.28 1536.63 1319.33 1536.63 Q1314.59 1536.63 1311.85 1539.65 Q1309.11 1542.68 1309.11 1547.9 L1309.11 1568.04 L1303.22 1568.04 L1303.22 1518.52 L1309.11 1518.52 L1309.11 1537.93 Q1311.21 1534.72 1314.05 1533.13 Q1316.91 1531.54 1320.63 1531.54 Q1326.78 1531.54 1329.93 1535.36 Q1333.08 1539.14 1333.08 1546.53 Z" fill="#000000" fill-rule="nonzero" fill-opacity="1" /><path clip-path="url(#clip840)" d="M1358.57 1536.5 Q1353.86 1536.5 1351.13 1540.19 Q1348.39 1543.85 1348.39 1550.25 Q1348.39 1556.65 1351.09 1560.34 Q1353.83 1564 1358.57 1564 Q1363.25 1564 1365.99 1560.31 Q1368.73 1556.62 1368.73 1550.25 Q1368.73 1543.92 1365.99 1540.23 Q1363.25 1536.5 1358.57 1536.5 M1358.57 1531.54 Q1366.21 1531.54 1370.57 1536.5 Q1374.93 1541.47 1374.93 1550.25 Q1374.93 1559 1370.57 1564 Q1366.21 1568.97 1358.57 1568.97 Q1350.9 1568.97 1346.54 1564 Q1342.21 1559 1342.21 1550.25 Q1342.21 1541.47 1346.54 1536.5 Q1350.9 1531.54 1358.57 1531.54 Z" fill="#000000" fill-rule="nonzero" fill-opacity="1" /><path clip-path="url(#clip840)" d="M1384.04 1553.98 L1384.04 1532.4 L1389.89 1532.4 L1389.89 1553.75 Q1389.89 1558.81 1391.87 1561.36 Q1393.84 1563.87 1397.79 1563.87 Q1402.53 1563.87 1405.27 1560.85 Q1408.03 1557.83 1408.03 1552.61 L1408.03 1532.4 L1413.89 1532.4 L1413.89 1568.04 L1408.03 1568.04 L1408.03 1562.57 Q1405.9 1565.82 1403.07 1567.41 Q1400.27 1568.97 1396.54 1568.97 Q1390.4 1568.97 1387.22 1565.15 Q1384.04 1561.33 1384.04 1553.98 M1398.77 1531.54 L1398.77 1531.54 Z" fill="#000000" fill-rule="nonzero" fill-opacity="1" /><path clip-path="url(#clip840)" d="M1446.61 1537.87 Q1445.62 1537.3 1444.45 1537.04 Q1443.3 1536.76 1441.9 1536.76 Q1436.94 1536.76 1434.26 1540 Q1431.62 1543.22 1431.62 1549.27 L1431.62 1568.04 L1425.73 1568.04 L1425.73 1532.4 L1431.62 1532.4 L1431.62 1537.93 Q1433.47 1534.69 1436.43 1533.13 Q1439.39 1531.54 1443.62 1531.54 Q1444.22 1531.54 1444.96 1531.63 Q1445.69 1531.7 1446.58 1531.85 L1446.61 1537.87 Z" fill="#000000" fill-rule="nonzero" fill-opacity="1" /><path clip-path="url(#clip840)" d="M1451.83 1518.58 L1456.92 1518.58 Q1461.7 1526.09 1464.05 1533.29 Q1466.44 1540.48 1466.44 1547.58 Q1466.44 1554.71 1464.05 1561.93 Q1461.7 1569.16 1456.92 1576.64 L1451.83 1576.64 Q1456.06 1569.35 1458.13 1562.16 Q1460.23 1554.93 1460.23 1547.58 Q1460.23 1540.23 1458.13 1533.06 Q1456.06 1525.9 1451.83 1518.58 Z" fill="#000000" fill-rule="nonzero" fill-opacity="1" /><polyline clip-path="url(#clip842)" style="stroke:#000000; stroke-linecap:round; stroke-linejoin:round; stroke-width:2; stroke-opacity:0.1; fill:none" points="205.121,1386.4 2352.76,1386.4 "/>
<polyline clip-path="url(#clip842)" style="stroke:#000000; stroke-linecap:round; stroke-linejoin:round; stroke-width:2; stroke-opacity:0.1; fill:none" points="205.121,1095.95 2352.76,1095.95 "/>
<polyline clip-path="url(#clip842)" style="stroke:#000000; stroke-linecap:round; stroke-linejoin:round; stroke-width:2; stroke-opacity:0.1; fill:none" points="205.121,805.509 2352.76,805.509 "/>
<polyline clip-path="url(#clip842)" style="stroke:#000000; stroke-linecap:round; stroke-linejoin:round; stroke-width:2; stroke-opacity:0.1; fill:none" points="205.121,515.066 2352.76,515.066 "/>
<polyline clip-path="url(#clip842)" style="stroke:#000000; stroke-linecap:round; stroke-linejoin:round; stroke-width:2; stroke-opacity:0.1; fill:none" points="205.121,224.622 2352.76,224.622 "/>
<polyline clip-path="url(#clip840)" style="stroke:#000000; stroke-linecap:round; stroke-linejoin:round; stroke-width:4; stroke-opacity:1; fill:none" points="205.121,1423.18 205.121,123.472 "/>
<polyline clip-path="url(#clip840)" style="stroke:#000000; stroke-linecap:round; stroke-linejoin:round; stroke-width:4; stroke-opacity:1; fill:none" points="205.121,1386.4 224.019,1386.4 "/>
<polyline clip-path="url(#clip840)" style="stroke:#000000; stroke-linecap:round; stroke-linejoin:round; stroke-width:4; stroke-opacity:1; fill:none" points="205.121,1095.95 224.019,1095.95 "/>
<polyline clip-path="url(#clip840)" style="stroke:#000000; stroke-linecap:round; stroke-linejoin:round; stroke-width:4; stroke-opacity:1; fill:none" points="205.121,805.509 224.019,805.509 "/>
<polyline clip-path="url(#clip840)" style="stroke:#000000; stroke-linecap:round; stroke-linejoin:round; stroke-width:4; stroke-opacity:1; fill:none" points="205.121,515.066 224.019,515.066 "/>
<polyline clip-path="url(#clip840)" style="stroke:#000000; stroke-linecap:round; stroke-linejoin:round; stroke-width:4; stroke-opacity:1; fill:none" points="205.121,224.622 224.019,224.622 "/>
<path clip-path="url(#clip840)" d="M157.177 1372.19 Q153.566 1372.19 151.737 1375.76 Q149.931 1379.3 149.931 1386.43 Q149.931 1393.54 151.737 1397.1 Q153.566 1400.64 157.177 1400.64 Q160.811 1400.64 162.616 1397.1 Q164.445 1393.54 164.445 1386.43 Q164.445 1379.3 162.616 1375.76 Q160.811 1372.19 157.177 1372.19 M157.177 1368.49 Q162.987 1368.49 166.042 1373.1 Q169.121 1377.68 169.121 1386.43 Q169.121 1395.16 166.042 1399.76 Q162.987 1404.35 157.177 1404.35 Q151.366 1404.35 148.288 1399.76 Q145.232 1395.16 145.232 1386.43 Q145.232 1377.68 148.288 1373.1 Q151.366 1368.49 157.177 1368.49 Z" fill="#000000" fill-rule="nonzero" fill-opacity="1" /><path clip-path="url(#clip840)" d="M117.825 1109.3 L125.464 1109.3 L125.464 1082.93 L117.154 1084.6 L117.154 1080.34 L125.418 1078.67 L130.093 1078.67 L130.093 1109.3 L137.732 1109.3 L137.732 1113.23 L117.825 1113.23 L117.825 1109.3 Z" fill="#000000" fill-rule="nonzero" fill-opacity="1" /><path clip-path="url(#clip840)" d="M157.177 1081.75 Q153.566 1081.75 151.737 1085.32 Q149.931 1088.86 149.931 1095.99 Q149.931 1103.09 151.737 1106.66 Q153.566 1110.2 157.177 1110.2 Q160.811 1110.2 162.616 1106.66 Q164.445 1103.09 164.445 1095.99 Q164.445 1088.86 162.616 1085.32 Q160.811 1081.75 157.177 1081.75 M157.177 1078.05 Q162.987 1078.05 166.042 1082.65 Q169.121 1087.24 169.121 1095.99 Q169.121 1104.71 166.042 1109.32 Q162.987 1113.9 157.177 1113.9 Q151.366 1113.9 148.288 1109.32 Q145.232 1104.71 145.232 1095.99 Q145.232 1087.24 148.288 1082.65 Q151.366 1078.05 157.177 1078.05 Z" fill="#000000" fill-rule="nonzero" fill-opacity="1" /><path clip-path="url(#clip840)" d="M121.043 818.854 L137.362 818.854 L137.362 822.789 L115.418 822.789 L115.418 818.854 Q118.08 816.099 122.663 811.47 Q127.269 806.817 128.45 805.474 Q130.695 802.951 131.575 801.215 Q132.478 799.456 132.478 797.766 Q132.478 795.011 130.533 793.275 Q128.612 791.539 125.51 791.539 Q123.311 791.539 120.857 792.303 Q118.427 793.067 115.649 794.618 L115.649 789.896 Q118.473 788.761 120.927 788.183 Q123.38 787.604 125.418 787.604 Q130.788 787.604 133.982 790.289 Q137.177 792.974 137.177 797.465 Q137.177 799.595 136.367 801.516 Q135.579 803.414 133.473 806.007 Q132.894 806.678 129.792 809.896 Q126.691 813.09 121.043 818.854 Z" fill="#000000" fill-rule="nonzero" fill-opacity="1" /><path clip-path="url(#clip840)" d="M157.177 791.308 Q153.566 791.308 151.737 794.873 Q149.931 798.414 149.931 805.544 Q149.931 812.65 151.737 816.215 Q153.566 819.757 157.177 819.757 Q160.811 819.757 162.616 816.215 Q164.445 812.65 164.445 805.544 Q164.445 798.414 162.616 794.873 Q160.811 791.308 157.177 791.308 M157.177 787.604 Q162.987 787.604 166.042 792.211 Q169.121 796.794 169.121 805.544 Q169.121 814.271 166.042 818.877 Q162.987 823.46 157.177 823.46 Q151.366 823.46 148.288 818.877 Q145.232 814.271 145.232 805.544 Q145.232 796.794 148.288 792.211 Q151.366 787.604 157.177 787.604 Z" fill="#000000" fill-rule="nonzero" fill-opacity="1" /><path clip-path="url(#clip840)" d="M131.181 513.712 Q134.538 514.429 136.413 516.698 Q138.311 518.966 138.311 522.299 Q138.311 527.415 134.792 530.216 Q131.274 533.017 124.793 533.017 Q122.617 533.017 120.302 532.577 Q118.01 532.161 115.556 531.304 L115.556 526.79 Q117.501 527.924 119.816 528.503 Q122.13 529.082 124.654 529.082 Q129.052 529.082 131.343 527.346 Q133.658 525.61 133.658 522.299 Q133.658 519.244 131.505 517.531 Q129.376 515.795 125.556 515.795 L121.529 515.795 L121.529 511.952 L125.742 511.952 Q129.191 511.952 131.019 510.587 Q132.848 509.198 132.848 506.605 Q132.848 503.943 130.95 502.531 Q129.075 501.096 125.556 501.096 Q123.635 501.096 121.436 501.513 Q119.237 501.929 116.598 502.809 L116.598 498.642 Q119.26 497.901 121.575 497.531 Q123.913 497.161 125.973 497.161 Q131.297 497.161 134.399 499.591 Q137.501 501.999 137.501 506.119 Q137.501 508.989 135.857 510.98 Q134.214 512.948 131.181 513.712 Z" fill="#000000" fill-rule="nonzero" fill-opacity="1" /><path clip-path="url(#clip840)" d="M157.177 500.864 Q153.566 500.864 151.737 504.429 Q149.931 507.971 149.931 515.1 Q149.931 522.207 151.737 525.772 Q153.566 529.313 157.177 529.313 Q160.811 529.313 162.616 525.772 Q164.445 522.207 164.445 515.1 Q164.445 507.971 162.616 504.429 Q160.811 500.864 157.177 500.864 M157.177 497.161 Q162.987 497.161 166.042 501.767 Q169.121 506.351 169.121 515.1 Q169.121 523.827 166.042 528.434 Q162.987 533.017 157.177 533.017 Q151.366 533.017 148.288 528.434 Q145.232 523.827 145.232 515.1 Q145.232 506.351 148.288 501.767 Q151.366 497.161 157.177 497.161 Z" fill="#000000" fill-rule="nonzero" fill-opacity="1" /><path clip-path="url(#clip840)" d="M129.862 211.416 L118.056 229.865 L129.862 229.865 L129.862 211.416 M128.635 207.342 L134.515 207.342 L134.515 229.865 L139.445 229.865 L139.445 233.754 L134.515 233.754 L134.515 241.902 L129.862 241.902 L129.862 233.754 L114.26 233.754 L114.26 229.24 L128.635 207.342 Z" fill="#000000" fill-rule="nonzero" fill-opacity="1" /><path clip-path="url(#clip840)" d="M157.177 210.421 Q153.566 210.421 151.737 213.986 Q149.931 217.528 149.931 224.657 Q149.931 231.764 151.737 235.328 Q153.566 238.87 157.177 238.87 Q160.811 238.87 162.616 235.328 Q164.445 231.764 164.445 224.657 Q164.445 217.528 162.616 213.986 Q160.811 210.421 157.177 210.421 M157.177 206.717 Q162.987 206.717 166.042 211.324 Q169.121 215.907 169.121 224.657 Q169.121 233.384 166.042 237.99 Q162.987 242.574 157.177 242.574 Q151.366 242.574 148.288 237.99 Q145.232 233.384 145.232 224.657 Q145.232 215.907 148.288 211.324 Q151.366 206.717 157.177 206.717 Z" fill="#000000" fill-rule="nonzero" fill-opacity="1" /><path clip-path="url(#clip840)" d="M21.7677 1114.35 L39.6235 1114.35 L39.6235 1106.27 Q39.6235 1101.78 37.3 1099.33 Q34.9765 1096.88 30.6797 1096.88 Q26.4147 1096.88 24.0912 1099.33 Q21.7677 1101.78 21.7677 1106.27 L21.7677 1114.35 M16.4842 1120.78 L16.4842 1106.27 Q16.4842 1098.28 20.1126 1094.21 Q23.7092 1090.1 30.6797 1090.1 Q37.7138 1090.1 41.3104 1094.21 Q44.907 1098.28 44.907 1106.27 L44.907 1114.35 L64.0042 1114.35 L64.0042 1120.78 L16.4842 1120.78 Z" fill="#000000" fill-rule="nonzero" fill-opacity="1" /><path clip-path="url(#clip840)" d="M32.4621 1070.24 Q32.4621 1074.95 36.1542 1077.69 Q39.8145 1080.42 46.212 1080.42 Q52.6095 1080.42 56.3017 1077.72 Q59.9619 1074.98 59.9619 1070.24 Q59.9619 1065.56 56.2698 1062.82 Q52.5777 1060.09 46.212 1060.09 Q39.8781 1060.09 36.186 1062.82 Q32.4621 1065.56 32.4621 1070.24 M27.4968 1070.24 Q27.4968 1062.6 32.4621 1058.24 Q37.4273 1053.88 46.212 1053.88 Q54.9649 1053.88 59.9619 1058.24 Q64.9272 1062.6 64.9272 1070.24 Q64.9272 1077.91 59.9619 1082.27 Q54.9649 1086.6 46.212 1086.6 Q37.4273 1086.6 32.4621 1082.27 Q27.4968 1077.91 27.4968 1070.24 Z" fill="#000000" fill-rule="nonzero" fill-opacity="1" /><path clip-path="url(#clip840)" d="M28.3562 1047.58 L28.3562 1041.72 L56.1743 1034.4 L28.3562 1027.11 L28.3562 1020.2 L56.1743 1012.88 L28.3562 1005.59 L28.3562 999.738 L64.0042 1009.06 L64.0042 1015.97 L34.7856 1023.64 L64.0042 1031.34 L64.0042 1038.25 L28.3562 1047.58 Z" fill="#000000" fill-rule="nonzero" fill-opacity="1" /><path clip-path="url(#clip840)" d="M44.7161 960.366 L47.5806 960.366 L47.5806 987.293 Q53.6281 986.911 56.8109 983.665 Q59.9619 980.387 59.9619 974.562 Q59.9619 971.188 59.1344 968.037 Q58.3069 964.854 56.6518 961.735 L62.1899 961.735 Q63.5267 964.886 64.227 968.196 Q64.9272 971.506 64.9272 974.912 Q64.9272 983.442 59.9619 988.439 Q54.9967 993.404 46.5303 993.404 Q37.7774 993.404 32.6531 988.694 Q27.4968 983.951 27.4968 975.931 Q27.4968 968.737 32.1438 964.568 Q36.7589 960.366 44.7161 960.366 M42.9973 966.223 Q38.1912 966.286 35.3266 968.928 Q32.4621 971.538 32.4621 975.867 Q32.4621 980.768 35.2312 983.729 Q38.0002 986.657 43.0292 987.102 L42.9973 966.223 Z" fill="#000000" fill-rule="nonzero" fill-opacity="1" /><path clip-path="url(#clip840)" d="M33.8307 930.097 Q33.2578 931.084 33.0032 932.262 Q32.7167 933.408 32.7167 934.808 Q32.7167 939.773 35.9632 942.447 Q39.1779 945.089 45.2253 945.089 L64.0042 945.089 L64.0042 950.977 L28.3562 950.977 L28.3562 945.089 L33.8944 945.089 Q30.6479 943.243 29.0883 940.283 Q27.4968 937.323 27.4968 933.089 Q27.4968 932.485 27.5923 931.753 Q27.656 931.02 27.8151 930.129 L33.8307 930.097 Z" fill="#000000" fill-rule="nonzero" fill-opacity="1" /><path clip-path="url(#clip840)" d="M20.1444 867.395 L26.9239 867.395 Q23.9002 870.642 22.4043 874.334 Q20.9083 877.994 20.9083 882.132 Q20.9083 890.28 25.9054 894.609 Q30.8707 898.937 40.2919 898.937 Q49.6813 898.937 54.6784 894.609 Q59.6436 890.28 59.6436 882.132 Q59.6436 877.994 58.1477 874.334 Q56.6518 870.642 53.6281 867.395 L60.3439 867.395 Q62.6355 870.769 63.7814 874.557 Q64.9272 878.312 64.9272 882.514 Q64.9272 893.304 58.3387 899.51 Q51.7183 905.717 40.2919 905.717 Q28.8336 905.717 22.2451 899.51 Q15.6248 893.304 15.6248 882.514 Q15.6248 878.249 16.7706 874.493 Q17.8846 870.705 20.1444 867.395 Z" fill="#000000" fill-rule="nonzero" fill-opacity="1" /><path clip-path="url(#clip840)" d="M49.9359 858.324 L28.3562 858.324 L28.3562 852.468 L49.7131 852.468 Q54.7739 852.468 57.3202 850.494 Q59.8346 848.521 59.8346 844.574 Q59.8346 839.832 56.8109 837.094 Q53.7872 834.325 48.5673 834.325 L28.3562 834.325 L28.3562 828.469 L64.0042 828.469 L64.0042 834.325 L58.5296 834.325 Q61.7762 836.458 63.3676 839.291 Q64.9272 842.092 64.9272 845.815 Q64.9272 851.958 61.1078 855.141 Q57.2883 858.324 49.9359 858.324 M27.4968 843.587 L27.4968 843.587 Z" fill="#000000" fill-rule="nonzero" fill-opacity="1" /><path clip-path="url(#clip840)" d="M33.8307 795.749 Q33.2578 796.736 33.0032 797.914 Q32.7167 799.059 32.7167 800.46 Q32.7167 805.425 35.9632 808.099 Q39.1779 810.74 45.2253 810.74 L64.0042 810.74 L64.0042 816.629 L28.3562 816.629 L28.3562 810.74 L33.8944 810.74 Q30.6479 808.894 29.0883 805.934 Q27.4968 802.974 27.4968 798.741 Q27.4968 798.136 27.5923 797.404 Q27.656 796.672 27.8151 795.781 L33.8307 795.749 Z" fill="#000000" fill-rule="nonzero" fill-opacity="1" /><path clip-path="url(#clip840)" d="M18.2347 783.813 L28.3562 783.813 L28.3562 771.75 L32.9077 771.75 L32.9077 783.813 L52.2594 783.813 Q56.6199 783.813 57.8613 782.636 Q59.1026 781.426 59.1026 777.766 L59.1026 771.75 L64.0042 771.75 L64.0042 777.766 Q64.0042 784.546 61.4897 787.124 Q58.9434 789.702 52.2594 789.702 L32.9077 789.702 L32.9077 793.999 L28.3562 793.999 L28.3562 789.702 L18.2347 789.702 L18.2347 783.813 Z" fill="#000000" fill-rule="nonzero" fill-opacity="1" /><path clip-path="url(#clip840)" d="M46.0847 747.847 Q46.0847 754.945 47.7079 757.682 Q49.3312 760.42 53.2461 760.42 Q56.3653 760.42 58.2114 758.382 Q60.0256 756.314 60.0256 752.781 Q60.0256 747.911 56.5881 744.983 Q53.1188 742.023 47.3897 742.023 L46.0847 742.023 L46.0847 747.847 M43.6657 736.166 L64.0042 736.166 L64.0042 742.023 L58.5933 742.023 Q61.8398 744.028 63.3994 747.02 Q64.9272 750.012 64.9272 754.34 Q64.9272 759.815 61.8716 763.061 Q58.7843 766.276 53.6281 766.276 Q47.6125 766.276 44.5569 762.266 Q41.5014 758.223 41.5014 750.234 L41.5014 742.023 L40.9285 742.023 Q36.8862 742.023 34.6901 744.696 Q32.4621 747.338 32.4621 752.144 Q32.4621 755.2 33.1941 758.096 Q33.9262 760.992 35.3903 763.666 L29.9795 763.666 Q28.7381 760.451 28.1334 757.428 Q27.4968 754.404 27.4968 751.539 Q27.4968 743.805 31.5072 739.986 Q35.5176 736.166 43.6657 736.166 Z" fill="#000000" fill-rule="nonzero" fill-opacity="1" /><path clip-path="url(#clip840)" d="M28.3562 724.103 L28.3562 718.247 L64.0042 718.247 L64.0042 724.103 L28.3562 724.103 M14.479 724.103 L14.479 718.247 L21.895 718.247 L21.895 724.103 L14.479 724.103 Z" fill="#000000" fill-rule="nonzero" fill-opacity="1" /><path clip-path="url(#clip840)" d="M14.479 705.993 L14.479 700.136 L64.0042 700.136 L64.0042 705.993 L14.479 705.993 Z" fill="#000000" fill-rule="nonzero" fill-opacity="1" /><path clip-path="url(#clip840)" d="M44.7161 657.391 L47.5806 657.391 L47.5806 684.317 Q53.6281 683.936 56.8109 680.689 Q59.9619 677.411 59.9619 671.586 Q59.9619 668.212 59.1344 665.061 Q58.3069 661.878 56.6518 658.759 L62.1899 658.759 Q63.5267 661.91 64.227 665.22 Q64.9272 668.531 64.9272 671.936 Q64.9272 680.466 59.9619 685.463 Q54.9967 690.429 46.5303 690.429 Q37.7774 690.429 32.6531 685.718 Q27.4968 680.975 27.4968 672.955 Q27.4968 665.761 32.1438 661.592 Q36.7589 657.391 44.7161 657.391 M42.9973 663.247 Q38.1912 663.311 35.3266 665.952 Q32.4621 668.562 32.4621 672.891 Q32.4621 677.793 35.2312 680.753 Q38.0002 683.681 43.0292 684.127 L42.9973 663.247 Z" fill="#000000" fill-rule="nonzero" fill-opacity="1" /><path clip-path="url(#clip840)" d="M33.7671 624.321 L14.479 624.321 L14.479 618.464 L64.0042 618.464 L64.0042 624.321 L58.657 624.321 Q61.8398 626.167 63.3994 629 Q64.9272 631.8 64.9272 635.747 Q64.9272 642.208 59.771 646.282 Q54.6147 650.325 46.212 650.325 Q37.8093 650.325 32.6531 646.282 Q27.4968 642.208 27.4968 635.747 Q27.4968 631.8 29.0564 629 Q30.5842 626.167 33.7671 624.321 M46.212 644.277 Q52.6732 644.277 56.3653 641.635 Q60.0256 638.962 60.0256 634.315 Q60.0256 629.668 56.3653 626.994 Q52.6732 624.321 46.212 624.321 Q39.7508 624.321 36.0905 626.994 Q32.3984 629.668 32.3984 634.315 Q32.3984 638.962 36.0905 641.635 Q39.7508 644.277 46.212 644.277 Z" fill="#000000" fill-rule="nonzero" fill-opacity="1" /><path clip-path="url(#clip840)" d="M14.5426 571.613 Q21.8632 575.878 29.0246 577.947 Q36.186 580.015 43.5384 580.015 Q50.8908 580.015 58.1159 577.947 Q65.3091 575.846 72.5979 571.613 L72.5979 576.705 Q65.1182 581.48 57.8931 583.867 Q50.668 586.222 43.5384 586.222 Q36.4406 586.222 29.2474 583.867 Q22.0542 581.511 14.5426 576.705 L14.5426 571.613 Z" fill="#000000" fill-rule="nonzero" fill-opacity="1" /><path clip-path="url(#clip840)" d="M16.4842 559.995 L16.4842 550.415 L48.8219 538.288 L16.4842 526.098 L16.4842 516.517 L64.0042 516.517 L64.0042 522.788 L22.277 522.788 L54.8694 535.042 L54.8694 541.503 L22.277 553.757 L64.0042 553.757 L64.0042 559.995 L16.4842 559.995 Z" fill="#000000" fill-rule="nonzero" fill-opacity="1" /><path clip-path="url(#clip840)" d="M16.4842 507.987 L16.4842 501.494 L56.6518 491.5 L16.4842 481.538 L16.4842 474.313 L56.6518 464.319 L16.4842 454.356 L16.4842 447.831 L64.0042 459.767 L64.0042 467.852 L22.7544 477.878 L64.0042 487.999 L64.0042 496.084 L16.4842 507.987 Z" fill="#000000" fill-rule="nonzero" fill-opacity="1" /><path clip-path="url(#clip840)" d="M14.5426 440.479 L14.5426 435.387 Q22.0542 430.612 29.2474 428.257 Q36.4406 425.87 43.5384 425.87 Q50.668 425.87 57.8931 428.257 Q65.1182 430.612 72.5979 435.387 L72.5979 440.479 Q65.3091 436.246 58.1159 434.177 Q50.8908 432.076 43.5384 432.076 Q36.186 432.076 29.0246 434.177 Q21.8632 436.246 14.5426 440.479 Z" fill="#000000" fill-rule="nonzero" fill-opacity="1" /><path clip-path="url(#clip840)" d="M556.601 17.6457 Q547.689 17.6457 542.423 24.2892 Q537.198 30.9327 537.198 42.3968 Q537.198 53.8203 542.423 60.4638 Q547.689 67.1073 556.601 67.1073 Q565.513 67.1073 570.699 60.4638 Q575.924 53.8203 575.924 42.3968 Q575.924 30.9327 570.699 24.2892 Q565.513 17.6457 556.601 17.6457 M556.601 11.0023 Q569.321 11.0023 576.937 19.5497 Q584.553 28.0566 584.553 42.3968 Q584.553 56.6965 576.937 65.2439 Q569.321 73.7508 556.601 73.7508 Q543.841 73.7508 536.185 65.2439 Q528.569 56.737 528.569 42.3968 Q528.569 28.0566 536.185 19.5497 Q543.841 11.0023 556.601 11.0023 Z" fill="#000000" fill-rule="nonzero" fill-opacity="1" /><path clip-path="url(#clip840)" d="M604.24 65.7705 L604.24 89.8329 L596.746 89.8329 L596.746 27.2059 L604.24 27.2059 L604.24 34.0924 Q606.59 30.0415 610.154 28.0971 Q613.76 26.1121 618.742 26.1121 Q627.006 26.1121 632.151 32.6746 Q637.336 39.2371 637.336 49.9314 Q637.336 60.6258 632.151 67.1883 Q627.006 73.7508 618.742 73.7508 Q613.76 73.7508 610.154 71.8063 Q606.59 69.8214 604.24 65.7705 M629.599 49.9314 Q629.599 41.7081 626.196 37.0496 Q622.834 32.3505 616.919 32.3505 Q611.005 32.3505 607.602 37.0496 Q604.24 41.7081 604.24 49.9314 Q604.24 58.1548 607.602 62.8538 Q611.005 67.5124 616.919 67.5124 Q622.834 67.5124 626.196 62.8538 Q629.599 58.1548 629.599 49.9314 Z" fill="#000000" fill-rule="nonzero" fill-opacity="1" /><path clip-path="url(#clip840)" d="M657.064 14.324 L657.064 27.2059 L672.417 27.2059 L672.417 32.9987 L657.064 32.9987 L657.064 57.6282 Q657.064 63.1779 658.563 64.7578 Q660.102 66.3376 664.761 66.3376 L672.417 66.3376 L672.417 72.576 L664.761 72.576 Q656.132 72.576 652.851 69.3758 Q649.57 66.1351 649.57 57.6282 L649.57 32.9987 L644.101 32.9987 L644.101 27.2059 L649.57 27.2059 L649.57 14.324 L657.064 14.324 Z" fill="#000000" fill-rule="nonzero" fill-opacity="1" /><path clip-path="url(#clip840)" d="M682.22 27.2059 L689.674 27.2059 L689.674 72.576 L682.22 72.576 L682.22 27.2059 M682.22 9.54393 L689.674 9.54393 L689.674 18.9825 L682.22 18.9825 L682.22 9.54393 Z" fill="#000000" fill-rule="nonzero" fill-opacity="1" /><path clip-path="url(#clip840)" d="M740.594 35.9153 Q743.389 30.8922 747.278 28.5022 Q751.166 26.1121 756.433 26.1121 Q763.522 26.1121 767.37 31.0947 Q771.218 36.0368 771.218 45.1919 L771.218 72.576 L763.724 72.576 L763.724 45.4349 Q763.724 38.913 761.415 35.7533 Q759.106 32.5936 754.367 32.5936 Q748.574 32.5936 745.212 36.4419 Q741.849 40.2903 741.849 46.9338 L741.849 72.576 L734.355 72.576 L734.355 45.4349 Q734.355 38.8725 732.046 35.7533 Q729.737 32.5936 724.917 32.5936 Q719.205 32.5936 715.842 36.4824 Q712.48 40.3308 712.48 46.9338 L712.48 72.576 L704.986 72.576 L704.986 27.2059 L712.48 27.2059 L712.48 34.2544 Q715.032 30.082 718.597 28.0971 Q722.162 26.1121 727.064 26.1121 Q732.006 26.1121 735.449 28.6237 Q738.933 31.1352 740.594 35.9153 Z" fill="#000000" fill-rule="nonzero" fill-opacity="1" /><path clip-path="url(#clip840)" d="M806.704 49.7694 Q797.671 49.7694 794.187 51.8354 Q790.703 53.9013 790.703 58.8839 Q790.703 62.8538 793.296 65.2034 Q795.929 67.5124 800.425 67.5124 Q806.623 67.5124 810.35 63.1374 Q814.117 58.7219 814.117 51.4303 L814.117 49.7694 L806.704 49.7694 M821.571 46.6907 L821.571 72.576 L814.117 72.576 L814.117 65.6895 Q811.565 69.8214 807.758 71.8063 Q803.95 73.7508 798.44 73.7508 Q791.473 73.7508 787.341 69.8619 Q783.25 65.9325 783.25 59.3701 Q783.25 51.7138 788.354 47.825 Q793.498 43.9361 803.666 43.9361 L814.117 43.9361 L814.117 43.2069 Q814.117 38.0623 810.715 35.2672 Q807.352 32.4315 801.236 32.4315 Q797.347 32.4315 793.66 33.3632 Q789.974 34.295 786.571 36.1584 L786.571 29.2718 Q790.663 27.692 794.511 26.9223 Q798.359 26.1121 802.005 26.1121 Q811.849 26.1121 816.71 31.2163 Q821.571 36.3204 821.571 46.6907 Z" fill="#000000" fill-rule="nonzero" fill-opacity="1" /><path clip-path="url(#clip840)" d="M836.924 9.54393 L844.378 9.54393 L844.378 72.576 L836.924 72.576 L836.924 9.54393 Z" fill="#000000" fill-rule="nonzero" fill-opacity="1" /><path clip-path="url(#clip840)" d="M894.852 18.8205 L894.852 41.5461 L905.141 41.5461 Q910.853 41.5461 913.972 38.5889 Q917.091 35.6318 917.091 30.163 Q917.091 24.7348 913.972 21.7777 Q910.853 18.8205 905.141 18.8205 L894.852 18.8205 M886.669 12.096 L905.141 12.096 Q915.309 12.096 920.494 16.714 Q925.72 21.2916 925.72 30.163 Q925.72 39.1155 920.494 43.6931 Q915.309 48.2706 905.141 48.2706 L894.852 48.2706 L894.852 72.576 L886.669 72.576 L886.669 12.096 Z" fill="#000000" fill-rule="nonzero" fill-opacity="1" /><path clip-path="url(#clip840)" d="M950.997 32.4315 Q945.002 32.4315 941.518 37.1306 Q938.035 41.7891 938.035 49.9314 Q938.035 58.0738 941.478 62.7728 Q944.962 67.4314 950.997 67.4314 Q956.952 67.4314 960.436 62.7323 Q963.92 58.0333 963.92 49.9314 Q963.92 41.8701 960.436 37.1711 Q956.952 32.4315 950.997 32.4315 M950.997 26.1121 Q960.72 26.1121 966.269 32.4315 Q971.819 38.7509 971.819 49.9314 Q971.819 61.0714 966.269 67.4314 Q960.72 73.7508 950.997 73.7508 Q941.235 73.7508 935.685 67.4314 Q930.176 61.0714 930.176 49.9314 Q930.176 38.7509 935.685 32.4315 Q941.235 26.1121 950.997 26.1121 Z" fill="#000000" fill-rule="nonzero" fill-opacity="1" /><path clip-path="url(#clip840)" d="M979.84 27.2059 L987.294 27.2059 L996.611 62.6108 L1005.89 27.2059 L1014.68 27.2059 L1023.99 62.6108 L1033.27 27.2059 L1040.73 27.2059 L1028.86 72.576 L1020.07 72.576 L1010.3 35.3887 L1000.5 72.576 L991.709 72.576 L979.84 27.2059 Z" fill="#000000" fill-rule="nonzero" fill-opacity="1" /><path clip-path="url(#clip840)" d="M1090.83 48.0275 L1090.83 51.6733 L1056.56 51.6733 Q1057.05 59.3701 1061.18 63.421 Q1065.35 67.4314 1072.77 67.4314 Q1077.06 67.4314 1081.07 66.3781 Q1085.12 65.3249 1089.09 63.2184 L1089.09 70.267 Q1085.08 71.9684 1080.87 72.8596 Q1076.66 73.7508 1072.32 73.7508 Q1061.47 73.7508 1055.11 67.4314 Q1048.79 61.1119 1048.79 50.3365 Q1048.79 39.1965 1054.78 32.6746 Q1060.82 26.1121 1071.03 26.1121 Q1080.18 26.1121 1085.49 32.0264 Q1090.83 37.9003 1090.83 48.0275 M1083.38 45.84 Q1083.3 39.7232 1079.94 36.0774 Q1076.62 32.4315 1071.11 32.4315 Q1064.87 32.4315 1061.1 35.9558 Q1057.37 39.4801 1056.81 45.8805 L1083.38 45.84 Z" fill="#000000" fill-rule="nonzero" fill-opacity="1" /><path clip-path="url(#clip840)" d="M1129.36 34.1734 Q1128.1 33.4443 1126.6 33.1202 Q1125.15 32.7556 1123.36 32.7556 Q1117.04 32.7556 1113.64 36.8875 Q1110.28 40.9789 1110.28 48.6757 L1110.28 72.576 L1102.78 72.576 L1102.78 27.2059 L1110.28 27.2059 L1110.28 34.2544 Q1112.63 30.1225 1116.4 28.1376 Q1120.16 26.1121 1125.55 26.1121 Q1126.32 26.1121 1127.25 26.2337 Q1128.18 26.3147 1129.32 26.5172 L1129.36 34.1734 Z" fill="#000000" fill-rule="nonzero" fill-opacity="1" /><path clip-path="url(#clip840)" d="M1209.16 16.7545 L1209.16 25.383 Q1205.03 21.5346 1200.33 19.6307 Q1195.67 17.7268 1190.41 17.7268 Q1180.04 17.7268 1174.53 24.0867 Q1169.02 30.4061 1169.02 42.3968 Q1169.02 54.3469 1174.53 60.7069 Q1180.04 67.0263 1190.41 67.0263 Q1195.67 67.0263 1200.33 65.1223 Q1205.03 63.2184 1209.16 59.3701 L1209.16 67.9175 Q1204.87 70.8341 1200.05 72.2924 Q1195.27 73.7508 1189.92 73.7508 Q1176.19 73.7508 1168.29 65.3654 Q1160.39 56.9395 1160.39 42.3968 Q1160.39 27.8135 1168.29 19.4281 Q1176.19 11.0023 1189.92 11.0023 Q1195.35 11.0023 1200.13 12.4606 Q1204.95 13.8784 1209.16 16.7545 Z" fill="#000000" fill-rule="nonzero" fill-opacity="1" /><path clip-path="url(#clip840)" d="M1220.71 54.671 L1220.71 27.2059 L1228.16 27.2059 L1228.16 54.3874 Q1228.16 60.8284 1230.67 64.0691 Q1233.18 67.2693 1238.21 67.2693 Q1244.24 67.2693 1247.73 63.421 Q1251.25 59.5726 1251.25 52.9291 L1251.25 27.2059 L1258.7 27.2059 L1258.7 72.576 L1251.25 72.576 L1251.25 65.6084 Q1248.54 69.7404 1244.93 71.7658 Q1241.37 73.7508 1236.63 73.7508 Q1228.81 73.7508 1224.76 68.8897 Q1220.71 64.0286 1220.71 54.671 M1239.46 26.1121 L1239.46 26.1121 Z" fill="#000000" fill-rule="nonzero" fill-opacity="1" /><path clip-path="url(#clip840)" d="M1300.35 34.1734 Q1299.09 33.4443 1297.59 33.1202 Q1296.13 32.7556 1294.35 32.7556 Q1288.03 32.7556 1284.63 36.8875 Q1281.27 40.9789 1281.27 48.6757 L1281.27 72.576 L1273.77 72.576 L1273.77 27.2059 L1281.27 27.2059 L1281.27 34.2544 Q1283.62 30.1225 1287.38 28.1376 Q1291.15 26.1121 1296.54 26.1121 Q1297.31 26.1121 1298.24 26.2337 Q1299.17 26.3147 1300.31 26.5172 L1300.35 34.1734 Z" fill="#000000" fill-rule="nonzero" fill-opacity="1" /><path clip-path="url(#clip840)" d="M1315.54 14.324 L1315.54 27.2059 L1330.89 27.2059 L1330.89 32.9987 L1315.54 32.9987 L1315.54 57.6282 Q1315.54 63.1779 1317.04 64.7578 Q1318.58 66.3376 1323.24 66.3376 L1330.89 66.3376 L1330.89 72.576 L1323.24 72.576 Q1314.61 72.576 1311.33 69.3758 Q1308.04 66.1351 1308.04 57.6282 L1308.04 32.9987 L1302.58 32.9987 L1302.58 27.2059 L1308.04 27.2059 L1308.04 14.324 L1315.54 14.324 Z" fill="#000000" fill-rule="nonzero" fill-opacity="1" /><path clip-path="url(#clip840)" d="M1361.31 49.7694 Q1352.28 49.7694 1348.8 51.8354 Q1345.31 53.9013 1345.31 58.8839 Q1345.31 62.8538 1347.91 65.2034 Q1350.54 67.5124 1355.03 67.5124 Q1361.23 67.5124 1364.96 63.1374 Q1368.73 58.7219 1368.73 51.4303 L1368.73 49.7694 L1361.31 49.7694 M1376.18 46.6907 L1376.18 72.576 L1368.73 72.576 L1368.73 65.6895 Q1366.17 69.8214 1362.37 71.8063 Q1358.56 73.7508 1353.05 73.7508 Q1346.08 73.7508 1341.95 69.8619 Q1337.86 65.9325 1337.86 59.3701 Q1337.86 51.7138 1342.96 47.825 Q1348.11 43.9361 1358.28 43.9361 L1368.73 43.9361 L1368.73 43.2069 Q1368.73 38.0623 1365.32 35.2672 Q1361.96 32.4315 1355.84 32.4315 Q1351.96 32.4315 1348.27 33.3632 Q1344.58 34.295 1341.18 36.1584 L1341.18 29.2718 Q1345.27 27.692 1349.12 26.9223 Q1352.97 26.1121 1356.61 26.1121 Q1366.46 26.1121 1371.32 31.2163 Q1376.18 36.3204 1376.18 46.6907 Z" fill="#000000" fill-rule="nonzero" fill-opacity="1" /><path clip-path="url(#clip840)" d="M1391.53 27.2059 L1398.99 27.2059 L1398.99 72.576 L1391.53 72.576 L1391.53 27.2059 M1391.53 9.54393 L1398.99 9.54393 L1398.99 18.9825 L1391.53 18.9825 L1391.53 9.54393 Z" fill="#000000" fill-rule="nonzero" fill-opacity="1" /><path clip-path="url(#clip840)" d="M1414.58 9.54393 L1422.04 9.54393 L1422.04 72.576 L1414.58 72.576 L1414.58 9.54393 Z" fill="#000000" fill-rule="nonzero" fill-opacity="1" /><path clip-path="url(#clip840)" d="M1476.44 48.0275 L1476.44 51.6733 L1442.17 51.6733 Q1442.66 59.3701 1446.79 63.421 Q1450.96 67.4314 1458.37 67.4314 Q1462.67 67.4314 1466.68 66.3781 Q1470.73 65.3249 1474.7 63.2184 L1474.7 70.267 Q1470.69 71.9684 1466.48 72.8596 Q1462.26 73.7508 1457.93 73.7508 Q1447.07 73.7508 1440.71 67.4314 Q1434.39 61.1119 1434.39 50.3365 Q1434.39 39.1965 1440.39 32.6746 Q1446.42 26.1121 1456.63 26.1121 Q1465.79 26.1121 1471.09 32.0264 Q1476.44 37.9003 1476.44 48.0275 M1468.99 45.84 Q1468.91 39.7232 1465.54 36.0774 Q1462.22 32.4315 1456.71 32.4315 Q1450.47 32.4315 1446.71 35.9558 Q1442.98 39.4801 1442.41 45.8805 L1468.99 45.84 Z" fill="#000000" fill-rule="nonzero" fill-opacity="1" /><path clip-path="url(#clip840)" d="M1518.53 34.0924 L1518.53 9.54393 L1525.98 9.54393 L1525.98 72.576 L1518.53 72.576 L1518.53 65.7705 Q1516.18 69.8214 1512.57 71.8063 Q1509.01 73.7508 1503.99 73.7508 Q1495.76 73.7508 1490.58 67.1883 Q1485.43 60.6258 1485.43 49.9314 Q1485.43 39.2371 1490.58 32.6746 Q1495.76 26.1121 1503.99 26.1121 Q1509.01 26.1121 1512.57 28.0971 Q1516.18 30.0415 1518.53 34.0924 M1493.13 49.9314 Q1493.13 58.1548 1496.49 62.8538 Q1499.9 67.5124 1505.81 67.5124 Q1511.72 67.5124 1515.13 62.8538 Q1518.53 58.1548 1518.53 49.9314 Q1518.53 41.7081 1515.13 37.0496 Q1511.72 32.3505 1505.81 32.3505 Q1499.9 32.3505 1496.49 37.0496 Q1493.13 41.7081 1493.13 49.9314 Z" fill="#000000" fill-rule="nonzero" fill-opacity="1" /><path clip-path="url(#clip840)" d="M1585.61 9.62495 Q1580.18 18.942 1577.55 28.0566 Q1574.92 37.1711 1574.92 46.5287 Q1574.92 55.8863 1577.55 65.0818 Q1580.22 74.2369 1585.61 83.5134 L1579.13 83.5134 Q1573.05 73.9938 1570.02 64.7983 Q1567.02 55.6027 1567.02 46.5287 Q1567.02 37.4952 1570.02 28.3401 Q1573.01 19.1851 1579.13 9.62495 L1585.61 9.62495 Z" fill="#000000" fill-rule="nonzero" fill-opacity="1" /><path clip-path="url(#clip840)" d="M1636.65 14.0809 L1636.65 22.0612 Q1631.99 19.8332 1627.86 18.7395 Q1623.73 17.6457 1619.88 17.6457 Q1613.2 17.6457 1609.55 20.2383 Q1605.95 22.8309 1605.95 27.611 Q1605.95 31.6214 1608.34 33.6873 Q1610.77 35.7128 1617.49 36.9686 L1622.43 37.9813 Q1631.59 39.7232 1635.92 44.1387 Q1640.3 48.5136 1640.3 55.8863 Q1640.3 64.6767 1634.39 69.2137 Q1628.51 73.7508 1617.13 73.7508 Q1612.83 73.7508 1607.97 72.7785 Q1603.15 71.8063 1597.97 69.9024 L1597.97 61.4765 Q1602.95 64.2716 1607.73 65.6895 Q1612.51 67.1073 1617.13 67.1073 Q1624.14 67.1073 1627.94 64.3527 Q1631.75 61.598 1631.75 56.4939 Q1631.75 52.0379 1629 49.5264 Q1626.28 47.0148 1620.04 45.759 L1615.06 44.7868 Q1605.91 42.9639 1601.82 39.075 Q1597.72 35.1862 1597.72 28.2591 Q1597.72 20.2383 1603.36 15.6203 Q1609.03 11.0023 1618.95 11.0023 Q1623.2 11.0023 1627.62 11.7719 Q1632.04 12.5416 1636.65 14.0809 Z" fill="#000000" fill-rule="nonzero" fill-opacity="1" /><path clip-path="url(#clip840)" d="M1685.39 28.9478 L1685.39 35.9153 Q1682.23 34.1734 1679.03 33.3227 Q1675.87 32.4315 1672.63 32.4315 Q1665.37 32.4315 1661.36 37.0496 Q1657.35 41.6271 1657.35 49.9314 Q1657.35 58.2358 1661.36 62.8538 Q1665.37 67.4314 1672.63 67.4314 Q1675.87 67.4314 1679.03 66.5807 Q1682.23 65.6895 1685.39 63.9476 L1685.39 70.8341 Q1682.27 72.2924 1678.9 73.0216 Q1675.58 73.7508 1671.82 73.7508 Q1661.57 73.7508 1655.53 67.3098 Q1649.49 60.8689 1649.49 49.9314 Q1649.49 38.832 1655.57 32.472 Q1661.69 26.1121 1672.3 26.1121 Q1675.74 26.1121 1679.03 26.8413 Q1682.31 27.5299 1685.39 28.9478 Z" fill="#000000" fill-rule="nonzero" fill-opacity="1" /><path clip-path="url(#clip840)" d="M1698.35 27.2059 L1705.8 27.2059 L1705.8 72.576 L1698.35 72.576 L1698.35 27.2059 M1698.35 9.54393 L1705.8 9.54393 L1705.8 18.9825 L1698.35 18.9825 L1698.35 9.54393 Z" fill="#000000" fill-rule="nonzero" fill-opacity="1" /><path clip-path="url(#clip840)" d="M1759.11 45.1919 L1759.11 72.576 L1751.66 72.576 L1751.66 45.4349 Q1751.66 38.994 1749.15 35.7938 Q1746.64 32.5936 1741.61 32.5936 Q1735.58 32.5936 1732.09 36.4419 Q1728.61 40.2903 1728.61 46.9338 L1728.61 72.576 L1721.11 72.576 L1721.11 27.2059 L1728.61 27.2059 L1728.61 34.2544 Q1731.28 30.163 1734.89 28.1376 Q1738.53 26.1121 1743.27 26.1121 Q1751.09 26.1121 1755.1 30.9732 Q1759.11 35.7938 1759.11 45.1919 Z" fill="#000000" fill-rule="nonzero" fill-opacity="1" /><path clip-path="url(#clip840)" d="M1794.6 49.7694 Q1785.56 49.7694 1782.08 51.8354 Q1778.6 53.9013 1778.6 58.8839 Q1778.6 62.8538 1781.19 65.2034 Q1783.82 67.5124 1788.32 67.5124 Q1794.52 67.5124 1798.24 63.1374 Q1802.01 58.7219 1802.01 51.4303 L1802.01 49.7694 L1794.6 49.7694 M1809.47 46.6907 L1809.47 72.576 L1802.01 72.576 L1802.01 65.6895 Q1799.46 69.8214 1795.65 71.8063 Q1791.84 73.7508 1786.33 73.7508 Q1779.37 73.7508 1775.23 69.8619 Q1771.14 65.9325 1771.14 59.3701 Q1771.14 51.7138 1776.25 47.825 Q1781.39 43.9361 1791.56 43.9361 L1802.01 43.9361 L1802.01 43.2069 Q1802.01 38.0623 1798.61 35.2672 Q1795.25 32.4315 1789.13 32.4315 Q1785.24 32.4315 1781.55 33.3632 Q1777.87 34.295 1774.47 36.1584 L1774.47 29.2718 Q1778.56 27.692 1782.41 26.9223 Q1786.25 26.1121 1789.9 26.1121 Q1799.74 26.1121 1804.6 31.2163 Q1809.47 36.3204 1809.47 46.6907 Z" fill="#000000" fill-rule="nonzero" fill-opacity="1" /><path clip-path="url(#clip840)" d="M1851.11 34.1734 Q1849.85 33.4443 1848.35 33.1202 Q1846.9 32.7556 1845.11 32.7556 Q1838.79 32.7556 1835.39 36.8875 Q1832.03 40.9789 1832.03 48.6757 L1832.03 72.576 L1824.53 72.576 L1824.53 27.2059 L1832.03 27.2059 L1832.03 34.2544 Q1834.38 30.1225 1838.15 28.1376 Q1841.91 26.1121 1847.3 26.1121 Q1848.07 26.1121 1849 26.2337 Q1849.93 26.3147 1851.07 26.5172 L1851.11 34.1734 Z" fill="#000000" fill-rule="nonzero" fill-opacity="1" /><path clip-path="url(#clip840)" d="M1858.93 27.2059 L1866.38 27.2059 L1866.38 72.576 L1858.93 72.576 L1858.93 27.2059 M1858.93 9.54393 L1866.38 9.54393 L1866.38 18.9825 L1858.93 18.9825 L1858.93 9.54393 Z" fill="#000000" fill-rule="nonzero" fill-opacity="1" /><path clip-path="url(#clip840)" d="M1899.56 32.4315 Q1893.56 32.4315 1890.08 37.1306 Q1886.59 41.7891 1886.59 49.9314 Q1886.59 58.0738 1890.04 62.7728 Q1893.52 67.4314 1899.56 67.4314 Q1905.51 67.4314 1909 62.7323 Q1912.48 58.0333 1912.48 49.9314 Q1912.48 41.8701 1909 37.1711 Q1905.51 32.4315 1899.56 32.4315 M1899.56 26.1121 Q1909.28 26.1121 1914.83 32.4315 Q1920.38 38.7509 1920.38 49.9314 Q1920.38 61.0714 1914.83 67.4314 Q1909.28 73.7508 1899.56 73.7508 Q1889.79 73.7508 1884.24 67.4314 Q1878.74 61.0714 1878.74 49.9314 Q1878.74 38.7509 1884.24 32.4315 Q1889.79 26.1121 1899.56 26.1121 Z" fill="#000000" fill-rule="nonzero" fill-opacity="1" /><path clip-path="url(#clip840)" d="M1961.58 65.6895 L1974.94 65.6895 L1974.94 19.5497 L1960.4 22.4663 L1960.4 15.0127 L1974.86 12.096 L1983.05 12.096 L1983.05 65.6895 L1996.41 65.6895 L1996.41 72.576 L1961.58 72.576 L1961.58 65.6895 Z" fill="#000000" fill-rule="nonzero" fill-opacity="1" /><path clip-path="url(#clip840)" d="M2010.71 9.62495 L2017.2 9.62495 Q2023.27 19.1851 2026.27 28.3401 Q2029.31 37.4952 2029.31 46.5287 Q2029.31 55.6027 2026.27 64.7983 Q2023.27 73.9938 2017.2 83.5134 L2010.71 83.5134 Q2016.1 74.2369 2018.73 65.0818 Q2021.41 55.8863 2021.41 46.5287 Q2021.41 37.1711 2018.73 28.0566 Q2016.1 18.942 2010.71 9.62495 Z" fill="#000000" fill-rule="nonzero" fill-opacity="1" /><polyline clip-path="url(#clip842)" style="stroke:#009af9; stroke-linecap:round; stroke-linejoin:round; stroke-width:4; stroke-opacity:1; fill:none" points="265.903,1241.17 265.903,1220.75 353.993,1220.75 353.993,1046.03 442.083,1046.03 442.083,906.861 530.173,906.861 530.173,935.579 618.263,935.579 618.263,956.263 706.353,956.263 706.353,978.348 794.443,978.348 794.443,980.448 882.533,980.448 882.533,991.423 970.623,991.423 970.623,1047.78 1058.71,1047.78 1058.71,1074.57 1146.8,1074.57 1146.8,1117.02 1234.89,1117.02 1234.89,1155.54 1322.98,1155.54 1322.98,1170.99 1411.07,1170.99 1411.07,1215.62 1499.16,1215.62 1499.16,1240.88 1587.25,1240.88 1587.25,1261.49 1675.34,1261.49 1675.34,1295.47 1763.43,1295.47 1763.43,1327.48 1851.52,1327.48 1851.52,1355.27 1939.61,1355.27 1939.61,1386.4 2027.7,1386.4 2027.7,1386.4 2115.79,1386.4 2115.79,1386.4 2203.88,1386.4 2203.88,1386.4 2291.97,1386.4 "/>
<polyline clip-path="url(#clip842)" style="stroke:#e26f46; stroke-linecap:round; stroke-linejoin:round; stroke-width:4; stroke-opacity:1; fill:none" points="265.903,1241.17 265.903,1135.22 353.993,1135.22 353.993,904.768 442.083,904.768 442.083,710.815 530.173,710.815 530.173,757.763 618.263,757.763 618.263,782.903 706.353,782.903 706.353,813.312 794.443,813.312 794.443,819.26 882.533,819.26 882.533,833.455 970.623,833.455 970.623,906.187 1058.71,906.187 1058.71,941.4 1146.8,941.4 1146.8,995.101 1234.89,995.101 1234.89,1055.04 1322.98,1055.04 1322.98,1076.55 1411.07,1076.55 1411.07,1135.34 1499.16,1135.34 1499.16,1169 1587.25,1169 1587.25,1195.09 1675.34,1195.09 1675.34,1238.41 1763.43,1238.41 1763.43,1284.68 1851.52,1284.68 1851.52,1321.95 1939.61,1321.95 1939.61,1371.06 2027.7,1371.06 2027.7,1386.4 2115.79,1386.4 2115.79,1386.4 2203.88,1386.4 2203.88,1386.4 2291.97,1386.4 "/>
<polyline clip-path="url(#clip842)" style="stroke:#3da44d; stroke-linecap:round; stroke-linejoin:round; stroke-width:4; stroke-opacity:1; fill:none" points="265.903,1241.17 265.903,1016.67 353.993,1016.67 353.993,722.271 442.083,722.271 442.083,485.045 530.173,485.045 530.173,535.483 618.263,535.483 618.263,564.508 706.353,564.508 706.353,602.061 794.443,602.061 794.443,620.717 882.533,620.717 882.533,628.94 970.623,628.94 970.623,721.741 1058.71,721.741 1058.71,766.951 1146.8,766.951 1146.8,835.831 1234.89,835.831 1234.89,912.575 1322.98,912.575 1322.98,938.307 1411.07,938.307 1411.07,1014.77 1499.16,1014.77 1499.16,1057.46 1587.25,1057.46 1587.25,1090.37 1675.34,1090.37 1675.34,1146.07 1763.43,1146.07 1763.43,1205.21 1851.52,1205.21 1851.52,1252.79 1939.61,1252.79 1939.61,1315.63 2027.7,1315.63 2027.7,1357.93 2115.79,1357.93 2115.79,1386.4 2203.88,1386.4 2203.88,1386.4 2291.97,1386.4 "/>
<polyline clip-path="url(#clip842)" style="stroke:#c271d2; stroke-linecap:round; stroke-linejoin:round; stroke-width:4; stroke-opacity:1; fill:none" points="265.903,1299.26 265.903,910.275 353.993,910.275 353.993,569.833 442.083,569.833 442.083,269.329 530.173,269.329 530.173,356.51 618.263,356.51 618.263,374.857 706.353,374.857 706.353,423.749 794.443,423.749 794.443,433.346 882.533,433.346 882.533,456.75 970.623,456.75 970.623,563.514 1058.71,563.514 1058.71,616.513 1146.8,616.513 1146.8,696.061 1234.89,696.061 1234.89,786.14 1322.98,786.14 1322.98,817.97 1411.07,817.97 1411.07,908.058 1499.16,908.058 1499.16,956.63 1587.25,956.63 1587.25,1000.23 1675.34,1000.23 1675.34,1070.72 1763.43,1070.72 1763.43,1137.78 1851.52,1137.78 1851.52,1192.53 1939.61,1192.53 1939.61,1263.52 2027.7,1263.52 2027.7,1312.61 2115.79,1312.61 2115.79,1386.4 2203.88,1386.4 2203.88,1386.4 2291.97,1386.4 "/>
<polyline clip-path="url(#clip842)" style="stroke:#ac8d18; stroke-linecap:round; stroke-linejoin:round; stroke-width:4; stroke-opacity:1; fill:none" points="265.903,1183.09 265.903,849.82 353.993,849.82 353.993,469.858 442.083,469.858 442.083,160.256 530.173,160.256 530.173,243.44 618.263,243.44 618.263,291.9 706.353,291.9 706.353,331.684 794.443,331.684 794.443,341.625 882.533,341.625 882.533,371.268 970.623,371.268 970.623,477.339 1058.71,477.339 1058.71,532.194 1146.8,532.194 1146.8,616.182 1234.89,616.182 1234.89,721.124 1322.98,721.124 1322.98,745.368 1411.07,745.368 1411.07,835.531 1499.16,835.531 1499.16,888.581 1587.25,888.581 1587.25,934.16 1675.34,934.16 1675.34,1005.24 1763.43,1005.24 1763.43,1083.73 1851.52,1083.73 1851.52,1130.65 1939.61,1130.65 1939.61,1204.93 2027.7,1204.93 2027.7,1256.57 2115.79,1256.57 2115.79,1343.68 2203.88,1343.68 2203.88,1386.4 2291.97,1386.4 "/>
<path clip-path="url(#clip840)" d="M1803.21 477.836 L2281.17 477.836 L2281.17 166.796 L1803.21 166.796  Z" fill="#ffffff" fill-rule="evenodd" fill-opacity="1"/>
<polyline clip-path="url(#clip840)" style="stroke:#000000; stroke-linecap:round; stroke-linejoin:round; stroke-width:4; stroke-opacity:1; fill:none" points="1803.21,477.836 2281.17,477.836 2281.17,166.796 1803.21,166.796 1803.21,477.836 "/>
<polyline clip-path="url(#clip840)" style="stroke:#009af9; stroke-linecap:round; stroke-linejoin:round; stroke-width:4; stroke-opacity:1; fill:none" points="1827.07,218.636 1970.25,218.636 "/>
<path clip-path="url(#clip840)" d="M2014.62 210.985 L2014.62 214.967 Q2012.82 213.971 2010.99 213.485 Q2009.18 212.976 2007.33 212.976 Q2003.19 212.976 2000.89 215.615 Q1998.6 218.231 1998.6 222.976 Q1998.6 227.721 2000.89 230.36 Q2003.19 232.976 2007.33 232.976 Q2009.18 232.976 2010.99 232.49 Q2012.82 231.981 2014.62 230.985 L2014.62 234.92 Q2012.84 235.754 2010.92 236.17 Q2009.02 236.587 2006.87 236.587 Q2001.01 236.587 1997.56 232.906 Q1994.11 229.226 1994.11 222.976 Q1994.11 216.633 1997.58 212.999 Q2001.08 209.365 2007.14 209.365 Q2009.11 209.365 2010.99 209.782 Q2012.86 210.175 2014.62 210.985 Z" fill="#000000" fill-rule="nonzero" fill-opacity="1" /><path clip-path="url(#clip840)" d="M2021.59 225.684 L2021.59 209.99 L2025.85 209.99 L2025.85 225.522 Q2025.85 229.203 2027.28 231.055 Q2028.72 232.883 2031.59 232.883 Q2035.04 232.883 2037.03 230.684 Q2039.04 228.485 2039.04 224.689 L2039.04 209.99 L2043.3 209.99 L2043.3 235.916 L2039.04 235.916 L2039.04 231.934 Q2037.49 234.295 2035.43 235.453 Q2033.39 236.587 2030.69 236.587 Q2026.22 236.587 2023.9 233.809 Q2021.59 231.031 2021.59 225.684 M2032.31 209.365 L2032.31 209.365 Z" fill="#000000" fill-rule="nonzero" fill-opacity="1" /><path clip-path="url(#clip840)" d="M2068.6 210.754 L2068.6 214.782 Q2066.8 213.856 2064.85 213.393 Q2062.91 212.93 2060.83 212.93 Q2057.65 212.93 2056.06 213.902 Q2054.48 214.874 2054.48 216.819 Q2054.48 218.3 2055.62 219.157 Q2056.75 219.99 2060.18 220.754 L2061.64 221.078 Q2066.17 222.05 2068.07 223.832 Q2069.99 225.592 2069.99 228.763 Q2069.99 232.374 2067.12 234.481 Q2064.27 236.587 2059.27 236.587 Q2057.19 236.587 2054.92 236.17 Q2052.68 235.777 2050.18 234.967 L2050.18 230.569 Q2052.54 231.795 2054.83 232.42 Q2057.12 233.022 2059.37 233.022 Q2062.38 233.022 2064 232.004 Q2065.62 230.962 2065.62 229.087 Q2065.62 227.351 2064.44 226.425 Q2063.28 225.499 2059.32 224.643 L2057.84 224.295 Q2053.88 223.462 2052.12 221.749 Q2050.36 220.013 2050.36 217.004 Q2050.36 213.346 2052.95 211.356 Q2055.55 209.365 2060.32 209.365 Q2062.68 209.365 2064.76 209.712 Q2066.84 210.059 2068.6 210.754 Z" fill="#000000" fill-rule="nonzero" fill-opacity="1" /><path clip-path="url(#clip840)" d="M2080.99 202.629 L2080.99 209.99 L2089.76 209.99 L2089.76 213.3 L2080.99 213.3 L2080.99 227.374 Q2080.99 230.545 2081.84 231.448 Q2082.72 232.351 2085.39 232.351 L2089.76 232.351 L2089.76 235.916 L2085.39 235.916 Q2080.45 235.916 2078.58 234.087 Q2076.7 232.235 2076.7 227.374 L2076.7 213.3 L2073.58 213.3 L2073.58 209.99 L2076.7 209.99 L2076.7 202.629 L2080.99 202.629 Z" fill="#000000" fill-rule="nonzero" fill-opacity="1" /><path clip-path="url(#clip840)" d="M2105.41 212.976 Q2101.98 212.976 2099.99 215.661 Q2098 218.323 2098 222.976 Q2098 227.629 2099.97 230.314 Q2101.96 232.976 2105.41 232.976 Q2108.81 232.976 2110.8 230.291 Q2112.79 227.606 2112.79 222.976 Q2112.79 218.37 2110.8 215.684 Q2108.81 212.976 2105.41 212.976 M2105.41 209.365 Q2110.96 209.365 2114.13 212.976 Q2117.31 216.587 2117.31 222.976 Q2117.31 229.342 2114.13 232.976 Q2110.96 236.587 2105.41 236.587 Q2099.83 236.587 2096.66 232.976 Q2093.51 229.342 2093.51 222.976 Q2093.51 216.587 2096.66 212.976 Q2099.83 209.365 2105.41 209.365 Z" fill="#000000" fill-rule="nonzero" fill-opacity="1" /><path clip-path="url(#clip840)" d="M2144.55 214.967 Q2146.15 212.096 2148.37 210.731 Q2150.59 209.365 2153.6 209.365 Q2157.65 209.365 2159.85 212.212 Q2162.05 215.036 2162.05 220.268 L2162.05 235.916 L2157.77 235.916 L2157.77 220.407 Q2157.77 216.68 2156.45 214.874 Q2155.13 213.069 2152.42 213.069 Q2149.11 213.069 2147.19 215.268 Q2145.27 217.467 2145.27 221.263 L2145.27 235.916 L2140.99 235.916 L2140.99 220.407 Q2140.99 216.657 2139.67 214.874 Q2138.35 213.069 2135.59 213.069 Q2132.33 213.069 2130.41 215.291 Q2128.49 217.49 2128.49 221.263 L2128.49 235.916 L2124.2 235.916 L2124.2 209.99 L2128.49 209.99 L2128.49 214.018 Q2129.95 211.633 2131.98 210.499 Q2134.02 209.365 2136.82 209.365 Q2139.64 209.365 2141.61 210.8 Q2143.6 212.235 2144.55 214.967 Z" fill="#000000" fill-rule="nonzero" fill-opacity="1" /><path clip-path="url(#clip840)" d="M2192.72 221.888 L2192.72 223.971 L2173.14 223.971 Q2173.42 228.369 2175.78 230.684 Q2178.16 232.976 2182.4 232.976 Q2184.85 232.976 2187.14 232.374 Q2189.46 231.772 2191.73 230.569 L2191.73 234.596 Q2189.44 235.568 2187.03 236.078 Q2184.62 236.587 2182.14 236.587 Q2175.94 236.587 2172.31 232.976 Q2168.69 229.365 2168.69 223.207 Q2168.69 216.842 2172.12 213.115 Q2175.57 209.365 2181.4 209.365 Q2186.63 209.365 2189.67 212.745 Q2192.72 216.101 2192.72 221.888 M2188.46 220.638 Q2188.42 217.143 2186.5 215.059 Q2184.6 212.976 2181.45 212.976 Q2177.88 212.976 2175.73 214.99 Q2173.6 217.004 2173.28 220.661 L2188.46 220.638 Z" fill="#000000" fill-rule="nonzero" fill-opacity="1" /><path clip-path="url(#clip840)" d="M2214.74 213.971 Q2214.02 213.555 2213.16 213.37 Q2212.33 213.161 2211.31 213.161 Q2207.7 213.161 2205.75 215.522 Q2203.83 217.86 2203.83 222.258 L2203.83 235.916 L2199.55 235.916 L2199.55 209.99 L2203.83 209.99 L2203.83 214.018 Q2205.18 211.657 2207.33 210.522 Q2209.48 209.365 2212.56 209.365 Q2213 209.365 2213.53 209.434 Q2214.06 209.481 2214.71 209.596 L2214.74 213.971 Z" fill="#000000" fill-rule="nonzero" fill-opacity="1" /><path clip-path="url(#clip840)" d="M2235.69 231.981 L2243.32 231.981 L2243.32 205.615 L2235.01 207.282 L2235.01 203.022 L2243.28 201.356 L2247.95 201.356 L2247.95 231.981 L2255.59 231.981 L2255.59 235.916 L2235.69 235.916 L2235.69 231.981 Z" fill="#000000" fill-rule="nonzero" fill-opacity="1" /><polyline clip-path="url(#clip840)" style="stroke:#e26f46; stroke-linecap:round; stroke-linejoin:round; stroke-width:4; stroke-opacity:1; fill:none" points="1827.07,270.476 1970.25,270.476 "/>
<path clip-path="url(#clip840)" d="M2014.62 262.825 L2014.62 266.807 Q2012.82 265.811 2010.99 265.325 Q2009.18 264.816 2007.33 264.816 Q2003.19 264.816 2000.89 267.455 Q1998.6 270.071 1998.6 274.816 Q1998.6 279.561 2000.89 282.2 Q2003.19 284.816 2007.33 284.816 Q2009.18 284.816 2010.99 284.33 Q2012.82 283.821 2014.62 282.825 L2014.62 286.76 Q2012.84 287.594 2010.92 288.01 Q2009.02 288.427 2006.87 288.427 Q2001.01 288.427 1997.56 284.746 Q1994.11 281.066 1994.11 274.816 Q1994.11 268.473 1997.58 264.839 Q2001.08 261.205 2007.14 261.205 Q2009.11 261.205 2010.99 261.622 Q2012.86 262.015 2014.62 262.825 Z" fill="#000000" fill-rule="nonzero" fill-opacity="1" /><path clip-path="url(#clip840)" d="M2021.59 277.524 L2021.59 261.83 L2025.85 261.83 L2025.85 277.362 Q2025.85 281.043 2027.28 282.895 Q2028.72 284.723 2031.59 284.723 Q2035.04 284.723 2037.03 282.524 Q2039.04 280.325 2039.04 276.529 L2039.04 261.83 L2043.3 261.83 L2043.3 287.756 L2039.04 287.756 L2039.04 283.774 Q2037.49 286.135 2035.43 287.293 Q2033.39 288.427 2030.69 288.427 Q2026.22 288.427 2023.9 285.649 Q2021.59 282.871 2021.59 277.524 M2032.31 261.205 L2032.31 261.205 Z" fill="#000000" fill-rule="nonzero" fill-opacity="1" /><path clip-path="url(#clip840)" d="M2068.6 262.594 L2068.6 266.622 Q2066.8 265.696 2064.85 265.233 Q2062.91 264.77 2060.83 264.77 Q2057.65 264.77 2056.06 265.742 Q2054.48 266.714 2054.48 268.659 Q2054.48 270.14 2055.62 270.997 Q2056.75 271.83 2060.18 272.594 L2061.64 272.918 Q2066.17 273.89 2068.07 275.672 Q2069.99 277.432 2069.99 280.603 Q2069.99 284.214 2067.12 286.321 Q2064.27 288.427 2059.27 288.427 Q2057.19 288.427 2054.92 288.01 Q2052.68 287.617 2050.18 286.807 L2050.18 282.409 Q2052.54 283.635 2054.83 284.26 Q2057.12 284.862 2059.37 284.862 Q2062.38 284.862 2064 283.844 Q2065.62 282.802 2065.62 280.927 Q2065.62 279.191 2064.44 278.265 Q2063.28 277.339 2059.32 276.483 L2057.84 276.135 Q2053.88 275.302 2052.12 273.589 Q2050.36 271.853 2050.36 268.844 Q2050.36 265.186 2052.95 263.196 Q2055.55 261.205 2060.32 261.205 Q2062.68 261.205 2064.76 261.552 Q2066.84 261.899 2068.6 262.594 Z" fill="#000000" fill-rule="nonzero" fill-opacity="1" /><path clip-path="url(#clip840)" d="M2080.99 254.469 L2080.99 261.83 L2089.76 261.83 L2089.76 265.14 L2080.99 265.14 L2080.99 279.214 Q2080.99 282.385 2081.84 283.288 Q2082.72 284.191 2085.39 284.191 L2089.76 284.191 L2089.76 287.756 L2085.39 287.756 Q2080.45 287.756 2078.58 285.927 Q2076.7 284.075 2076.7 279.214 L2076.7 265.14 L2073.58 265.14 L2073.58 261.83 L2076.7 261.83 L2076.7 254.469 L2080.99 254.469 Z" fill="#000000" fill-rule="nonzero" fill-opacity="1" /><path clip-path="url(#clip840)" d="M2105.41 264.816 Q2101.98 264.816 2099.99 267.501 Q2098 270.163 2098 274.816 Q2098 279.469 2099.97 282.154 Q2101.96 284.816 2105.41 284.816 Q2108.81 284.816 2110.8 282.131 Q2112.79 279.446 2112.79 274.816 Q2112.79 270.21 2110.8 267.524 Q2108.81 264.816 2105.41 264.816 M2105.41 261.205 Q2110.96 261.205 2114.13 264.816 Q2117.31 268.427 2117.31 274.816 Q2117.31 281.182 2114.13 284.816 Q2110.96 288.427 2105.41 288.427 Q2099.83 288.427 2096.66 284.816 Q2093.51 281.182 2093.51 274.816 Q2093.51 268.427 2096.66 264.816 Q2099.83 261.205 2105.41 261.205 Z" fill="#000000" fill-rule="nonzero" fill-opacity="1" /><path clip-path="url(#clip840)" d="M2144.55 266.807 Q2146.15 263.936 2148.37 262.571 Q2150.59 261.205 2153.6 261.205 Q2157.65 261.205 2159.85 264.052 Q2162.05 266.876 2162.05 272.108 L2162.05 287.756 L2157.77 287.756 L2157.77 272.247 Q2157.77 268.52 2156.45 266.714 Q2155.13 264.909 2152.42 264.909 Q2149.11 264.909 2147.19 267.108 Q2145.27 269.307 2145.27 273.103 L2145.27 287.756 L2140.99 287.756 L2140.99 272.247 Q2140.99 268.497 2139.67 266.714 Q2138.35 264.909 2135.59 264.909 Q2132.33 264.909 2130.41 267.131 Q2128.49 269.33 2128.49 273.103 L2128.49 287.756 L2124.2 287.756 L2124.2 261.83 L2128.49 261.83 L2128.49 265.858 Q2129.95 263.473 2131.98 262.339 Q2134.02 261.205 2136.82 261.205 Q2139.64 261.205 2141.61 262.64 Q2143.6 264.075 2144.55 266.807 Z" fill="#000000" fill-rule="nonzero" fill-opacity="1" /><path clip-path="url(#clip840)" d="M2192.72 273.728 L2192.72 275.811 L2173.14 275.811 Q2173.42 280.209 2175.78 282.524 Q2178.16 284.816 2182.4 284.816 Q2184.85 284.816 2187.14 284.214 Q2189.46 283.612 2191.73 282.409 L2191.73 286.436 Q2189.44 287.408 2187.03 287.918 Q2184.62 288.427 2182.14 288.427 Q2175.94 288.427 2172.31 284.816 Q2168.69 281.205 2168.69 275.047 Q2168.69 268.682 2172.12 264.955 Q2175.57 261.205 2181.4 261.205 Q2186.63 261.205 2189.67 264.585 Q2192.72 267.941 2192.72 273.728 M2188.46 272.478 Q2188.42 268.983 2186.5 266.899 Q2184.6 264.816 2181.45 264.816 Q2177.88 264.816 2175.73 266.83 Q2173.6 268.844 2173.28 272.501 L2188.46 272.478 Z" fill="#000000" fill-rule="nonzero" fill-opacity="1" /><path clip-path="url(#clip840)" d="M2214.74 265.811 Q2214.02 265.395 2213.16 265.21 Q2212.33 265.001 2211.31 265.001 Q2207.7 265.001 2205.75 267.362 Q2203.83 269.7 2203.83 274.098 L2203.83 287.756 L2199.55 287.756 L2199.55 261.83 L2203.83 261.83 L2203.83 265.858 Q2205.18 263.497 2207.33 262.362 Q2209.48 261.205 2212.56 261.205 Q2213 261.205 2213.53 261.274 Q2214.06 261.321 2214.71 261.436 L2214.74 265.811 Z" fill="#000000" fill-rule="nonzero" fill-opacity="1" /><path clip-path="url(#clip840)" d="M2238.9 283.821 L2255.22 283.821 L2255.22 287.756 L2233.28 287.756 L2233.28 283.821 Q2235.94 281.066 2240.52 276.436 Q2245.13 271.784 2246.31 270.441 Q2248.56 267.918 2249.44 266.182 Q2250.34 264.423 2250.34 262.733 Q2250.34 259.978 2248.39 258.242 Q2246.47 256.506 2243.37 256.506 Q2241.17 256.506 2238.72 257.27 Q2236.29 258.034 2233.51 259.585 L2233.51 254.862 Q2236.33 253.728 2238.79 253.149 Q2241.24 252.571 2243.28 252.571 Q2248.65 252.571 2251.84 255.256 Q2255.04 257.941 2255.04 262.432 Q2255.04 264.561 2254.23 266.483 Q2253.44 268.381 2251.33 270.973 Q2250.75 271.645 2247.65 274.862 Q2244.55 278.057 2238.9 283.821 Z" fill="#000000" fill-rule="nonzero" fill-opacity="1" /><polyline clip-path="url(#clip840)" style="stroke:#3da44d; stroke-linecap:round; stroke-linejoin:round; stroke-width:4; stroke-opacity:1; fill:none" points="1827.07,322.316 1970.25,322.316 "/>
<path clip-path="url(#clip840)" d="M2014.62 314.665 L2014.62 318.647 Q2012.82 317.651 2010.99 317.165 Q2009.18 316.656 2007.33 316.656 Q2003.19 316.656 2000.89 319.295 Q1998.6 321.911 1998.6 326.656 Q1998.6 331.401 2000.89 334.04 Q2003.19 336.656 2007.33 336.656 Q2009.18 336.656 2010.99 336.17 Q2012.82 335.661 2014.62 334.665 L2014.62 338.6 Q2012.84 339.434 2010.92 339.85 Q2009.02 340.267 2006.87 340.267 Q2001.01 340.267 1997.56 336.586 Q1994.11 332.906 1994.11 326.656 Q1994.11 320.313 1997.58 316.679 Q2001.08 313.045 2007.14 313.045 Q2009.11 313.045 2010.99 313.462 Q2012.86 313.855 2014.62 314.665 Z" fill="#000000" fill-rule="nonzero" fill-opacity="1" /><path clip-path="url(#clip840)" d="M2021.59 329.364 L2021.59 313.67 L2025.85 313.67 L2025.85 329.202 Q2025.85 332.883 2027.28 334.735 Q2028.72 336.563 2031.59 336.563 Q2035.04 336.563 2037.03 334.364 Q2039.04 332.165 2039.04 328.369 L2039.04 313.67 L2043.3 313.67 L2043.3 339.596 L2039.04 339.596 L2039.04 335.614 Q2037.49 337.975 2035.43 339.133 Q2033.39 340.267 2030.69 340.267 Q2026.22 340.267 2023.9 337.489 Q2021.59 334.711 2021.59 329.364 M2032.31 313.045 L2032.31 313.045 Z" fill="#000000" fill-rule="nonzero" fill-opacity="1" /><path clip-path="url(#clip840)" d="M2068.6 314.434 L2068.6 318.462 Q2066.8 317.536 2064.85 317.073 Q2062.91 316.61 2060.83 316.61 Q2057.65 316.61 2056.06 317.582 Q2054.48 318.554 2054.48 320.499 Q2054.48 321.98 2055.62 322.837 Q2056.75 323.67 2060.18 324.434 L2061.64 324.758 Q2066.17 325.73 2068.07 327.512 Q2069.99 329.272 2069.99 332.443 Q2069.99 336.054 2067.12 338.161 Q2064.27 340.267 2059.27 340.267 Q2057.19 340.267 2054.92 339.85 Q2052.68 339.457 2050.18 338.647 L2050.18 334.249 Q2052.54 335.475 2054.83 336.1 Q2057.12 336.702 2059.37 336.702 Q2062.38 336.702 2064 335.684 Q2065.62 334.642 2065.62 332.767 Q2065.62 331.031 2064.44 330.105 Q2063.28 329.179 2059.32 328.323 L2057.84 327.975 Q2053.88 327.142 2052.12 325.429 Q2050.36 323.693 2050.36 320.684 Q2050.36 317.026 2052.95 315.036 Q2055.55 313.045 2060.32 313.045 Q2062.68 313.045 2064.76 313.392 Q2066.84 313.739 2068.6 314.434 Z" fill="#000000" fill-rule="nonzero" fill-opacity="1" /><path clip-path="url(#clip840)" d="M2080.99 306.309 L2080.99 313.67 L2089.76 313.67 L2089.76 316.98 L2080.99 316.98 L2080.99 331.054 Q2080.99 334.225 2081.84 335.128 Q2082.72 336.031 2085.39 336.031 L2089.76 336.031 L2089.76 339.596 L2085.39 339.596 Q2080.45 339.596 2078.58 337.767 Q2076.7 335.915 2076.7 331.054 L2076.7 316.98 L2073.58 316.98 L2073.58 313.67 L2076.7 313.67 L2076.7 306.309 L2080.99 306.309 Z" fill="#000000" fill-rule="nonzero" fill-opacity="1" /><path clip-path="url(#clip840)" d="M2105.41 316.656 Q2101.98 316.656 2099.99 319.341 Q2098 322.003 2098 326.656 Q2098 331.309 2099.97 333.994 Q2101.96 336.656 2105.41 336.656 Q2108.81 336.656 2110.8 333.971 Q2112.79 331.286 2112.79 326.656 Q2112.79 322.05 2110.8 319.364 Q2108.81 316.656 2105.41 316.656 M2105.41 313.045 Q2110.96 313.045 2114.13 316.656 Q2117.31 320.267 2117.31 326.656 Q2117.31 333.022 2114.13 336.656 Q2110.96 340.267 2105.41 340.267 Q2099.83 340.267 2096.66 336.656 Q2093.51 333.022 2093.51 326.656 Q2093.51 320.267 2096.66 316.656 Q2099.83 313.045 2105.41 313.045 Z" fill="#000000" fill-rule="nonzero" fill-opacity="1" /><path clip-path="url(#clip840)" d="M2144.55 318.647 Q2146.15 315.776 2148.37 314.411 Q2150.59 313.045 2153.6 313.045 Q2157.65 313.045 2159.85 315.892 Q2162.05 318.716 2162.05 323.948 L2162.05 339.596 L2157.77 339.596 L2157.77 324.087 Q2157.77 320.36 2156.45 318.554 Q2155.13 316.749 2152.42 316.749 Q2149.11 316.749 2147.19 318.948 Q2145.27 321.147 2145.27 324.943 L2145.27 339.596 L2140.99 339.596 L2140.99 324.087 Q2140.99 320.337 2139.67 318.554 Q2138.35 316.749 2135.59 316.749 Q2132.33 316.749 2130.41 318.971 Q2128.49 321.17 2128.49 324.943 L2128.49 339.596 L2124.2 339.596 L2124.2 313.67 L2128.49 313.67 L2128.49 317.698 Q2129.95 315.313 2131.98 314.179 Q2134.02 313.045 2136.82 313.045 Q2139.64 313.045 2141.61 314.48 Q2143.6 315.915 2144.55 318.647 Z" fill="#000000" fill-rule="nonzero" fill-opacity="1" /><path clip-path="url(#clip840)" d="M2192.72 325.568 L2192.72 327.651 L2173.14 327.651 Q2173.42 332.049 2175.78 334.364 Q2178.16 336.656 2182.4 336.656 Q2184.85 336.656 2187.14 336.054 Q2189.46 335.452 2191.73 334.249 L2191.73 338.276 Q2189.44 339.248 2187.03 339.758 Q2184.62 340.267 2182.14 340.267 Q2175.94 340.267 2172.31 336.656 Q2168.69 333.045 2168.69 326.887 Q2168.69 320.522 2172.12 316.795 Q2175.57 313.045 2181.4 313.045 Q2186.63 313.045 2189.67 316.425 Q2192.72 319.781 2192.72 325.568 M2188.46 324.318 Q2188.42 320.823 2186.5 318.739 Q2184.6 316.656 2181.45 316.656 Q2177.88 316.656 2175.73 318.67 Q2173.6 320.684 2173.28 324.341 L2188.46 324.318 Z" fill="#000000" fill-rule="nonzero" fill-opacity="1" /><path clip-path="url(#clip840)" d="M2214.74 317.651 Q2214.02 317.235 2213.16 317.05 Q2212.33 316.841 2211.31 316.841 Q2207.7 316.841 2205.75 319.202 Q2203.83 321.54 2203.83 325.938 L2203.83 339.596 L2199.55 339.596 L2199.55 313.67 L2203.83 313.67 L2203.83 317.698 Q2205.18 315.337 2207.33 314.202 Q2209.48 313.045 2212.56 313.045 Q2213 313.045 2213.53 313.114 Q2214.06 313.161 2214.71 313.276 L2214.74 317.651 Z" fill="#000000" fill-rule="nonzero" fill-opacity="1" /><path clip-path="url(#clip840)" d="M2249.04 320.962 Q2252.4 321.679 2254.27 323.948 Q2256.17 326.216 2256.17 329.549 Q2256.17 334.665 2252.65 337.466 Q2249.13 340.267 2242.65 340.267 Q2240.48 340.267 2238.16 339.827 Q2235.87 339.411 2233.42 338.554 L2233.42 334.04 Q2235.36 335.174 2237.68 335.753 Q2239.99 336.332 2242.51 336.332 Q2246.91 336.332 2249.2 334.596 Q2251.52 332.86 2251.52 329.549 Q2251.52 326.494 2249.37 324.781 Q2247.24 323.045 2243.42 323.045 L2239.39 323.045 L2239.39 319.202 L2243.6 319.202 Q2247.05 319.202 2248.88 317.837 Q2250.71 316.448 2250.71 313.855 Q2250.71 311.193 2248.81 309.781 Q2246.94 308.346 2243.42 308.346 Q2241.5 308.346 2239.3 308.763 Q2237.1 309.179 2234.46 310.059 L2234.46 305.892 Q2237.12 305.151 2239.44 304.781 Q2241.77 304.411 2243.83 304.411 Q2249.16 304.411 2252.26 306.841 Q2255.36 309.249 2255.36 313.369 Q2255.36 316.239 2253.72 318.23 Q2252.07 320.198 2249.04 320.962 Z" fill="#000000" fill-rule="nonzero" fill-opacity="1" /><polyline clip-path="url(#clip840)" style="stroke:#c271d2; stroke-linecap:round; stroke-linejoin:round; stroke-width:4; stroke-opacity:1; fill:none" points="1827.07,374.156 1970.25,374.156 "/>
<path clip-path="url(#clip840)" d="M2014.62 366.505 L2014.62 370.487 Q2012.82 369.491 2010.99 369.005 Q2009.18 368.496 2007.33 368.496 Q2003.19 368.496 2000.89 371.135 Q1998.6 373.751 1998.6 378.496 Q1998.6 383.241 2000.89 385.88 Q2003.19 388.496 2007.33 388.496 Q2009.18 388.496 2010.99 388.01 Q2012.82 387.501 2014.62 386.505 L2014.62 390.44 Q2012.84 391.274 2010.92 391.69 Q2009.02 392.107 2006.87 392.107 Q2001.01 392.107 1997.56 388.426 Q1994.11 384.746 1994.11 378.496 Q1994.11 372.153 1997.58 368.519 Q2001.08 364.885 2007.14 364.885 Q2009.11 364.885 2010.99 365.302 Q2012.86 365.695 2014.62 366.505 Z" fill="#000000" fill-rule="nonzero" fill-opacity="1" /><path clip-path="url(#clip840)" d="M2021.59 381.204 L2021.59 365.51 L2025.85 365.51 L2025.85 381.042 Q2025.85 384.723 2027.28 386.575 Q2028.72 388.403 2031.59 388.403 Q2035.04 388.403 2037.03 386.204 Q2039.04 384.005 2039.04 380.209 L2039.04 365.51 L2043.3 365.51 L2043.3 391.436 L2039.04 391.436 L2039.04 387.454 Q2037.49 389.815 2035.43 390.973 Q2033.39 392.107 2030.69 392.107 Q2026.22 392.107 2023.9 389.329 Q2021.59 386.551 2021.59 381.204 M2032.31 364.885 L2032.31 364.885 Z" fill="#000000" fill-rule="nonzero" fill-opacity="1" /><path clip-path="url(#clip840)" d="M2068.6 366.274 L2068.6 370.302 Q2066.8 369.376 2064.85 368.913 Q2062.91 368.45 2060.83 368.45 Q2057.65 368.45 2056.06 369.422 Q2054.48 370.394 2054.48 372.339 Q2054.48 373.82 2055.62 374.677 Q2056.75 375.51 2060.18 376.274 L2061.64 376.598 Q2066.17 377.57 2068.07 379.352 Q2069.99 381.112 2069.99 384.283 Q2069.99 387.894 2067.12 390.001 Q2064.27 392.107 2059.27 392.107 Q2057.19 392.107 2054.92 391.69 Q2052.68 391.297 2050.18 390.487 L2050.18 386.089 Q2052.54 387.315 2054.83 387.94 Q2057.12 388.542 2059.37 388.542 Q2062.38 388.542 2064 387.524 Q2065.62 386.482 2065.62 384.607 Q2065.62 382.871 2064.44 381.945 Q2063.28 381.019 2059.32 380.163 L2057.84 379.815 Q2053.88 378.982 2052.12 377.269 Q2050.36 375.533 2050.36 372.524 Q2050.36 368.866 2052.95 366.876 Q2055.55 364.885 2060.32 364.885 Q2062.68 364.885 2064.76 365.232 Q2066.84 365.579 2068.6 366.274 Z" fill="#000000" fill-rule="nonzero" fill-opacity="1" /><path clip-path="url(#clip840)" d="M2080.99 358.149 L2080.99 365.51 L2089.76 365.51 L2089.76 368.82 L2080.99 368.82 L2080.99 382.894 Q2080.99 386.065 2081.84 386.968 Q2082.72 387.871 2085.39 387.871 L2089.76 387.871 L2089.76 391.436 L2085.39 391.436 Q2080.45 391.436 2078.58 389.607 Q2076.7 387.755 2076.7 382.894 L2076.7 368.82 L2073.58 368.82 L2073.58 365.51 L2076.7 365.51 L2076.7 358.149 L2080.99 358.149 Z" fill="#000000" fill-rule="nonzero" fill-opacity="1" /><path clip-path="url(#clip840)" d="M2105.41 368.496 Q2101.98 368.496 2099.99 371.181 Q2098 373.843 2098 378.496 Q2098 383.149 2099.97 385.834 Q2101.96 388.496 2105.41 388.496 Q2108.81 388.496 2110.8 385.811 Q2112.79 383.126 2112.79 378.496 Q2112.79 373.89 2110.8 371.204 Q2108.81 368.496 2105.41 368.496 M2105.41 364.885 Q2110.96 364.885 2114.13 368.496 Q2117.31 372.107 2117.31 378.496 Q2117.31 384.862 2114.13 388.496 Q2110.96 392.107 2105.41 392.107 Q2099.83 392.107 2096.66 388.496 Q2093.51 384.862 2093.51 378.496 Q2093.51 372.107 2096.66 368.496 Q2099.83 364.885 2105.41 364.885 Z" fill="#000000" fill-rule="nonzero" fill-opacity="1" /><path clip-path="url(#clip840)" d="M2144.55 370.487 Q2146.15 367.616 2148.37 366.251 Q2150.59 364.885 2153.6 364.885 Q2157.65 364.885 2159.85 367.732 Q2162.05 370.556 2162.05 375.788 L2162.05 391.436 L2157.77 391.436 L2157.77 375.927 Q2157.77 372.2 2156.45 370.394 Q2155.13 368.589 2152.42 368.589 Q2149.11 368.589 2147.19 370.788 Q2145.27 372.987 2145.27 376.783 L2145.27 391.436 L2140.99 391.436 L2140.99 375.927 Q2140.99 372.177 2139.67 370.394 Q2138.35 368.589 2135.59 368.589 Q2132.33 368.589 2130.41 370.811 Q2128.49 373.01 2128.49 376.783 L2128.49 391.436 L2124.2 391.436 L2124.2 365.51 L2128.49 365.51 L2128.49 369.538 Q2129.95 367.153 2131.98 366.019 Q2134.02 364.885 2136.82 364.885 Q2139.64 364.885 2141.61 366.32 Q2143.6 367.755 2144.55 370.487 Z" fill="#000000" fill-rule="nonzero" fill-opacity="1" /><path clip-path="url(#clip840)" d="M2192.72 377.408 L2192.72 379.491 L2173.14 379.491 Q2173.42 383.889 2175.78 386.204 Q2178.16 388.496 2182.4 388.496 Q2184.85 388.496 2187.14 387.894 Q2189.46 387.292 2191.73 386.089 L2191.73 390.116 Q2189.44 391.088 2187.03 391.598 Q2184.62 392.107 2182.14 392.107 Q2175.94 392.107 2172.31 388.496 Q2168.69 384.885 2168.69 378.727 Q2168.69 372.362 2172.12 368.635 Q2175.57 364.885 2181.4 364.885 Q2186.63 364.885 2189.67 368.265 Q2192.72 371.621 2192.72 377.408 M2188.46 376.158 Q2188.42 372.663 2186.5 370.579 Q2184.6 368.496 2181.45 368.496 Q2177.88 368.496 2175.73 370.51 Q2173.6 372.524 2173.28 376.181 L2188.46 376.158 Z" fill="#000000" fill-rule="nonzero" fill-opacity="1" /><path clip-path="url(#clip840)" d="M2214.74 369.491 Q2214.02 369.075 2213.16 368.89 Q2212.33 368.681 2211.31 368.681 Q2207.7 368.681 2205.75 371.042 Q2203.83 373.38 2203.83 377.778 L2203.83 391.436 L2199.55 391.436 L2199.55 365.51 L2203.83 365.51 L2203.83 369.538 Q2205.18 367.177 2207.33 366.042 Q2209.48 364.885 2212.56 364.885 Q2213 364.885 2213.53 364.954 Q2214.06 365.001 2214.71 365.116 L2214.74 369.491 Z" fill="#000000" fill-rule="nonzero" fill-opacity="1" /><path clip-path="url(#clip840)" d="M2247.72 360.95 L2235.92 379.399 L2247.72 379.399 L2247.72 360.95 M2246.5 356.876 L2252.37 356.876 L2252.37 379.399 L2257.31 379.399 L2257.31 383.288 L2252.37 383.288 L2252.37 391.436 L2247.72 391.436 L2247.72 383.288 L2232.12 383.288 L2232.12 378.774 L2246.5 356.876 Z" fill="#000000" fill-rule="nonzero" fill-opacity="1" /><polyline clip-path="url(#clip840)" style="stroke:#ac8d18; stroke-linecap:round; stroke-linejoin:round; stroke-width:4; stroke-opacity:1; fill:none" points="1827.07,425.996 1970.25,425.996 "/>
<path clip-path="url(#clip840)" d="M2014.62 418.345 L2014.62 422.327 Q2012.82 421.331 2010.99 420.845 Q2009.18 420.336 2007.33 420.336 Q2003.19 420.336 2000.89 422.975 Q1998.6 425.591 1998.6 430.336 Q1998.6 435.081 2000.89 437.72 Q2003.19 440.336 2007.33 440.336 Q2009.18 440.336 2010.99 439.85 Q2012.82 439.341 2014.62 438.345 L2014.62 442.28 Q2012.84 443.114 2010.92 443.53 Q2009.02 443.947 2006.87 443.947 Q2001.01 443.947 1997.56 440.266 Q1994.11 436.586 1994.11 430.336 Q1994.11 423.993 1997.58 420.359 Q2001.08 416.725 2007.14 416.725 Q2009.11 416.725 2010.99 417.142 Q2012.86 417.535 2014.62 418.345 Z" fill="#000000" fill-rule="nonzero" fill-opacity="1" /><path clip-path="url(#clip840)" d="M2021.59 433.044 L2021.59 417.35 L2025.85 417.35 L2025.85 432.882 Q2025.85 436.563 2027.28 438.415 Q2028.72 440.243 2031.59 440.243 Q2035.04 440.243 2037.03 438.044 Q2039.04 435.845 2039.04 432.049 L2039.04 417.35 L2043.3 417.35 L2043.3 443.276 L2039.04 443.276 L2039.04 439.294 Q2037.49 441.655 2035.43 442.813 Q2033.39 443.947 2030.69 443.947 Q2026.22 443.947 2023.9 441.169 Q2021.59 438.391 2021.59 433.044 M2032.31 416.725 L2032.31 416.725 Z" fill="#000000" fill-rule="nonzero" fill-opacity="1" /><path clip-path="url(#clip840)" d="M2068.6 418.114 L2068.6 422.142 Q2066.8 421.216 2064.85 420.753 Q2062.91 420.29 2060.83 420.29 Q2057.65 420.29 2056.06 421.262 Q2054.48 422.234 2054.48 424.179 Q2054.48 425.66 2055.62 426.517 Q2056.75 427.35 2060.18 428.114 L2061.64 428.438 Q2066.17 429.41 2068.07 431.192 Q2069.99 432.952 2069.99 436.123 Q2069.99 439.734 2067.12 441.841 Q2064.27 443.947 2059.27 443.947 Q2057.19 443.947 2054.92 443.53 Q2052.68 443.137 2050.18 442.327 L2050.18 437.929 Q2052.54 439.155 2054.83 439.78 Q2057.12 440.382 2059.37 440.382 Q2062.38 440.382 2064 439.364 Q2065.62 438.322 2065.62 436.447 Q2065.62 434.711 2064.44 433.785 Q2063.28 432.859 2059.32 432.003 L2057.84 431.655 Q2053.88 430.822 2052.12 429.109 Q2050.36 427.373 2050.36 424.364 Q2050.36 420.706 2052.95 418.716 Q2055.55 416.725 2060.32 416.725 Q2062.68 416.725 2064.76 417.072 Q2066.84 417.419 2068.6 418.114 Z" fill="#000000" fill-rule="nonzero" fill-opacity="1" /><path clip-path="url(#clip840)" d="M2080.99 409.989 L2080.99 417.35 L2089.76 417.35 L2089.76 420.66 L2080.99 420.66 L2080.99 434.734 Q2080.99 437.905 2081.84 438.808 Q2082.72 439.711 2085.39 439.711 L2089.76 439.711 L2089.76 443.276 L2085.39 443.276 Q2080.45 443.276 2078.58 441.447 Q2076.7 439.595 2076.7 434.734 L2076.7 420.66 L2073.58 420.66 L2073.58 417.35 L2076.7 417.35 L2076.7 409.989 L2080.99 409.989 Z" fill="#000000" fill-rule="nonzero" fill-opacity="1" /><path clip-path="url(#clip840)" d="M2105.41 420.336 Q2101.98 420.336 2099.99 423.021 Q2098 425.683 2098 430.336 Q2098 434.989 2099.97 437.674 Q2101.96 440.336 2105.41 440.336 Q2108.81 440.336 2110.8 437.651 Q2112.79 434.966 2112.79 430.336 Q2112.79 425.73 2110.8 423.044 Q2108.81 420.336 2105.41 420.336 M2105.41 416.725 Q2110.96 416.725 2114.13 420.336 Q2117.31 423.947 2117.31 430.336 Q2117.31 436.702 2114.13 440.336 Q2110.96 443.947 2105.41 443.947 Q2099.83 443.947 2096.66 440.336 Q2093.51 436.702 2093.51 430.336 Q2093.51 423.947 2096.66 420.336 Q2099.83 416.725 2105.41 416.725 Z" fill="#000000" fill-rule="nonzero" fill-opacity="1" /><path clip-path="url(#clip840)" d="M2144.55 422.327 Q2146.15 419.456 2148.37 418.091 Q2150.59 416.725 2153.6 416.725 Q2157.65 416.725 2159.85 419.572 Q2162.05 422.396 2162.05 427.628 L2162.05 443.276 L2157.77 443.276 L2157.77 427.767 Q2157.77 424.04 2156.45 422.234 Q2155.13 420.429 2152.42 420.429 Q2149.11 420.429 2147.19 422.628 Q2145.27 424.827 2145.27 428.623 L2145.27 443.276 L2140.99 443.276 L2140.99 427.767 Q2140.99 424.017 2139.67 422.234 Q2138.35 420.429 2135.59 420.429 Q2132.33 420.429 2130.41 422.651 Q2128.49 424.85 2128.49 428.623 L2128.49 443.276 L2124.2 443.276 L2124.2 417.35 L2128.49 417.35 L2128.49 421.378 Q2129.95 418.993 2131.98 417.859 Q2134.02 416.725 2136.82 416.725 Q2139.64 416.725 2141.61 418.16 Q2143.6 419.595 2144.55 422.327 Z" fill="#000000" fill-rule="nonzero" fill-opacity="1" /><path clip-path="url(#clip840)" d="M2192.72 429.248 L2192.72 431.331 L2173.14 431.331 Q2173.42 435.729 2175.78 438.044 Q2178.16 440.336 2182.4 440.336 Q2184.85 440.336 2187.14 439.734 Q2189.46 439.132 2191.73 437.929 L2191.73 441.956 Q2189.44 442.928 2187.03 443.438 Q2184.62 443.947 2182.14 443.947 Q2175.94 443.947 2172.31 440.336 Q2168.69 436.725 2168.69 430.567 Q2168.69 424.202 2172.12 420.475 Q2175.57 416.725 2181.4 416.725 Q2186.63 416.725 2189.67 420.105 Q2192.72 423.461 2192.72 429.248 M2188.46 427.998 Q2188.42 424.503 2186.5 422.419 Q2184.6 420.336 2181.45 420.336 Q2177.88 420.336 2175.73 422.35 Q2173.6 424.364 2173.28 428.021 L2188.46 427.998 Z" fill="#000000" fill-rule="nonzero" fill-opacity="1" /><path clip-path="url(#clip840)" d="M2214.74 421.331 Q2214.02 420.915 2213.16 420.73 Q2212.33 420.521 2211.31 420.521 Q2207.7 420.521 2205.75 422.882 Q2203.83 425.22 2203.83 429.618 L2203.83 443.276 L2199.55 443.276 L2199.55 417.35 L2203.83 417.35 L2203.83 421.378 Q2205.18 419.017 2207.33 417.882 Q2209.48 416.725 2212.56 416.725 Q2213 416.725 2213.53 416.794 Q2214.06 416.841 2214.71 416.956 L2214.74 421.331 Z" fill="#000000" fill-rule="nonzero" fill-opacity="1" /><path clip-path="url(#clip840)" d="M2234.92 408.716 L2253.28 408.716 L2253.28 412.651 L2239.2 412.651 L2239.2 421.123 Q2240.22 420.776 2241.24 420.614 Q2242.26 420.429 2243.28 420.429 Q2249.06 420.429 2252.44 423.6 Q2255.82 426.771 2255.82 432.188 Q2255.82 437.766 2252.35 440.868 Q2248.88 443.947 2242.56 443.947 Q2240.38 443.947 2238.12 443.577 Q2235.87 443.206 2233.46 442.466 L2233.46 437.766 Q2235.55 438.901 2237.77 439.456 Q2239.99 440.012 2242.47 440.012 Q2246.47 440.012 2248.81 437.905 Q2251.15 435.799 2251.15 432.188 Q2251.15 428.577 2248.81 426.47 Q2246.47 424.364 2242.47 424.364 Q2240.59 424.364 2238.72 424.78 Q2236.87 425.197 2234.92 426.077 L2234.92 408.716 Z" fill="#000000" fill-rule="nonzero" fill-opacity="1" /></svg>
