<?xml version="1.0" encoding="utf-8"?>
<svg xmlns="http://www.w3.org/2000/svg" xmlns:xlink="http://www.w3.org/1999/xlink" width="600" height="400" viewBox="0 0 2400 1600">
<defs>
  <clipPath id="clip320">
    <rect x="0" y="0" width="2400" height="1600"/>
  </clipPath>
</defs>
<path clip-path="url(#clip320)" d="M0 1600 L2400 1600 L2400 0 L0 0  Z" fill="#ffffff" fill-rule="evenodd" fill-opacity="1"/>
<defs>
  <clipPath id="clip321">
    <rect x="480" y="0" width="1681" height="1600"/>
  </clipPath>
</defs>
<path clip-path="url(#clip320)" d="M202.227 1423.18 L2352.76 1423.18 L2352.76 123.472 L202.227 123.472  Z" fill="#ffffff" fill-rule="evenodd" fill-opacity="1"/>
<defs>
  <clipPath id="clip322">
    <rect x="202" y="123" width="2152" height="1301"/>
  </clipPath>
</defs>
<polyline clip-path="url(#clip322)" style="stroke:#000000; stroke-linecap:round; stroke-linejoin:round; stroke-width:2; stroke-opacity:0.1; fill:none" points="615.926,1423.18 615.926,123.472 "/>
<polyline clip-path="url(#clip322)" style="stroke:#000000; stroke-linecap:round; stroke-linejoin:round; stroke-width:2; stroke-opacity:0.1; fill:none" points="1056.97,1423.18 1056.97,123.472 "/>
<polyline clip-path="url(#clip322)" style="stroke:#000000; stroke-linecap:round; stroke-linejoin:round; stroke-width:2; stroke-opacity:0.1; fill:none" points="1498.01,1423.18 1498.01,123.472 "/>
<polyline clip-path="url(#clip322)" style="stroke:#000000; stroke-linecap:round; stroke-linejoin:round; stroke-width:2; stroke-opacity:0.1; fill:none" points="1939.06,1423.18 1939.06,123.472 "/>
<polyline clip-path="url(#clip320)" style="stroke:#000000; stroke-linecap:round; stroke-linejoin:round; stroke-width:4; stroke-opacity:1; fill:none" points="202.227,1423.18 2352.76,1423.18 "/>
<polyline clip-path="url(#clip320)" style="stroke:#000000; stroke-linecap:round; stroke-linejoin:round; stroke-width:4; stroke-opacity:1; fill:none" points="615.926,1423.18 615.926,1404.28 "/>
<polyline clip-path="url(#clip320)" style="stroke:#000000; stroke-linecap:round; stroke-linejoin:round; stroke-width:4; stroke-opacity:1; fill:none" points="1056.97,1423.18 1056.97,1404.28 "/>
<polyline clip-path="url(#clip320)" style="stroke:#000000; stroke-linecap:round; stroke-linejoin:round; stroke-width:4; stroke-opacity:1; fill:none" points="1498.01,1423.18 1498.01,1404.28 "/>
<polyline clip-path="url(#clip320)" style="stroke:#000000; stroke-linecap:round; stroke-linejoin:round; stroke-width:4; stroke-opacity:1; fill:none" points="1939.06,1423.18 1939.06,1404.28 "/>
<path clip-path="url(#clip320)" d="M606.204 1451.02 L624.561 1451.02 L624.561 1454.96 L610.487 1454.96 L610.487 1463.43 Q611.505 1463.08 612.524 1462.92 Q613.542 1462.73 614.561 1462.73 Q620.348 1462.73 623.727 1465.9 Q627.107 1469.08 627.107 1474.49 Q627.107 1480.07 623.635 1483.17 Q620.162 1486.25 613.843 1486.25 Q611.667 1486.25 609.399 1485.88 Q607.153 1485.51 604.746 1484.77 L604.746 1480.07 Q606.829 1481.2 609.051 1481.76 Q611.274 1482.32 613.75 1482.32 Q617.755 1482.32 620.093 1480.21 Q622.431 1478.1 622.431 1474.49 Q622.431 1470.88 620.093 1468.77 Q617.755 1466.67 613.75 1466.67 Q611.875 1466.67 610 1467.08 Q608.149 1467.5 606.204 1468.38 L606.204 1451.02 Z" fill="#000000" fill-rule="nonzero" fill-opacity="1" /><path clip-path="url(#clip320)" d="M1031.66 1481.64 L1039.3 1481.64 L1039.3 1455.28 L1030.99 1456.95 L1030.99 1452.69 L1039.25 1451.02 L1043.93 1451.02 L1043.93 1481.64 L1051.56 1481.64 L1051.56 1485.58 L1031.66 1485.58 L1031.66 1481.64 Z" fill="#000000" fill-rule="nonzero" fill-opacity="1" /><path clip-path="url(#clip320)" d="M1071.01 1454.1 Q1067.4 1454.1 1065.57 1457.66 Q1063.76 1461.2 1063.76 1468.33 Q1063.76 1475.44 1065.57 1479.01 Q1067.4 1482.55 1071.01 1482.55 Q1074.64 1482.55 1076.45 1479.01 Q1078.28 1475.44 1078.28 1468.33 Q1078.28 1461.2 1076.45 1457.66 Q1074.64 1454.1 1071.01 1454.1 M1071.01 1450.39 Q1076.82 1450.39 1079.87 1455 Q1082.95 1459.58 1082.95 1468.33 Q1082.95 1477.06 1079.87 1481.67 Q1076.82 1486.25 1071.01 1486.25 Q1065.2 1486.25 1062.12 1481.67 Q1059.06 1477.06 1059.06 1468.33 Q1059.06 1459.58 1062.12 1455 Q1065.2 1450.39 1071.01 1450.39 Z" fill="#000000" fill-rule="nonzero" fill-opacity="1" /><path clip-path="url(#clip320)" d="M1473.2 1481.64 L1480.84 1481.64 L1480.84 1455.28 L1472.53 1456.95 L1472.53 1452.69 L1480.79 1451.02 L1485.47 1451.02 L1485.47 1481.64 L1493.11 1481.64 L1493.11 1485.58 L1473.2 1485.58 L1473.2 1481.64 Z" fill="#000000" fill-rule="nonzero" fill-opacity="1" /><path clip-path="url(#clip320)" d="M1502.6 1451.02 L1520.95 1451.02 L1520.95 1454.96 L1506.88 1454.96 L1506.88 1463.43 Q1507.9 1463.08 1508.92 1462.92 Q1509.93 1462.73 1510.95 1462.73 Q1516.74 1462.73 1520.12 1465.9 Q1523.5 1469.08 1523.5 1474.49 Q1523.5 1480.07 1520.03 1483.17 Q1516.56 1486.25 1510.24 1486.25 Q1508.06 1486.25 1505.79 1485.88 Q1503.55 1485.51 1501.14 1484.77 L1501.14 1480.07 Q1503.22 1481.2 1505.44 1481.76 Q1507.67 1482.32 1510.14 1482.32 Q1514.15 1482.32 1516.49 1480.21 Q1518.82 1478.1 1518.82 1474.49 Q1518.82 1470.88 1516.49 1468.77 Q1514.15 1466.67 1510.14 1466.67 Q1508.27 1466.67 1506.39 1467.08 Q1504.54 1467.5 1502.6 1468.38 L1502.6 1451.02 Z" fill="#000000" fill-rule="nonzero" fill-opacity="1" /><path clip-path="url(#clip320)" d="M1917.83 1481.64 L1934.15 1481.64 L1934.15 1485.58 L1912.21 1485.58 L1912.21 1481.64 Q1914.87 1478.89 1919.45 1474.26 Q1924.06 1469.61 1925.24 1468.27 Q1927.48 1465.74 1928.36 1464.01 Q1929.27 1462.25 1929.27 1460.56 Q1929.27 1457.8 1927.32 1456.07 Q1925.4 1454.33 1922.3 1454.33 Q1920.1 1454.33 1917.65 1455.09 Q1915.21 1455.86 1912.44 1457.41 L1912.44 1452.69 Q1915.26 1451.55 1917.71 1450.97 Q1920.17 1450.39 1922.21 1450.39 Q1927.58 1450.39 1930.77 1453.08 Q1933.96 1455.77 1933.96 1460.26 Q1933.96 1462.39 1933.15 1464.31 Q1932.37 1466.2 1930.26 1468.8 Q1929.68 1469.47 1926.58 1472.69 Q1923.48 1475.88 1917.83 1481.64 Z" fill="#000000" fill-rule="nonzero" fill-opacity="1" /><path clip-path="url(#clip320)" d="M1953.96 1454.1 Q1950.35 1454.1 1948.52 1457.66 Q1946.72 1461.2 1946.72 1468.33 Q1946.72 1475.44 1948.52 1479.01 Q1950.35 1482.55 1953.96 1482.55 Q1957.6 1482.55 1959.4 1479.01 Q1961.23 1475.44 1961.23 1468.33 Q1961.23 1461.2 1959.4 1457.66 Q1957.6 1454.1 1953.96 1454.1 M1953.96 1450.39 Q1959.77 1450.39 1962.83 1455 Q1965.91 1459.58 1965.91 1468.33 Q1965.91 1477.06 1962.83 1481.67 Q1959.77 1486.25 1953.96 1486.25 Q1948.15 1486.25 1945.08 1481.67 Q1942.02 1477.06 1942.02 1468.33 Q1942.02 1459.58 1945.08 1455 Q1948.15 1450.39 1953.96 1450.39 Z" fill="#000000" fill-rule="nonzero" fill-opacity="1" /><path clip-path="url(#clip320)" d="M1089.99 1520.52 L1130.19 1520.52 L1130.19 1525.93 L1113.32 1525.93 L1113.32 1568.04 L1106.86 1568.04 L1106.86 1525.93 L1089.99 1525.93 L1089.99 1520.52 Z" fill="#000000" fill-rule="nonzero" fill-opacity="1" /><path clip-path="url(#clip320)" d="M1134.14 1532.4 L1139.99 1532.4 L1139.99 1568.04 L1134.14 1568.04 L1134.14 1532.4 M1134.14 1518.52 L1139.99 1518.52 L1139.99 1525.93 L1134.14 1525.93 L1134.14 1518.52 Z" fill="#000000" fill-rule="nonzero" fill-opacity="1" /><path clip-path="url(#clip320)" d="M1180 1539.24 Q1182.2 1535.29 1185.25 1533.41 Q1188.31 1531.54 1192.45 1531.54 Q1198.02 1531.54 1201.04 1535.45 Q1204.06 1539.33 1204.06 1546.53 L1204.06 1568.04 L1198.17 1568.04 L1198.17 1546.72 Q1198.17 1541.59 1196.36 1539.11 Q1194.55 1536.63 1190.82 1536.63 Q1186.27 1536.63 1183.63 1539.65 Q1180.99 1542.68 1180.99 1547.9 L1180.99 1568.04 L1175.1 1568.04 L1175.1 1546.72 Q1175.1 1541.56 1173.29 1539.11 Q1171.47 1536.63 1167.68 1536.63 Q1163.2 1536.63 1160.55 1539.68 Q1157.91 1542.71 1157.91 1547.9 L1157.91 1568.04 L1152.02 1568.04 L1152.02 1532.4 L1157.91 1532.4 L1157.91 1537.93 Q1159.92 1534.66 1162.72 1533.1 Q1165.52 1531.54 1169.37 1531.54 Q1173.25 1531.54 1175.96 1533.51 Q1178.7 1535.48 1180 1539.24 Z" fill="#000000" fill-rule="nonzero" fill-opacity="1" /><path clip-path="url(#clip320)" d="M1246.24 1548.76 L1246.24 1551.62 L1219.31 1551.62 Q1219.69 1557.67 1222.94 1560.85 Q1226.22 1564 1232.04 1564 Q1235.41 1564 1238.57 1563.17 Q1241.75 1562.35 1244.87 1560.69 L1244.87 1566.23 Q1241.72 1567.57 1238.41 1568.27 Q1235.1 1568.97 1231.69 1568.97 Q1223.16 1568.97 1218.16 1564 Q1213.2 1559.04 1213.2 1550.57 Q1213.2 1541.82 1217.91 1536.69 Q1222.65 1531.54 1230.67 1531.54 Q1237.87 1531.54 1242.03 1536.18 Q1246.24 1540.8 1246.24 1548.76 M1240.38 1547.04 Q1240.32 1542.23 1237.67 1539.37 Q1235.06 1536.5 1230.74 1536.5 Q1225.83 1536.5 1222.87 1539.27 Q1219.95 1542.04 1219.5 1547.07 L1240.38 1547.04 Z" fill="#000000" fill-rule="nonzero" fill-opacity="1" /><path clip-path="url(#clip320)" d="M1290.64 1518.58 Q1286.37 1525.9 1284.3 1533.06 Q1282.23 1540.23 1282.23 1547.58 Q1282.23 1554.93 1284.3 1562.16 Q1286.4 1569.35 1290.64 1576.64 L1285.54 1576.64 Q1280.77 1569.16 1278.38 1561.93 Q1276.03 1554.71 1276.03 1547.58 Q1276.03 1540.48 1278.38 1533.29 Q1280.74 1526.09 1285.54 1518.58 L1290.64 1518.58 Z" fill="#000000" fill-rule="nonzero" fill-opacity="1" /><path clip-path="url(#clip320)" d="M1331.63 1546.53 L1331.63 1568.04 L1325.78 1568.04 L1325.78 1546.72 Q1325.78 1541.66 1323.8 1539.14 Q1321.83 1536.63 1317.88 1536.63 Q1313.14 1536.63 1310.4 1539.65 Q1307.67 1542.68 1307.67 1547.9 L1307.67 1568.04 L1301.78 1568.04 L1301.78 1518.52 L1307.67 1518.52 L1307.67 1537.93 Q1309.77 1534.72 1312.6 1533.13 Q1315.46 1531.54 1319.19 1531.54 Q1325.33 1531.54 1328.48 1535.36 Q1331.63 1539.14 1331.63 1546.53 Z" fill="#000000" fill-rule="nonzero" fill-opacity="1" /><path clip-path="url(#clip320)" d="M1357.13 1536.5 Q1352.42 1536.5 1349.68 1540.19 Q1346.94 1543.85 1346.94 1550.25 Q1346.94 1556.65 1349.65 1560.34 Q1352.38 1564 1357.13 1564 Q1361.81 1564 1364.54 1560.31 Q1367.28 1556.62 1367.28 1550.25 Q1367.28 1543.92 1364.54 1540.23 Q1361.81 1536.5 1357.13 1536.5 M1357.13 1531.54 Q1364.77 1531.54 1369.13 1536.5 Q1373.49 1541.47 1373.49 1550.25 Q1373.49 1559 1369.13 1564 Q1364.77 1568.97 1357.13 1568.97 Q1349.46 1568.97 1345.1 1564 Q1340.77 1559 1340.77 1550.25 Q1340.77 1541.47 1345.1 1536.5 Q1349.46 1531.54 1357.13 1531.54 Z" fill="#000000" fill-rule="nonzero" fill-opacity="1" /><path clip-path="url(#clip320)" d="M1382.59 1553.98 L1382.59 1532.4 L1388.45 1532.4 L1388.45 1553.75 Q1388.45 1558.81 1390.42 1561.36 Q1392.39 1563.87 1396.34 1563.87 Q1401.08 1563.87 1403.82 1560.85 Q1406.59 1557.83 1406.59 1552.61 L1406.59 1532.4 L1412.44 1532.4 L1412.44 1568.04 L1406.59 1568.04 L1406.59 1562.57 Q1404.46 1565.82 1401.62 1567.41 Q1398.82 1568.97 1395.1 1568.97 Q1388.96 1568.97 1385.77 1565.15 Q1382.59 1561.33 1382.59 1553.98 M1397.33 1531.54 L1397.33 1531.54 Z" fill="#000000" fill-rule="nonzero" fill-opacity="1" /><path clip-path="url(#clip320)" d="M1445.16 1537.87 Q1444.18 1537.3 1443 1537.04 Q1441.85 1536.76 1440.45 1536.76 Q1435.49 1536.76 1432.81 1540 Q1430.17 1543.22 1430.17 1549.27 L1430.17 1568.04 L1424.28 1568.04 L1424.28 1532.4 L1430.17 1532.4 L1430.17 1537.93 Q1432.02 1534.69 1434.98 1533.13 Q1437.94 1531.54 1442.17 1531.54 Q1442.78 1531.54 1443.51 1531.63 Q1444.24 1531.7 1445.13 1531.85 L1445.16 1537.87 Z" fill="#000000" fill-rule="nonzero" fill-opacity="1" /><path clip-path="url(#clip320)" d="M1450.38 1518.58 L1455.48 1518.58 Q1460.25 1526.09 1462.61 1533.29 Q1464.99 1540.48 1464.99 1547.58 Q1464.99 1554.71 1462.61 1561.93 Q1460.25 1569.16 1455.48 1576.64 L1450.38 1576.64 Q1454.62 1569.35 1456.69 1562.16 Q1458.79 1554.93 1458.79 1547.58 Q1458.79 1540.23 1456.69 1533.06 Q1454.62 1525.9 1450.38 1518.58 Z" fill="#000000" fill-rule="nonzero" fill-opacity="1" /><polyline clip-path="url(#clip322)" style="stroke:#000000; stroke-linecap:round; stroke-linejoin:round; stroke-width:2; stroke-opacity:0.1; fill:none" points="202.227,1386.4 2352.76,1386.4 "/>
<polyline clip-path="url(#clip322)" style="stroke:#000000; stroke-linecap:round; stroke-linejoin:round; stroke-width:2; stroke-opacity:0.1; fill:none" points="202.227,1070.21 2352.76,1070.21 "/>
<polyline clip-path="url(#clip322)" style="stroke:#000000; stroke-linecap:round; stroke-linejoin:round; stroke-width:2; stroke-opacity:0.1; fill:none" points="202.227,754.029 2352.76,754.029 "/>
<polyline clip-path="url(#clip322)" style="stroke:#000000; stroke-linecap:round; stroke-linejoin:round; stroke-width:2; stroke-opacity:0.1; fill:none" points="202.227,437.845 2352.76,437.845 "/>
<polyline clip-path="url(#clip320)" style="stroke:#000000; stroke-linecap:round; stroke-linejoin:round; stroke-width:4; stroke-opacity:1; fill:none" points="202.227,1423.18 202.227,123.472 "/>
<polyline clip-path="url(#clip320)" style="stroke:#000000; stroke-linecap:round; stroke-linejoin:round; stroke-width:4; stroke-opacity:1; fill:none" points="202.227,1386.4 221.125,1386.4 "/>
<polyline clip-path="url(#clip320)" style="stroke:#000000; stroke-linecap:round; stroke-linejoin:round; stroke-width:4; stroke-opacity:1; fill:none" points="202.227,1070.21 221.125,1070.21 "/>
<polyline clip-path="url(#clip320)" style="stroke:#000000; stroke-linecap:round; stroke-linejoin:round; stroke-width:4; stroke-opacity:1; fill:none" points="202.227,754.029 221.125,754.029 "/>
<polyline clip-path="url(#clip320)" style="stroke:#000000; stroke-linecap:round; stroke-linejoin:round; stroke-width:4; stroke-opacity:1; fill:none" points="202.227,437.845 221.125,437.845 "/>
<path clip-path="url(#clip320)" d="M154.283 1372.19 Q150.672 1372.19 148.843 1375.76 Q147.038 1379.3 147.038 1386.43 Q147.038 1393.54 148.843 1397.1 Q150.672 1400.64 154.283 1400.64 Q157.917 1400.64 159.723 1397.1 Q161.552 1393.54 161.552 1386.43 Q161.552 1379.3 159.723 1375.76 Q157.917 1372.19 154.283 1372.19 M154.283 1368.49 Q160.093 1368.49 163.149 1373.1 Q166.227 1377.68 166.227 1386.43 Q166.227 1395.16 163.149 1399.76 Q160.093 1404.35 154.283 1404.35 Q148.473 1404.35 145.394 1399.76 Q142.339 1395.16 142.339 1386.43 Q142.339 1377.68 145.394 1373.1 Q148.473 1368.49 154.283 1368.49 Z" fill="#000000" fill-rule="nonzero" fill-opacity="1" /><path clip-path="url(#clip320)" d="M145.325 1052.93 L163.681 1052.93 L163.681 1056.87 L149.607 1056.87 L149.607 1065.34 Q150.626 1064.99 151.644 1064.83 Q152.663 1064.65 153.681 1064.65 Q159.468 1064.65 162.848 1067.82 Q166.227 1070.99 166.227 1076.4 Q166.227 1081.98 162.755 1085.08 Q159.283 1088.16 152.964 1088.16 Q150.788 1088.16 148.519 1087.79 Q146.274 1087.42 143.866 1086.68 L143.866 1081.98 Q145.95 1083.12 148.172 1083.67 Q150.394 1084.23 152.871 1084.23 Q156.876 1084.23 159.214 1082.12 Q161.552 1080.02 161.552 1076.4 Q161.552 1072.79 159.214 1070.69 Q156.876 1068.58 152.871 1068.58 Q150.996 1068.58 149.121 1069 Q147.269 1069.41 145.325 1070.29 L145.325 1052.93 Z" fill="#000000" fill-rule="nonzero" fill-opacity="1" /><path clip-path="url(#clip320)" d="M114.931 767.374 L122.57 767.374 L122.57 741.008 L114.26 742.675 L114.26 738.416 L122.524 736.749 L127.2 736.749 L127.2 767.374 L134.839 767.374 L134.839 771.309 L114.931 771.309 L114.931 767.374 Z" fill="#000000" fill-rule="nonzero" fill-opacity="1" /><path clip-path="url(#clip320)" d="M154.283 739.828 Q150.672 739.828 148.843 743.392 Q147.038 746.934 147.038 754.064 Q147.038 761.17 148.843 764.735 Q150.672 768.276 154.283 768.276 Q157.917 768.276 159.723 764.735 Q161.552 761.17 161.552 754.064 Q161.552 746.934 159.723 743.392 Q157.917 739.828 154.283 739.828 M154.283 736.124 Q160.093 736.124 163.149 740.73 Q166.227 745.314 166.227 754.064 Q166.227 762.79 163.149 767.397 Q160.093 771.98 154.283 771.98 Q148.473 771.98 145.394 767.397 Q142.339 762.79 142.339 754.064 Q142.339 745.314 145.394 740.73 Q148.473 736.124 154.283 736.124 Z" fill="#000000" fill-rule="nonzero" fill-opacity="1" /><path clip-path="url(#clip320)" d="M115.927 451.19 L123.566 451.19 L123.566 424.825 L115.256 426.491 L115.256 422.232 L123.519 420.565 L128.195 420.565 L128.195 451.19 L135.834 451.19 L135.834 455.125 L115.927 455.125 L115.927 451.19 Z" fill="#000000" fill-rule="nonzero" fill-opacity="1" /><path clip-path="url(#clip320)" d="M145.325 420.565 L163.681 420.565 L163.681 424.501 L149.607 424.501 L149.607 432.973 Q150.626 432.626 151.644 432.464 Q152.663 432.278 153.681 432.278 Q159.468 432.278 162.848 435.45 Q166.227 438.621 166.227 444.038 Q166.227 449.616 162.755 452.718 Q159.283 455.797 152.964 455.797 Q150.788 455.797 148.519 455.426 Q146.274 455.056 143.866 454.315 L143.866 449.616 Q145.95 450.75 148.172 451.306 Q150.394 451.862 152.871 451.862 Q156.876 451.862 159.214 449.755 Q161.552 447.649 161.552 444.038 Q161.552 440.426 159.214 438.32 Q156.876 436.214 152.871 436.214 Q150.996 436.214 149.121 436.63 Q147.269 437.047 145.325 437.926 L145.325 420.565 Z" fill="#000000" fill-rule="nonzero" fill-opacity="1" /><path clip-path="url(#clip320)" d="M21.7677 1114.35 L39.6235 1114.35 L39.6235 1106.27 Q39.6235 1101.78 37.3 1099.33 Q34.9765 1096.88 30.6797 1096.88 Q26.4147 1096.88 24.0912 1099.33 Q21.7677 1101.78 21.7677 1106.27 L21.7677 1114.35 M16.4842 1120.78 L16.4842 1106.27 Q16.4842 1098.28 20.1126 1094.21 Q23.7092 1090.1 30.6797 1090.1 Q37.7138 1090.1 41.3104 1094.21 Q44.907 1098.28 44.907 1106.27 L44.907 1114.35 L64.0042 1114.35 L64.0042 1120.78 L16.4842 1120.78 Z" fill="#000000" fill-rule="nonzero" fill-opacity="1" /><path clip-path="url(#clip320)" d="M32.4621 1070.24 Q32.4621 1074.95 36.1542 1077.69 Q39.8145 1080.42 46.212 1080.42 Q52.6095 1080.42 56.3017 1077.72 Q59.9619 1074.98 59.9619 1070.24 Q59.9619 1065.56 56.2698 1062.82 Q52.5777 1060.09 46.212 1060.09 Q39.8781 1060.09 36.186 1062.82 Q32.4621 1065.56 32.4621 1070.24 M27.4968 1070.24 Q27.4968 1062.6 32.4621 1058.24 Q37.4273 1053.88 46.212 1053.88 Q54.9649 1053.88 59.9619 1058.24 Q64.9272 1062.6 64.9272 1070.24 Q64.9272 1077.91 59.9619 1082.27 Q54.9649 1086.6 46.212 1086.6 Q37.4273 1086.6 32.4621 1082.27 Q27.4968 1077.91 27.4968 1070.24 Z" fill="#000000" fill-rule="nonzero" fill-opacity="1" /><path clip-path="url(#clip320)" d="M28.3562 1047.58 L28.3562 1041.72 L56.1743 1034.4 L28.3562 1027.11 L28.3562 1020.2 L56.1743 1012.88 L28.3562 1005.59 L28.3562 999.738 L64.0042 1009.06 L64.0042 1015.97 L34.7856 1023.64 L64.0042 1031.34 L64.0042 1038.25 L28.3562 1047.58 Z" fill="#000000" fill-rule="nonzero" fill-opacity="1" /><path clip-path="url(#clip320)" d="M44.7161 960.366 L47.5806 960.366 L47.5806 987.293 Q53.6281 986.911 56.8109 983.665 Q59.9619 980.387 59.9619 974.562 Q59.9619 971.188 59.1344 968.037 Q58.3069 964.854 56.6518 961.735 L62.1899 961.735 Q63.5267 964.886 64.227 968.196 Q64.9272 971.506 64.9272 974.912 Q64.9272 983.442 59.9619 988.439 Q54.9967 993.404 46.5303 993.404 Q37.7774 993.404 32.6531 988.694 Q27.4968 983.951 27.4968 975.931 Q27.4968 968.737 32.1438 964.568 Q36.7589 960.366 44.7161 960.366 M42.9973 966.223 Q38.1912 966.286 35.3266 968.928 Q32.4621 971.538 32.4621 975.867 Q32.4621 980.768 35.2312 983.729 Q38.0002 986.657 43.0292 987.102 L42.9973 966.223 Z" fill="#000000" fill-rule="nonzero" fill-opacity="1" /><path clip-path="url(#clip320)" d="M33.8307 930.097 Q33.2578 931.084 33.0032 932.262 Q32.7167 933.408 32.7167 934.808 Q32.7167 939.773 35.9632 942.447 Q39.1779 945.089 45.2253 945.089 L64.0042 945.089 L64.0042 950.977 L28.3562 950.977 L28.3562 945.089 L33.8944 945.089 Q30.6479 943.243 29.0883 940.283 Q27.4968 937.323 27.4968 933.089 Q27.4968 932.485 27.5923 931.753 Q27.656 931.02 27.8151 930.129 L33.8307 930.097 Z" fill="#000000" fill-rule="nonzero" fill-opacity="1" /><path clip-path="url(#clip320)" d="M20.1444 867.395 L26.9239 867.395 Q23.9002 870.642 22.4043 874.334 Q20.9083 877.994 20.9083 882.132 Q20.9083 890.28 25.9054 894.609 Q30.8707 898.937 40.2919 898.937 Q49.6813 898.937 54.6784 894.609 Q59.6436 890.28 59.6436 882.132 Q59.6436 877.994 58.1477 874.334 Q56.6518 870.642 53.6281 867.395 L60.3439 867.395 Q62.6355 870.769 63.7814 874.557 Q64.9272 878.312 64.9272 882.514 Q64.9272 893.304 58.3387 899.51 Q51.7183 905.717 40.2919 905.717 Q28.8336 905.717 22.2451 899.51 Q15.6248 893.304 15.6248 882.514 Q15.6248 878.249 16.7706 874.493 Q17.8846 870.705 20.1444 867.395 Z" fill="#000000" fill-rule="nonzero" fill-opacity="1" /><path clip-path="url(#clip320)" d="M49.9359 858.324 L28.3562 858.324 L28.3562 852.468 L49.7131 852.468 Q54.7739 852.468 57.3202 850.494 Q59.8346 848.521 59.8346 844.574 Q59.8346 839.832 56.8109 837.094 Q53.7872 834.325 48.5673 834.325 L28.3562 834.325 L28.3562 828.469 L64.0042 828.469 L64.0042 834.325 L58.5296 834.325 Q61.7762 836.458 63.3676 839.291 Q64.9272 842.092 64.9272 845.815 Q64.9272 851.958 61.1078 855.141 Q57.2883 858.324 49.9359 858.324 M27.4968 843.587 L27.4968 843.587 Z" fill="#000000" fill-rule="nonzero" fill-opacity="1" /><path clip-path="url(#clip320)" d="M33.8307 795.749 Q33.2578 796.736 33.0032 797.914 Q32.7167 799.059 32.7167 800.46 Q32.7167 805.425 35.9632 808.099 Q39.1779 810.74 45.2253 810.74 L64.0042 810.74 L64.0042 816.629 L28.3562 816.629 L28.3562 810.74 L33.8944 810.74 Q30.6479 808.894 29.0883 805.934 Q27.4968 802.974 27.4968 798.741 Q27.4968 798.136 27.5923 797.404 Q27.656 796.672 27.8151 795.781 L33.8307 795.749 Z" fill="#000000" fill-rule="nonzero" fill-opacity="1" /><path clip-path="url(#clip320)" d="M18.2347 783.813 L28.3562 783.813 L28.3562 771.75 L32.9077 771.75 L32.9077 783.813 L52.2594 783.813 Q56.6199 783.813 57.8613 782.636 Q59.1026 781.426 59.1026 777.766 L59.1026 771.75 L64.0042 771.75 L64.0042 777.766 Q64.0042 784.546 61.4897 787.124 Q58.9434 789.702 52.2594 789.702 L32.9077 789.702 L32.9077 793.999 L28.3562 793.999 L28.3562 789.702 L18.2347 789.702 L18.2347 783.813 Z" fill="#000000" fill-rule="nonzero" fill-opacity="1" /><path clip-path="url(#clip320)" d="M46.0847 747.847 Q46.0847 754.945 47.7079 757.682 Q49.3312 760.42 53.2461 760.42 Q56.3653 760.42 58.2114 758.382 Q60.0256 756.314 60.0256 752.781 Q60.0256 747.911 56.5881 744.983 Q53.1188 742.023 47.3897 742.023 L46.0847 742.023 L46.0847 747.847 M43.6657 736.166 L64.0042 736.166 L64.0042 742.023 L58.5933 742.023 Q61.8398 744.028 63.3994 747.02 Q64.9272 750.012 64.9272 754.34 Q64.9272 759.815 61.8716 763.061 Q58.7843 766.276 53.6281 766.276 Q47.6125 766.276 44.5569 762.266 Q41.5014 758.223 41.5014 750.234 L41.5014 742.023 L40.9285 742.023 Q36.8862 742.023 34.6901 744.696 Q32.4621 747.338 32.4621 752.144 Q32.4621 755.2 33.1941 758.096 Q33.9262 760.992 35.3903 763.666 L29.9795 763.666 Q28.7381 760.451 28.1334 757.428 Q27.4968 754.404 27.4968 751.539 Q27.4968 743.805 31.5072 739.986 Q35.5176 736.166 43.6657 736.166 Z" fill="#000000" fill-rule="nonzero" fill-opacity="1" /><path clip-path="url(#clip320)" d="M28.3562 724.103 L28.3562 718.247 L64.0042 718.247 L64.0042 724.103 L28.3562 724.103 M14.479 724.103 L14.479 718.247 L21.895 718.247 L21.895 724.103 L14.479 724.103 Z" fill="#000000" fill-rule="nonzero" fill-opacity="1" /><path clip-path="url(#clip320)" d="M14.479 705.993 L14.479 700.136 L64.0042 700.136 L64.0042 705.993 L14.479 705.993 Z" fill="#000000" fill-rule="nonzero" fill-opacity="1" /><path clip-path="url(#clip320)" d="M44.7161 657.391 L47.5806 657.391 L47.5806 684.317 Q53.6281 683.936 56.8109 680.689 Q59.9619 677.411 59.9619 671.586 Q59.9619 668.212 59.1344 665.061 Q58.3069 661.878 56.6518 658.759 L62.1899 658.759 Q63.5267 661.91 64.227 665.22 Q64.9272 668.531 64.9272 671.936 Q64.9272 680.466 59.9619 685.463 Q54.9967 690.429 46.5303 690.429 Q37.7774 690.429 32.6531 685.718 Q27.4968 680.975 27.4968 672.955 Q27.4968 665.761 32.1438 661.592 Q36.7589 657.391 44.7161 657.391 M42.9973 663.247 Q38.1912 663.311 35.3266 665.952 Q32.4621 668.562 32.4621 672.891 Q32.4621 677.793 35.2312 680.753 Q38.0002 683.681 43.0292 684.127 L42.9973 663.247 Z" fill="#000000" fill-rule="nonzero" fill-opacity="1" /><path clip-path="url(#clip320)" d="M33.7671 624.321 L14.479 624.321 L14.479 618.464 L64.0042 618.464 L64.0042 624.321 L58.657 624.321 Q61.8398 626.167 63.3994 629 Q64.9272 631.8 64.9272 635.747 Q64.9272 642.208 59.771 646.282 Q54.6147 650.325 46.212 650.325 Q37.8093 650.325 32.6531 646.282 Q27.4968 642.208 27.4968 635.747 Q27.4968 631.8 29.0564 629 Q30.5842 626.167 33.7671 624.321 M46.212 644.277 Q52.6732 644.277 56.3653 641.635 Q60.0256 638.962 60.0256 634.315 Q60.0256 629.668 56.3653 626.994 Q52.6732 624.321 46.212 624.321 Q39.7508 624.321 36.0905 626.994 Q32.3984 629.668 32.3984 634.315 Q32.3984 638.962 36.0905 641.635 Q39.7508 644.277 46.212 644.277 Z" fill="#000000" fill-rule="nonzero" fill-opacity="1" /><path clip-path="url(#clip320)" d="M14.5426 571.613 Q21.8632 575.878 29.0246 577.947 Q36.186 580.015 43.5384 580.015 Q50.8908 580.015 58.1159 577.947 Q65.3091 575.846 72.5979 571.613 L72.5979 576.705 Q65.1182 581.48 57.8931 583.867 Q50.668 586.222 43.5384 586.222 Q36.4406 586.222 29.2474 583.867 Q22.0542 581.511 14.5426 576.705 L14.5426 571.613 Z" fill="#000000" fill-rule="nonzero" fill-opacity="1" /><path clip-path="url(#clip320)" d="M16.4842 559.995 L16.4842 550.415 L48.8219 538.288 L16.4842 526.098 L16.4842 516.517 L64.0042 516.517 L64.0042 522.788 L22.277 522.788 L54.8694 535.042 L54.8694 541.503 L22.277 553.757 L64.0042 553.757 L64.0042 559.995 L16.4842 559.995 Z" fill="#000000" fill-rule="nonzero" fill-opacity="1" /><path clip-path="url(#clip320)" d="M16.4842 507.987 L16.4842 501.494 L56.6518 491.5 L16.4842 481.538 L16.4842 474.313 L56.6518 464.319 L16.4842 454.356 L16.4842 447.831 L64.0042 459.767 L64.0042 467.852 L22.7544 477.878 L64.0042 487.999 L64.0042 496.084 L16.4842 507.987 Z" fill="#000000" fill-rule="nonzero" fill-opacity="1" /><path clip-path="url(#clip320)" d="M14.5426 440.479 L14.5426 435.387 Q22.0542 430.612 29.2474 428.257 Q36.4406 425.87 43.5384 425.87 Q50.668 425.87 57.8931 428.257 Q65.1182 430.612 72.5979 435.387 L72.5979 440.479 Q65.3091 436.246 58.1159 434.177 Q50.8908 432.076 43.5384 432.076 Q36.186 432.076 29.0246 434.177 Q21.8632 436.246 14.5426 440.479 Z" fill="#000000" fill-rule="nonzero" fill-opacity="1" /><path clip-path="url(#clip320)" d="M555.155 17.6457 Q546.243 17.6457 540.977 24.2892 Q535.751 30.9327 535.751 42.3968 Q535.751 53.8203 540.977 60.4638 Q546.243 67.1073 555.155 67.1073 Q564.067 67.1073 569.252 60.4638 Q574.478 53.8203 574.478 42.3968 Q574.478 30.9327 569.252 24.2892 Q564.067 17.6457 555.155 17.6457 M555.155 11.0023 Q567.875 11.0023 575.49 19.5497 Q583.106 28.0566 583.106 42.3968 Q583.106 56.6965 575.49 65.2439 Q567.875 73.7508 555.155 73.7508 Q542.394 73.7508 534.738 65.2439 Q527.122 56.737 527.122 42.3968 Q527.122 28.0566 534.738 19.5497 Q542.394 11.0023 555.155 11.0023 Z" fill="#000000" fill-rule="nonzero" fill-opacity="1" /><path clip-path="url(#clip320)" d="M602.793 65.7705 L602.793 89.8329 L595.299 89.8329 L595.299 27.2059 L602.793 27.2059 L602.793 34.0924 Q605.143 30.0415 608.708 28.0971 Q612.313 26.1121 617.296 26.1121 Q625.559 26.1121 630.704 32.6746 Q635.889 39.2371 635.889 49.9314 Q635.889 60.6258 630.704 67.1883 Q625.559 73.7508 617.296 73.7508 Q612.313 73.7508 608.708 71.8063 Q605.143 69.8214 602.793 65.7705 M628.152 49.9314 Q628.152 41.7081 624.749 37.0496 Q621.387 32.3505 615.473 32.3505 Q609.558 32.3505 606.156 37.0496 Q602.793 41.7081 602.793 49.9314 Q602.793 58.1548 606.156 62.8538 Q609.558 67.5124 615.473 67.5124 Q621.387 67.5124 624.749 62.8538 Q628.152 58.1548 628.152 49.9314 Z" fill="#000000" fill-rule="nonzero" fill-opacity="1" /><path clip-path="url(#clip320)" d="M655.617 14.324 L655.617 27.2059 L670.97 27.2059 L670.97 32.9987 L655.617 32.9987 L655.617 57.6282 Q655.617 63.1779 657.116 64.7578 Q658.655 66.3376 663.314 66.3376 L670.97 66.3376 L670.97 72.576 L663.314 72.576 Q654.685 72.576 651.404 69.3758 Q648.123 66.1351 648.123 57.6282 L648.123 32.9987 L642.654 32.9987 L642.654 27.2059 L648.123 27.2059 L648.123 14.324 L655.617 14.324 Z" fill="#000000" fill-rule="nonzero" fill-opacity="1" /><path clip-path="url(#clip320)" d="M680.773 27.2059 L688.227 27.2059 L688.227 72.576 L680.773 72.576 L680.773 27.2059 M680.773 9.54393 L688.227 9.54393 L688.227 18.9825 L680.773 18.9825 L680.773 9.54393 Z" fill="#000000" fill-rule="nonzero" fill-opacity="1" /><path clip-path="url(#clip320)" d="M739.147 35.9153 Q741.942 30.8922 745.831 28.5022 Q749.72 26.1121 754.986 26.1121 Q762.075 26.1121 765.923 31.0947 Q769.772 36.0368 769.772 45.1919 L769.772 72.576 L762.277 72.576 L762.277 45.4349 Q762.277 38.913 759.968 35.7533 Q757.659 32.5936 752.92 32.5936 Q747.127 32.5936 743.765 36.4419 Q740.403 40.2903 740.403 46.9338 L740.403 72.576 L732.908 72.576 L732.908 45.4349 Q732.908 38.8725 730.599 35.7533 Q728.29 32.5936 723.47 32.5936 Q717.758 32.5936 714.396 36.4824 Q711.033 40.3308 711.033 46.9338 L711.033 72.576 L703.539 72.576 L703.539 27.2059 L711.033 27.2059 L711.033 34.2544 Q713.586 30.082 717.15 28.0971 Q720.715 26.1121 725.617 26.1121 Q730.559 26.1121 734.002 28.6237 Q737.486 31.1352 739.147 35.9153 Z" fill="#000000" fill-rule="nonzero" fill-opacity="1" /><path clip-path="url(#clip320)" d="M805.258 49.7694 Q796.224 49.7694 792.74 51.8354 Q789.256 53.9013 789.256 58.8839 Q789.256 62.8538 791.849 65.2034 Q794.482 67.5124 798.979 67.5124 Q805.177 67.5124 808.903 63.1374 Q812.671 58.7219 812.671 51.4303 L812.671 49.7694 L805.258 49.7694 M820.124 46.6907 L820.124 72.576 L812.671 72.576 L812.671 65.6895 Q810.119 69.8214 806.311 71.8063 Q802.503 73.7508 796.994 73.7508 Q790.026 73.7508 785.894 69.8619 Q781.803 65.9325 781.803 59.3701 Q781.803 51.7138 786.907 47.825 Q792.052 43.9361 802.219 43.9361 L812.671 43.9361 L812.671 43.2069 Q812.671 38.0623 809.268 35.2672 Q805.906 32.4315 799.789 32.4315 Q795.9 32.4315 792.214 33.3632 Q788.527 34.295 785.125 36.1584 L785.125 29.2718 Q789.216 27.692 793.064 26.9223 Q796.913 26.1121 800.558 26.1121 Q810.402 26.1121 815.263 31.2163 Q820.124 36.3204 820.124 46.6907 Z" fill="#000000" fill-rule="nonzero" fill-opacity="1" /><path clip-path="url(#clip320)" d="M835.477 9.54393 L842.931 9.54393 L842.931 72.576 L835.477 72.576 L835.477 9.54393 Z" fill="#000000" fill-rule="nonzero" fill-opacity="1" /><path clip-path="url(#clip320)" d="M893.405 18.8205 L893.405 41.5461 L903.695 41.5461 Q909.406 41.5461 912.525 38.5889 Q915.645 35.6318 915.645 30.163 Q915.645 24.7348 912.525 21.7777 Q909.406 18.8205 903.695 18.8205 L893.405 18.8205 M885.222 12.096 L903.695 12.096 Q913.862 12.096 919.047 16.714 Q924.273 21.2916 924.273 30.163 Q924.273 39.1155 919.047 43.6931 Q913.862 48.2706 903.695 48.2706 L893.405 48.2706 L893.405 72.576 L885.222 72.576 L885.222 12.096 Z" fill="#000000" fill-rule="nonzero" fill-opacity="1" /><path clip-path="url(#clip320)" d="M949.551 32.4315 Q943.555 32.4315 940.072 37.1306 Q936.588 41.7891 936.588 49.9314 Q936.588 58.0738 940.031 62.7728 Q943.515 67.4314 949.551 67.4314 Q955.506 67.4314 958.989 62.7323 Q962.473 58.0333 962.473 49.9314 Q962.473 41.8701 958.989 37.1711 Q955.506 32.4315 949.551 32.4315 M949.551 26.1121 Q959.273 26.1121 964.823 32.4315 Q970.372 38.7509 970.372 49.9314 Q970.372 61.0714 964.823 67.4314 Q959.273 73.7508 949.551 73.7508 Q939.788 73.7508 934.238 67.4314 Q928.729 61.0714 928.729 49.9314 Q928.729 38.7509 934.238 32.4315 Q939.788 26.1121 949.551 26.1121 Z" fill="#000000" fill-rule="nonzero" fill-opacity="1" /><path clip-path="url(#clip320)" d="M978.393 27.2059 L985.847 27.2059 L995.164 62.6108 L1004.44 27.2059 L1013.23 27.2059 L1022.55 62.6108 L1031.82 27.2059 L1039.28 27.2059 L1027.41 72.576 L1018.62 72.576 L1008.86 35.3887 L999.053 72.576 L990.262 72.576 L978.393 27.2059 Z" fill="#000000" fill-rule="nonzero" fill-opacity="1" /><path clip-path="url(#clip320)" d="M1089.39 48.0275 L1089.39 51.6733 L1055.12 51.6733 Q1055.6 59.3701 1059.74 63.421 Q1063.91 67.4314 1071.32 67.4314 Q1075.61 67.4314 1079.63 66.3781 Q1083.68 65.3249 1087.65 63.2184 L1087.65 70.267 Q1083.64 71.9684 1079.42 72.8596 Q1075.21 73.7508 1070.88 73.7508 Q1060.02 73.7508 1053.66 67.4314 Q1047.34 61.1119 1047.34 50.3365 Q1047.34 39.1965 1053.33 32.6746 Q1059.37 26.1121 1069.58 26.1121 Q1078.73 26.1121 1084.04 32.0264 Q1089.39 37.9003 1089.39 48.0275 M1081.93 45.84 Q1081.85 39.7232 1078.49 36.0774 Q1075.17 32.4315 1069.66 32.4315 Q1063.42 32.4315 1059.65 35.9558 Q1055.93 39.4801 1055.36 45.8805 L1081.93 45.84 Z" fill="#000000" fill-rule="nonzero" fill-opacity="1" /><path clip-path="url(#clip320)" d="M1127.91 34.1734 Q1126.66 33.4443 1125.16 33.1202 Q1123.7 32.7556 1121.92 32.7556 Q1115.6 32.7556 1112.19 36.8875 Q1108.83 40.9789 1108.83 48.6757 L1108.83 72.576 L1101.34 72.576 L1101.34 27.2059 L1108.83 27.2059 L1108.83 34.2544 Q1111.18 30.1225 1114.95 28.1376 Q1118.72 26.1121 1124.1 26.1121 Q1124.87 26.1121 1125.81 26.2337 Q1126.74 26.3147 1127.87 26.5172 L1127.91 34.1734 Z" fill="#000000" fill-rule="nonzero" fill-opacity="1" /><path clip-path="url(#clip320)" d="M1207.71 16.7545 L1207.71 25.383 Q1203.58 21.5346 1198.88 19.6307 Q1194.23 17.7268 1188.96 17.7268 Q1178.59 17.7268 1173.08 24.0867 Q1167.57 30.4061 1167.57 42.3968 Q1167.57 54.3469 1173.08 60.7069 Q1178.59 67.0263 1188.96 67.0263 Q1194.23 67.0263 1198.88 65.1223 Q1203.58 63.2184 1207.71 59.3701 L1207.71 67.9175 Q1203.42 70.8341 1198.6 72.2924 Q1193.82 73.7508 1188.47 73.7508 Q1174.74 73.7508 1166.84 65.3654 Q1158.94 56.9395 1158.94 42.3968 Q1158.94 27.8135 1166.84 19.4281 Q1174.74 11.0023 1188.47 11.0023 Q1193.9 11.0023 1198.68 12.4606 Q1203.5 13.8784 1207.71 16.7545 Z" fill="#000000" fill-rule="nonzero" fill-opacity="1" /><path clip-path="url(#clip320)" d="M1219.26 54.671 L1219.26 27.2059 L1226.71 27.2059 L1226.71 54.3874 Q1226.71 60.8284 1229.23 64.0691 Q1231.74 67.2693 1236.76 67.2693 Q1242.8 67.2693 1246.28 63.421 Q1249.8 59.5726 1249.8 52.9291 L1249.8 27.2059 L1257.26 27.2059 L1257.26 72.576 L1249.8 72.576 L1249.8 65.6084 Q1247.09 69.7404 1243.48 71.7658 Q1239.92 73.7508 1235.18 73.7508 Q1227.36 73.7508 1223.31 68.8897 Q1219.26 64.0286 1219.26 54.671 M1238.02 26.1121 L1238.02 26.1121 Z" fill="#000000" fill-rule="nonzero" fill-opacity="1" /><path clip-path="url(#clip320)" d="M1298.9 34.1734 Q1297.64 33.4443 1296.15 33.1202 Q1294.69 32.7556 1292.91 32.7556 Q1286.59 32.7556 1283.18 36.8875 Q1279.82 40.9789 1279.82 48.6757 L1279.82 72.576 L1272.33 72.576 L1272.33 27.2059 L1279.82 27.2059 L1279.82 34.2544 Q1282.17 30.1225 1285.94 28.1376 Q1289.71 26.1121 1295.09 26.1121 Q1295.86 26.1121 1296.79 26.2337 Q1297.73 26.3147 1298.86 26.5172 L1298.9 34.1734 Z" fill="#000000" fill-rule="nonzero" fill-opacity="1" /><path clip-path="url(#clip320)" d="M1314.09 14.324 L1314.09 27.2059 L1329.44 27.2059 L1329.44 32.9987 L1314.09 32.9987 L1314.09 57.6282 Q1314.09 63.1779 1315.59 64.7578 Q1317.13 66.3376 1321.79 66.3376 L1329.44 66.3376 L1329.44 72.576 L1321.79 72.576 Q1313.16 72.576 1309.88 69.3758 Q1306.6 66.1351 1306.6 57.6282 L1306.6 32.9987 L1301.13 32.9987 L1301.13 27.2059 L1306.6 27.2059 L1306.6 14.324 L1314.09 14.324 Z" fill="#000000" fill-rule="nonzero" fill-opacity="1" /><path clip-path="url(#clip320)" d="M1359.87 49.7694 Q1350.83 49.7694 1347.35 51.8354 Q1343.87 53.9013 1343.87 58.8839 Q1343.87 62.8538 1346.46 65.2034 Q1349.09 67.5124 1353.59 67.5124 Q1359.79 67.5124 1363.51 63.1374 Q1367.28 58.7219 1367.28 51.4303 L1367.28 49.7694 L1359.87 49.7694 M1374.73 46.6907 L1374.73 72.576 L1367.28 72.576 L1367.28 65.6895 Q1364.73 69.8214 1360.92 71.8063 Q1357.11 73.7508 1351.6 73.7508 Q1344.64 73.7508 1340.5 69.8619 Q1336.41 65.9325 1336.41 59.3701 Q1336.41 51.7138 1341.52 47.825 Q1346.66 43.9361 1356.83 43.9361 L1367.28 43.9361 L1367.28 43.2069 Q1367.28 38.0623 1363.88 35.2672 Q1360.51 32.4315 1354.4 32.4315 Q1350.51 32.4315 1346.82 33.3632 Q1343.14 34.295 1339.73 36.1584 L1339.73 29.2718 Q1343.83 27.692 1347.67 26.9223 Q1351.52 26.1121 1355.17 26.1121 Q1365.01 26.1121 1369.87 31.2163 Q1374.73 36.3204 1374.73 46.6907 Z" fill="#000000" fill-rule="nonzero" fill-opacity="1" /><path clip-path="url(#clip320)" d="M1390.09 27.2059 L1397.54 27.2059 L1397.54 72.576 L1390.09 72.576 L1390.09 27.2059 M1390.09 9.54393 L1397.54 9.54393 L1397.54 18.9825 L1390.09 18.9825 L1390.09 9.54393 Z" fill="#000000" fill-rule="nonzero" fill-opacity="1" /><path clip-path="url(#clip320)" d="M1413.14 9.54393 L1420.59 9.54393 L1420.59 72.576 L1413.14 72.576 L1413.14 9.54393 Z" fill="#000000" fill-rule="nonzero" fill-opacity="1" /><path clip-path="url(#clip320)" d="M1474.99 48.0275 L1474.99 51.6733 L1440.72 51.6733 Q1441.21 59.3701 1445.34 63.421 Q1449.51 67.4314 1456.93 67.4314 Q1461.22 67.4314 1465.23 66.3781 Q1469.28 65.3249 1473.25 63.2184 L1473.25 70.267 Q1469.24 71.9684 1465.03 72.8596 Q1460.82 73.7508 1456.48 73.7508 Q1445.62 73.7508 1439.26 67.4314 Q1432.95 61.1119 1432.95 50.3365 Q1432.95 39.1965 1438.94 32.6746 Q1444.98 26.1121 1455.18 26.1121 Q1464.34 26.1121 1469.65 32.0264 Q1474.99 37.9003 1474.99 48.0275 M1467.54 45.84 Q1467.46 39.7232 1464.1 36.0774 Q1460.77 32.4315 1455.27 32.4315 Q1449.03 32.4315 1445.26 35.9558 Q1441.53 39.4801 1440.97 45.8805 L1467.54 45.84 Z" fill="#000000" fill-rule="nonzero" fill-opacity="1" /><path clip-path="url(#clip320)" d="M1517.08 34.0924 L1517.08 9.54393 L1524.54 9.54393 L1524.54 72.576 L1517.08 72.576 L1517.08 65.7705 Q1514.73 69.8214 1511.13 71.8063 Q1507.56 73.7508 1502.54 73.7508 Q1494.32 73.7508 1489.13 67.1883 Q1483.99 60.6258 1483.99 49.9314 Q1483.99 39.2371 1489.13 32.6746 Q1494.32 26.1121 1502.54 26.1121 Q1507.56 26.1121 1511.13 28.0971 Q1514.73 30.0415 1517.08 34.0924 M1491.68 49.9314 Q1491.68 58.1548 1495.05 62.8538 Q1498.45 67.5124 1504.36 67.5124 Q1510.28 67.5124 1513.68 62.8538 Q1517.08 58.1548 1517.08 49.9314 Q1517.08 41.7081 1513.68 37.0496 Q1510.28 32.3505 1504.36 32.3505 Q1498.45 32.3505 1495.05 37.0496 Q1491.68 41.7081 1491.68 49.9314 Z" fill="#000000" fill-rule="nonzero" fill-opacity="1" /><path clip-path="url(#clip320)" d="M1584.17 9.62495 Q1578.74 18.942 1576.1 28.0566 Q1573.47 37.1711 1573.47 46.5287 Q1573.47 55.8863 1576.1 65.0818 Q1578.78 74.2369 1584.17 83.5134 L1577.68 83.5134 Q1571.61 73.9938 1568.57 64.7983 Q1565.57 55.6027 1565.57 46.5287 Q1565.57 37.4952 1568.57 28.3401 Q1571.57 19.1851 1577.68 9.62495 L1584.17 9.62495 Z" fill="#000000" fill-rule="nonzero" fill-opacity="1" /><path clip-path="url(#clip320)" d="M1635.21 14.0809 L1635.21 22.0612 Q1630.55 19.8332 1626.42 18.7395 Q1622.28 17.6457 1618.44 17.6457 Q1611.75 17.6457 1608.11 20.2383 Q1604.5 22.8309 1604.5 27.611 Q1604.5 31.6214 1606.89 33.6873 Q1609.32 35.7128 1616.05 36.9686 L1620.99 37.9813 Q1630.14 39.7232 1634.48 44.1387 Q1638.85 48.5136 1638.85 55.8863 Q1638.85 64.6767 1632.94 69.2137 Q1627.06 73.7508 1615.68 73.7508 Q1611.39 73.7508 1606.53 72.7785 Q1601.71 71.8063 1596.52 69.9024 L1596.52 61.4765 Q1601.5 64.2716 1606.28 65.6895 Q1611.06 67.1073 1615.68 67.1073 Q1622.69 67.1073 1626.5 64.3527 Q1630.31 61.598 1630.31 56.4939 Q1630.31 52.0379 1627.55 49.5264 Q1624.84 47.0148 1618.6 45.759 L1613.62 44.7868 Q1604.46 42.9639 1600.37 39.075 Q1596.28 35.1862 1596.28 28.2591 Q1596.28 20.2383 1601.91 15.6203 Q1607.58 11.0023 1617.5 11.0023 Q1621.76 11.0023 1626.17 11.7719 Q1630.59 12.5416 1635.21 14.0809 Z" fill="#000000" fill-rule="nonzero" fill-opacity="1" /><path clip-path="url(#clip320)" d="M1683.94 28.9478 L1683.94 35.9153 Q1680.78 34.1734 1677.58 33.3227 Q1674.42 32.4315 1671.18 32.4315 Q1663.93 32.4315 1659.92 37.0496 Q1655.91 41.6271 1655.91 49.9314 Q1655.91 58.2358 1659.92 62.8538 Q1663.93 67.4314 1671.18 67.4314 Q1674.42 67.4314 1677.58 66.5807 Q1680.78 65.6895 1683.94 63.9476 L1683.94 70.8341 Q1680.82 72.2924 1677.46 73.0216 Q1674.14 73.7508 1670.37 73.7508 Q1660.12 73.7508 1654.08 67.3098 Q1648.05 60.8689 1648.05 49.9314 Q1648.05 38.832 1654.12 32.472 Q1660.24 26.1121 1670.85 26.1121 Q1674.3 26.1121 1677.58 26.8413 Q1680.86 27.5299 1683.94 28.9478 Z" fill="#000000" fill-rule="nonzero" fill-opacity="1" /><path clip-path="url(#clip320)" d="M1696.9 27.2059 L1704.36 27.2059 L1704.36 72.576 L1696.9 72.576 L1696.9 27.2059 M1696.9 9.54393 L1704.36 9.54393 L1704.36 18.9825 L1696.9 18.9825 L1696.9 9.54393 Z" fill="#000000" fill-rule="nonzero" fill-opacity="1" /><path clip-path="url(#clip320)" d="M1757.67 45.1919 L1757.67 72.576 L1750.21 72.576 L1750.21 45.4349 Q1750.21 38.994 1747.7 35.7938 Q1745.19 32.5936 1740.17 32.5936 Q1734.13 32.5936 1730.65 36.4419 Q1727.16 40.2903 1727.16 46.9338 L1727.16 72.576 L1719.67 72.576 L1719.67 27.2059 L1727.16 27.2059 L1727.16 34.2544 Q1729.84 30.163 1733.44 28.1376 Q1737.09 26.1121 1741.83 26.1121 Q1749.64 26.1121 1753.66 30.9732 Q1757.67 35.7938 1757.67 45.1919 Z" fill="#000000" fill-rule="nonzero" fill-opacity="1" /><path clip-path="url(#clip320)" d="M1793.15 49.7694 Q1784.12 49.7694 1780.63 51.8354 Q1777.15 53.9013 1777.15 58.8839 Q1777.15 62.8538 1779.74 65.2034 Q1782.38 67.5124 1786.87 67.5124 Q1793.07 67.5124 1796.8 63.1374 Q1800.56 58.7219 1800.56 51.4303 L1800.56 49.7694 L1793.15 49.7694 M1808.02 46.6907 L1808.02 72.576 L1800.56 72.576 L1800.56 65.6895 Q1798.01 69.8214 1794.2 71.8063 Q1790.4 73.7508 1784.89 73.7508 Q1777.92 73.7508 1773.79 69.8619 Q1769.7 65.9325 1769.7 59.3701 Q1769.7 51.7138 1774.8 47.825 Q1779.95 43.9361 1790.11 43.9361 L1800.56 43.9361 L1800.56 43.2069 Q1800.56 38.0623 1797.16 35.2672 Q1793.8 32.4315 1787.68 32.4315 Q1783.79 32.4315 1780.11 33.3632 Q1776.42 34.295 1773.02 36.1584 L1773.02 29.2718 Q1777.11 27.692 1780.96 26.9223 Q1784.81 26.1121 1788.45 26.1121 Q1798.3 26.1121 1803.16 31.2163 Q1808.02 36.3204 1808.02 46.6907 Z" fill="#000000" fill-rule="nonzero" fill-opacity="1" /><path clip-path="url(#clip320)" d="M1849.66 34.1734 Q1848.41 33.4443 1846.91 33.1202 Q1845.45 32.7556 1843.67 32.7556 Q1837.35 32.7556 1833.94 36.8875 Q1830.58 40.9789 1830.58 48.6757 L1830.58 72.576 L1823.09 72.576 L1823.09 27.2059 L1830.58 27.2059 L1830.58 34.2544 Q1832.93 30.1225 1836.7 28.1376 Q1840.47 26.1121 1845.85 26.1121 Q1846.62 26.1121 1847.56 26.2337 Q1848.49 26.3147 1849.62 26.5172 L1849.66 34.1734 Z" fill="#000000" fill-rule="nonzero" fill-opacity="1" /><path clip-path="url(#clip320)" d="M1857.48 27.2059 L1864.93 27.2059 L1864.93 72.576 L1857.48 72.576 L1857.48 27.2059 M1857.48 9.54393 L1864.93 9.54393 L1864.93 18.9825 L1857.48 18.9825 L1857.48 9.54393 Z" fill="#000000" fill-rule="nonzero" fill-opacity="1" /><path clip-path="url(#clip320)" d="M1898.11 32.4315 Q1892.12 32.4315 1888.63 37.1306 Q1885.15 41.7891 1885.15 49.9314 Q1885.15 58.0738 1888.59 62.7728 Q1892.07 67.4314 1898.11 67.4314 Q1904.07 67.4314 1907.55 62.7323 Q1911.03 58.0333 1911.03 49.9314 Q1911.03 41.8701 1907.55 37.1711 Q1904.07 32.4315 1898.11 32.4315 M1898.11 26.1121 Q1907.83 26.1121 1913.38 32.4315 Q1918.93 38.7509 1918.93 49.9314 Q1918.93 61.0714 1913.38 67.4314 Q1907.83 73.7508 1898.11 73.7508 Q1888.35 73.7508 1882.8 67.4314 Q1877.29 61.0714 1877.29 49.9314 Q1877.29 38.7509 1882.8 32.4315 Q1888.35 26.1121 1898.11 26.1121 Z" fill="#000000" fill-rule="nonzero" fill-opacity="1" /><path clip-path="url(#clip320)" d="M1965.76 65.6895 L1994.32 65.6895 L1994.32 72.576 L1955.92 72.576 L1955.92 65.6895 Q1960.58 60.8689 1968.6 52.7671 Q1976.66 44.6248 1978.72 42.2752 Q1982.65 37.8598 1984.19 34.8216 Q1985.77 31.7429 1985.77 28.7857 Q1985.77 23.9651 1982.37 20.927 Q1979.01 17.8888 1973.58 17.8888 Q1969.73 17.8888 1965.44 19.2256 Q1961.18 20.5624 1956.32 23.2765 L1956.32 15.0127 Q1961.26 13.0277 1965.56 12.015 Q1969.85 11.0023 1973.42 11.0023 Q1982.81 11.0023 1988.41 15.7013 Q1994 20.4004 1994 28.2591 Q1994 31.9859 1992.58 35.3482 Q1991.2 38.6699 1987.51 43.2069 Q1986.5 44.3817 1981.07 50.0125 Q1975.64 55.6027 1965.76 65.6895 Z" fill="#000000" fill-rule="nonzero" fill-opacity="1" /><path clip-path="url(#clip320)" d="M2009.27 9.62495 L2015.75 9.62495 Q2021.83 19.1851 2024.82 28.3401 Q2027.86 37.4952 2027.86 46.5287 Q2027.86 55.6027 2024.82 64.7983 Q2021.83 73.9938 2015.75 83.5134 L2009.27 83.5134 Q2014.65 74.2369 2017.29 65.0818 Q2019.96 55.8863 2019.96 46.5287 Q2019.96 37.1711 2017.29 28.0566 Q2014.65 18.942 2009.27 9.62495 Z" fill="#000000" fill-rule="nonzero" fill-opacity="1" /><polyline clip-path="url(#clip322)" style="stroke:#009af9; stroke-linecap:round; stroke-linejoin:round; stroke-width:4; stroke-opacity:1; fill:none" points="263.091,1315.09 263.091,1326.82 351.3,1326.82 351.3,1340.1 439.509,1340.1 439.509,1331.41 527.718,1331.41 527.718,1329.07 615.926,1329.07 615.926,1334.83 704.135,1334.83 704.135,1331.18 792.344,1331.18 792.344,1336.33 880.552,1336.33 880.552,1333.12 968.761,1333.12 968.761,1337.57 1056.97,1337.57 1056.97,1336.9 1145.18,1336.9 1145.18,1337.21 1233.39,1337.21 1233.39,1344.72 1321.6,1344.72 1321.6,1338.49 1409.8,1338.49 1409.8,1344.52 1498.01,1344.52 1498.01,1340.94 1586.22,1340.94 1586.22,1386.4 1674.43,1386.4 1674.43,1341.27 1762.64,1341.27 1762.64,1345.46 1850.85,1345.46 1850.85,1347.52 1939.06,1347.52 1939.06,1347.77 2027.27,1347.77 2027.27,1349.77 2115.47,1349.77 2115.47,1352.11 2203.68,1352.11 2203.68,1356.63 2291.89,1356.63 "/>
<polyline clip-path="url(#clip322)" style="stroke:#e26f46; stroke-linecap:round; stroke-linejoin:round; stroke-width:4; stroke-opacity:1; fill:none" points="263.091,1259.16 263.091,1285.49 351.3,1285.49 351.3,1309.97 439.509,1309.97 439.509,1300.15 527.718,1300.15 527.718,1291.95 615.926,1291.95 615.926,1299.57 704.135,1299.57 704.135,1297.76 792.344,1297.76 792.344,1301.16 880.552,1301.16 880.552,1299.2 968.761,1299.2 968.761,1307.91 1056.97,1307.91 1056.97,1308.23 1145.18,1308.23 1145.18,1304.81 1233.39,1304.81 1233.39,1323.92 1321.6,1323.92 1321.6,1311.28 1409.8,1311.28 1409.8,1319.19 1498.01,1319.19 1498.01,1316.12 1586.22,1316.12 1586.22,1386.4 1674.43,1386.4 1674.43,1315.13 1762.64,1315.13 1762.64,1322.56 1850.85,1322.56 1850.85,1327.69 1939.06,1327.69 1939.06,1326.79 2027.27,1326.79 2027.27,1332.53 2115.47,1332.53 2115.47,1335.65 2203.68,1335.65 2203.68,1345.18 2291.89,1345.18 "/>
<polyline clip-path="url(#clip322)" style="stroke:#3da44d; stroke-linecap:round; stroke-linejoin:round; stroke-width:4; stroke-opacity:1; fill:none" points="263.091,1195.63 263.091,1222.35 351.3,1222.35 351.3,1273.59 439.509,1273.59 439.509,1241.91 527.718,1241.91 527.718,1235.15 615.926,1235.15 615.926,1254.43 704.135,1254.43 704.135,1235.27 792.344,1235.27 792.344,1259.1 880.552,1259.1 880.552,1244.6 968.761,1244.6 968.761,1253.2 1056.97,1253.2 1056.97,1260.52 1145.18,1260.52 1145.18,1262.69 1233.39,1262.69 1233.39,1284.36 1321.6,1284.36 1321.6,1275.3 1409.8,1275.3 1409.8,1284.47 1498.01,1284.47 1498.01,1275.07 1586.22,1275.07 1586.22,1386.4 1674.43,1386.4 1674.43,1278.01 1762.64,1278.01 1762.64,1292.63 1850.85,1292.63 1850.85,1296.97 1939.06,1296.97 1939.06,1297.31 2027.27,1297.31 2027.27,1303.56 2115.47,1303.56 2115.47,1317.23 2203.68,1317.23 2203.68,1324.96 2291.89,1324.96 "/>
<polyline clip-path="url(#clip322)" style="stroke:#c271d2; stroke-linecap:round; stroke-linejoin:round; stroke-width:4; stroke-opacity:1; fill:none" points="263.091,1199.67 263.091,1167.82 351.3,1167.82 351.3,1212.99 439.509,1212.99 439.509,1178.62 527.718,1178.62 527.718,1156.43 615.926,1156.43 615.926,1189.32 704.135,1189.32 704.135,1175.87 792.344,1175.87 792.344,1202.19 880.552,1202.19 880.552,1172.07 968.761,1172.07 968.761,1207.54 1056.97,1207.54 1056.97,1202.37 1145.18,1202.37 1145.18,1206.5 1233.39,1206.5 1233.39,1245.66 1321.6,1245.66 1321.6,1222.01 1409.8,1222.01 1409.8,1231.51 1498.01,1231.51 1498.01,1233.72 1586.22,1233.72 1586.22,1386.4 1674.43,1386.4 1674.43,1232.53 1762.64,1232.53 1762.64,1244.23 1850.85,1244.23 1850.85,1261.15 1939.06,1261.15 1939.06,1255.99 2027.27,1255.99 2027.27,1276.04 2115.47,1276.04 2115.47,1283.28 2203.68,1283.28 2203.68,1298.61 2291.89,1298.61 "/>
<polyline clip-path="url(#clip322)" style="stroke:#ac8d18; stroke-linecap:round; stroke-linejoin:round; stroke-width:4; stroke-opacity:1; fill:none" points="263.091,1070.58 263.091,973.694 351.3,973.694 351.3,1072.67 439.509,1072.67 439.509,1019.63 527.718,1019.63 527.718,977.374 615.926,977.374 615.926,1012.7 704.135,1012.7 704.135,970.904 792.344,970.904 792.344,1018.02 880.552,1018.02 880.552,1035.53 968.761,1035.53 968.761,1060.1 1056.97,1060.1 1056.97,1092.53 1145.18,1092.53 1145.18,1056.03 1233.39,1056.03 1233.39,1129.57 1321.6,1129.57 1321.6,1094.85 1409.8,1094.85 1409.8,1146.78 1498.01,1146.78 1498.01,1124.29 1586.22,1124.29 1586.22,1386.4 1674.43,1386.4 1674.43,1117.45 1762.64,1117.45 1762.64,1147.31 1850.85,1147.31 1850.85,1169.95 1939.06,1169.95 1939.06,1173.46 2027.27,1173.46 2027.27,1210.05 2115.47,1210.05 2115.47,1227.31 2203.68,1227.31 2203.68,1252.84 2291.89,1252.84 "/>
<polyline clip-path="url(#clip322)" style="stroke:#00a9ad; stroke-linecap:round; stroke-linejoin:round; stroke-width:4; stroke-opacity:1; fill:none" points="263.091,944.25 263.091,160.256 351.3,160.256 351.3,570.096 439.509,570.096 439.509,656.278 527.718,656.278 527.718,273.194 615.926,273.194 615.926,610.394 704.135,610.394 704.135,562.914 792.344,562.914 792.344,681.092 880.552,681.092 880.552,583.05 968.761,583.05 968.761,775.357 1056.97,775.357 1056.97,816.748 1145.18,816.748 1145.18,778.967 1233.39,778.967 1233.39,1031.75 1321.6,1031.75 1321.6,898.565 1409.8,898.565 1409.8,1003.98 1498.01,1003.98 1498.01,975.642 1586.22,975.642 1586.22,1386.4 1674.43,1386.4 1674.43,994.443 1762.64,994.443 1762.64,1023.17 1850.85,1023.17 1850.85,1089.82 1939.06,1089.82 1939.06,1041.3 2027.27,1041.3 2027.27,1127.11 2115.47,1127.11 2115.47,1168.03 2203.68,1168.03 2203.68,1195.97 2291.89,1195.97 "/>
<polyline clip-path="url(#clip322)" style="stroke:#ed5d92; stroke-linecap:round; stroke-linejoin:round; stroke-width:4; stroke-opacity:1; fill:none" points="263.091,1070.55 263.091,291.989 351.3,291.989 351.3,273.938 439.509,273.938 439.509,544 527.718,544 527.718,261.458 615.926,261.458 615.926,366.446 704.135,366.446 704.135,455.962 792.344,455.962 792.344,484.357 880.552,484.357 880.552,414.135 968.761,414.135 968.761,551.368 1056.97,551.368 1056.97,651.181 1145.18,651.181 1145.18,492.889 1233.39,492.889 1233.39,914.793 1321.6,914.793 1321.6,781.285 1409.8,781.285 1409.8,972.565 1498.01,972.565 1498.01,880.698 1586.22,880.698 1586.22,1386.4 1674.43,1386.4 1674.43,888.8 1762.64,888.8 1762.64,989.029 1850.85,989.029 1850.85,1001.66 1939.06,1001.66 1939.06,958.72 2027.27,958.72 2027.27,1030.55 2115.47,1030.55 2115.47,1101.01 2203.68,1101.01 2203.68,1163.59 2291.89,1163.59 "/>
<path clip-path="url(#clip320)" d="M1802.83 581.516 L2281.07 581.516 L2281.07 166.796 L1802.83 166.796  Z" fill="#ffffff" fill-rule="evenodd" fill-opacity="1"/>
<polyline clip-path="url(#clip320)" style="stroke:#000000; stroke-linecap:round; stroke-linejoin:round; stroke-width:4; stroke-opacity:1; fill:none" points="1802.83,581.516 2281.07,581.516 2281.07,166.796 1802.83,166.796 1802.83,581.516 "/>
<polyline clip-path="url(#clip320)" style="stroke:#009af9; stroke-linecap:round; stroke-linejoin:round; stroke-width:4; stroke-opacity:1; fill:none" points="1826.72,218.636 1970.09,218.636 "/>
<path clip-path="url(#clip320)" d="M2014.49 210.985 L2014.49 214.967 Q2012.69 213.971 2010.86 213.485 Q2009.05 212.976 2007.2 212.976 Q2003.06 212.976 2000.77 215.615 Q1998.47 218.231 1998.47 222.976 Q1998.47 227.721 2000.77 230.36 Q2003.06 232.976 2007.2 232.976 Q2009.05 232.976 2010.86 232.49 Q2012.69 231.981 2014.49 230.985 L2014.49 234.92 Q2012.71 235.754 2010.79 236.17 Q2008.89 236.587 2006.74 236.587 Q2000.88 236.587 1997.43 232.906 Q1993.98 229.226 1993.98 222.976 Q1993.98 216.633 1997.46 212.999 Q2000.95 209.365 2007.02 209.365 Q2008.98 209.365 2010.86 209.782 Q2012.73 210.175 2014.49 210.985 Z" fill="#000000" fill-rule="nonzero" fill-opacity="1" /><path clip-path="url(#clip320)" d="M2021.46 225.684 L2021.46 209.99 L2025.72 209.99 L2025.72 225.522 Q2025.72 229.203 2027.15 231.055 Q2028.59 232.883 2031.46 232.883 Q2034.91 232.883 2036.9 230.684 Q2038.91 228.485 2038.91 224.689 L2038.91 209.99 L2043.17 209.99 L2043.17 235.916 L2038.91 235.916 L2038.91 231.934 Q2037.36 234.295 2035.3 235.453 Q2033.27 236.587 2030.56 236.587 Q2026.09 236.587 2023.78 233.809 Q2021.46 231.031 2021.46 225.684 M2032.18 209.365 L2032.18 209.365 Z" fill="#000000" fill-rule="nonzero" fill-opacity="1" /><path clip-path="url(#clip320)" d="M2068.47 210.754 L2068.47 214.782 Q2066.67 213.856 2064.72 213.393 Q2062.78 212.93 2060.7 212.93 Q2057.53 212.93 2055.93 213.902 Q2054.35 214.874 2054.35 216.819 Q2054.35 218.3 2055.49 219.157 Q2056.62 219.99 2060.05 220.754 L2061.51 221.078 Q2066.04 222.05 2067.94 223.832 Q2069.86 225.592 2069.86 228.763 Q2069.86 232.374 2066.99 234.481 Q2064.15 236.587 2059.15 236.587 Q2057.06 236.587 2054.79 236.17 Q2052.55 235.777 2050.05 234.967 L2050.05 230.569 Q2052.41 231.795 2054.7 232.42 Q2056.99 233.022 2059.24 233.022 Q2062.25 233.022 2063.87 232.004 Q2065.49 230.962 2065.49 229.087 Q2065.49 227.351 2064.31 226.425 Q2063.15 225.499 2059.19 224.643 L2057.71 224.295 Q2053.75 223.462 2051.99 221.749 Q2050.23 220.013 2050.23 217.004 Q2050.23 213.346 2052.83 211.356 Q2055.42 209.365 2060.19 209.365 Q2062.55 209.365 2064.63 209.712 Q2066.71 210.059 2068.47 210.754 Z" fill="#000000" fill-rule="nonzero" fill-opacity="1" /><path clip-path="url(#clip320)" d="M2080.86 202.629 L2080.86 209.99 L2089.63 209.99 L2089.63 213.3 L2080.86 213.3 L2080.86 227.374 Q2080.86 230.545 2081.71 231.448 Q2082.59 232.351 2085.26 232.351 L2089.63 232.351 L2089.63 235.916 L2085.26 235.916 Q2080.33 235.916 2078.45 234.087 Q2076.58 232.235 2076.58 227.374 L2076.58 213.3 L2073.45 213.3 L2073.45 209.99 L2076.58 209.99 L2076.58 202.629 L2080.86 202.629 Z" fill="#000000" fill-rule="nonzero" fill-opacity="1" /><path clip-path="url(#clip320)" d="M2105.28 212.976 Q2101.85 212.976 2099.86 215.661 Q2097.87 218.323 2097.87 222.976 Q2097.87 227.629 2099.84 230.314 Q2101.83 232.976 2105.28 232.976 Q2108.68 232.976 2110.67 230.291 Q2112.66 227.606 2112.66 222.976 Q2112.66 218.37 2110.67 215.684 Q2108.68 212.976 2105.28 212.976 M2105.28 209.365 Q2110.84 209.365 2114.01 212.976 Q2117.18 216.587 2117.18 222.976 Q2117.18 229.342 2114.01 232.976 Q2110.84 236.587 2105.28 236.587 Q2099.7 236.587 2096.53 232.976 Q2093.38 229.342 2093.38 222.976 Q2093.38 216.587 2096.53 212.976 Q2099.7 209.365 2105.28 209.365 Z" fill="#000000" fill-rule="nonzero" fill-opacity="1" /><path clip-path="url(#clip320)" d="M2144.42 214.967 Q2146.02 212.096 2148.24 210.731 Q2150.46 209.365 2153.47 209.365 Q2157.52 209.365 2159.72 212.212 Q2161.92 215.036 2161.92 220.268 L2161.92 235.916 L2157.64 235.916 L2157.64 220.407 Q2157.64 216.68 2156.32 214.874 Q2155 213.069 2152.29 213.069 Q2148.98 213.069 2147.06 215.268 Q2145.14 217.467 2145.14 221.263 L2145.14 235.916 L2140.86 235.916 L2140.86 220.407 Q2140.86 216.657 2139.54 214.874 Q2138.22 213.069 2135.46 213.069 Q2132.2 213.069 2130.28 215.291 Q2128.36 217.49 2128.36 221.263 L2128.36 235.916 L2124.08 235.916 L2124.08 209.99 L2128.36 209.99 L2128.36 214.018 Q2129.82 211.633 2131.85 210.499 Q2133.89 209.365 2136.69 209.365 Q2139.52 209.365 2141.48 210.8 Q2143.47 212.235 2144.42 214.967 Z" fill="#000000" fill-rule="nonzero" fill-opacity="1" /><path clip-path="url(#clip320)" d="M2192.59 221.888 L2192.59 223.971 L2173.01 223.971 Q2173.29 228.369 2175.65 230.684 Q2178.03 232.976 2182.27 232.976 Q2184.72 232.976 2187.02 232.374 Q2189.33 231.772 2191.6 230.569 L2191.6 234.596 Q2189.31 235.568 2186.9 236.078 Q2184.49 236.587 2182.02 236.587 Q2175.81 236.587 2172.18 232.976 Q2168.57 229.365 2168.57 223.207 Q2168.57 216.842 2171.99 213.115 Q2175.44 209.365 2181.27 209.365 Q2186.51 209.365 2189.54 212.745 Q2192.59 216.101 2192.59 221.888 M2188.33 220.638 Q2188.29 217.143 2186.37 215.059 Q2184.47 212.976 2181.32 212.976 Q2177.76 212.976 2175.6 214.99 Q2173.47 217.004 2173.15 220.661 L2188.33 220.638 Z" fill="#000000" fill-rule="nonzero" fill-opacity="1" /><path clip-path="url(#clip320)" d="M2214.61 213.971 Q2213.89 213.555 2213.03 213.37 Q2212.2 213.161 2211.18 213.161 Q2207.57 213.161 2205.63 215.522 Q2203.7 217.86 2203.7 222.258 L2203.7 235.916 L2199.42 235.916 L2199.42 209.99 L2203.7 209.99 L2203.7 214.018 Q2205.05 211.657 2207.2 210.522 Q2209.35 209.365 2212.43 209.365 Q2212.87 209.365 2213.4 209.434 Q2213.94 209.481 2214.58 209.596 L2214.61 213.971 Z" fill="#000000" fill-rule="nonzero" fill-opacity="1" /><path clip-path="url(#clip320)" d="M2235.56 231.981 L2243.2 231.981 L2243.2 205.615 L2234.89 207.282 L2234.89 203.022 L2243.15 201.356 L2247.83 201.356 L2247.83 231.981 L2255.46 231.981 L2255.46 235.916 L2235.56 235.916 L2235.56 231.981 Z" fill="#000000" fill-rule="nonzero" fill-opacity="1" /><polyline clip-path="url(#clip320)" style="stroke:#e26f46; stroke-linecap:round; stroke-linejoin:round; stroke-width:4; stroke-opacity:1; fill:none" points="1826.72,270.476 1970.09,270.476 "/>
<path clip-path="url(#clip320)" d="M2014.49 262.825 L2014.49 266.807 Q2012.69 265.811 2010.86 265.325 Q2009.05 264.816 2007.2 264.816 Q2003.06 264.816 2000.77 267.455 Q1998.47 270.071 1998.47 274.816 Q1998.47 279.561 2000.77 282.2 Q2003.06 284.816 2007.2 284.816 Q2009.05 284.816 2010.86 284.33 Q2012.69 283.821 2014.49 282.825 L2014.49 286.76 Q2012.71 287.594 2010.79 288.01 Q2008.89 288.427 2006.74 288.427 Q2000.88 288.427 1997.43 284.746 Q1993.98 281.066 1993.98 274.816 Q1993.98 268.473 1997.46 264.839 Q2000.95 261.205 2007.02 261.205 Q2008.98 261.205 2010.86 261.622 Q2012.73 262.015 2014.49 262.825 Z" fill="#000000" fill-rule="nonzero" fill-opacity="1" /><path clip-path="url(#clip320)" d="M2021.46 277.524 L2021.46 261.83 L2025.72 261.83 L2025.72 277.362 Q2025.72 281.043 2027.15 282.895 Q2028.59 284.723 2031.46 284.723 Q2034.91 284.723 2036.9 282.524 Q2038.91 280.325 2038.91 276.529 L2038.91 261.83 L2043.17 261.83 L2043.17 287.756 L2038.91 287.756 L2038.91 283.774 Q2037.36 286.135 2035.3 287.293 Q2033.27 288.427 2030.56 288.427 Q2026.09 288.427 2023.78 285.649 Q2021.46 282.871 2021.46 277.524 M2032.18 261.205 L2032.18 261.205 Z" fill="#000000" fill-rule="nonzero" fill-opacity="1" /><path clip-path="url(#clip320)" d="M2068.47 262.594 L2068.47 266.622 Q2066.67 265.696 2064.72 265.233 Q2062.78 264.77 2060.7 264.77 Q2057.53 264.77 2055.93 265.742 Q2054.35 266.714 2054.35 268.659 Q2054.35 270.14 2055.49 270.997 Q2056.62 271.83 2060.05 272.594 L2061.51 272.918 Q2066.04 273.89 2067.94 275.672 Q2069.86 277.432 2069.86 280.603 Q2069.86 284.214 2066.99 286.321 Q2064.15 288.427 2059.15 288.427 Q2057.06 288.427 2054.79 288.01 Q2052.55 287.617 2050.05 286.807 L2050.05 282.409 Q2052.41 283.635 2054.7 284.26 Q2056.99 284.862 2059.24 284.862 Q2062.25 284.862 2063.87 283.844 Q2065.49 282.802 2065.49 280.927 Q2065.49 279.191 2064.31 278.265 Q2063.15 277.339 2059.19 276.483 L2057.71 276.135 Q2053.75 275.302 2051.99 273.589 Q2050.23 271.853 2050.23 268.844 Q2050.23 265.186 2052.83 263.196 Q2055.42 261.205 2060.19 261.205 Q2062.55 261.205 2064.63 261.552 Q2066.71 261.899 2068.47 262.594 Z" fill="#000000" fill-rule="nonzero" fill-opacity="1" /><path clip-path="url(#clip320)" d="M2080.86 254.469 L2080.86 261.83 L2089.63 261.83 L2089.63 265.14 L2080.86 265.14 L2080.86 279.214 Q2080.86 282.385 2081.71 283.288 Q2082.59 284.191 2085.26 284.191 L2089.63 284.191 L2089.63 287.756 L2085.26 287.756 Q2080.33 287.756 2078.45 285.927 Q2076.58 284.075 2076.58 279.214 L2076.58 265.14 L2073.45 265.14 L2073.45 261.83 L2076.58 261.83 L2076.58 254.469 L2080.86 254.469 Z" fill="#000000" fill-rule="nonzero" fill-opacity="1" /><path clip-path="url(#clip320)" d="M2105.28 264.816 Q2101.85 264.816 2099.86 267.501 Q2097.87 270.163 2097.87 274.816 Q2097.87 279.469 2099.84 282.154 Q2101.83 284.816 2105.28 284.816 Q2108.68 284.816 2110.67 282.131 Q2112.66 279.446 2112.66 274.816 Q2112.66 270.21 2110.67 267.524 Q2108.68 264.816 2105.28 264.816 M2105.28 261.205 Q2110.84 261.205 2114.01 264.816 Q2117.18 268.427 2117.18 274.816 Q2117.18 281.182 2114.01 284.816 Q2110.84 288.427 2105.28 288.427 Q2099.7 288.427 2096.53 284.816 Q2093.38 281.182 2093.38 274.816 Q2093.38 268.427 2096.53 264.816 Q2099.7 261.205 2105.28 261.205 Z" fill="#000000" fill-rule="nonzero" fill-opacity="1" /><path clip-path="url(#clip320)" d="M2144.42 266.807 Q2146.02 263.936 2148.24 262.571 Q2150.46 261.205 2153.47 261.205 Q2157.52 261.205 2159.72 264.052 Q2161.92 266.876 2161.92 272.108 L2161.92 287.756 L2157.64 287.756 L2157.64 272.247 Q2157.64 268.52 2156.32 266.714 Q2155 264.909 2152.29 264.909 Q2148.98 264.909 2147.06 267.108 Q2145.14 269.307 2145.14 273.103 L2145.14 287.756 L2140.86 287.756 L2140.86 272.247 Q2140.86 268.497 2139.54 266.714 Q2138.22 264.909 2135.46 264.909 Q2132.2 264.909 2130.28 267.131 Q2128.36 269.33 2128.36 273.103 L2128.36 287.756 L2124.08 287.756 L2124.08 261.83 L2128.36 261.83 L2128.36 265.858 Q2129.82 263.473 2131.85 262.339 Q2133.89 261.205 2136.69 261.205 Q2139.52 261.205 2141.48 262.64 Q2143.47 264.075 2144.42 266.807 Z" fill="#000000" fill-rule="nonzero" fill-opacity="1" /><path clip-path="url(#clip320)" d="M2192.59 273.728 L2192.59 275.811 L2173.01 275.811 Q2173.29 280.209 2175.65 282.524 Q2178.03 284.816 2182.27 284.816 Q2184.72 284.816 2187.02 284.214 Q2189.33 283.612 2191.6 282.409 L2191.6 286.436 Q2189.31 287.408 2186.9 287.918 Q2184.49 288.427 2182.02 288.427 Q2175.81 288.427 2172.18 284.816 Q2168.57 281.205 2168.57 275.047 Q2168.57 268.682 2171.99 264.955 Q2175.44 261.205 2181.27 261.205 Q2186.51 261.205 2189.54 264.585 Q2192.59 267.941 2192.59 273.728 M2188.33 272.478 Q2188.29 268.983 2186.37 266.899 Q2184.47 264.816 2181.32 264.816 Q2177.76 264.816 2175.6 266.83 Q2173.47 268.844 2173.15 272.501 L2188.33 272.478 Z" fill="#000000" fill-rule="nonzero" fill-opacity="1" /><path clip-path="url(#clip320)" d="M2214.61 265.811 Q2213.89 265.395 2213.03 265.21 Q2212.2 265.001 2211.18 265.001 Q2207.57 265.001 2205.63 267.362 Q2203.7 269.7 2203.7 274.098 L2203.7 287.756 L2199.42 287.756 L2199.42 261.83 L2203.7 261.83 L2203.7 265.858 Q2205.05 263.497 2207.2 262.362 Q2209.35 261.205 2212.43 261.205 Q2212.87 261.205 2213.4 261.274 Q2213.94 261.321 2214.58 261.436 L2214.61 265.811 Z" fill="#000000" fill-rule="nonzero" fill-opacity="1" /><path clip-path="url(#clip320)" d="M2238.77 283.821 L2255.09 283.821 L2255.09 287.756 L2233.15 287.756 L2233.15 283.821 Q2235.81 281.066 2240.39 276.436 Q2245 271.784 2246.18 270.441 Q2248.43 267.918 2249.31 266.182 Q2250.21 264.423 2250.21 262.733 Q2250.21 259.978 2248.26 258.242 Q2246.34 256.506 2243.24 256.506 Q2241.04 256.506 2238.59 257.27 Q2236.16 258.034 2233.38 259.585 L2233.38 254.862 Q2236.2 253.728 2238.66 253.149 Q2241.11 252.571 2243.15 252.571 Q2248.52 252.571 2251.71 255.256 Q2254.91 257.941 2254.91 262.432 Q2254.91 264.561 2254.1 266.483 Q2253.31 268.381 2251.2 270.973 Q2250.63 271.645 2247.52 274.862 Q2244.42 278.057 2238.77 283.821 Z" fill="#000000" fill-rule="nonzero" fill-opacity="1" /><polyline clip-path="url(#clip320)" style="stroke:#3da44d; stroke-linecap:round; stroke-linejoin:round; stroke-width:4; stroke-opacity:1; fill:none" points="1826.72,322.316 1970.09,322.316 "/>
<path clip-path="url(#clip320)" d="M2014.49 314.665 L2014.49 318.647 Q2012.69 317.651 2010.86 317.165 Q2009.05 316.656 2007.2 316.656 Q2003.06 316.656 2000.77 319.295 Q1998.47 321.911 1998.47 326.656 Q1998.47 331.401 2000.77 334.04 Q2003.06 336.656 2007.2 336.656 Q2009.05 336.656 2010.86 336.17 Q2012.69 335.661 2014.49 334.665 L2014.49 338.6 Q2012.71 339.434 2010.79 339.85 Q2008.89 340.267 2006.74 340.267 Q2000.88 340.267 1997.43 336.586 Q1993.98 332.906 1993.98 326.656 Q1993.98 320.313 1997.46 316.679 Q2000.95 313.045 2007.02 313.045 Q2008.98 313.045 2010.86 313.462 Q2012.73 313.855 2014.49 314.665 Z" fill="#000000" fill-rule="nonzero" fill-opacity="1" /><path clip-path="url(#clip320)" d="M2021.46 329.364 L2021.46 313.67 L2025.72 313.67 L2025.72 329.202 Q2025.72 332.883 2027.15 334.735 Q2028.59 336.563 2031.46 336.563 Q2034.91 336.563 2036.9 334.364 Q2038.91 332.165 2038.91 328.369 L2038.91 313.67 L2043.17 313.67 L2043.17 339.596 L2038.91 339.596 L2038.91 335.614 Q2037.36 337.975 2035.3 339.133 Q2033.27 340.267 2030.56 340.267 Q2026.09 340.267 2023.78 337.489 Q2021.46 334.711 2021.46 329.364 M2032.18 313.045 L2032.18 313.045 Z" fill="#000000" fill-rule="nonzero" fill-opacity="1" /><path clip-path="url(#clip320)" d="M2068.47 314.434 L2068.47 318.462 Q2066.67 317.536 2064.72 317.073 Q2062.78 316.61 2060.7 316.61 Q2057.53 316.61 2055.93 317.582 Q2054.35 318.554 2054.35 320.499 Q2054.35 321.98 2055.49 322.837 Q2056.62 323.67 2060.05 324.434 L2061.51 324.758 Q2066.04 325.73 2067.94 327.512 Q2069.86 329.272 2069.86 332.443 Q2069.86 336.054 2066.99 338.161 Q2064.15 340.267 2059.15 340.267 Q2057.06 340.267 2054.79 339.85 Q2052.55 339.457 2050.05 338.647 L2050.05 334.249 Q2052.41 335.475 2054.7 336.1 Q2056.99 336.702 2059.24 336.702 Q2062.25 336.702 2063.87 335.684 Q2065.49 334.642 2065.49 332.767 Q2065.49 331.031 2064.31 330.105 Q2063.15 329.179 2059.19 328.323 L2057.71 327.975 Q2053.75 327.142 2051.99 325.429 Q2050.23 323.693 2050.23 320.684 Q2050.23 317.026 2052.83 315.036 Q2055.42 313.045 2060.19 313.045 Q2062.55 313.045 2064.63 313.392 Q2066.71 313.739 2068.47 314.434 Z" fill="#000000" fill-rule="nonzero" fill-opacity="1" /><path clip-path="url(#clip320)" d="M2080.86 306.309 L2080.86 313.67 L2089.63 313.67 L2089.63 316.98 L2080.86 316.98 L2080.86 331.054 Q2080.86 334.225 2081.71 335.128 Q2082.59 336.031 2085.26 336.031 L2089.63 336.031 L2089.63 339.596 L2085.26 339.596 Q2080.33 339.596 2078.45 337.767 Q2076.58 335.915 2076.58 331.054 L2076.58 316.98 L2073.45 316.98 L2073.45 313.67 L2076.58 313.67 L2076.58 306.309 L2080.86 306.309 Z" fill="#000000" fill-rule="nonzero" fill-opacity="1" /><path clip-path="url(#clip320)" d="M2105.28 316.656 Q2101.85 316.656 2099.86 319.341 Q2097.87 322.003 2097.87 326.656 Q2097.87 331.309 2099.84 333.994 Q2101.83 336.656 2105.28 336.656 Q2108.68 336.656 2110.67 333.971 Q2112.66 331.286 2112.66 326.656 Q2112.66 322.05 2110.67 319.364 Q2108.68 316.656 2105.28 316.656 M2105.28 313.045 Q2110.84 313.045 2114.01 316.656 Q2117.18 320.267 2117.18 326.656 Q2117.18 333.022 2114.01 336.656 Q2110.84 340.267 2105.28 340.267 Q2099.7 340.267 2096.53 336.656 Q2093.38 333.022 2093.38 326.656 Q2093.38 320.267 2096.53 316.656 Q2099.7 313.045 2105.28 313.045 Z" fill="#000000" fill-rule="nonzero" fill-opacity="1" /><path clip-path="url(#clip320)" d="M2144.42 318.647 Q2146.02 315.776 2148.24 314.411 Q2150.46 313.045 2153.47 313.045 Q2157.52 313.045 2159.72 315.892 Q2161.92 318.716 2161.92 323.948 L2161.92 339.596 L2157.64 339.596 L2157.64 324.087 Q2157.64 320.36 2156.32 318.554 Q2155 316.749 2152.29 316.749 Q2148.98 316.749 2147.06 318.948 Q2145.14 321.147 2145.14 324.943 L2145.14 339.596 L2140.86 339.596 L2140.86 324.087 Q2140.86 320.337 2139.54 318.554 Q2138.22 316.749 2135.46 316.749 Q2132.2 316.749 2130.28 318.971 Q2128.36 321.17 2128.36 324.943 L2128.36 339.596 L2124.08 339.596 L2124.08 313.67 L2128.36 313.67 L2128.36 317.698 Q2129.82 315.313 2131.85 314.179 Q2133.89 313.045 2136.69 313.045 Q2139.52 313.045 2141.48 314.48 Q2143.47 315.915 2144.42 318.647 Z" fill="#000000" fill-rule="nonzero" fill-opacity="1" /><path clip-path="url(#clip320)" d="M2192.59 325.568 L2192.59 327.651 L2173.01 327.651 Q2173.29 332.049 2175.65 334.364 Q2178.03 336.656 2182.27 336.656 Q2184.72 336.656 2187.02 336.054 Q2189.33 335.452 2191.6 334.249 L2191.6 338.276 Q2189.31 339.248 2186.9 339.758 Q2184.49 340.267 2182.02 340.267 Q2175.81 340.267 2172.18 336.656 Q2168.57 333.045 2168.57 326.887 Q2168.57 320.522 2171.99 316.795 Q2175.44 313.045 2181.27 313.045 Q2186.51 313.045 2189.54 316.425 Q2192.59 319.781 2192.59 325.568 M2188.33 324.318 Q2188.29 320.823 2186.37 318.739 Q2184.47 316.656 2181.32 316.656 Q2177.76 316.656 2175.6 318.67 Q2173.47 320.684 2173.15 324.341 L2188.33 324.318 Z" fill="#000000" fill-rule="nonzero" fill-opacity="1" /><path clip-path="url(#clip320)" d="M2214.61 317.651 Q2213.89 317.235 2213.03 317.05 Q2212.2 316.841 2211.18 316.841 Q2207.57 316.841 2205.63 319.202 Q2203.7 321.54 2203.7 325.938 L2203.7 339.596 L2199.42 339.596 L2199.42 313.67 L2203.7 313.67 L2203.7 317.698 Q2205.05 315.337 2207.2 314.202 Q2209.35 313.045 2212.43 313.045 Q2212.87 313.045 2213.4 313.114 Q2213.94 313.161 2214.58 313.276 L2214.61 317.651 Z" fill="#000000" fill-rule="nonzero" fill-opacity="1" /><path clip-path="url(#clip320)" d="M2248.91 320.962 Q2252.27 321.679 2254.14 323.948 Q2256.04 326.216 2256.04 329.549 Q2256.04 334.665 2252.52 337.466 Q2249.01 340.267 2242.52 340.267 Q2240.35 340.267 2238.03 339.827 Q2235.74 339.411 2233.29 338.554 L2233.29 334.04 Q2235.23 335.174 2237.55 335.753 Q2239.86 336.332 2242.39 336.332 Q2246.78 336.332 2249.08 334.596 Q2251.39 332.86 2251.39 329.549 Q2251.39 326.494 2249.24 324.781 Q2247.11 323.045 2243.29 323.045 L2239.26 323.045 L2239.26 319.202 L2243.47 319.202 Q2246.92 319.202 2248.75 317.837 Q2250.58 316.448 2250.58 313.855 Q2250.58 311.193 2248.68 309.781 Q2246.81 308.346 2243.29 308.346 Q2241.37 308.346 2239.17 308.763 Q2236.97 309.179 2234.33 310.059 L2234.33 305.892 Q2236.99 305.151 2239.31 304.781 Q2241.64 304.411 2243.7 304.411 Q2249.03 304.411 2252.13 306.841 Q2255.23 309.249 2255.23 313.369 Q2255.23 316.239 2253.59 318.23 Q2251.95 320.198 2248.91 320.962 Z" fill="#000000" fill-rule="nonzero" fill-opacity="1" /><polyline clip-path="url(#clip320)" style="stroke:#c271d2; stroke-linecap:round; stroke-linejoin:round; stroke-width:4; stroke-opacity:1; fill:none" points="1826.72,374.156 1970.09,374.156 "/>
<path clip-path="url(#clip320)" d="M2014.49 366.505 L2014.49 370.487 Q2012.69 369.491 2010.86 369.005 Q2009.05 368.496 2007.2 368.496 Q2003.06 368.496 2000.77 371.135 Q1998.47 373.751 1998.47 378.496 Q1998.47 383.241 2000.77 385.88 Q2003.06 388.496 2007.2 388.496 Q2009.05 388.496 2010.86 388.01 Q2012.69 387.501 2014.49 386.505 L2014.49 390.44 Q2012.71 391.274 2010.79 391.69 Q2008.89 392.107 2006.74 392.107 Q2000.88 392.107 1997.43 388.426 Q1993.98 384.746 1993.98 378.496 Q1993.98 372.153 1997.46 368.519 Q2000.95 364.885 2007.02 364.885 Q2008.98 364.885 2010.86 365.302 Q2012.73 365.695 2014.49 366.505 Z" fill="#000000" fill-rule="nonzero" fill-opacity="1" /><path clip-path="url(#clip320)" d="M2021.46 381.204 L2021.46 365.51 L2025.72 365.51 L2025.72 381.042 Q2025.72 384.723 2027.15 386.575 Q2028.59 388.403 2031.46 388.403 Q2034.91 388.403 2036.9 386.204 Q2038.91 384.005 2038.91 380.209 L2038.91 365.51 L2043.17 365.51 L2043.17 391.436 L2038.91 391.436 L2038.91 387.454 Q2037.36 389.815 2035.3 390.973 Q2033.27 392.107 2030.56 392.107 Q2026.09 392.107 2023.78 389.329 Q2021.46 386.551 2021.46 381.204 M2032.18 364.885 L2032.18 364.885 Z" fill="#000000" fill-rule="nonzero" fill-opacity="1" /><path clip-path="url(#clip320)" d="M2068.47 366.274 L2068.47 370.302 Q2066.67 369.376 2064.72 368.913 Q2062.78 368.45 2060.7 368.45 Q2057.53 368.45 2055.93 369.422 Q2054.35 370.394 2054.35 372.339 Q2054.35 373.82 2055.49 374.677 Q2056.62 375.51 2060.05 376.274 L2061.51 376.598 Q2066.04 377.57 2067.94 379.352 Q2069.86 381.112 2069.86 384.283 Q2069.86 387.894 2066.99 390.001 Q2064.15 392.107 2059.15 392.107 Q2057.06 392.107 2054.79 391.69 Q2052.55 391.297 2050.05 390.487 L2050.05 386.089 Q2052.41 387.315 2054.7 387.94 Q2056.99 388.542 2059.24 388.542 Q2062.25 388.542 2063.87 387.524 Q2065.49 386.482 2065.49 384.607 Q2065.49 382.871 2064.31 381.945 Q2063.15 381.019 2059.19 380.163 L2057.71 379.815 Q2053.75 378.982 2051.99 377.269 Q2050.23 375.533 2050.23 372.524 Q2050.23 368.866 2052.83 366.876 Q2055.42 364.885 2060.19 364.885 Q2062.55 364.885 2064.63 365.232 Q2066.71 365.579 2068.47 366.274 Z" fill="#000000" fill-rule="nonzero" fill-opacity="1" /><path clip-path="url(#clip320)" d="M2080.86 358.149 L2080.86 365.51 L2089.63 365.51 L2089.63 368.82 L2080.86 368.82 L2080.86 382.894 Q2080.86 386.065 2081.71 386.968 Q2082.59 387.871 2085.26 387.871 L2089.63 387.871 L2089.63 391.436 L2085.26 391.436 Q2080.33 391.436 2078.45 389.607 Q2076.58 387.755 2076.58 382.894 L2076.58 368.82 L2073.45 368.82 L2073.45 365.51 L2076.58 365.51 L2076.58 358.149 L2080.86 358.149 Z" fill="#000000" fill-rule="nonzero" fill-opacity="1" /><path clip-path="url(#clip320)" d="M2105.28 368.496 Q2101.85 368.496 2099.86 371.181 Q2097.87 373.843 2097.87 378.496 Q2097.87 383.149 2099.84 385.834 Q2101.83 388.496 2105.28 388.496 Q2108.68 388.496 2110.67 385.811 Q2112.66 383.126 2112.66 378.496 Q2112.66 373.89 2110.67 371.204 Q2108.68 368.496 2105.28 368.496 M2105.28 364.885 Q2110.84 364.885 2114.01 368.496 Q2117.18 372.107 2117.18 378.496 Q2117.18 384.862 2114.01 388.496 Q2110.84 392.107 2105.28 392.107 Q2099.7 392.107 2096.53 388.496 Q2093.38 384.862 2093.38 378.496 Q2093.38 372.107 2096.53 368.496 Q2099.7 364.885 2105.28 364.885 Z" fill="#000000" fill-rule="nonzero" fill-opacity="1" /><path clip-path="url(#clip320)" d="M2144.42 370.487 Q2146.02 367.616 2148.24 366.251 Q2150.46 364.885 2153.47 364.885 Q2157.52 364.885 2159.72 367.732 Q2161.92 370.556 2161.92 375.788 L2161.92 391.436 L2157.64 391.436 L2157.64 375.927 Q2157.64 372.2 2156.32 370.394 Q2155 368.589 2152.29 368.589 Q2148.98 368.589 2147.06 370.788 Q2145.14 372.987 2145.14 376.783 L2145.14 391.436 L2140.86 391.436 L2140.86 375.927 Q2140.86 372.177 2139.54 370.394 Q2138.22 368.589 2135.46 368.589 Q2132.2 368.589 2130.28 370.811 Q2128.36 373.01 2128.36 376.783 L2128.36 391.436 L2124.08 391.436 L2124.08 365.51 L2128.36 365.51 L2128.36 369.538 Q2129.82 367.153 2131.85 366.019 Q2133.89 364.885 2136.69 364.885 Q2139.52 364.885 2141.48 366.32 Q2143.47 367.755 2144.42 370.487 Z" fill="#000000" fill-rule="nonzero" fill-opacity="1" /><path clip-path="url(#clip320)" d="M2192.59 377.408 L2192.59 379.491 L2173.01 379.491 Q2173.29 383.889 2175.65 386.204 Q2178.03 388.496 2182.27 388.496 Q2184.72 388.496 2187.02 387.894 Q2189.33 387.292 2191.6 386.089 L2191.6 390.116 Q2189.31 391.088 2186.9 391.598 Q2184.49 392.107 2182.02 392.107 Q2175.81 392.107 2172.18 388.496 Q2168.57 384.885 2168.57 378.727 Q2168.57 372.362 2171.99 368.635 Q2175.44 364.885 2181.27 364.885 Q2186.51 364.885 2189.54 368.265 Q2192.59 371.621 2192.59 377.408 M2188.33 376.158 Q2188.29 372.663 2186.37 370.579 Q2184.47 368.496 2181.32 368.496 Q2177.76 368.496 2175.6 370.51 Q2173.47 372.524 2173.15 376.181 L2188.33 376.158 Z" fill="#000000" fill-rule="nonzero" fill-opacity="1" /><path clip-path="url(#clip320)" d="M2214.61 369.491 Q2213.89 369.075 2213.03 368.89 Q2212.2 368.681 2211.18 368.681 Q2207.57 368.681 2205.63 371.042 Q2203.7 373.38 2203.7 377.778 L2203.7 391.436 L2199.42 391.436 L2199.42 365.51 L2203.7 365.51 L2203.7 369.538 Q2205.05 367.177 2207.2 366.042 Q2209.35 364.885 2212.43 364.885 Q2212.87 364.885 2213.4 364.954 Q2213.94 365.001 2214.58 365.116 L2214.61 369.491 Z" fill="#000000" fill-rule="nonzero" fill-opacity="1" /><path clip-path="url(#clip320)" d="M2247.59 360.95 L2235.79 379.399 L2247.59 379.399 L2247.59 360.95 M2246.37 356.876 L2252.25 356.876 L2252.25 379.399 L2257.18 379.399 L2257.18 383.288 L2252.25 383.288 L2252.25 391.436 L2247.59 391.436 L2247.59 383.288 L2231.99 383.288 L2231.99 378.774 L2246.37 356.876 Z" fill="#000000" fill-rule="nonzero" fill-opacity="1" /><polyline clip-path="url(#clip320)" style="stroke:#ac8d18; stroke-linecap:round; stroke-linejoin:round; stroke-width:4; stroke-opacity:1; fill:none" points="1826.72,425.996 1970.09,425.996 "/>
<path clip-path="url(#clip320)" d="M2014.49 418.345 L2014.49 422.327 Q2012.69 421.331 2010.86 420.845 Q2009.05 420.336 2007.2 420.336 Q2003.06 420.336 2000.77 422.975 Q1998.47 425.591 1998.47 430.336 Q1998.47 435.081 2000.77 437.72 Q2003.06 440.336 2007.2 440.336 Q2009.05 440.336 2010.86 439.85 Q2012.69 439.341 2014.49 438.345 L2014.49 442.28 Q2012.71 443.114 2010.79 443.53 Q2008.89 443.947 2006.74 443.947 Q2000.88 443.947 1997.43 440.266 Q1993.98 436.586 1993.98 430.336 Q1993.98 423.993 1997.46 420.359 Q2000.95 416.725 2007.02 416.725 Q2008.98 416.725 2010.86 417.142 Q2012.73 417.535 2014.49 418.345 Z" fill="#000000" fill-rule="nonzero" fill-opacity="1" /><path clip-path="url(#clip320)" d="M2021.46 433.044 L2021.46 417.35 L2025.72 417.35 L2025.72 432.882 Q2025.72 436.563 2027.15 438.415 Q2028.59 440.243 2031.46 440.243 Q2034.91 440.243 2036.9 438.044 Q2038.91 435.845 2038.91 432.049 L2038.91 417.35 L2043.17 417.35 L2043.17 443.276 L2038.91 443.276 L2038.91 439.294 Q2037.36 441.655 2035.3 442.813 Q2033.27 443.947 2030.56 443.947 Q2026.09 443.947 2023.78 441.169 Q2021.46 438.391 2021.46 433.044 M2032.18 416.725 L2032.18 416.725 Z" fill="#000000" fill-rule="nonzero" fill-opacity="1" /><path clip-path="url(#clip320)" d="M2068.47 418.114 L2068.47 422.142 Q2066.67 421.216 2064.72 420.753 Q2062.78 420.29 2060.7 420.29 Q2057.53 420.29 2055.93 421.262 Q2054.35 422.234 2054.35 424.179 Q2054.35 425.66 2055.49 426.517 Q2056.62 427.35 2060.05 428.114 L2061.51 428.438 Q2066.04 429.41 2067.94 431.192 Q2069.86 432.952 2069.86 436.123 Q2069.86 439.734 2066.99 441.841 Q2064.15 443.947 2059.15 443.947 Q2057.06 443.947 2054.79 443.53 Q2052.55 443.137 2050.05 442.327 L2050.05 437.929 Q2052.41 439.155 2054.7 439.78 Q2056.99 440.382 2059.24 440.382 Q2062.25 440.382 2063.87 439.364 Q2065.49 438.322 2065.49 436.447 Q2065.49 434.711 2064.31 433.785 Q2063.15 432.859 2059.19 432.003 L2057.71 431.655 Q2053.75 430.822 2051.99 429.109 Q2050.23 427.373 2050.23 424.364 Q2050.23 420.706 2052.83 418.716 Q2055.42 416.725 2060.19 416.725 Q2062.55 416.725 2064.63 417.072 Q2066.71 417.419 2068.47 418.114 Z" fill="#000000" fill-rule="nonzero" fill-opacity="1" /><path clip-path="url(#clip320)" d="M2080.86 409.989 L2080.86 417.35 L2089.63 417.35 L2089.63 420.66 L2080.86 420.66 L2080.86 434.734 Q2080.86 437.905 2081.71 438.808 Q2082.59 439.711 2085.26 439.711 L2089.63 439.711 L2089.63 443.276 L2085.26 443.276 Q2080.33 443.276 2078.45 441.447 Q2076.58 439.595 2076.58 434.734 L2076.58 420.66 L2073.45 420.66 L2073.45 417.35 L2076.58 417.35 L2076.58 409.989 L2080.86 409.989 Z" fill="#000000" fill-rule="nonzero" fill-opacity="1" /><path clip-path="url(#clip320)" d="M2105.28 420.336 Q2101.85 420.336 2099.86 423.021 Q2097.87 425.683 2097.87 430.336 Q2097.87 434.989 2099.84 437.674 Q2101.83 440.336 2105.28 440.336 Q2108.68 440.336 2110.67 437.651 Q2112.66 434.966 2112.66 430.336 Q2112.66 425.73 2110.67 423.044 Q2108.68 420.336 2105.28 420.336 M2105.28 416.725 Q2110.84 416.725 2114.01 420.336 Q2117.18 423.947 2117.18 430.336 Q2117.18 436.702 2114.01 440.336 Q2110.84 443.947 2105.28 443.947 Q2099.7 443.947 2096.53 440.336 Q2093.38 436.702 2093.38 430.336 Q2093.38 423.947 2096.53 420.336 Q2099.7 416.725 2105.28 416.725 Z" fill="#000000" fill-rule="nonzero" fill-opacity="1" /><path clip-path="url(#clip320)" d="M2144.42 422.327 Q2146.02 419.456 2148.24 418.091 Q2150.46 416.725 2153.47 416.725 Q2157.52 416.725 2159.72 419.572 Q2161.92 422.396 2161.92 427.628 L2161.92 443.276 L2157.64 443.276 L2157.64 427.767 Q2157.64 424.04 2156.32 422.234 Q2155 420.429 2152.29 420.429 Q2148.98 420.429 2147.06 422.628 Q2145.14 424.827 2145.14 428.623 L2145.14 443.276 L2140.86 443.276 L2140.86 427.767 Q2140.86 424.017 2139.54 422.234 Q2138.22 420.429 2135.46 420.429 Q2132.2 420.429 2130.28 422.651 Q2128.36 424.85 2128.36 428.623 L2128.36 443.276 L2124.08 443.276 L2124.08 417.35 L2128.36 417.35 L2128.36 421.378 Q2129.82 418.993 2131.85 417.859 Q2133.89 416.725 2136.69 416.725 Q2139.52 416.725 2141.48 418.16 Q2143.47 419.595 2144.42 422.327 Z" fill="#000000" fill-rule="nonzero" fill-opacity="1" /><path clip-path="url(#clip320)" d="M2192.59 429.248 L2192.59 431.331 L2173.01 431.331 Q2173.29 435.729 2175.65 438.044 Q2178.03 440.336 2182.27 440.336 Q2184.72 440.336 2187.02 439.734 Q2189.33 439.132 2191.6 437.929 L2191.6 441.956 Q2189.31 442.928 2186.9 443.438 Q2184.49 443.947 2182.02 443.947 Q2175.81 443.947 2172.18 440.336 Q2168.57 436.725 2168.57 430.567 Q2168.57 424.202 2171.99 420.475 Q2175.44 416.725 2181.27 416.725 Q2186.51 416.725 2189.54 420.105 Q2192.59 423.461 2192.59 429.248 M2188.33 427.998 Q2188.29 424.503 2186.37 422.419 Q2184.47 420.336 2181.32 420.336 Q2177.76 420.336 2175.6 422.35 Q2173.47 424.364 2173.15 428.021 L2188.33 427.998 Z" fill="#000000" fill-rule="nonzero" fill-opacity="1" /><path clip-path="url(#clip320)" d="M2214.61 421.331 Q2213.89 420.915 2213.03 420.73 Q2212.2 420.521 2211.18 420.521 Q2207.57 420.521 2205.63 422.882 Q2203.7 425.22 2203.7 429.618 L2203.7 443.276 L2199.42 443.276 L2199.42 417.35 L2203.7 417.35 L2203.7 421.378 Q2205.05 419.017 2207.2 417.882 Q2209.35 416.725 2212.43 416.725 Q2212.87 416.725 2213.4 416.794 Q2213.94 416.841 2214.58 416.956 L2214.61 421.331 Z" fill="#000000" fill-rule="nonzero" fill-opacity="1" /><path clip-path="url(#clip320)" d="M2234.79 408.716 L2253.15 408.716 L2253.15 412.651 L2239.08 412.651 L2239.08 421.123 Q2240.09 420.776 2241.11 420.614 Q2242.13 420.429 2243.15 420.429 Q2248.94 420.429 2252.32 423.6 Q2255.7 426.771 2255.7 432.188 Q2255.7 437.766 2252.22 440.868 Q2248.75 443.947 2242.43 443.947 Q2240.26 443.947 2237.99 443.577 Q2235.74 443.206 2233.33 442.466 L2233.33 437.766 Q2235.42 438.901 2237.64 439.456 Q2239.86 440.012 2242.34 440.012 Q2246.34 440.012 2248.68 437.905 Q2251.02 435.799 2251.02 432.188 Q2251.02 428.577 2248.68 426.47 Q2246.34 424.364 2242.34 424.364 Q2240.46 424.364 2238.59 424.78 Q2236.74 425.197 2234.79 426.077 L2234.79 408.716 Z" fill="#000000" fill-rule="nonzero" fill-opacity="1" /><polyline clip-path="url(#clip320)" style="stroke:#00a9ad; stroke-linecap:round; stroke-linejoin:round; stroke-width:4; stroke-opacity:1; fill:none" points="1826.72,477.836 1970.09,477.836 "/>
<path clip-path="url(#clip320)" d="M2014.49 470.185 L2014.49 474.167 Q2012.69 473.171 2010.86 472.685 Q2009.05 472.176 2007.2 472.176 Q2003.06 472.176 2000.77 474.815 Q1998.47 477.431 1998.47 482.176 Q1998.47 486.921 2000.77 489.56 Q2003.06 492.176 2007.2 492.176 Q2009.05 492.176 2010.86 491.69 Q2012.69 491.181 2014.49 490.185 L2014.49 494.12 Q2012.71 494.954 2010.79 495.37 Q2008.89 495.787 2006.74 495.787 Q2000.88 495.787 1997.43 492.106 Q1993.98 488.426 1993.98 482.176 Q1993.98 475.833 1997.46 472.199 Q2000.95 468.565 2007.02 468.565 Q2008.98 468.565 2010.86 468.982 Q2012.73 469.375 2014.49 470.185 Z" fill="#000000" fill-rule="nonzero" fill-opacity="1" /><path clip-path="url(#clip320)" d="M2021.46 484.884 L2021.46 469.19 L2025.72 469.19 L2025.72 484.722 Q2025.72 488.403 2027.15 490.255 Q2028.59 492.083 2031.46 492.083 Q2034.91 492.083 2036.9 489.884 Q2038.91 487.685 2038.91 483.889 L2038.91 469.19 L2043.17 469.19 L2043.17 495.116 L2038.91 495.116 L2038.91 491.134 Q2037.36 493.495 2035.3 494.653 Q2033.27 495.787 2030.56 495.787 Q2026.09 495.787 2023.78 493.009 Q2021.46 490.231 2021.46 484.884 M2032.18 468.565 L2032.18 468.565 Z" fill="#000000" fill-rule="nonzero" fill-opacity="1" /><path clip-path="url(#clip320)" d="M2068.47 469.954 L2068.47 473.982 Q2066.67 473.056 2064.72 472.593 Q2062.78 472.13 2060.7 472.13 Q2057.53 472.13 2055.93 473.102 Q2054.35 474.074 2054.35 476.019 Q2054.35 477.5 2055.49 478.357 Q2056.62 479.19 2060.05 479.954 L2061.51 480.278 Q2066.04 481.25 2067.94 483.032 Q2069.86 484.792 2069.86 487.963 Q2069.86 491.574 2066.99 493.681 Q2064.15 495.787 2059.15 495.787 Q2057.06 495.787 2054.79 495.37 Q2052.55 494.977 2050.05 494.167 L2050.05 489.769 Q2052.41 490.995 2054.7 491.62 Q2056.99 492.222 2059.24 492.222 Q2062.25 492.222 2063.87 491.204 Q2065.49 490.162 2065.49 488.287 Q2065.49 486.551 2064.31 485.625 Q2063.15 484.699 2059.19 483.843 L2057.71 483.495 Q2053.75 482.662 2051.99 480.949 Q2050.23 479.213 2050.23 476.204 Q2050.23 472.546 2052.83 470.556 Q2055.42 468.565 2060.19 468.565 Q2062.55 468.565 2064.63 468.912 Q2066.71 469.259 2068.47 469.954 Z" fill="#000000" fill-rule="nonzero" fill-opacity="1" /><path clip-path="url(#clip320)" d="M2080.86 461.829 L2080.86 469.19 L2089.63 469.19 L2089.63 472.5 L2080.86 472.5 L2080.86 486.574 Q2080.86 489.745 2081.71 490.648 Q2082.59 491.551 2085.26 491.551 L2089.63 491.551 L2089.63 495.116 L2085.26 495.116 Q2080.33 495.116 2078.45 493.287 Q2076.58 491.435 2076.58 486.574 L2076.58 472.5 L2073.45 472.5 L2073.45 469.19 L2076.58 469.19 L2076.58 461.829 L2080.86 461.829 Z" fill="#000000" fill-rule="nonzero" fill-opacity="1" /><path clip-path="url(#clip320)" d="M2105.28 472.176 Q2101.85 472.176 2099.86 474.861 Q2097.87 477.523 2097.87 482.176 Q2097.87 486.829 2099.84 489.514 Q2101.83 492.176 2105.28 492.176 Q2108.68 492.176 2110.67 489.491 Q2112.66 486.806 2112.66 482.176 Q2112.66 477.57 2110.67 474.884 Q2108.68 472.176 2105.28 472.176 M2105.28 468.565 Q2110.84 468.565 2114.01 472.176 Q2117.18 475.787 2117.18 482.176 Q2117.18 488.542 2114.01 492.176 Q2110.84 495.787 2105.28 495.787 Q2099.7 495.787 2096.53 492.176 Q2093.38 488.542 2093.38 482.176 Q2093.38 475.787 2096.53 472.176 Q2099.7 468.565 2105.28 468.565 Z" fill="#000000" fill-rule="nonzero" fill-opacity="1" /><path clip-path="url(#clip320)" d="M2144.42 474.167 Q2146.02 471.296 2148.24 469.931 Q2150.46 468.565 2153.47 468.565 Q2157.52 468.565 2159.72 471.412 Q2161.92 474.236 2161.92 479.468 L2161.92 495.116 L2157.64 495.116 L2157.64 479.607 Q2157.64 475.88 2156.32 474.074 Q2155 472.269 2152.29 472.269 Q2148.98 472.269 2147.06 474.468 Q2145.14 476.667 2145.14 480.463 L2145.14 495.116 L2140.86 495.116 L2140.86 479.607 Q2140.86 475.857 2139.54 474.074 Q2138.22 472.269 2135.46 472.269 Q2132.2 472.269 2130.28 474.491 Q2128.36 476.69 2128.36 480.463 L2128.36 495.116 L2124.08 495.116 L2124.08 469.19 L2128.36 469.19 L2128.36 473.218 Q2129.82 470.833 2131.85 469.699 Q2133.89 468.565 2136.69 468.565 Q2139.52 468.565 2141.48 470 Q2143.47 471.435 2144.42 474.167 Z" fill="#000000" fill-rule="nonzero" fill-opacity="1" /><path clip-path="url(#clip320)" d="M2192.59 481.088 L2192.59 483.171 L2173.01 483.171 Q2173.29 487.569 2175.65 489.884 Q2178.03 492.176 2182.27 492.176 Q2184.72 492.176 2187.02 491.574 Q2189.33 490.972 2191.6 489.769 L2191.6 493.796 Q2189.31 494.768 2186.9 495.278 Q2184.49 495.787 2182.02 495.787 Q2175.81 495.787 2172.18 492.176 Q2168.57 488.565 2168.57 482.407 Q2168.57 476.042 2171.99 472.315 Q2175.44 468.565 2181.27 468.565 Q2186.51 468.565 2189.54 471.945 Q2192.59 475.301 2192.59 481.088 M2188.33 479.838 Q2188.29 476.343 2186.37 474.259 Q2184.47 472.176 2181.32 472.176 Q2177.76 472.176 2175.6 474.19 Q2173.47 476.204 2173.15 479.861 L2188.33 479.838 Z" fill="#000000" fill-rule="nonzero" fill-opacity="1" /><path clip-path="url(#clip320)" d="M2214.61 473.171 Q2213.89 472.755 2213.03 472.57 Q2212.2 472.361 2211.18 472.361 Q2207.57 472.361 2205.63 474.722 Q2203.7 477.06 2203.7 481.458 L2203.7 495.116 L2199.42 495.116 L2199.42 469.19 L2203.7 469.19 L2203.7 473.218 Q2205.05 470.857 2207.2 469.722 Q2209.35 468.565 2212.43 468.565 Q2212.87 468.565 2213.4 468.634 Q2213.94 468.681 2214.58 468.796 L2214.61 473.171 Z" fill="#000000" fill-rule="nonzero" fill-opacity="1" /><path clip-path="url(#clip320)" d="M2245.33 475.972 Q2242.18 475.972 2240.33 478.125 Q2238.5 480.278 2238.5 484.028 Q2238.5 487.755 2240.33 489.931 Q2242.18 492.083 2245.33 492.083 Q2248.47 492.083 2250.3 489.931 Q2252.15 487.755 2252.15 484.028 Q2252.15 480.278 2250.3 478.125 Q2248.47 475.972 2245.33 475.972 M2254.61 461.32 L2254.61 465.579 Q2252.85 464.746 2251.04 464.306 Q2249.26 463.866 2247.5 463.866 Q2242.87 463.866 2240.42 466.991 Q2237.99 470.116 2237.64 476.435 Q2239.01 474.421 2241.07 473.357 Q2243.13 472.269 2245.6 472.269 Q2250.81 472.269 2253.82 475.44 Q2256.85 478.588 2256.85 484.028 Q2256.85 489.352 2253.7 492.569 Q2250.56 495.787 2245.33 495.787 Q2239.33 495.787 2236.16 491.204 Q2232.99 486.597 2232.99 477.87 Q2232.99 469.676 2236.88 464.815 Q2240.76 459.931 2247.32 459.931 Q2249.08 459.931 2250.86 460.278 Q2252.66 460.625 2254.61 461.32 Z" fill="#000000" fill-rule="nonzero" fill-opacity="1" /><polyline clip-path="url(#clip320)" style="stroke:#ed5d92; stroke-linecap:round; stroke-linejoin:round; stroke-width:4; stroke-opacity:1; fill:none" points="1826.72,529.676 1970.09,529.676 "/>
<path clip-path="url(#clip320)" d="M2014.49 522.025 L2014.49 526.007 Q2012.69 525.011 2010.86 524.525 Q2009.05 524.016 2007.2 524.016 Q2003.06 524.016 2000.77 526.655 Q1998.47 529.271 1998.47 534.016 Q1998.47 538.761 2000.77 541.4 Q2003.06 544.016 2007.2 544.016 Q2009.05 544.016 2010.86 543.53 Q2012.69 543.021 2014.49 542.025 L2014.49 545.96 Q2012.71 546.794 2010.79 547.21 Q2008.89 547.627 2006.74 547.627 Q2000.88 547.627 1997.43 543.946 Q1993.98 540.266 1993.98 534.016 Q1993.98 527.673 1997.46 524.039 Q2000.95 520.405 2007.02 520.405 Q2008.98 520.405 2010.86 520.822 Q2012.73 521.215 2014.49 522.025 Z" fill="#000000" fill-rule="nonzero" fill-opacity="1" /><path clip-path="url(#clip320)" d="M2021.46 536.724 L2021.46 521.03 L2025.72 521.03 L2025.72 536.562 Q2025.72 540.243 2027.15 542.095 Q2028.59 543.923 2031.46 543.923 Q2034.91 543.923 2036.9 541.724 Q2038.91 539.525 2038.91 535.729 L2038.91 521.03 L2043.17 521.03 L2043.17 546.956 L2038.91 546.956 L2038.91 542.974 Q2037.36 545.335 2035.3 546.493 Q2033.27 547.627 2030.56 547.627 Q2026.09 547.627 2023.78 544.849 Q2021.46 542.071 2021.46 536.724 M2032.18 520.405 L2032.18 520.405 Z" fill="#000000" fill-rule="nonzero" fill-opacity="1" /><path clip-path="url(#clip320)" d="M2068.47 521.794 L2068.47 525.822 Q2066.67 524.896 2064.72 524.433 Q2062.78 523.97 2060.7 523.97 Q2057.53 523.97 2055.93 524.942 Q2054.35 525.914 2054.35 527.859 Q2054.35 529.34 2055.49 530.197 Q2056.62 531.03 2060.05 531.794 L2061.51 532.118 Q2066.04 533.09 2067.94 534.872 Q2069.86 536.632 2069.86 539.803 Q2069.86 543.414 2066.99 545.521 Q2064.15 547.627 2059.15 547.627 Q2057.06 547.627 2054.79 547.21 Q2052.55 546.817 2050.05 546.007 L2050.05 541.609 Q2052.41 542.835 2054.7 543.46 Q2056.99 544.062 2059.24 544.062 Q2062.25 544.062 2063.87 543.044 Q2065.49 542.002 2065.49 540.127 Q2065.49 538.391 2064.31 537.465 Q2063.15 536.539 2059.19 535.683 L2057.71 535.335 Q2053.75 534.502 2051.99 532.789 Q2050.23 531.053 2050.23 528.044 Q2050.23 524.386 2052.83 522.396 Q2055.42 520.405 2060.19 520.405 Q2062.55 520.405 2064.63 520.752 Q2066.71 521.099 2068.47 521.794 Z" fill="#000000" fill-rule="nonzero" fill-opacity="1" /><path clip-path="url(#clip320)" d="M2080.86 513.669 L2080.86 521.03 L2089.63 521.03 L2089.63 524.34 L2080.86 524.34 L2080.86 538.414 Q2080.86 541.585 2081.71 542.488 Q2082.59 543.391 2085.26 543.391 L2089.63 543.391 L2089.63 546.956 L2085.26 546.956 Q2080.33 546.956 2078.45 545.127 Q2076.58 543.275 2076.58 538.414 L2076.58 524.34 L2073.45 524.34 L2073.45 521.03 L2076.58 521.03 L2076.58 513.669 L2080.86 513.669 Z" fill="#000000" fill-rule="nonzero" fill-opacity="1" /><path clip-path="url(#clip320)" d="M2105.28 524.016 Q2101.85 524.016 2099.86 526.701 Q2097.87 529.363 2097.87 534.016 Q2097.87 538.669 2099.84 541.354 Q2101.83 544.016 2105.28 544.016 Q2108.68 544.016 2110.67 541.331 Q2112.66 538.646 2112.66 534.016 Q2112.66 529.41 2110.67 526.724 Q2108.68 524.016 2105.28 524.016 M2105.28 520.405 Q2110.84 520.405 2114.01 524.016 Q2117.18 527.627 2117.18 534.016 Q2117.18 540.382 2114.01 544.016 Q2110.84 547.627 2105.28 547.627 Q2099.7 547.627 2096.53 544.016 Q2093.38 540.382 2093.38 534.016 Q2093.38 527.627 2096.53 524.016 Q2099.7 520.405 2105.28 520.405 Z" fill="#000000" fill-rule="nonzero" fill-opacity="1" /><path clip-path="url(#clip320)" d="M2144.42 526.007 Q2146.02 523.136 2148.24 521.771 Q2150.46 520.405 2153.47 520.405 Q2157.52 520.405 2159.72 523.252 Q2161.92 526.076 2161.92 531.308 L2161.92 546.956 L2157.64 546.956 L2157.64 531.447 Q2157.64 527.72 2156.32 525.914 Q2155 524.109 2152.29 524.109 Q2148.98 524.109 2147.06 526.308 Q2145.14 528.507 2145.14 532.303 L2145.14 546.956 L2140.86 546.956 L2140.86 531.447 Q2140.86 527.697 2139.54 525.914 Q2138.22 524.109 2135.46 524.109 Q2132.2 524.109 2130.28 526.331 Q2128.36 528.53 2128.36 532.303 L2128.36 546.956 L2124.08 546.956 L2124.08 521.03 L2128.36 521.03 L2128.36 525.058 Q2129.82 522.673 2131.85 521.539 Q2133.89 520.405 2136.69 520.405 Q2139.52 520.405 2141.48 521.84 Q2143.47 523.275 2144.42 526.007 Z" fill="#000000" fill-rule="nonzero" fill-opacity="1" /><path clip-path="url(#clip320)" d="M2192.59 532.928 L2192.59 535.011 L2173.01 535.011 Q2173.29 539.409 2175.65 541.724 Q2178.03 544.016 2182.27 544.016 Q2184.72 544.016 2187.02 543.414 Q2189.33 542.812 2191.6 541.609 L2191.6 545.636 Q2189.31 546.608 2186.9 547.118 Q2184.49 547.627 2182.02 547.627 Q2175.81 547.627 2172.18 544.016 Q2168.57 540.405 2168.57 534.247 Q2168.57 527.882 2171.99 524.155 Q2175.44 520.405 2181.27 520.405 Q2186.51 520.405 2189.54 523.785 Q2192.59 527.141 2192.59 532.928 M2188.33 531.678 Q2188.29 528.183 2186.37 526.099 Q2184.47 524.016 2181.32 524.016 Q2177.76 524.016 2175.6 526.03 Q2173.47 528.044 2173.15 531.701 L2188.33 531.678 Z" fill="#000000" fill-rule="nonzero" fill-opacity="1" /><path clip-path="url(#clip320)" d="M2214.61 525.011 Q2213.89 524.595 2213.03 524.41 Q2212.2 524.201 2211.18 524.201 Q2207.57 524.201 2205.63 526.562 Q2203.7 528.9 2203.7 533.298 L2203.7 546.956 L2199.42 546.956 L2199.42 521.03 L2203.7 521.03 L2203.7 525.058 Q2205.05 522.697 2207.2 521.562 Q2209.35 520.405 2212.43 520.405 Q2212.87 520.405 2213.4 520.474 Q2213.94 520.521 2214.58 520.636 L2214.61 525.011 Z" fill="#000000" fill-rule="nonzero" fill-opacity="1" /><path clip-path="url(#clip320)" d="M2233.57 512.396 L2255.79 512.396 L2255.79 514.386 L2243.24 546.956 L2238.36 546.956 L2250.16 516.331 L2233.57 516.331 L2233.57 512.396 Z" fill="#000000" fill-rule="nonzero" fill-opacity="1" /></svg>
