<?xml version="1.0" encoding="utf-8"?>
<svg xmlns="http://www.w3.org/2000/svg" xmlns:xlink="http://www.w3.org/1999/xlink" width="600" height="400" viewBox="0 0 2400 1600">
<defs>
  <clipPath id="clip920">
    <rect x="0" y="0" width="2400" height="1600"/>
  </clipPath>
</defs>
<path clip-path="url(#clip920)" d="M0 1600 L2400 1600 L2400 0 L0 0  Z" fill="#ffffff" fill-rule="evenodd" fill-opacity="1"/>
<defs>
  <clipPath id="clip921">
    <rect x="480" y="0" width="1681" height="1600"/>
  </clipPath>
</defs>
<path clip-path="url(#clip920)" d="M234.612 1423.18 L2352.76 1423.18 L2352.76 123.472 L234.612 123.472  Z" fill="#ffffff" fill-rule="evenodd" fill-opacity="1"/>
<defs>
  <clipPath id="clip922">
    <rect x="234" y="123" width="2119" height="1301"/>
  </clipPath>
</defs>
<polyline clip-path="url(#clip922)" style="stroke:#000000; stroke-linecap:round; stroke-linejoin:round; stroke-width:2; stroke-opacity:0.1; fill:none" points="642.081,1423.18 642.081,123.472 "/>
<polyline clip-path="url(#clip922)" style="stroke:#000000; stroke-linecap:round; stroke-linejoin:round; stroke-width:2; stroke-opacity:0.1; fill:none" points="1076.48,1423.18 1076.48,123.472 "/>
<polyline clip-path="url(#clip922)" style="stroke:#000000; stroke-linecap:round; stroke-linejoin:round; stroke-width:2; stroke-opacity:0.1; fill:none" points="1510.88,1423.18 1510.88,123.472 "/>
<polyline clip-path="url(#clip922)" style="stroke:#000000; stroke-linecap:round; stroke-linejoin:round; stroke-width:2; stroke-opacity:0.1; fill:none" points="1945.29,1423.18 1945.29,123.472 "/>
<polyline clip-path="url(#clip920)" style="stroke:#000000; stroke-linecap:round; stroke-linejoin:round; stroke-width:4; stroke-opacity:1; fill:none" points="234.612,1423.18 2352.76,1423.18 "/>
<polyline clip-path="url(#clip920)" style="stroke:#000000; stroke-linecap:round; stroke-linejoin:round; stroke-width:4; stroke-opacity:1; fill:none" points="642.081,1423.18 642.081,1404.28 "/>
<polyline clip-path="url(#clip920)" style="stroke:#000000; stroke-linecap:round; stroke-linejoin:round; stroke-width:4; stroke-opacity:1; fill:none" points="1076.48,1423.18 1076.48,1404.28 "/>
<polyline clip-path="url(#clip920)" style="stroke:#000000; stroke-linecap:round; stroke-linejoin:round; stroke-width:4; stroke-opacity:1; fill:none" points="1510.88,1423.18 1510.88,1404.28 "/>
<polyline clip-path="url(#clip920)" style="stroke:#000000; stroke-linecap:round; stroke-linejoin:round; stroke-width:4; stroke-opacity:1; fill:none" points="1945.29,1423.18 1945.29,1404.28 "/>
<path clip-path="url(#clip920)" d="M632.359 1451.02 L650.715 1451.02 L650.715 1454.96 L636.641 1454.96 L636.641 1463.43 Q637.659 1463.08 638.678 1462.92 Q639.696 1462.73 640.715 1462.73 Q646.502 1462.73 649.882 1465.9 Q653.261 1469.08 653.261 1474.49 Q653.261 1480.07 649.789 1483.17 Q646.317 1486.25 639.997 1486.25 Q637.821 1486.25 635.553 1485.88 Q633.308 1485.51 630.9 1484.77 L630.9 1480.07 Q632.983 1481.2 635.206 1481.76 Q637.428 1482.32 639.905 1482.32 Q643.909 1482.32 646.247 1480.21 Q648.585 1478.1 648.585 1474.49 Q648.585 1470.88 646.247 1468.77 Q643.909 1466.67 639.905 1466.67 Q638.03 1466.67 636.155 1467.08 Q634.303 1467.5 632.359 1468.38 L632.359 1451.02 Z" fill="#000000" fill-rule="nonzero" fill-opacity="1" /><path clip-path="url(#clip920)" d="M1051.17 1481.64 L1058.81 1481.64 L1058.81 1455.28 L1050.5 1456.95 L1050.5 1452.69 L1058.76 1451.02 L1063.44 1451.02 L1063.44 1481.64 L1071.08 1481.64 L1071.08 1485.58 L1051.17 1485.58 L1051.17 1481.64 Z" fill="#000000" fill-rule="nonzero" fill-opacity="1" /><path clip-path="url(#clip920)" d="M1090.52 1454.1 Q1086.91 1454.1 1085.08 1457.66 Q1083.28 1461.2 1083.28 1468.33 Q1083.28 1475.44 1085.08 1479.01 Q1086.91 1482.55 1090.52 1482.55 Q1094.16 1482.55 1095.96 1479.01 Q1097.79 1475.44 1097.79 1468.33 Q1097.79 1461.2 1095.96 1457.66 Q1094.16 1454.1 1090.52 1454.1 M1090.52 1450.39 Q1096.33 1450.39 1099.39 1455 Q1102.47 1459.58 1102.47 1468.33 Q1102.47 1477.06 1099.39 1481.67 Q1096.33 1486.25 1090.52 1486.25 Q1084.71 1486.25 1081.63 1481.67 Q1078.58 1477.06 1078.58 1468.33 Q1078.58 1459.58 1081.63 1455 Q1084.71 1450.39 1090.52 1450.39 Z" fill="#000000" fill-rule="nonzero" fill-opacity="1" /><path clip-path="url(#clip920)" d="M1486.07 1481.64 L1493.71 1481.64 L1493.71 1455.28 L1485.4 1456.95 L1485.4 1452.69 L1493.66 1451.02 L1498.34 1451.02 L1498.34 1481.64 L1505.98 1481.64 L1505.98 1485.58 L1486.07 1485.58 L1486.07 1481.64 Z" fill="#000000" fill-rule="nonzero" fill-opacity="1" /><path clip-path="url(#clip920)" d="M1515.47 1451.02 L1533.82 1451.02 L1533.82 1454.96 L1519.75 1454.96 L1519.75 1463.43 Q1520.77 1463.08 1521.79 1462.92 Q1522.81 1462.73 1523.82 1462.73 Q1529.61 1462.73 1532.99 1465.9 Q1536.37 1469.08 1536.37 1474.49 Q1536.37 1480.07 1532.9 1483.17 Q1529.43 1486.25 1523.11 1486.25 Q1520.93 1486.25 1518.66 1485.88 Q1516.42 1485.51 1514.01 1484.77 L1514.01 1480.07 Q1516.09 1481.2 1518.32 1481.76 Q1520.54 1482.32 1523.01 1482.32 Q1527.02 1482.32 1529.36 1480.21 Q1531.69 1478.1 1531.69 1474.49 Q1531.69 1470.88 1529.36 1468.77 Q1527.02 1466.67 1523.01 1466.67 Q1521.14 1466.67 1519.26 1467.08 Q1517.41 1467.5 1515.47 1468.38 L1515.47 1451.02 Z" fill="#000000" fill-rule="nonzero" fill-opacity="1" /><path clip-path="url(#clip920)" d="M1924.06 1481.64 L1940.38 1481.64 L1940.38 1485.58 L1918.44 1485.58 L1918.44 1481.64 Q1921.1 1478.89 1925.68 1474.26 Q1930.29 1469.61 1931.47 1468.27 Q1933.71 1465.74 1934.59 1464.01 Q1935.5 1462.25 1935.5 1460.56 Q1935.5 1457.8 1933.55 1456.07 Q1931.63 1454.33 1928.53 1454.33 Q1926.33 1454.33 1923.87 1455.09 Q1921.44 1455.86 1918.67 1457.41 L1918.67 1452.69 Q1921.49 1451.55 1923.94 1450.97 Q1926.4 1450.39 1928.44 1450.39 Q1933.81 1450.39 1937 1453.08 Q1940.19 1455.77 1940.19 1460.26 Q1940.19 1462.39 1939.38 1464.31 Q1938.6 1466.2 1936.49 1468.8 Q1935.91 1469.47 1932.81 1472.69 Q1929.71 1475.88 1924.06 1481.64 Z" fill="#000000" fill-rule="nonzero" fill-opacity="1" /><path clip-path="url(#clip920)" d="M1960.19 1454.1 Q1956.58 1454.1 1954.75 1457.66 Q1952.95 1461.2 1952.95 1468.33 Q1952.95 1475.44 1954.75 1479.01 Q1956.58 1482.55 1960.19 1482.55 Q1963.83 1482.55 1965.63 1479.01 Q1967.46 1475.44 1967.46 1468.33 Q1967.46 1461.2 1965.63 1457.66 Q1963.83 1454.1 1960.19 1454.1 M1960.19 1450.39 Q1966 1450.39 1969.06 1455 Q1972.14 1459.58 1972.14 1468.33 Q1972.14 1477.06 1969.06 1481.67 Q1966 1486.25 1960.19 1486.25 Q1954.38 1486.25 1951.31 1481.67 Q1948.25 1477.06 1948.25 1468.33 Q1948.25 1459.58 1951.31 1455 Q1954.38 1450.39 1960.19 1450.39 Z" fill="#000000" fill-rule="nonzero" fill-opacity="1" /><path clip-path="url(#clip920)" d="M1106.18 1520.52 L1146.38 1520.52 L1146.38 1525.93 L1129.51 1525.93 L1129.51 1568.04 L1123.05 1568.04 L1123.05 1525.93 L1106.18 1525.93 L1106.18 1520.52 Z" fill="#000000" fill-rule="nonzero" fill-opacity="1" /><path clip-path="url(#clip920)" d="M1150.33 1532.4 L1156.18 1532.4 L1156.18 1568.04 L1150.33 1568.04 L1150.33 1532.4 M1150.33 1518.52 L1156.18 1518.52 L1156.18 1525.93 L1150.33 1525.93 L1150.33 1518.52 Z" fill="#000000" fill-rule="nonzero" fill-opacity="1" /><path clip-path="url(#clip920)" d="M1196.19 1539.24 Q1198.39 1535.29 1201.44 1533.41 Q1204.5 1531.54 1208.64 1531.54 Q1214.21 1531.54 1217.23 1535.45 Q1220.26 1539.33 1220.26 1546.53 L1220.26 1568.04 L1214.37 1568.04 L1214.37 1546.72 Q1214.37 1541.59 1212.55 1539.11 Q1210.74 1536.63 1207.01 1536.63 Q1202.46 1536.63 1199.82 1539.65 Q1197.18 1542.68 1197.18 1547.9 L1197.18 1568.04 L1191.29 1568.04 L1191.29 1546.72 Q1191.29 1541.56 1189.48 1539.11 Q1187.66 1536.63 1183.88 1536.63 Q1179.39 1536.63 1176.75 1539.68 Q1174.1 1542.71 1174.1 1547.9 L1174.1 1568.04 L1168.22 1568.04 L1168.22 1532.4 L1174.1 1532.4 L1174.1 1537.93 Q1176.11 1534.66 1178.91 1533.1 Q1181.71 1531.54 1185.56 1531.54 Q1189.45 1531.54 1192.15 1533.51 Q1194.89 1535.48 1196.19 1539.24 Z" fill="#000000" fill-rule="nonzero" fill-opacity="1" /><path clip-path="url(#clip920)" d="M1262.43 1548.76 L1262.43 1551.62 L1235.5 1551.62 Q1235.88 1557.67 1239.13 1560.85 Q1242.41 1564 1248.23 1564 Q1251.61 1564 1254.76 1563.17 Q1257.94 1562.35 1261.06 1560.69 L1261.06 1566.23 Q1257.91 1567.57 1254.6 1568.27 Q1251.29 1568.97 1247.88 1568.97 Q1239.35 1568.97 1234.36 1564 Q1229.39 1559.04 1229.39 1550.57 Q1229.39 1541.82 1234.1 1536.69 Q1238.84 1531.54 1246.86 1531.54 Q1254.06 1531.54 1258.23 1536.18 Q1262.43 1540.8 1262.43 1548.76 M1256.57 1547.04 Q1256.51 1542.23 1253.87 1539.37 Q1251.26 1536.5 1246.93 1536.5 Q1242.03 1536.5 1239.07 1539.27 Q1236.14 1542.04 1235.69 1547.07 L1256.57 1547.04 Z" fill="#000000" fill-rule="nonzero" fill-opacity="1" /><path clip-path="url(#clip920)" d="M1306.83 1518.58 Q1302.56 1525.9 1300.5 1533.06 Q1298.43 1540.23 1298.43 1547.58 Q1298.43 1554.93 1300.5 1562.16 Q1302.6 1569.35 1306.83 1576.64 L1301.74 1576.64 Q1296.96 1569.16 1294.57 1561.93 Q1292.22 1554.71 1292.22 1547.58 Q1292.22 1540.48 1294.57 1533.29 Q1296.93 1526.09 1301.74 1518.58 L1306.83 1518.58 Z" fill="#000000" fill-rule="nonzero" fill-opacity="1" /><path clip-path="url(#clip920)" d="M1347.82 1546.53 L1347.82 1568.04 L1341.97 1568.04 L1341.97 1546.72 Q1341.97 1541.66 1339.99 1539.14 Q1338.02 1536.63 1334.07 1536.63 Q1329.33 1536.63 1326.59 1539.65 Q1323.86 1542.68 1323.86 1547.9 L1323.86 1568.04 L1317.97 1568.04 L1317.97 1518.52 L1323.86 1518.52 L1323.86 1537.93 Q1325.96 1534.72 1328.79 1533.13 Q1331.66 1531.54 1335.38 1531.54 Q1341.52 1531.54 1344.67 1535.36 Q1347.82 1539.14 1347.82 1546.53 Z" fill="#000000" fill-rule="nonzero" fill-opacity="1" /><path clip-path="url(#clip920)" d="M1373.32 1536.5 Q1368.61 1536.5 1365.87 1540.19 Q1363.13 1543.85 1363.13 1550.25 Q1363.13 1556.65 1365.84 1560.34 Q1368.58 1564 1373.32 1564 Q1378 1564 1380.73 1560.31 Q1383.47 1556.62 1383.47 1550.25 Q1383.47 1543.92 1380.73 1540.23 Q1378 1536.5 1373.32 1536.5 M1373.32 1531.54 Q1380.96 1531.54 1385.32 1536.5 Q1389.68 1541.47 1389.68 1550.25 Q1389.68 1559 1385.32 1564 Q1380.96 1568.97 1373.32 1568.97 Q1365.65 1568.97 1361.29 1564 Q1356.96 1559 1356.96 1550.25 Q1356.96 1541.47 1361.29 1536.5 Q1365.65 1531.54 1373.32 1531.54 Z" fill="#000000" fill-rule="nonzero" fill-opacity="1" /><path clip-path="url(#clip920)" d="M1398.78 1553.98 L1398.78 1532.4 L1404.64 1532.4 L1404.64 1553.75 Q1404.64 1558.81 1406.61 1561.36 Q1408.58 1563.87 1412.53 1563.87 Q1417.27 1563.87 1420.01 1560.85 Q1422.78 1557.83 1422.78 1552.61 L1422.78 1532.4 L1428.64 1532.4 L1428.64 1568.04 L1422.78 1568.04 L1422.78 1562.57 Q1420.65 1565.82 1417.82 1567.41 Q1415.01 1568.97 1411.29 1568.97 Q1405.15 1568.97 1401.96 1565.15 Q1398.78 1561.33 1398.78 1553.98 M1413.52 1531.54 L1413.52 1531.54 Z" fill="#000000" fill-rule="nonzero" fill-opacity="1" /><path clip-path="url(#clip920)" d="M1461.36 1537.87 Q1460.37 1537.3 1459.19 1537.04 Q1458.05 1536.76 1456.65 1536.76 Q1451.68 1536.76 1449.01 1540 Q1446.37 1543.22 1446.37 1549.27 L1446.37 1568.04 L1440.48 1568.04 L1440.48 1532.4 L1446.37 1532.4 L1446.37 1537.93 Q1448.21 1534.69 1451.17 1533.13 Q1454.13 1531.54 1458.36 1531.54 Q1458.97 1531.54 1459.7 1531.63 Q1460.43 1531.7 1461.32 1531.85 L1461.36 1537.87 Z" fill="#000000" fill-rule="nonzero" fill-opacity="1" /><path clip-path="url(#clip920)" d="M1466.58 1518.58 L1471.67 1518.58 Q1476.44 1526.09 1478.8 1533.29 Q1481.19 1540.48 1481.19 1547.58 Q1481.19 1554.71 1478.8 1561.93 Q1476.44 1569.16 1471.67 1576.64 L1466.58 1576.64 Q1470.81 1569.35 1472.88 1562.16 Q1474.98 1554.93 1474.98 1547.58 Q1474.98 1540.23 1472.88 1533.06 Q1470.81 1525.9 1466.58 1518.58 Z" fill="#000000" fill-rule="nonzero" fill-opacity="1" /><polyline clip-path="url(#clip922)" style="stroke:#000000; stroke-linecap:round; stroke-linejoin:round; stroke-width:2; stroke-opacity:0.1; fill:none" points="234.612,1298.95 2352.76,1298.95 "/>
<polyline clip-path="url(#clip922)" style="stroke:#000000; stroke-linecap:round; stroke-linejoin:round; stroke-width:2; stroke-opacity:0.1; fill:none" points="234.612,1070.69 2352.76,1070.69 "/>
<polyline clip-path="url(#clip922)" style="stroke:#000000; stroke-linecap:round; stroke-linejoin:round; stroke-width:2; stroke-opacity:0.1; fill:none" points="234.612,842.428 2352.76,842.428 "/>
<polyline clip-path="url(#clip922)" style="stroke:#000000; stroke-linecap:round; stroke-linejoin:round; stroke-width:2; stroke-opacity:0.1; fill:none" points="234.612,614.164 2352.76,614.164 "/>
<polyline clip-path="url(#clip922)" style="stroke:#000000; stroke-linecap:round; stroke-linejoin:round; stroke-width:2; stroke-opacity:0.1; fill:none" points="234.612,385.901 2352.76,385.901 "/>
<polyline clip-path="url(#clip922)" style="stroke:#000000; stroke-linecap:round; stroke-linejoin:round; stroke-width:2; stroke-opacity:0.1; fill:none" points="234.612,157.638 2352.76,157.638 "/>
<polyline clip-path="url(#clip920)" style="stroke:#000000; stroke-linecap:round; stroke-linejoin:round; stroke-width:4; stroke-opacity:1; fill:none" points="234.612,1423.18 234.612,123.472 "/>
<polyline clip-path="url(#clip920)" style="stroke:#000000; stroke-linecap:round; stroke-linejoin:round; stroke-width:4; stroke-opacity:1; fill:none" points="234.612,1298.95 253.509,1298.95 "/>
<polyline clip-path="url(#clip920)" style="stroke:#000000; stroke-linecap:round; stroke-linejoin:round; stroke-width:4; stroke-opacity:1; fill:none" points="234.612,1070.69 253.509,1070.69 "/>
<polyline clip-path="url(#clip920)" style="stroke:#000000; stroke-linecap:round; stroke-linejoin:round; stroke-width:4; stroke-opacity:1; fill:none" points="234.612,842.428 253.509,842.428 "/>
<polyline clip-path="url(#clip920)" style="stroke:#000000; stroke-linecap:round; stroke-linejoin:round; stroke-width:4; stroke-opacity:1; fill:none" points="234.612,614.164 253.509,614.164 "/>
<polyline clip-path="url(#clip920)" style="stroke:#000000; stroke-linecap:round; stroke-linejoin:round; stroke-width:4; stroke-opacity:1; fill:none" points="234.612,385.901 253.509,385.901 "/>
<polyline clip-path="url(#clip920)" style="stroke:#000000; stroke-linecap:round; stroke-linejoin:round; stroke-width:4; stroke-opacity:1; fill:none" points="234.612,157.638 253.509,157.638 "/>
<path clip-path="url(#clip920)" d="M115.163 1281.67 L137.385 1281.67 L137.385 1283.66 L124.839 1316.23 L119.955 1316.23 L131.76 1285.61 L115.163 1285.61 L115.163 1281.67 Z" fill="#000000" fill-rule="nonzero" fill-opacity="1" /><path clip-path="url(#clip920)" d="M156.505 1284.75 Q152.894 1284.75 151.066 1288.32 Q149.26 1291.86 149.26 1298.99 Q149.26 1306.1 151.066 1309.66 Q152.894 1313.2 156.505 1313.2 Q160.14 1313.2 161.945 1309.66 Q163.774 1306.1 163.774 1298.99 Q163.774 1291.86 161.945 1288.32 Q160.14 1284.75 156.505 1284.75 M156.505 1281.05 Q162.315 1281.05 165.371 1285.66 Q168.45 1290.24 168.45 1298.99 Q168.45 1307.72 165.371 1312.32 Q162.315 1316.91 156.505 1316.91 Q150.695 1316.91 147.616 1312.32 Q144.561 1307.72 144.561 1298.99 Q144.561 1290.24 147.616 1285.66 Q150.695 1281.05 156.505 1281.05 Z" fill="#000000" fill-rule="nonzero" fill-opacity="1" /><path clip-path="url(#clip920)" d="M186.667 1284.75 Q183.056 1284.75 181.227 1288.32 Q179.422 1291.86 179.422 1298.99 Q179.422 1306.1 181.227 1309.66 Q183.056 1313.2 186.667 1313.2 Q190.301 1313.2 192.107 1309.66 Q193.936 1306.1 193.936 1298.99 Q193.936 1291.86 192.107 1288.32 Q190.301 1284.75 186.667 1284.75 M186.667 1281.05 Q192.477 1281.05 195.533 1285.66 Q198.612 1290.24 198.612 1298.99 Q198.612 1307.72 195.533 1312.32 Q192.477 1316.91 186.667 1316.91 Q180.857 1316.91 177.778 1312.32 Q174.723 1307.72 174.723 1298.99 Q174.723 1290.24 177.778 1285.66 Q180.857 1281.05 186.667 1281.05 Z" fill="#000000" fill-rule="nonzero" fill-opacity="1" /><path clip-path="url(#clip920)" d="M115.163 1053.41 L137.385 1053.41 L137.385 1055.4 L124.839 1087.97 L119.955 1087.97 L131.76 1057.35 L115.163 1057.35 L115.163 1053.41 Z" fill="#000000" fill-rule="nonzero" fill-opacity="1" /><path clip-path="url(#clip920)" d="M146.552 1053.41 L164.908 1053.41 L164.908 1057.35 L150.834 1057.35 L150.834 1065.82 Q151.853 1065.47 152.871 1065.31 Q153.89 1065.12 154.908 1065.12 Q160.695 1065.12 164.075 1068.3 Q167.454 1071.47 167.454 1076.88 Q167.454 1082.46 163.982 1085.56 Q160.51 1088.64 154.19 1088.64 Q152.015 1088.64 149.746 1088.27 Q147.501 1087.9 145.093 1087.16 L145.093 1082.46 Q147.177 1083.6 149.399 1084.15 Q151.621 1084.71 154.098 1084.71 Q158.103 1084.71 160.44 1082.6 Q162.778 1080.49 162.778 1076.88 Q162.778 1073.27 160.44 1071.17 Q158.103 1069.06 154.098 1069.06 Q152.223 1069.06 150.348 1069.48 Q148.496 1069.89 146.552 1070.77 L146.552 1053.41 Z" fill="#000000" fill-rule="nonzero" fill-opacity="1" /><path clip-path="url(#clip920)" d="M186.667 1056.49 Q183.056 1056.49 181.227 1060.05 Q179.422 1063.6 179.422 1070.73 Q179.422 1077.83 181.227 1081.4 Q183.056 1084.94 186.667 1084.94 Q190.301 1084.94 192.107 1081.4 Q193.936 1077.83 193.936 1070.73 Q193.936 1063.6 192.107 1060.05 Q190.301 1056.49 186.667 1056.49 M186.667 1052.79 Q192.477 1052.79 195.533 1057.39 Q198.612 1061.98 198.612 1070.73 Q198.612 1079.45 195.533 1084.06 Q192.477 1088.64 186.667 1088.64 Q180.857 1088.64 177.778 1084.06 Q174.723 1079.45 174.723 1070.73 Q174.723 1061.98 177.778 1057.39 Q180.857 1052.79 186.667 1052.79 Z" fill="#000000" fill-rule="nonzero" fill-opacity="1" /><path clip-path="url(#clip920)" d="M126.343 843.296 Q123.01 843.296 121.089 845.078 Q119.191 846.86 119.191 849.985 Q119.191 853.11 121.089 854.893 Q123.01 856.675 126.343 856.675 Q129.677 856.675 131.598 854.893 Q133.519 853.087 133.519 849.985 Q133.519 846.86 131.598 845.078 Q129.7 843.296 126.343 843.296 M121.668 841.305 Q118.658 840.564 116.968 838.504 Q115.302 836.444 115.302 833.481 Q115.302 829.337 118.242 826.93 Q121.205 824.523 126.343 824.523 Q131.505 824.523 134.445 826.93 Q137.385 829.337 137.385 833.481 Q137.385 836.444 135.695 838.504 Q134.029 840.564 131.042 841.305 Q134.422 842.092 136.297 844.384 Q138.195 846.675 138.195 849.985 Q138.195 855.009 135.117 857.694 Q132.061 860.379 126.343 860.379 Q120.626 860.379 117.547 857.694 Q114.492 855.009 114.492 849.985 Q114.492 846.675 116.39 844.384 Q118.288 842.092 121.668 841.305 M119.955 833.921 Q119.955 836.606 121.621 838.11 Q123.311 839.615 126.343 839.615 Q129.353 839.615 131.042 838.11 Q132.755 836.606 132.755 833.921 Q132.755 831.235 131.042 829.731 Q129.353 828.226 126.343 828.226 Q123.311 828.226 121.621 829.731 Q119.955 831.235 119.955 833.921 Z" fill="#000000" fill-rule="nonzero" fill-opacity="1" /><path clip-path="url(#clip920)" d="M156.505 828.226 Q152.894 828.226 151.066 831.791 Q149.26 835.333 149.26 842.462 Q149.26 849.569 151.066 853.134 Q152.894 856.675 156.505 856.675 Q160.14 856.675 161.945 853.134 Q163.774 849.569 163.774 842.462 Q163.774 835.333 161.945 831.791 Q160.14 828.226 156.505 828.226 M156.505 824.523 Q162.315 824.523 165.371 829.129 Q168.45 833.712 168.45 842.462 Q168.45 851.189 165.371 855.796 Q162.315 860.379 156.505 860.379 Q150.695 860.379 147.616 855.796 Q144.561 851.189 144.561 842.462 Q144.561 833.712 147.616 829.129 Q150.695 824.523 156.505 824.523 Z" fill="#000000" fill-rule="nonzero" fill-opacity="1" /><path clip-path="url(#clip920)" d="M186.667 828.226 Q183.056 828.226 181.227 831.791 Q179.422 835.333 179.422 842.462 Q179.422 849.569 181.227 853.134 Q183.056 856.675 186.667 856.675 Q190.301 856.675 192.107 853.134 Q193.936 849.569 193.936 842.462 Q193.936 835.333 192.107 831.791 Q190.301 828.226 186.667 828.226 M186.667 824.523 Q192.477 824.523 195.533 829.129 Q198.612 833.712 198.612 842.462 Q198.612 851.189 195.533 855.796 Q192.477 860.379 186.667 860.379 Q180.857 860.379 177.778 855.796 Q174.723 851.189 174.723 842.462 Q174.723 833.712 177.778 829.129 Q180.857 824.523 186.667 824.523 Z" fill="#000000" fill-rule="nonzero" fill-opacity="1" /><path clip-path="url(#clip920)" d="M126.343 615.032 Q123.01 615.032 121.089 616.815 Q119.191 618.597 119.191 621.722 Q119.191 624.847 121.089 626.629 Q123.01 628.412 126.343 628.412 Q129.677 628.412 131.598 626.629 Q133.519 624.824 133.519 621.722 Q133.519 618.597 131.598 616.815 Q129.7 615.032 126.343 615.032 M121.668 613.042 Q118.658 612.301 116.968 610.241 Q115.302 608.18 115.302 605.218 Q115.302 601.074 118.242 598.667 Q121.205 596.259 126.343 596.259 Q131.505 596.259 134.445 598.667 Q137.385 601.074 137.385 605.218 Q137.385 608.18 135.695 610.241 Q134.029 612.301 131.042 613.042 Q134.422 613.829 136.297 616.12 Q138.195 618.412 138.195 621.722 Q138.195 626.745 135.117 629.43 Q132.061 632.116 126.343 632.116 Q120.626 632.116 117.547 629.43 Q114.492 626.745 114.492 621.722 Q114.492 618.412 116.39 616.12 Q118.288 613.829 121.668 613.042 M119.955 605.657 Q119.955 608.343 121.621 609.847 Q123.311 611.352 126.343 611.352 Q129.353 611.352 131.042 609.847 Q132.755 608.343 132.755 605.657 Q132.755 602.972 131.042 601.468 Q129.353 599.963 126.343 599.963 Q123.311 599.963 121.621 601.468 Q119.955 602.972 119.955 605.657 Z" fill="#000000" fill-rule="nonzero" fill-opacity="1" /><path clip-path="url(#clip920)" d="M146.552 596.884 L164.908 596.884 L164.908 600.819 L150.834 600.819 L150.834 609.292 Q151.853 608.944 152.871 608.782 Q153.89 608.597 154.908 608.597 Q160.695 608.597 164.075 611.768 Q167.454 614.94 167.454 620.356 Q167.454 625.935 163.982 629.037 Q160.51 632.116 154.19 632.116 Q152.015 632.116 149.746 631.745 Q147.501 631.375 145.093 630.634 L145.093 625.935 Q147.177 627.069 149.399 627.625 Q151.621 628.18 154.098 628.18 Q158.103 628.18 160.44 626.074 Q162.778 623.967 162.778 620.356 Q162.778 616.745 160.44 614.639 Q158.103 612.532 154.098 612.532 Q152.223 612.532 150.348 612.949 Q148.496 613.366 146.552 614.245 L146.552 596.884 Z" fill="#000000" fill-rule="nonzero" fill-opacity="1" /><path clip-path="url(#clip920)" d="M186.667 599.963 Q183.056 599.963 181.227 603.528 Q179.422 607.069 179.422 614.199 Q179.422 621.305 181.227 624.87 Q183.056 628.412 186.667 628.412 Q190.301 628.412 192.107 624.87 Q193.936 621.305 193.936 614.199 Q193.936 607.069 192.107 603.528 Q190.301 599.963 186.667 599.963 M186.667 596.259 Q192.477 596.259 195.533 600.866 Q198.612 605.449 198.612 614.199 Q198.612 622.926 195.533 627.532 Q192.477 632.116 186.667 632.116 Q180.857 632.116 177.778 627.532 Q174.723 622.926 174.723 614.199 Q174.723 605.449 177.778 600.866 Q180.857 596.259 186.667 596.259 Z" fill="#000000" fill-rule="nonzero" fill-opacity="1" /><path clip-path="url(#clip920)" d="M116.482 402.463 L116.482 398.204 Q118.242 399.037 120.047 399.477 Q121.853 399.917 123.589 399.917 Q128.218 399.917 130.649 396.815 Q133.103 393.69 133.45 387.348 Q132.107 389.338 130.047 390.403 Q127.987 391.468 125.487 391.468 Q120.302 391.468 117.269 388.343 Q114.26 385.195 114.26 379.755 Q114.26 374.431 117.408 371.213 Q120.556 367.996 125.788 367.996 Q131.783 367.996 134.931 372.602 Q138.103 377.186 138.103 385.936 Q138.103 394.107 134.214 398.991 Q130.348 403.852 123.797 403.852 Q122.038 403.852 120.232 403.505 Q118.427 403.158 116.482 402.463 M125.788 387.811 Q128.936 387.811 130.765 385.658 Q132.617 383.505 132.617 379.755 Q132.617 376.028 130.765 373.876 Q128.936 371.7 125.788 371.7 Q122.64 371.7 120.788 373.876 Q118.959 376.028 118.959 379.755 Q118.959 383.505 120.788 385.658 Q122.64 387.811 125.788 387.811 Z" fill="#000000" fill-rule="nonzero" fill-opacity="1" /><path clip-path="url(#clip920)" d="M156.505 371.7 Q152.894 371.7 151.066 375.264 Q149.26 378.806 149.26 385.936 Q149.26 393.042 151.066 396.607 Q152.894 400.149 156.505 400.149 Q160.14 400.149 161.945 396.607 Q163.774 393.042 163.774 385.936 Q163.774 378.806 161.945 375.264 Q160.14 371.7 156.505 371.7 M156.505 367.996 Q162.315 367.996 165.371 372.602 Q168.45 377.186 168.45 385.936 Q168.45 394.662 165.371 399.269 Q162.315 403.852 156.505 403.852 Q150.695 403.852 147.616 399.269 Q144.561 394.662 144.561 385.936 Q144.561 377.186 147.616 372.602 Q150.695 367.996 156.505 367.996 Z" fill="#000000" fill-rule="nonzero" fill-opacity="1" /><path clip-path="url(#clip920)" d="M186.667 371.7 Q183.056 371.7 181.227 375.264 Q179.422 378.806 179.422 385.936 Q179.422 393.042 181.227 396.607 Q183.056 400.149 186.667 400.149 Q190.301 400.149 192.107 396.607 Q193.936 393.042 193.936 385.936 Q193.936 378.806 192.107 375.264 Q190.301 371.7 186.667 371.7 M186.667 367.996 Q192.477 367.996 195.533 372.602 Q198.612 377.186 198.612 385.936 Q198.612 394.662 195.533 399.269 Q192.477 403.852 186.667 403.852 Q180.857 403.852 177.778 399.269 Q174.723 394.662 174.723 385.936 Q174.723 377.186 177.778 372.602 Q180.857 367.996 186.667 367.996 Z" fill="#000000" fill-rule="nonzero" fill-opacity="1" /><path clip-path="url(#clip920)" d="M116.482 174.2 L116.482 169.941 Q118.242 170.774 120.047 171.214 Q121.853 171.654 123.589 171.654 Q128.218 171.654 130.649 168.552 Q133.103 165.427 133.45 159.084 Q132.107 161.075 130.047 162.14 Q127.987 163.205 125.487 163.205 Q120.302 163.205 117.269 160.08 Q114.26 156.932 114.26 151.492 Q114.26 146.168 117.408 142.95 Q120.556 139.733 125.788 139.733 Q131.783 139.733 134.931 144.339 Q138.103 148.922 138.103 157.672 Q138.103 165.844 134.214 170.728 Q130.348 175.589 123.797 175.589 Q122.038 175.589 120.232 175.242 Q118.427 174.894 116.482 174.2 M125.788 159.547 Q128.936 159.547 130.765 157.395 Q132.617 155.242 132.617 151.492 Q132.617 147.765 130.765 145.612 Q128.936 143.436 125.788 143.436 Q122.64 143.436 120.788 145.612 Q118.959 147.765 118.959 151.492 Q118.959 155.242 120.788 157.395 Q122.64 159.547 125.788 159.547 Z" fill="#000000" fill-rule="nonzero" fill-opacity="1" /><path clip-path="url(#clip920)" d="M146.552 140.358 L164.908 140.358 L164.908 144.293 L150.834 144.293 L150.834 152.765 Q151.853 152.418 152.871 152.256 Q153.89 152.07 154.908 152.07 Q160.695 152.07 164.075 155.242 Q167.454 158.413 167.454 163.83 Q167.454 169.408 163.982 172.51 Q160.51 175.589 154.19 175.589 Q152.015 175.589 149.746 175.219 Q147.501 174.848 145.093 174.107 L145.093 169.408 Q147.177 170.543 149.399 171.098 Q151.621 171.654 154.098 171.654 Q158.103 171.654 160.44 169.547 Q162.778 167.441 162.778 163.83 Q162.778 160.219 160.44 158.112 Q158.103 156.006 154.098 156.006 Q152.223 156.006 150.348 156.422 Q148.496 156.839 146.552 157.719 L146.552 140.358 Z" fill="#000000" fill-rule="nonzero" fill-opacity="1" /><path clip-path="url(#clip920)" d="M186.667 143.436 Q183.056 143.436 181.227 147.001 Q179.422 150.543 179.422 157.672 Q179.422 164.779 181.227 168.344 Q183.056 171.885 186.667 171.885 Q190.301 171.885 192.107 168.344 Q193.936 164.779 193.936 157.672 Q193.936 150.543 192.107 147.001 Q190.301 143.436 186.667 143.436 M186.667 139.733 Q192.477 139.733 195.533 144.339 Q198.612 148.922 198.612 157.672 Q198.612 166.399 195.533 171.006 Q192.477 175.589 186.667 175.589 Q180.857 175.589 177.778 171.006 Q174.723 166.399 174.723 157.672 Q174.723 148.922 177.778 144.339 Q180.857 139.733 186.667 139.733 Z" fill="#000000" fill-rule="nonzero" fill-opacity="1" /><path clip-path="url(#clip920)" d="M57.2247 1104.1 L44.4614 1104.1 L44.4614 1114.61 L39.1779 1114.61 L39.1779 1097.74 L59.58 1097.74 Q62.2218 1101.46 63.5904 1105.95 Q64.9272 1110.44 64.9272 1115.53 Q64.9272 1126.67 58.4342 1132.97 Q51.9093 1139.24 40.2919 1139.24 Q28.6427 1139.24 22.1496 1132.97 Q15.6248 1126.67 15.6248 1115.53 Q15.6248 1110.88 16.7706 1106.71 Q17.9164 1102.51 20.1444 1098.98 L26.9876 1098.98 Q23.9639 1102.54 22.4361 1106.55 Q20.9083 1110.57 20.9083 1114.99 Q20.9083 1123.71 25.7781 1128.1 Q30.6479 1132.46 40.2919 1132.46 Q49.9041 1132.46 54.7739 1128.1 Q59.6436 1123.71 59.6436 1114.99 Q59.6436 1111.58 59.0707 1108.91 Q58.466 1106.24 57.2247 1104.1 Z" fill="#000000" fill-rule="nonzero" fill-opacity="1" /><path clip-path="url(#clip920)" d="M44.7161 1055.76 L47.5806 1055.76 L47.5806 1082.68 Q53.6281 1082.3 56.8109 1079.05 Q59.9619 1075.78 59.9619 1069.95 Q59.9619 1066.58 59.1344 1063.43 Q58.3069 1060.24 56.6518 1057.13 L62.1899 1057.13 Q63.5267 1060.28 64.227 1063.59 Q64.9272 1066.9 64.9272 1070.3 Q64.9272 1078.83 59.9619 1083.83 Q54.9967 1088.79 46.5303 1088.79 Q37.7774 1088.79 32.6531 1084.08 Q27.4968 1079.34 27.4968 1071.32 Q27.4968 1064.13 32.1438 1059.96 Q36.7589 1055.76 44.7161 1055.76 M42.9973 1061.61 Q38.1912 1061.68 35.3266 1064.32 Q32.4621 1066.93 32.4621 1071.26 Q32.4621 1076.16 35.2312 1079.12 Q38.0002 1082.05 43.0292 1082.49 L42.9973 1061.61 Z" fill="#000000" fill-rule="nonzero" fill-opacity="1" /><path clip-path="url(#clip920)" d="M42.4881 1016.51 L64.0042 1016.51 L64.0042 1022.37 L42.679 1022.37 Q37.6183 1022.37 35.1038 1024.34 Q32.5894 1026.32 32.5894 1030.26 Q32.5894 1035 35.6131 1037.74 Q38.6368 1040.48 43.8567 1040.48 L64.0042 1040.48 L64.0042 1046.37 L28.3562 1046.37 L28.3562 1040.48 L33.8944 1040.48 Q30.6797 1038.38 29.0883 1035.55 Q27.4968 1032.68 27.4968 1028.96 Q27.4968 1022.81 31.3163 1019.66 Q35.1038 1016.51 42.4881 1016.51 Z" fill="#000000" fill-rule="nonzero" fill-opacity="1" /><path clip-path="url(#clip920)" d="M44.7161 974.339 L47.5806 974.339 L47.5806 1001.27 Q53.6281 1000.88 56.8109 997.638 Q59.9619 994.359 59.9619 988.535 Q59.9619 985.161 59.1344 982.01 Q58.3069 978.827 56.6518 975.708 L62.1899 975.708 Q63.5267 978.859 64.227 982.169 Q64.9272 985.479 64.9272 988.885 Q64.9272 997.415 59.9619 1002.41 Q54.9967 1007.38 46.5303 1007.38 Q37.7774 1007.38 32.6531 1002.67 Q27.4968 997.924 27.4968 989.903 Q27.4968 982.71 32.1438 978.54 Q36.7589 974.339 44.7161 974.339 M42.9973 980.196 Q38.1912 980.259 35.3266 982.901 Q32.4621 985.511 32.4621 989.84 Q32.4621 994.741 35.2312 997.701 Q38.0002 1000.63 43.0292 1001.08 L42.9973 980.196 Z" fill="#000000" fill-rule="nonzero" fill-opacity="1" /><path clip-path="url(#clip920)" d="M33.8307 944.07 Q33.2578 945.057 33.0032 946.234 Q32.7167 947.38 32.7167 948.781 Q32.7167 953.746 35.9632 956.42 Q39.1779 959.061 45.2253 959.061 L64.0042 959.061 L64.0042 964.95 L28.3562 964.95 L28.3562 959.061 L33.8944 959.061 Q30.6479 957.215 29.0883 954.255 Q27.4968 951.295 27.4968 947.062 Q27.4968 946.457 27.5923 945.725 Q27.656 944.993 27.8151 944.102 L33.8307 944.07 Z" fill="#000000" fill-rule="nonzero" fill-opacity="1" /><path clip-path="url(#clip920)" d="M46.0847 921.727 Q46.0847 928.824 47.7079 931.562 Q49.3312 934.299 53.2461 934.299 Q56.3653 934.299 58.2114 932.262 Q60.0256 930.193 60.0256 926.66 Q60.0256 921.79 56.5881 918.862 Q53.1188 915.902 47.3897 915.902 L46.0847 915.902 L46.0847 921.727 M43.6657 910.045 L64.0042 910.045 L64.0042 915.902 L58.5933 915.902 Q61.8398 917.907 63.3994 920.899 Q64.9272 923.891 64.9272 928.22 Q64.9272 933.694 61.8716 936.941 Q58.7843 940.155 53.6281 940.155 Q47.6125 940.155 44.5569 936.145 Q41.5014 932.103 41.5014 924.114 L41.5014 915.902 L40.9285 915.902 Q36.8862 915.902 34.6901 918.575 Q32.4621 921.217 32.4621 926.023 Q32.4621 929.079 33.1941 931.975 Q33.9262 934.872 35.3903 937.545 L29.9795 937.545 Q28.7381 934.331 28.1334 931.307 Q27.4968 928.283 27.4968 925.419 Q27.4968 917.684 31.5072 913.865 Q35.5176 910.045 43.6657 910.045 Z" fill="#000000" fill-rule="nonzero" fill-opacity="1" /><path clip-path="url(#clip920)" d="M18.2347 892.19 L28.3562 892.19 L28.3562 880.127 L32.9077 880.127 L32.9077 892.19 L52.2594 892.19 Q56.6199 892.19 57.8613 891.012 Q59.1026 889.803 59.1026 886.142 L59.1026 880.127 L64.0042 880.127 L64.0042 886.142 Q64.0042 892.922 61.4897 895.5 Q58.9434 898.078 52.2594 898.078 L32.9077 898.078 L32.9077 902.375 L28.3562 902.375 L28.3562 898.078 L18.2347 898.078 L18.2347 892.19 Z" fill="#000000" fill-rule="nonzero" fill-opacity="1" /><path clip-path="url(#clip920)" d="M32.4621 858.611 Q32.4621 863.321 36.1542 866.058 Q39.8145 868.796 46.212 868.796 Q52.6095 868.796 56.3017 866.09 Q59.9619 863.353 59.9619 858.611 Q59.9619 853.932 56.2698 851.194 Q52.5777 848.457 46.212 848.457 Q39.8781 848.457 36.186 851.194 Q32.4621 853.932 32.4621 858.611 M27.4968 858.611 Q27.4968 850.972 32.4621 846.611 Q37.4273 842.251 46.212 842.251 Q54.9649 842.251 59.9619 846.611 Q64.9272 850.972 64.9272 858.611 Q64.9272 866.281 59.9619 870.642 Q54.9649 874.97 46.212 874.97 Q37.4273 874.97 32.4621 870.642 Q27.4968 866.281 27.4968 858.611 Z" fill="#000000" fill-rule="nonzero" fill-opacity="1" /><path clip-path="url(#clip920)" d="M33.8307 811.886 Q33.2578 812.873 33.0032 814.051 Q32.7167 815.196 32.7167 816.597 Q32.7167 821.562 35.9632 824.236 Q39.1779 826.877 45.2253 826.877 L64.0042 826.877 L64.0042 832.766 L28.3562 832.766 L28.3562 826.877 L33.8944 826.877 Q30.6479 825.031 29.0883 822.071 Q27.4968 819.111 27.4968 814.878 Q27.4968 814.273 27.5923 813.541 Q27.656 812.809 27.8151 811.918 L33.8307 811.886 Z" fill="#000000" fill-rule="nonzero" fill-opacity="1" /><path clip-path="url(#clip920)" d="M21.7677 778.339 L39.6235 778.339 L39.6235 770.255 Q39.6235 765.767 37.3 763.316 Q34.9765 760.865 30.6797 760.865 Q26.4147 760.865 24.0912 763.316 Q21.7677 765.767 21.7677 770.255 L21.7677 778.339 M16.4842 784.768 L16.4842 770.255 Q16.4842 762.266 20.1126 758.192 Q23.7092 754.086 30.6797 754.086 Q37.7138 754.086 41.3104 758.192 Q44.907 762.266 44.907 770.255 L44.907 778.339 L64.0042 778.339 L64.0042 784.768 L16.4842 784.768 Z" fill="#000000" fill-rule="nonzero" fill-opacity="1" /><path clip-path="url(#clip920)" d="M32.4621 734.225 Q32.4621 738.935 36.1542 741.673 Q39.8145 744.41 46.212 744.41 Q52.6095 744.41 56.3017 741.704 Q59.9619 738.967 59.9619 734.225 Q59.9619 729.546 56.2698 726.809 Q52.5777 724.071 46.212 724.071 Q39.8781 724.071 36.186 726.809 Q32.4621 729.546 32.4621 734.225 M27.4968 734.225 Q27.4968 726.586 32.4621 722.225 Q37.4273 717.865 46.212 717.865 Q54.9649 717.865 59.9619 722.225 Q64.9272 726.586 64.9272 734.225 Q64.9272 741.895 59.9619 746.256 Q54.9649 750.584 46.212 750.584 Q37.4273 750.584 32.4621 746.256 Q27.4968 741.895 27.4968 734.225 Z" fill="#000000" fill-rule="nonzero" fill-opacity="1" /><path clip-path="url(#clip920)" d="M28.3562 711.563 L28.3562 705.706 L56.1743 698.386 L28.3562 691.097 L28.3562 684.19 L56.1743 676.87 L28.3562 669.581 L28.3562 663.724 L64.0042 673.05 L64.0042 679.957 L34.7856 687.628 L64.0042 695.33 L64.0042 702.237 L28.3562 711.563 Z" fill="#000000" fill-rule="nonzero" fill-opacity="1" /><path clip-path="url(#clip920)" d="M44.7161 624.353 L47.5806 624.353 L47.5806 651.279 Q53.6281 650.898 56.8109 647.651 Q59.9619 644.373 59.9619 638.548 Q59.9619 635.174 59.1344 632.023 Q58.3069 628.84 56.6518 625.721 L62.1899 625.721 Q63.5267 628.872 64.227 632.182 Q64.9272 635.493 64.9272 638.898 Q64.9272 647.428 59.9619 652.425 Q54.9967 657.391 46.5303 657.391 Q37.7774 657.391 32.6531 652.68 Q27.4968 647.937 27.4968 639.917 Q27.4968 632.723 32.1438 628.554 Q36.7589 624.353 44.7161 624.353 M42.9973 630.209 Q38.1912 630.273 35.3266 632.914 Q32.4621 635.524 32.4621 639.853 Q32.4621 644.755 35.2312 647.715 Q38.0002 650.643 43.0292 651.089 L42.9973 630.209 Z" fill="#000000" fill-rule="nonzero" fill-opacity="1" /><path clip-path="url(#clip920)" d="M33.8307 594.084 Q33.2578 595.07 33.0032 596.248 Q32.7167 597.394 32.7167 598.794 Q32.7167 603.759 35.9632 606.433 Q39.1779 609.075 45.2253 609.075 L64.0042 609.075 L64.0042 614.963 L28.3562 614.963 L28.3562 609.075 L33.8944 609.075 Q30.6479 607.229 29.0883 604.269 Q27.4968 601.309 27.4968 597.075 Q27.4968 596.471 27.5923 595.739 Q27.656 595.007 27.8151 594.115 L33.8307 594.084 Z" fill="#000000" fill-rule="nonzero" fill-opacity="1" /><path clip-path="url(#clip920)" d="M14.5426 553.152 Q21.8632 557.417 29.0246 559.486 Q36.186 561.555 43.5384 561.555 Q50.8908 561.555 58.1159 559.486 Q65.3091 557.385 72.5979 553.152 L72.5979 558.245 Q65.1182 563.019 57.8931 565.406 Q50.668 567.761 43.5384 567.761 Q36.4406 567.761 29.2474 565.406 Q22.0542 563.051 14.5426 558.245 L14.5426 553.152 Z" fill="#000000" fill-rule="nonzero" fill-opacity="1" /><path clip-path="url(#clip920)" d="M16.4842 541.535 L16.4842 531.954 L48.8219 519.828 L16.4842 507.637 L16.4842 498.057 L64.0042 498.057 L64.0042 504.327 L22.277 504.327 L54.8694 516.581 L54.8694 523.042 L22.277 535.296 L64.0042 535.296 L64.0042 541.535 L16.4842 541.535 Z" fill="#000000" fill-rule="nonzero" fill-opacity="1" /><path clip-path="url(#clip920)" d="M16.4842 489.527 L16.4842 483.034 L56.6518 473.04 L16.4842 463.077 L16.4842 455.852 L56.6518 445.858 L16.4842 435.896 L16.4842 429.371 L64.0042 441.307 L64.0042 449.391 L22.7544 459.417 L64.0042 469.539 L64.0042 477.623 L16.4842 489.527 Z" fill="#000000" fill-rule="nonzero" fill-opacity="1" /><path clip-path="url(#clip920)" d="M14.5426 422.019 L14.5426 416.926 Q22.0542 412.152 29.2474 409.796 Q36.4406 407.409 43.5384 407.409 Q50.668 407.409 57.8931 409.796 Q65.1182 412.152 72.5979 416.926 L72.5979 422.019 Q65.3091 417.785 58.1159 415.716 Q50.8908 413.616 43.5384 413.616 Q36.186 413.616 29.0246 415.716 Q21.8632 417.785 14.5426 422.019 Z" fill="#000000" fill-rule="nonzero" fill-opacity="1" /><path clip-path="url(#clip920)" d="M308.463 63.9476 L308.463 47.7034 L295.095 47.7034 L295.095 40.9789 L316.565 40.9789 L316.565 66.9452 Q311.826 70.3075 306.114 72.0494 Q300.402 73.7508 293.921 73.7508 Q279.742 73.7508 271.722 65.4869 Q263.741 57.1826 263.741 42.3968 Q263.741 27.5705 271.722 19.3066 Q279.742 11.0023 293.921 11.0023 Q299.835 11.0023 305.142 12.4606 Q310.489 13.9189 314.985 16.7545 L314.985 25.464 Q310.448 21.6156 305.344 19.6712 Q300.24 17.7268 294.609 17.7268 Q283.51 17.7268 277.919 23.9246 Q272.37 30.1225 272.37 42.3968 Q272.37 54.6305 277.919 60.8284 Q283.51 67.0263 294.609 67.0263 Q298.944 67.0263 302.346 66.2971 Q305.749 65.5274 308.463 63.9476 Z" fill="#000000" fill-rule="nonzero" fill-opacity="1" /><path clip-path="url(#clip920)" d="M369.997 48.0275 L369.997 51.6733 L335.726 51.6733 Q336.212 59.3701 340.344 63.421 Q344.516 67.4314 351.93 67.4314 Q356.223 67.4314 360.234 66.3781 Q364.285 65.3249 368.255 63.2184 L368.255 70.267 Q364.244 71.9684 360.031 72.8596 Q355.818 73.7508 351.484 73.7508 Q340.627 73.7508 334.268 67.4314 Q327.948 61.1119 327.948 50.3365 Q327.948 39.1965 333.944 32.6746 Q339.979 26.1121 350.188 26.1121 Q359.343 26.1121 364.649 32.0264 Q369.997 37.9003 369.997 48.0275 M362.543 45.84 Q362.462 39.7232 359.1 36.0774 Q355.778 32.4315 350.269 32.4315 Q344.03 32.4315 340.263 35.9558 Q336.536 39.4801 335.969 45.8805 L362.543 45.84 Z" fill="#000000" fill-rule="nonzero" fill-opacity="1" /><path clip-path="url(#clip920)" d="M419.944 45.1919 L419.944 72.576 L412.491 72.576 L412.491 45.4349 Q412.491 38.994 409.979 35.7938 Q407.467 32.5936 402.444 32.5936 Q396.408 32.5936 392.925 36.4419 Q389.441 40.2903 389.441 46.9338 L389.441 72.576 L381.947 72.576 L381.947 27.2059 L389.441 27.2059 L389.441 34.2544 Q392.114 30.163 395.72 28.1376 Q399.366 26.1121 404.105 26.1121 Q411.923 26.1121 415.934 30.9732 Q419.944 35.7938 419.944 45.1919 Z" fill="#000000" fill-rule="nonzero" fill-opacity="1" /><path clip-path="url(#clip920)" d="M473.619 48.0275 L473.619 51.6733 L439.348 51.6733 Q439.834 59.3701 443.966 63.421 Q448.138 67.4314 455.552 67.4314 Q459.846 67.4314 463.856 66.3781 Q467.907 65.3249 471.877 63.2184 L471.877 70.267 Q467.866 71.9684 463.653 72.8596 Q459.441 73.7508 455.106 73.7508 Q444.25 73.7508 437.89 67.4314 Q431.57 61.1119 431.57 50.3365 Q431.57 39.1965 437.566 32.6746 Q443.601 26.1121 453.81 26.1121 Q462.965 26.1121 468.271 32.0264 Q473.619 37.9003 473.619 48.0275 M466.165 45.84 Q466.084 39.7232 462.722 36.0774 Q459.4 32.4315 453.891 32.4315 Q447.652 32.4315 443.885 35.9558 Q440.158 39.4801 439.591 45.8805 L466.165 45.84 Z" fill="#000000" fill-rule="nonzero" fill-opacity="1" /><path clip-path="url(#clip920)" d="M512.143 34.1734 Q510.887 33.4443 509.388 33.1202 Q507.93 32.7556 506.147 32.7556 Q499.828 32.7556 496.425 36.8875 Q493.063 40.9789 493.063 48.6757 L493.063 72.576 L485.569 72.576 L485.569 27.2059 L493.063 27.2059 L493.063 34.2544 Q495.413 30.1225 499.18 28.1376 Q502.947 26.1121 508.335 26.1121 Q509.105 26.1121 510.036 26.2337 Q510.968 26.3147 512.102 26.5172 L512.143 34.1734 Z" fill="#000000" fill-rule="nonzero" fill-opacity="1" /><path clip-path="url(#clip920)" d="M540.58 49.7694 Q531.547 49.7694 528.063 51.8354 Q524.579 53.9013 524.579 58.8839 Q524.579 62.8538 527.172 65.2034 Q529.805 67.5124 534.301 67.5124 Q540.499 67.5124 544.226 63.1374 Q547.993 58.7219 547.993 51.4303 L547.993 49.7694 L540.58 49.7694 M555.447 46.6907 L555.447 72.576 L547.993 72.576 L547.993 65.6895 Q545.441 69.8214 541.633 71.8063 Q537.826 73.7508 532.316 73.7508 Q525.349 73.7508 521.217 69.8619 Q517.125 65.9325 517.125 59.3701 Q517.125 51.7138 522.23 47.825 Q527.374 43.9361 537.542 43.9361 L547.993 43.9361 L547.993 43.2069 Q547.993 38.0623 544.591 35.2672 Q541.228 32.4315 535.111 32.4315 Q531.223 32.4315 527.536 33.3632 Q523.85 34.295 520.447 36.1584 L520.447 29.2718 Q524.539 27.692 528.387 26.9223 Q532.235 26.1121 535.881 26.1121 Q545.725 26.1121 550.586 31.2163 Q555.447 36.3204 555.447 46.6907 Z" fill="#000000" fill-rule="nonzero" fill-opacity="1" /><path clip-path="url(#clip920)" d="M578.173 14.324 L578.173 27.2059 L593.525 27.2059 L593.525 32.9987 L578.173 32.9987 L578.173 57.6282 Q578.173 63.1779 579.671 64.7578 Q581.211 66.3376 585.869 66.3376 L593.525 66.3376 L593.525 72.576 L585.869 72.576 Q577.241 72.576 573.96 69.3758 Q570.678 66.1351 570.678 57.6282 L570.678 32.9987 L565.21 32.9987 L565.21 27.2059 L570.678 27.2059 L570.678 14.324 L578.173 14.324 Z" fill="#000000" fill-rule="nonzero" fill-opacity="1" /><path clip-path="url(#clip920)" d="M620.91 32.4315 Q614.914 32.4315 611.43 37.1306 Q607.947 41.7891 607.947 49.9314 Q607.947 58.0738 611.39 62.7728 Q614.874 67.4314 620.91 67.4314 Q626.864 67.4314 630.348 62.7323 Q633.832 58.0333 633.832 49.9314 Q633.832 41.8701 630.348 37.1711 Q626.864 32.4315 620.91 32.4315 M620.91 26.1121 Q630.632 26.1121 636.181 32.4315 Q641.731 38.7509 641.731 49.9314 Q641.731 61.0714 636.181 67.4314 Q630.632 73.7508 620.91 73.7508 Q611.147 73.7508 605.597 67.4314 Q600.088 61.0714 600.088 49.9314 Q600.088 38.7509 605.597 32.4315 Q611.147 26.1121 620.91 26.1121 Z" fill="#000000" fill-rule="nonzero" fill-opacity="1" /><path clip-path="url(#clip920)" d="M680.377 34.1734 Q679.121 33.4443 677.622 33.1202 Q676.164 32.7556 674.381 32.7556 Q668.062 32.7556 664.659 36.8875 Q661.297 40.9789 661.297 48.6757 L661.297 72.576 L653.803 72.576 L653.803 27.2059 L661.297 27.2059 L661.297 34.2544 Q663.647 30.1225 667.414 28.1376 Q671.181 26.1121 676.569 26.1121 Q677.339 26.1121 678.27 26.2337 Q679.202 26.3147 680.336 26.5172 L680.377 34.1734 Z" fill="#000000" fill-rule="nonzero" fill-opacity="1" /><path clip-path="url(#clip920)" d="M717.119 28.5427 L717.119 35.5912 Q713.959 33.9709 710.556 33.1607 Q707.153 32.3505 703.507 32.3505 Q697.958 32.3505 695.163 34.0519 Q692.408 35.7533 692.408 39.156 Q692.408 41.7486 694.393 43.2475 Q696.378 44.7058 702.373 46.0426 L704.925 46.6097 Q712.865 48.3111 716.187 51.4303 Q719.549 54.509 719.549 60.0587 Q719.549 66.3781 714.526 70.0644 Q709.543 73.7508 700.793 73.7508 Q697.148 73.7508 693.178 73.0216 Q689.248 72.3329 684.873 70.9151 L684.873 63.2184 Q689.005 65.3654 693.016 66.4591 Q697.026 67.5124 700.955 67.5124 Q706.222 67.5124 709.057 65.73 Q711.893 63.9071 711.893 60.6258 Q711.893 57.5877 709.827 55.9673 Q707.801 54.3469 700.874 52.8481 L698.282 52.2405 Q691.355 50.7821 688.276 47.7845 Q685.197 44.7463 685.197 39.4801 Q685.197 33.0797 689.734 29.5959 Q694.271 26.1121 702.616 26.1121 Q706.748 26.1121 710.394 26.7198 Q714.04 27.3274 717.119 28.5427 Z" fill="#000000" fill-rule="nonzero" fill-opacity="1" /><path clip-path="url(#clip920)" d="M758.114 12.096 L766.297 12.096 L766.297 65.6895 L795.747 65.6895 L795.747 72.576 L758.114 72.576 L758.114 12.096 Z" fill="#000000" fill-rule="nonzero" fill-opacity="1" /><path clip-path="url(#clip920)" d="M820.133 32.4315 Q814.138 32.4315 810.654 37.1306 Q807.17 41.7891 807.17 49.9314 Q807.17 58.0738 810.613 62.7728 Q814.097 67.4314 820.133 67.4314 Q826.088 67.4314 829.572 62.7323 Q833.055 58.0333 833.055 49.9314 Q833.055 41.8701 829.572 37.1711 Q826.088 32.4315 820.133 32.4315 M820.133 26.1121 Q829.855 26.1121 835.405 32.4315 Q840.955 38.7509 840.955 49.9314 Q840.955 61.0714 835.405 67.4314 Q829.855 73.7508 820.133 73.7508 Q810.37 73.7508 804.821 67.4314 Q799.311 61.0714 799.311 49.9314 Q799.311 38.7509 804.821 32.4315 Q810.37 26.1121 820.133 26.1121 Z" fill="#000000" fill-rule="nonzero" fill-opacity="1" /><path clip-path="url(#clip920)" d="M873.929 49.7694 Q864.896 49.7694 861.412 51.8354 Q857.928 53.9013 857.928 58.8839 Q857.928 62.8538 860.521 65.2034 Q863.154 67.5124 867.65 67.5124 Q873.848 67.5124 877.575 63.1374 Q881.342 58.7219 881.342 51.4303 L881.342 49.7694 L873.929 49.7694 M888.796 46.6907 L888.796 72.576 L881.342 72.576 L881.342 65.6895 Q878.79 69.8214 874.982 71.8063 Q871.174 73.7508 865.665 73.7508 Q858.698 73.7508 854.566 69.8619 Q850.474 65.9325 850.474 59.3701 Q850.474 51.7138 855.578 47.825 Q860.723 43.9361 870.891 43.9361 L881.342 43.9361 L881.342 43.2069 Q881.342 38.0623 877.939 35.2672 Q874.577 32.4315 868.46 32.4315 Q864.571 32.4315 860.885 33.3632 Q857.199 34.295 853.796 36.1584 L853.796 29.2718 Q857.887 27.692 861.736 26.9223 Q865.584 26.1121 869.23 26.1121 Q879.074 26.1121 883.935 31.2163 Q888.796 36.3204 888.796 46.6907 Z" fill="#000000" fill-rule="nonzero" fill-opacity="1" /><path clip-path="url(#clip920)" d="M934.004 34.0924 L934.004 9.54393 L941.458 9.54393 L941.458 72.576 L934.004 72.576 L934.004 65.7705 Q931.654 69.8214 928.049 71.8063 Q924.484 73.7508 919.461 73.7508 Q911.238 73.7508 906.053 67.1883 Q900.908 60.6258 900.908 49.9314 Q900.908 39.2371 906.053 32.6746 Q911.238 26.1121 919.461 26.1121 Q924.484 26.1121 928.049 28.0971 Q931.654 30.0415 934.004 34.0924 M908.605 49.9314 Q908.605 58.1548 911.967 62.8538 Q915.37 67.5124 921.284 67.5124 Q927.198 67.5124 930.601 62.8538 Q934.004 58.1548 934.004 49.9314 Q934.004 41.7081 930.601 37.0496 Q927.198 32.3505 921.284 32.3505 Q915.37 32.3505 911.967 37.0496 Q908.605 41.7081 908.605 49.9314 Z" fill="#000000" fill-rule="nonzero" fill-opacity="1" /><path clip-path="url(#clip920)" d="M991.689 18.8205 L991.689 41.5461 L1001.98 41.5461 Q1007.69 41.5461 1010.81 38.5889 Q1013.93 35.6318 1013.93 30.163 Q1013.93 24.7348 1010.81 21.7777 Q1007.69 18.8205 1001.98 18.8205 L991.689 18.8205 M983.506 12.096 L1001.98 12.096 Q1012.15 12.096 1017.33 16.714 Q1022.56 21.2916 1022.56 30.163 Q1022.56 39.1155 1017.33 43.6931 Q1012.15 48.2706 1001.98 48.2706 L991.689 48.2706 L991.689 72.576 L983.506 72.576 L983.506 12.096 Z" fill="#000000" fill-rule="nonzero" fill-opacity="1" /><path clip-path="url(#clip920)" d="M1058.04 34.1734 Q1056.79 33.4443 1055.29 33.1202 Q1053.83 32.7556 1052.05 32.7556 Q1045.73 32.7556 1042.33 36.8875 Q1038.96 40.9789 1038.96 48.6757 L1038.96 72.576 L1031.47 72.576 L1031.47 27.2059 L1038.96 27.2059 L1038.96 34.2544 Q1041.31 30.1225 1045.08 28.1376 Q1048.85 26.1121 1054.23 26.1121 Q1055 26.1121 1055.94 26.2337 Q1056.87 26.3147 1058 26.5172 L1058.04 34.1734 Z" fill="#000000" fill-rule="nonzero" fill-opacity="1" /><path clip-path="url(#clip920)" d="M1081.62 32.4315 Q1075.62 32.4315 1072.14 37.1306 Q1068.66 41.7891 1068.66 49.9314 Q1068.66 58.0738 1072.1 62.7728 Q1075.58 67.4314 1081.62 67.4314 Q1087.57 67.4314 1091.06 62.7323 Q1094.54 58.0333 1094.54 49.9314 Q1094.54 41.8701 1091.06 37.1711 Q1087.57 32.4315 1081.62 32.4315 M1081.62 26.1121 Q1091.34 26.1121 1096.89 32.4315 Q1102.44 38.7509 1102.44 49.9314 Q1102.44 61.0714 1096.89 67.4314 Q1091.34 73.7508 1081.62 73.7508 Q1071.86 73.7508 1066.31 67.4314 Q1060.8 61.0714 1060.8 49.9314 Q1060.8 38.7509 1066.31 32.4315 Q1071.86 26.1121 1081.62 26.1121 Z" fill="#000000" fill-rule="nonzero" fill-opacity="1" /><path clip-path="url(#clip920)" d="M1137.76 9.54393 L1137.76 15.7418 L1130.63 15.7418 Q1126.62 15.7418 1125.04 17.3622 Q1123.51 18.9825 1123.51 23.1955 L1123.51 27.2059 L1135.78 27.2059 L1135.78 32.9987 L1123.51 32.9987 L1123.51 72.576 L1116.01 72.576 L1116.01 32.9987 L1108.88 32.9987 L1108.88 27.2059 L1116.01 27.2059 L1116.01 24.0462 Q1116.01 16.471 1119.54 13.0277 Q1123.06 9.54393 1130.72 9.54393 L1137.76 9.54393 Z" fill="#000000" fill-rule="nonzero" fill-opacity="1" /><path clip-path="url(#clip920)" d="M1144 27.2059 L1151.46 27.2059 L1151.46 72.576 L1144 72.576 L1144 27.2059 M1144 9.54393 L1151.46 9.54393 L1151.46 18.9825 L1144 18.9825 L1144 9.54393 Z" fill="#000000" fill-rule="nonzero" fill-opacity="1" /><path clip-path="url(#clip920)" d="M1167.05 9.54393 L1174.51 9.54393 L1174.51 72.576 L1167.05 72.576 L1167.05 9.54393 Z" fill="#000000" fill-rule="nonzero" fill-opacity="1" /><path clip-path="url(#clip920)" d="M1228.91 48.0275 L1228.91 51.6733 L1194.64 51.6733 Q1195.13 59.3701 1199.26 63.421 Q1203.43 67.4314 1210.84 67.4314 Q1215.14 67.4314 1219.15 66.3781 Q1223.2 65.3249 1227.17 63.2184 L1227.17 70.267 Q1223.16 71.9684 1218.94 72.8596 Q1214.73 73.7508 1210.4 73.7508 Q1199.54 73.7508 1193.18 67.4314 Q1186.86 61.1119 1186.86 50.3365 Q1186.86 39.1965 1192.86 32.6746 Q1198.89 26.1121 1209.1 26.1121 Q1218.26 26.1121 1223.56 32.0264 Q1228.91 37.9003 1228.91 48.0275 M1221.46 45.84 Q1221.38 39.7232 1218.01 36.0774 Q1214.69 32.4315 1209.18 32.4315 Q1202.94 32.4315 1199.18 35.9558 Q1195.45 39.4801 1194.88 45.8805 L1221.46 45.84 Z" fill="#000000" fill-rule="nonzero" fill-opacity="1" /><path clip-path="url(#clip920)" d="M1276.02 43.6931 L1276.02 65.8515 L1289.15 65.8515 Q1295.75 65.8515 1298.91 63.1374 Q1302.11 60.3828 1302.11 54.752 Q1302.11 49.0808 1298.91 46.4072 Q1295.75 43.6931 1289.15 43.6931 L1276.02 43.6931 M1276.02 18.8205 L1276.02 37.0496 L1288.13 37.0496 Q1294.13 37.0496 1297.05 34.8216 Q1300 32.5531 1300 27.935 Q1300 23.3575 1297.05 21.089 Q1294.13 18.8205 1288.13 18.8205 L1276.02 18.8205 M1267.84 12.096 L1288.74 12.096 Q1298.1 12.096 1303.16 15.9849 Q1308.23 19.8737 1308.23 27.0438 Q1308.23 32.5936 1305.63 35.8748 Q1303.04 39.156 1298.02 39.9662 Q1304.05 41.2625 1307.38 45.3944 Q1310.74 49.4858 1310.74 55.6432 Q1310.74 63.745 1305.23 68.1605 Q1299.72 72.576 1289.55 72.576 L1267.84 72.576 L1267.84 12.096 Z" fill="#000000" fill-rule="nonzero" fill-opacity="1" /><path clip-path="url(#clip920)" d="M1363.24 48.0275 L1363.24 51.6733 L1328.97 51.6733 Q1329.45 59.3701 1333.59 63.421 Q1337.76 67.4314 1345.17 67.4314 Q1349.46 67.4314 1353.48 66.3781 Q1357.53 65.3249 1361.5 63.2184 L1361.5 70.267 Q1357.49 71.9684 1353.27 72.8596 Q1349.06 73.7508 1344.73 73.7508 Q1333.87 73.7508 1327.51 67.4314 Q1321.19 61.1119 1321.19 50.3365 Q1321.19 39.1965 1327.18 32.6746 Q1333.22 26.1121 1343.43 26.1121 Q1352.58 26.1121 1357.89 32.0264 Q1363.24 37.9003 1363.24 48.0275 M1355.78 45.84 Q1355.7 39.7232 1352.34 36.0774 Q1349.02 32.4315 1343.51 32.4315 Q1337.27 32.4315 1333.5 35.9558 Q1329.78 39.4801 1329.21 45.8805 L1355.78 45.84 Z" fill="#000000" fill-rule="nonzero" fill-opacity="1" /><path clip-path="url(#clip920)" d="M1398.44 9.54393 L1398.44 15.7418 L1391.31 15.7418 Q1387.3 15.7418 1385.72 17.3622 Q1384.18 18.9825 1384.18 23.1955 L1384.18 27.2059 L1396.46 27.2059 L1396.46 32.9987 L1384.18 32.9987 L1384.18 72.576 L1376.69 72.576 L1376.69 32.9987 L1369.56 32.9987 L1369.56 27.2059 L1376.69 27.2059 L1376.69 24.0462 Q1376.69 16.471 1380.21 13.0277 Q1383.74 9.54393 1391.39 9.54393 L1398.44 9.54393 Z" fill="#000000" fill-rule="nonzero" fill-opacity="1" /><path clip-path="url(#clip920)" d="M1422.26 32.4315 Q1416.26 32.4315 1412.78 37.1306 Q1409.3 41.7891 1409.3 49.9314 Q1409.3 58.0738 1412.74 62.7728 Q1416.22 67.4314 1422.26 67.4314 Q1428.21 67.4314 1431.7 62.7323 Q1435.18 58.0333 1435.18 49.9314 Q1435.18 41.8701 1431.7 37.1711 Q1428.21 32.4315 1422.26 32.4315 M1422.26 26.1121 Q1431.98 26.1121 1437.53 32.4315 Q1443.08 38.7509 1443.08 49.9314 Q1443.08 61.0714 1437.53 67.4314 Q1431.98 73.7508 1422.26 73.7508 Q1412.5 73.7508 1406.95 67.4314 Q1401.44 61.0714 1401.44 49.9314 Q1401.44 38.7509 1406.95 32.4315 Q1412.5 26.1121 1422.26 26.1121 Z" fill="#000000" fill-rule="nonzero" fill-opacity="1" /><path clip-path="url(#clip920)" d="M1481.73 34.1734 Q1480.47 33.4443 1478.97 33.1202 Q1477.51 32.7556 1475.73 32.7556 Q1469.41 32.7556 1466.01 36.8875 Q1462.65 40.9789 1462.65 48.6757 L1462.65 72.576 L1455.15 72.576 L1455.15 27.2059 L1462.65 27.2059 L1462.65 34.2544 Q1465 30.1225 1468.76 28.1376 Q1472.53 26.1121 1477.92 26.1121 Q1478.69 26.1121 1479.62 26.2337 Q1480.55 26.3147 1481.69 26.5172 L1481.73 34.1734 Z" fill="#000000" fill-rule="nonzero" fill-opacity="1" /><path clip-path="url(#clip920)" d="M1526.53 48.0275 L1526.53 51.6733 L1492.26 51.6733 Q1492.75 59.3701 1496.88 63.421 Q1501.05 67.4314 1508.46 67.4314 Q1512.76 67.4314 1516.77 66.3781 Q1520.82 65.3249 1524.79 63.2184 L1524.79 70.267 Q1520.78 71.9684 1516.56 72.8596 Q1512.35 73.7508 1508.02 73.7508 Q1497.16 73.7508 1490.8 67.4314 Q1484.48 61.1119 1484.48 50.3365 Q1484.48 39.1965 1490.48 32.6746 Q1496.51 26.1121 1506.72 26.1121 Q1515.88 26.1121 1521.18 32.0264 Q1526.53 37.9003 1526.53 48.0275 M1519.08 45.84 Q1519 39.7232 1515.63 36.0774 Q1512.31 32.4315 1506.8 32.4315 Q1500.56 32.4315 1496.8 35.9558 Q1493.07 39.4801 1492.5 45.8805 L1519.08 45.84 Z" fill="#000000" fill-rule="nonzero" fill-opacity="1" /><path clip-path="url(#clip920)" d="M1585.75 49.7694 Q1576.72 49.7694 1573.24 51.8354 Q1569.75 53.9013 1569.75 58.8839 Q1569.75 62.8538 1572.35 65.2034 Q1574.98 67.5124 1579.48 67.5124 Q1585.67 67.5124 1589.4 63.1374 Q1593.17 58.7219 1593.17 51.4303 L1593.17 49.7694 L1585.75 49.7694 M1600.62 46.6907 L1600.62 72.576 L1593.17 72.576 L1593.17 65.6895 Q1590.62 69.8214 1586.81 71.8063 Q1583 73.7508 1577.49 73.7508 Q1570.52 73.7508 1566.39 69.8619 Q1562.3 65.9325 1562.3 59.3701 Q1562.3 51.7138 1567.4 47.825 Q1572.55 43.9361 1582.72 43.9361 L1593.17 43.9361 L1593.17 43.2069 Q1593.17 38.0623 1589.76 35.2672 Q1586.4 32.4315 1580.29 32.4315 Q1576.4 32.4315 1572.71 33.3632 Q1569.02 34.295 1565.62 36.1584 L1565.62 29.2718 Q1569.71 27.692 1573.56 26.9223 Q1577.41 26.1121 1581.05 26.1121 Q1590.9 26.1121 1595.76 31.2163 Q1600.62 36.3204 1600.62 46.6907 Z" fill="#000000" fill-rule="nonzero" fill-opacity="1" /><path clip-path="url(#clip920)" d="M1653.69 45.1919 L1653.69 72.576 L1646.23 72.576 L1646.23 45.4349 Q1646.23 38.994 1643.72 35.7938 Q1641.21 32.5936 1636.19 32.5936 Q1630.15 32.5936 1626.67 36.4419 Q1623.18 40.2903 1623.18 46.9338 L1623.18 72.576 L1615.69 72.576 L1615.69 27.2059 L1623.18 27.2059 L1623.18 34.2544 Q1625.86 30.163 1629.46 28.1376 Q1633.11 26.1121 1637.85 26.1121 Q1645.67 26.1121 1649.68 30.9732 Q1653.69 35.7938 1653.69 45.1919 Z" fill="#000000" fill-rule="nonzero" fill-opacity="1" /><path clip-path="url(#clip920)" d="M1698.41 34.0924 L1698.41 9.54393 L1705.86 9.54393 L1705.86 72.576 L1698.41 72.576 L1698.41 65.7705 Q1696.06 69.8214 1692.45 71.8063 Q1688.89 73.7508 1683.87 73.7508 Q1675.64 73.7508 1670.46 67.1883 Q1665.31 60.6258 1665.31 49.9314 Q1665.31 39.2371 1670.46 32.6746 Q1675.64 26.1121 1683.87 26.1121 Q1688.89 26.1121 1692.45 28.0971 Q1696.06 30.0415 1698.41 34.0924 M1673.01 49.9314 Q1673.01 58.1548 1676.37 62.8538 Q1679.78 67.5124 1685.69 67.5124 Q1691.6 67.5124 1695.01 62.8538 Q1698.41 58.1548 1698.41 49.9314 Q1698.41 41.7081 1695.01 37.0496 Q1691.6 32.3505 1685.69 32.3505 Q1679.78 32.3505 1676.37 37.0496 Q1673.01 41.7081 1673.01 49.9314 Z" fill="#000000" fill-rule="nonzero" fill-opacity="1" /><path clip-path="url(#clip920)" d="M1768.13 20.1573 L1757.03 50.2555 L1779.27 50.2555 L1768.13 20.1573 M1763.51 12.096 L1772.78 12.096 L1795.83 72.576 L1787.33 72.576 L1781.82 57.061 L1754.56 57.061 L1749.05 72.576 L1740.42 72.576 L1763.51 12.096 Z" fill="#000000" fill-rule="nonzero" fill-opacity="1" /><path clip-path="url(#clip920)" d="M1824.35 9.54393 L1824.35 15.7418 L1817.22 15.7418 Q1813.21 15.7418 1811.63 17.3622 Q1810.09 18.9825 1810.09 23.1955 L1810.09 27.2059 L1822.37 27.2059 L1822.37 32.9987 L1810.09 32.9987 L1810.09 72.576 L1802.6 72.576 L1802.6 32.9987 L1795.47 32.9987 L1795.47 27.2059 L1802.6 27.2059 L1802.6 24.0462 Q1802.6 16.471 1806.12 13.0277 Q1809.65 9.54393 1817.3 9.54393 L1824.35 9.54393 Z" fill="#000000" fill-rule="nonzero" fill-opacity="1" /><path clip-path="url(#clip920)" d="M1836.5 14.324 L1836.5 27.2059 L1851.86 27.2059 L1851.86 32.9987 L1836.5 32.9987 L1836.5 57.6282 Q1836.5 63.1779 1838 64.7578 Q1839.54 66.3376 1844.2 66.3376 L1851.86 66.3376 L1851.86 72.576 L1844.2 72.576 Q1835.57 72.576 1832.29 69.3758 Q1829.01 66.1351 1829.01 57.6282 L1829.01 32.9987 L1823.54 32.9987 L1823.54 27.2059 L1829.01 27.2059 L1829.01 14.324 L1836.5 14.324 Z" fill="#000000" fill-rule="nonzero" fill-opacity="1" /><path clip-path="url(#clip920)" d="M1900.47 48.0275 L1900.47 51.6733 L1866.2 51.6733 Q1866.68 59.3701 1870.82 63.421 Q1874.99 67.4314 1882.4 67.4314 Q1886.7 67.4314 1890.71 66.3781 Q1894.76 65.3249 1898.73 63.2184 L1898.73 70.267 Q1894.72 71.9684 1890.5 72.8596 Q1886.29 73.7508 1881.96 73.7508 Q1871.1 73.7508 1864.74 67.4314 Q1858.42 61.1119 1858.42 50.3365 Q1858.42 39.1965 1864.42 32.6746 Q1870.45 26.1121 1880.66 26.1121 Q1889.81 26.1121 1895.12 32.0264 Q1900.47 37.9003 1900.47 48.0275 M1893.02 45.84 Q1892.93 39.7232 1889.57 36.0774 Q1886.25 32.4315 1880.74 32.4315 Q1874.5 32.4315 1870.74 35.9558 Q1867.01 39.4801 1866.44 45.8805 L1893.02 45.84 Z" fill="#000000" fill-rule="nonzero" fill-opacity="1" /><path clip-path="url(#clip920)" d="M1938.99 34.1734 Q1937.74 33.4443 1936.24 33.1202 Q1934.78 32.7556 1933 32.7556 Q1926.68 32.7556 1923.28 36.8875 Q1919.91 40.9789 1919.91 48.6757 L1919.91 72.576 L1912.42 72.576 L1912.42 27.2059 L1919.91 27.2059 L1919.91 34.2544 Q1922.26 30.1225 1926.03 28.1376 Q1929.8 26.1121 1935.18 26.1121 Q1935.95 26.1121 1936.89 26.2337 Q1937.82 26.3147 1938.95 26.5172 L1938.99 34.1734 Z" fill="#000000" fill-rule="nonzero" fill-opacity="1" /><path clip-path="url(#clip920)" d="M2009.76 14.0809 L2009.76 22.0612 Q2005.1 19.8332 2000.97 18.7395 Q1996.84 17.6457 1992.99 17.6457 Q1986.31 17.6457 1982.66 20.2383 Q1979.06 22.8309 1979.06 27.611 Q1979.06 31.6214 1981.45 33.6873 Q1983.88 35.7128 1990.6 36.9686 L1995.54 37.9813 Q2004.7 39.7232 2009.03 44.1387 Q2013.41 48.5136 2013.41 55.8863 Q2013.41 64.6767 2007.49 69.2137 Q2001.62 73.7508 1990.24 73.7508 Q1985.94 73.7508 1981.08 72.7785 Q1976.26 71.8063 1971.08 69.9024 L1971.08 61.4765 Q1976.06 64.2716 1980.84 65.6895 Q1985.62 67.1073 1990.24 67.1073 Q1997.24 67.1073 2001.05 64.3527 Q2004.86 61.598 2004.86 56.4939 Q2004.86 52.0379 2002.11 49.5264 Q1999.39 47.0148 1993.15 45.759 L1988.17 44.7868 Q1979.02 42.9639 1974.92 39.075 Q1970.83 35.1862 1970.83 28.2591 Q1970.83 20.2383 1976.46 15.6203 Q1982.13 11.0023 1992.06 11.0023 Q1996.31 11.0023 2000.73 11.7719 Q2005.14 12.5416 2009.76 14.0809 Z" fill="#000000" fill-rule="nonzero" fill-opacity="1" /><path clip-path="url(#clip920)" d="M2067.41 63.9476 L2067.41 47.7034 L2054.04 47.7034 L2054.04 40.9789 L2075.51 40.9789 L2075.51 66.9452 Q2070.77 70.3075 2065.06 72.0494 Q2059.35 73.7508 2052.86 73.7508 Q2038.69 73.7508 2030.66 65.4869 Q2022.68 57.1826 2022.68 42.3968 Q2022.68 27.5705 2030.66 19.3066 Q2038.69 11.0023 2052.86 11.0023 Q2058.78 11.0023 2064.08 12.4606 Q2069.43 13.9189 2073.93 16.7545 L2073.93 25.464 Q2069.39 21.6156 2064.29 19.6712 Q2059.18 17.7268 2053.55 17.7268 Q2042.45 17.7268 2036.86 23.9246 Q2031.31 30.1225 2031.31 42.3968 Q2031.31 54.6305 2036.86 60.8284 Q2042.45 67.0263 2053.55 67.0263 Q2057.89 67.0263 2061.29 66.2971 Q2064.69 65.5274 2067.41 63.9476 Z" fill="#000000" fill-rule="nonzero" fill-opacity="1" /><path clip-path="url(#clip920)" d="M2090.46 12.096 L2102.65 12.096 L2118.08 53.2532 L2133.6 12.096 L2145.79 12.096 L2145.79 72.576 L2137.81 72.576 L2137.81 19.4686 L2122.22 60.9499 L2113.99 60.9499 L2098.4 19.4686 L2098.4 72.576 L2090.46 72.576 L2090.46 12.096 Z" fill="#000000" fill-rule="nonzero" fill-opacity="1" /><path clip-path="url(#clip920)" d="M2179.29 32.4315 Q2173.3 32.4315 2169.81 37.1306 Q2166.33 41.7891 2166.33 49.9314 Q2166.33 58.0738 2169.77 62.7728 Q2173.26 67.4314 2179.29 67.4314 Q2185.25 67.4314 2188.73 62.7323 Q2192.21 58.0333 2192.21 49.9314 Q2192.21 41.8701 2188.73 37.1711 Q2185.25 32.4315 2179.29 32.4315 M2179.29 26.1121 Q2189.01 26.1121 2194.56 32.4315 Q2200.11 38.7509 2200.11 49.9314 Q2200.11 61.0714 2194.56 67.4314 Q2189.01 73.7508 2179.29 73.7508 Q2169.53 73.7508 2163.98 67.4314 Q2158.47 61.0714 2158.47 49.9314 Q2158.47 38.7509 2163.98 32.4315 Q2169.53 26.1121 2179.29 26.1121 Z" fill="#000000" fill-rule="nonzero" fill-opacity="1" /><path clip-path="url(#clip920)" d="M2242.32 34.0924 L2242.32 9.54393 L2249.78 9.54393 L2249.78 72.576 L2242.32 72.576 L2242.32 65.7705 Q2239.97 69.8214 2236.37 71.8063 Q2232.8 73.7508 2227.78 73.7508 Q2219.56 73.7508 2214.37 67.1883 Q2209.23 60.6258 2209.23 49.9314 Q2209.23 39.2371 2214.37 32.6746 Q2219.56 26.1121 2227.78 26.1121 Q2232.8 26.1121 2236.37 28.0971 Q2239.97 30.0415 2242.32 34.0924 M2216.93 49.9314 Q2216.93 58.1548 2220.29 62.8538 Q2223.69 67.5124 2229.6 67.5124 Q2235.52 67.5124 2238.92 62.8538 Q2242.32 58.1548 2242.32 49.9314 Q2242.32 41.7081 2238.92 37.0496 Q2235.52 32.3505 2229.6 32.3505 Q2223.69 32.3505 2220.29 37.0496 Q2216.93 41.7081 2216.93 49.9314 Z" fill="#000000" fill-rule="nonzero" fill-opacity="1" /><path clip-path="url(#clip920)" d="M2303.94 48.0275 L2303.94 51.6733 L2269.67 51.6733 Q2270.15 59.3701 2274.29 63.421 Q2278.46 67.4314 2285.87 67.4314 Q2290.17 67.4314 2294.18 66.3781 Q2298.23 65.3249 2302.2 63.2184 L2302.2 70.267 Q2298.19 71.9684 2293.97 72.8596 Q2289.76 73.7508 2285.43 73.7508 Q2274.57 73.7508 2268.21 67.4314 Q2261.89 61.1119 2261.89 50.3365 Q2261.89 39.1965 2267.89 32.6746 Q2273.92 26.1121 2284.13 26.1121 Q2293.28 26.1121 2298.59 32.0264 Q2303.94 37.9003 2303.94 48.0275 M2296.49 45.84 Q2296.4 39.7232 2293.04 36.0774 Q2289.72 32.4315 2284.21 32.4315 Q2277.97 32.4315 2274.21 35.9558 Q2270.48 39.4801 2269.91 45.8805 L2296.49 45.84 Z" fill="#000000" fill-rule="nonzero" fill-opacity="1" /><path clip-path="url(#clip920)" d="M2316.17 9.54393 L2323.63 9.54393 L2323.63 72.576 L2316.17 72.576 L2316.17 9.54393 Z" fill="#000000" fill-rule="nonzero" fill-opacity="1" /><polyline clip-path="url(#clip922)" style="stroke:#009af9; stroke-linecap:round; stroke-linejoin:round; stroke-width:4; stroke-opacity:1; fill:none" points="294.559,874.112 294.559,532.727 381.439,532.727 381.439,645.116 468.32,645.116 468.32,1323.09 555.2,1323.09 555.2,602.032 642.081,602.032 642.081,707.239 728.961,707.239 728.961,793.887 815.841,793.887 815.841,339.023 902.722,339.023 902.722,1339.01 989.602,1339.01 989.602,909.948 1076.48,909.948 1076.48,582.629 1163.36,582.629 1163.36,557.666 1250.24,557.666 1250.24,817.087 1337.12,817.087 1337.12,523.917 1424,523.917 1424,806.419 1510.88,806.419 1510.88,282.181 1597.77,282.181 1597.77,735.686 1684.65,735.686 1684.65,160.256 1771.53,160.256 1771.53,952.565 1858.41,952.565 1858.41,882.693 1945.29,882.693 1945.29,721.27 2032.17,721.27 2032.17,985.049 2119.05,985.049 2119.05,426.232 2205.93,426.232 2205.93,1386.4 2292.81,1386.4 "/>
<polyline clip-path="url(#clip922)" style="stroke:#e26f46; stroke-linecap:round; stroke-linejoin:round; stroke-width:4; stroke-opacity:1; fill:none" points="294.559,1021.45 294.559,934.28 381.439,934.28 381.439,1261.9 468.32,1261.9 468.32,1325.94 555.2,1325.94 555.2,1120.31 642.081,1120.31 642.081,1159.63 728.961,1159.63 728.961,1218.74 815.841,1218.74 815.841,740.232 902.722,740.232 902.722,1325.96 989.602,1325.96 989.602,1248.25 1076.48,1248.25 1076.48,854.801 1163.36,854.801 1163.36,811.333 1250.24,811.333 1250.24,1018.65 1337.12,1018.65 1337.12,663.367 1424,663.367 1424,927.899 1510.88,927.899 1510.88,368.147 1597.77,368.147 1597.77,779.026 1684.65,779.026 1684.65,167.481 1771.53,167.481 1771.53,944.335 1858.41,944.335 1858.41,855.985 1945.29,855.985 1945.29,685 2032.17,685 2032.17,941.194 2119.05,941.194 2119.05,367.918 2205.93,367.918 2205.93,1344.61 2292.81,1344.61 "/>
<path clip-path="url(#clip920)" d="M305.216 322.316 L1134.09 322.316 L1134.09 166.796 L305.216 166.796  Z" fill="#ffffff" fill-rule="evenodd" fill-opacity="1"/>
<polyline clip-path="url(#clip920)" style="stroke:#000000; stroke-linecap:round; stroke-linejoin:round; stroke-width:4; stroke-opacity:1; fill:none" points="305.216,322.316 1134.09,322.316 1134.09,166.796 305.216,166.796 305.216,322.316 "/>
<polyline clip-path="url(#clip920)" style="stroke:#009af9; stroke-linecap:round; stroke-linejoin:round; stroke-width:4; stroke-opacity:1; fill:none" points="328.751,218.636 469.961,218.636 "/>
<path clip-path="url(#clip920)" d="M493.496 201.356 L498.172 201.356 L498.172 235.916 L493.496 235.916 L493.496 201.356 Z" fill="#000000" fill-rule="nonzero" fill-opacity="1" /><path clip-path="url(#clip920)" d="M528.843 220.268 L528.843 235.916 L524.584 235.916 L524.584 220.407 Q524.584 216.726 523.148 214.897 Q521.713 213.069 518.843 213.069 Q515.394 213.069 513.403 215.268 Q511.412 217.467 511.412 221.263 L511.412 235.916 L507.13 235.916 L507.13 209.99 L511.412 209.99 L511.412 214.018 Q512.94 211.68 515 210.522 Q517.084 209.365 519.792 209.365 Q524.26 209.365 526.551 212.143 Q528.843 214.897 528.843 220.268 Z" fill="#000000" fill-rule="nonzero" fill-opacity="1" /><path clip-path="url(#clip920)" d="M537.338 209.99 L541.597 209.99 L541.597 235.916 L537.338 235.916 L537.338 209.99 M537.338 199.897 L541.597 199.897 L541.597 205.291 L537.338 205.291 L537.338 199.897 Z" fill="#000000" fill-rule="nonzero" fill-opacity="1" /><path clip-path="url(#clip920)" d="M554.722 202.629 L554.722 209.99 L563.495 209.99 L563.495 213.3 L554.722 213.3 L554.722 227.374 Q554.722 230.545 555.579 231.448 Q556.458 232.351 559.121 232.351 L563.495 232.351 L563.495 235.916 L559.121 235.916 Q554.19 235.916 552.315 234.087 Q550.44 232.235 550.44 227.374 L550.44 213.3 L547.315 213.3 L547.315 209.99 L550.44 209.99 L550.44 202.629 L554.722 202.629 Z" fill="#000000" fill-rule="nonzero" fill-opacity="1" /><path clip-path="url(#clip920)" d="M569.097 209.99 L573.357 209.99 L573.357 235.916 L569.097 235.916 L569.097 209.99 M569.097 199.897 L573.357 199.897 L573.357 205.291 L569.097 205.291 L569.097 199.897 Z" fill="#000000" fill-rule="nonzero" fill-opacity="1" /><path clip-path="url(#clip920)" d="M594.051 222.883 Q588.889 222.883 586.898 224.064 Q584.907 225.244 584.907 228.092 Q584.907 230.36 586.389 231.703 Q587.894 233.022 590.463 233.022 Q594.005 233.022 596.134 230.522 Q598.287 227.999 598.287 223.832 L598.287 222.883 L594.051 222.883 M602.546 221.124 L602.546 235.916 L598.287 235.916 L598.287 231.981 Q596.829 234.342 594.653 235.476 Q592.477 236.587 589.329 236.587 Q585.347 236.587 582.986 234.365 Q580.648 232.119 580.648 228.369 Q580.648 223.994 583.565 221.772 Q586.505 219.55 592.315 219.55 L598.287 219.55 L598.287 219.133 Q598.287 216.194 596.343 214.596 Q594.421 212.976 590.926 212.976 Q588.704 212.976 586.597 213.508 Q584.491 214.041 582.546 215.106 L582.546 211.17 Q584.884 210.268 587.083 209.828 Q589.282 209.365 591.366 209.365 Q596.991 209.365 599.768 212.282 Q602.546 215.198 602.546 221.124 Z" fill="#000000" fill-rule="nonzero" fill-opacity="1" /><path clip-path="url(#clip920)" d="M611.319 199.897 L615.579 199.897 L615.579 235.916 L611.319 235.916 L611.319 199.897 Z" fill="#000000" fill-rule="nonzero" fill-opacity="1" /><path clip-path="url(#clip920)" d="M639.745 201.356 L644.421 201.356 L644.421 231.981 L661.25 231.981 L661.25 235.916 L639.745 235.916 L639.745 201.356 Z" fill="#000000" fill-rule="nonzero" fill-opacity="1" /><path clip-path="url(#clip920)" d="M675.185 212.976 Q671.759 212.976 669.768 215.661 Q667.777 218.323 667.777 222.976 Q667.777 227.629 669.745 230.314 Q671.736 232.976 675.185 232.976 Q678.587 232.976 680.578 230.291 Q682.569 227.606 682.569 222.976 Q682.569 218.37 680.578 215.684 Q678.587 212.976 675.185 212.976 M675.185 209.365 Q680.74 209.365 683.912 212.976 Q687.083 216.587 687.083 222.976 Q687.083 229.342 683.912 232.976 Q680.74 236.587 675.185 236.587 Q669.606 236.587 666.435 232.976 Q663.287 229.342 663.287 222.976 Q663.287 216.587 666.435 212.976 Q669.606 209.365 675.185 209.365 Z" fill="#000000" fill-rule="nonzero" fill-opacity="1" /><path clip-path="url(#clip920)" d="M705.925 222.883 Q700.763 222.883 698.773 224.064 Q696.782 225.244 696.782 228.092 Q696.782 230.36 698.263 231.703 Q699.768 233.022 702.337 233.022 Q705.879 233.022 708.009 230.522 Q710.161 227.999 710.161 223.832 L710.161 222.883 L705.925 222.883 M714.421 221.124 L714.421 235.916 L710.161 235.916 L710.161 231.981 Q708.703 234.342 706.527 235.476 Q704.351 236.587 701.203 236.587 Q697.222 236.587 694.861 234.365 Q692.523 232.119 692.523 228.369 Q692.523 223.994 695.439 221.772 Q698.379 219.55 704.189 219.55 L710.161 219.55 L710.161 219.133 Q710.161 216.194 708.217 214.596 Q706.296 212.976 702.8 212.976 Q700.578 212.976 698.472 213.508 Q696.365 214.041 694.421 215.106 L694.421 211.17 Q696.759 210.268 698.958 209.828 Q701.157 209.365 703.24 209.365 Q708.865 209.365 711.643 212.282 Q714.421 215.198 714.421 221.124 Z" fill="#000000" fill-rule="nonzero" fill-opacity="1" /><path clip-path="url(#clip920)" d="M740.254 213.925 L740.254 199.897 L744.513 199.897 L744.513 235.916 L740.254 235.916 L740.254 232.027 Q738.911 234.342 736.851 235.476 Q734.814 236.587 731.944 236.587 Q727.245 236.587 724.282 232.837 Q721.342 229.087 721.342 222.976 Q721.342 216.865 724.282 213.115 Q727.245 209.365 731.944 209.365 Q734.814 209.365 736.851 210.499 Q738.911 211.61 740.254 213.925 M725.74 222.976 Q725.74 227.675 727.661 230.36 Q729.606 233.022 732.985 233.022 Q736.365 233.022 738.309 230.36 Q740.254 227.675 740.254 222.976 Q740.254 218.277 738.309 215.615 Q736.365 212.93 732.985 212.93 Q729.606 212.93 727.661 215.615 Q725.74 218.277 725.74 222.976 Z" fill="#000000" fill-rule="nonzero" fill-opacity="1" /><path clip-path="url(#clip920)" d="M773.217 219.411 L773.217 232.073 L780.717 232.073 Q784.49 232.073 786.295 230.522 Q788.124 228.948 788.124 225.731 Q788.124 222.49 786.295 220.962 Q784.49 219.411 780.717 219.411 L773.217 219.411 M773.217 205.198 L773.217 215.615 L780.138 215.615 Q783.564 215.615 785.23 214.342 Q786.92 213.045 786.92 210.407 Q786.92 207.791 785.23 206.495 Q783.564 205.198 780.138 205.198 L773.217 205.198 M768.541 201.356 L780.485 201.356 Q785.832 201.356 788.726 203.578 Q791.619 205.8 791.619 209.897 Q791.619 213.069 790.138 214.944 Q788.656 216.819 785.786 217.282 Q789.235 218.022 791.133 220.383 Q793.054 222.721 793.054 226.24 Q793.054 230.869 789.906 233.393 Q786.758 235.916 780.948 235.916 L768.541 235.916 L768.541 201.356 Z" fill="#000000" fill-rule="nonzero" fill-opacity="1" /><path clip-path="url(#clip920)" d="M823.054 221.888 L823.054 223.971 L803.471 223.971 Q803.749 228.369 806.11 230.684 Q808.494 232.976 812.73 232.976 Q815.184 232.976 817.476 232.374 Q819.79 231.772 822.059 230.569 L822.059 234.596 Q819.767 235.568 817.36 236.078 Q814.952 236.587 812.476 236.587 Q806.272 236.587 802.638 232.976 Q799.027 229.365 799.027 223.207 Q799.027 216.842 802.453 213.115 Q805.902 209.365 811.735 209.365 Q816.966 209.365 819.999 212.745 Q823.054 216.101 823.054 221.888 M818.795 220.638 Q818.749 217.143 816.827 215.059 Q814.929 212.976 811.781 212.976 Q808.216 212.976 806.064 214.99 Q803.934 217.004 803.61 220.661 L818.795 220.638 Z" fill="#000000" fill-rule="nonzero" fill-opacity="1" /><path clip-path="url(#clip920)" d="M843.17 199.897 L843.17 203.439 L839.096 203.439 Q836.804 203.439 835.901 204.365 Q835.022 205.291 835.022 207.698 L835.022 209.99 L842.036 209.99 L842.036 213.3 L835.022 213.3 L835.022 235.916 L830.739 235.916 L830.739 213.3 L826.665 213.3 L826.665 209.99 L830.739 209.99 L830.739 208.184 Q830.739 203.856 832.753 201.888 Q834.767 199.897 839.142 199.897 L843.17 199.897 Z" fill="#000000" fill-rule="nonzero" fill-opacity="1" /><path clip-path="url(#clip920)" d="M856.781 212.976 Q853.355 212.976 851.364 215.661 Q849.374 218.323 849.374 222.976 Q849.374 227.629 851.341 230.314 Q853.332 232.976 856.781 232.976 Q860.184 232.976 862.174 230.291 Q864.165 227.606 864.165 222.976 Q864.165 218.37 862.174 215.684 Q860.184 212.976 856.781 212.976 M856.781 209.365 Q862.336 209.365 865.508 212.976 Q868.679 216.587 868.679 222.976 Q868.679 229.342 865.508 232.976 Q862.336 236.587 856.781 236.587 Q851.202 236.587 848.031 232.976 Q844.883 229.342 844.883 222.976 Q844.883 216.587 848.031 212.976 Q851.202 209.365 856.781 209.365 Z" fill="#000000" fill-rule="nonzero" fill-opacity="1" /><path clip-path="url(#clip920)" d="M890.762 213.971 Q890.045 213.555 889.188 213.37 Q888.355 213.161 887.336 213.161 Q883.725 213.161 881.781 215.522 Q879.86 217.86 879.86 222.258 L879.86 235.916 L875.577 235.916 L875.577 209.99 L879.86 209.99 L879.86 214.018 Q881.202 211.657 883.355 210.522 Q885.508 209.365 888.586 209.365 Q889.026 209.365 889.559 209.434 Q890.091 209.481 890.739 209.596 L890.762 213.971 Z" fill="#000000" fill-rule="nonzero" fill-opacity="1" /><path clip-path="url(#clip920)" d="M931.202 202.49 L931.202 207.05 Q928.54 205.777 926.179 205.152 Q923.818 204.527 921.619 204.527 Q917.799 204.527 915.716 206.008 Q913.656 207.49 913.656 210.221 Q913.656 212.513 915.021 213.694 Q916.41 214.851 920.253 215.569 L923.077 216.147 Q928.308 217.143 930.785 219.666 Q933.285 222.166 933.285 226.379 Q933.285 231.402 929.906 233.994 Q926.549 236.587 920.045 236.587 Q917.591 236.587 914.813 236.031 Q912.058 235.476 909.095 234.388 L909.095 229.573 Q911.943 231.17 914.674 231.981 Q917.406 232.791 920.045 232.791 Q924.049 232.791 926.225 231.217 Q928.401 229.643 928.401 226.726 Q928.401 224.18 926.827 222.744 Q925.276 221.309 921.711 220.592 L918.864 220.036 Q913.633 218.995 911.295 216.772 Q908.957 214.55 908.957 210.592 Q908.957 206.008 912.174 203.37 Q915.415 200.731 921.086 200.731 Q923.517 200.731 926.04 201.171 Q928.563 201.61 931.202 202.49 Z" fill="#000000" fill-rule="nonzero" fill-opacity="1" /><path clip-path="url(#clip920)" d="M964.141 230.985 L964.141 221.703 L956.503 221.703 L956.503 217.86 L968.771 217.86 L968.771 232.698 Q966.063 234.619 962.799 235.615 Q959.535 236.587 955.831 236.587 Q947.73 236.587 943.146 231.865 Q938.586 227.119 938.586 218.67 Q938.586 210.198 943.146 205.476 Q947.73 200.731 955.831 200.731 Q959.211 200.731 962.243 201.564 Q965.299 202.397 967.868 204.018 L967.868 208.995 Q965.276 206.796 962.359 205.684 Q959.442 204.573 956.225 204.573 Q949.882 204.573 946.688 208.115 Q943.517 211.657 943.517 218.67 Q943.517 225.661 946.688 229.203 Q949.882 232.744 956.225 232.744 Q958.702 232.744 960.646 232.328 Q962.591 231.888 964.141 230.985 Z" fill="#000000" fill-rule="nonzero" fill-opacity="1" /><path clip-path="url(#clip920)" d="M977.313 201.356 L984.28 201.356 L993.1 224.874 L1001.97 201.356 L1008.93 201.356 L1008.93 235.916 L1004.37 235.916 L1004.37 205.569 L995.461 229.272 L990.762 229.272 L981.85 205.569 L981.85 235.916 L977.313 235.916 L977.313 201.356 Z" fill="#000000" fill-rule="nonzero" fill-opacity="1" /><path clip-path="url(#clip920)" d="M1028.08 212.976 Q1024.65 212.976 1022.66 215.661 Q1020.67 218.323 1020.67 222.976 Q1020.67 227.629 1022.64 230.314 Q1024.63 232.976 1028.08 232.976 Q1031.48 232.976 1033.47 230.291 Q1035.46 227.606 1035.46 222.976 Q1035.46 218.37 1033.47 215.684 Q1031.48 212.976 1028.08 212.976 M1028.08 209.365 Q1033.63 209.365 1036.8 212.976 Q1039.97 216.587 1039.97 222.976 Q1039.97 229.342 1036.8 232.976 Q1033.63 236.587 1028.08 236.587 Q1022.5 236.587 1019.33 232.976 Q1016.18 229.342 1016.18 222.976 Q1016.18 216.587 1019.33 212.976 Q1022.5 209.365 1028.08 209.365 Z" fill="#000000" fill-rule="nonzero" fill-opacity="1" /><path clip-path="url(#clip920)" d="M1064.09 213.925 L1064.09 199.897 L1068.35 199.897 L1068.35 235.916 L1064.09 235.916 L1064.09 232.027 Q1062.75 234.342 1060.69 235.476 Q1058.65 236.587 1055.78 236.587 Q1051.09 236.587 1048.12 232.837 Q1045.18 229.087 1045.18 222.976 Q1045.18 216.865 1048.12 213.115 Q1051.09 209.365 1055.78 209.365 Q1058.65 209.365 1060.69 210.499 Q1062.75 211.61 1064.09 213.925 M1049.58 222.976 Q1049.58 227.675 1051.5 230.36 Q1053.45 233.022 1056.83 233.022 Q1060.21 233.022 1062.15 230.36 Q1064.09 227.675 1064.09 222.976 Q1064.09 218.277 1062.15 215.615 Q1060.21 212.93 1056.83 212.93 Q1053.45 212.93 1051.5 215.615 Q1049.58 218.277 1049.58 222.976 Z" fill="#000000" fill-rule="nonzero" fill-opacity="1" /><path clip-path="url(#clip920)" d="M1099.3 221.888 L1099.3 223.971 L1079.72 223.971 Q1080 228.369 1082.36 230.684 Q1084.74 232.976 1088.98 232.976 Q1091.43 232.976 1093.72 232.374 Q1096.04 231.772 1098.31 230.569 L1098.31 234.596 Q1096.02 235.568 1093.61 236.078 Q1091.2 236.587 1088.72 236.587 Q1082.52 236.587 1078.89 232.976 Q1075.28 229.365 1075.28 223.207 Q1075.28 216.842 1078.7 213.115 Q1082.15 209.365 1087.98 209.365 Q1093.21 209.365 1096.25 212.745 Q1099.3 216.101 1099.3 221.888 M1095.04 220.638 Q1095 217.143 1093.08 215.059 Q1091.18 212.976 1088.03 212.976 Q1084.46 212.976 1082.31 214.99 Q1080.18 217.004 1079.86 220.661 L1095.04 220.638 Z" fill="#000000" fill-rule="nonzero" fill-opacity="1" /><path clip-path="url(#clip920)" d="M1106.29 199.897 L1110.55 199.897 L1110.55 235.916 L1106.29 235.916 L1106.29 199.897 Z" fill="#000000" fill-rule="nonzero" fill-opacity="1" /><polyline clip-path="url(#clip920)" style="stroke:#e26f46; stroke-linecap:round; stroke-linejoin:round; stroke-width:4; stroke-opacity:1; fill:none" points="328.751,270.476 469.961,270.476 "/>
<path clip-path="url(#clip920)" d="M493.496 253.196 L513.357 253.196 L513.357 257.131 L498.172 257.131 L498.172 267.316 L511.875 267.316 L511.875 271.251 L498.172 271.251 L498.172 287.756 L493.496 287.756 L493.496 253.196 Z" fill="#000000" fill-rule="nonzero" fill-opacity="1" /><path clip-path="url(#clip920)" d="M517.13 261.83 L521.389 261.83 L521.389 287.756 L517.13 287.756 L517.13 261.83 M517.13 251.737 L521.389 251.737 L521.389 257.131 L517.13 257.131 L517.13 251.737 Z" fill="#000000" fill-rule="nonzero" fill-opacity="1" /><path clip-path="url(#clip920)" d="M551.852 272.108 L551.852 287.756 L547.593 287.756 L547.593 272.247 Q547.593 268.566 546.158 266.737 Q544.722 264.909 541.852 264.909 Q538.403 264.909 536.412 267.108 Q534.422 269.307 534.422 273.103 L534.422 287.756 L530.139 287.756 L530.139 261.83 L534.422 261.83 L534.422 265.858 Q535.949 263.52 538.01 262.362 Q540.093 261.205 542.801 261.205 Q547.269 261.205 549.56 263.983 Q551.852 266.737 551.852 272.108 Z" fill="#000000" fill-rule="nonzero" fill-opacity="1" /><path clip-path="url(#clip920)" d="M572.13 274.723 Q566.968 274.723 564.977 275.904 Q562.986 277.084 562.986 279.932 Q562.986 282.2 564.468 283.543 Q565.972 284.862 568.542 284.862 Q572.083 284.862 574.213 282.362 Q576.366 279.839 576.366 275.672 L576.366 274.723 L572.13 274.723 M580.625 272.964 L580.625 287.756 L576.366 287.756 L576.366 283.821 Q574.907 286.182 572.732 287.316 Q570.556 288.427 567.408 288.427 Q563.426 288.427 561.065 286.205 Q558.727 283.959 558.727 280.209 Q558.727 275.834 561.644 273.612 Q564.583 271.39 570.394 271.39 L576.366 271.39 L576.366 270.973 Q576.366 268.034 574.421 266.436 Q572.5 264.816 569.005 264.816 Q566.783 264.816 564.676 265.348 Q562.57 265.881 560.625 266.946 L560.625 263.01 Q562.963 262.108 565.162 261.668 Q567.361 261.205 569.445 261.205 Q575.07 261.205 577.847 264.122 Q580.625 267.038 580.625 272.964 Z" fill="#000000" fill-rule="nonzero" fill-opacity="1" /><path clip-path="url(#clip920)" d="M589.398 251.737 L593.657 251.737 L593.657 287.756 L589.398 287.756 L589.398 251.737 Z" fill="#000000" fill-rule="nonzero" fill-opacity="1" /><path clip-path="url(#clip920)" d="M617.824 253.196 L622.5 253.196 L622.5 283.821 L639.328 283.821 L639.328 287.756 L617.824 287.756 L617.824 253.196 Z" fill="#000000" fill-rule="nonzero" fill-opacity="1" /><path clip-path="url(#clip920)" d="M653.264 264.816 Q649.838 264.816 647.847 267.501 Q645.856 270.163 645.856 274.816 Q645.856 279.469 647.824 282.154 Q649.814 284.816 653.264 284.816 Q656.666 284.816 658.657 282.131 Q660.648 279.446 660.648 274.816 Q660.648 270.21 658.657 267.524 Q656.666 264.816 653.264 264.816 M653.264 261.205 Q658.819 261.205 661.99 264.816 Q665.162 268.427 665.162 274.816 Q665.162 281.182 661.99 284.816 Q658.819 288.427 653.264 288.427 Q647.685 288.427 644.514 284.816 Q641.365 281.182 641.365 274.816 Q641.365 268.427 644.514 264.816 Q647.685 261.205 653.264 261.205 Z" fill="#000000" fill-rule="nonzero" fill-opacity="1" /><path clip-path="url(#clip920)" d="M684.004 274.723 Q678.842 274.723 676.851 275.904 Q674.861 277.084 674.861 279.932 Q674.861 282.2 676.342 283.543 Q677.847 284.862 680.416 284.862 Q683.958 284.862 686.087 282.362 Q688.24 279.839 688.24 275.672 L688.24 274.723 L684.004 274.723 M692.499 272.964 L692.499 287.756 L688.24 287.756 L688.24 283.821 Q686.782 286.182 684.606 287.316 Q682.43 288.427 679.282 288.427 Q675.3 288.427 672.939 286.205 Q670.601 283.959 670.601 280.209 Q670.601 275.834 673.518 273.612 Q676.458 271.39 682.268 271.39 L688.24 271.39 L688.24 270.973 Q688.24 268.034 686.296 266.436 Q684.374 264.816 680.879 264.816 Q678.657 264.816 676.55 265.348 Q674.444 265.881 672.5 266.946 L672.5 263.01 Q674.837 262.108 677.037 261.668 Q679.236 261.205 681.319 261.205 Q686.944 261.205 689.722 264.122 Q692.499 267.038 692.499 272.964 Z" fill="#000000" fill-rule="nonzero" fill-opacity="1" /><path clip-path="url(#clip920)" d="M718.333 265.765 L718.333 251.737 L722.592 251.737 L722.592 287.756 L718.333 287.756 L718.333 283.867 Q716.99 286.182 714.93 287.316 Q712.893 288.427 710.022 288.427 Q705.323 288.427 702.36 284.677 Q699.421 280.927 699.421 274.816 Q699.421 268.705 702.36 264.955 Q705.323 261.205 710.022 261.205 Q712.893 261.205 714.93 262.339 Q716.99 263.45 718.333 265.765 M703.819 274.816 Q703.819 279.515 705.74 282.2 Q707.685 284.862 711.064 284.862 Q714.444 284.862 716.388 282.2 Q718.333 279.515 718.333 274.816 Q718.333 270.117 716.388 267.455 Q714.444 264.77 711.064 264.77 Q707.685 264.77 705.74 267.455 Q703.819 270.117 703.819 274.816 Z" fill="#000000" fill-rule="nonzero" fill-opacity="1" /><path clip-path="url(#clip920)" d="M758.17 257.802 L751.828 275.001 L764.536 275.001 L758.17 257.802 M755.531 253.196 L760.832 253.196 L774.004 287.756 L769.143 287.756 L765.994 278.89 L750.416 278.89 L747.268 287.756 L742.337 287.756 L755.531 253.196 Z" fill="#000000" fill-rule="nonzero" fill-opacity="1" /><path clip-path="url(#clip920)" d="M790.3 251.737 L790.3 255.279 L786.226 255.279 Q783.934 255.279 783.031 256.205 Q782.152 257.131 782.152 259.538 L782.152 261.83 L789.166 261.83 L789.166 265.14 L782.152 265.14 L782.152 287.756 L777.869 287.756 L777.869 265.14 L773.795 265.14 L773.795 261.83 L777.869 261.83 L777.869 260.024 Q777.869 255.696 779.883 253.728 Q781.897 251.737 786.272 251.737 L790.3 251.737 Z" fill="#000000" fill-rule="nonzero" fill-opacity="1" /><path clip-path="url(#clip920)" d="M797.244 254.469 L797.244 261.83 L806.017 261.83 L806.017 265.14 L797.244 265.14 L797.244 279.214 Q797.244 282.385 798.101 283.288 Q798.98 284.191 801.642 284.191 L806.017 284.191 L806.017 287.756 L801.642 287.756 Q796.712 287.756 794.837 285.927 Q792.962 284.075 792.962 279.214 L792.962 265.14 L789.837 265.14 L789.837 261.83 L792.962 261.83 L792.962 254.469 L797.244 254.469 Z" fill="#000000" fill-rule="nonzero" fill-opacity="1" /><path clip-path="url(#clip920)" d="M833.795 273.728 L833.795 275.811 L814.212 275.811 Q814.49 280.209 816.851 282.524 Q819.235 284.816 823.471 284.816 Q825.925 284.816 828.216 284.214 Q830.531 283.612 832.8 282.409 L832.8 286.436 Q830.508 287.408 828.101 287.918 Q825.693 288.427 823.216 288.427 Q817.013 288.427 813.378 284.816 Q809.767 281.205 809.767 275.047 Q809.767 268.682 813.193 264.955 Q816.642 261.205 822.476 261.205 Q827.707 261.205 830.739 264.585 Q833.795 267.941 833.795 273.728 M829.536 272.478 Q829.489 268.983 827.568 266.899 Q825.67 264.816 822.522 264.816 Q818.957 264.816 816.804 266.83 Q814.675 268.844 814.351 272.501 L829.536 272.478 Z" fill="#000000" fill-rule="nonzero" fill-opacity="1" /><path clip-path="url(#clip920)" d="M855.809 265.811 Q855.091 265.395 854.235 265.21 Q853.401 265.001 852.383 265.001 Q848.772 265.001 846.827 267.362 Q844.906 269.7 844.906 274.098 L844.906 287.756 L840.624 287.756 L840.624 261.83 L844.906 261.83 L844.906 265.858 Q846.249 263.497 848.401 262.362 Q850.554 261.205 853.633 261.205 Q854.073 261.205 854.605 261.274 Q855.137 261.321 855.786 261.436 L855.809 265.811 Z" fill="#000000" fill-rule="nonzero" fill-opacity="1" /><path clip-path="url(#clip920)" d="M896.248 254.33 L896.248 258.89 Q893.586 257.617 891.225 256.992 Q888.864 256.367 886.665 256.367 Q882.846 256.367 880.762 257.848 Q878.702 259.33 878.702 262.061 Q878.702 264.353 880.068 265.534 Q881.457 266.691 885.299 267.409 L888.123 267.987 Q893.355 268.983 895.832 271.506 Q898.332 274.006 898.332 278.219 Q898.332 283.242 894.952 285.834 Q891.596 288.427 885.091 288.427 Q882.637 288.427 879.86 287.871 Q877.105 287.316 874.142 286.228 L874.142 281.413 Q876.989 283.01 879.721 283.821 Q882.452 284.631 885.091 284.631 Q889.096 284.631 891.272 283.057 Q893.447 281.483 893.447 278.566 Q893.447 276.02 891.873 274.584 Q890.322 273.149 886.758 272.432 L883.91 271.876 Q878.679 270.835 876.341 268.612 Q874.003 266.39 874.003 262.432 Q874.003 257.848 877.221 255.21 Q880.461 252.571 886.133 252.571 Q888.563 252.571 891.086 253.011 Q893.609 253.45 896.248 254.33 Z" fill="#000000" fill-rule="nonzero" fill-opacity="1" /><path clip-path="url(#clip920)" d="M929.188 282.825 L929.188 273.543 L921.549 273.543 L921.549 269.7 L933.818 269.7 L933.818 284.538 Q931.109 286.459 927.845 287.455 Q924.582 288.427 920.878 288.427 Q912.776 288.427 908.193 283.705 Q903.633 278.959 903.633 270.51 Q903.633 262.038 908.193 257.316 Q912.776 252.571 920.878 252.571 Q924.257 252.571 927.29 253.404 Q930.345 254.237 932.915 255.858 L932.915 260.835 Q930.322 258.636 927.406 257.524 Q924.489 256.413 921.271 256.413 Q914.929 256.413 911.734 259.955 Q908.563 263.497 908.563 270.51 Q908.563 277.501 911.734 281.043 Q914.929 284.584 921.271 284.584 Q923.748 284.584 925.693 284.168 Q927.637 283.728 929.188 282.825 Z" fill="#000000" fill-rule="nonzero" fill-opacity="1" /><path clip-path="url(#clip920)" d="M942.359 253.196 L949.327 253.196 L958.146 276.714 L967.012 253.196 L973.979 253.196 L973.979 287.756 L969.419 287.756 L969.419 257.409 L960.507 281.112 L955.808 281.112 L946.896 257.409 L946.896 287.756 L942.359 287.756 L942.359 253.196 Z" fill="#000000" fill-rule="nonzero" fill-opacity="1" /><path clip-path="url(#clip920)" d="M993.123 264.816 Q989.697 264.816 987.706 267.501 Q985.715 270.163 985.715 274.816 Q985.715 279.469 987.683 282.154 Q989.674 284.816 993.123 284.816 Q996.526 284.816 998.516 282.131 Q1000.51 279.446 1000.51 274.816 Q1000.51 270.21 998.516 267.524 Q996.526 264.816 993.123 264.816 M993.123 261.205 Q998.678 261.205 1001.85 264.816 Q1005.02 268.427 1005.02 274.816 Q1005.02 281.182 1001.85 284.816 Q998.678 288.427 993.123 288.427 Q987.544 288.427 984.373 284.816 Q981.225 281.182 981.225 274.816 Q981.225 268.427 984.373 264.816 Q987.544 261.205 993.123 261.205 Z" fill="#000000" fill-rule="nonzero" fill-opacity="1" /><path clip-path="url(#clip920)" d="M1029.14 265.765 L1029.14 251.737 L1033.4 251.737 L1033.4 287.756 L1029.14 287.756 L1029.14 283.867 Q1027.8 286.182 1025.74 287.316 Q1023.7 288.427 1020.83 288.427 Q1016.13 288.427 1013.17 284.677 Q1010.23 280.927 1010.23 274.816 Q1010.23 268.705 1013.17 264.955 Q1016.13 261.205 1020.83 261.205 Q1023.7 261.205 1025.74 262.339 Q1027.8 263.45 1029.14 265.765 M1014.63 274.816 Q1014.63 279.515 1016.55 282.2 Q1018.49 284.862 1021.87 284.862 Q1025.25 284.862 1027.2 282.2 Q1029.14 279.515 1029.14 274.816 Q1029.14 270.117 1027.2 267.455 Q1025.25 264.77 1021.87 264.77 Q1018.49 264.77 1016.55 267.455 Q1014.63 270.117 1014.63 274.816 Z" fill="#000000" fill-rule="nonzero" fill-opacity="1" /><path clip-path="url(#clip920)" d="M1064.35 273.728 L1064.35 275.811 L1044.77 275.811 Q1045.04 280.209 1047.4 282.524 Q1049.79 284.816 1054.03 284.816 Q1056.48 284.816 1058.77 284.214 Q1061.09 283.612 1063.35 282.409 L1063.35 286.436 Q1061.06 287.408 1058.65 287.918 Q1056.25 288.427 1053.77 288.427 Q1047.57 288.427 1043.93 284.816 Q1040.32 281.205 1040.32 275.047 Q1040.32 268.682 1043.75 264.955 Q1047.2 261.205 1053.03 261.205 Q1058.26 261.205 1061.29 264.585 Q1064.35 267.941 1064.35 273.728 M1060.09 272.478 Q1060.04 268.983 1058.12 266.899 Q1056.22 264.816 1053.08 264.816 Q1049.51 264.816 1047.36 266.83 Q1045.23 268.844 1044.9 272.501 L1060.09 272.478 Z" fill="#000000" fill-rule="nonzero" fill-opacity="1" /><path clip-path="url(#clip920)" d="M1071.34 251.737 L1075.6 251.737 L1075.6 287.756 L1071.34 287.756 L1071.34 251.737 Z" fill="#000000" fill-rule="nonzero" fill-opacity="1" /></svg>
