<?xml version="1.0" encoding="utf-8"?>
<svg xmlns="http://www.w3.org/2000/svg" xmlns:xlink="http://www.w3.org/1999/xlink" width="600" height="400" viewBox="0 0 2400 1600">
<defs>
  <clipPath id="clip960">
    <rect x="0" y="0" width="2400" height="1600"/>
  </clipPath>
</defs>
<path clip-path="url(#clip960)" d="M0 1600 L2400 1600 L2400 0 L0 0  Z" fill="#ffffff" fill-rule="evenodd" fill-opacity="1"/>
<defs>
  <clipPath id="clip961">
    <rect x="480" y="0" width="1681" height="1600"/>
  </clipPath>
</defs>
<path clip-path="url(#clip960)" d="M203.964 1423.18 L2352.76 1423.18 L2352.76 123.472 L203.964 123.472  Z" fill="#ffffff" fill-rule="evenodd" fill-opacity="1"/>
<defs>
  <clipPath id="clip962">
    <rect x="203" y="123" width="2150" height="1301"/>
  </clipPath>
</defs>
<polyline clip-path="url(#clip962)" style="stroke:#000000; stroke-linecap:round; stroke-linejoin:round; stroke-width:2; stroke-opacity:0.1; fill:none" points="617.328,1423.18 617.328,123.472 "/>
<polyline clip-path="url(#clip962)" style="stroke:#000000; stroke-linecap:round; stroke-linejoin:round; stroke-width:2; stroke-opacity:0.1; fill:none" points="1058.02,1423.18 1058.02,123.472 "/>
<polyline clip-path="url(#clip962)" style="stroke:#000000; stroke-linecap:round; stroke-linejoin:round; stroke-width:2; stroke-opacity:0.1; fill:none" points="1498.7,1423.18 1498.7,123.472 "/>
<polyline clip-path="url(#clip962)" style="stroke:#000000; stroke-linecap:round; stroke-linejoin:round; stroke-width:2; stroke-opacity:0.1; fill:none" points="1939.39,1423.18 1939.39,123.472 "/>
<polyline clip-path="url(#clip960)" style="stroke:#000000; stroke-linecap:round; stroke-linejoin:round; stroke-width:4; stroke-opacity:1; fill:none" points="203.964,1423.18 2352.76,1423.18 "/>
<polyline clip-path="url(#clip960)" style="stroke:#000000; stroke-linecap:round; stroke-linejoin:round; stroke-width:4; stroke-opacity:1; fill:none" points="617.328,1423.18 617.328,1404.28 "/>
<polyline clip-path="url(#clip960)" style="stroke:#000000; stroke-linecap:round; stroke-linejoin:round; stroke-width:4; stroke-opacity:1; fill:none" points="1058.02,1423.18 1058.02,1404.28 "/>
<polyline clip-path="url(#clip960)" style="stroke:#000000; stroke-linecap:round; stroke-linejoin:round; stroke-width:4; stroke-opacity:1; fill:none" points="1498.7,1423.18 1498.7,1404.28 "/>
<polyline clip-path="url(#clip960)" style="stroke:#000000; stroke-linecap:round; stroke-linejoin:round; stroke-width:4; stroke-opacity:1; fill:none" points="1939.39,1423.18 1939.39,1404.28 "/>
<path clip-path="url(#clip960)" d="M607.606 1451.02 L625.963 1451.02 L625.963 1454.96 L611.889 1454.96 L611.889 1463.43 Q612.907 1463.08 613.926 1462.92 Q614.944 1462.73 615.963 1462.73 Q621.75 1462.73 625.129 1465.9 Q628.509 1469.08 628.509 1474.49 Q628.509 1480.07 625.037 1483.17 Q621.565 1486.25 615.245 1486.25 Q613.069 1486.25 610.801 1485.88 Q608.555 1485.51 606.148 1484.77 L606.148 1480.07 Q608.231 1481.2 610.454 1481.76 Q612.676 1482.32 615.153 1482.32 Q619.157 1482.32 621.495 1480.21 Q623.833 1478.1 623.833 1474.49 Q623.833 1470.88 621.495 1468.77 Q619.157 1466.67 615.153 1466.67 Q613.278 1466.67 611.403 1467.08 Q609.551 1467.5 607.606 1468.38 L607.606 1451.02 Z" fill="#000000" fill-rule="nonzero" fill-opacity="1" /><path clip-path="url(#clip960)" d="M1032.7 1481.64 L1040.34 1481.64 L1040.34 1455.28 L1032.03 1456.95 L1032.03 1452.69 L1040.3 1451.02 L1044.97 1451.02 L1044.97 1481.64 L1052.61 1481.64 L1052.61 1485.58 L1032.7 1485.58 L1032.7 1481.64 Z" fill="#000000" fill-rule="nonzero" fill-opacity="1" /><path clip-path="url(#clip960)" d="M1072.06 1454.1 Q1068.44 1454.1 1066.62 1457.66 Q1064.81 1461.2 1064.81 1468.33 Q1064.81 1475.44 1066.62 1479.01 Q1068.44 1482.55 1072.06 1482.55 Q1075.69 1482.55 1077.5 1479.01 Q1079.32 1475.44 1079.32 1468.33 Q1079.32 1461.2 1077.5 1457.66 Q1075.69 1454.1 1072.06 1454.1 M1072.06 1450.39 Q1077.87 1450.39 1080.92 1455 Q1084 1459.58 1084 1468.33 Q1084 1477.06 1080.92 1481.67 Q1077.87 1486.25 1072.06 1486.25 Q1066.25 1486.25 1063.17 1481.67 Q1060.11 1477.06 1060.11 1468.33 Q1060.11 1459.58 1063.17 1455 Q1066.25 1450.39 1072.06 1450.39 Z" fill="#000000" fill-rule="nonzero" fill-opacity="1" /><path clip-path="url(#clip960)" d="M1473.89 1481.64 L1481.53 1481.64 L1481.53 1455.28 L1473.22 1456.95 L1473.22 1452.69 L1481.48 1451.02 L1486.16 1451.02 L1486.16 1481.64 L1493.8 1481.64 L1493.8 1485.58 L1473.89 1485.58 L1473.89 1481.64 Z" fill="#000000" fill-rule="nonzero" fill-opacity="1" /><path clip-path="url(#clip960)" d="M1503.29 1451.02 L1521.64 1451.02 L1521.64 1454.96 L1507.57 1454.96 L1507.57 1463.43 Q1508.59 1463.08 1509.61 1462.92 Q1510.62 1462.73 1511.64 1462.73 Q1517.43 1462.73 1520.81 1465.9 Q1524.19 1469.08 1524.19 1474.49 Q1524.19 1480.07 1520.72 1483.17 Q1517.25 1486.25 1510.93 1486.25 Q1508.75 1486.25 1506.48 1485.88 Q1504.24 1485.51 1501.83 1484.77 L1501.83 1480.07 Q1503.91 1481.2 1506.13 1481.76 Q1508.36 1482.32 1510.83 1482.32 Q1514.84 1482.32 1517.18 1480.21 Q1519.51 1478.1 1519.51 1474.49 Q1519.51 1470.88 1517.18 1468.77 Q1514.84 1466.67 1510.83 1466.67 Q1508.96 1466.67 1507.08 1467.08 Q1505.23 1467.5 1503.29 1468.38 L1503.29 1451.02 Z" fill="#000000" fill-rule="nonzero" fill-opacity="1" /><path clip-path="url(#clip960)" d="M1918.16 1481.64 L1934.48 1481.64 L1934.48 1485.58 L1912.54 1485.58 L1912.54 1481.64 Q1915.2 1478.89 1919.78 1474.26 Q1924.39 1469.61 1925.57 1468.27 Q1927.82 1465.74 1928.7 1464.01 Q1929.6 1462.25 1929.6 1460.56 Q1929.6 1457.8 1927.65 1456.07 Q1925.73 1454.33 1922.63 1454.33 Q1920.43 1454.33 1917.98 1455.09 Q1915.55 1455.86 1912.77 1457.41 L1912.77 1452.69 Q1915.59 1451.55 1918.05 1450.97 Q1920.5 1450.39 1922.54 1450.39 Q1927.91 1450.39 1931.1 1453.08 Q1934.3 1455.77 1934.3 1460.26 Q1934.3 1462.39 1933.49 1464.31 Q1932.7 1466.2 1930.59 1468.8 Q1930.02 1469.47 1926.91 1472.69 Q1923.81 1475.88 1918.16 1481.64 Z" fill="#000000" fill-rule="nonzero" fill-opacity="1" /><path clip-path="url(#clip960)" d="M1954.3 1454.1 Q1950.69 1454.1 1948.86 1457.66 Q1947.05 1461.2 1947.05 1468.33 Q1947.05 1475.44 1948.86 1479.01 Q1950.69 1482.55 1954.3 1482.55 Q1957.93 1482.55 1959.74 1479.01 Q1961.57 1475.44 1961.57 1468.33 Q1961.57 1461.2 1959.74 1457.66 Q1957.93 1454.1 1954.3 1454.1 M1954.3 1450.39 Q1960.11 1450.39 1963.16 1455 Q1966.24 1459.58 1966.24 1468.33 Q1966.24 1477.06 1963.16 1481.67 Q1960.11 1486.25 1954.3 1486.25 Q1948.49 1486.25 1945.41 1481.67 Q1942.35 1477.06 1942.35 1468.33 Q1942.35 1459.58 1945.41 1455 Q1948.49 1450.39 1954.3 1450.39 Z" fill="#000000" fill-rule="nonzero" fill-opacity="1" /><path clip-path="url(#clip960)" d="M1090.86 1520.52 L1131.06 1520.52 L1131.06 1525.93 L1114.19 1525.93 L1114.19 1568.04 L1107.73 1568.04 L1107.73 1525.93 L1090.86 1525.93 L1090.86 1520.52 Z" fill="#000000" fill-rule="nonzero" fill-opacity="1" /><path clip-path="url(#clip960)" d="M1135 1532.4 L1140.86 1532.4 L1140.86 1568.04 L1135 1568.04 L1135 1532.4 M1135 1518.52 L1140.86 1518.52 L1140.86 1525.93 L1135 1525.93 L1135 1518.52 Z" fill="#000000" fill-rule="nonzero" fill-opacity="1" /><path clip-path="url(#clip960)" d="M1180.87 1539.24 Q1183.07 1535.29 1186.12 1533.41 Q1189.18 1531.54 1193.31 1531.54 Q1198.88 1531.54 1201.91 1535.45 Q1204.93 1539.33 1204.93 1546.53 L1204.93 1568.04 L1199.04 1568.04 L1199.04 1546.72 Q1199.04 1541.59 1197.23 1539.11 Q1195.41 1536.63 1191.69 1536.63 Q1187.14 1536.63 1184.5 1539.65 Q1181.86 1542.68 1181.86 1547.9 L1181.86 1568.04 L1175.97 1568.04 L1175.97 1546.72 Q1175.97 1541.56 1174.15 1539.11 Q1172.34 1536.63 1168.55 1536.63 Q1164.06 1536.63 1161.42 1539.68 Q1158.78 1542.71 1158.78 1547.9 L1158.78 1568.04 L1152.89 1568.04 L1152.89 1532.4 L1158.78 1532.4 L1158.78 1537.93 Q1160.79 1534.66 1163.59 1533.1 Q1166.39 1531.54 1170.24 1531.54 Q1174.12 1531.54 1176.83 1533.51 Q1179.56 1535.48 1180.87 1539.24 Z" fill="#000000" fill-rule="nonzero" fill-opacity="1" /><path clip-path="url(#clip960)" d="M1247.1 1548.76 L1247.1 1551.62 L1220.18 1551.62 Q1220.56 1557.67 1223.81 1560.85 Q1227.08 1564 1232.91 1564 Q1236.28 1564 1239.43 1563.17 Q1242.62 1562.35 1245.74 1560.69 L1245.74 1566.23 Q1242.58 1567.57 1239.27 1568.27 Q1235.96 1568.97 1232.56 1568.97 Q1224.03 1568.97 1219.03 1564 Q1214.07 1559.04 1214.07 1550.57 Q1214.07 1541.82 1218.78 1536.69 Q1223.52 1531.54 1231.54 1531.54 Q1238.73 1531.54 1242.9 1536.18 Q1247.1 1540.8 1247.1 1548.76 M1241.25 1547.04 Q1241.18 1542.23 1238.54 1539.37 Q1235.93 1536.5 1231.6 1536.5 Q1226.7 1536.5 1223.74 1539.27 Q1220.81 1542.04 1220.37 1547.07 L1241.25 1547.04 Z" fill="#000000" fill-rule="nonzero" fill-opacity="1" /><path clip-path="url(#clip960)" d="M1291.5 1518.58 Q1287.24 1525.9 1285.17 1533.06 Q1283.1 1540.23 1283.1 1547.58 Q1283.1 1554.93 1285.17 1562.16 Q1287.27 1569.35 1291.5 1576.64 L1286.41 1576.64 Q1281.64 1569.16 1279.25 1561.93 Q1276.9 1554.71 1276.9 1547.58 Q1276.9 1540.48 1279.25 1533.29 Q1281.61 1526.09 1286.41 1518.58 L1291.5 1518.58 Z" fill="#000000" fill-rule="nonzero" fill-opacity="1" /><path clip-path="url(#clip960)" d="M1332.5 1546.53 L1332.5 1568.04 L1326.64 1568.04 L1326.64 1546.72 Q1326.64 1541.66 1324.67 1539.14 Q1322.7 1536.63 1318.75 1536.63 Q1314.01 1536.63 1311.27 1539.65 Q1308.53 1542.68 1308.53 1547.9 L1308.53 1568.04 L1302.64 1568.04 L1302.64 1518.52 L1308.53 1518.52 L1308.53 1537.93 Q1310.63 1534.72 1313.47 1533.13 Q1316.33 1531.54 1320.06 1531.54 Q1326.2 1531.54 1329.35 1535.36 Q1332.5 1539.14 1332.5 1546.53 Z" fill="#000000" fill-rule="nonzero" fill-opacity="1" /><path clip-path="url(#clip960)" d="M1357.99 1536.5 Q1353.28 1536.5 1350.55 1540.19 Q1347.81 1543.85 1347.81 1550.25 Q1347.81 1556.65 1350.52 1560.34 Q1353.25 1564 1357.99 1564 Q1362.67 1564 1365.41 1560.31 Q1368.15 1556.62 1368.15 1550.25 Q1368.15 1543.92 1365.41 1540.23 Q1362.67 1536.5 1357.99 1536.5 M1357.99 1531.54 Q1365.63 1531.54 1369.99 1536.5 Q1374.35 1541.47 1374.35 1550.25 Q1374.35 1559 1369.99 1564 Q1365.63 1568.97 1357.99 1568.97 Q1350.32 1568.97 1345.96 1564 Q1341.63 1559 1341.63 1550.25 Q1341.63 1541.47 1345.96 1536.5 Q1350.32 1531.54 1357.99 1531.54 Z" fill="#000000" fill-rule="nonzero" fill-opacity="1" /><path clip-path="url(#clip960)" d="M1383.46 1553.98 L1383.46 1532.4 L1389.31 1532.4 L1389.31 1553.75 Q1389.31 1558.81 1391.29 1561.36 Q1393.26 1563.87 1397.21 1563.87 Q1401.95 1563.87 1404.69 1560.85 Q1407.46 1557.83 1407.46 1552.61 L1407.46 1532.4 L1413.31 1532.4 L1413.31 1568.04 L1407.46 1568.04 L1407.46 1562.57 Q1405.32 1565.82 1402.49 1567.41 Q1399.69 1568.97 1395.97 1568.97 Q1389.82 1568.97 1386.64 1565.15 Q1383.46 1561.33 1383.46 1553.98 M1398.19 1531.54 L1398.19 1531.54 Z" fill="#000000" fill-rule="nonzero" fill-opacity="1" /><path clip-path="url(#clip960)" d="M1446.03 1537.87 Q1445.05 1537.3 1443.87 1537.04 Q1442.72 1536.76 1441.32 1536.76 Q1436.36 1536.76 1433.68 1540 Q1431.04 1543.22 1431.04 1549.27 L1431.04 1568.04 L1425.15 1568.04 L1425.15 1532.4 L1431.04 1532.4 L1431.04 1537.93 Q1432.89 1534.69 1435.85 1533.13 Q1438.81 1531.54 1443.04 1531.54 Q1443.65 1531.54 1444.38 1531.63 Q1445.11 1531.7 1446 1531.85 L1446.03 1537.87 Z" fill="#000000" fill-rule="nonzero" fill-opacity="1" /><path clip-path="url(#clip960)" d="M1451.25 1518.58 L1456.34 1518.58 Q1461.12 1526.09 1463.47 1533.29 Q1465.86 1540.48 1465.86 1547.58 Q1465.86 1554.71 1463.47 1561.93 Q1461.12 1569.16 1456.34 1576.64 L1451.25 1576.64 Q1455.49 1569.35 1457.55 1562.16 Q1459.66 1554.93 1459.66 1547.58 Q1459.66 1540.23 1457.55 1533.06 Q1455.49 1525.9 1451.25 1518.58 Z" fill="#000000" fill-rule="nonzero" fill-opacity="1" /><polyline clip-path="url(#clip962)" style="stroke:#000000; stroke-linecap:round; stroke-linejoin:round; stroke-width:2; stroke-opacity:0.1; fill:none" points="203.964,1386.4 2352.76,1386.4 "/>
<polyline clip-path="url(#clip962)" style="stroke:#000000; stroke-linecap:round; stroke-linejoin:round; stroke-width:2; stroke-opacity:0.1; fill:none" points="203.964,1028.9 2352.76,1028.9 "/>
<polyline clip-path="url(#clip962)" style="stroke:#000000; stroke-linecap:round; stroke-linejoin:round; stroke-width:2; stroke-opacity:0.1; fill:none" points="203.964,671.404 2352.76,671.404 "/>
<polyline clip-path="url(#clip962)" style="stroke:#000000; stroke-linecap:round; stroke-linejoin:round; stroke-width:2; stroke-opacity:0.1; fill:none" points="203.964,313.909 2352.76,313.909 "/>
<polyline clip-path="url(#clip960)" style="stroke:#000000; stroke-linecap:round; stroke-linejoin:round; stroke-width:4; stroke-opacity:1; fill:none" points="203.964,1423.18 203.964,123.472 "/>
<polyline clip-path="url(#clip960)" style="stroke:#000000; stroke-linecap:round; stroke-linejoin:round; stroke-width:4; stroke-opacity:1; fill:none" points="203.964,1386.4 222.861,1386.4 "/>
<polyline clip-path="url(#clip960)" style="stroke:#000000; stroke-linecap:round; stroke-linejoin:round; stroke-width:4; stroke-opacity:1; fill:none" points="203.964,1028.9 222.861,1028.9 "/>
<polyline clip-path="url(#clip960)" style="stroke:#000000; stroke-linecap:round; stroke-linejoin:round; stroke-width:4; stroke-opacity:1; fill:none" points="203.964,671.404 222.861,671.404 "/>
<polyline clip-path="url(#clip960)" style="stroke:#000000; stroke-linecap:round; stroke-linejoin:round; stroke-width:4; stroke-opacity:1; fill:none" points="203.964,313.909 222.861,313.909 "/>
<path clip-path="url(#clip960)" d="M156.019 1372.19 Q152.408 1372.19 150.579 1375.76 Q148.774 1379.3 148.774 1386.43 Q148.774 1393.54 150.579 1397.1 Q152.408 1400.64 156.019 1400.64 Q159.653 1400.64 161.459 1397.1 Q163.288 1393.54 163.288 1386.43 Q163.288 1379.3 161.459 1375.76 Q159.653 1372.19 156.019 1372.19 M156.019 1368.49 Q161.829 1368.49 164.885 1373.1 Q167.964 1377.68 167.964 1386.43 Q167.964 1395.16 164.885 1399.76 Q161.829 1404.35 156.019 1404.35 Q150.209 1404.35 147.13 1399.76 Q144.075 1395.16 144.075 1386.43 Q144.075 1377.68 147.13 1373.1 Q150.209 1368.49 156.019 1368.49 Z" fill="#000000" fill-rule="nonzero" fill-opacity="1" /><path clip-path="url(#clip960)" d="M116.668 1042.24 L124.306 1042.24 L124.306 1015.88 L115.996 1017.55 L115.996 1013.29 L124.26 1011.62 L128.936 1011.62 L128.936 1042.24 L136.575 1042.24 L136.575 1046.18 L116.668 1046.18 L116.668 1042.24 Z" fill="#000000" fill-rule="nonzero" fill-opacity="1" /><path clip-path="url(#clip960)" d="M156.019 1014.7 Q152.408 1014.7 150.579 1018.26 Q148.774 1021.81 148.774 1028.93 Q148.774 1036.04 150.579 1039.61 Q152.408 1043.15 156.019 1043.15 Q159.653 1043.15 161.459 1039.61 Q163.288 1036.04 163.288 1028.93 Q163.288 1021.81 161.459 1018.26 Q159.653 1014.7 156.019 1014.7 M156.019 1010.99 Q161.829 1010.99 164.885 1015.6 Q167.964 1020.18 167.964 1028.93 Q167.964 1037.66 164.885 1042.27 Q161.829 1046.85 156.019 1046.85 Q150.209 1046.85 147.13 1042.27 Q144.075 1037.66 144.075 1028.93 Q144.075 1020.18 147.13 1015.6 Q150.209 1010.99 156.019 1010.99 Z" fill="#000000" fill-rule="nonzero" fill-opacity="1" /><path clip-path="url(#clip960)" d="M119.885 684.749 L136.204 684.749 L136.204 688.684 L114.26 688.684 L114.26 684.749 Q116.922 681.994 121.505 677.365 Q126.112 672.712 127.292 671.37 Q129.538 668.846 130.417 667.11 Q131.32 665.351 131.32 663.661 Q131.32 660.907 129.376 659.171 Q127.455 657.434 124.353 657.434 Q122.154 657.434 119.7 658.198 Q117.269 658.962 114.492 660.513 L114.492 655.791 Q117.316 654.657 119.769 654.078 Q122.223 653.499 124.26 653.499 Q129.63 653.499 132.825 656.184 Q136.019 658.87 136.019 663.36 Q136.019 665.49 135.209 667.411 Q134.422 669.309 132.316 671.902 Q131.737 672.573 128.635 675.791 Q125.533 678.985 119.885 684.749 Z" fill="#000000" fill-rule="nonzero" fill-opacity="1" /><path clip-path="url(#clip960)" d="M156.019 657.203 Q152.408 657.203 150.579 660.768 Q148.774 664.309 148.774 671.439 Q148.774 678.545 150.579 682.11 Q152.408 685.652 156.019 685.652 Q159.653 685.652 161.459 682.11 Q163.288 678.545 163.288 671.439 Q163.288 664.309 161.459 660.768 Q159.653 657.203 156.019 657.203 M156.019 653.499 Q161.829 653.499 164.885 658.106 Q167.964 662.689 167.964 671.439 Q167.964 680.166 164.885 684.772 Q161.829 689.356 156.019 689.356 Q150.209 689.356 147.13 684.772 Q144.075 680.166 144.075 671.439 Q144.075 662.689 147.13 658.106 Q150.209 653.499 156.019 653.499 Z" fill="#000000" fill-rule="nonzero" fill-opacity="1" /><path clip-path="url(#clip960)" d="M130.024 312.554 Q133.38 313.272 135.255 315.541 Q137.154 317.809 137.154 321.142 Q137.154 326.258 133.635 329.059 Q130.117 331.86 123.635 331.86 Q121.459 331.86 119.144 331.42 Q116.853 331.003 114.399 330.147 L114.399 325.633 Q116.343 326.767 118.658 327.346 Q120.973 327.925 123.496 327.925 Q127.894 327.925 130.186 326.189 Q132.501 324.452 132.501 321.142 Q132.501 318.087 130.348 316.374 Q128.218 314.638 124.399 314.638 L120.371 314.638 L120.371 310.795 L124.584 310.795 Q128.033 310.795 129.862 309.429 Q131.691 308.041 131.691 305.448 Q131.691 302.786 129.792 301.374 Q127.917 299.939 124.399 299.939 Q122.478 299.939 120.279 300.355 Q118.08 300.772 115.441 301.652 L115.441 297.485 Q118.103 296.744 120.418 296.374 Q122.755 296.004 124.816 296.004 Q130.14 296.004 133.242 298.434 Q136.343 300.842 136.343 304.962 Q136.343 307.832 134.7 309.823 Q133.056 311.791 130.024 312.554 Z" fill="#000000" fill-rule="nonzero" fill-opacity="1" /><path clip-path="url(#clip960)" d="M156.019 299.707 Q152.408 299.707 150.579 303.272 Q148.774 306.814 148.774 313.943 Q148.774 321.05 150.579 324.615 Q152.408 328.156 156.019 328.156 Q159.653 328.156 161.459 324.615 Q163.288 321.05 163.288 313.943 Q163.288 306.814 161.459 303.272 Q159.653 299.707 156.019 299.707 M156.019 296.004 Q161.829 296.004 164.885 300.61 Q167.964 305.193 167.964 313.943 Q167.964 322.67 164.885 327.277 Q161.829 331.86 156.019 331.86 Q150.209 331.86 147.13 327.277 Q144.075 322.67 144.075 313.943 Q144.075 305.193 147.13 300.61 Q150.209 296.004 156.019 296.004 Z" fill="#000000" fill-rule="nonzero" fill-opacity="1" /><path clip-path="url(#clip960)" d="M21.7677 1114.35 L39.6235 1114.35 L39.6235 1106.27 Q39.6235 1101.78 37.3 1099.33 Q34.9765 1096.88 30.6797 1096.88 Q26.4147 1096.88 24.0912 1099.33 Q21.7677 1101.78 21.7677 1106.27 L21.7677 1114.35 M16.4842 1120.78 L16.4842 1106.27 Q16.4842 1098.28 20.1126 1094.21 Q23.7092 1090.1 30.6797 1090.1 Q37.7138 1090.1 41.3104 1094.21 Q44.907 1098.28 44.907 1106.27 L44.907 1114.35 L64.0042 1114.35 L64.0042 1120.78 L16.4842 1120.78 Z" fill="#000000" fill-rule="nonzero" fill-opacity="1" /><path clip-path="url(#clip960)" d="M32.4621 1070.24 Q32.4621 1074.95 36.1542 1077.69 Q39.8145 1080.42 46.212 1080.42 Q52.6095 1080.42 56.3017 1077.72 Q59.9619 1074.98 59.9619 1070.24 Q59.9619 1065.56 56.2698 1062.82 Q52.5777 1060.09 46.212 1060.09 Q39.8781 1060.09 36.186 1062.82 Q32.4621 1065.56 32.4621 1070.24 M27.4968 1070.24 Q27.4968 1062.6 32.4621 1058.24 Q37.4273 1053.88 46.212 1053.88 Q54.9649 1053.88 59.9619 1058.24 Q64.9272 1062.6 64.9272 1070.24 Q64.9272 1077.91 59.9619 1082.27 Q54.9649 1086.6 46.212 1086.6 Q37.4273 1086.6 32.4621 1082.27 Q27.4968 1077.91 27.4968 1070.24 Z" fill="#000000" fill-rule="nonzero" fill-opacity="1" /><path clip-path="url(#clip960)" d="M28.3562 1047.58 L28.3562 1041.72 L56.1743 1034.4 L28.3562 1027.11 L28.3562 1020.2 L56.1743 1012.88 L28.3562 1005.59 L28.3562 999.738 L64.0042 1009.06 L64.0042 1015.97 L34.7856 1023.64 L64.0042 1031.34 L64.0042 1038.25 L28.3562 1047.58 Z" fill="#000000" fill-rule="nonzero" fill-opacity="1" /><path clip-path="url(#clip960)" d="M44.7161 960.366 L47.5806 960.366 L47.5806 987.293 Q53.6281 986.911 56.8109 983.665 Q59.9619 980.387 59.9619 974.562 Q59.9619 971.188 59.1344 968.037 Q58.3069 964.854 56.6518 961.735 L62.1899 961.735 Q63.5267 964.886 64.227 968.196 Q64.9272 971.506 64.9272 974.912 Q64.9272 983.442 59.9619 988.439 Q54.9967 993.404 46.5303 993.404 Q37.7774 993.404 32.6531 988.694 Q27.4968 983.951 27.4968 975.931 Q27.4968 968.737 32.1438 964.568 Q36.7589 960.366 44.7161 960.366 M42.9973 966.223 Q38.1912 966.286 35.3266 968.928 Q32.4621 971.538 32.4621 975.867 Q32.4621 980.768 35.2312 983.729 Q38.0002 986.657 43.0292 987.102 L42.9973 966.223 Z" fill="#000000" fill-rule="nonzero" fill-opacity="1" /><path clip-path="url(#clip960)" d="M33.8307 930.097 Q33.2578 931.084 33.0032 932.262 Q32.7167 933.408 32.7167 934.808 Q32.7167 939.773 35.9632 942.447 Q39.1779 945.089 45.2253 945.089 L64.0042 945.089 L64.0042 950.977 L28.3562 950.977 L28.3562 945.089 L33.8944 945.089 Q30.6479 943.243 29.0883 940.283 Q27.4968 937.323 27.4968 933.089 Q27.4968 932.485 27.5923 931.753 Q27.656 931.02 27.8151 930.129 L33.8307 930.097 Z" fill="#000000" fill-rule="nonzero" fill-opacity="1" /><path clip-path="url(#clip960)" d="M20.1444 867.395 L26.9239 867.395 Q23.9002 870.642 22.4043 874.334 Q20.9083 877.994 20.9083 882.132 Q20.9083 890.28 25.9054 894.609 Q30.8707 898.937 40.2919 898.937 Q49.6813 898.937 54.6784 894.609 Q59.6436 890.28 59.6436 882.132 Q59.6436 877.994 58.1477 874.334 Q56.6518 870.642 53.6281 867.395 L60.3439 867.395 Q62.6355 870.769 63.7814 874.557 Q64.9272 878.312 64.9272 882.514 Q64.9272 893.304 58.3387 899.51 Q51.7183 905.717 40.2919 905.717 Q28.8336 905.717 22.2451 899.51 Q15.6248 893.304 15.6248 882.514 Q15.6248 878.249 16.7706 874.493 Q17.8846 870.705 20.1444 867.395 Z" fill="#000000" fill-rule="nonzero" fill-opacity="1" /><path clip-path="url(#clip960)" d="M49.9359 858.324 L28.3562 858.324 L28.3562 852.468 L49.7131 852.468 Q54.7739 852.468 57.3202 850.494 Q59.8346 848.521 59.8346 844.574 Q59.8346 839.832 56.8109 837.094 Q53.7872 834.325 48.5673 834.325 L28.3562 834.325 L28.3562 828.469 L64.0042 828.469 L64.0042 834.325 L58.5296 834.325 Q61.7762 836.458 63.3676 839.291 Q64.9272 842.092 64.9272 845.815 Q64.9272 851.958 61.1078 855.141 Q57.2883 858.324 49.9359 858.324 M27.4968 843.587 L27.4968 843.587 Z" fill="#000000" fill-rule="nonzero" fill-opacity="1" /><path clip-path="url(#clip960)" d="M33.8307 795.749 Q33.2578 796.736 33.0032 797.914 Q32.7167 799.059 32.7167 800.46 Q32.7167 805.425 35.9632 808.099 Q39.1779 810.74 45.2253 810.74 L64.0042 810.74 L64.0042 816.629 L28.3562 816.629 L28.3562 810.74 L33.8944 810.74 Q30.6479 808.894 29.0883 805.934 Q27.4968 802.974 27.4968 798.741 Q27.4968 798.136 27.5923 797.404 Q27.656 796.672 27.8151 795.781 L33.8307 795.749 Z" fill="#000000" fill-rule="nonzero" fill-opacity="1" /><path clip-path="url(#clip960)" d="M18.2347 783.813 L28.3562 783.813 L28.3562 771.75 L32.9077 771.75 L32.9077 783.813 L52.2594 783.813 Q56.6199 783.813 57.8613 782.636 Q59.1026 781.426 59.1026 777.766 L59.1026 771.75 L64.0042 771.75 L64.0042 777.766 Q64.0042 784.546 61.4897 787.124 Q58.9434 789.702 52.2594 789.702 L32.9077 789.702 L32.9077 793.999 L28.3562 793.999 L28.3562 789.702 L18.2347 789.702 L18.2347 783.813 Z" fill="#000000" fill-rule="nonzero" fill-opacity="1" /><path clip-path="url(#clip960)" d="M46.0847 747.847 Q46.0847 754.945 47.7079 757.682 Q49.3312 760.42 53.2461 760.42 Q56.3653 760.42 58.2114 758.382 Q60.0256 756.314 60.0256 752.781 Q60.0256 747.911 56.5881 744.983 Q53.1188 742.023 47.3897 742.023 L46.0847 742.023 L46.0847 747.847 M43.6657 736.166 L64.0042 736.166 L64.0042 742.023 L58.5933 742.023 Q61.8398 744.028 63.3994 747.02 Q64.9272 750.012 64.9272 754.34 Q64.9272 759.815 61.8716 763.061 Q58.7843 766.276 53.6281 766.276 Q47.6125 766.276 44.5569 762.266 Q41.5014 758.223 41.5014 750.234 L41.5014 742.023 L40.9285 742.023 Q36.8862 742.023 34.6901 744.696 Q32.4621 747.338 32.4621 752.144 Q32.4621 755.2 33.1941 758.096 Q33.9262 760.992 35.3903 763.666 L29.9795 763.666 Q28.7381 760.451 28.1334 757.428 Q27.4968 754.404 27.4968 751.539 Q27.4968 743.805 31.5072 739.986 Q35.5176 736.166 43.6657 736.166 Z" fill="#000000" fill-rule="nonzero" fill-opacity="1" /><path clip-path="url(#clip960)" d="M28.3562 724.103 L28.3562 718.247 L64.0042 718.247 L64.0042 724.103 L28.3562 724.103 M14.479 724.103 L14.479 718.247 L21.895 718.247 L21.895 724.103 L14.479 724.103 Z" fill="#000000" fill-rule="nonzero" fill-opacity="1" /><path clip-path="url(#clip960)" d="M14.479 705.993 L14.479 700.136 L64.0042 700.136 L64.0042 705.993 L14.479 705.993 Z" fill="#000000" fill-rule="nonzero" fill-opacity="1" /><path clip-path="url(#clip960)" d="M44.7161 657.391 L47.5806 657.391 L47.5806 684.317 Q53.6281 683.936 56.8109 680.689 Q59.9619 677.411 59.9619 671.586 Q59.9619 668.212 59.1344 665.061 Q58.3069 661.878 56.6518 658.759 L62.1899 658.759 Q63.5267 661.91 64.227 665.22 Q64.9272 668.531 64.9272 671.936 Q64.9272 680.466 59.9619 685.463 Q54.9967 690.429 46.5303 690.429 Q37.7774 690.429 32.6531 685.718 Q27.4968 680.975 27.4968 672.955 Q27.4968 665.761 32.1438 661.592 Q36.7589 657.391 44.7161 657.391 M42.9973 663.247 Q38.1912 663.311 35.3266 665.952 Q32.4621 668.562 32.4621 672.891 Q32.4621 677.793 35.2312 680.753 Q38.0002 683.681 43.0292 684.127 L42.9973 663.247 Z" fill="#000000" fill-rule="nonzero" fill-opacity="1" /><path clip-path="url(#clip960)" d="M33.7671 624.321 L14.479 624.321 L14.479 618.464 L64.0042 618.464 L64.0042 624.321 L58.657 624.321 Q61.8398 626.167 63.3994 629 Q64.9272 631.8 64.9272 635.747 Q64.9272 642.208 59.771 646.282 Q54.6147 650.325 46.212 650.325 Q37.8093 650.325 32.6531 646.282 Q27.4968 642.208 27.4968 635.747 Q27.4968 631.8 29.0564 629 Q30.5842 626.167 33.7671 624.321 M46.212 644.277 Q52.6732 644.277 56.3653 641.635 Q60.0256 638.962 60.0256 634.315 Q60.0256 629.668 56.3653 626.994 Q52.6732 624.321 46.212 624.321 Q39.7508 624.321 36.0905 626.994 Q32.3984 629.668 32.3984 634.315 Q32.3984 638.962 36.0905 641.635 Q39.7508 644.277 46.212 644.277 Z" fill="#000000" fill-rule="nonzero" fill-opacity="1" /><path clip-path="url(#clip960)" d="M14.5426 571.613 Q21.8632 575.878 29.0246 577.947 Q36.186 580.015 43.5384 580.015 Q50.8908 580.015 58.1159 577.947 Q65.3091 575.846 72.5979 571.613 L72.5979 576.705 Q65.1182 581.48 57.8931 583.867 Q50.668 586.222 43.5384 586.222 Q36.4406 586.222 29.2474 583.867 Q22.0542 581.511 14.5426 576.705 L14.5426 571.613 Z" fill="#000000" fill-rule="nonzero" fill-opacity="1" /><path clip-path="url(#clip960)" d="M16.4842 559.995 L16.4842 550.415 L48.8219 538.288 L16.4842 526.098 L16.4842 516.517 L64.0042 516.517 L64.0042 522.788 L22.277 522.788 L54.8694 535.042 L54.8694 541.503 L22.277 553.757 L64.0042 553.757 L64.0042 559.995 L16.4842 559.995 Z" fill="#000000" fill-rule="nonzero" fill-opacity="1" /><path clip-path="url(#clip960)" d="M16.4842 507.987 L16.4842 501.494 L56.6518 491.5 L16.4842 481.538 L16.4842 474.313 L56.6518 464.319 L16.4842 454.356 L16.4842 447.831 L64.0042 459.767 L64.0042 467.852 L22.7544 477.878 L64.0042 487.999 L64.0042 496.084 L16.4842 507.987 Z" fill="#000000" fill-rule="nonzero" fill-opacity="1" /><path clip-path="url(#clip960)" d="M14.5426 440.479 L14.5426 435.387 Q22.0542 430.612 29.2474 428.257 Q36.4406 425.87 43.5384 425.87 Q50.668 425.87 57.8931 428.257 Q65.1182 430.612 72.5979 435.387 L72.5979 440.479 Q65.3091 436.246 58.1159 434.177 Q50.8908 432.076 43.5384 432.076 Q36.186 432.076 29.0246 434.177 Q21.8632 436.246 14.5426 440.479 Z" fill="#000000" fill-rule="nonzero" fill-opacity="1" /><path clip-path="url(#clip960)" d="M556.023 17.6457 Q547.111 17.6457 541.845 24.2892 Q536.619 30.9327 536.619 42.3968 Q536.619 53.8203 541.845 60.4638 Q547.111 67.1073 556.023 67.1073 Q564.935 67.1073 570.12 60.4638 Q575.346 53.8203 575.346 42.3968 Q575.346 30.9327 570.12 24.2892 Q564.935 17.6457 556.023 17.6457 M556.023 11.0023 Q568.743 11.0023 576.358 19.5497 Q583.974 28.0566 583.974 42.3968 Q583.974 56.6965 576.358 65.2439 Q568.743 73.7508 556.023 73.7508 Q543.262 73.7508 535.606 65.2439 Q527.99 56.737 527.99 42.3968 Q527.99 28.0566 535.606 19.5497 Q543.262 11.0023 556.023 11.0023 Z" fill="#000000" fill-rule="nonzero" fill-opacity="1" /><path clip-path="url(#clip960)" d="M603.661 65.7705 L603.661 89.8329 L596.167 89.8329 L596.167 27.2059 L603.661 27.2059 L603.661 34.0924 Q606.011 30.0415 609.576 28.0971 Q613.181 26.1121 618.164 26.1121 Q626.427 26.1121 631.572 32.6746 Q636.757 39.2371 636.757 49.9314 Q636.757 60.6258 631.572 67.1883 Q626.427 73.7508 618.164 73.7508 Q613.181 73.7508 609.576 71.8063 Q606.011 69.8214 603.661 65.7705 M629.02 49.9314 Q629.02 41.7081 625.617 37.0496 Q622.255 32.3505 616.341 32.3505 Q610.426 32.3505 607.024 37.0496 Q603.661 41.7081 603.661 49.9314 Q603.661 58.1548 607.024 62.8538 Q610.426 67.5124 616.341 67.5124 Q622.255 67.5124 625.617 62.8538 Q629.02 58.1548 629.02 49.9314 Z" fill="#000000" fill-rule="nonzero" fill-opacity="1" /><path clip-path="url(#clip960)" d="M656.485 14.324 L656.485 27.2059 L671.838 27.2059 L671.838 32.9987 L656.485 32.9987 L656.485 57.6282 Q656.485 63.1779 657.984 64.7578 Q659.523 66.3376 664.182 66.3376 L671.838 66.3376 L671.838 72.576 L664.182 72.576 Q655.553 72.576 652.272 69.3758 Q648.991 66.1351 648.991 57.6282 L648.991 32.9987 L643.522 32.9987 L643.522 27.2059 L648.991 27.2059 L648.991 14.324 L656.485 14.324 Z" fill="#000000" fill-rule="nonzero" fill-opacity="1" /><path clip-path="url(#clip960)" d="M681.641 27.2059 L689.095 27.2059 L689.095 72.576 L681.641 72.576 L681.641 27.2059 M681.641 9.54393 L689.095 9.54393 L689.095 18.9825 L681.641 18.9825 L681.641 9.54393 Z" fill="#000000" fill-rule="nonzero" fill-opacity="1" /><path clip-path="url(#clip960)" d="M740.015 35.9153 Q742.81 30.8922 746.699 28.5022 Q750.588 26.1121 755.854 26.1121 Q762.943 26.1121 766.791 31.0947 Q770.64 36.0368 770.64 45.1919 L770.64 72.576 L763.145 72.576 L763.145 45.4349 Q763.145 38.913 760.836 35.7533 Q758.527 32.5936 753.788 32.5936 Q747.995 32.5936 744.633 36.4419 Q741.271 40.2903 741.271 46.9338 L741.271 72.576 L733.776 72.576 L733.776 45.4349 Q733.776 38.8725 731.467 35.7533 Q729.158 32.5936 724.338 32.5936 Q718.626 32.5936 715.264 36.4824 Q711.902 40.3308 711.902 46.9338 L711.902 72.576 L704.407 72.576 L704.407 27.2059 L711.902 27.2059 L711.902 34.2544 Q714.454 30.082 718.018 28.0971 Q721.583 26.1121 726.485 26.1121 Q731.427 26.1121 734.87 28.6237 Q738.354 31.1352 740.015 35.9153 Z" fill="#000000" fill-rule="nonzero" fill-opacity="1" /><path clip-path="url(#clip960)" d="M806.126 49.7694 Q797.092 49.7694 793.608 51.8354 Q790.125 53.9013 790.125 58.8839 Q790.125 62.8538 792.717 65.2034 Q795.35 67.5124 799.847 67.5124 Q806.045 67.5124 809.771 63.1374 Q813.539 58.7219 813.539 51.4303 L813.539 49.7694 L806.126 49.7694 M820.992 46.6907 L820.992 72.576 L813.539 72.576 L813.539 65.6895 Q810.987 69.8214 807.179 71.8063 Q803.371 73.7508 797.862 73.7508 Q790.894 73.7508 786.762 69.8619 Q782.671 65.9325 782.671 59.3701 Q782.671 51.7138 787.775 47.825 Q792.92 43.9361 803.087 43.9361 L813.539 43.9361 L813.539 43.2069 Q813.539 38.0623 810.136 35.2672 Q806.774 32.4315 800.657 32.4315 Q796.768 32.4315 793.082 33.3632 Q789.395 34.295 785.993 36.1584 L785.993 29.2718 Q790.084 27.692 793.932 26.9223 Q797.781 26.1121 801.427 26.1121 Q811.27 26.1121 816.131 31.2163 Q820.992 36.3204 820.992 46.6907 Z" fill="#000000" fill-rule="nonzero" fill-opacity="1" /><path clip-path="url(#clip960)" d="M836.345 9.54393 L843.799 9.54393 L843.799 72.576 L836.345 72.576 L836.345 9.54393 Z" fill="#000000" fill-rule="nonzero" fill-opacity="1" /><path clip-path="url(#clip960)" d="M894.273 18.8205 L894.273 41.5461 L904.563 41.5461 Q910.274 41.5461 913.394 38.5889 Q916.513 35.6318 916.513 30.163 Q916.513 24.7348 913.394 21.7777 Q910.274 18.8205 904.563 18.8205 L894.273 18.8205 M886.09 12.096 L904.563 12.096 Q914.73 12.096 919.915 16.714 Q925.141 21.2916 925.141 30.163 Q925.141 39.1155 919.915 43.6931 Q914.73 48.2706 904.563 48.2706 L894.273 48.2706 L894.273 72.576 L886.09 72.576 L886.09 12.096 Z" fill="#000000" fill-rule="nonzero" fill-opacity="1" /><path clip-path="url(#clip960)" d="M950.419 32.4315 Q944.423 32.4315 940.94 37.1306 Q937.456 41.7891 937.456 49.9314 Q937.456 58.0738 940.899 62.7728 Q944.383 67.4314 950.419 67.4314 Q956.374 67.4314 959.857 62.7323 Q963.341 58.0333 963.341 49.9314 Q963.341 41.8701 959.857 37.1711 Q956.374 32.4315 950.419 32.4315 M950.419 26.1121 Q960.141 26.1121 965.691 32.4315 Q971.24 38.7509 971.24 49.9314 Q971.24 61.0714 965.691 67.4314 Q960.141 73.7508 950.419 73.7508 Q940.656 73.7508 935.106 67.4314 Q929.597 61.0714 929.597 49.9314 Q929.597 38.7509 935.106 32.4315 Q940.656 26.1121 950.419 26.1121 Z" fill="#000000" fill-rule="nonzero" fill-opacity="1" /><path clip-path="url(#clip960)" d="M979.261 27.2059 L986.715 27.2059 L996.032 62.6108 L1005.31 27.2059 L1014.1 27.2059 L1023.42 62.6108 L1032.69 27.2059 L1040.15 27.2059 L1028.28 72.576 L1019.49 72.576 L1009.72 35.3887 L999.921 72.576 L991.13 72.576 L979.261 27.2059 Z" fill="#000000" fill-rule="nonzero" fill-opacity="1" /><path clip-path="url(#clip960)" d="M1090.26 48.0275 L1090.26 51.6733 L1055.99 51.6733 Q1056.47 59.3701 1060.6 63.421 Q1064.78 67.4314 1072.19 67.4314 Q1076.48 67.4314 1080.49 66.3781 Q1084.54 65.3249 1088.51 63.2184 L1088.51 70.267 Q1084.5 71.9684 1080.29 72.8596 Q1076.08 73.7508 1071.74 73.7508 Q1060.89 73.7508 1054.53 67.4314 Q1048.21 61.1119 1048.21 50.3365 Q1048.21 39.1965 1054.2 32.6746 Q1060.24 26.1121 1070.45 26.1121 Q1079.6 26.1121 1084.91 32.0264 Q1090.26 37.9003 1090.26 48.0275 M1082.8 45.84 Q1082.72 39.7232 1079.36 36.0774 Q1076.04 32.4315 1070.53 32.4315 Q1064.29 32.4315 1060.52 35.9558 Q1056.8 39.4801 1056.23 45.8805 L1082.8 45.84 Z" fill="#000000" fill-rule="nonzero" fill-opacity="1" /><path clip-path="url(#clip960)" d="M1128.78 34.1734 Q1127.52 33.4443 1126.03 33.1202 Q1124.57 32.7556 1122.78 32.7556 Q1116.47 32.7556 1113.06 36.8875 Q1109.7 40.9789 1109.7 48.6757 L1109.7 72.576 L1102.21 72.576 L1102.21 27.2059 L1109.7 27.2059 L1109.7 34.2544 Q1112.05 30.1225 1115.82 28.1376 Q1119.58 26.1121 1124.97 26.1121 Q1125.74 26.1121 1126.67 26.2337 Q1127.61 26.3147 1128.74 26.5172 L1128.78 34.1734 Z" fill="#000000" fill-rule="nonzero" fill-opacity="1" /><path clip-path="url(#clip960)" d="M1208.58 16.7545 L1208.58 25.383 Q1204.45 21.5346 1199.75 19.6307 Q1195.09 17.7268 1189.83 17.7268 Q1179.46 17.7268 1173.95 24.0867 Q1168.44 30.4061 1168.44 42.3968 Q1168.44 54.3469 1173.95 60.7069 Q1179.46 67.0263 1189.83 67.0263 Q1195.09 67.0263 1199.75 65.1223 Q1204.45 63.2184 1208.58 59.3701 L1208.58 67.9175 Q1204.29 70.8341 1199.47 72.2924 Q1194.69 73.7508 1189.34 73.7508 Q1175.61 73.7508 1167.71 65.3654 Q1159.81 56.9395 1159.81 42.3968 Q1159.81 27.8135 1167.71 19.4281 Q1175.61 11.0023 1189.34 11.0023 Q1194.77 11.0023 1199.55 12.4606 Q1204.37 13.8784 1208.58 16.7545 Z" fill="#000000" fill-rule="nonzero" fill-opacity="1" /><path clip-path="url(#clip960)" d="M1220.13 54.671 L1220.13 27.2059 L1227.58 27.2059 L1227.58 54.3874 Q1227.58 60.8284 1230.09 64.0691 Q1232.6 67.2693 1237.63 67.2693 Q1243.66 67.2693 1247.15 63.421 Q1250.67 59.5726 1250.67 52.9291 L1250.67 27.2059 L1258.13 27.2059 L1258.13 72.576 L1250.67 72.576 L1250.67 65.6084 Q1247.96 69.7404 1244.35 71.7658 Q1240.79 73.7508 1236.05 73.7508 Q1228.23 73.7508 1224.18 68.8897 Q1220.13 64.0286 1220.13 54.671 M1238.88 26.1121 L1238.88 26.1121 Z" fill="#000000" fill-rule="nonzero" fill-opacity="1" /><path clip-path="url(#clip960)" d="M1299.77 34.1734 Q1298.51 33.4443 1297.01 33.1202 Q1295.56 32.7556 1293.77 32.7556 Q1287.45 32.7556 1284.05 36.8875 Q1280.69 40.9789 1280.69 48.6757 L1280.69 72.576 L1273.19 72.576 L1273.19 27.2059 L1280.69 27.2059 L1280.69 34.2544 Q1283.04 30.1225 1286.81 28.1376 Q1290.57 26.1121 1295.96 26.1121 Q1296.73 26.1121 1297.66 26.2337 Q1298.59 26.3147 1299.73 26.5172 L1299.77 34.1734 Z" fill="#000000" fill-rule="nonzero" fill-opacity="1" /><path clip-path="url(#clip960)" d="M1314.96 14.324 L1314.96 27.2059 L1330.31 27.2059 L1330.31 32.9987 L1314.96 32.9987 L1314.96 57.6282 Q1314.96 63.1779 1316.46 64.7578 Q1318 66.3376 1322.66 66.3376 L1330.31 66.3376 L1330.31 72.576 L1322.66 72.576 Q1314.03 72.576 1310.75 69.3758 Q1307.47 66.1351 1307.47 57.6282 L1307.47 32.9987 L1302 32.9987 L1302 27.2059 L1307.47 27.2059 L1307.47 14.324 L1314.96 14.324 Z" fill="#000000" fill-rule="nonzero" fill-opacity="1" /><path clip-path="url(#clip960)" d="M1360.73 49.7694 Q1351.7 49.7694 1348.22 51.8354 Q1344.73 53.9013 1344.73 58.8839 Q1344.73 62.8538 1347.33 65.2034 Q1349.96 67.5124 1354.46 67.5124 Q1360.65 67.5124 1364.38 63.1374 Q1368.15 58.7219 1368.15 51.4303 L1368.15 49.7694 L1360.73 49.7694 M1375.6 46.6907 L1375.6 72.576 L1368.15 72.576 L1368.15 65.6895 Q1365.6 69.8214 1361.79 71.8063 Q1357.98 73.7508 1352.47 73.7508 Q1345.5 73.7508 1341.37 69.8619 Q1337.28 65.9325 1337.28 59.3701 Q1337.28 51.7138 1342.38 47.825 Q1347.53 43.9361 1357.7 43.9361 L1368.15 43.9361 L1368.15 43.2069 Q1368.15 38.0623 1364.75 35.2672 Q1361.38 32.4315 1355.27 32.4315 Q1351.38 32.4315 1347.69 33.3632 Q1344 34.295 1340.6 36.1584 L1340.6 29.2718 Q1344.69 27.692 1348.54 26.9223 Q1352.39 26.1121 1356.04 26.1121 Q1365.88 26.1121 1370.74 31.2163 Q1375.6 36.3204 1375.6 46.6907 Z" fill="#000000" fill-rule="nonzero" fill-opacity="1" /><path clip-path="url(#clip960)" d="M1390.95 27.2059 L1398.41 27.2059 L1398.41 72.576 L1390.95 72.576 L1390.95 27.2059 M1390.95 9.54393 L1398.41 9.54393 L1398.41 18.9825 L1390.95 18.9825 L1390.95 9.54393 Z" fill="#000000" fill-rule="nonzero" fill-opacity="1" /><path clip-path="url(#clip960)" d="M1414 9.54393 L1421.46 9.54393 L1421.46 72.576 L1414 72.576 L1414 9.54393 Z" fill="#000000" fill-rule="nonzero" fill-opacity="1" /><path clip-path="url(#clip960)" d="M1475.86 48.0275 L1475.86 51.6733 L1441.59 51.6733 Q1442.08 59.3701 1446.21 63.421 Q1450.38 67.4314 1457.79 67.4314 Q1462.09 67.4314 1466.1 66.3781 Q1470.15 65.3249 1474.12 63.2184 L1474.12 70.267 Q1470.11 71.9684 1465.9 72.8596 Q1461.68 73.7508 1457.35 73.7508 Q1446.49 73.7508 1440.13 67.4314 Q1433.81 61.1119 1433.81 50.3365 Q1433.81 39.1965 1439.81 32.6746 Q1445.84 26.1121 1456.05 26.1121 Q1465.21 26.1121 1470.51 32.0264 Q1475.86 37.9003 1475.86 48.0275 M1468.41 45.84 Q1468.33 39.7232 1464.96 36.0774 Q1461.64 32.4315 1456.13 32.4315 Q1449.9 32.4315 1446.13 35.9558 Q1442.4 39.4801 1441.83 45.8805 L1468.41 45.84 Z" fill="#000000" fill-rule="nonzero" fill-opacity="1" /><path clip-path="url(#clip960)" d="M1517.95 34.0924 L1517.95 9.54393 L1525.4 9.54393 L1525.4 72.576 L1517.95 72.576 L1517.95 65.7705 Q1515.6 69.8214 1512 71.8063 Q1508.43 73.7508 1503.41 73.7508 Q1495.18 73.7508 1490 67.1883 Q1484.85 60.6258 1484.85 49.9314 Q1484.85 39.2371 1490 32.6746 Q1495.18 26.1121 1503.41 26.1121 Q1508.43 26.1121 1512 28.0971 Q1515.6 30.0415 1517.95 34.0924 M1492.55 49.9314 Q1492.55 58.1548 1495.91 62.8538 Q1499.32 67.5124 1505.23 67.5124 Q1511.14 67.5124 1514.55 62.8538 Q1517.95 58.1548 1517.95 49.9314 Q1517.95 41.7081 1514.55 37.0496 Q1511.14 32.3505 1505.23 32.3505 Q1499.32 32.3505 1495.91 37.0496 Q1492.55 41.7081 1492.55 49.9314 Z" fill="#000000" fill-rule="nonzero" fill-opacity="1" /><path clip-path="url(#clip960)" d="M1585.03 9.62495 Q1579.61 18.942 1576.97 28.0566 Q1574.34 37.1711 1574.34 46.5287 Q1574.34 55.8863 1576.97 65.0818 Q1579.65 74.2369 1585.03 83.5134 L1578.55 83.5134 Q1572.48 73.9938 1569.44 64.7983 Q1566.44 55.6027 1566.44 46.5287 Q1566.44 37.4952 1569.44 28.3401 Q1572.44 19.1851 1578.55 9.62495 L1585.03 9.62495 Z" fill="#000000" fill-rule="nonzero" fill-opacity="1" /><path clip-path="url(#clip960)" d="M1636.07 14.0809 L1636.07 22.0612 Q1631.42 19.8332 1627.28 18.7395 Q1623.15 17.6457 1619.3 17.6457 Q1612.62 17.6457 1608.97 20.2383 Q1605.37 22.8309 1605.37 27.611 Q1605.37 31.6214 1607.76 33.6873 Q1610.19 35.7128 1616.91 36.9686 L1621.86 37.9813 Q1631.01 39.7232 1635.35 44.1387 Q1639.72 48.5136 1639.72 55.8863 Q1639.72 64.6767 1633.81 69.2137 Q1627.93 73.7508 1616.55 73.7508 Q1612.26 73.7508 1607.39 72.7785 Q1602.57 71.8063 1597.39 69.9024 L1597.39 61.4765 Q1602.37 64.2716 1607.15 65.6895 Q1611.93 67.1073 1616.55 67.1073 Q1623.56 67.1073 1627.37 64.3527 Q1631.17 61.598 1631.17 56.4939 Q1631.17 52.0379 1628.42 49.5264 Q1625.7 47.0148 1619.47 45.759 L1614.48 44.7868 Q1605.33 42.9639 1601.24 39.075 Q1597.15 35.1862 1597.15 28.2591 Q1597.15 20.2383 1602.78 15.6203 Q1608.45 11.0023 1618.37 11.0023 Q1622.63 11.0023 1627.04 11.7719 Q1631.46 12.5416 1636.07 14.0809 Z" fill="#000000" fill-rule="nonzero" fill-opacity="1" /><path clip-path="url(#clip960)" d="M1684.81 28.9478 L1684.81 35.9153 Q1681.65 34.1734 1678.45 33.3227 Q1675.29 32.4315 1672.05 32.4315 Q1664.8 32.4315 1660.79 37.0496 Q1656.77 41.6271 1656.77 49.9314 Q1656.77 58.2358 1660.79 62.8538 Q1664.8 67.4314 1672.05 67.4314 Q1675.29 67.4314 1678.45 66.5807 Q1681.65 65.6895 1684.81 63.9476 L1684.81 70.8341 Q1681.69 72.2924 1678.33 73.0216 Q1675 73.7508 1671.24 73.7508 Q1660.99 73.7508 1654.95 67.3098 Q1648.92 60.8689 1648.92 49.9314 Q1648.92 38.832 1654.99 32.472 Q1661.11 26.1121 1671.72 26.1121 Q1675.17 26.1121 1678.45 26.8413 Q1681.73 27.5299 1684.81 28.9478 Z" fill="#000000" fill-rule="nonzero" fill-opacity="1" /><path clip-path="url(#clip960)" d="M1697.77 27.2059 L1705.22 27.2059 L1705.22 72.576 L1697.77 72.576 L1697.77 27.2059 M1697.77 9.54393 L1705.22 9.54393 L1705.22 18.9825 L1697.77 18.9825 L1697.77 9.54393 Z" fill="#000000" fill-rule="nonzero" fill-opacity="1" /><path clip-path="url(#clip960)" d="M1758.53 45.1919 L1758.53 72.576 L1751.08 72.576 L1751.08 45.4349 Q1751.08 38.994 1748.57 35.7938 Q1746.06 32.5936 1741.03 32.5936 Q1735 32.5936 1731.51 36.4419 Q1728.03 40.2903 1728.03 46.9338 L1728.03 72.576 L1720.54 72.576 L1720.54 27.2059 L1728.03 27.2059 L1728.03 34.2544 Q1730.7 30.163 1734.31 28.1376 Q1737.96 26.1121 1742.69 26.1121 Q1750.51 26.1121 1754.52 30.9732 Q1758.53 35.7938 1758.53 45.1919 Z" fill="#000000" fill-rule="nonzero" fill-opacity="1" /><path clip-path="url(#clip960)" d="M1794.02 49.7694 Q1784.99 49.7694 1781.5 51.8354 Q1778.02 53.9013 1778.02 58.8839 Q1778.02 62.8538 1780.61 65.2034 Q1783.24 67.5124 1787.74 67.5124 Q1793.94 67.5124 1797.67 63.1374 Q1801.43 58.7219 1801.43 51.4303 L1801.43 49.7694 L1794.02 49.7694 M1808.89 46.6907 L1808.89 72.576 L1801.43 72.576 L1801.43 65.6895 Q1798.88 69.8214 1795.07 71.8063 Q1791.26 73.7508 1785.76 73.7508 Q1778.79 73.7508 1774.66 69.8619 Q1770.56 65.9325 1770.56 59.3701 Q1770.56 51.7138 1775.67 47.825 Q1780.81 43.9361 1790.98 43.9361 L1801.43 43.9361 L1801.43 43.2069 Q1801.43 38.0623 1798.03 35.2672 Q1794.67 32.4315 1788.55 32.4315 Q1784.66 32.4315 1780.98 33.3632 Q1777.29 34.295 1773.89 36.1584 L1773.89 29.2718 Q1777.98 27.692 1781.83 26.9223 Q1785.67 26.1121 1789.32 26.1121 Q1799.16 26.1121 1804.03 31.2163 Q1808.89 36.3204 1808.89 46.6907 Z" fill="#000000" fill-rule="nonzero" fill-opacity="1" /><path clip-path="url(#clip960)" d="M1850.53 34.1734 Q1849.27 33.4443 1847.78 33.1202 Q1846.32 32.7556 1844.53 32.7556 Q1838.21 32.7556 1834.81 36.8875 Q1831.45 40.9789 1831.45 48.6757 L1831.45 72.576 L1823.96 72.576 L1823.96 27.2059 L1831.45 27.2059 L1831.45 34.2544 Q1833.8 30.1225 1837.57 28.1376 Q1841.33 26.1121 1846.72 26.1121 Q1847.49 26.1121 1848.42 26.2337 Q1849.35 26.3147 1850.49 26.5172 L1850.53 34.1734 Z" fill="#000000" fill-rule="nonzero" fill-opacity="1" /><path clip-path="url(#clip960)" d="M1858.35 27.2059 L1865.8 27.2059 L1865.8 72.576 L1858.35 72.576 L1858.35 27.2059 M1858.35 9.54393 L1865.8 9.54393 L1865.8 18.9825 L1858.35 18.9825 L1858.35 9.54393 Z" fill="#000000" fill-rule="nonzero" fill-opacity="1" /><path clip-path="url(#clip960)" d="M1898.98 32.4315 Q1892.98 32.4315 1889.5 37.1306 Q1886.02 41.7891 1886.02 49.9314 Q1886.02 58.0738 1889.46 62.7728 Q1892.94 67.4314 1898.98 67.4314 Q1904.93 67.4314 1908.42 62.7323 Q1911.9 58.0333 1911.9 49.9314 Q1911.9 41.8701 1908.42 37.1711 Q1904.93 32.4315 1898.98 32.4315 M1898.98 26.1121 Q1908.7 26.1121 1914.25 32.4315 Q1919.8 38.7509 1919.8 49.9314 Q1919.8 61.0714 1914.25 67.4314 Q1908.7 73.7508 1898.98 73.7508 Q1889.22 73.7508 1883.67 67.4314 Q1878.16 61.0714 1878.16 49.9314 Q1878.16 38.7509 1883.67 32.4315 Q1889.22 26.1121 1898.98 26.1121 Z" fill="#000000" fill-rule="nonzero" fill-opacity="1" /><path clip-path="url(#clip960)" d="M1966.63 65.6895 L1995.19 65.6895 L1995.19 72.576 L1956.78 72.576 L1956.78 65.6895 Q1961.44 60.8689 1969.46 52.7671 Q1977.53 44.6248 1979.59 42.2752 Q1983.52 37.8598 1985.06 34.8216 Q1986.64 31.7429 1986.64 28.7857 Q1986.64 23.9651 1983.24 20.927 Q1979.88 17.8888 1974.45 17.8888 Q1970.6 17.8888 1966.3 19.2256 Q1962.05 20.5624 1957.19 23.2765 L1957.19 15.0127 Q1962.13 13.0277 1966.43 12.015 Q1970.72 11.0023 1974.28 11.0023 Q1983.68 11.0023 1989.27 15.7013 Q1994.86 20.4004 1994.86 28.2591 Q1994.86 31.9859 1993.45 35.3482 Q1992.07 38.6699 1988.38 43.2069 Q1987.37 44.3817 1981.94 50.0125 Q1976.51 55.6027 1966.63 65.6895 Z" fill="#000000" fill-rule="nonzero" fill-opacity="1" /><path clip-path="url(#clip960)" d="M2010.14 9.62495 L2016.62 9.62495 Q2022.69 19.1851 2025.69 28.3401 Q2028.73 37.4952 2028.73 46.5287 Q2028.73 55.6027 2025.69 64.7983 Q2022.69 73.9938 2016.62 83.5134 L2010.14 83.5134 Q2015.52 74.2369 2018.16 65.0818 Q2020.83 55.8863 2020.83 46.5287 Q2020.83 37.1711 2018.16 28.0566 Q2015.52 18.942 2010.14 9.62495 Z" fill="#000000" fill-rule="nonzero" fill-opacity="1" /><polyline clip-path="url(#clip962)" style="stroke:#009af9; stroke-linecap:round; stroke-linejoin:round; stroke-width:4; stroke-opacity:1; fill:none" points="264.778,1136.41 264.778,1044.86 352.916,1044.86 352.916,1037.32 441.053,1037.32 441.053,1385.85 529.191,1385.85 529.191,1051.08 617.328,1051.08 617.328,1090.26 705.466,1090.26 705.466,1127.64 793.603,1127.64 793.603,1170.5 881.741,1170.5 881.741,1385.88 969.878,1385.88 969.878,1228.98 1058.02,1228.98 1058.02,1268.47 1146.15,1268.47 1146.15,1247.28 1234.29,1247.28 1234.29,1309.9 1322.43,1309.9 1322.43,1326.94 1410.57,1326.94 1410.57,1351.72 1498.7,1351.72 1498.7,1364.09 1586.84,1364.09 1586.84,1377.87 1674.98,1377.87 1674.98,1383.96 1763.12,1383.96 1763.12,1385.62 1851.25,1385.62 1851.25,1385.9 1939.39,1385.9 1939.39,1385.97 2027.53,1385.97 2027.53,1386.08 2115.67,1386.08 2115.67,1386.11 2203.8,1386.11 2203.8,1386.4 2291.94,1386.4 "/>
<polyline clip-path="url(#clip962)" style="stroke:#e26f46; stroke-linecap:round; stroke-linejoin:round; stroke-width:4; stroke-opacity:1; fill:none" points="264.778,1136.42 264.778,1025.08 352.916,1025.08 352.916,790.067 441.053,790.067 441.053,1385.73 529.191,1385.73 529.191,953.291 617.328,953.291 617.328,978.734 705.466,978.734 705.466,1002.09 793.603,1002.09 793.603,1038.33 881.741,1038.33 881.741,1385.21 969.878,1385.21 969.878,1119.96 1058.02,1119.96 1058.02,1135.59 1146.15,1135.59 1146.15,1153.63 1234.29,1153.63 1234.29,1234.86 1322.43,1234.86 1322.43,1277.68 1410.57,1277.68 1410.57,1310.56 1498.7,1310.56 1498.7,1341.13 1586.84,1341.13 1586.84,1370.88 1674.98,1370.88 1674.98,1382.46 1763.12,1382.46 1763.12,1385.14 1851.25,1385.14 1851.25,1385.81 1939.39,1385.81 1939.39,1385.96 2027.53,1385.96 2027.53,1386.04 2115.67,1386.04 2115.67,1385.96 2203.8,1385.96 2203.8,1386.4 2291.94,1386.4 "/>
<polyline clip-path="url(#clip962)" style="stroke:#3da44d; stroke-linecap:round; stroke-linejoin:round; stroke-width:4; stroke-opacity:1; fill:none" points="264.778,1207.93 264.778,828.149 352.916,828.149 352.916,730.03 441.053,730.03 441.053,1379.9 529.191,1379.9 529.191,666.496 617.328,666.496 617.328,821.56 705.466,821.56 705.466,840.759 793.603,840.759 793.603,894.685 881.741,894.685 881.741,1385.31 969.878,1385.31 969.878,987.758 1058.02,987.758 1058.02,1059.23 1146.15,1059.23 1146.15,1076.69 1234.29,1076.69 1234.29,1149.83 1322.43,1149.83 1322.43,1220.43 1410.57,1220.43 1410.57,1229.83 1498.7,1229.83 1498.7,1275.59 1586.84,1275.59 1586.84,1332.89 1674.98,1332.89 1674.98,1346.89 1763.12,1346.89 1763.12,1383.11 1851.25,1383.11 1851.25,1385.61 1939.39,1385.61 1939.39,1385.82 2027.53,1385.82 2027.53,1386.01 2115.67,1386.01 2115.67,1386.1 2203.8,1386.1 2203.8,1386.4 2291.94,1386.4 "/>
<polyline clip-path="url(#clip962)" style="stroke:#c271d2; stroke-linecap:round; stroke-linejoin:round; stroke-width:4; stroke-opacity:1; fill:none" points="264.778,1136.43 264.778,787.085 352.916,787.085 352.916,478.024 441.053,478.024 441.053,1381.27 529.191,1381.27 529.191,705.186 617.328,705.186 617.328,629.136 705.466,629.136 705.466,763.742 793.603,763.742 793.603,784.151 881.741,784.151 881.741,1384.33 969.878,1384.33 969.878,831.278 1058.02,831.278 1058.02,947.733 1146.15,947.733 1146.15,1022.86 1234.29,1022.86 1234.29,1034.58 1322.43,1034.58 1322.43,1129.98 1410.57,1129.98 1410.57,1193.93 1498.7,1193.93 1498.7,1210.95 1586.84,1210.95 1586.84,1242.51 1674.98,1242.51 1674.98,1322.03 1763.12,1322.03 1763.12,1365.48 1851.25,1365.48 1851.25,1382.51 1939.39,1382.51 1939.39,1383.9 2027.53,1383.9 2027.53,1385.78 2115.67,1385.78 2115.67,1386.05 2203.8,1386.05 2203.8,1386.4 2291.94,1386.4 "/>
<polyline clip-path="url(#clip962)" style="stroke:#ac8d18; stroke-linecap:round; stroke-linejoin:round; stroke-width:4; stroke-opacity:1; fill:none" points="264.778,1243.75 264.778,766.761 352.916,766.761 352.916,160.256 441.053,160.256 441.053,1269.21 529.191,1269.21 529.191,409.138 617.328,409.138 617.328,522.312 705.466,522.312 705.466,648.048 793.603,648.048 793.603,549.542 881.741,549.542 881.741,1358.87 969.878,1358.87 969.878,696.787 1058.02,696.787 1058.02,793.123 1146.15,793.123 1146.15,869.864 1234.29,869.864 1234.29,964.636 1322.43,964.636 1322.43,1039.72 1410.57,1039.72 1410.57,1088.73 1498.7,1088.73 1498.7,1073.2 1586.84,1073.2 1586.84,1236.18 1674.98,1236.18 1674.98,1246.22 1763.12,1246.22 1763.12,1328.83 1851.25,1328.83 1851.25,1370.44 1939.39,1370.44 1939.39,1359.28 2027.53,1359.28 2027.53,1385.3 2115.67,1385.3 2115.67,1385.23 2203.8,1385.23 2203.8,1386.4 2291.94,1386.4 "/>
<polyline clip-path="url(#clip962)" style="stroke:#00a9ad; stroke-linecap:round; stroke-linejoin:round; stroke-width:4; stroke-opacity:1; fill:none" points="264.778,1100.69 264.778,904.506 352.916,904.506 352.916,626.457 441.053,626.457 441.053,1278.66 529.191,1278.66 529.191,682.602 617.328,682.602 617.328,991.444 705.466,991.444 705.466,818.343 793.603,818.343 793.603,822.428 881.741,822.428 881.741,1297.78 969.878,1297.78 969.878,892.415 1058.02,892.415 1058.02,1002.42 1146.15,1002.42 1146.15,954.927 1234.29,954.927 1234.29,1015.97 1322.43,1015.97 1322.43,1044.85 1410.57,1044.85 1410.57,1081.62 1498.7,1081.62 1498.7,1100.25 1586.84,1100.25 1586.84,1163.04 1674.98,1163.04 1674.98,1203.92 1763.12,1203.92 1763.12,1273.5 1851.25,1273.5 1851.25,1277.68 1939.39,1277.68 1939.39,1315.41 2027.53,1315.41 2027.53,1369.87 2115.67,1369.87 2115.67,1381.83 2203.8,1381.83 2203.8,1386.4 2291.94,1386.4 "/>
<polyline clip-path="url(#clip962)" style="stroke:#ed5d92; stroke-linecap:round; stroke-linejoin:round; stroke-width:4; stroke-opacity:1; fill:none" points="264.778,1208.1 264.778,805.471 352.916,805.471 352.916,715.648 441.053,715.648 441.053,1275.84 529.191,1275.84 529.191,815.774 617.328,815.774 617.328,773.311 705.466,773.311 705.466,832.541 793.603,832.541 793.603,865.072 881.741,865.072 881.741,1283.6 969.878,1283.6 969.878,958.957 1058.02,958.957 1058.02,952.556 1146.15,952.556 1146.15,969.899 1234.29,969.899 1234.29,1034.67 1322.43,1034.67 1322.43,1118.88 1410.57,1118.88 1410.57,1097.31 1498.7,1097.31 1498.7,1146.32 1586.84,1146.32 1586.84,1211.93 1674.98,1211.93 1674.98,1195.11 1763.12,1195.11 1763.12,1250.87 1851.25,1250.87 1851.25,1311.6 1939.39,1311.6 1939.39,1322.57 2027.53,1322.57 2027.53,1351.91 2115.67,1351.91 2115.67,1328.77 2203.8,1328.77 2203.8,1386.4 2291.94,1386.4 "/>
<path clip-path="url(#clip960)" d="M1803.06 581.516 L2281.13 581.516 L2281.13 166.796 L1803.06 166.796  Z" fill="#ffffff" fill-rule="evenodd" fill-opacity="1"/>
<polyline clip-path="url(#clip960)" style="stroke:#000000; stroke-linecap:round; stroke-linejoin:round; stroke-width:4; stroke-opacity:1; fill:none" points="1803.06,581.516 2281.13,581.516 2281.13,166.796 1803.06,166.796 1803.06,581.516 "/>
<polyline clip-path="url(#clip960)" style="stroke:#009af9; stroke-linecap:round; stroke-linejoin:round; stroke-width:4; stroke-opacity:1; fill:none" points="1826.93,218.636 1970.19,218.636 "/>
<path clip-path="url(#clip960)" d="M2014.57 210.985 L2014.57 214.967 Q2012.76 213.971 2010.94 213.485 Q2009.13 212.976 2007.28 212.976 Q2003.14 212.976 2000.84 215.615 Q1998.55 218.231 1998.55 222.976 Q1998.55 227.721 2000.84 230.36 Q2003.14 232.976 2007.28 232.976 Q2009.13 232.976 2010.94 232.49 Q2012.76 231.981 2014.57 230.985 L2014.57 234.92 Q2012.79 235.754 2010.87 236.17 Q2008.97 236.587 2006.82 236.587 Q2000.96 236.587 1997.51 232.906 Q1994.06 229.226 1994.06 222.976 Q1994.06 216.633 1997.53 212.999 Q2001.03 209.365 2007.09 209.365 Q2009.06 209.365 2010.94 209.782 Q2012.81 210.175 2014.57 210.985 Z" fill="#000000" fill-rule="nonzero" fill-opacity="1" /><path clip-path="url(#clip960)" d="M2021.54 225.684 L2021.54 209.99 L2025.8 209.99 L2025.8 225.522 Q2025.8 229.203 2027.23 231.055 Q2028.67 232.883 2031.54 232.883 Q2034.99 232.883 2036.98 230.684 Q2038.99 228.485 2038.99 224.689 L2038.99 209.99 L2043.25 209.99 L2043.25 235.916 L2038.99 235.916 L2038.99 231.934 Q2037.44 234.295 2035.38 235.453 Q2033.34 236.587 2030.63 236.587 Q2026.17 236.587 2023.85 233.809 Q2021.54 231.031 2021.54 225.684 M2032.26 209.365 L2032.26 209.365 Z" fill="#000000" fill-rule="nonzero" fill-opacity="1" /><path clip-path="url(#clip960)" d="M2068.55 210.754 L2068.55 214.782 Q2066.75 213.856 2064.8 213.393 Q2062.86 212.93 2060.77 212.93 Q2057.6 212.93 2056.01 213.902 Q2054.43 214.874 2054.43 216.819 Q2054.43 218.3 2055.57 219.157 Q2056.7 219.99 2060.13 220.754 L2061.58 221.078 Q2066.12 222.05 2068.02 223.832 Q2069.94 225.592 2069.94 228.763 Q2069.94 232.374 2067.07 234.481 Q2064.22 236.587 2059.22 236.587 Q2057.14 236.587 2054.87 236.17 Q2052.63 235.777 2050.13 234.967 L2050.13 230.569 Q2052.49 231.795 2054.78 232.42 Q2057.07 233.022 2059.32 233.022 Q2062.32 233.022 2063.94 232.004 Q2065.57 230.962 2065.57 229.087 Q2065.57 227.351 2064.38 226.425 Q2063.23 225.499 2059.27 224.643 L2057.79 224.295 Q2053.83 223.462 2052.07 221.749 Q2050.31 220.013 2050.31 217.004 Q2050.31 213.346 2052.9 211.356 Q2055.5 209.365 2060.26 209.365 Q2062.63 209.365 2064.71 209.712 Q2066.79 210.059 2068.55 210.754 Z" fill="#000000" fill-rule="nonzero" fill-opacity="1" /><path clip-path="url(#clip960)" d="M2080.94 202.629 L2080.94 209.99 L2089.71 209.99 L2089.71 213.3 L2080.94 213.3 L2080.94 227.374 Q2080.94 230.545 2081.79 231.448 Q2082.67 232.351 2085.33 232.351 L2089.71 232.351 L2089.71 235.916 L2085.33 235.916 Q2080.4 235.916 2078.53 234.087 Q2076.65 232.235 2076.65 227.374 L2076.65 213.3 L2073.53 213.3 L2073.53 209.99 L2076.65 209.99 L2076.65 202.629 L2080.94 202.629 Z" fill="#000000" fill-rule="nonzero" fill-opacity="1" /><path clip-path="url(#clip960)" d="M2105.36 212.976 Q2101.93 212.976 2099.94 215.661 Q2097.95 218.323 2097.95 222.976 Q2097.95 227.629 2099.92 230.314 Q2101.91 232.976 2105.36 232.976 Q2108.76 232.976 2110.75 230.291 Q2112.74 227.606 2112.74 222.976 Q2112.74 218.37 2110.75 215.684 Q2108.76 212.976 2105.36 212.976 M2105.36 209.365 Q2110.91 209.365 2114.08 212.976 Q2117.25 216.587 2117.25 222.976 Q2117.25 229.342 2114.08 232.976 Q2110.91 236.587 2105.36 236.587 Q2099.78 236.587 2096.61 232.976 Q2093.46 229.342 2093.46 222.976 Q2093.46 216.587 2096.61 212.976 Q2099.78 209.365 2105.36 209.365 Z" fill="#000000" fill-rule="nonzero" fill-opacity="1" /><path clip-path="url(#clip960)" d="M2144.5 214.967 Q2146.1 212.096 2148.32 210.731 Q2150.54 209.365 2153.55 209.365 Q2157.6 209.365 2159.8 212.212 Q2162 215.036 2162 220.268 L2162 235.916 L2157.72 235.916 L2157.72 220.407 Q2157.72 216.68 2156.4 214.874 Q2155.08 213.069 2152.37 213.069 Q2149.06 213.069 2147.14 215.268 Q2145.22 217.467 2145.22 221.263 L2145.22 235.916 L2140.94 235.916 L2140.94 220.407 Q2140.94 216.657 2139.62 214.874 Q2138.3 213.069 2135.54 213.069 Q2132.28 213.069 2130.36 215.291 Q2128.44 217.49 2128.44 221.263 L2128.44 235.916 L2124.15 235.916 L2124.15 209.99 L2128.44 209.99 L2128.44 214.018 Q2129.89 211.633 2131.93 210.499 Q2133.97 209.365 2136.77 209.365 Q2139.59 209.365 2141.56 210.8 Q2143.55 212.235 2144.5 214.967 Z" fill="#000000" fill-rule="nonzero" fill-opacity="1" /><path clip-path="url(#clip960)" d="M2192.67 221.888 L2192.67 223.971 L2173.09 223.971 Q2173.37 228.369 2175.73 230.684 Q2178.11 232.976 2182.35 232.976 Q2184.8 232.976 2187.09 232.374 Q2189.41 231.772 2191.68 230.569 L2191.68 234.596 Q2189.38 235.568 2186.98 236.078 Q2184.57 236.587 2182.09 236.587 Q2175.89 236.587 2172.25 232.976 Q2168.64 229.365 2168.64 223.207 Q2168.64 216.842 2172.07 213.115 Q2175.52 209.365 2181.35 209.365 Q2186.58 209.365 2189.62 212.745 Q2192.67 216.101 2192.67 221.888 M2188.41 220.638 Q2188.37 217.143 2186.44 215.059 Q2184.55 212.976 2181.4 212.976 Q2177.83 212.976 2175.68 214.99 Q2173.55 217.004 2173.23 220.661 L2188.41 220.638 Z" fill="#000000" fill-rule="nonzero" fill-opacity="1" /><path clip-path="url(#clip960)" d="M2214.68 213.971 Q2213.97 213.555 2213.11 213.37 Q2212.28 213.161 2211.26 213.161 Q2207.65 213.161 2205.7 215.522 Q2203.78 217.86 2203.78 222.258 L2203.78 235.916 L2199.5 235.916 L2199.5 209.99 L2203.78 209.99 L2203.78 214.018 Q2205.12 211.657 2207.28 210.522 Q2209.43 209.365 2212.51 209.365 Q2212.95 209.365 2213.48 209.434 Q2214.01 209.481 2214.66 209.596 L2214.68 213.971 Z" fill="#000000" fill-rule="nonzero" fill-opacity="1" /><path clip-path="url(#clip960)" d="M2235.63 231.981 L2243.27 231.981 L2243.27 205.615 L2234.96 207.282 L2234.96 203.022 L2243.23 201.356 L2247.9 201.356 L2247.9 231.981 L2255.54 231.981 L2255.54 235.916 L2235.63 235.916 L2235.63 231.981 Z" fill="#000000" fill-rule="nonzero" fill-opacity="1" /><polyline clip-path="url(#clip960)" style="stroke:#e26f46; stroke-linecap:round; stroke-linejoin:round; stroke-width:4; stroke-opacity:1; fill:none" points="1826.93,270.476 1970.19,270.476 "/>
<path clip-path="url(#clip960)" d="M2014.57 262.825 L2014.57 266.807 Q2012.76 265.811 2010.94 265.325 Q2009.13 264.816 2007.28 264.816 Q2003.14 264.816 2000.84 267.455 Q1998.55 270.071 1998.55 274.816 Q1998.55 279.561 2000.84 282.2 Q2003.14 284.816 2007.28 284.816 Q2009.13 284.816 2010.94 284.33 Q2012.76 283.821 2014.57 282.825 L2014.57 286.76 Q2012.79 287.594 2010.87 288.01 Q2008.97 288.427 2006.82 288.427 Q2000.96 288.427 1997.51 284.746 Q1994.06 281.066 1994.06 274.816 Q1994.06 268.473 1997.53 264.839 Q2001.03 261.205 2007.09 261.205 Q2009.06 261.205 2010.94 261.622 Q2012.81 262.015 2014.57 262.825 Z" fill="#000000" fill-rule="nonzero" fill-opacity="1" /><path clip-path="url(#clip960)" d="M2021.54 277.524 L2021.54 261.83 L2025.8 261.83 L2025.8 277.362 Q2025.8 281.043 2027.23 282.895 Q2028.67 284.723 2031.54 284.723 Q2034.99 284.723 2036.98 282.524 Q2038.99 280.325 2038.99 276.529 L2038.99 261.83 L2043.25 261.83 L2043.25 287.756 L2038.99 287.756 L2038.99 283.774 Q2037.44 286.135 2035.38 287.293 Q2033.34 288.427 2030.63 288.427 Q2026.17 288.427 2023.85 285.649 Q2021.54 282.871 2021.54 277.524 M2032.26 261.205 L2032.26 261.205 Z" fill="#000000" fill-rule="nonzero" fill-opacity="1" /><path clip-path="url(#clip960)" d="M2068.55 262.594 L2068.55 266.622 Q2066.75 265.696 2064.8 265.233 Q2062.86 264.77 2060.77 264.77 Q2057.6 264.77 2056.01 265.742 Q2054.43 266.714 2054.43 268.659 Q2054.43 270.14 2055.57 270.997 Q2056.7 271.83 2060.13 272.594 L2061.58 272.918 Q2066.12 273.89 2068.02 275.672 Q2069.94 277.432 2069.94 280.603 Q2069.94 284.214 2067.07 286.321 Q2064.22 288.427 2059.22 288.427 Q2057.14 288.427 2054.87 288.01 Q2052.63 287.617 2050.13 286.807 L2050.13 282.409 Q2052.49 283.635 2054.78 284.26 Q2057.07 284.862 2059.32 284.862 Q2062.32 284.862 2063.94 283.844 Q2065.57 282.802 2065.57 280.927 Q2065.57 279.191 2064.38 278.265 Q2063.23 277.339 2059.27 276.483 L2057.79 276.135 Q2053.83 275.302 2052.07 273.589 Q2050.31 271.853 2050.31 268.844 Q2050.31 265.186 2052.9 263.196 Q2055.5 261.205 2060.26 261.205 Q2062.63 261.205 2064.71 261.552 Q2066.79 261.899 2068.55 262.594 Z" fill="#000000" fill-rule="nonzero" fill-opacity="1" /><path clip-path="url(#clip960)" d="M2080.94 254.469 L2080.94 261.83 L2089.71 261.83 L2089.71 265.14 L2080.94 265.14 L2080.94 279.214 Q2080.94 282.385 2081.79 283.288 Q2082.67 284.191 2085.33 284.191 L2089.71 284.191 L2089.71 287.756 L2085.33 287.756 Q2080.4 287.756 2078.53 285.927 Q2076.65 284.075 2076.65 279.214 L2076.65 265.14 L2073.53 265.14 L2073.53 261.83 L2076.65 261.83 L2076.65 254.469 L2080.94 254.469 Z" fill="#000000" fill-rule="nonzero" fill-opacity="1" /><path clip-path="url(#clip960)" d="M2105.36 264.816 Q2101.93 264.816 2099.94 267.501 Q2097.95 270.163 2097.95 274.816 Q2097.95 279.469 2099.92 282.154 Q2101.91 284.816 2105.36 284.816 Q2108.76 284.816 2110.75 282.131 Q2112.74 279.446 2112.74 274.816 Q2112.74 270.21 2110.75 267.524 Q2108.76 264.816 2105.36 264.816 M2105.36 261.205 Q2110.91 261.205 2114.08 264.816 Q2117.25 268.427 2117.25 274.816 Q2117.25 281.182 2114.08 284.816 Q2110.91 288.427 2105.36 288.427 Q2099.78 288.427 2096.61 284.816 Q2093.46 281.182 2093.46 274.816 Q2093.46 268.427 2096.61 264.816 Q2099.78 261.205 2105.36 261.205 Z" fill="#000000" fill-rule="nonzero" fill-opacity="1" /><path clip-path="url(#clip960)" d="M2144.5 266.807 Q2146.1 263.936 2148.32 262.571 Q2150.54 261.205 2153.55 261.205 Q2157.6 261.205 2159.8 264.052 Q2162 266.876 2162 272.108 L2162 287.756 L2157.72 287.756 L2157.72 272.247 Q2157.72 268.52 2156.4 266.714 Q2155.08 264.909 2152.37 264.909 Q2149.06 264.909 2147.14 267.108 Q2145.22 269.307 2145.22 273.103 L2145.22 287.756 L2140.94 287.756 L2140.94 272.247 Q2140.94 268.497 2139.62 266.714 Q2138.3 264.909 2135.54 264.909 Q2132.28 264.909 2130.36 267.131 Q2128.44 269.33 2128.44 273.103 L2128.44 287.756 L2124.15 287.756 L2124.15 261.83 L2128.44 261.83 L2128.44 265.858 Q2129.89 263.473 2131.93 262.339 Q2133.97 261.205 2136.77 261.205 Q2139.59 261.205 2141.56 262.64 Q2143.55 264.075 2144.5 266.807 Z" fill="#000000" fill-rule="nonzero" fill-opacity="1" /><path clip-path="url(#clip960)" d="M2192.67 273.728 L2192.67 275.811 L2173.09 275.811 Q2173.37 280.209 2175.73 282.524 Q2178.11 284.816 2182.35 284.816 Q2184.8 284.816 2187.09 284.214 Q2189.41 283.612 2191.68 282.409 L2191.68 286.436 Q2189.38 287.408 2186.98 287.918 Q2184.57 288.427 2182.09 288.427 Q2175.89 288.427 2172.25 284.816 Q2168.64 281.205 2168.64 275.047 Q2168.64 268.682 2172.07 264.955 Q2175.52 261.205 2181.35 261.205 Q2186.58 261.205 2189.62 264.585 Q2192.67 267.941 2192.67 273.728 M2188.41 272.478 Q2188.37 268.983 2186.44 266.899 Q2184.55 264.816 2181.4 264.816 Q2177.83 264.816 2175.68 266.83 Q2173.55 268.844 2173.23 272.501 L2188.41 272.478 Z" fill="#000000" fill-rule="nonzero" fill-opacity="1" /><path clip-path="url(#clip960)" d="M2214.68 265.811 Q2213.97 265.395 2213.11 265.21 Q2212.28 265.001 2211.26 265.001 Q2207.65 265.001 2205.7 267.362 Q2203.78 269.7 2203.78 274.098 L2203.78 287.756 L2199.5 287.756 L2199.5 261.83 L2203.78 261.83 L2203.78 265.858 Q2205.12 263.497 2207.28 262.362 Q2209.43 261.205 2212.51 261.205 Q2212.95 261.205 2213.48 261.274 Q2214.01 261.321 2214.66 261.436 L2214.68 265.811 Z" fill="#000000" fill-rule="nonzero" fill-opacity="1" /><path clip-path="url(#clip960)" d="M2238.85 283.821 L2255.17 283.821 L2255.17 287.756 L2233.23 287.756 L2233.23 283.821 Q2235.89 281.066 2240.47 276.436 Q2245.08 271.784 2246.26 270.441 Q2248.5 267.918 2249.38 266.182 Q2250.29 264.423 2250.29 262.733 Q2250.29 259.978 2248.34 258.242 Q2246.42 256.506 2243.32 256.506 Q2241.12 256.506 2238.67 257.27 Q2236.24 258.034 2233.46 259.585 L2233.46 254.862 Q2236.28 253.728 2238.74 253.149 Q2241.19 252.571 2243.23 252.571 Q2248.6 252.571 2251.79 255.256 Q2254.99 257.941 2254.99 262.432 Q2254.99 264.561 2254.18 266.483 Q2253.39 268.381 2251.28 270.973 Q2250.7 271.645 2247.6 274.862 Q2244.5 278.057 2238.85 283.821 Z" fill="#000000" fill-rule="nonzero" fill-opacity="1" /><polyline clip-path="url(#clip960)" style="stroke:#3da44d; stroke-linecap:round; stroke-linejoin:round; stroke-width:4; stroke-opacity:1; fill:none" points="1826.93,322.316 1970.19,322.316 "/>
<path clip-path="url(#clip960)" d="M2014.57 314.665 L2014.57 318.647 Q2012.76 317.651 2010.94 317.165 Q2009.13 316.656 2007.28 316.656 Q2003.14 316.656 2000.84 319.295 Q1998.55 321.911 1998.55 326.656 Q1998.55 331.401 2000.84 334.04 Q2003.14 336.656 2007.28 336.656 Q2009.13 336.656 2010.94 336.17 Q2012.76 335.661 2014.57 334.665 L2014.57 338.6 Q2012.79 339.434 2010.87 339.85 Q2008.97 340.267 2006.82 340.267 Q2000.96 340.267 1997.51 336.586 Q1994.06 332.906 1994.06 326.656 Q1994.06 320.313 1997.53 316.679 Q2001.03 313.045 2007.09 313.045 Q2009.06 313.045 2010.94 313.462 Q2012.81 313.855 2014.57 314.665 Z" fill="#000000" fill-rule="nonzero" fill-opacity="1" /><path clip-path="url(#clip960)" d="M2021.54 329.364 L2021.54 313.67 L2025.8 313.67 L2025.8 329.202 Q2025.8 332.883 2027.23 334.735 Q2028.67 336.563 2031.54 336.563 Q2034.99 336.563 2036.98 334.364 Q2038.99 332.165 2038.99 328.369 L2038.99 313.67 L2043.25 313.67 L2043.25 339.596 L2038.99 339.596 L2038.99 335.614 Q2037.44 337.975 2035.38 339.133 Q2033.34 340.267 2030.63 340.267 Q2026.17 340.267 2023.85 337.489 Q2021.54 334.711 2021.54 329.364 M2032.26 313.045 L2032.26 313.045 Z" fill="#000000" fill-rule="nonzero" fill-opacity="1" /><path clip-path="url(#clip960)" d="M2068.55 314.434 L2068.55 318.462 Q2066.75 317.536 2064.8 317.073 Q2062.86 316.61 2060.77 316.61 Q2057.6 316.61 2056.01 317.582 Q2054.43 318.554 2054.43 320.499 Q2054.43 321.98 2055.57 322.837 Q2056.7 323.67 2060.13 324.434 L2061.58 324.758 Q2066.12 325.73 2068.02 327.512 Q2069.94 329.272 2069.94 332.443 Q2069.94 336.054 2067.07 338.161 Q2064.22 340.267 2059.22 340.267 Q2057.14 340.267 2054.87 339.85 Q2052.63 339.457 2050.13 338.647 L2050.13 334.249 Q2052.49 335.475 2054.78 336.1 Q2057.07 336.702 2059.32 336.702 Q2062.32 336.702 2063.94 335.684 Q2065.57 334.642 2065.57 332.767 Q2065.57 331.031 2064.38 330.105 Q2063.23 329.179 2059.27 328.323 L2057.79 327.975 Q2053.83 327.142 2052.07 325.429 Q2050.31 323.693 2050.31 320.684 Q2050.31 317.026 2052.9 315.036 Q2055.5 313.045 2060.26 313.045 Q2062.63 313.045 2064.71 313.392 Q2066.79 313.739 2068.55 314.434 Z" fill="#000000" fill-rule="nonzero" fill-opacity="1" /><path clip-path="url(#clip960)" d="M2080.94 306.309 L2080.94 313.67 L2089.71 313.67 L2089.71 316.98 L2080.94 316.98 L2080.94 331.054 Q2080.94 334.225 2081.79 335.128 Q2082.67 336.031 2085.33 336.031 L2089.71 336.031 L2089.71 339.596 L2085.33 339.596 Q2080.4 339.596 2078.53 337.767 Q2076.65 335.915 2076.65 331.054 L2076.65 316.98 L2073.53 316.98 L2073.53 313.67 L2076.65 313.67 L2076.65 306.309 L2080.94 306.309 Z" fill="#000000" fill-rule="nonzero" fill-opacity="1" /><path clip-path="url(#clip960)" d="M2105.36 316.656 Q2101.93 316.656 2099.94 319.341 Q2097.95 322.003 2097.95 326.656 Q2097.95 331.309 2099.92 333.994 Q2101.91 336.656 2105.36 336.656 Q2108.76 336.656 2110.75 333.971 Q2112.74 331.286 2112.74 326.656 Q2112.74 322.05 2110.75 319.364 Q2108.76 316.656 2105.36 316.656 M2105.36 313.045 Q2110.91 313.045 2114.08 316.656 Q2117.25 320.267 2117.25 326.656 Q2117.25 333.022 2114.08 336.656 Q2110.91 340.267 2105.36 340.267 Q2099.78 340.267 2096.61 336.656 Q2093.46 333.022 2093.46 326.656 Q2093.46 320.267 2096.61 316.656 Q2099.78 313.045 2105.36 313.045 Z" fill="#000000" fill-rule="nonzero" fill-opacity="1" /><path clip-path="url(#clip960)" d="M2144.5 318.647 Q2146.1 315.776 2148.32 314.411 Q2150.54 313.045 2153.55 313.045 Q2157.6 313.045 2159.8 315.892 Q2162 318.716 2162 323.948 L2162 339.596 L2157.72 339.596 L2157.72 324.087 Q2157.72 320.36 2156.4 318.554 Q2155.08 316.749 2152.37 316.749 Q2149.06 316.749 2147.14 318.948 Q2145.22 321.147 2145.22 324.943 L2145.22 339.596 L2140.94 339.596 L2140.94 324.087 Q2140.94 320.337 2139.62 318.554 Q2138.3 316.749 2135.54 316.749 Q2132.28 316.749 2130.36 318.971 Q2128.44 321.17 2128.44 324.943 L2128.44 339.596 L2124.15 339.596 L2124.15 313.67 L2128.44 313.67 L2128.44 317.698 Q2129.89 315.313 2131.93 314.179 Q2133.97 313.045 2136.77 313.045 Q2139.59 313.045 2141.56 314.48 Q2143.55 315.915 2144.5 318.647 Z" fill="#000000" fill-rule="nonzero" fill-opacity="1" /><path clip-path="url(#clip960)" d="M2192.67 325.568 L2192.67 327.651 L2173.09 327.651 Q2173.37 332.049 2175.73 334.364 Q2178.11 336.656 2182.35 336.656 Q2184.8 336.656 2187.09 336.054 Q2189.41 335.452 2191.68 334.249 L2191.68 338.276 Q2189.38 339.248 2186.98 339.758 Q2184.57 340.267 2182.09 340.267 Q2175.89 340.267 2172.25 336.656 Q2168.64 333.045 2168.64 326.887 Q2168.64 320.522 2172.07 316.795 Q2175.52 313.045 2181.35 313.045 Q2186.58 313.045 2189.62 316.425 Q2192.67 319.781 2192.67 325.568 M2188.41 324.318 Q2188.37 320.823 2186.44 318.739 Q2184.55 316.656 2181.4 316.656 Q2177.83 316.656 2175.68 318.67 Q2173.55 320.684 2173.23 324.341 L2188.41 324.318 Z" fill="#000000" fill-rule="nonzero" fill-opacity="1" /><path clip-path="url(#clip960)" d="M2214.68 317.651 Q2213.97 317.235 2213.11 317.05 Q2212.28 316.841 2211.26 316.841 Q2207.65 316.841 2205.7 319.202 Q2203.78 321.54 2203.78 325.938 L2203.78 339.596 L2199.5 339.596 L2199.5 313.67 L2203.78 313.67 L2203.78 317.698 Q2205.12 315.337 2207.28 314.202 Q2209.43 313.045 2212.51 313.045 Q2212.95 313.045 2213.48 313.114 Q2214.01 313.161 2214.66 313.276 L2214.68 317.651 Z" fill="#000000" fill-rule="nonzero" fill-opacity="1" /><path clip-path="url(#clip960)" d="M2248.99 320.962 Q2252.35 321.679 2254.22 323.948 Q2256.12 326.216 2256.12 329.549 Q2256.12 334.665 2252.6 337.466 Q2249.08 340.267 2242.6 340.267 Q2240.43 340.267 2238.11 339.827 Q2235.82 339.411 2233.37 338.554 L2233.37 334.04 Q2235.31 335.174 2237.62 335.753 Q2239.94 336.332 2242.46 336.332 Q2246.86 336.332 2249.15 334.596 Q2251.47 332.86 2251.47 329.549 Q2251.47 326.494 2249.31 324.781 Q2247.18 323.045 2243.37 323.045 L2239.34 323.045 L2239.34 319.202 L2243.55 319.202 Q2247 319.202 2248.83 317.837 Q2250.66 316.448 2250.66 313.855 Q2250.66 311.193 2248.76 309.781 Q2246.88 308.346 2243.37 308.346 Q2241.44 308.346 2239.24 308.763 Q2237.05 309.179 2234.41 310.059 L2234.41 305.892 Q2237.07 305.151 2239.38 304.781 Q2241.72 304.411 2243.78 304.411 Q2249.11 304.411 2252.21 306.841 Q2255.31 309.249 2255.31 313.369 Q2255.31 316.239 2253.67 318.23 Q2252.02 320.198 2248.99 320.962 Z" fill="#000000" fill-rule="nonzero" fill-opacity="1" /><polyline clip-path="url(#clip960)" style="stroke:#c271d2; stroke-linecap:round; stroke-linejoin:round; stroke-width:4; stroke-opacity:1; fill:none" points="1826.93,374.156 1970.19,374.156 "/>
<path clip-path="url(#clip960)" d="M2014.57 366.505 L2014.57 370.487 Q2012.76 369.491 2010.94 369.005 Q2009.13 368.496 2007.28 368.496 Q2003.14 368.496 2000.84 371.135 Q1998.55 373.751 1998.55 378.496 Q1998.55 383.241 2000.84 385.88 Q2003.14 388.496 2007.28 388.496 Q2009.13 388.496 2010.94 388.01 Q2012.76 387.501 2014.57 386.505 L2014.57 390.44 Q2012.79 391.274 2010.87 391.69 Q2008.97 392.107 2006.82 392.107 Q2000.96 392.107 1997.51 388.426 Q1994.06 384.746 1994.06 378.496 Q1994.06 372.153 1997.53 368.519 Q2001.03 364.885 2007.09 364.885 Q2009.06 364.885 2010.94 365.302 Q2012.81 365.695 2014.57 366.505 Z" fill="#000000" fill-rule="nonzero" fill-opacity="1" /><path clip-path="url(#clip960)" d="M2021.54 381.204 L2021.54 365.51 L2025.8 365.51 L2025.8 381.042 Q2025.8 384.723 2027.23 386.575 Q2028.67 388.403 2031.54 388.403 Q2034.99 388.403 2036.98 386.204 Q2038.99 384.005 2038.99 380.209 L2038.99 365.51 L2043.25 365.51 L2043.25 391.436 L2038.99 391.436 L2038.99 387.454 Q2037.44 389.815 2035.38 390.973 Q2033.34 392.107 2030.63 392.107 Q2026.17 392.107 2023.85 389.329 Q2021.54 386.551 2021.54 381.204 M2032.26 364.885 L2032.26 364.885 Z" fill="#000000" fill-rule="nonzero" fill-opacity="1" /><path clip-path="url(#clip960)" d="M2068.55 366.274 L2068.55 370.302 Q2066.75 369.376 2064.8 368.913 Q2062.86 368.45 2060.77 368.45 Q2057.6 368.45 2056.01 369.422 Q2054.43 370.394 2054.43 372.339 Q2054.43 373.82 2055.57 374.677 Q2056.7 375.51 2060.13 376.274 L2061.58 376.598 Q2066.12 377.57 2068.02 379.352 Q2069.94 381.112 2069.94 384.283 Q2069.94 387.894 2067.07 390.001 Q2064.22 392.107 2059.22 392.107 Q2057.14 392.107 2054.87 391.69 Q2052.63 391.297 2050.13 390.487 L2050.13 386.089 Q2052.49 387.315 2054.78 387.94 Q2057.07 388.542 2059.32 388.542 Q2062.32 388.542 2063.94 387.524 Q2065.57 386.482 2065.57 384.607 Q2065.57 382.871 2064.38 381.945 Q2063.23 381.019 2059.27 380.163 L2057.79 379.815 Q2053.83 378.982 2052.07 377.269 Q2050.31 375.533 2050.31 372.524 Q2050.31 368.866 2052.9 366.876 Q2055.5 364.885 2060.26 364.885 Q2062.63 364.885 2064.71 365.232 Q2066.79 365.579 2068.55 366.274 Z" fill="#000000" fill-rule="nonzero" fill-opacity="1" /><path clip-path="url(#clip960)" d="M2080.94 358.149 L2080.94 365.51 L2089.71 365.51 L2089.71 368.82 L2080.94 368.82 L2080.94 382.894 Q2080.94 386.065 2081.79 386.968 Q2082.67 387.871 2085.33 387.871 L2089.71 387.871 L2089.71 391.436 L2085.33 391.436 Q2080.4 391.436 2078.53 389.607 Q2076.65 387.755 2076.65 382.894 L2076.65 368.82 L2073.53 368.82 L2073.53 365.51 L2076.65 365.51 L2076.65 358.149 L2080.94 358.149 Z" fill="#000000" fill-rule="nonzero" fill-opacity="1" /><path clip-path="url(#clip960)" d="M2105.36 368.496 Q2101.93 368.496 2099.94 371.181 Q2097.95 373.843 2097.95 378.496 Q2097.95 383.149 2099.92 385.834 Q2101.91 388.496 2105.36 388.496 Q2108.76 388.496 2110.75 385.811 Q2112.74 383.126 2112.74 378.496 Q2112.74 373.89 2110.75 371.204 Q2108.76 368.496 2105.36 368.496 M2105.36 364.885 Q2110.91 364.885 2114.08 368.496 Q2117.25 372.107 2117.25 378.496 Q2117.25 384.862 2114.08 388.496 Q2110.91 392.107 2105.36 392.107 Q2099.78 392.107 2096.61 388.496 Q2093.46 384.862 2093.46 378.496 Q2093.46 372.107 2096.61 368.496 Q2099.78 364.885 2105.36 364.885 Z" fill="#000000" fill-rule="nonzero" fill-opacity="1" /><path clip-path="url(#clip960)" d="M2144.5 370.487 Q2146.1 367.616 2148.32 366.251 Q2150.54 364.885 2153.55 364.885 Q2157.6 364.885 2159.8 367.732 Q2162 370.556 2162 375.788 L2162 391.436 L2157.72 391.436 L2157.72 375.927 Q2157.72 372.2 2156.4 370.394 Q2155.08 368.589 2152.37 368.589 Q2149.06 368.589 2147.14 370.788 Q2145.22 372.987 2145.22 376.783 L2145.22 391.436 L2140.94 391.436 L2140.94 375.927 Q2140.94 372.177 2139.62 370.394 Q2138.3 368.589 2135.54 368.589 Q2132.28 368.589 2130.36 370.811 Q2128.44 373.01 2128.44 376.783 L2128.44 391.436 L2124.15 391.436 L2124.15 365.51 L2128.44 365.51 L2128.44 369.538 Q2129.89 367.153 2131.93 366.019 Q2133.97 364.885 2136.77 364.885 Q2139.59 364.885 2141.56 366.32 Q2143.55 367.755 2144.5 370.487 Z" fill="#000000" fill-rule="nonzero" fill-opacity="1" /><path clip-path="url(#clip960)" d="M2192.67 377.408 L2192.67 379.491 L2173.09 379.491 Q2173.37 383.889 2175.73 386.204 Q2178.11 388.496 2182.35 388.496 Q2184.8 388.496 2187.09 387.894 Q2189.41 387.292 2191.68 386.089 L2191.68 390.116 Q2189.38 391.088 2186.98 391.598 Q2184.57 392.107 2182.09 392.107 Q2175.89 392.107 2172.25 388.496 Q2168.64 384.885 2168.64 378.727 Q2168.64 372.362 2172.07 368.635 Q2175.52 364.885 2181.35 364.885 Q2186.58 364.885 2189.62 368.265 Q2192.67 371.621 2192.67 377.408 M2188.41 376.158 Q2188.37 372.663 2186.44 370.579 Q2184.55 368.496 2181.4 368.496 Q2177.83 368.496 2175.68 370.51 Q2173.55 372.524 2173.23 376.181 L2188.41 376.158 Z" fill="#000000" fill-rule="nonzero" fill-opacity="1" /><path clip-path="url(#clip960)" d="M2214.68 369.491 Q2213.97 369.075 2213.11 368.89 Q2212.28 368.681 2211.26 368.681 Q2207.65 368.681 2205.7 371.042 Q2203.78 373.38 2203.78 377.778 L2203.78 391.436 L2199.5 391.436 L2199.5 365.51 L2203.78 365.51 L2203.78 369.538 Q2205.12 367.177 2207.28 366.042 Q2209.43 364.885 2212.51 364.885 Q2212.95 364.885 2213.48 364.954 Q2214.01 365.001 2214.66 365.116 L2214.68 369.491 Z" fill="#000000" fill-rule="nonzero" fill-opacity="1" /><path clip-path="url(#clip960)" d="M2247.67 360.95 L2235.87 379.399 L2247.67 379.399 L2247.67 360.95 M2246.44 356.876 L2252.32 356.876 L2252.32 379.399 L2257.25 379.399 L2257.25 383.288 L2252.32 383.288 L2252.32 391.436 L2247.67 391.436 L2247.67 383.288 L2232.07 383.288 L2232.07 378.774 L2246.44 356.876 Z" fill="#000000" fill-rule="nonzero" fill-opacity="1" /><polyline clip-path="url(#clip960)" style="stroke:#ac8d18; stroke-linecap:round; stroke-linejoin:round; stroke-width:4; stroke-opacity:1; fill:none" points="1826.93,425.996 1970.19,425.996 "/>
<path clip-path="url(#clip960)" d="M2014.57 418.345 L2014.57 422.327 Q2012.76 421.331 2010.94 420.845 Q2009.13 420.336 2007.28 420.336 Q2003.14 420.336 2000.84 422.975 Q1998.55 425.591 1998.55 430.336 Q1998.55 435.081 2000.84 437.72 Q2003.14 440.336 2007.28 440.336 Q2009.13 440.336 2010.94 439.85 Q2012.76 439.341 2014.57 438.345 L2014.57 442.28 Q2012.79 443.114 2010.87 443.53 Q2008.97 443.947 2006.82 443.947 Q2000.96 443.947 1997.51 440.266 Q1994.06 436.586 1994.06 430.336 Q1994.06 423.993 1997.53 420.359 Q2001.03 416.725 2007.09 416.725 Q2009.06 416.725 2010.94 417.142 Q2012.81 417.535 2014.57 418.345 Z" fill="#000000" fill-rule="nonzero" fill-opacity="1" /><path clip-path="url(#clip960)" d="M2021.54 433.044 L2021.54 417.35 L2025.8 417.35 L2025.8 432.882 Q2025.8 436.563 2027.23 438.415 Q2028.67 440.243 2031.54 440.243 Q2034.99 440.243 2036.98 438.044 Q2038.99 435.845 2038.99 432.049 L2038.99 417.35 L2043.25 417.35 L2043.25 443.276 L2038.99 443.276 L2038.99 439.294 Q2037.44 441.655 2035.38 442.813 Q2033.34 443.947 2030.63 443.947 Q2026.17 443.947 2023.85 441.169 Q2021.54 438.391 2021.54 433.044 M2032.26 416.725 L2032.26 416.725 Z" fill="#000000" fill-rule="nonzero" fill-opacity="1" /><path clip-path="url(#clip960)" d="M2068.55 418.114 L2068.55 422.142 Q2066.75 421.216 2064.8 420.753 Q2062.86 420.29 2060.77 420.29 Q2057.6 420.29 2056.01 421.262 Q2054.43 422.234 2054.43 424.179 Q2054.43 425.66 2055.57 426.517 Q2056.7 427.35 2060.13 428.114 L2061.58 428.438 Q2066.12 429.41 2068.02 431.192 Q2069.94 432.952 2069.94 436.123 Q2069.94 439.734 2067.07 441.841 Q2064.22 443.947 2059.22 443.947 Q2057.14 443.947 2054.87 443.53 Q2052.63 443.137 2050.13 442.327 L2050.13 437.929 Q2052.49 439.155 2054.78 439.78 Q2057.07 440.382 2059.32 440.382 Q2062.32 440.382 2063.94 439.364 Q2065.57 438.322 2065.57 436.447 Q2065.57 434.711 2064.38 433.785 Q2063.23 432.859 2059.27 432.003 L2057.79 431.655 Q2053.83 430.822 2052.07 429.109 Q2050.31 427.373 2050.31 424.364 Q2050.31 420.706 2052.9 418.716 Q2055.5 416.725 2060.26 416.725 Q2062.63 416.725 2064.71 417.072 Q2066.79 417.419 2068.55 418.114 Z" fill="#000000" fill-rule="nonzero" fill-opacity="1" /><path clip-path="url(#clip960)" d="M2080.94 409.989 L2080.94 417.35 L2089.71 417.35 L2089.71 420.66 L2080.94 420.66 L2080.94 434.734 Q2080.94 437.905 2081.79 438.808 Q2082.67 439.711 2085.33 439.711 L2089.71 439.711 L2089.71 443.276 L2085.33 443.276 Q2080.4 443.276 2078.53 441.447 Q2076.65 439.595 2076.65 434.734 L2076.65 420.66 L2073.53 420.66 L2073.53 417.35 L2076.65 417.35 L2076.65 409.989 L2080.94 409.989 Z" fill="#000000" fill-rule="nonzero" fill-opacity="1" /><path clip-path="url(#clip960)" d="M2105.36 420.336 Q2101.93 420.336 2099.94 423.021 Q2097.95 425.683 2097.95 430.336 Q2097.95 434.989 2099.92 437.674 Q2101.91 440.336 2105.36 440.336 Q2108.76 440.336 2110.75 437.651 Q2112.74 434.966 2112.74 430.336 Q2112.74 425.73 2110.75 423.044 Q2108.76 420.336 2105.36 420.336 M2105.36 416.725 Q2110.91 416.725 2114.08 420.336 Q2117.25 423.947 2117.25 430.336 Q2117.25 436.702 2114.08 440.336 Q2110.91 443.947 2105.36 443.947 Q2099.78 443.947 2096.61 440.336 Q2093.46 436.702 2093.46 430.336 Q2093.46 423.947 2096.61 420.336 Q2099.78 416.725 2105.36 416.725 Z" fill="#000000" fill-rule="nonzero" fill-opacity="1" /><path clip-path="url(#clip960)" d="M2144.5 422.327 Q2146.1 419.456 2148.32 418.091 Q2150.54 416.725 2153.55 416.725 Q2157.6 416.725 2159.8 419.572 Q2162 422.396 2162 427.628 L2162 443.276 L2157.72 443.276 L2157.72 427.767 Q2157.72 424.04 2156.4 422.234 Q2155.08 420.429 2152.37 420.429 Q2149.06 420.429 2147.14 422.628 Q2145.22 424.827 2145.22 428.623 L2145.22 443.276 L2140.94 443.276 L2140.94 427.767 Q2140.94 424.017 2139.62 422.234 Q2138.3 420.429 2135.54 420.429 Q2132.28 420.429 2130.36 422.651 Q2128.44 424.85 2128.44 428.623 L2128.44 443.276 L2124.15 443.276 L2124.15 417.35 L2128.44 417.35 L2128.44 421.378 Q2129.89 418.993 2131.93 417.859 Q2133.97 416.725 2136.77 416.725 Q2139.59 416.725 2141.56 418.16 Q2143.55 419.595 2144.5 422.327 Z" fill="#000000" fill-rule="nonzero" fill-opacity="1" /><path clip-path="url(#clip960)" d="M2192.67 429.248 L2192.67 431.331 L2173.09 431.331 Q2173.37 435.729 2175.73 438.044 Q2178.11 440.336 2182.35 440.336 Q2184.8 440.336 2187.09 439.734 Q2189.41 439.132 2191.68 437.929 L2191.68 441.956 Q2189.38 442.928 2186.98 443.438 Q2184.57 443.947 2182.09 443.947 Q2175.89 443.947 2172.25 440.336 Q2168.64 436.725 2168.64 430.567 Q2168.64 424.202 2172.07 420.475 Q2175.52 416.725 2181.35 416.725 Q2186.58 416.725 2189.62 420.105 Q2192.67 423.461 2192.67 429.248 M2188.41 427.998 Q2188.37 424.503 2186.44 422.419 Q2184.55 420.336 2181.4 420.336 Q2177.83 420.336 2175.68 422.35 Q2173.55 424.364 2173.23 428.021 L2188.41 427.998 Z" fill="#000000" fill-rule="nonzero" fill-opacity="1" /><path clip-path="url(#clip960)" d="M2214.68 421.331 Q2213.97 420.915 2213.11 420.73 Q2212.28 420.521 2211.26 420.521 Q2207.65 420.521 2205.7 422.882 Q2203.78 425.22 2203.78 429.618 L2203.78 443.276 L2199.5 443.276 L2199.5 417.35 L2203.78 417.35 L2203.78 421.378 Q2205.12 419.017 2207.28 417.882 Q2209.43 416.725 2212.51 416.725 Q2212.95 416.725 2213.48 416.794 Q2214.01 416.841 2214.66 416.956 L2214.68 421.331 Z" fill="#000000" fill-rule="nonzero" fill-opacity="1" /><path clip-path="url(#clip960)" d="M2234.87 408.716 L2253.23 408.716 L2253.23 412.651 L2239.15 412.651 L2239.15 421.123 Q2240.17 420.776 2241.19 420.614 Q2242.21 420.429 2243.23 420.429 Q2249.01 420.429 2252.39 423.6 Q2255.77 426.771 2255.77 432.188 Q2255.77 437.766 2252.3 440.868 Q2248.83 443.947 2242.51 443.947 Q2240.33 443.947 2238.06 443.577 Q2235.82 443.206 2233.41 442.466 L2233.41 437.766 Q2235.49 438.901 2237.72 439.456 Q2239.94 440.012 2242.42 440.012 Q2246.42 440.012 2248.76 437.905 Q2251.1 435.799 2251.1 432.188 Q2251.1 428.577 2248.76 426.47 Q2246.42 424.364 2242.42 424.364 Q2240.54 424.364 2238.67 424.78 Q2236.81 425.197 2234.87 426.077 L2234.87 408.716 Z" fill="#000000" fill-rule="nonzero" fill-opacity="1" /><polyline clip-path="url(#clip960)" style="stroke:#00a9ad; stroke-linecap:round; stroke-linejoin:round; stroke-width:4; stroke-opacity:1; fill:none" points="1826.93,477.836 1970.19,477.836 "/>
<path clip-path="url(#clip960)" d="M2014.57 470.185 L2014.57 474.167 Q2012.76 473.171 2010.94 472.685 Q2009.13 472.176 2007.28 472.176 Q2003.14 472.176 2000.84 474.815 Q1998.55 477.431 1998.55 482.176 Q1998.55 486.921 2000.84 489.56 Q2003.14 492.176 2007.28 492.176 Q2009.13 492.176 2010.94 491.69 Q2012.76 491.181 2014.57 490.185 L2014.57 494.12 Q2012.79 494.954 2010.87 495.37 Q2008.97 495.787 2006.82 495.787 Q2000.96 495.787 1997.51 492.106 Q1994.06 488.426 1994.06 482.176 Q1994.06 475.833 1997.53 472.199 Q2001.03 468.565 2007.09 468.565 Q2009.06 468.565 2010.94 468.982 Q2012.81 469.375 2014.57 470.185 Z" fill="#000000" fill-rule="nonzero" fill-opacity="1" /><path clip-path="url(#clip960)" d="M2021.54 484.884 L2021.54 469.19 L2025.8 469.19 L2025.8 484.722 Q2025.8 488.403 2027.23 490.255 Q2028.67 492.083 2031.54 492.083 Q2034.99 492.083 2036.98 489.884 Q2038.99 487.685 2038.99 483.889 L2038.99 469.19 L2043.25 469.19 L2043.25 495.116 L2038.99 495.116 L2038.99 491.134 Q2037.44 493.495 2035.38 494.653 Q2033.34 495.787 2030.63 495.787 Q2026.17 495.787 2023.85 493.009 Q2021.54 490.231 2021.54 484.884 M2032.26 468.565 L2032.26 468.565 Z" fill="#000000" fill-rule="nonzero" fill-opacity="1" /><path clip-path="url(#clip960)" d="M2068.55 469.954 L2068.55 473.982 Q2066.75 473.056 2064.8 472.593 Q2062.86 472.13 2060.77 472.13 Q2057.6 472.13 2056.01 473.102 Q2054.43 474.074 2054.43 476.019 Q2054.43 477.5 2055.57 478.357 Q2056.7 479.19 2060.13 479.954 L2061.58 480.278 Q2066.12 481.25 2068.02 483.032 Q2069.94 484.792 2069.94 487.963 Q2069.94 491.574 2067.07 493.681 Q2064.22 495.787 2059.22 495.787 Q2057.14 495.787 2054.87 495.37 Q2052.63 494.977 2050.13 494.167 L2050.13 489.769 Q2052.49 490.995 2054.78 491.62 Q2057.07 492.222 2059.32 492.222 Q2062.32 492.222 2063.94 491.204 Q2065.57 490.162 2065.57 488.287 Q2065.57 486.551 2064.38 485.625 Q2063.23 484.699 2059.27 483.843 L2057.79 483.495 Q2053.83 482.662 2052.07 480.949 Q2050.31 479.213 2050.31 476.204 Q2050.31 472.546 2052.9 470.556 Q2055.5 468.565 2060.26 468.565 Q2062.63 468.565 2064.71 468.912 Q2066.79 469.259 2068.55 469.954 Z" fill="#000000" fill-rule="nonzero" fill-opacity="1" /><path clip-path="url(#clip960)" d="M2080.94 461.829 L2080.94 469.19 L2089.71 469.19 L2089.71 472.5 L2080.94 472.5 L2080.94 486.574 Q2080.94 489.745 2081.79 490.648 Q2082.67 491.551 2085.33 491.551 L2089.71 491.551 L2089.71 495.116 L2085.33 495.116 Q2080.4 495.116 2078.53 493.287 Q2076.65 491.435 2076.65 486.574 L2076.65 472.5 L2073.53 472.5 L2073.53 469.19 L2076.65 469.19 L2076.65 461.829 L2080.94 461.829 Z" fill="#000000" fill-rule="nonzero" fill-opacity="1" /><path clip-path="url(#clip960)" d="M2105.36 472.176 Q2101.93 472.176 2099.94 474.861 Q2097.95 477.523 2097.95 482.176 Q2097.95 486.829 2099.92 489.514 Q2101.91 492.176 2105.36 492.176 Q2108.76 492.176 2110.75 489.491 Q2112.74 486.806 2112.74 482.176 Q2112.74 477.57 2110.75 474.884 Q2108.76 472.176 2105.36 472.176 M2105.36 468.565 Q2110.91 468.565 2114.08 472.176 Q2117.25 475.787 2117.25 482.176 Q2117.25 488.542 2114.08 492.176 Q2110.91 495.787 2105.36 495.787 Q2099.78 495.787 2096.61 492.176 Q2093.46 488.542 2093.46 482.176 Q2093.46 475.787 2096.61 472.176 Q2099.78 468.565 2105.36 468.565 Z" fill="#000000" fill-rule="nonzero" fill-opacity="1" /><path clip-path="url(#clip960)" d="M2144.5 474.167 Q2146.1 471.296 2148.32 469.931 Q2150.54 468.565 2153.55 468.565 Q2157.6 468.565 2159.8 471.412 Q2162 474.236 2162 479.468 L2162 495.116 L2157.72 495.116 L2157.72 479.607 Q2157.72 475.88 2156.4 474.074 Q2155.08 472.269 2152.37 472.269 Q2149.06 472.269 2147.14 474.468 Q2145.22 476.667 2145.22 480.463 L2145.22 495.116 L2140.94 495.116 L2140.94 479.607 Q2140.94 475.857 2139.62 474.074 Q2138.3 472.269 2135.54 472.269 Q2132.28 472.269 2130.36 474.491 Q2128.44 476.69 2128.44 480.463 L2128.44 495.116 L2124.15 495.116 L2124.15 469.19 L2128.44 469.19 L2128.44 473.218 Q2129.89 470.833 2131.93 469.699 Q2133.97 468.565 2136.77 468.565 Q2139.59 468.565 2141.56 470 Q2143.55 471.435 2144.5 474.167 Z" fill="#000000" fill-rule="nonzero" fill-opacity="1" /><path clip-path="url(#clip960)" d="M2192.67 481.088 L2192.67 483.171 L2173.09 483.171 Q2173.37 487.569 2175.73 489.884 Q2178.11 492.176 2182.35 492.176 Q2184.8 492.176 2187.09 491.574 Q2189.41 490.972 2191.68 489.769 L2191.68 493.796 Q2189.38 494.768 2186.98 495.278 Q2184.57 495.787 2182.09 495.787 Q2175.89 495.787 2172.25 492.176 Q2168.64 488.565 2168.64 482.407 Q2168.64 476.042 2172.07 472.315 Q2175.52 468.565 2181.35 468.565 Q2186.58 468.565 2189.62 471.945 Q2192.67 475.301 2192.67 481.088 M2188.41 479.838 Q2188.37 476.343 2186.44 474.259 Q2184.55 472.176 2181.4 472.176 Q2177.83 472.176 2175.68 474.19 Q2173.55 476.204 2173.23 479.861 L2188.41 479.838 Z" fill="#000000" fill-rule="nonzero" fill-opacity="1" /><path clip-path="url(#clip960)" d="M2214.68 473.171 Q2213.97 472.755 2213.11 472.57 Q2212.28 472.361 2211.26 472.361 Q2207.65 472.361 2205.7 474.722 Q2203.78 477.06 2203.78 481.458 L2203.78 495.116 L2199.5 495.116 L2199.5 469.19 L2203.78 469.19 L2203.78 473.218 Q2205.12 470.857 2207.28 469.722 Q2209.43 468.565 2212.51 468.565 Q2212.95 468.565 2213.48 468.634 Q2214.01 468.681 2214.66 468.796 L2214.68 473.171 Z" fill="#000000" fill-rule="nonzero" fill-opacity="1" /><path clip-path="url(#clip960)" d="M2245.4 475.972 Q2242.25 475.972 2240.4 478.125 Q2238.57 480.278 2238.57 484.028 Q2238.57 487.755 2240.4 489.931 Q2242.25 492.083 2245.4 492.083 Q2248.55 492.083 2250.38 489.931 Q2252.23 487.755 2252.23 484.028 Q2252.23 480.278 2250.38 478.125 Q2248.55 475.972 2245.4 475.972 M2254.68 461.32 L2254.68 465.579 Q2252.93 464.746 2251.12 464.306 Q2249.34 463.866 2247.58 463.866 Q2242.95 463.866 2240.49 466.991 Q2238.06 470.116 2237.72 476.435 Q2239.08 474.421 2241.14 473.357 Q2243.2 472.269 2245.68 472.269 Q2250.89 472.269 2253.9 475.44 Q2256.93 478.588 2256.93 484.028 Q2256.93 489.352 2253.78 492.569 Q2250.63 495.787 2245.4 495.787 Q2239.41 495.787 2236.24 491.204 Q2233.06 486.597 2233.06 477.87 Q2233.06 469.676 2236.95 464.815 Q2240.84 459.931 2247.39 459.931 Q2249.15 459.931 2250.93 460.278 Q2252.74 460.625 2254.68 461.32 Z" fill="#000000" fill-rule="nonzero" fill-opacity="1" /><polyline clip-path="url(#clip960)" style="stroke:#ed5d92; stroke-linecap:round; stroke-linejoin:round; stroke-width:4; stroke-opacity:1; fill:none" points="1826.93,529.676 1970.19,529.676 "/>
<path clip-path="url(#clip960)" d="M2014.57 522.025 L2014.57 526.007 Q2012.76 525.011 2010.94 524.525 Q2009.13 524.016 2007.28 524.016 Q2003.14 524.016 2000.84 526.655 Q1998.55 529.271 1998.55 534.016 Q1998.55 538.761 2000.84 541.4 Q2003.14 544.016 2007.28 544.016 Q2009.13 544.016 2010.94 543.53 Q2012.76 543.021 2014.57 542.025 L2014.57 545.96 Q2012.79 546.794 2010.87 547.21 Q2008.97 547.627 2006.82 547.627 Q2000.96 547.627 1997.51 543.946 Q1994.06 540.266 1994.06 534.016 Q1994.06 527.673 1997.53 524.039 Q2001.03 520.405 2007.09 520.405 Q2009.06 520.405 2010.94 520.822 Q2012.81 521.215 2014.57 522.025 Z" fill="#000000" fill-rule="nonzero" fill-opacity="1" /><path clip-path="url(#clip960)" d="M2021.54 536.724 L2021.54 521.03 L2025.8 521.03 L2025.8 536.562 Q2025.8 540.243 2027.23 542.095 Q2028.67 543.923 2031.54 543.923 Q2034.99 543.923 2036.98 541.724 Q2038.99 539.525 2038.99 535.729 L2038.99 521.03 L2043.25 521.03 L2043.25 546.956 L2038.99 546.956 L2038.99 542.974 Q2037.44 545.335 2035.38 546.493 Q2033.34 547.627 2030.63 547.627 Q2026.17 547.627 2023.85 544.849 Q2021.54 542.071 2021.54 536.724 M2032.26 520.405 L2032.26 520.405 Z" fill="#000000" fill-rule="nonzero" fill-opacity="1" /><path clip-path="url(#clip960)" d="M2068.55 521.794 L2068.55 525.822 Q2066.75 524.896 2064.8 524.433 Q2062.86 523.97 2060.77 523.97 Q2057.6 523.97 2056.01 524.942 Q2054.43 525.914 2054.43 527.859 Q2054.43 529.34 2055.57 530.197 Q2056.7 531.03 2060.13 531.794 L2061.58 532.118 Q2066.12 533.09 2068.02 534.872 Q2069.94 536.632 2069.94 539.803 Q2069.94 543.414 2067.07 545.521 Q2064.22 547.627 2059.22 547.627 Q2057.14 547.627 2054.87 547.21 Q2052.63 546.817 2050.13 546.007 L2050.13 541.609 Q2052.49 542.835 2054.78 543.46 Q2057.07 544.062 2059.32 544.062 Q2062.32 544.062 2063.94 543.044 Q2065.57 542.002 2065.57 540.127 Q2065.57 538.391 2064.38 537.465 Q2063.23 536.539 2059.27 535.683 L2057.79 535.335 Q2053.83 534.502 2052.07 532.789 Q2050.31 531.053 2050.31 528.044 Q2050.31 524.386 2052.9 522.396 Q2055.5 520.405 2060.26 520.405 Q2062.63 520.405 2064.71 520.752 Q2066.79 521.099 2068.55 521.794 Z" fill="#000000" fill-rule="nonzero" fill-opacity="1" /><path clip-path="url(#clip960)" d="M2080.94 513.669 L2080.94 521.03 L2089.71 521.03 L2089.71 524.34 L2080.94 524.34 L2080.94 538.414 Q2080.94 541.585 2081.79 542.488 Q2082.67 543.391 2085.33 543.391 L2089.71 543.391 L2089.71 546.956 L2085.33 546.956 Q2080.4 546.956 2078.53 545.127 Q2076.65 543.275 2076.65 538.414 L2076.65 524.34 L2073.53 524.34 L2073.53 521.03 L2076.65 521.03 L2076.65 513.669 L2080.94 513.669 Z" fill="#000000" fill-rule="nonzero" fill-opacity="1" /><path clip-path="url(#clip960)" d="M2105.36 524.016 Q2101.93 524.016 2099.94 526.701 Q2097.95 529.363 2097.95 534.016 Q2097.95 538.669 2099.92 541.354 Q2101.91 544.016 2105.36 544.016 Q2108.76 544.016 2110.75 541.331 Q2112.74 538.646 2112.74 534.016 Q2112.74 529.41 2110.75 526.724 Q2108.76 524.016 2105.36 524.016 M2105.36 520.405 Q2110.91 520.405 2114.08 524.016 Q2117.25 527.627 2117.25 534.016 Q2117.25 540.382 2114.08 544.016 Q2110.91 547.627 2105.36 547.627 Q2099.78 547.627 2096.61 544.016 Q2093.46 540.382 2093.46 534.016 Q2093.46 527.627 2096.61 524.016 Q2099.78 520.405 2105.36 520.405 Z" fill="#000000" fill-rule="nonzero" fill-opacity="1" /><path clip-path="url(#clip960)" d="M2144.5 526.007 Q2146.1 523.136 2148.32 521.771 Q2150.54 520.405 2153.55 520.405 Q2157.6 520.405 2159.8 523.252 Q2162 526.076 2162 531.308 L2162 546.956 L2157.72 546.956 L2157.72 531.447 Q2157.72 527.72 2156.4 525.914 Q2155.08 524.109 2152.37 524.109 Q2149.06 524.109 2147.14 526.308 Q2145.22 528.507 2145.22 532.303 L2145.22 546.956 L2140.94 546.956 L2140.94 531.447 Q2140.94 527.697 2139.62 525.914 Q2138.3 524.109 2135.54 524.109 Q2132.28 524.109 2130.36 526.331 Q2128.44 528.53 2128.44 532.303 L2128.44 546.956 L2124.15 546.956 L2124.15 521.03 L2128.44 521.03 L2128.44 525.058 Q2129.89 522.673 2131.93 521.539 Q2133.97 520.405 2136.77 520.405 Q2139.59 520.405 2141.56 521.84 Q2143.55 523.275 2144.5 526.007 Z" fill="#000000" fill-rule="nonzero" fill-opacity="1" /><path clip-path="url(#clip960)" d="M2192.67 532.928 L2192.67 535.011 L2173.09 535.011 Q2173.37 539.409 2175.73 541.724 Q2178.11 544.016 2182.35 544.016 Q2184.8 544.016 2187.09 543.414 Q2189.41 542.812 2191.68 541.609 L2191.68 545.636 Q2189.38 546.608 2186.98 547.118 Q2184.57 547.627 2182.09 547.627 Q2175.89 547.627 2172.25 544.016 Q2168.64 540.405 2168.64 534.247 Q2168.64 527.882 2172.07 524.155 Q2175.52 520.405 2181.35 520.405 Q2186.58 520.405 2189.62 523.785 Q2192.67 527.141 2192.67 532.928 M2188.41 531.678 Q2188.37 528.183 2186.44 526.099 Q2184.55 524.016 2181.4 524.016 Q2177.83 524.016 2175.68 526.03 Q2173.55 528.044 2173.23 531.701 L2188.41 531.678 Z" fill="#000000" fill-rule="nonzero" fill-opacity="1" /><path clip-path="url(#clip960)" d="M2214.68 525.011 Q2213.97 524.595 2213.11 524.41 Q2212.28 524.201 2211.26 524.201 Q2207.65 524.201 2205.7 526.562 Q2203.78 528.9 2203.78 533.298 L2203.78 546.956 L2199.5 546.956 L2199.5 521.03 L2203.78 521.03 L2203.78 525.058 Q2205.12 522.697 2207.28 521.562 Q2209.43 520.405 2212.51 520.405 Q2212.95 520.405 2213.48 520.474 Q2214.01 520.521 2214.66 520.636 L2214.68 525.011 Z" fill="#000000" fill-rule="nonzero" fill-opacity="1" /><path clip-path="url(#clip960)" d="M2233.64 512.396 L2255.87 512.396 L2255.87 514.386 L2243.32 546.956 L2238.43 546.956 L2250.24 516.331 L2233.64 516.331 L2233.64 512.396 Z" fill="#000000" fill-rule="nonzero" fill-opacity="1" /></svg>
