<?xml version="1.0" encoding="utf-8"?>
<svg xmlns="http://www.w3.org/2000/svg" xmlns:xlink="http://www.w3.org/1999/xlink" width="600" height="400" viewBox="0 0 2400 1600">
<defs>
  <clipPath id="clip640">
    <rect x="0" y="0" width="2400" height="1600"/>
  </clipPath>
</defs>
<path clip-path="url(#clip640)" d="M0 1600 L2400 1600 L2400 0 L0 0  Z" fill="#ffffff" fill-rule="evenodd" fill-opacity="1"/>
<defs>
  <clipPath id="clip641">
    <rect x="480" y="0" width="1681" height="1600"/>
  </clipPath>
</defs>
<path clip-path="url(#clip640)" d="M235.283 1423.18 L2352.76 1423.18 L2352.76 123.472 L235.283 123.472  Z" fill="#ffffff" fill-rule="evenodd" fill-opacity="1"/>
<defs>
  <clipPath id="clip642">
    <rect x="235" y="123" width="2118" height="1301"/>
  </clipPath>
</defs>
<polyline clip-path="url(#clip642)" style="stroke:#000000; stroke-linecap:round; stroke-linejoin:round; stroke-width:2; stroke-opacity:0.1; fill:none" points="642.623,1423.18 642.623,123.472 "/>
<polyline clip-path="url(#clip642)" style="stroke:#000000; stroke-linecap:round; stroke-linejoin:round; stroke-width:2; stroke-opacity:0.1; fill:none" points="1076.89,1423.18 1076.89,123.472 "/>
<polyline clip-path="url(#clip642)" style="stroke:#000000; stroke-linecap:round; stroke-linejoin:round; stroke-width:2; stroke-opacity:0.1; fill:none" points="1511.15,1423.18 1511.15,123.472 "/>
<polyline clip-path="url(#clip642)" style="stroke:#000000; stroke-linecap:round; stroke-linejoin:round; stroke-width:2; stroke-opacity:0.1; fill:none" points="1945.42,1423.18 1945.42,123.472 "/>
<polyline clip-path="url(#clip640)" style="stroke:#000000; stroke-linecap:round; stroke-linejoin:round; stroke-width:4; stroke-opacity:1; fill:none" points="235.283,1423.18 2352.76,1423.18 "/>
<polyline clip-path="url(#clip640)" style="stroke:#000000; stroke-linecap:round; stroke-linejoin:round; stroke-width:4; stroke-opacity:1; fill:none" points="642.623,1423.18 642.623,1404.28 "/>
<polyline clip-path="url(#clip640)" style="stroke:#000000; stroke-linecap:round; stroke-linejoin:round; stroke-width:4; stroke-opacity:1; fill:none" points="1076.89,1423.18 1076.89,1404.28 "/>
<polyline clip-path="url(#clip640)" style="stroke:#000000; stroke-linecap:round; stroke-linejoin:round; stroke-width:4; stroke-opacity:1; fill:none" points="1511.15,1423.18 1511.15,1404.28 "/>
<polyline clip-path="url(#clip640)" style="stroke:#000000; stroke-linecap:round; stroke-linejoin:round; stroke-width:4; stroke-opacity:1; fill:none" points="1945.42,1423.18 1945.42,1404.28 "/>
<path clip-path="url(#clip640)" d="M632.901 1451.02 L651.257 1451.02 L651.257 1454.96 L637.183 1454.96 L637.183 1463.43 Q638.202 1463.08 639.22 1462.92 Q640.239 1462.73 641.257 1462.73 Q647.044 1462.73 650.424 1465.9 Q653.803 1469.08 653.803 1474.49 Q653.803 1480.07 650.331 1483.17 Q646.859 1486.25 640.54 1486.25 Q638.364 1486.25 636.095 1485.88 Q633.85 1485.51 631.442 1484.77 L631.442 1480.07 Q633.526 1481.2 635.748 1481.76 Q637.97 1482.32 640.447 1482.32 Q644.452 1482.32 646.789 1480.21 Q649.127 1478.1 649.127 1474.49 Q649.127 1470.88 646.789 1468.77 Q644.452 1466.67 640.447 1466.67 Q638.572 1466.67 636.697 1467.08 Q634.845 1467.5 632.901 1468.38 L632.901 1451.02 Z" fill="#000000" fill-rule="nonzero" fill-opacity="1" /><path clip-path="url(#clip640)" d="M1051.57 1481.64 L1059.21 1481.64 L1059.21 1455.28 L1050.9 1456.95 L1050.9 1452.69 L1059.17 1451.02 L1063.84 1451.02 L1063.84 1481.64 L1071.48 1481.64 L1071.48 1485.58 L1051.57 1485.58 L1051.57 1481.64 Z" fill="#000000" fill-rule="nonzero" fill-opacity="1" /><path clip-path="url(#clip640)" d="M1090.93 1454.1 Q1087.32 1454.1 1085.49 1457.66 Q1083.68 1461.2 1083.68 1468.33 Q1083.68 1475.44 1085.49 1479.01 Q1087.32 1482.55 1090.93 1482.55 Q1094.56 1482.55 1096.37 1479.01 Q1098.19 1475.44 1098.19 1468.33 Q1098.19 1461.2 1096.37 1457.66 Q1094.56 1454.1 1090.93 1454.1 M1090.93 1450.39 Q1096.74 1450.39 1099.79 1455 Q1102.87 1459.58 1102.87 1468.33 Q1102.87 1477.06 1099.79 1481.67 Q1096.74 1486.25 1090.93 1486.25 Q1085.12 1486.25 1082.04 1481.67 Q1078.98 1477.06 1078.98 1468.33 Q1078.98 1459.58 1082.04 1455 Q1085.12 1450.39 1090.93 1450.39 Z" fill="#000000" fill-rule="nonzero" fill-opacity="1" /><path clip-path="url(#clip640)" d="M1486.34 1481.64 L1493.98 1481.64 L1493.98 1455.28 L1485.67 1456.95 L1485.67 1452.69 L1493.93 1451.02 L1498.61 1451.02 L1498.61 1481.64 L1506.24 1481.64 L1506.24 1485.58 L1486.34 1485.58 L1486.34 1481.64 Z" fill="#000000" fill-rule="nonzero" fill-opacity="1" /><path clip-path="url(#clip640)" d="M1515.73 1451.02 L1534.09 1451.02 L1534.09 1454.96 L1520.02 1454.96 L1520.02 1463.43 Q1521.04 1463.08 1522.05 1462.92 Q1523.07 1462.73 1524.09 1462.73 Q1529.88 1462.73 1533.26 1465.9 Q1536.64 1469.08 1536.64 1474.49 Q1536.64 1480.07 1533.17 1483.17 Q1529.69 1486.25 1523.37 1486.25 Q1521.2 1486.25 1518.93 1485.88 Q1516.68 1485.51 1514.28 1484.77 L1514.28 1480.07 Q1516.36 1481.2 1518.58 1481.76 Q1520.8 1482.32 1523.28 1482.32 Q1527.29 1482.32 1529.62 1480.21 Q1531.96 1478.1 1531.96 1474.49 Q1531.96 1470.88 1529.62 1468.77 Q1527.29 1466.67 1523.28 1466.67 Q1521.41 1466.67 1519.53 1467.08 Q1517.68 1467.5 1515.73 1468.38 L1515.73 1451.02 Z" fill="#000000" fill-rule="nonzero" fill-opacity="1" /><path clip-path="url(#clip640)" d="M1924.19 1481.64 L1940.51 1481.64 L1940.51 1485.58 L1918.56 1485.58 L1918.56 1481.64 Q1921.23 1478.89 1925.81 1474.26 Q1930.42 1469.61 1931.6 1468.27 Q1933.84 1465.74 1934.72 1464.01 Q1935.62 1462.25 1935.62 1460.56 Q1935.62 1457.8 1933.68 1456.07 Q1931.76 1454.33 1928.66 1454.33 Q1926.46 1454.33 1924 1455.09 Q1921.57 1455.86 1918.8 1457.41 L1918.8 1452.69 Q1921.62 1451.55 1924.07 1450.97 Q1926.53 1450.39 1928.56 1450.39 Q1933.93 1450.39 1937.13 1453.08 Q1940.32 1455.77 1940.32 1460.26 Q1940.32 1462.39 1939.51 1464.31 Q1938.73 1466.2 1936.62 1468.8 Q1936.04 1469.47 1932.94 1472.69 Q1929.84 1475.88 1924.19 1481.64 Z" fill="#000000" fill-rule="nonzero" fill-opacity="1" /><path clip-path="url(#clip640)" d="M1960.32 1454.1 Q1956.71 1454.1 1954.88 1457.66 Q1953.08 1461.2 1953.08 1468.33 Q1953.08 1475.44 1954.88 1479.01 Q1956.71 1482.55 1960.32 1482.55 Q1963.96 1482.55 1965.76 1479.01 Q1967.59 1475.44 1967.59 1468.33 Q1967.59 1461.2 1965.76 1457.66 Q1963.96 1454.1 1960.32 1454.1 M1960.32 1450.39 Q1966.13 1450.39 1969.19 1455 Q1972.27 1459.58 1972.27 1468.33 Q1972.27 1477.06 1969.19 1481.67 Q1966.13 1486.25 1960.32 1486.25 Q1954.51 1486.25 1951.43 1481.67 Q1948.38 1477.06 1948.38 1468.33 Q1948.38 1459.58 1951.43 1455 Q1954.51 1450.39 1960.32 1450.39 Z" fill="#000000" fill-rule="nonzero" fill-opacity="1" /><path clip-path="url(#clip640)" d="M1106.52 1520.52 L1146.72 1520.52 L1146.72 1525.93 L1129.85 1525.93 L1129.85 1568.04 L1123.39 1568.04 L1123.39 1525.93 L1106.52 1525.93 L1106.52 1520.52 Z" fill="#000000" fill-rule="nonzero" fill-opacity="1" /><path clip-path="url(#clip640)" d="M1150.66 1532.4 L1156.52 1532.4 L1156.52 1568.04 L1150.66 1568.04 L1150.66 1532.4 M1150.66 1518.52 L1156.52 1518.52 L1156.52 1525.93 L1150.66 1525.93 L1150.66 1518.52 Z" fill="#000000" fill-rule="nonzero" fill-opacity="1" /><path clip-path="url(#clip640)" d="M1196.53 1539.24 Q1198.72 1535.29 1201.78 1533.41 Q1204.84 1531.54 1208.97 1531.54 Q1214.54 1531.54 1217.57 1535.45 Q1220.59 1539.33 1220.59 1546.53 L1220.59 1568.04 L1214.7 1568.04 L1214.7 1546.72 Q1214.7 1541.59 1212.89 1539.11 Q1211.07 1536.63 1207.35 1536.63 Q1202.8 1536.63 1200.16 1539.65 Q1197.52 1542.68 1197.52 1547.9 L1197.52 1568.04 L1191.63 1568.04 L1191.63 1546.72 Q1191.63 1541.56 1189.81 1539.11 Q1188 1536.63 1184.21 1536.63 Q1179.72 1536.63 1177.08 1539.68 Q1174.44 1542.71 1174.44 1547.9 L1174.44 1568.04 L1168.55 1568.04 L1168.55 1532.4 L1174.44 1532.4 L1174.44 1537.93 Q1176.44 1534.66 1179.25 1533.1 Q1182.05 1531.54 1185.9 1531.54 Q1189.78 1531.54 1192.49 1533.51 Q1195.22 1535.48 1196.53 1539.24 Z" fill="#000000" fill-rule="nonzero" fill-opacity="1" /><path clip-path="url(#clip640)" d="M1262.76 1548.76 L1262.76 1551.62 L1235.84 1551.62 Q1236.22 1557.67 1239.47 1560.85 Q1242.74 1564 1248.57 1564 Q1251.94 1564 1255.09 1563.17 Q1258.28 1562.35 1261.4 1560.69 L1261.4 1566.23 Q1258.24 1567.57 1254.93 1568.27 Q1251.62 1568.97 1248.22 1568.97 Q1239.69 1568.97 1234.69 1564 Q1229.73 1559.04 1229.73 1550.57 Q1229.73 1541.82 1234.44 1536.69 Q1239.18 1531.54 1247.2 1531.54 Q1254.39 1531.54 1258.56 1536.18 Q1262.76 1540.8 1262.76 1548.76 M1256.91 1547.04 Q1256.84 1542.23 1254.2 1539.37 Q1251.59 1536.5 1247.26 1536.5 Q1242.36 1536.5 1239.4 1539.27 Q1236.47 1542.04 1236.03 1547.07 L1256.91 1547.04 Z" fill="#000000" fill-rule="nonzero" fill-opacity="1" /><path clip-path="url(#clip640)" d="M1307.16 1518.58 Q1302.9 1525.9 1300.83 1533.06 Q1298.76 1540.23 1298.76 1547.58 Q1298.76 1554.93 1300.83 1562.16 Q1302.93 1569.35 1307.16 1576.64 L1302.07 1576.64 Q1297.3 1569.16 1294.91 1561.93 Q1292.56 1554.71 1292.56 1547.58 Q1292.56 1540.48 1294.91 1533.29 Q1297.27 1526.09 1302.07 1518.58 L1307.16 1518.58 Z" fill="#000000" fill-rule="nonzero" fill-opacity="1" /><path clip-path="url(#clip640)" d="M1348.16 1546.53 L1348.16 1568.04 L1342.3 1568.04 L1342.3 1546.72 Q1342.3 1541.66 1340.33 1539.14 Q1338.36 1536.63 1334.41 1536.63 Q1329.67 1536.63 1326.93 1539.65 Q1324.19 1542.68 1324.19 1547.9 L1324.19 1568.04 L1318.3 1568.04 L1318.3 1518.52 L1324.19 1518.52 L1324.19 1537.93 Q1326.29 1534.72 1329.13 1533.13 Q1331.99 1531.54 1335.71 1531.54 Q1341.86 1531.54 1345.01 1535.36 Q1348.16 1539.14 1348.16 1546.53 Z" fill="#000000" fill-rule="nonzero" fill-opacity="1" /><path clip-path="url(#clip640)" d="M1373.65 1536.5 Q1368.94 1536.5 1366.21 1540.19 Q1363.47 1543.85 1363.47 1550.25 Q1363.47 1556.65 1366.17 1560.34 Q1368.91 1564 1373.65 1564 Q1378.33 1564 1381.07 1560.31 Q1383.81 1556.62 1383.81 1550.25 Q1383.81 1543.92 1381.07 1540.23 Q1378.33 1536.5 1373.65 1536.5 M1373.65 1531.54 Q1381.29 1531.54 1385.65 1536.5 Q1390.01 1541.47 1390.01 1550.25 Q1390.01 1559 1385.65 1564 Q1381.29 1568.97 1373.65 1568.97 Q1365.98 1568.97 1361.62 1564 Q1357.29 1559 1357.29 1550.25 Q1357.29 1541.47 1361.62 1536.5 Q1365.98 1531.54 1373.65 1531.54 Z" fill="#000000" fill-rule="nonzero" fill-opacity="1" /><path clip-path="url(#clip640)" d="M1399.12 1553.98 L1399.12 1532.4 L1404.97 1532.4 L1404.97 1553.75 Q1404.97 1558.81 1406.95 1561.36 Q1408.92 1563.87 1412.87 1563.87 Q1417.61 1563.87 1420.35 1560.85 Q1423.12 1557.83 1423.12 1552.61 L1423.12 1532.4 L1428.97 1532.4 L1428.97 1568.04 L1423.12 1568.04 L1423.12 1562.57 Q1420.98 1565.82 1418.15 1567.41 Q1415.35 1568.97 1411.63 1568.97 Q1405.48 1568.97 1402.3 1565.15 Q1399.12 1561.33 1399.12 1553.98 M1413.85 1531.54 L1413.85 1531.54 Z" fill="#000000" fill-rule="nonzero" fill-opacity="1" /><path clip-path="url(#clip640)" d="M1461.69 1537.87 Q1460.71 1537.3 1459.53 1537.04 Q1458.38 1536.76 1456.98 1536.76 Q1452.02 1536.76 1449.34 1540 Q1446.7 1543.22 1446.7 1549.27 L1446.7 1568.04 L1440.81 1568.04 L1440.81 1532.4 L1446.7 1532.4 L1446.7 1537.93 Q1448.55 1534.69 1451.51 1533.13 Q1454.47 1531.54 1458.7 1531.54 Q1459.3 1531.54 1460.04 1531.63 Q1460.77 1531.7 1461.66 1531.85 L1461.69 1537.87 Z" fill="#000000" fill-rule="nonzero" fill-opacity="1" /><path clip-path="url(#clip640)" d="M1466.91 1518.58 L1472 1518.58 Q1476.78 1526.09 1479.13 1533.29 Q1481.52 1540.48 1481.52 1547.58 Q1481.52 1554.71 1479.13 1561.93 Q1476.78 1569.16 1472 1576.64 L1466.91 1576.64 Q1471.15 1569.35 1473.21 1562.16 Q1475.31 1554.93 1475.31 1547.58 Q1475.31 1540.23 1473.21 1533.06 Q1471.15 1525.9 1466.91 1518.58 Z" fill="#000000" fill-rule="nonzero" fill-opacity="1" /><polyline clip-path="url(#clip642)" style="stroke:#000000; stroke-linecap:round; stroke-linejoin:round; stroke-width:2; stroke-opacity:0.1; fill:none" points="235.283,1408.39 2352.76,1408.39 "/>
<polyline clip-path="url(#clip642)" style="stroke:#000000; stroke-linecap:round; stroke-linejoin:round; stroke-width:2; stroke-opacity:0.1; fill:none" points="235.283,1095.77 2352.76,1095.77 "/>
<polyline clip-path="url(#clip642)" style="stroke:#000000; stroke-linecap:round; stroke-linejoin:round; stroke-width:2; stroke-opacity:0.1; fill:none" points="235.283,783.144 2352.76,783.144 "/>
<polyline clip-path="url(#clip642)" style="stroke:#000000; stroke-linecap:round; stroke-linejoin:round; stroke-width:2; stroke-opacity:0.1; fill:none" points="235.283,470.521 2352.76,470.521 "/>
<polyline clip-path="url(#clip642)" style="stroke:#000000; stroke-linecap:round; stroke-linejoin:round; stroke-width:2; stroke-opacity:0.1; fill:none" points="235.283,157.898 2352.76,157.898 "/>
<polyline clip-path="url(#clip640)" style="stroke:#000000; stroke-linecap:round; stroke-linejoin:round; stroke-width:4; stroke-opacity:1; fill:none" points="235.283,1423.18 235.283,123.472 "/>
<polyline clip-path="url(#clip640)" style="stroke:#000000; stroke-linecap:round; stroke-linejoin:round; stroke-width:4; stroke-opacity:1; fill:none" points="235.283,1408.39 254.18,1408.39 "/>
<polyline clip-path="url(#clip640)" style="stroke:#000000; stroke-linecap:round; stroke-linejoin:round; stroke-width:4; stroke-opacity:1; fill:none" points="235.283,1095.77 254.18,1095.77 "/>
<polyline clip-path="url(#clip640)" style="stroke:#000000; stroke-linecap:round; stroke-linejoin:round; stroke-width:4; stroke-opacity:1; fill:none" points="235.283,783.144 254.18,783.144 "/>
<polyline clip-path="url(#clip640)" style="stroke:#000000; stroke-linecap:round; stroke-linejoin:round; stroke-width:4; stroke-opacity:1; fill:none" points="235.283,470.521 254.18,470.521 "/>
<polyline clip-path="url(#clip640)" style="stroke:#000000; stroke-linecap:round; stroke-linejoin:round; stroke-width:4; stroke-opacity:1; fill:none" points="235.283,157.898 254.18,157.898 "/>
<path clip-path="url(#clip640)" d="M187.338 1394.19 Q183.727 1394.19 181.899 1397.75 Q180.093 1401.29 180.093 1408.42 Q180.093 1415.53 181.899 1419.1 Q183.727 1422.64 187.338 1422.64 Q190.973 1422.64 192.778 1419.1 Q194.607 1415.53 194.607 1408.42 Q194.607 1401.29 192.778 1397.75 Q190.973 1394.19 187.338 1394.19 M187.338 1390.48 Q193.149 1390.48 196.204 1395.09 Q199.283 1399.67 199.283 1408.42 Q199.283 1417.15 196.204 1421.76 Q193.149 1426.34 187.338 1426.34 Q181.528 1426.34 178.45 1421.76 Q175.394 1417.15 175.394 1408.42 Q175.394 1399.67 178.45 1395.09 Q181.528 1390.48 187.338 1390.48 Z" fill="#000000" fill-rule="nonzero" fill-opacity="1" /><path clip-path="url(#clip640)" d="M121.043 1109.11 L137.362 1109.11 L137.362 1113.05 L115.418 1113.05 L115.418 1109.11 Q118.08 1106.36 122.663 1101.73 Q127.269 1097.07 128.45 1095.73 Q130.695 1093.21 131.575 1091.47 Q132.478 1089.71 132.478 1088.02 Q132.478 1085.27 130.533 1083.53 Q128.612 1081.8 125.51 1081.8 Q123.311 1081.8 120.857 1082.56 Q118.427 1083.32 115.649 1084.88 L115.649 1080.15 Q118.473 1079.02 120.927 1078.44 Q123.38 1077.86 125.418 1077.86 Q130.788 1077.86 133.982 1080.55 Q137.177 1083.23 137.177 1087.72 Q137.177 1089.85 136.367 1091.77 Q135.579 1093.67 133.473 1096.26 Q132.894 1096.94 129.792 1100.15 Q126.691 1103.35 121.043 1109.11 Z" fill="#000000" fill-rule="nonzero" fill-opacity="1" /><path clip-path="url(#clip640)" d="M157.177 1081.57 Q153.566 1081.57 151.737 1085.13 Q149.931 1088.67 149.931 1095.8 Q149.931 1102.91 151.737 1106.47 Q153.566 1110.01 157.177 1110.01 Q160.811 1110.01 162.616 1106.47 Q164.445 1102.91 164.445 1095.8 Q164.445 1088.67 162.616 1085.13 Q160.811 1081.57 157.177 1081.57 M157.177 1077.86 Q162.987 1077.86 166.042 1082.47 Q169.121 1087.05 169.121 1095.8 Q169.121 1104.53 166.042 1109.13 Q162.987 1113.72 157.177 1113.72 Q151.366 1113.72 148.288 1109.13 Q145.232 1104.53 145.232 1095.8 Q145.232 1087.05 148.288 1082.47 Q151.366 1077.86 157.177 1077.86 Z" fill="#000000" fill-rule="nonzero" fill-opacity="1" /><path clip-path="url(#clip640)" d="M187.338 1081.57 Q183.727 1081.57 181.899 1085.13 Q180.093 1088.67 180.093 1095.8 Q180.093 1102.91 181.899 1106.47 Q183.727 1110.01 187.338 1110.01 Q190.973 1110.01 192.778 1106.47 Q194.607 1102.91 194.607 1095.8 Q194.607 1088.67 192.778 1085.13 Q190.973 1081.57 187.338 1081.57 M187.338 1077.86 Q193.149 1077.86 196.204 1082.47 Q199.283 1087.05 199.283 1095.8 Q199.283 1104.53 196.204 1109.13 Q193.149 1113.72 187.338 1113.72 Q181.528 1113.72 178.45 1109.13 Q175.394 1104.53 175.394 1095.8 Q175.394 1087.05 178.45 1082.47 Q181.528 1077.86 187.338 1077.86 Z" fill="#000000" fill-rule="nonzero" fill-opacity="1" /><path clip-path="url(#clip640)" d="M129.862 769.938 L118.056 788.387 L129.862 788.387 L129.862 769.938 M128.635 765.864 L134.515 765.864 L134.515 788.387 L139.445 788.387 L139.445 792.276 L134.515 792.276 L134.515 800.424 L129.862 800.424 L129.862 792.276 L114.26 792.276 L114.26 787.762 L128.635 765.864 Z" fill="#000000" fill-rule="nonzero" fill-opacity="1" /><path clip-path="url(#clip640)" d="M157.177 768.942 Q153.566 768.942 151.737 772.507 Q149.931 776.049 149.931 783.178 Q149.931 790.285 151.737 793.85 Q153.566 797.391 157.177 797.391 Q160.811 797.391 162.616 793.85 Q164.445 790.285 164.445 783.178 Q164.445 776.049 162.616 772.507 Q160.811 768.942 157.177 768.942 M157.177 765.239 Q162.987 765.239 166.042 769.845 Q169.121 774.428 169.121 783.178 Q169.121 791.905 166.042 796.512 Q162.987 801.095 157.177 801.095 Q151.366 801.095 148.288 796.512 Q145.232 791.905 145.232 783.178 Q145.232 774.428 148.288 769.845 Q151.366 765.239 157.177 765.239 Z" fill="#000000" fill-rule="nonzero" fill-opacity="1" /><path clip-path="url(#clip640)" d="M187.338 768.942 Q183.727 768.942 181.899 772.507 Q180.093 776.049 180.093 783.178 Q180.093 790.285 181.899 793.85 Q183.727 797.391 187.338 797.391 Q190.973 797.391 192.778 793.85 Q194.607 790.285 194.607 783.178 Q194.607 776.049 192.778 772.507 Q190.973 768.942 187.338 768.942 M187.338 765.239 Q193.149 765.239 196.204 769.845 Q199.283 774.428 199.283 783.178 Q199.283 791.905 196.204 796.512 Q193.149 801.095 187.338 801.095 Q181.528 801.095 178.45 796.512 Q175.394 791.905 175.394 783.178 Q175.394 774.428 178.45 769.845 Q181.528 765.239 187.338 765.239 Z" fill="#000000" fill-rule="nonzero" fill-opacity="1" /><path clip-path="url(#clip640)" d="M127.593 468.657 Q124.445 468.657 122.593 470.81 Q120.765 472.963 120.765 476.713 Q120.765 480.44 122.593 482.616 Q124.445 484.769 127.593 484.769 Q130.742 484.769 132.57 482.616 Q134.422 480.44 134.422 476.713 Q134.422 472.963 132.57 470.81 Q130.742 468.657 127.593 468.657 M136.876 454.005 L136.876 458.264 Q135.117 457.431 133.311 456.991 Q131.529 456.551 129.769 456.551 Q125.14 456.551 122.686 459.676 Q120.255 462.801 119.908 469.12 Q121.274 467.107 123.334 466.042 Q125.394 464.954 127.871 464.954 Q133.08 464.954 136.089 468.125 Q139.121 471.273 139.121 476.713 Q139.121 482.037 135.973 485.255 Q132.825 488.472 127.593 488.472 Q121.598 488.472 118.427 483.889 Q115.256 479.282 115.256 470.556 Q115.256 462.361 119.144 457.5 Q123.033 452.616 129.584 452.616 Q131.343 452.616 133.126 452.963 Q134.931 453.31 136.876 454.005 Z" fill="#000000" fill-rule="nonzero" fill-opacity="1" /><path clip-path="url(#clip640)" d="M157.177 456.32 Q153.566 456.32 151.737 459.884 Q149.931 463.426 149.931 470.556 Q149.931 477.662 151.737 481.227 Q153.566 484.769 157.177 484.769 Q160.811 484.769 162.616 481.227 Q164.445 477.662 164.445 470.556 Q164.445 463.426 162.616 459.884 Q160.811 456.32 157.177 456.32 M157.177 452.616 Q162.987 452.616 166.042 457.222 Q169.121 461.806 169.121 470.556 Q169.121 479.282 166.042 483.889 Q162.987 488.472 157.177 488.472 Q151.366 488.472 148.288 483.889 Q145.232 479.282 145.232 470.556 Q145.232 461.806 148.288 457.222 Q151.366 452.616 157.177 452.616 Z" fill="#000000" fill-rule="nonzero" fill-opacity="1" /><path clip-path="url(#clip640)" d="M187.338 456.32 Q183.727 456.32 181.899 459.884 Q180.093 463.426 180.093 470.556 Q180.093 477.662 181.899 481.227 Q183.727 484.769 187.338 484.769 Q190.973 484.769 192.778 481.227 Q194.607 477.662 194.607 470.556 Q194.607 463.426 192.778 459.884 Q190.973 456.32 187.338 456.32 M187.338 452.616 Q193.149 452.616 196.204 457.222 Q199.283 461.806 199.283 470.556 Q199.283 479.282 196.204 483.889 Q193.149 488.472 187.338 488.472 Q181.528 488.472 178.45 483.889 Q175.394 479.282 175.394 470.556 Q175.394 461.806 178.45 457.222 Q181.528 452.616 187.338 452.616 Z" fill="#000000" fill-rule="nonzero" fill-opacity="1" /><path clip-path="url(#clip640)" d="M127.015 158.766 Q123.681 158.766 121.76 160.549 Q119.862 162.331 119.862 165.456 Q119.862 168.581 121.76 170.363 Q123.681 172.146 127.015 172.146 Q130.348 172.146 132.269 170.363 Q134.191 168.558 134.191 165.456 Q134.191 162.331 132.269 160.549 Q130.371 158.766 127.015 158.766 M122.339 156.775 Q119.33 156.035 117.64 153.975 Q115.973 151.914 115.973 148.951 Q115.973 144.808 118.913 142.401 Q121.876 139.993 127.015 139.993 Q132.177 139.993 135.117 142.401 Q138.056 144.808 138.056 148.951 Q138.056 151.914 136.367 153.975 Q134.7 156.035 131.714 156.775 Q135.093 157.562 136.968 159.854 Q138.867 162.146 138.867 165.456 Q138.867 170.479 135.788 173.164 Q132.732 175.849 127.015 175.849 Q121.297 175.849 118.218 173.164 Q115.163 170.479 115.163 165.456 Q115.163 162.146 117.061 159.854 Q118.959 157.562 122.339 156.775 M120.626 149.391 Q120.626 152.076 122.293 153.581 Q123.982 155.086 127.015 155.086 Q130.024 155.086 131.714 153.581 Q133.427 152.076 133.427 149.391 Q133.427 146.706 131.714 145.201 Q130.024 143.697 127.015 143.697 Q123.982 143.697 122.293 145.201 Q120.626 146.706 120.626 149.391 Z" fill="#000000" fill-rule="nonzero" fill-opacity="1" /><path clip-path="url(#clip640)" d="M157.177 143.697 Q153.566 143.697 151.737 147.262 Q149.931 150.803 149.931 157.933 Q149.931 165.039 151.737 168.604 Q153.566 172.146 157.177 172.146 Q160.811 172.146 162.616 168.604 Q164.445 165.039 164.445 157.933 Q164.445 150.803 162.616 147.262 Q160.811 143.697 157.177 143.697 M157.177 139.993 Q162.987 139.993 166.042 144.6 Q169.121 149.183 169.121 157.933 Q169.121 166.66 166.042 171.266 Q162.987 175.849 157.177 175.849 Q151.366 175.849 148.288 171.266 Q145.232 166.66 145.232 157.933 Q145.232 149.183 148.288 144.6 Q151.366 139.993 157.177 139.993 Z" fill="#000000" fill-rule="nonzero" fill-opacity="1" /><path clip-path="url(#clip640)" d="M187.338 143.697 Q183.727 143.697 181.899 147.262 Q180.093 150.803 180.093 157.933 Q180.093 165.039 181.899 168.604 Q183.727 172.146 187.338 172.146 Q190.973 172.146 192.778 168.604 Q194.607 165.039 194.607 157.933 Q194.607 150.803 192.778 147.262 Q190.973 143.697 187.338 143.697 M187.338 139.993 Q193.149 139.993 196.204 144.6 Q199.283 149.183 199.283 157.933 Q199.283 166.66 196.204 171.266 Q193.149 175.849 187.338 175.849 Q181.528 175.849 178.45 171.266 Q175.394 166.66 175.394 157.933 Q175.394 149.183 178.45 144.6 Q181.528 139.993 187.338 139.993 Z" fill="#000000" fill-rule="nonzero" fill-opacity="1" /><path clip-path="url(#clip640)" d="M16.4842 973.925 L16.4842 967.496 L64.0042 967.496 L64.0042 973.925 L16.4842 973.925 Z" fill="#000000" fill-rule="nonzero" fill-opacity="1" /><path clip-path="url(#clip640)" d="M42.4881 925.323 L64.0042 925.323 L64.0042 931.18 L42.679 931.18 Q37.6183 931.18 35.1038 933.153 Q32.5894 935.126 32.5894 939.073 Q32.5894 943.816 35.6131 946.553 Q38.6368 949.29 43.8567 949.29 L64.0042 949.29 L64.0042 955.178 L28.3562 955.178 L28.3562 949.29 L33.8944 949.29 Q30.6797 947.189 29.0883 944.357 Q27.4968 941.492 27.4968 937.768 Q27.4968 931.625 31.3163 928.474 Q35.1038 925.323 42.4881 925.323 Z" fill="#000000" fill-rule="nonzero" fill-opacity="1" /><path clip-path="url(#clip640)" d="M29.7248 887.988 L35.1993 887.988 Q33.8307 890.471 33.1623 892.985 Q32.4621 895.468 32.4621 898.014 Q32.4621 903.712 36.0905 906.863 Q39.6872 910.014 46.212 910.014 Q52.7369 910.014 56.3653 906.863 Q59.9619 903.712 59.9619 898.014 Q59.9619 895.468 59.2935 892.985 Q58.5933 890.471 57.2247 887.988 L62.6355 887.988 Q63.7814 890.439 64.3543 893.081 Q64.9272 895.691 64.9272 898.651 Q64.9272 906.703 59.8664 911.446 Q54.8057 916.188 46.212 916.188 Q37.491 916.188 32.4939 911.414 Q27.4968 906.608 27.4968 898.269 Q27.4968 895.563 28.0697 892.985 Q28.6108 890.407 29.7248 887.988 Z" fill="#000000" fill-rule="nonzero" fill-opacity="1" /><path clip-path="url(#clip640)" d="M44.7161 847.311 L47.5806 847.311 L47.5806 874.238 Q53.6281 873.856 56.8109 870.61 Q59.9619 867.332 59.9619 861.507 Q59.9619 858.133 59.1344 854.982 Q58.3069 851.799 56.6518 848.68 L62.1899 848.68 Q63.5267 851.831 64.227 855.141 Q64.9272 858.451 64.9272 861.857 Q64.9272 870.387 59.9619 875.384 Q54.9967 880.349 46.5303 880.349 Q37.7774 880.349 32.6531 875.639 Q27.4968 870.896 27.4968 862.876 Q27.4968 855.682 32.1438 851.513 Q36.7589 847.311 44.7161 847.311 M42.9973 853.168 Q38.1912 853.232 35.3266 855.873 Q32.4621 858.483 32.4621 862.812 Q32.4621 867.713 35.2312 870.674 Q38.0002 873.602 43.0292 874.047 L42.9973 853.168 Z" fill="#000000" fill-rule="nonzero" fill-opacity="1" /><path clip-path="url(#clip640)" d="M42.4881 808.067 L64.0042 808.067 L64.0042 813.923 L42.679 813.923 Q37.6183 813.923 35.1038 815.897 Q32.5894 817.87 32.5894 821.817 Q32.5894 826.559 35.6131 829.296 Q38.6368 832.034 43.8567 832.034 L64.0042 832.034 L64.0042 837.922 L28.3562 837.922 L28.3562 832.034 L33.8944 832.034 Q30.6797 829.933 29.0883 827.1 Q27.4968 824.236 27.4968 820.512 Q27.4968 814.369 31.3163 811.218 Q35.1038 808.067 42.4881 808.067 Z" fill="#000000" fill-rule="nonzero" fill-opacity="1" /><path clip-path="url(#clip640)" d="M18.2347 790.593 L28.3562 790.593 L28.3562 778.53 L32.9077 778.53 L32.9077 790.593 L52.2594 790.593 Q56.6199 790.593 57.8613 789.415 Q59.1026 788.206 59.1026 784.546 L59.1026 778.53 L64.0042 778.53 L64.0042 784.546 Q64.0042 791.325 61.4897 793.903 Q58.9434 796.481 52.2594 796.481 L32.9077 796.481 L32.9077 800.778 L28.3562 800.778 L28.3562 796.481 L18.2347 796.481 L18.2347 790.593 Z" fill="#000000" fill-rule="nonzero" fill-opacity="1" /><path clip-path="url(#clip640)" d="M28.3562 770.827 L28.3562 764.971 L64.0042 764.971 L64.0042 770.827 L28.3562 770.827 M14.479 770.827 L14.479 764.971 L21.895 764.971 L21.895 770.827 L14.479 770.827 Z" fill="#000000" fill-rule="nonzero" fill-opacity="1" /><path clip-path="url(#clip640)" d="M28.3562 756.918 L28.3562 750.712 L58.275 739.572 L28.3562 728.432 L28.3562 722.225 L64.0042 735.593 L64.0042 743.55 L28.3562 756.918 Z" fill="#000000" fill-rule="nonzero" fill-opacity="1" /><path clip-path="url(#clip640)" d="M44.7161 683.649 L47.5806 683.649 L47.5806 710.576 Q53.6281 710.194 56.8109 706.948 Q59.9619 703.669 59.9619 697.845 Q59.9619 694.471 59.1344 691.32 Q58.3069 688.137 56.6518 685.018 L62.1899 685.018 Q63.5267 688.169 64.227 691.479 Q64.9272 694.789 64.9272 698.195 Q64.9272 706.725 59.9619 711.722 Q54.9967 716.687 46.5303 716.687 Q37.7774 716.687 32.6531 711.976 Q27.4968 707.234 27.4968 699.213 Q27.4968 692.02 32.1438 687.85 Q36.7589 683.649 44.7161 683.649 M42.9973 689.506 Q38.1912 689.569 35.3266 692.211 Q32.4621 694.821 32.4621 699.15 Q32.4621 704.051 35.2312 707.011 Q38.0002 709.939 43.0292 710.385 L42.9973 689.506 Z" fill="#000000" fill-rule="nonzero" fill-opacity="1" /><path clip-path="url(#clip640)" d="M14.5426 639.248 Q21.8632 643.513 29.0246 645.582 Q36.186 647.651 43.5384 647.651 Q50.8908 647.651 58.1159 645.582 Q65.3091 643.481 72.5979 639.248 L72.5979 644.341 Q65.1182 649.115 57.8931 651.502 Q50.668 653.858 43.5384 653.858 Q36.4406 653.858 29.2474 651.502 Q22.0542 649.147 14.5426 644.341 L14.5426 639.248 Z" fill="#000000" fill-rule="nonzero" fill-opacity="1" /><path clip-path="url(#clip640)" d="M73.5845 612.003 L73.5845 615.186 L64.0042 615.218 Q63.9405 618.56 63.2403 621.902 Q62.5082 625.244 61.0759 628.618 L55.3468 628.618 Q57.3838 625.371 58.4342 622.061 Q59.4527 618.719 59.4845 615.186 L44.9707 615.186 Q43.8249 622.22 41.0876 625.435 Q38.3504 628.618 33.5761 628.618 Q28.388 628.618 25.3961 625.148 Q22.4043 621.679 21.9587 615.186 L14.479 615.186 L14.479 612.003 L21.8632 612.003 Q21.9905 609.043 22.4998 606.274 Q22.9772 603.505 23.8365 600.863 L29.4065 600.863 Q28.0697 603.505 27.3377 606.306 Q26.6056 609.075 26.4783 612.003 L40.0691 612.003 Q41.1831 604.778 44.0477 601.372 Q46.9122 597.967 51.8775 597.967 Q57.2565 597.967 60.3757 601.595 Q63.4631 605.192 63.9405 612.003 L73.5845 612.003 M39.4962 615.186 L26.4465 615.186 Q26.8603 618.878 28.5472 620.82 Q30.2341 622.761 33.035 622.761 Q35.7722 622.761 37.3 620.979 Q38.8278 619.164 39.4962 615.186 M45.6073 612.003 L59.389 612.003 Q58.8479 607.961 57.0974 605.924 Q55.3468 603.855 52.4822 603.855 Q49.6813 603.855 48.0262 605.828 Q46.3712 607.77 45.6073 612.003 Z" fill="#000000" fill-rule="nonzero" fill-opacity="1" /><path clip-path="url(#clip640)" d="M14.5426 587.336 L14.5426 582.243 Q22.0542 577.469 29.2474 575.114 Q36.4406 572.727 43.5384 572.727 Q50.668 572.727 57.8931 575.114 Q65.1182 577.469 72.5979 582.243 L72.5979 587.336 Q65.3091 583.103 58.1159 581.034 Q50.8908 578.933 43.5384 578.933 Q36.186 578.933 29.0246 581.034 Q21.8632 583.103 14.5426 587.336 Z" fill="#000000" fill-rule="nonzero" fill-opacity="1" /><path clip-path="url(#clip640)" d="M708.178 17.6457 Q699.266 17.6457 693.999 24.2892 Q688.774 30.9327 688.774 42.3968 Q688.774 53.8203 693.999 60.4638 Q699.266 67.1073 708.178 67.1073 Q717.09 67.1073 722.275 60.4638 Q727.5 53.8203 727.5 42.3968 Q727.5 30.9327 722.275 24.2892 Q717.09 17.6457 708.178 17.6457 M708.178 11.0023 Q720.897 11.0023 728.513 19.5497 Q736.129 28.0566 736.129 42.3968 Q736.129 56.6965 728.513 65.2439 Q720.897 73.7508 708.178 73.7508 Q695.417 73.7508 687.761 65.2439 Q680.145 56.737 680.145 42.3968 Q680.145 28.0566 687.761 19.5497 Q695.417 11.0023 708.178 11.0023 Z" fill="#000000" fill-rule="nonzero" fill-opacity="1" /><path clip-path="url(#clip640)" d="M755.816 65.7705 L755.816 89.8329 L748.322 89.8329 L748.322 27.2059 L755.816 27.2059 L755.816 34.0924 Q758.166 30.0415 761.731 28.0971 Q765.336 26.1121 770.318 26.1121 Q778.582 26.1121 783.727 32.6746 Q788.912 39.2371 788.912 49.9314 Q788.912 60.6258 783.727 67.1883 Q778.582 73.7508 770.318 73.7508 Q765.336 73.7508 761.731 71.8063 Q758.166 69.8214 755.816 65.7705 M781.175 49.9314 Q781.175 41.7081 777.772 37.0496 Q774.41 32.3505 768.496 32.3505 Q762.581 32.3505 759.178 37.0496 Q755.816 41.7081 755.816 49.9314 Q755.816 58.1548 759.178 62.8538 Q762.581 67.5124 768.496 67.5124 Q774.41 67.5124 777.772 62.8538 Q781.175 58.1548 781.175 49.9314 Z" fill="#000000" fill-rule="nonzero" fill-opacity="1" /><path clip-path="url(#clip640)" d="M808.64 14.324 L808.64 27.2059 L823.993 27.2059 L823.993 32.9987 L808.64 32.9987 L808.64 57.6282 Q808.64 63.1779 810.139 64.7578 Q811.678 66.3376 816.337 66.3376 L823.993 66.3376 L823.993 72.576 L816.337 72.576 Q807.708 72.576 804.427 69.3758 Q801.146 66.1351 801.146 57.6282 L801.146 32.9987 L795.677 32.9987 L795.677 27.2059 L801.146 27.2059 L801.146 14.324 L808.64 14.324 Z" fill="#000000" fill-rule="nonzero" fill-opacity="1" /><path clip-path="url(#clip640)" d="M833.796 27.2059 L841.25 27.2059 L841.25 72.576 L833.796 72.576 L833.796 27.2059 M833.796 9.54393 L841.25 9.54393 L841.25 18.9825 L833.796 18.9825 L833.796 9.54393 Z" fill="#000000" fill-rule="nonzero" fill-opacity="1" /><path clip-path="url(#clip640)" d="M892.17 35.9153 Q894.965 30.8922 898.854 28.5022 Q902.743 26.1121 908.009 26.1121 Q915.098 26.1121 918.946 31.0947 Q922.795 36.0368 922.795 45.1919 L922.795 72.576 L915.3 72.576 L915.3 45.4349 Q915.3 38.913 912.991 35.7533 Q910.682 32.5936 905.943 32.5936 Q900.15 32.5936 896.788 36.4419 Q893.425 40.2903 893.425 46.9338 L893.425 72.576 L885.931 72.576 L885.931 45.4349 Q885.931 38.8725 883.622 35.7533 Q881.313 32.5936 876.493 32.5936 Q870.781 32.5936 867.419 36.4824 Q864.056 40.3308 864.056 46.9338 L864.056 72.576 L856.562 72.576 L856.562 27.2059 L864.056 27.2059 L864.056 34.2544 Q866.608 30.082 870.173 28.0971 Q873.738 26.1121 878.64 26.1121 Q883.582 26.1121 887.025 28.6237 Q890.509 31.1352 892.17 35.9153 Z" fill="#000000" fill-rule="nonzero" fill-opacity="1" /><path clip-path="url(#clip640)" d="M958.28 49.7694 Q949.247 49.7694 945.763 51.8354 Q942.279 53.9013 942.279 58.8839 Q942.279 62.8538 944.872 65.2034 Q947.505 67.5124 952.002 67.5124 Q958.199 67.5124 961.926 63.1374 Q965.694 58.7219 965.694 51.4303 L965.694 49.7694 L958.28 49.7694 M973.147 46.6907 L973.147 72.576 L965.694 72.576 L965.694 65.6895 Q963.142 69.8214 959.334 71.8063 Q955.526 73.7508 950.017 73.7508 Q943.049 73.7508 938.917 69.8619 Q934.826 65.9325 934.826 59.3701 Q934.826 51.7138 939.93 47.825 Q945.074 43.9361 955.242 43.9361 L965.694 43.9361 L965.694 43.2069 Q965.694 38.0623 962.291 35.2672 Q958.929 32.4315 952.812 32.4315 Q948.923 32.4315 945.237 33.3632 Q941.55 34.295 938.147 36.1584 L938.147 29.2718 Q942.239 27.692 946.087 26.9223 Q949.936 26.1121 953.581 26.1121 Q963.425 26.1121 968.286 31.2163 Q973.147 36.3204 973.147 46.6907 Z" fill="#000000" fill-rule="nonzero" fill-opacity="1" /><path clip-path="url(#clip640)" d="M988.5 9.54393 L995.954 9.54393 L995.954 72.576 L988.5 72.576 L988.5 9.54393 Z" fill="#000000" fill-rule="nonzero" fill-opacity="1" /><path clip-path="url(#clip640)" d="M1038.25 12.096 L1046.43 12.096 L1046.43 72.576 L1038.25 72.576 L1038.25 12.096 Z" fill="#000000" fill-rule="nonzero" fill-opacity="1" /><path clip-path="url(#clip640)" d="M1100.1 45.1919 L1100.1 72.576 L1092.65 72.576 L1092.65 45.4349 Q1092.65 38.994 1090.14 35.7938 Q1087.63 32.5936 1082.6 32.5936 Q1076.57 32.5936 1073.08 36.4419 Q1069.6 40.2903 1069.6 46.9338 L1069.6 72.576 L1062.11 72.576 L1062.11 27.2059 L1069.6 27.2059 L1069.6 34.2544 Q1072.27 30.163 1075.88 28.1376 Q1079.52 26.1121 1084.26 26.1121 Q1092.08 26.1121 1096.09 30.9732 Q1100.1 35.7938 1100.1 45.1919 Z" fill="#000000" fill-rule="nonzero" fill-opacity="1" /><path clip-path="url(#clip640)" d="M1147.62 28.9478 L1147.62 35.9153 Q1144.46 34.1734 1141.26 33.3227 Q1138.1 32.4315 1134.86 32.4315 Q1127.61 32.4315 1123.6 37.0496 Q1119.59 41.6271 1119.59 49.9314 Q1119.59 58.2358 1123.6 62.8538 Q1127.61 67.4314 1134.86 67.4314 Q1138.1 67.4314 1141.26 66.5807 Q1144.46 65.6895 1147.62 63.9476 L1147.62 70.8341 Q1144.5 72.2924 1141.14 73.0216 Q1137.82 73.7508 1134.05 73.7508 Q1123.8 73.7508 1117.76 67.3098 Q1111.73 60.8689 1111.73 49.9314 Q1111.73 38.832 1117.81 32.472 Q1123.92 26.1121 1134.54 26.1121 Q1137.98 26.1121 1141.26 26.8413 Q1144.54 27.5299 1147.62 28.9478 Z" fill="#000000" fill-rule="nonzero" fill-opacity="1" /><path clip-path="url(#clip640)" d="M1199.39 48.0275 L1199.39 51.6733 L1165.12 51.6733 Q1165.61 59.3701 1169.74 63.421 Q1173.91 67.4314 1181.32 67.4314 Q1185.62 67.4314 1189.63 66.3781 Q1193.68 65.3249 1197.65 63.2184 L1197.65 70.267 Q1193.64 71.9684 1189.43 72.8596 Q1185.21 73.7508 1180.88 73.7508 Q1170.02 73.7508 1163.66 67.4314 Q1157.34 61.1119 1157.34 50.3365 Q1157.34 39.1965 1163.34 32.6746 Q1169.37 26.1121 1179.58 26.1121 Q1188.74 26.1121 1194.04 32.0264 Q1199.39 37.9003 1199.39 48.0275 M1191.94 45.84 Q1191.86 39.7232 1188.49 36.0774 Q1185.17 32.4315 1179.66 32.4315 Q1173.42 32.4315 1169.66 35.9558 Q1165.93 39.4801 1165.36 45.8805 L1191.94 45.84 Z" fill="#000000" fill-rule="nonzero" fill-opacity="1" /><path clip-path="url(#clip640)" d="M1249.34 45.1919 L1249.34 72.576 L1241.88 72.576 L1241.88 45.4349 Q1241.88 38.994 1239.37 35.7938 Q1236.86 32.5936 1231.84 32.5936 Q1225.8 32.5936 1222.32 36.4419 Q1218.83 40.2903 1218.83 46.9338 L1218.83 72.576 L1211.34 72.576 L1211.34 27.2059 L1218.83 27.2059 L1218.83 34.2544 Q1221.51 30.163 1225.11 28.1376 Q1228.76 26.1121 1233.5 26.1121 Q1241.32 26.1121 1245.33 30.9732 Q1249.34 35.7938 1249.34 45.1919 Z" fill="#000000" fill-rule="nonzero" fill-opacity="1" /><path clip-path="url(#clip640)" d="M1271.58 14.324 L1271.58 27.2059 L1286.93 27.2059 L1286.93 32.9987 L1271.58 32.9987 L1271.58 57.6282 Q1271.58 63.1779 1273.08 64.7578 Q1274.62 66.3376 1279.27 66.3376 L1286.93 66.3376 L1286.93 72.576 L1279.27 72.576 Q1270.65 72.576 1267.36 69.3758 Q1264.08 66.1351 1264.08 57.6282 L1264.08 32.9987 L1258.61 32.9987 L1258.61 27.2059 L1264.08 27.2059 L1264.08 14.324 L1271.58 14.324 Z" fill="#000000" fill-rule="nonzero" fill-opacity="1" /><path clip-path="url(#clip640)" d="M1296.73 27.2059 L1304.19 27.2059 L1304.19 72.576 L1296.73 72.576 L1296.73 27.2059 M1296.73 9.54393 L1304.19 9.54393 L1304.19 18.9825 L1296.73 18.9825 L1296.73 9.54393 Z" fill="#000000" fill-rule="nonzero" fill-opacity="1" /><path clip-path="url(#clip640)" d="M1314.44 27.2059 L1322.34 27.2059 L1336.51 65.2844 L1350.69 27.2059 L1358.59 27.2059 L1341.58 72.576 L1331.45 72.576 L1314.44 27.2059 Z" fill="#000000" fill-rule="nonzero" fill-opacity="1" /><path clip-path="url(#clip640)" d="M1407.69 48.0275 L1407.69 51.6733 L1373.42 51.6733 Q1373.9 59.3701 1378.04 63.421 Q1382.21 67.4314 1389.62 67.4314 Q1393.91 67.4314 1397.93 66.3781 Q1401.98 65.3249 1405.95 63.2184 L1405.95 70.267 Q1401.94 71.9684 1397.72 72.8596 Q1393.51 73.7508 1389.18 73.7508 Q1378.32 73.7508 1371.96 67.4314 Q1365.64 61.1119 1365.64 50.3365 Q1365.64 39.1965 1371.63 32.6746 Q1377.67 26.1121 1387.88 26.1121 Q1397.03 26.1121 1402.34 32.0264 Q1407.69 37.9003 1407.69 48.0275 M1400.23 45.84 Q1400.15 39.7232 1396.79 36.0774 Q1393.47 32.4315 1387.96 32.4315 Q1381.72 32.4315 1377.95 35.9558 Q1374.23 39.4801 1373.66 45.8805 L1400.23 45.84 Z" fill="#000000" fill-rule="nonzero" fill-opacity="1" /><path clip-path="url(#clip640)" d="M1464.2 9.62495 Q1458.77 18.942 1456.14 28.0566 Q1453.5 37.1711 1453.5 46.5287 Q1453.5 55.8863 1456.14 65.0818 Q1458.81 74.2369 1464.2 83.5134 L1457.72 83.5134 Q1451.64 73.9938 1448.6 64.7983 Q1445.6 55.6027 1445.6 46.5287 Q1445.6 37.4952 1448.6 28.3401 Q1451.6 19.1851 1457.72 9.62495 L1464.2 9.62495 Z" fill="#000000" fill-rule="nonzero" fill-opacity="1" /><path clip-path="url(#clip640)" d="M1515.24 14.0809 L1515.24 22.0612 Q1510.58 19.8332 1506.45 18.7395 Q1502.32 17.6457 1498.47 17.6457 Q1491.78 17.6457 1488.14 20.2383 Q1484.53 22.8309 1484.53 27.611 Q1484.53 31.6214 1486.92 33.6873 Q1489.35 35.7128 1496.08 36.9686 L1501.02 37.9813 Q1510.18 39.7232 1514.51 44.1387 Q1518.89 48.5136 1518.89 55.8863 Q1518.89 64.6767 1512.97 69.2137 Q1507.1 73.7508 1495.71 73.7508 Q1491.42 73.7508 1486.56 72.7785 Q1481.74 71.8063 1476.55 69.9024 L1476.55 61.4765 Q1481.54 64.2716 1486.32 65.6895 Q1491.1 67.1073 1495.71 67.1073 Q1502.72 67.1073 1506.53 64.3527 Q1510.34 61.598 1510.34 56.4939 Q1510.34 52.0379 1507.58 49.5264 Q1504.87 47.0148 1498.63 45.759 L1493.65 44.7868 Q1484.49 42.9639 1480.4 39.075 Q1476.31 35.1862 1476.31 28.2591 Q1476.31 20.2383 1481.94 15.6203 Q1487.61 11.0023 1497.54 11.0023 Q1501.79 11.0023 1506.21 11.7719 Q1510.62 12.5416 1515.24 14.0809 Z" fill="#000000" fill-rule="nonzero" fill-opacity="1" /><path clip-path="url(#clip640)" d="M1563.97 28.9478 L1563.97 35.9153 Q1560.81 34.1734 1557.61 33.3227 Q1554.45 32.4315 1551.21 32.4315 Q1543.96 32.4315 1539.95 37.0496 Q1535.94 41.6271 1535.94 49.9314 Q1535.94 58.2358 1539.95 62.8538 Q1543.96 67.4314 1551.21 67.4314 Q1554.45 67.4314 1557.61 66.5807 Q1560.81 65.6895 1563.97 63.9476 L1563.97 70.8341 Q1560.85 72.2924 1557.49 73.0216 Q1554.17 73.7508 1550.4 73.7508 Q1540.15 73.7508 1534.12 67.3098 Q1528.08 60.8689 1528.08 49.9314 Q1528.08 38.832 1534.16 32.472 Q1540.27 26.1121 1550.89 26.1121 Q1554.33 26.1121 1557.61 26.8413 Q1560.89 27.5299 1563.97 28.9478 Z" fill="#000000" fill-rule="nonzero" fill-opacity="1" /><path clip-path="url(#clip640)" d="M1576.93 27.2059 L1584.39 27.2059 L1584.39 72.576 L1576.93 72.576 L1576.93 27.2059 M1576.93 9.54393 L1584.39 9.54393 L1584.39 18.9825 L1576.93 18.9825 L1576.93 9.54393 Z" fill="#000000" fill-rule="nonzero" fill-opacity="1" /><path clip-path="url(#clip640)" d="M1637.7 45.1919 L1637.7 72.576 L1630.24 72.576 L1630.24 45.4349 Q1630.24 38.994 1627.73 35.7938 Q1625.22 32.5936 1620.2 32.5936 Q1614.16 32.5936 1610.68 36.4419 Q1607.19 40.2903 1607.19 46.9338 L1607.19 72.576 L1599.7 72.576 L1599.7 27.2059 L1607.19 27.2059 L1607.19 34.2544 Q1609.87 30.163 1613.47 28.1376 Q1617.12 26.1121 1621.86 26.1121 Q1629.68 26.1121 1633.69 30.9732 Q1637.7 35.7938 1637.7 45.1919 Z" fill="#000000" fill-rule="nonzero" fill-opacity="1" /><path clip-path="url(#clip640)" d="M1673.18 49.7694 Q1664.15 49.7694 1660.67 51.8354 Q1657.18 53.9013 1657.18 58.8839 Q1657.18 62.8538 1659.78 65.2034 Q1662.41 67.5124 1666.91 67.5124 Q1673.1 67.5124 1676.83 63.1374 Q1680.6 58.7219 1680.6 51.4303 L1680.6 49.7694 L1673.18 49.7694 M1688.05 46.6907 L1688.05 72.576 L1680.6 72.576 L1680.6 65.6895 Q1678.05 69.8214 1674.24 71.8063 Q1670.43 73.7508 1664.92 73.7508 Q1657.95 73.7508 1653.82 69.8619 Q1649.73 65.9325 1649.73 59.3701 Q1649.73 51.7138 1654.83 47.825 Q1659.98 43.9361 1670.15 43.9361 L1680.6 43.9361 L1680.6 43.2069 Q1680.6 38.0623 1677.19 35.2672 Q1673.83 32.4315 1667.72 32.4315 Q1663.83 32.4315 1660.14 33.3632 Q1656.45 34.295 1653.05 36.1584 L1653.05 29.2718 Q1657.14 27.692 1660.99 26.9223 Q1664.84 26.1121 1668.48 26.1121 Q1678.33 26.1121 1683.19 31.2163 Q1688.05 36.3204 1688.05 46.6907 Z" fill="#000000" fill-rule="nonzero" fill-opacity="1" /><path clip-path="url(#clip640)" d="M1729.69 34.1734 Q1728.44 33.4443 1726.94 33.1202 Q1725.48 32.7556 1723.7 32.7556 Q1717.38 32.7556 1713.98 36.8875 Q1710.61 40.9789 1710.61 48.6757 L1710.61 72.576 L1703.12 72.576 L1703.12 27.2059 L1710.61 27.2059 L1710.61 34.2544 Q1712.96 30.1225 1716.73 28.1376 Q1720.5 26.1121 1725.89 26.1121 Q1726.66 26.1121 1727.59 26.2337 Q1728.52 26.3147 1729.65 26.5172 L1729.69 34.1734 Z" fill="#000000" fill-rule="nonzero" fill-opacity="1" /><path clip-path="url(#clip640)" d="M1737.51 27.2059 L1744.97 27.2059 L1744.97 72.576 L1737.51 72.576 L1737.51 27.2059 M1737.51 9.54393 L1744.97 9.54393 L1744.97 18.9825 L1737.51 18.9825 L1737.51 9.54393 Z" fill="#000000" fill-rule="nonzero" fill-opacity="1" /><path clip-path="url(#clip640)" d="M1778.14 32.4315 Q1772.15 32.4315 1768.66 37.1306 Q1765.18 41.7891 1765.18 49.9314 Q1765.18 58.0738 1768.62 62.7728 Q1772.11 67.4314 1778.14 67.4314 Q1784.1 67.4314 1787.58 62.7323 Q1791.07 58.0333 1791.07 49.9314 Q1791.07 41.8701 1787.58 37.1711 Q1784.1 32.4315 1778.14 32.4315 M1778.14 26.1121 Q1787.87 26.1121 1793.41 32.4315 Q1798.96 38.7509 1798.96 49.9314 Q1798.96 61.0714 1793.41 67.4314 Q1787.87 73.7508 1778.14 73.7508 Q1768.38 73.7508 1762.83 67.4314 Q1757.32 61.0714 1757.32 49.9314 Q1757.32 38.7509 1762.83 32.4315 Q1768.38 26.1121 1778.14 26.1121 Z" fill="#000000" fill-rule="nonzero" fill-opacity="1" /><path clip-path="url(#clip640)" d="M1840.16 65.6895 L1853.53 65.6895 L1853.53 19.5497 L1838.99 22.4663 L1838.99 15.0127 L1853.45 12.096 L1861.63 12.096 L1861.63 65.6895 L1875 65.6895 L1875 72.576 L1840.16 72.576 L1840.16 65.6895 Z" fill="#000000" fill-rule="nonzero" fill-opacity="1" /><path clip-path="url(#clip640)" d="M1889.3 9.62495 L1895.78 9.62495 Q1901.86 19.1851 1904.86 28.3401 Q1907.89 37.4952 1907.89 46.5287 Q1907.89 55.6027 1904.86 64.7983 Q1901.86 73.9938 1895.78 83.5134 L1889.3 83.5134 Q1894.69 74.2369 1897.32 65.0818 Q1899.99 55.8863 1899.99 46.5287 Q1899.99 37.1711 1897.32 28.0566 Q1894.69 18.942 1889.3 9.62495 Z" fill="#000000" fill-rule="nonzero" fill-opacity="1" /><polyline clip-path="url(#clip642)" style="stroke:#009af9; stroke-linecap:round; stroke-linejoin:round; stroke-width:4; stroke-opacity:1; fill:none" points="295.211,1195.29 295.211,1159.06 382.064,1159.06 382.064,1047.99 468.917,1047.99 468.917,1007.19 555.77,1007.19 555.77,1080.06 642.623,1080.06 642.623,1053.83 729.476,1053.83 729.476,1039.85 816.329,1039.85 816.329,1085.4 903.181,1085.4 903.181,1024.16 990.034,1024.16 990.034,1074.01 1076.89,1074.01 1076.89,1036.68 1163.74,1036.68 1163.74,1039.06 1250.59,1039.06 1250.59,1105.32 1337.45,1105.32 1337.45,1039.7 1424.3,1039.7 1424.3,1023.1 1511.15,1023.1 1511.15,1002.96 1598,1002.96 1598,976.713 1684.86,976.713 1684.86,1065.68 1771.71,1065.68 1771.71,1063.63 1858.56,1063.63 1858.56,987.867 1945.42,987.867 1945.42,1026.46 2032.27,1026.46 2032.27,1068.33 2119.12,1068.33 2119.12,1086.29 2205.97,1086.29 2205.97,1021.21 2292.83,1021.21 "/>
<polyline clip-path="url(#clip642)" style="stroke:#e26f46; stroke-linecap:round; stroke-linejoin:round; stroke-width:4; stroke-opacity:1; fill:none" points="295.211,1279.41 295.211,1066.75 382.064,1066.75 382.064,918.753 468.917,918.753 468.917,864.359 555.77,864.359 555.77,961.497 642.623,961.497 642.623,926.537 729.476,926.537 729.476,907.906 816.329,907.906 816.329,968.624 903.181,968.624 903.181,886.988 990.034,886.988 990.034,953.436 1076.89,953.436 1076.89,903.673 1163.74,903.673 1163.74,906.854 1250.59,906.854 1250.59,995.159 1337.45,995.159 1337.45,907.707 1424.3,907.707 1424.3,885.576 1511.15,885.576 1511.15,858.723 1598,858.723 1598,823.715 1684.86,823.715 1684.86,942.335 1771.71,942.335 1771.71,939.597 1858.56,939.597 1858.56,838.591 1945.42,838.591 1945.42,890.047 2032.27,890.047 2032.27,945.864 2119.12,945.864 2119.12,969.801 2205.97,969.801 2205.97,883.047 2292.83,883.047 "/>
<polyline clip-path="url(#clip642)" style="stroke:#3da44d; stroke-linecap:round; stroke-linejoin:round; stroke-width:4; stroke-opacity:1; fill:none" points="295.211,1320.47 295.211,916.806 382.064,916.806 382.064,721.601 468.917,721.601 468.917,650.087 555.77,650.087 555.77,777.874 642.623,777.874 642.623,731.842 729.476,731.842 729.476,707.331 816.329,707.331 816.329,787.265 903.181,787.265 903.181,679.826 990.034,679.826 990.034,767.255 1076.89,767.255 1076.89,701.763 1163.74,701.763 1163.74,705.947 1250.59,705.947 1250.59,822.245 1337.45,822.245 1337.45,707.07 1424.3,707.07 1424.3,677.969 1511.15,677.969 1511.15,642.682 1598,642.682 1598,596.714 1684.86,596.714 1684.86,752.638 1771.71,752.638 1771.71,749.033 1858.56,749.033 1858.56,616.242 1945.42,616.242 1945.42,683.847 2032.27,683.847 2032.27,757.284 2119.12,757.284 2119.12,788.816 2205.97,788.816 2205.97,674.646 2292.83,674.646 "/>
<polyline clip-path="url(#clip642)" style="stroke:#c271d2; stroke-linecap:round; stroke-linejoin:round; stroke-width:4; stroke-opacity:1; fill:none" points="295.211,1276.96 295.211,867.074 382.064,867.074 382.064,645.367 468.917,645.367 468.917,563.816 555.77,563.816 555.77,709.428 642.623,709.428 642.623,657.034 729.476,657.034 729.476,629.106 816.329,629.106 816.329,720.108 903.181,720.108 903.181,597.747 990.034,597.747 990.034,697.348 1076.89,697.348 1076.89,622.76 1163.74,622.76 1163.74,627.529 1250.59,627.529 1250.59,759.862 1337.45,759.862 1337.45,628.808 1424.3,628.808 1424.3,595.629 1511.15,595.629 1511.15,555.364 1598,555.364 1598,502.862 1684.86,502.862 1684.86,680.713 1771.71,680.713 1771.71,676.609 1858.56,676.609 1858.56,525.172 1945.42,525.172 1945.42,602.333 2032.27,602.333 2032.27,686 2119.12,686 2119.12,721.871 2205.97,721.871 2205.97,591.838 2292.83,591.838 "/>
<polyline clip-path="url(#clip642)" style="stroke:#ac8d18; stroke-linecap:round; stroke-linejoin:round; stroke-width:4; stroke-opacity:1; fill:none" points="295.211,1386.4 295.211,601.94 382.064,601.94 382.064,331.2 468.917,331.2 468.917,233.135 555.77,233.135 555.77,408.743 642.623,408.743 642.623,345.287 729.476,345.287 729.476,311.592 816.329,311.592 816.329,421.72 903.181,421.72 903.181,273.855 990.034,273.855 990.034,394.084 1076.89,394.084 1076.89,303.948 1163.74,303.948 1163.74,309.692 1250.59,309.692 1250.59,470.152 1337.45,470.152 1337.45,311.233 1424.3,311.233 1424.3,271.311 1511.15,271.311 1511.15,223.01 1598,223.01 1598,160.256 1684.86,160.256 1684.86,373.925 1771.71,373.925 1771.71,368.958 1858.56,368.958 1858.56,186.893 1945.42,186.893 1945.42,279.368 2032.27,279.368 2032.27,380.329 2119.12,380.329 2119.12,423.864 2205.97,423.864 2205.97,266.756 2292.83,266.756 "/>
<path clip-path="url(#clip640)" d="M1574.55 1379.86 L2282.17 1379.86 L2282.17 1068.82 L1574.55 1068.82  Z" fill="#ffffff" fill-rule="evenodd" fill-opacity="1"/>
<polyline clip-path="url(#clip640)" style="stroke:#000000; stroke-linecap:round; stroke-linejoin:round; stroke-width:4; stroke-opacity:1; fill:none" points="1574.55,1379.86 2282.17,1379.86 2282.17,1068.82 1574.55,1068.82 1574.55,1379.86 "/>
<polyline clip-path="url(#clip640)" style="stroke:#009af9; stroke-linecap:round; stroke-linejoin:round; stroke-width:4; stroke-opacity:1; fill:none" points="1598.08,1120.66 1739.24,1120.66 "/>
<path clip-path="url(#clip640)" d="M1783.28 1113.01 L1783.28 1116.99 Q1781.47 1115.99 1779.64 1115.51 Q1777.84 1115 1775.99 1115 Q1771.84 1115 1769.55 1117.64 Q1767.26 1120.25 1767.26 1125 Q1767.26 1129.74 1769.55 1132.38 Q1771.84 1135 1775.99 1135 Q1777.84 1135 1779.64 1134.51 Q1781.47 1134 1783.28 1133.01 L1783.28 1136.94 Q1781.5 1137.77 1779.57 1138.19 Q1777.68 1138.61 1775.52 1138.61 Q1769.67 1138.61 1766.22 1134.93 Q1762.77 1131.25 1762.77 1125 Q1762.77 1118.65 1766.24 1115.02 Q1769.74 1111.39 1775.8 1111.39 Q1777.77 1111.39 1779.64 1111.8 Q1781.52 1112.2 1783.28 1113.01 Z" fill="#000000" fill-rule="nonzero" fill-opacity="1" /><path clip-path="url(#clip640)" d="M1790.25 1127.7 L1790.25 1112.01 L1794.5 1112.01 L1794.5 1127.54 Q1794.5 1131.22 1795.94 1133.08 Q1797.38 1134.9 1800.25 1134.9 Q1803.69 1134.9 1805.69 1132.7 Q1807.7 1130.51 1807.7 1126.71 L1807.7 1112.01 L1811.96 1112.01 L1811.96 1137.94 L1807.7 1137.94 L1807.7 1133.95 Q1806.15 1136.32 1804.09 1137.47 Q1802.05 1138.61 1799.34 1138.61 Q1794.88 1138.61 1792.56 1135.83 Q1790.25 1133.05 1790.25 1127.7 M1800.96 1111.39 L1800.96 1111.39 Z" fill="#000000" fill-rule="nonzero" fill-opacity="1" /><path clip-path="url(#clip640)" d="M1837.26 1112.77 L1837.26 1116.8 Q1835.45 1115.88 1833.51 1115.41 Q1831.56 1114.95 1829.48 1114.95 Q1826.31 1114.95 1824.71 1115.92 Q1823.14 1116.89 1823.14 1118.84 Q1823.14 1120.32 1824.27 1121.18 Q1825.41 1122.01 1828.83 1122.77 L1830.29 1123.1 Q1834.83 1124.07 1836.73 1125.85 Q1838.65 1127.61 1838.65 1130.78 Q1838.65 1134.39 1835.78 1136.5 Q1832.93 1138.61 1827.93 1138.61 Q1825.85 1138.61 1823.58 1138.19 Q1821.33 1137.8 1818.83 1136.99 L1818.83 1132.59 Q1821.19 1133.82 1823.49 1134.44 Q1825.78 1135.04 1828.02 1135.04 Q1831.03 1135.04 1832.65 1134.02 Q1834.27 1132.98 1834.27 1131.11 Q1834.27 1129.37 1833.09 1128.45 Q1831.94 1127.52 1827.98 1126.66 L1826.5 1126.32 Q1822.54 1125.48 1820.78 1123.77 Q1819.02 1122.03 1819.02 1119.02 Q1819.02 1115.37 1821.61 1113.38 Q1824.2 1111.39 1828.97 1111.39 Q1831.33 1111.39 1833.42 1111.73 Q1835.5 1112.08 1837.26 1112.77 Z" fill="#000000" fill-rule="nonzero" fill-opacity="1" /><path clip-path="url(#clip640)" d="M1849.64 1104.65 L1849.64 1112.01 L1858.42 1112.01 L1858.42 1115.32 L1849.64 1115.32 L1849.64 1129.39 Q1849.64 1132.57 1850.5 1133.47 Q1851.38 1134.37 1854.04 1134.37 L1858.42 1134.37 L1858.42 1137.94 L1854.04 1137.94 Q1849.11 1137.94 1847.24 1136.11 Q1845.36 1134.26 1845.36 1129.39 L1845.36 1115.32 L1842.24 1115.32 L1842.24 1112.01 L1845.36 1112.01 L1845.36 1104.65 L1849.64 1104.65 Z" fill="#000000" fill-rule="nonzero" fill-opacity="1" /><path clip-path="url(#clip640)" d="M1874.06 1115 Q1870.64 1115 1868.65 1117.68 Q1866.66 1120.34 1866.66 1125 Q1866.66 1129.65 1868.62 1132.33 Q1870.62 1135 1874.06 1135 Q1877.47 1135 1879.46 1132.31 Q1881.45 1129.63 1881.45 1125 Q1881.45 1120.39 1879.46 1117.7 Q1877.47 1115 1874.06 1115 M1874.06 1111.39 Q1879.62 1111.39 1882.79 1115 Q1885.96 1118.61 1885.96 1125 Q1885.96 1131.36 1882.79 1135 Q1879.62 1138.61 1874.06 1138.61 Q1868.49 1138.61 1865.31 1135 Q1862.17 1131.36 1862.17 1125 Q1862.17 1118.61 1865.31 1115 Q1868.49 1111.39 1874.06 1111.39 Z" fill="#000000" fill-rule="nonzero" fill-opacity="1" /><path clip-path="url(#clip640)" d="M1913.21 1116.99 Q1914.81 1114.12 1917.03 1112.75 Q1919.25 1111.39 1922.26 1111.39 Q1926.31 1111.39 1928.51 1114.23 Q1930.71 1117.06 1930.71 1122.29 L1930.71 1137.94 L1926.43 1137.94 L1926.43 1122.43 Q1926.43 1118.7 1925.11 1116.89 Q1923.79 1115.09 1921.08 1115.09 Q1917.77 1115.09 1915.85 1117.29 Q1913.93 1119.49 1913.93 1123.28 L1913.93 1137.94 L1909.64 1137.94 L1909.64 1122.43 Q1909.64 1118.68 1908.32 1116.89 Q1907 1115.09 1904.25 1115.09 Q1900.99 1115.09 1899.06 1117.31 Q1897.14 1119.51 1897.14 1123.28 L1897.14 1137.94 L1892.86 1137.94 L1892.86 1112.01 L1897.14 1112.01 L1897.14 1116.04 Q1898.6 1113.65 1900.64 1112.52 Q1902.68 1111.39 1905.48 1111.39 Q1908.3 1111.39 1910.27 1112.82 Q1912.26 1114.26 1913.21 1116.99 Z" fill="#000000" fill-rule="nonzero" fill-opacity="1" /><path clip-path="url(#clip640)" d="M1961.38 1123.91 L1961.38 1125.99 L1941.8 1125.99 Q1942.07 1130.39 1944.43 1132.7 Q1946.82 1135 1951.06 1135 Q1953.51 1135 1955.8 1134.39 Q1958.12 1133.79 1960.38 1132.59 L1960.38 1136.62 Q1958.09 1137.59 1955.68 1138.1 Q1953.28 1138.61 1950.8 1138.61 Q1944.6 1138.61 1940.96 1135 Q1937.35 1131.39 1937.35 1125.23 Q1937.35 1118.86 1940.78 1115.14 Q1944.23 1111.39 1950.06 1111.39 Q1955.29 1111.39 1958.32 1114.77 Q1961.38 1118.12 1961.38 1123.91 M1957.12 1122.66 Q1957.07 1119.16 1955.15 1117.08 Q1953.25 1115 1950.11 1115 Q1946.54 1115 1944.39 1117.01 Q1942.26 1119.02 1941.93 1122.68 L1957.12 1122.66 Z" fill="#000000" fill-rule="nonzero" fill-opacity="1" /><path clip-path="url(#clip640)" d="M1983.39 1115.99 Q1982.68 1115.58 1981.82 1115.39 Q1980.99 1115.18 1979.97 1115.18 Q1976.36 1115.18 1974.41 1117.54 Q1972.49 1119.88 1972.49 1124.28 L1972.49 1137.94 L1968.21 1137.94 L1968.21 1112.01 L1972.49 1112.01 L1972.49 1116.04 Q1973.83 1113.68 1975.99 1112.54 Q1978.14 1111.39 1981.22 1111.39 Q1981.66 1111.39 1982.19 1111.45 Q1982.72 1111.5 1983.37 1111.62 L1983.39 1115.99 Z" fill="#000000" fill-rule="nonzero" fill-opacity="1" /><path clip-path="url(#clip640)" d="M2004.34 1134 L2011.98 1134 L2011.98 1107.64 L2003.67 1109.3 L2003.67 1105.04 L2011.93 1103.38 L2016.61 1103.38 L2016.61 1134 L2024.25 1134 L2024.25 1137.94 L2004.34 1137.94 L2004.34 1134 Z" fill="#000000" fill-rule="nonzero" fill-opacity="1" /><path clip-path="url(#clip640)" d="M2048.16 1112.01 L2052.42 1112.01 L2052.42 1137.94 L2048.16 1137.94 L2048.16 1112.01 M2048.16 1101.92 L2052.42 1101.92 L2052.42 1107.31 L2048.16 1107.31 L2048.16 1101.92 Z" fill="#000000" fill-rule="nonzero" fill-opacity="1" /><path clip-path="url(#clip640)" d="M2082.88 1122.29 L2082.88 1137.94 L2078.62 1137.94 L2078.62 1122.43 Q2078.62 1118.75 2077.19 1116.92 Q2075.75 1115.09 2072.88 1115.09 Q2069.43 1115.09 2067.44 1117.29 Q2065.45 1119.49 2065.45 1123.28 L2065.45 1137.94 L2061.17 1137.94 L2061.17 1112.01 L2065.45 1112.01 L2065.45 1116.04 Q2066.98 1113.7 2069.04 1112.54 Q2071.12 1111.39 2073.83 1111.39 Q2078.3 1111.39 2080.59 1114.16 Q2082.88 1116.92 2082.88 1122.29 Z" fill="#000000" fill-rule="nonzero" fill-opacity="1" /><path clip-path="url(#clip640)" d="M2110.04 1113.01 L2110.04 1116.99 Q2108.23 1115.99 2106.4 1115.51 Q2104.6 1115 2102.74 1115 Q2098.6 1115 2096.31 1117.64 Q2094.02 1120.25 2094.02 1125 Q2094.02 1129.74 2096.31 1132.38 Q2098.6 1135 2102.74 1135 Q2104.6 1135 2106.4 1134.51 Q2108.23 1134 2110.04 1133.01 L2110.04 1136.94 Q2108.25 1137.77 2106.33 1138.19 Q2104.43 1138.61 2102.28 1138.61 Q2096.42 1138.61 2092.98 1134.93 Q2089.53 1131.25 2089.53 1125 Q2089.53 1118.65 2093 1115.02 Q2096.49 1111.39 2102.56 1111.39 Q2104.53 1111.39 2106.4 1111.8 Q2108.28 1112.2 2110.04 1113.01 Z" fill="#000000" fill-rule="nonzero" fill-opacity="1" /><path clip-path="url(#clip640)" d="M2139.62 1123.91 L2139.62 1125.99 L2120.04 1125.99 Q2120.31 1130.39 2122.67 1132.7 Q2125.06 1135 2129.29 1135 Q2131.75 1135 2134.04 1134.39 Q2136.35 1133.79 2138.62 1132.59 L2138.62 1136.62 Q2136.33 1137.59 2133.92 1138.1 Q2131.52 1138.61 2129.04 1138.61 Q2122.84 1138.61 2119.2 1135 Q2115.59 1131.39 2115.59 1125.23 Q2115.59 1118.86 2119.02 1115.14 Q2122.47 1111.39 2128.3 1111.39 Q2133.53 1111.39 2136.56 1114.77 Q2139.62 1118.12 2139.62 1123.91 M2135.36 1122.66 Q2135.31 1119.16 2133.39 1117.08 Q2131.49 1115 2128.35 1115 Q2124.78 1115 2122.63 1117.01 Q2120.5 1119.02 2120.17 1122.68 L2135.36 1122.66 Z" fill="#000000" fill-rule="nonzero" fill-opacity="1" /><path clip-path="url(#clip640)" d="M2168.16 1122.29 L2168.16 1137.94 L2163.9 1137.94 L2163.9 1122.43 Q2163.9 1118.75 2162.47 1116.92 Q2161.03 1115.09 2158.16 1115.09 Q2154.71 1115.09 2152.72 1117.29 Q2150.73 1119.49 2150.73 1123.28 L2150.73 1137.94 L2146.45 1137.94 L2146.45 1112.01 L2150.73 1112.01 L2150.73 1116.04 Q2152.26 1113.7 2154.32 1112.54 Q2156.4 1111.39 2159.11 1111.39 Q2163.58 1111.39 2165.87 1114.16 Q2168.16 1116.92 2168.16 1122.29 Z" fill="#000000" fill-rule="nonzero" fill-opacity="1" /><path clip-path="url(#clip640)" d="M2180.87 1104.65 L2180.87 1112.01 L2189.64 1112.01 L2189.64 1115.32 L2180.87 1115.32 L2180.87 1129.39 Q2180.87 1132.57 2181.73 1133.47 Q2182.6 1134.37 2185.27 1134.37 L2189.64 1134.37 L2189.64 1137.94 L2185.27 1137.94 Q2180.34 1137.94 2178.46 1136.11 Q2176.59 1134.26 2176.59 1129.39 L2176.59 1115.32 L2173.46 1115.32 L2173.46 1112.01 L2176.59 1112.01 L2176.59 1104.65 L2180.87 1104.65 Z" fill="#000000" fill-rule="nonzero" fill-opacity="1" /><path clip-path="url(#clip640)" d="M2195.24 1112.01 L2199.5 1112.01 L2199.5 1137.94 L2195.24 1137.94 L2195.24 1112.01 M2195.24 1101.92 L2199.5 1101.92 L2199.5 1107.31 L2195.24 1107.31 L2195.24 1101.92 Z" fill="#000000" fill-rule="nonzero" fill-opacity="1" /><path clip-path="url(#clip640)" d="M2205.36 1112.01 L2209.87 1112.01 L2217.97 1133.77 L2226.08 1112.01 L2230.59 1112.01 L2220.87 1137.94 L2215.08 1137.94 L2205.36 1112.01 Z" fill="#000000" fill-rule="nonzero" fill-opacity="1" /><path clip-path="url(#clip640)" d="M2258.65 1123.91 L2258.65 1125.99 L2239.06 1125.99 Q2239.34 1130.39 2241.7 1132.7 Q2244.09 1135 2248.32 1135 Q2250.78 1135 2253.07 1134.39 Q2255.38 1133.79 2257.65 1132.59 L2257.65 1136.62 Q2255.36 1137.59 2252.95 1138.1 Q2250.54 1138.61 2248.07 1138.61 Q2241.86 1138.61 2238.23 1135 Q2234.62 1131.39 2234.62 1125.23 Q2234.62 1118.86 2238.04 1115.14 Q2241.49 1111.39 2247.33 1111.39 Q2252.56 1111.39 2255.59 1114.77 Q2258.65 1118.12 2258.65 1123.91 M2254.39 1122.66 Q2254.34 1119.16 2252.42 1117.08 Q2250.52 1115 2247.37 1115 Q2243.81 1115 2241.66 1117.01 Q2239.53 1119.02 2239.2 1122.68 L2254.39 1122.66 Z" fill="#000000" fill-rule="nonzero" fill-opacity="1" /><polyline clip-path="url(#clip640)" style="stroke:#e26f46; stroke-linecap:round; stroke-linejoin:round; stroke-width:4; stroke-opacity:1; fill:none" points="1598.08,1172.5 1739.24,1172.5 "/>
<path clip-path="url(#clip640)" d="M1783.28 1164.85 L1783.28 1168.83 Q1781.47 1167.83 1779.64 1167.35 Q1777.84 1166.84 1775.99 1166.84 Q1771.84 1166.84 1769.55 1169.48 Q1767.26 1172.09 1767.26 1176.84 Q1767.26 1181.58 1769.55 1184.22 Q1771.84 1186.84 1775.99 1186.84 Q1777.84 1186.84 1779.64 1186.35 Q1781.47 1185.84 1783.28 1184.85 L1783.28 1188.78 Q1781.5 1189.61 1779.57 1190.03 Q1777.68 1190.45 1775.52 1190.45 Q1769.67 1190.45 1766.22 1186.77 Q1762.77 1183.09 1762.77 1176.84 Q1762.77 1170.49 1766.24 1166.86 Q1769.74 1163.23 1775.8 1163.23 Q1777.77 1163.23 1779.64 1163.64 Q1781.52 1164.04 1783.28 1164.85 Z" fill="#000000" fill-rule="nonzero" fill-opacity="1" /><path clip-path="url(#clip640)" d="M1790.25 1179.54 L1790.25 1163.85 L1794.5 1163.85 L1794.5 1179.38 Q1794.5 1183.06 1795.94 1184.92 Q1797.38 1186.74 1800.25 1186.74 Q1803.69 1186.74 1805.69 1184.54 Q1807.7 1182.35 1807.7 1178.55 L1807.7 1163.85 L1811.96 1163.85 L1811.96 1189.78 L1807.7 1189.78 L1807.7 1185.79 Q1806.15 1188.16 1804.09 1189.31 Q1802.05 1190.45 1799.34 1190.45 Q1794.88 1190.45 1792.56 1187.67 Q1790.25 1184.89 1790.25 1179.54 M1800.96 1163.23 L1800.96 1163.23 Z" fill="#000000" fill-rule="nonzero" fill-opacity="1" /><path clip-path="url(#clip640)" d="M1837.26 1164.61 L1837.26 1168.64 Q1835.45 1167.72 1833.51 1167.25 Q1831.56 1166.79 1829.48 1166.79 Q1826.31 1166.79 1824.71 1167.76 Q1823.14 1168.73 1823.14 1170.68 Q1823.14 1172.16 1824.27 1173.02 Q1825.41 1173.85 1828.83 1174.61 L1830.29 1174.94 Q1834.83 1175.91 1836.73 1177.69 Q1838.65 1179.45 1838.65 1182.62 Q1838.65 1186.23 1835.78 1188.34 Q1832.93 1190.45 1827.93 1190.45 Q1825.85 1190.45 1823.58 1190.03 Q1821.33 1189.64 1818.83 1188.83 L1818.83 1184.43 Q1821.19 1185.66 1823.49 1186.28 Q1825.78 1186.88 1828.02 1186.88 Q1831.03 1186.88 1832.65 1185.86 Q1834.27 1184.82 1834.27 1182.95 Q1834.27 1181.21 1833.09 1180.29 Q1831.94 1179.36 1827.98 1178.5 L1826.5 1178.16 Q1822.54 1177.32 1820.78 1175.61 Q1819.02 1173.87 1819.02 1170.86 Q1819.02 1167.21 1821.61 1165.22 Q1824.2 1163.23 1828.97 1163.23 Q1831.33 1163.23 1833.42 1163.57 Q1835.5 1163.92 1837.26 1164.61 Z" fill="#000000" fill-rule="nonzero" fill-opacity="1" /><path clip-path="url(#clip640)" d="M1849.64 1156.49 L1849.64 1163.85 L1858.42 1163.85 L1858.42 1167.16 L1849.64 1167.16 L1849.64 1181.23 Q1849.64 1184.41 1850.5 1185.31 Q1851.38 1186.21 1854.04 1186.21 L1858.42 1186.21 L1858.42 1189.78 L1854.04 1189.78 Q1849.11 1189.78 1847.24 1187.95 Q1845.36 1186.1 1845.36 1181.23 L1845.36 1167.16 L1842.24 1167.16 L1842.24 1163.85 L1845.36 1163.85 L1845.36 1156.49 L1849.64 1156.49 Z" fill="#000000" fill-rule="nonzero" fill-opacity="1" /><path clip-path="url(#clip640)" d="M1874.06 1166.84 Q1870.64 1166.84 1868.65 1169.52 Q1866.66 1172.18 1866.66 1176.84 Q1866.66 1181.49 1868.62 1184.17 Q1870.62 1186.84 1874.06 1186.84 Q1877.47 1186.84 1879.46 1184.15 Q1881.45 1181.47 1881.45 1176.84 Q1881.45 1172.23 1879.46 1169.54 Q1877.47 1166.84 1874.06 1166.84 M1874.06 1163.23 Q1879.62 1163.23 1882.79 1166.84 Q1885.96 1170.45 1885.96 1176.84 Q1885.96 1183.2 1882.79 1186.84 Q1879.62 1190.45 1874.06 1190.45 Q1868.49 1190.45 1865.31 1186.84 Q1862.17 1183.2 1862.17 1176.84 Q1862.17 1170.45 1865.31 1166.84 Q1868.49 1163.23 1874.06 1163.23 Z" fill="#000000" fill-rule="nonzero" fill-opacity="1" /><path clip-path="url(#clip640)" d="M1913.21 1168.83 Q1914.81 1165.96 1917.03 1164.59 Q1919.25 1163.23 1922.26 1163.23 Q1926.31 1163.23 1928.51 1166.07 Q1930.71 1168.9 1930.71 1174.13 L1930.71 1189.78 L1926.43 1189.78 L1926.43 1174.27 Q1926.43 1170.54 1925.11 1168.73 Q1923.79 1166.93 1921.08 1166.93 Q1917.77 1166.93 1915.85 1169.13 Q1913.93 1171.33 1913.93 1175.12 L1913.93 1189.78 L1909.64 1189.78 L1909.64 1174.27 Q1909.64 1170.52 1908.32 1168.73 Q1907 1166.93 1904.25 1166.93 Q1900.99 1166.93 1899.06 1169.15 Q1897.14 1171.35 1897.14 1175.12 L1897.14 1189.78 L1892.86 1189.78 L1892.86 1163.85 L1897.14 1163.85 L1897.14 1167.88 Q1898.6 1165.49 1900.64 1164.36 Q1902.68 1163.23 1905.48 1163.23 Q1908.3 1163.23 1910.27 1164.66 Q1912.26 1166.1 1913.21 1168.83 Z" fill="#000000" fill-rule="nonzero" fill-opacity="1" /><path clip-path="url(#clip640)" d="M1961.38 1175.75 L1961.38 1177.83 L1941.8 1177.83 Q1942.07 1182.23 1944.43 1184.54 Q1946.82 1186.84 1951.06 1186.84 Q1953.51 1186.84 1955.8 1186.23 Q1958.12 1185.63 1960.38 1184.43 L1960.38 1188.46 Q1958.09 1189.43 1955.68 1189.94 Q1953.28 1190.45 1950.8 1190.45 Q1944.6 1190.45 1940.96 1186.84 Q1937.35 1183.23 1937.35 1177.07 Q1937.35 1170.7 1940.78 1166.98 Q1944.23 1163.23 1950.06 1163.23 Q1955.29 1163.23 1958.32 1166.61 Q1961.38 1169.96 1961.38 1175.75 M1957.12 1174.5 Q1957.07 1171 1955.15 1168.92 Q1953.25 1166.84 1950.11 1166.84 Q1946.54 1166.84 1944.39 1168.85 Q1942.26 1170.86 1941.93 1174.52 L1957.12 1174.5 Z" fill="#000000" fill-rule="nonzero" fill-opacity="1" /><path clip-path="url(#clip640)" d="M1983.39 1167.83 Q1982.68 1167.42 1981.82 1167.23 Q1980.99 1167.02 1979.97 1167.02 Q1976.36 1167.02 1974.41 1169.38 Q1972.49 1171.72 1972.49 1176.12 L1972.49 1189.78 L1968.21 1189.78 L1968.21 1163.85 L1972.49 1163.85 L1972.49 1167.88 Q1973.83 1165.52 1975.99 1164.38 Q1978.14 1163.23 1981.22 1163.23 Q1981.66 1163.23 1982.19 1163.29 Q1982.72 1163.34 1983.37 1163.46 L1983.39 1167.83 Z" fill="#000000" fill-rule="nonzero" fill-opacity="1" /><path clip-path="url(#clip640)" d="M2007.56 1185.84 L2023.88 1185.84 L2023.88 1189.78 L2001.93 1189.78 L2001.93 1185.84 Q2004.6 1183.09 2009.18 1178.46 Q2013.79 1173.8 2014.97 1172.46 Q2017.21 1169.94 2018.09 1168.2 Q2018.99 1166.44 2018.99 1164.75 Q2018.99 1162 2017.05 1160.26 Q2015.13 1158.53 2012.03 1158.53 Q2009.83 1158.53 2007.37 1159.29 Q2004.94 1160.05 2002.17 1161.61 L2002.17 1156.88 Q2004.99 1155.75 2007.44 1155.17 Q2009.9 1154.59 2011.93 1154.59 Q2017.3 1154.59 2020.5 1157.28 Q2023.69 1159.96 2023.69 1164.45 Q2023.69 1166.58 2022.88 1168.5 Q2022.1 1170.4 2019.99 1172.99 Q2019.41 1173.67 2016.31 1176.88 Q2013.21 1180.08 2007.56 1185.84 Z" fill="#000000" fill-rule="nonzero" fill-opacity="1" /><path clip-path="url(#clip640)" d="M2048.16 1163.85 L2052.42 1163.85 L2052.42 1189.78 L2048.16 1189.78 L2048.16 1163.85 M2048.16 1153.76 L2052.42 1153.76 L2052.42 1159.15 L2048.16 1159.15 L2048.16 1153.76 Z" fill="#000000" fill-rule="nonzero" fill-opacity="1" /><path clip-path="url(#clip640)" d="M2082.88 1174.13 L2082.88 1189.78 L2078.62 1189.78 L2078.62 1174.27 Q2078.62 1170.59 2077.19 1168.76 Q2075.75 1166.93 2072.88 1166.93 Q2069.43 1166.93 2067.44 1169.13 Q2065.45 1171.33 2065.45 1175.12 L2065.45 1189.78 L2061.17 1189.78 L2061.17 1163.85 L2065.45 1163.85 L2065.45 1167.88 Q2066.98 1165.54 2069.04 1164.38 Q2071.12 1163.23 2073.83 1163.23 Q2078.3 1163.23 2080.59 1166 Q2082.88 1168.76 2082.88 1174.13 Z" fill="#000000" fill-rule="nonzero" fill-opacity="1" /><path clip-path="url(#clip640)" d="M2110.04 1164.85 L2110.04 1168.83 Q2108.23 1167.83 2106.4 1167.35 Q2104.6 1166.84 2102.74 1166.84 Q2098.6 1166.84 2096.31 1169.48 Q2094.02 1172.09 2094.02 1176.84 Q2094.02 1181.58 2096.31 1184.22 Q2098.6 1186.84 2102.74 1186.84 Q2104.6 1186.84 2106.4 1186.35 Q2108.23 1185.84 2110.04 1184.85 L2110.04 1188.78 Q2108.25 1189.61 2106.33 1190.03 Q2104.43 1190.45 2102.28 1190.45 Q2096.42 1190.45 2092.98 1186.77 Q2089.53 1183.09 2089.53 1176.84 Q2089.53 1170.49 2093 1166.86 Q2096.49 1163.23 2102.56 1163.23 Q2104.53 1163.23 2106.4 1163.64 Q2108.28 1164.04 2110.04 1164.85 Z" fill="#000000" fill-rule="nonzero" fill-opacity="1" /><path clip-path="url(#clip640)" d="M2139.62 1175.75 L2139.62 1177.83 L2120.04 1177.83 Q2120.31 1182.23 2122.67 1184.54 Q2125.06 1186.84 2129.29 1186.84 Q2131.75 1186.84 2134.04 1186.23 Q2136.35 1185.63 2138.62 1184.43 L2138.62 1188.46 Q2136.33 1189.43 2133.92 1189.94 Q2131.52 1190.45 2129.04 1190.45 Q2122.84 1190.45 2119.2 1186.84 Q2115.59 1183.23 2115.59 1177.07 Q2115.59 1170.7 2119.02 1166.98 Q2122.47 1163.23 2128.3 1163.23 Q2133.53 1163.23 2136.56 1166.61 Q2139.62 1169.96 2139.62 1175.75 M2135.36 1174.5 Q2135.31 1171 2133.39 1168.92 Q2131.49 1166.84 2128.35 1166.84 Q2124.78 1166.84 2122.63 1168.85 Q2120.5 1170.86 2120.17 1174.52 L2135.36 1174.5 Z" fill="#000000" fill-rule="nonzero" fill-opacity="1" /><path clip-path="url(#clip640)" d="M2168.16 1174.13 L2168.16 1189.78 L2163.9 1189.78 L2163.9 1174.27 Q2163.9 1170.59 2162.47 1168.76 Q2161.03 1166.93 2158.16 1166.93 Q2154.71 1166.93 2152.72 1169.13 Q2150.73 1171.33 2150.73 1175.12 L2150.73 1189.78 L2146.45 1189.78 L2146.45 1163.85 L2150.73 1163.85 L2150.73 1167.88 Q2152.26 1165.54 2154.32 1164.38 Q2156.4 1163.23 2159.11 1163.23 Q2163.58 1163.23 2165.87 1166 Q2168.16 1168.76 2168.16 1174.13 Z" fill="#000000" fill-rule="nonzero" fill-opacity="1" /><path clip-path="url(#clip640)" d="M2180.87 1156.49 L2180.87 1163.85 L2189.64 1163.85 L2189.64 1167.16 L2180.87 1167.16 L2180.87 1181.23 Q2180.87 1184.41 2181.73 1185.31 Q2182.6 1186.21 2185.27 1186.21 L2189.64 1186.21 L2189.64 1189.78 L2185.27 1189.78 Q2180.34 1189.78 2178.46 1187.95 Q2176.59 1186.1 2176.59 1181.23 L2176.59 1167.16 L2173.46 1167.16 L2173.46 1163.85 L2176.59 1163.85 L2176.59 1156.49 L2180.87 1156.49 Z" fill="#000000" fill-rule="nonzero" fill-opacity="1" /><path clip-path="url(#clip640)" d="M2195.24 1163.85 L2199.5 1163.85 L2199.5 1189.78 L2195.24 1189.78 L2195.24 1163.85 M2195.24 1153.76 L2199.5 1153.76 L2199.5 1159.15 L2195.24 1159.15 L2195.24 1153.76 Z" fill="#000000" fill-rule="nonzero" fill-opacity="1" /><path clip-path="url(#clip640)" d="M2205.36 1163.85 L2209.87 1163.85 L2217.97 1185.61 L2226.08 1163.85 L2230.59 1163.85 L2220.87 1189.78 L2215.08 1189.78 L2205.36 1163.85 Z" fill="#000000" fill-rule="nonzero" fill-opacity="1" /><path clip-path="url(#clip640)" d="M2258.65 1175.75 L2258.65 1177.83 L2239.06 1177.83 Q2239.34 1182.23 2241.7 1184.54 Q2244.09 1186.84 2248.32 1186.84 Q2250.78 1186.84 2253.07 1186.23 Q2255.38 1185.63 2257.65 1184.43 L2257.65 1188.46 Q2255.36 1189.43 2252.95 1189.94 Q2250.54 1190.45 2248.07 1190.45 Q2241.86 1190.45 2238.23 1186.84 Q2234.62 1183.23 2234.62 1177.07 Q2234.62 1170.7 2238.04 1166.98 Q2241.49 1163.23 2247.33 1163.23 Q2252.56 1163.23 2255.59 1166.61 Q2258.65 1169.96 2258.65 1175.75 M2254.39 1174.5 Q2254.34 1171 2252.42 1168.92 Q2250.52 1166.84 2247.37 1166.84 Q2243.81 1166.84 2241.66 1168.85 Q2239.53 1170.86 2239.2 1174.52 L2254.39 1174.5 Z" fill="#000000" fill-rule="nonzero" fill-opacity="1" /><polyline clip-path="url(#clip640)" style="stroke:#3da44d; stroke-linecap:round; stroke-linejoin:round; stroke-width:4; stroke-opacity:1; fill:none" points="1598.08,1224.34 1739.24,1224.34 "/>
<path clip-path="url(#clip640)" d="M1783.28 1216.69 L1783.28 1220.67 Q1781.47 1219.67 1779.64 1219.19 Q1777.84 1218.68 1775.99 1218.68 Q1771.84 1218.68 1769.55 1221.32 Q1767.26 1223.93 1767.26 1228.68 Q1767.26 1233.42 1769.55 1236.06 Q1771.84 1238.68 1775.99 1238.68 Q1777.84 1238.68 1779.64 1238.19 Q1781.47 1237.68 1783.28 1236.69 L1783.28 1240.62 Q1781.5 1241.45 1779.57 1241.87 Q1777.68 1242.29 1775.52 1242.29 Q1769.67 1242.29 1766.22 1238.61 Q1762.77 1234.93 1762.77 1228.68 Q1762.77 1222.33 1766.24 1218.7 Q1769.74 1215.07 1775.8 1215.07 Q1777.77 1215.07 1779.64 1215.48 Q1781.52 1215.88 1783.28 1216.69 Z" fill="#000000" fill-rule="nonzero" fill-opacity="1" /><path clip-path="url(#clip640)" d="M1790.25 1231.38 L1790.25 1215.69 L1794.5 1215.69 L1794.5 1231.22 Q1794.5 1234.9 1795.94 1236.76 Q1797.38 1238.58 1800.25 1238.58 Q1803.69 1238.58 1805.69 1236.38 Q1807.7 1234.19 1807.7 1230.39 L1807.7 1215.69 L1811.96 1215.69 L1811.96 1241.62 L1807.7 1241.62 L1807.7 1237.63 Q1806.15 1240 1804.09 1241.15 Q1802.05 1242.29 1799.34 1242.29 Q1794.88 1242.29 1792.56 1239.51 Q1790.25 1236.73 1790.25 1231.38 M1800.96 1215.07 L1800.96 1215.07 Z" fill="#000000" fill-rule="nonzero" fill-opacity="1" /><path clip-path="url(#clip640)" d="M1837.26 1216.45 L1837.26 1220.48 Q1835.45 1219.56 1833.51 1219.09 Q1831.56 1218.63 1829.48 1218.63 Q1826.31 1218.63 1824.71 1219.6 Q1823.14 1220.57 1823.14 1222.52 Q1823.14 1224 1824.27 1224.86 Q1825.41 1225.69 1828.83 1226.45 L1830.29 1226.78 Q1834.83 1227.75 1836.73 1229.53 Q1838.65 1231.29 1838.65 1234.46 Q1838.65 1238.07 1835.78 1240.18 Q1832.93 1242.29 1827.93 1242.29 Q1825.85 1242.29 1823.58 1241.87 Q1821.33 1241.48 1818.83 1240.67 L1818.83 1236.27 Q1821.19 1237.5 1823.49 1238.12 Q1825.78 1238.72 1828.02 1238.72 Q1831.03 1238.72 1832.65 1237.7 Q1834.27 1236.66 1834.27 1234.79 Q1834.27 1233.05 1833.09 1232.13 Q1831.94 1231.2 1827.98 1230.34 L1826.5 1230 Q1822.54 1229.16 1820.78 1227.45 Q1819.02 1225.71 1819.02 1222.7 Q1819.02 1219.05 1821.61 1217.06 Q1824.2 1215.07 1828.97 1215.07 Q1831.33 1215.07 1833.42 1215.41 Q1835.5 1215.76 1837.26 1216.45 Z" fill="#000000" fill-rule="nonzero" fill-opacity="1" /><path clip-path="url(#clip640)" d="M1849.64 1208.33 L1849.64 1215.69 L1858.42 1215.69 L1858.42 1219 L1849.64 1219 L1849.64 1233.07 Q1849.64 1236.25 1850.5 1237.15 Q1851.38 1238.05 1854.04 1238.05 L1858.42 1238.05 L1858.42 1241.62 L1854.04 1241.62 Q1849.11 1241.62 1847.24 1239.79 Q1845.36 1237.94 1845.36 1233.07 L1845.36 1219 L1842.24 1219 L1842.24 1215.69 L1845.36 1215.69 L1845.36 1208.33 L1849.64 1208.33 Z" fill="#000000" fill-rule="nonzero" fill-opacity="1" /><path clip-path="url(#clip640)" d="M1874.06 1218.68 Q1870.64 1218.68 1868.65 1221.36 Q1866.66 1224.02 1866.66 1228.68 Q1866.66 1233.33 1868.62 1236.01 Q1870.62 1238.68 1874.06 1238.68 Q1877.47 1238.68 1879.46 1235.99 Q1881.45 1233.31 1881.45 1228.68 Q1881.45 1224.07 1879.46 1221.38 Q1877.47 1218.68 1874.06 1218.68 M1874.06 1215.07 Q1879.62 1215.07 1882.79 1218.68 Q1885.96 1222.29 1885.96 1228.68 Q1885.96 1235.04 1882.79 1238.68 Q1879.62 1242.29 1874.06 1242.29 Q1868.49 1242.29 1865.31 1238.68 Q1862.17 1235.04 1862.17 1228.68 Q1862.17 1222.29 1865.31 1218.68 Q1868.49 1215.07 1874.06 1215.07 Z" fill="#000000" fill-rule="nonzero" fill-opacity="1" /><path clip-path="url(#clip640)" d="M1913.21 1220.67 Q1914.81 1217.8 1917.03 1216.43 Q1919.25 1215.07 1922.26 1215.07 Q1926.31 1215.07 1928.51 1217.91 Q1930.71 1220.74 1930.71 1225.97 L1930.71 1241.62 L1926.43 1241.62 L1926.43 1226.11 Q1926.43 1222.38 1925.11 1220.57 Q1923.79 1218.77 1921.08 1218.77 Q1917.77 1218.77 1915.85 1220.97 Q1913.93 1223.17 1913.93 1226.96 L1913.93 1241.62 L1909.64 1241.62 L1909.64 1226.11 Q1909.64 1222.36 1908.32 1220.57 Q1907 1218.77 1904.25 1218.77 Q1900.99 1218.77 1899.06 1220.99 Q1897.14 1223.19 1897.14 1226.96 L1897.14 1241.62 L1892.86 1241.62 L1892.86 1215.69 L1897.14 1215.69 L1897.14 1219.72 Q1898.6 1217.33 1900.64 1216.2 Q1902.68 1215.07 1905.48 1215.07 Q1908.3 1215.07 1910.27 1216.5 Q1912.26 1217.94 1913.21 1220.67 Z" fill="#000000" fill-rule="nonzero" fill-opacity="1" /><path clip-path="url(#clip640)" d="M1961.38 1227.59 L1961.38 1229.67 L1941.8 1229.67 Q1942.07 1234.07 1944.43 1236.38 Q1946.82 1238.68 1951.06 1238.68 Q1953.51 1238.68 1955.8 1238.07 Q1958.12 1237.47 1960.38 1236.27 L1960.38 1240.3 Q1958.09 1241.27 1955.68 1241.78 Q1953.28 1242.29 1950.8 1242.29 Q1944.6 1242.29 1940.96 1238.68 Q1937.35 1235.07 1937.35 1228.91 Q1937.35 1222.54 1940.78 1218.82 Q1944.23 1215.07 1950.06 1215.07 Q1955.29 1215.07 1958.32 1218.45 Q1961.38 1221.8 1961.38 1227.59 M1957.12 1226.34 Q1957.07 1222.84 1955.15 1220.76 Q1953.25 1218.68 1950.11 1218.68 Q1946.54 1218.68 1944.39 1220.69 Q1942.26 1222.7 1941.93 1226.36 L1957.12 1226.34 Z" fill="#000000" fill-rule="nonzero" fill-opacity="1" /><path clip-path="url(#clip640)" d="M1983.39 1219.67 Q1982.68 1219.26 1981.82 1219.07 Q1980.99 1218.86 1979.97 1218.86 Q1976.36 1218.86 1974.41 1221.22 Q1972.49 1223.56 1972.49 1227.96 L1972.49 1241.62 L1968.21 1241.62 L1968.21 1215.69 L1972.49 1215.69 L1972.49 1219.72 Q1973.83 1217.36 1975.99 1216.22 Q1978.14 1215.07 1981.22 1215.07 Q1981.66 1215.07 1982.19 1215.13 Q1982.72 1215.18 1983.37 1215.3 L1983.39 1219.67 Z" fill="#000000" fill-rule="nonzero" fill-opacity="1" /><path clip-path="url(#clip640)" d="M2017.7 1222.98 Q2021.05 1223.7 2022.93 1225.97 Q2024.83 1228.24 2024.83 1231.57 Q2024.83 1236.69 2021.31 1239.49 Q2017.79 1242.29 2011.31 1242.29 Q2009.13 1242.29 2006.82 1241.85 Q2004.53 1241.43 2002.07 1240.57 L2002.07 1236.06 Q2004.02 1237.19 2006.33 1237.77 Q2008.65 1238.35 2011.17 1238.35 Q2015.57 1238.35 2017.86 1236.62 Q2020.18 1234.88 2020.18 1231.57 Q2020.18 1228.51 2018.02 1226.8 Q2015.89 1225.07 2012.07 1225.07 L2008.05 1225.07 L2008.05 1221.22 L2012.26 1221.22 Q2015.71 1221.22 2017.54 1219.86 Q2019.36 1218.47 2019.36 1215.88 Q2019.36 1213.21 2017.47 1211.8 Q2015.59 1210.37 2012.07 1210.37 Q2010.15 1210.37 2007.95 1210.78 Q2005.75 1211.2 2003.11 1212.08 L2003.11 1207.91 Q2005.78 1207.17 2008.09 1206.8 Q2010.43 1206.43 2012.49 1206.43 Q2017.81 1206.43 2020.92 1208.86 Q2024.02 1211.27 2024.02 1215.39 Q2024.02 1218.26 2022.37 1220.25 Q2020.73 1222.22 2017.7 1222.98 Z" fill="#000000" fill-rule="nonzero" fill-opacity="1" /><path clip-path="url(#clip640)" d="M2048.16 1215.69 L2052.42 1215.69 L2052.42 1241.62 L2048.16 1241.62 L2048.16 1215.69 M2048.16 1205.6 L2052.42 1205.6 L2052.42 1210.99 L2048.16 1210.99 L2048.16 1205.6 Z" fill="#000000" fill-rule="nonzero" fill-opacity="1" /><path clip-path="url(#clip640)" d="M2082.88 1225.97 L2082.88 1241.62 L2078.62 1241.62 L2078.62 1226.11 Q2078.62 1222.43 2077.19 1220.6 Q2075.75 1218.77 2072.88 1218.77 Q2069.43 1218.77 2067.44 1220.97 Q2065.45 1223.17 2065.45 1226.96 L2065.45 1241.62 L2061.17 1241.62 L2061.17 1215.69 L2065.45 1215.69 L2065.45 1219.72 Q2066.98 1217.38 2069.04 1216.22 Q2071.12 1215.07 2073.83 1215.07 Q2078.3 1215.07 2080.59 1217.84 Q2082.88 1220.6 2082.88 1225.97 Z" fill="#000000" fill-rule="nonzero" fill-opacity="1" /><path clip-path="url(#clip640)" d="M2110.04 1216.69 L2110.04 1220.67 Q2108.23 1219.67 2106.4 1219.19 Q2104.6 1218.68 2102.74 1218.68 Q2098.6 1218.68 2096.31 1221.32 Q2094.02 1223.93 2094.02 1228.68 Q2094.02 1233.42 2096.31 1236.06 Q2098.6 1238.68 2102.74 1238.68 Q2104.6 1238.68 2106.4 1238.19 Q2108.23 1237.68 2110.04 1236.69 L2110.04 1240.62 Q2108.25 1241.45 2106.33 1241.87 Q2104.43 1242.29 2102.28 1242.29 Q2096.42 1242.29 2092.98 1238.61 Q2089.53 1234.93 2089.53 1228.68 Q2089.53 1222.33 2093 1218.7 Q2096.49 1215.07 2102.56 1215.07 Q2104.53 1215.07 2106.4 1215.48 Q2108.28 1215.88 2110.04 1216.69 Z" fill="#000000" fill-rule="nonzero" fill-opacity="1" /><path clip-path="url(#clip640)" d="M2139.62 1227.59 L2139.62 1229.67 L2120.04 1229.67 Q2120.31 1234.07 2122.67 1236.38 Q2125.06 1238.68 2129.29 1238.68 Q2131.75 1238.68 2134.04 1238.07 Q2136.35 1237.47 2138.62 1236.27 L2138.62 1240.3 Q2136.33 1241.27 2133.92 1241.78 Q2131.52 1242.29 2129.04 1242.29 Q2122.84 1242.29 2119.2 1238.68 Q2115.59 1235.07 2115.59 1228.91 Q2115.59 1222.54 2119.02 1218.82 Q2122.47 1215.07 2128.3 1215.07 Q2133.53 1215.07 2136.56 1218.45 Q2139.62 1221.8 2139.62 1227.59 M2135.36 1226.34 Q2135.31 1222.84 2133.39 1220.76 Q2131.49 1218.68 2128.35 1218.68 Q2124.78 1218.68 2122.63 1220.69 Q2120.5 1222.7 2120.17 1226.36 L2135.36 1226.34 Z" fill="#000000" fill-rule="nonzero" fill-opacity="1" /><path clip-path="url(#clip640)" d="M2168.16 1225.97 L2168.16 1241.62 L2163.9 1241.62 L2163.9 1226.11 Q2163.9 1222.43 2162.47 1220.6 Q2161.03 1218.77 2158.16 1218.77 Q2154.71 1218.77 2152.72 1220.97 Q2150.73 1223.17 2150.73 1226.96 L2150.73 1241.62 L2146.45 1241.62 L2146.45 1215.69 L2150.73 1215.69 L2150.73 1219.72 Q2152.26 1217.38 2154.32 1216.22 Q2156.4 1215.07 2159.11 1215.07 Q2163.58 1215.07 2165.87 1217.84 Q2168.16 1220.6 2168.16 1225.97 Z" fill="#000000" fill-rule="nonzero" fill-opacity="1" /><path clip-path="url(#clip640)" d="M2180.87 1208.33 L2180.87 1215.69 L2189.64 1215.69 L2189.64 1219 L2180.87 1219 L2180.87 1233.07 Q2180.87 1236.25 2181.73 1237.15 Q2182.6 1238.05 2185.27 1238.05 L2189.64 1238.05 L2189.64 1241.62 L2185.27 1241.62 Q2180.34 1241.62 2178.46 1239.79 Q2176.59 1237.94 2176.59 1233.07 L2176.59 1219 L2173.46 1219 L2173.46 1215.69 L2176.59 1215.69 L2176.59 1208.33 L2180.87 1208.33 Z" fill="#000000" fill-rule="nonzero" fill-opacity="1" /><path clip-path="url(#clip640)" d="M2195.24 1215.69 L2199.5 1215.69 L2199.5 1241.62 L2195.24 1241.62 L2195.24 1215.69 M2195.24 1205.6 L2199.5 1205.6 L2199.5 1210.99 L2195.24 1210.99 L2195.24 1205.6 Z" fill="#000000" fill-rule="nonzero" fill-opacity="1" /><path clip-path="url(#clip640)" d="M2205.36 1215.69 L2209.87 1215.69 L2217.97 1237.45 L2226.08 1215.69 L2230.59 1215.69 L2220.87 1241.62 L2215.08 1241.62 L2205.36 1215.69 Z" fill="#000000" fill-rule="nonzero" fill-opacity="1" /><path clip-path="url(#clip640)" d="M2258.65 1227.59 L2258.65 1229.67 L2239.06 1229.67 Q2239.34 1234.07 2241.7 1236.38 Q2244.09 1238.68 2248.32 1238.68 Q2250.78 1238.68 2253.07 1238.07 Q2255.38 1237.47 2257.65 1236.27 L2257.65 1240.3 Q2255.36 1241.27 2252.95 1241.78 Q2250.54 1242.29 2248.07 1242.29 Q2241.86 1242.29 2238.23 1238.68 Q2234.62 1235.07 2234.62 1228.91 Q2234.62 1222.54 2238.04 1218.82 Q2241.49 1215.07 2247.33 1215.07 Q2252.56 1215.07 2255.59 1218.45 Q2258.65 1221.8 2258.65 1227.59 M2254.39 1226.34 Q2254.34 1222.84 2252.42 1220.76 Q2250.52 1218.68 2247.37 1218.68 Q2243.81 1218.68 2241.66 1220.69 Q2239.53 1222.7 2239.2 1226.36 L2254.39 1226.34 Z" fill="#000000" fill-rule="nonzero" fill-opacity="1" /><polyline clip-path="url(#clip640)" style="stroke:#c271d2; stroke-linecap:round; stroke-linejoin:round; stroke-width:4; stroke-opacity:1; fill:none" points="1598.08,1276.18 1739.24,1276.18 "/>
<path clip-path="url(#clip640)" d="M1783.28 1268.53 L1783.28 1272.51 Q1781.47 1271.51 1779.64 1271.03 Q1777.84 1270.52 1775.99 1270.52 Q1771.84 1270.52 1769.55 1273.16 Q1767.26 1275.77 1767.26 1280.52 Q1767.26 1285.26 1769.55 1287.9 Q1771.84 1290.52 1775.99 1290.52 Q1777.84 1290.52 1779.64 1290.03 Q1781.47 1289.52 1783.28 1288.53 L1783.28 1292.46 Q1781.5 1293.29 1779.57 1293.71 Q1777.68 1294.13 1775.52 1294.13 Q1769.67 1294.13 1766.22 1290.45 Q1762.77 1286.77 1762.77 1280.52 Q1762.77 1274.17 1766.24 1270.54 Q1769.74 1266.91 1775.8 1266.91 Q1777.77 1266.91 1779.64 1267.32 Q1781.52 1267.72 1783.28 1268.53 Z" fill="#000000" fill-rule="nonzero" fill-opacity="1" /><path clip-path="url(#clip640)" d="M1790.25 1283.22 L1790.25 1267.53 L1794.5 1267.53 L1794.5 1283.06 Q1794.5 1286.74 1795.94 1288.6 Q1797.38 1290.42 1800.25 1290.42 Q1803.69 1290.42 1805.69 1288.22 Q1807.7 1286.03 1807.7 1282.23 L1807.7 1267.53 L1811.96 1267.53 L1811.96 1293.46 L1807.7 1293.46 L1807.7 1289.47 Q1806.15 1291.84 1804.09 1292.99 Q1802.05 1294.13 1799.34 1294.13 Q1794.88 1294.13 1792.56 1291.35 Q1790.25 1288.57 1790.25 1283.22 M1800.96 1266.91 L1800.96 1266.91 Z" fill="#000000" fill-rule="nonzero" fill-opacity="1" /><path clip-path="url(#clip640)" d="M1837.26 1268.29 L1837.26 1272.32 Q1835.45 1271.4 1833.51 1270.93 Q1831.56 1270.47 1829.48 1270.47 Q1826.31 1270.47 1824.71 1271.44 Q1823.14 1272.41 1823.14 1274.36 Q1823.14 1275.84 1824.27 1276.7 Q1825.41 1277.53 1828.83 1278.29 L1830.29 1278.62 Q1834.83 1279.59 1836.73 1281.37 Q1838.65 1283.13 1838.65 1286.3 Q1838.65 1289.91 1835.78 1292.02 Q1832.93 1294.13 1827.93 1294.13 Q1825.85 1294.13 1823.58 1293.71 Q1821.33 1293.32 1818.83 1292.51 L1818.83 1288.11 Q1821.19 1289.34 1823.49 1289.96 Q1825.78 1290.56 1828.02 1290.56 Q1831.03 1290.56 1832.65 1289.54 Q1834.27 1288.5 1834.27 1286.63 Q1834.27 1284.89 1833.09 1283.97 Q1831.94 1283.04 1827.98 1282.18 L1826.5 1281.84 Q1822.54 1281 1820.78 1279.29 Q1819.02 1277.55 1819.02 1274.54 Q1819.02 1270.89 1821.61 1268.9 Q1824.2 1266.91 1828.97 1266.91 Q1831.33 1266.91 1833.42 1267.25 Q1835.5 1267.6 1837.26 1268.29 Z" fill="#000000" fill-rule="nonzero" fill-opacity="1" /><path clip-path="url(#clip640)" d="M1849.64 1260.17 L1849.64 1267.53 L1858.42 1267.53 L1858.42 1270.84 L1849.64 1270.84 L1849.64 1284.91 Q1849.64 1288.09 1850.5 1288.99 Q1851.38 1289.89 1854.04 1289.89 L1858.42 1289.89 L1858.42 1293.46 L1854.04 1293.46 Q1849.11 1293.46 1847.24 1291.63 Q1845.36 1289.78 1845.36 1284.91 L1845.36 1270.84 L1842.24 1270.84 L1842.24 1267.53 L1845.36 1267.53 L1845.36 1260.17 L1849.64 1260.17 Z" fill="#000000" fill-rule="nonzero" fill-opacity="1" /><path clip-path="url(#clip640)" d="M1874.06 1270.52 Q1870.64 1270.52 1868.65 1273.2 Q1866.66 1275.86 1866.66 1280.52 Q1866.66 1285.17 1868.62 1287.85 Q1870.62 1290.52 1874.06 1290.52 Q1877.47 1290.52 1879.46 1287.83 Q1881.45 1285.15 1881.45 1280.52 Q1881.45 1275.91 1879.46 1273.22 Q1877.47 1270.52 1874.06 1270.52 M1874.06 1266.91 Q1879.62 1266.91 1882.79 1270.52 Q1885.96 1274.13 1885.96 1280.52 Q1885.96 1286.88 1882.79 1290.52 Q1879.62 1294.13 1874.06 1294.13 Q1868.49 1294.13 1865.31 1290.52 Q1862.17 1286.88 1862.17 1280.52 Q1862.17 1274.13 1865.31 1270.52 Q1868.49 1266.91 1874.06 1266.91 Z" fill="#000000" fill-rule="nonzero" fill-opacity="1" /><path clip-path="url(#clip640)" d="M1913.21 1272.51 Q1914.81 1269.64 1917.03 1268.27 Q1919.25 1266.91 1922.26 1266.91 Q1926.31 1266.91 1928.51 1269.75 Q1930.71 1272.58 1930.71 1277.81 L1930.71 1293.46 L1926.43 1293.46 L1926.43 1277.95 Q1926.43 1274.22 1925.11 1272.41 Q1923.79 1270.61 1921.08 1270.61 Q1917.77 1270.61 1915.85 1272.81 Q1913.93 1275.01 1913.93 1278.8 L1913.93 1293.46 L1909.64 1293.46 L1909.64 1277.95 Q1909.64 1274.2 1908.32 1272.41 Q1907 1270.61 1904.25 1270.61 Q1900.99 1270.61 1899.06 1272.83 Q1897.14 1275.03 1897.14 1278.8 L1897.14 1293.46 L1892.86 1293.46 L1892.86 1267.53 L1897.14 1267.53 L1897.14 1271.56 Q1898.6 1269.17 1900.64 1268.04 Q1902.68 1266.91 1905.48 1266.91 Q1908.3 1266.91 1910.27 1268.34 Q1912.26 1269.78 1913.21 1272.51 Z" fill="#000000" fill-rule="nonzero" fill-opacity="1" /><path clip-path="url(#clip640)" d="M1961.38 1279.43 L1961.38 1281.51 L1941.8 1281.51 Q1942.07 1285.91 1944.43 1288.22 Q1946.82 1290.52 1951.06 1290.52 Q1953.51 1290.52 1955.8 1289.91 Q1958.12 1289.31 1960.38 1288.11 L1960.38 1292.14 Q1958.09 1293.11 1955.68 1293.62 Q1953.28 1294.13 1950.8 1294.13 Q1944.6 1294.13 1940.96 1290.52 Q1937.35 1286.91 1937.35 1280.75 Q1937.35 1274.38 1940.78 1270.66 Q1944.23 1266.91 1950.06 1266.91 Q1955.29 1266.91 1958.32 1270.29 Q1961.38 1273.64 1961.38 1279.43 M1957.12 1278.18 Q1957.07 1274.68 1955.15 1272.6 Q1953.25 1270.52 1950.11 1270.52 Q1946.54 1270.52 1944.39 1272.53 Q1942.26 1274.54 1941.93 1278.2 L1957.12 1278.18 Z" fill="#000000" fill-rule="nonzero" fill-opacity="1" /><path clip-path="url(#clip640)" d="M1983.39 1271.51 Q1982.68 1271.1 1981.82 1270.91 Q1980.99 1270.7 1979.97 1270.7 Q1976.36 1270.7 1974.41 1273.06 Q1972.49 1275.4 1972.49 1279.8 L1972.49 1293.46 L1968.21 1293.46 L1968.21 1267.53 L1972.49 1267.53 L1972.49 1271.56 Q1973.83 1269.2 1975.99 1268.06 Q1978.14 1266.91 1981.22 1266.91 Q1981.66 1266.91 1982.19 1266.97 Q1982.72 1267.02 1983.37 1267.14 L1983.39 1271.51 Z" fill="#000000" fill-rule="nonzero" fill-opacity="1" /><path clip-path="url(#clip640)" d="M2016.38 1262.97 L2004.57 1281.42 L2016.38 1281.42 L2016.38 1262.97 M2015.15 1258.9 L2021.03 1258.9 L2021.03 1281.42 L2025.96 1281.42 L2025.96 1285.31 L2021.03 1285.31 L2021.03 1293.46 L2016.38 1293.46 L2016.38 1285.31 L2000.78 1285.31 L2000.78 1280.79 L2015.15 1258.9 Z" fill="#000000" fill-rule="nonzero" fill-opacity="1" /><path clip-path="url(#clip640)" d="M2048.16 1267.53 L2052.42 1267.53 L2052.42 1293.46 L2048.16 1293.46 L2048.16 1267.53 M2048.16 1257.44 L2052.42 1257.44 L2052.42 1262.83 L2048.16 1262.83 L2048.16 1257.44 Z" fill="#000000" fill-rule="nonzero" fill-opacity="1" /><path clip-path="url(#clip640)" d="M2082.88 1277.81 L2082.88 1293.46 L2078.62 1293.46 L2078.62 1277.95 Q2078.62 1274.27 2077.19 1272.44 Q2075.75 1270.61 2072.88 1270.61 Q2069.43 1270.61 2067.44 1272.81 Q2065.45 1275.01 2065.45 1278.8 L2065.45 1293.46 L2061.17 1293.46 L2061.17 1267.53 L2065.45 1267.53 L2065.45 1271.56 Q2066.98 1269.22 2069.04 1268.06 Q2071.12 1266.91 2073.83 1266.91 Q2078.3 1266.91 2080.59 1269.68 Q2082.88 1272.44 2082.88 1277.81 Z" fill="#000000" fill-rule="nonzero" fill-opacity="1" /><path clip-path="url(#clip640)" d="M2110.04 1268.53 L2110.04 1272.51 Q2108.23 1271.51 2106.4 1271.03 Q2104.6 1270.52 2102.74 1270.52 Q2098.6 1270.52 2096.31 1273.16 Q2094.02 1275.77 2094.02 1280.52 Q2094.02 1285.26 2096.31 1287.9 Q2098.6 1290.52 2102.74 1290.52 Q2104.6 1290.52 2106.4 1290.03 Q2108.23 1289.52 2110.04 1288.53 L2110.04 1292.46 Q2108.25 1293.29 2106.33 1293.71 Q2104.43 1294.13 2102.28 1294.13 Q2096.42 1294.13 2092.98 1290.45 Q2089.53 1286.77 2089.53 1280.52 Q2089.53 1274.17 2093 1270.54 Q2096.49 1266.91 2102.56 1266.91 Q2104.53 1266.91 2106.4 1267.32 Q2108.28 1267.72 2110.04 1268.53 Z" fill="#000000" fill-rule="nonzero" fill-opacity="1" /><path clip-path="url(#clip640)" d="M2139.62 1279.43 L2139.62 1281.51 L2120.04 1281.51 Q2120.31 1285.91 2122.67 1288.22 Q2125.06 1290.52 2129.29 1290.52 Q2131.75 1290.52 2134.04 1289.91 Q2136.35 1289.31 2138.62 1288.11 L2138.62 1292.14 Q2136.33 1293.11 2133.92 1293.62 Q2131.52 1294.13 2129.04 1294.13 Q2122.84 1294.13 2119.2 1290.52 Q2115.59 1286.91 2115.59 1280.75 Q2115.59 1274.38 2119.02 1270.66 Q2122.47 1266.91 2128.3 1266.91 Q2133.53 1266.91 2136.56 1270.29 Q2139.62 1273.64 2139.62 1279.43 M2135.36 1278.18 Q2135.31 1274.68 2133.39 1272.6 Q2131.49 1270.52 2128.35 1270.52 Q2124.78 1270.52 2122.63 1272.53 Q2120.5 1274.54 2120.17 1278.2 L2135.36 1278.18 Z" fill="#000000" fill-rule="nonzero" fill-opacity="1" /><path clip-path="url(#clip640)" d="M2168.16 1277.81 L2168.16 1293.46 L2163.9 1293.46 L2163.9 1277.95 Q2163.9 1274.27 2162.47 1272.44 Q2161.03 1270.61 2158.16 1270.61 Q2154.71 1270.61 2152.72 1272.81 Q2150.73 1275.01 2150.73 1278.8 L2150.73 1293.46 L2146.45 1293.46 L2146.45 1267.53 L2150.73 1267.53 L2150.73 1271.56 Q2152.26 1269.22 2154.32 1268.06 Q2156.4 1266.91 2159.11 1266.91 Q2163.58 1266.91 2165.87 1269.68 Q2168.16 1272.44 2168.16 1277.81 Z" fill="#000000" fill-rule="nonzero" fill-opacity="1" /><path clip-path="url(#clip640)" d="M2180.87 1260.17 L2180.87 1267.53 L2189.64 1267.53 L2189.64 1270.84 L2180.87 1270.84 L2180.87 1284.91 Q2180.87 1288.09 2181.73 1288.99 Q2182.6 1289.89 2185.27 1289.89 L2189.64 1289.89 L2189.64 1293.46 L2185.27 1293.46 Q2180.34 1293.46 2178.46 1291.63 Q2176.59 1289.78 2176.59 1284.91 L2176.59 1270.84 L2173.46 1270.84 L2173.46 1267.53 L2176.59 1267.53 L2176.59 1260.17 L2180.87 1260.17 Z" fill="#000000" fill-rule="nonzero" fill-opacity="1" /><path clip-path="url(#clip640)" d="M2195.24 1267.53 L2199.5 1267.53 L2199.5 1293.46 L2195.24 1293.46 L2195.24 1267.53 M2195.24 1257.44 L2199.5 1257.44 L2199.5 1262.83 L2195.24 1262.83 L2195.24 1257.44 Z" fill="#000000" fill-rule="nonzero" fill-opacity="1" /><path clip-path="url(#clip640)" d="M2205.36 1267.53 L2209.87 1267.53 L2217.97 1289.29 L2226.08 1267.53 L2230.59 1267.53 L2220.87 1293.46 L2215.08 1293.46 L2205.36 1267.53 Z" fill="#000000" fill-rule="nonzero" fill-opacity="1" /><path clip-path="url(#clip640)" d="M2258.65 1279.43 L2258.65 1281.51 L2239.06 1281.51 Q2239.34 1285.91 2241.7 1288.22 Q2244.09 1290.52 2248.32 1290.52 Q2250.78 1290.52 2253.07 1289.91 Q2255.38 1289.31 2257.65 1288.11 L2257.65 1292.14 Q2255.36 1293.11 2252.95 1293.62 Q2250.54 1294.13 2248.07 1294.13 Q2241.86 1294.13 2238.23 1290.52 Q2234.62 1286.91 2234.62 1280.75 Q2234.62 1274.38 2238.04 1270.66 Q2241.49 1266.91 2247.33 1266.91 Q2252.56 1266.91 2255.59 1270.29 Q2258.65 1273.64 2258.65 1279.43 M2254.39 1278.18 Q2254.34 1274.68 2252.42 1272.6 Q2250.52 1270.52 2247.37 1270.52 Q2243.81 1270.52 2241.66 1272.53 Q2239.53 1274.54 2239.2 1278.2 L2254.39 1278.18 Z" fill="#000000" fill-rule="nonzero" fill-opacity="1" /><polyline clip-path="url(#clip640)" style="stroke:#ac8d18; stroke-linecap:round; stroke-linejoin:round; stroke-width:4; stroke-opacity:1; fill:none" points="1598.08,1328.02 1739.24,1328.02 "/>
<path clip-path="url(#clip640)" d="M1783.28 1320.37 L1783.28 1324.35 Q1781.47 1323.35 1779.64 1322.87 Q1777.84 1322.36 1775.99 1322.36 Q1771.84 1322.36 1769.55 1325 Q1767.26 1327.61 1767.26 1332.36 Q1767.26 1337.1 1769.55 1339.74 Q1771.84 1342.36 1775.99 1342.36 Q1777.84 1342.36 1779.64 1341.87 Q1781.47 1341.36 1783.28 1340.37 L1783.28 1344.3 Q1781.5 1345.13 1779.57 1345.55 Q1777.68 1345.97 1775.52 1345.97 Q1769.67 1345.97 1766.22 1342.29 Q1762.77 1338.61 1762.77 1332.36 Q1762.77 1326.01 1766.24 1322.38 Q1769.74 1318.75 1775.8 1318.75 Q1777.77 1318.75 1779.64 1319.16 Q1781.52 1319.56 1783.28 1320.37 Z" fill="#000000" fill-rule="nonzero" fill-opacity="1" /><path clip-path="url(#clip640)" d="M1790.25 1335.06 L1790.25 1319.37 L1794.5 1319.37 L1794.5 1334.9 Q1794.5 1338.58 1795.94 1340.44 Q1797.38 1342.26 1800.25 1342.26 Q1803.69 1342.26 1805.69 1340.06 Q1807.7 1337.87 1807.7 1334.07 L1807.7 1319.37 L1811.96 1319.37 L1811.96 1345.3 L1807.7 1345.3 L1807.7 1341.31 Q1806.15 1343.68 1804.09 1344.83 Q1802.05 1345.97 1799.34 1345.97 Q1794.88 1345.97 1792.56 1343.19 Q1790.25 1340.41 1790.25 1335.06 M1800.96 1318.75 L1800.96 1318.75 Z" fill="#000000" fill-rule="nonzero" fill-opacity="1" /><path clip-path="url(#clip640)" d="M1837.26 1320.13 L1837.26 1324.16 Q1835.45 1323.24 1833.51 1322.77 Q1831.56 1322.31 1829.48 1322.31 Q1826.31 1322.31 1824.71 1323.28 Q1823.14 1324.25 1823.14 1326.2 Q1823.14 1327.68 1824.27 1328.54 Q1825.41 1329.37 1828.83 1330.13 L1830.29 1330.46 Q1834.83 1331.43 1836.73 1333.21 Q1838.65 1334.97 1838.65 1338.14 Q1838.65 1341.75 1835.78 1343.86 Q1832.93 1345.97 1827.93 1345.97 Q1825.85 1345.97 1823.58 1345.55 Q1821.33 1345.16 1818.83 1344.35 L1818.83 1339.95 Q1821.19 1341.18 1823.49 1341.8 Q1825.78 1342.4 1828.02 1342.4 Q1831.03 1342.4 1832.65 1341.38 Q1834.27 1340.34 1834.27 1338.47 Q1834.27 1336.73 1833.09 1335.81 Q1831.94 1334.88 1827.98 1334.02 L1826.5 1333.68 Q1822.54 1332.84 1820.78 1331.13 Q1819.02 1329.39 1819.02 1326.38 Q1819.02 1322.73 1821.61 1320.74 Q1824.2 1318.75 1828.97 1318.75 Q1831.33 1318.75 1833.42 1319.09 Q1835.5 1319.44 1837.26 1320.13 Z" fill="#000000" fill-rule="nonzero" fill-opacity="1" /><path clip-path="url(#clip640)" d="M1849.64 1312.01 L1849.64 1319.37 L1858.42 1319.37 L1858.42 1322.68 L1849.64 1322.68 L1849.64 1336.75 Q1849.64 1339.93 1850.5 1340.83 Q1851.38 1341.73 1854.04 1341.73 L1858.42 1341.73 L1858.42 1345.3 L1854.04 1345.3 Q1849.11 1345.3 1847.24 1343.47 Q1845.36 1341.62 1845.36 1336.75 L1845.36 1322.68 L1842.24 1322.68 L1842.24 1319.37 L1845.36 1319.37 L1845.36 1312.01 L1849.64 1312.01 Z" fill="#000000" fill-rule="nonzero" fill-opacity="1" /><path clip-path="url(#clip640)" d="M1874.06 1322.36 Q1870.64 1322.36 1868.65 1325.04 Q1866.66 1327.7 1866.66 1332.36 Q1866.66 1337.01 1868.62 1339.69 Q1870.62 1342.36 1874.06 1342.36 Q1877.47 1342.36 1879.46 1339.67 Q1881.45 1336.99 1881.45 1332.36 Q1881.45 1327.75 1879.46 1325.06 Q1877.47 1322.36 1874.06 1322.36 M1874.06 1318.75 Q1879.62 1318.75 1882.79 1322.36 Q1885.96 1325.97 1885.96 1332.36 Q1885.96 1338.72 1882.79 1342.36 Q1879.62 1345.97 1874.06 1345.97 Q1868.49 1345.97 1865.31 1342.36 Q1862.17 1338.72 1862.17 1332.36 Q1862.17 1325.97 1865.31 1322.36 Q1868.49 1318.75 1874.06 1318.75 Z" fill="#000000" fill-rule="nonzero" fill-opacity="1" /><path clip-path="url(#clip640)" d="M1913.21 1324.35 Q1914.81 1321.48 1917.03 1320.11 Q1919.25 1318.75 1922.26 1318.75 Q1926.31 1318.75 1928.51 1321.59 Q1930.71 1324.42 1930.71 1329.65 L1930.71 1345.3 L1926.43 1345.3 L1926.43 1329.79 Q1926.43 1326.06 1925.11 1324.25 Q1923.79 1322.45 1921.08 1322.45 Q1917.77 1322.45 1915.85 1324.65 Q1913.93 1326.85 1913.93 1330.64 L1913.93 1345.3 L1909.64 1345.3 L1909.64 1329.79 Q1909.64 1326.04 1908.32 1324.25 Q1907 1322.45 1904.25 1322.45 Q1900.99 1322.45 1899.06 1324.67 Q1897.14 1326.87 1897.14 1330.64 L1897.14 1345.3 L1892.86 1345.3 L1892.86 1319.37 L1897.14 1319.37 L1897.14 1323.4 Q1898.6 1321.01 1900.64 1319.88 Q1902.68 1318.75 1905.48 1318.75 Q1908.3 1318.75 1910.27 1320.18 Q1912.26 1321.62 1913.21 1324.35 Z" fill="#000000" fill-rule="nonzero" fill-opacity="1" /><path clip-path="url(#clip640)" d="M1961.38 1331.27 L1961.38 1333.35 L1941.8 1333.35 Q1942.07 1337.75 1944.43 1340.06 Q1946.82 1342.36 1951.06 1342.36 Q1953.51 1342.36 1955.8 1341.75 Q1958.12 1341.15 1960.38 1339.95 L1960.38 1343.98 Q1958.09 1344.95 1955.68 1345.46 Q1953.28 1345.97 1950.8 1345.97 Q1944.6 1345.97 1940.96 1342.36 Q1937.35 1338.75 1937.35 1332.59 Q1937.35 1326.22 1940.78 1322.5 Q1944.23 1318.75 1950.06 1318.75 Q1955.29 1318.75 1958.32 1322.13 Q1961.38 1325.48 1961.38 1331.27 M1957.12 1330.02 Q1957.07 1326.52 1955.15 1324.44 Q1953.25 1322.36 1950.11 1322.36 Q1946.54 1322.36 1944.39 1324.37 Q1942.26 1326.38 1941.93 1330.04 L1957.12 1330.02 Z" fill="#000000" fill-rule="nonzero" fill-opacity="1" /><path clip-path="url(#clip640)" d="M1983.39 1323.35 Q1982.68 1322.94 1981.82 1322.75 Q1980.99 1322.54 1979.97 1322.54 Q1976.36 1322.54 1974.41 1324.9 Q1972.49 1327.24 1972.49 1331.64 L1972.49 1345.3 L1968.21 1345.3 L1968.21 1319.37 L1972.49 1319.37 L1972.49 1323.4 Q1973.83 1321.04 1975.99 1319.9 Q1978.14 1318.75 1981.22 1318.75 Q1981.66 1318.75 1982.19 1318.81 Q1982.72 1318.86 1983.37 1318.98 L1983.39 1323.35 Z" fill="#000000" fill-rule="nonzero" fill-opacity="1" /><path clip-path="url(#clip640)" d="M2003.58 1310.74 L2021.93 1310.74 L2021.93 1314.67 L2007.86 1314.67 L2007.86 1323.14 Q2008.88 1322.8 2009.9 1322.63 Q2010.92 1322.45 2011.93 1322.45 Q2017.72 1322.45 2021.1 1325.62 Q2024.48 1328.79 2024.48 1334.21 Q2024.48 1339.79 2021.01 1342.89 Q2017.54 1345.97 2011.22 1345.97 Q2009.04 1345.97 2006.77 1345.6 Q2004.53 1345.23 2002.12 1344.49 L2002.12 1339.79 Q2004.2 1340.92 2006.43 1341.48 Q2008.65 1342.03 2011.12 1342.03 Q2015.13 1342.03 2017.47 1339.93 Q2019.8 1337.82 2019.8 1334.21 Q2019.8 1330.6 2017.47 1328.49 Q2015.13 1326.38 2011.12 1326.38 Q2009.25 1326.38 2007.37 1326.8 Q2005.52 1327.22 2003.58 1328.1 L2003.58 1310.74 Z" fill="#000000" fill-rule="nonzero" fill-opacity="1" /><path clip-path="url(#clip640)" d="M2048.16 1319.37 L2052.42 1319.37 L2052.42 1345.3 L2048.16 1345.3 L2048.16 1319.37 M2048.16 1309.28 L2052.42 1309.28 L2052.42 1314.67 L2048.16 1314.67 L2048.16 1309.28 Z" fill="#000000" fill-rule="nonzero" fill-opacity="1" /><path clip-path="url(#clip640)" d="M2082.88 1329.65 L2082.88 1345.3 L2078.62 1345.3 L2078.62 1329.79 Q2078.62 1326.11 2077.19 1324.28 Q2075.75 1322.45 2072.88 1322.45 Q2069.43 1322.45 2067.44 1324.65 Q2065.45 1326.85 2065.45 1330.64 L2065.45 1345.3 L2061.17 1345.3 L2061.17 1319.37 L2065.45 1319.37 L2065.45 1323.4 Q2066.98 1321.06 2069.04 1319.9 Q2071.12 1318.75 2073.83 1318.75 Q2078.3 1318.75 2080.59 1321.52 Q2082.88 1324.28 2082.88 1329.65 Z" fill="#000000" fill-rule="nonzero" fill-opacity="1" /><path clip-path="url(#clip640)" d="M2110.04 1320.37 L2110.04 1324.35 Q2108.23 1323.35 2106.4 1322.87 Q2104.6 1322.36 2102.74 1322.36 Q2098.6 1322.36 2096.31 1325 Q2094.02 1327.61 2094.02 1332.36 Q2094.02 1337.1 2096.31 1339.74 Q2098.6 1342.36 2102.74 1342.36 Q2104.6 1342.36 2106.4 1341.87 Q2108.23 1341.36 2110.04 1340.37 L2110.04 1344.3 Q2108.25 1345.13 2106.33 1345.55 Q2104.43 1345.97 2102.28 1345.97 Q2096.42 1345.97 2092.98 1342.29 Q2089.53 1338.61 2089.53 1332.36 Q2089.53 1326.01 2093 1322.38 Q2096.49 1318.75 2102.56 1318.75 Q2104.53 1318.75 2106.4 1319.16 Q2108.28 1319.56 2110.04 1320.37 Z" fill="#000000" fill-rule="nonzero" fill-opacity="1" /><path clip-path="url(#clip640)" d="M2139.62 1331.27 L2139.62 1333.35 L2120.04 1333.35 Q2120.31 1337.75 2122.67 1340.06 Q2125.06 1342.36 2129.29 1342.36 Q2131.75 1342.36 2134.04 1341.75 Q2136.35 1341.15 2138.62 1339.95 L2138.62 1343.98 Q2136.33 1344.95 2133.92 1345.46 Q2131.52 1345.97 2129.04 1345.97 Q2122.84 1345.97 2119.2 1342.36 Q2115.59 1338.75 2115.59 1332.59 Q2115.59 1326.22 2119.02 1322.5 Q2122.47 1318.75 2128.3 1318.75 Q2133.53 1318.75 2136.56 1322.13 Q2139.62 1325.48 2139.62 1331.27 M2135.36 1330.02 Q2135.31 1326.52 2133.39 1324.44 Q2131.49 1322.36 2128.35 1322.36 Q2124.78 1322.36 2122.63 1324.37 Q2120.5 1326.38 2120.17 1330.04 L2135.36 1330.02 Z" fill="#000000" fill-rule="nonzero" fill-opacity="1" /><path clip-path="url(#clip640)" d="M2168.16 1329.65 L2168.16 1345.3 L2163.9 1345.3 L2163.9 1329.79 Q2163.9 1326.11 2162.47 1324.28 Q2161.03 1322.45 2158.16 1322.45 Q2154.71 1322.45 2152.72 1324.65 Q2150.73 1326.85 2150.73 1330.64 L2150.73 1345.3 L2146.45 1345.3 L2146.45 1319.37 L2150.73 1319.37 L2150.73 1323.4 Q2152.26 1321.06 2154.32 1319.9 Q2156.4 1318.75 2159.11 1318.75 Q2163.58 1318.75 2165.87 1321.52 Q2168.16 1324.28 2168.16 1329.65 Z" fill="#000000" fill-rule="nonzero" fill-opacity="1" /><path clip-path="url(#clip640)" d="M2180.87 1312.01 L2180.87 1319.37 L2189.64 1319.37 L2189.64 1322.68 L2180.87 1322.68 L2180.87 1336.75 Q2180.87 1339.93 2181.73 1340.83 Q2182.6 1341.73 2185.27 1341.73 L2189.64 1341.73 L2189.64 1345.3 L2185.27 1345.3 Q2180.34 1345.3 2178.46 1343.47 Q2176.59 1341.62 2176.59 1336.75 L2176.59 1322.68 L2173.46 1322.68 L2173.46 1319.37 L2176.59 1319.37 L2176.59 1312.01 L2180.87 1312.01 Z" fill="#000000" fill-rule="nonzero" fill-opacity="1" /><path clip-path="url(#clip640)" d="M2195.24 1319.37 L2199.5 1319.37 L2199.5 1345.3 L2195.24 1345.3 L2195.24 1319.37 M2195.24 1309.28 L2199.5 1309.28 L2199.5 1314.67 L2195.24 1314.67 L2195.24 1309.28 Z" fill="#000000" fill-rule="nonzero" fill-opacity="1" /><path clip-path="url(#clip640)" d="M2205.36 1319.37 L2209.87 1319.37 L2217.97 1341.13 L2226.08 1319.37 L2230.59 1319.37 L2220.87 1345.3 L2215.08 1345.3 L2205.36 1319.37 Z" fill="#000000" fill-rule="nonzero" fill-opacity="1" /><path clip-path="url(#clip640)" d="M2258.65 1331.27 L2258.65 1333.35 L2239.06 1333.35 Q2239.34 1337.75 2241.7 1340.06 Q2244.09 1342.36 2248.32 1342.36 Q2250.78 1342.36 2253.07 1341.75 Q2255.38 1341.15 2257.65 1339.95 L2257.65 1343.98 Q2255.36 1344.95 2252.95 1345.46 Q2250.54 1345.97 2248.07 1345.97 Q2241.86 1345.97 2238.23 1342.36 Q2234.62 1338.75 2234.62 1332.59 Q2234.62 1326.22 2238.04 1322.5 Q2241.49 1318.75 2247.33 1318.75 Q2252.56 1318.75 2255.59 1322.13 Q2258.65 1325.48 2258.65 1331.27 M2254.39 1330.02 Q2254.34 1326.52 2252.42 1324.44 Q2250.52 1322.36 2247.37 1322.36 Q2243.81 1322.36 2241.66 1324.37 Q2239.53 1326.38 2239.2 1330.04 L2254.39 1330.02 Z" fill="#000000" fill-rule="nonzero" fill-opacity="1" /></svg>
