<?xml version="1.0" encoding="utf-8"?>
<svg xmlns="http://www.w3.org/2000/svg" xmlns:xlink="http://www.w3.org/1999/xlink" width="600" height="400" viewBox="0 0 2400 1600">
<defs>
  <clipPath id="clip560">
    <rect x="0" y="0" width="2400" height="1600"/>
  </clipPath>
</defs>
<path clip-path="url(#clip560)" d="M0 1600 L2400 1600 L2400 0 L0 0  Z" fill="#ffffff" fill-rule="evenodd" fill-opacity="1"/>
<defs>
  <clipPath id="clip561">
    <rect x="480" y="0" width="1681" height="1600"/>
  </clipPath>
</defs>
<path clip-path="url(#clip560)" d="M235.283 1423.18 L2352.76 1423.18 L2352.76 123.472 L235.283 123.472  Z" fill="#ffffff" fill-rule="evenodd" fill-opacity="1"/>
<defs>
  <clipPath id="clip562">
    <rect x="235" y="123" width="2118" height="1301"/>
  </clipPath>
</defs>
<polyline clip-path="url(#clip562)" style="stroke:#000000; stroke-linecap:round; stroke-linejoin:round; stroke-width:2; stroke-opacity:0.1; fill:none" points="642.623,1423.18 642.623,123.472 "/>
<polyline clip-path="url(#clip562)" style="stroke:#000000; stroke-linecap:round; stroke-linejoin:round; stroke-width:2; stroke-opacity:0.1; fill:none" points="1076.89,1423.18 1076.89,123.472 "/>
<polyline clip-path="url(#clip562)" style="stroke:#000000; stroke-linecap:round; stroke-linejoin:round; stroke-width:2; stroke-opacity:0.1; fill:none" points="1511.15,1423.18 1511.15,123.472 "/>
<polyline clip-path="url(#clip562)" style="stroke:#000000; stroke-linecap:round; stroke-linejoin:round; stroke-width:2; stroke-opacity:0.1; fill:none" points="1945.42,1423.18 1945.42,123.472 "/>
<polyline clip-path="url(#clip560)" style="stroke:#000000; stroke-linecap:round; stroke-linejoin:round; stroke-width:4; stroke-opacity:1; fill:none" points="235.283,1423.18 2352.76,1423.18 "/>
<polyline clip-path="url(#clip560)" style="stroke:#000000; stroke-linecap:round; stroke-linejoin:round; stroke-width:4; stroke-opacity:1; fill:none" points="642.623,1423.18 642.623,1404.28 "/>
<polyline clip-path="url(#clip560)" style="stroke:#000000; stroke-linecap:round; stroke-linejoin:round; stroke-width:4; stroke-opacity:1; fill:none" points="1076.89,1423.18 1076.89,1404.28 "/>
<polyline clip-path="url(#clip560)" style="stroke:#000000; stroke-linecap:round; stroke-linejoin:round; stroke-width:4; stroke-opacity:1; fill:none" points="1511.15,1423.18 1511.15,1404.28 "/>
<polyline clip-path="url(#clip560)" style="stroke:#000000; stroke-linecap:round; stroke-linejoin:round; stroke-width:4; stroke-opacity:1; fill:none" points="1945.42,1423.18 1945.42,1404.28 "/>
<path clip-path="url(#clip560)" d="M632.901 1451.02 L651.257 1451.02 L651.257 1454.96 L637.183 1454.96 L637.183 1463.43 Q638.202 1463.08 639.22 1462.92 Q640.239 1462.73 641.257 1462.73 Q647.044 1462.73 650.424 1465.9 Q653.803 1469.08 653.803 1474.49 Q653.803 1480.07 650.331 1483.17 Q646.859 1486.25 640.54 1486.25 Q638.364 1486.25 636.095 1485.88 Q633.85 1485.51 631.442 1484.77 L631.442 1480.07 Q633.526 1481.2 635.748 1481.76 Q637.97 1482.32 640.447 1482.32 Q644.452 1482.32 646.789 1480.21 Q649.127 1478.1 649.127 1474.49 Q649.127 1470.88 646.789 1468.77 Q644.452 1466.67 640.447 1466.67 Q638.572 1466.67 636.697 1467.08 Q634.845 1467.5 632.901 1468.38 L632.901 1451.02 Z" fill="#000000" fill-rule="nonzero" fill-opacity="1" /><path clip-path="url(#clip560)" d="M1051.57 1481.64 L1059.21 1481.64 L1059.21 1455.28 L1050.9 1456.95 L1050.9 1452.69 L1059.17 1451.02 L1063.84 1451.02 L1063.84 1481.64 L1071.48 1481.64 L1071.48 1485.58 L1051.57 1485.58 L1051.57 1481.64 Z" fill="#000000" fill-rule="nonzero" fill-opacity="1" /><path clip-path="url(#clip560)" d="M1090.93 1454.1 Q1087.32 1454.1 1085.49 1457.66 Q1083.68 1461.2 1083.68 1468.33 Q1083.68 1475.44 1085.49 1479.01 Q1087.32 1482.55 1090.93 1482.55 Q1094.56 1482.55 1096.37 1479.01 Q1098.19 1475.44 1098.19 1468.33 Q1098.19 1461.2 1096.37 1457.66 Q1094.56 1454.1 1090.93 1454.1 M1090.93 1450.39 Q1096.74 1450.39 1099.79 1455 Q1102.87 1459.58 1102.87 1468.33 Q1102.87 1477.06 1099.79 1481.67 Q1096.74 1486.25 1090.93 1486.25 Q1085.12 1486.25 1082.04 1481.67 Q1078.98 1477.06 1078.98 1468.33 Q1078.98 1459.58 1082.04 1455 Q1085.12 1450.39 1090.93 1450.39 Z" fill="#000000" fill-rule="nonzero" fill-opacity="1" /><path clip-path="url(#clip560)" d="M1486.34 1481.64 L1493.98 1481.64 L1493.98 1455.28 L1485.67 1456.95 L1485.67 1452.69 L1493.93 1451.02 L1498.61 1451.02 L1498.61 1481.64 L1506.24 1481.64 L1506.24 1485.58 L1486.34 1485.58 L1486.34 1481.64 Z" fill="#000000" fill-rule="nonzero" fill-opacity="1" /><path clip-path="url(#clip560)" d="M1515.73 1451.02 L1534.09 1451.02 L1534.09 1454.96 L1520.02 1454.96 L1520.02 1463.43 Q1521.04 1463.08 1522.05 1462.92 Q1523.07 1462.73 1524.09 1462.73 Q1529.88 1462.73 1533.26 1465.9 Q1536.64 1469.08 1536.64 1474.49 Q1536.64 1480.07 1533.17 1483.17 Q1529.69 1486.25 1523.37 1486.25 Q1521.2 1486.25 1518.93 1485.88 Q1516.68 1485.51 1514.28 1484.77 L1514.28 1480.07 Q1516.36 1481.2 1518.58 1481.76 Q1520.8 1482.32 1523.28 1482.32 Q1527.29 1482.32 1529.62 1480.21 Q1531.96 1478.1 1531.96 1474.49 Q1531.96 1470.88 1529.62 1468.77 Q1527.29 1466.67 1523.28 1466.67 Q1521.41 1466.67 1519.53 1467.08 Q1517.68 1467.5 1515.73 1468.38 L1515.73 1451.02 Z" fill="#000000" fill-rule="nonzero" fill-opacity="1" /><path clip-path="url(#clip560)" d="M1924.19 1481.64 L1940.51 1481.64 L1940.51 1485.58 L1918.56 1485.58 L1918.56 1481.64 Q1921.23 1478.89 1925.81 1474.26 Q1930.42 1469.61 1931.6 1468.27 Q1933.84 1465.74 1934.72 1464.01 Q1935.62 1462.25 1935.62 1460.56 Q1935.62 1457.8 1933.68 1456.07 Q1931.76 1454.33 1928.66 1454.33 Q1926.46 1454.33 1924 1455.09 Q1921.57 1455.86 1918.8 1457.41 L1918.8 1452.69 Q1921.62 1451.55 1924.07 1450.97 Q1926.53 1450.39 1928.56 1450.39 Q1933.93 1450.39 1937.13 1453.08 Q1940.32 1455.77 1940.32 1460.26 Q1940.32 1462.39 1939.51 1464.31 Q1938.73 1466.2 1936.62 1468.8 Q1936.04 1469.47 1932.94 1472.69 Q1929.84 1475.88 1924.19 1481.64 Z" fill="#000000" fill-rule="nonzero" fill-opacity="1" /><path clip-path="url(#clip560)" d="M1960.32 1454.1 Q1956.71 1454.1 1954.88 1457.66 Q1953.08 1461.2 1953.08 1468.33 Q1953.08 1475.44 1954.88 1479.01 Q1956.71 1482.55 1960.32 1482.55 Q1963.96 1482.55 1965.76 1479.01 Q1967.59 1475.44 1967.59 1468.33 Q1967.59 1461.2 1965.76 1457.66 Q1963.96 1454.1 1960.32 1454.1 M1960.32 1450.39 Q1966.13 1450.39 1969.19 1455 Q1972.27 1459.58 1972.27 1468.33 Q1972.27 1477.06 1969.19 1481.67 Q1966.13 1486.25 1960.32 1486.25 Q1954.51 1486.25 1951.43 1481.67 Q1948.38 1477.06 1948.38 1468.33 Q1948.38 1459.58 1951.43 1455 Q1954.51 1450.39 1960.32 1450.39 Z" fill="#000000" fill-rule="nonzero" fill-opacity="1" /><path clip-path="url(#clip560)" d="M1106.52 1520.52 L1146.72 1520.52 L1146.72 1525.93 L1129.85 1525.93 L1129.85 1568.04 L1123.39 1568.04 L1123.39 1525.93 L1106.52 1525.93 L1106.52 1520.52 Z" fill="#000000" fill-rule="nonzero" fill-opacity="1" /><path clip-path="url(#clip560)" d="M1150.66 1532.4 L1156.52 1532.4 L1156.52 1568.04 L1150.66 1568.04 L1150.66 1532.4 M1150.66 1518.52 L1156.52 1518.52 L1156.52 1525.93 L1150.66 1525.93 L1150.66 1518.52 Z" fill="#000000" fill-rule="nonzero" fill-opacity="1" /><path clip-path="url(#clip560)" d="M1196.53 1539.24 Q1198.72 1535.29 1201.78 1533.41 Q1204.84 1531.54 1208.97 1531.54 Q1214.54 1531.54 1217.57 1535.45 Q1220.59 1539.33 1220.59 1546.53 L1220.59 1568.04 L1214.7 1568.04 L1214.7 1546.72 Q1214.7 1541.59 1212.89 1539.11 Q1211.07 1536.63 1207.35 1536.63 Q1202.8 1536.63 1200.16 1539.65 Q1197.52 1542.68 1197.52 1547.9 L1197.52 1568.04 L1191.63 1568.04 L1191.63 1546.72 Q1191.63 1541.56 1189.81 1539.11 Q1188 1536.63 1184.21 1536.63 Q1179.72 1536.63 1177.08 1539.68 Q1174.44 1542.71 1174.44 1547.9 L1174.44 1568.04 L1168.55 1568.04 L1168.55 1532.4 L1174.44 1532.4 L1174.44 1537.93 Q1176.44 1534.66 1179.25 1533.1 Q1182.05 1531.54 1185.9 1531.54 Q1189.78 1531.54 1192.49 1533.51 Q1195.22 1535.48 1196.53 1539.24 Z" fill="#000000" fill-rule="nonzero" fill-opacity="1" /><path clip-path="url(#clip560)" d="M1262.76 1548.76 L1262.76 1551.62 L1235.84 1551.62 Q1236.22 1557.67 1239.47 1560.85 Q1242.74 1564 1248.57 1564 Q1251.94 1564 1255.09 1563.17 Q1258.28 1562.35 1261.4 1560.69 L1261.4 1566.23 Q1258.24 1567.57 1254.93 1568.27 Q1251.62 1568.97 1248.22 1568.97 Q1239.69 1568.97 1234.69 1564 Q1229.73 1559.04 1229.73 1550.57 Q1229.73 1541.82 1234.44 1536.69 Q1239.18 1531.54 1247.2 1531.54 Q1254.39 1531.54 1258.56 1536.18 Q1262.76 1540.8 1262.76 1548.76 M1256.91 1547.04 Q1256.84 1542.23 1254.2 1539.37 Q1251.59 1536.5 1247.26 1536.5 Q1242.36 1536.5 1239.4 1539.27 Q1236.47 1542.04 1236.03 1547.07 L1256.91 1547.04 Z" fill="#000000" fill-rule="nonzero" fill-opacity="1" /><path clip-path="url(#clip560)" d="M1307.16 1518.58 Q1302.9 1525.9 1300.83 1533.06 Q1298.76 1540.23 1298.76 1547.58 Q1298.76 1554.93 1300.83 1562.16 Q1302.93 1569.35 1307.16 1576.64 L1302.07 1576.64 Q1297.3 1569.16 1294.91 1561.93 Q1292.56 1554.71 1292.56 1547.58 Q1292.56 1540.48 1294.91 1533.29 Q1297.27 1526.09 1302.07 1518.58 L1307.16 1518.58 Z" fill="#000000" fill-rule="nonzero" fill-opacity="1" /><path clip-path="url(#clip560)" d="M1348.16 1546.53 L1348.16 1568.04 L1342.3 1568.04 L1342.3 1546.72 Q1342.3 1541.66 1340.33 1539.14 Q1338.36 1536.63 1334.41 1536.63 Q1329.67 1536.63 1326.93 1539.65 Q1324.19 1542.68 1324.19 1547.9 L1324.19 1568.04 L1318.3 1568.04 L1318.3 1518.52 L1324.19 1518.52 L1324.19 1537.93 Q1326.29 1534.72 1329.13 1533.13 Q1331.99 1531.54 1335.71 1531.54 Q1341.86 1531.54 1345.01 1535.36 Q1348.16 1539.14 1348.16 1546.53 Z" fill="#000000" fill-rule="nonzero" fill-opacity="1" /><path clip-path="url(#clip560)" d="M1373.65 1536.5 Q1368.94 1536.5 1366.21 1540.19 Q1363.47 1543.85 1363.47 1550.25 Q1363.47 1556.65 1366.17 1560.34 Q1368.91 1564 1373.65 1564 Q1378.33 1564 1381.07 1560.31 Q1383.81 1556.62 1383.81 1550.25 Q1383.81 1543.92 1381.07 1540.23 Q1378.33 1536.5 1373.65 1536.5 M1373.65 1531.54 Q1381.29 1531.54 1385.65 1536.5 Q1390.01 1541.47 1390.01 1550.25 Q1390.01 1559 1385.65 1564 Q1381.29 1568.97 1373.65 1568.97 Q1365.98 1568.97 1361.62 1564 Q1357.29 1559 1357.29 1550.25 Q1357.29 1541.47 1361.62 1536.5 Q1365.98 1531.54 1373.65 1531.54 Z" fill="#000000" fill-rule="nonzero" fill-opacity="1" /><path clip-path="url(#clip560)" d="M1399.12 1553.98 L1399.12 1532.4 L1404.97 1532.4 L1404.97 1553.75 Q1404.97 1558.81 1406.95 1561.36 Q1408.92 1563.87 1412.87 1563.87 Q1417.61 1563.87 1420.35 1560.85 Q1423.12 1557.83 1423.12 1552.61 L1423.12 1532.4 L1428.97 1532.4 L1428.97 1568.04 L1423.12 1568.04 L1423.12 1562.57 Q1420.98 1565.82 1418.15 1567.41 Q1415.35 1568.97 1411.63 1568.97 Q1405.48 1568.97 1402.3 1565.15 Q1399.12 1561.33 1399.12 1553.98 M1413.85 1531.54 L1413.85 1531.54 Z" fill="#000000" fill-rule="nonzero" fill-opacity="1" /><path clip-path="url(#clip560)" d="M1461.69 1537.87 Q1460.71 1537.3 1459.53 1537.04 Q1458.38 1536.76 1456.98 1536.76 Q1452.02 1536.76 1449.34 1540 Q1446.7 1543.22 1446.7 1549.27 L1446.7 1568.04 L1440.81 1568.04 L1440.81 1532.4 L1446.7 1532.4 L1446.7 1537.93 Q1448.55 1534.69 1451.51 1533.13 Q1454.47 1531.54 1458.7 1531.54 Q1459.3 1531.54 1460.04 1531.63 Q1460.77 1531.7 1461.66 1531.85 L1461.69 1537.87 Z" fill="#000000" fill-rule="nonzero" fill-opacity="1" /><path clip-path="url(#clip560)" d="M1466.91 1518.58 L1472 1518.58 Q1476.78 1526.09 1479.13 1533.29 Q1481.52 1540.48 1481.52 1547.58 Q1481.52 1554.71 1479.13 1561.93 Q1476.78 1569.16 1472 1576.64 L1466.91 1576.64 Q1471.15 1569.35 1473.21 1562.16 Q1475.31 1554.93 1475.31 1547.58 Q1475.31 1540.23 1473.21 1533.06 Q1471.15 1525.9 1466.91 1518.58 Z" fill="#000000" fill-rule="nonzero" fill-opacity="1" /><polyline clip-path="url(#clip562)" style="stroke:#000000; stroke-linecap:round; stroke-linejoin:round; stroke-width:2; stroke-opacity:0.1; fill:none" points="235.283,1393.17 2352.76,1393.17 "/>
<polyline clip-path="url(#clip562)" style="stroke:#000000; stroke-linecap:round; stroke-linejoin:round; stroke-width:2; stroke-opacity:0.1; fill:none" points="235.283,1064.22 2352.76,1064.22 "/>
<polyline clip-path="url(#clip562)" style="stroke:#000000; stroke-linecap:round; stroke-linejoin:round; stroke-width:2; stroke-opacity:0.1; fill:none" points="235.283,735.259 2352.76,735.259 "/>
<polyline clip-path="url(#clip562)" style="stroke:#000000; stroke-linecap:round; stroke-linejoin:round; stroke-width:2; stroke-opacity:0.1; fill:none" points="235.283,406.302 2352.76,406.302 "/>
<polyline clip-path="url(#clip560)" style="stroke:#000000; stroke-linecap:round; stroke-linejoin:round; stroke-width:4; stroke-opacity:1; fill:none" points="235.283,1423.18 235.283,123.472 "/>
<polyline clip-path="url(#clip560)" style="stroke:#000000; stroke-linecap:round; stroke-linejoin:round; stroke-width:4; stroke-opacity:1; fill:none" points="235.283,1393.17 254.18,1393.17 "/>
<polyline clip-path="url(#clip560)" style="stroke:#000000; stroke-linecap:round; stroke-linejoin:round; stroke-width:4; stroke-opacity:1; fill:none" points="235.283,1064.22 254.18,1064.22 "/>
<polyline clip-path="url(#clip560)" style="stroke:#000000; stroke-linecap:round; stroke-linejoin:round; stroke-width:4; stroke-opacity:1; fill:none" points="235.283,735.259 254.18,735.259 "/>
<polyline clip-path="url(#clip560)" style="stroke:#000000; stroke-linecap:round; stroke-linejoin:round; stroke-width:4; stroke-opacity:1; fill:none" points="235.283,406.302 254.18,406.302 "/>
<path clip-path="url(#clip560)" d="M129.862 1379.97 L118.056 1398.41 L129.862 1398.41 L129.862 1379.97 M128.635 1375.89 L134.515 1375.89 L134.515 1398.41 L139.445 1398.41 L139.445 1402.3 L134.515 1402.3 L134.515 1410.45 L129.862 1410.45 L129.862 1402.3 L114.26 1402.3 L114.26 1397.79 L128.635 1375.89 Z" fill="#000000" fill-rule="nonzero" fill-opacity="1" /><path clip-path="url(#clip560)" d="M157.177 1378.97 Q153.566 1378.97 151.737 1382.53 Q149.931 1386.08 149.931 1393.21 Q149.931 1400.31 151.737 1403.88 Q153.566 1407.42 157.177 1407.42 Q160.811 1407.42 162.616 1403.88 Q164.445 1400.31 164.445 1393.21 Q164.445 1386.08 162.616 1382.53 Q160.811 1378.97 157.177 1378.97 M157.177 1375.27 Q162.987 1375.27 166.042 1379.87 Q169.121 1384.46 169.121 1393.21 Q169.121 1401.93 166.042 1406.54 Q162.987 1411.12 157.177 1411.12 Q151.366 1411.12 148.288 1406.54 Q145.232 1401.93 145.232 1393.21 Q145.232 1384.46 148.288 1379.87 Q151.366 1375.27 157.177 1375.27 Z" fill="#000000" fill-rule="nonzero" fill-opacity="1" /><path clip-path="url(#clip560)" d="M187.338 1378.97 Q183.727 1378.97 181.899 1382.53 Q180.093 1386.08 180.093 1393.21 Q180.093 1400.31 181.899 1403.88 Q183.727 1407.42 187.338 1407.42 Q190.973 1407.42 192.778 1403.88 Q194.607 1400.31 194.607 1393.21 Q194.607 1386.08 192.778 1382.53 Q190.973 1378.97 187.338 1378.97 M187.338 1375.27 Q193.149 1375.27 196.204 1379.87 Q199.283 1384.46 199.283 1393.21 Q199.283 1401.93 196.204 1406.54 Q193.149 1411.12 187.338 1411.12 Q181.528 1411.12 178.45 1406.54 Q175.394 1401.93 175.394 1393.21 Q175.394 1384.46 178.45 1379.87 Q181.528 1375.27 187.338 1375.27 Z" fill="#000000" fill-rule="nonzero" fill-opacity="1" /><path clip-path="url(#clip560)" d="M129.862 1051.01 L118.056 1069.46 L129.862 1069.46 L129.862 1051.01 M128.635 1046.94 L134.515 1046.94 L134.515 1069.46 L139.445 1069.46 L139.445 1073.35 L134.515 1073.35 L134.515 1081.5 L129.862 1081.5 L129.862 1073.35 L114.26 1073.35 L114.26 1068.83 L128.635 1046.94 Z" fill="#000000" fill-rule="nonzero" fill-opacity="1" /><path clip-path="url(#clip560)" d="M147.223 1046.94 L165.579 1046.94 L165.579 1050.87 L151.505 1050.87 L151.505 1059.34 Q152.524 1059 153.542 1058.83 Q154.561 1058.65 155.579 1058.65 Q161.366 1058.65 164.746 1061.82 Q168.126 1064.99 168.126 1070.41 Q168.126 1075.99 164.653 1079.09 Q161.181 1082.17 154.862 1082.17 Q152.686 1082.17 150.417 1081.8 Q148.172 1081.43 145.765 1080.68 L145.765 1075.99 Q147.848 1077.12 150.07 1077.68 Q152.292 1078.23 154.769 1078.23 Q158.774 1078.23 161.112 1076.12 Q163.45 1074.02 163.45 1070.41 Q163.45 1066.8 161.112 1064.69 Q158.774 1062.58 154.769 1062.58 Q152.894 1062.58 151.019 1063 Q149.167 1063.42 147.223 1064.3 L147.223 1046.94 Z" fill="#000000" fill-rule="nonzero" fill-opacity="1" /><path clip-path="url(#clip560)" d="M187.338 1050.01 Q183.727 1050.01 181.899 1053.58 Q180.093 1057.12 180.093 1064.25 Q180.093 1071.36 181.899 1074.92 Q183.727 1078.46 187.338 1078.46 Q190.973 1078.46 192.778 1074.92 Q194.607 1071.36 194.607 1064.25 Q194.607 1057.12 192.778 1053.58 Q190.973 1050.01 187.338 1050.01 M187.338 1046.31 Q193.149 1046.31 196.204 1050.92 Q199.283 1055.5 199.283 1064.25 Q199.283 1072.98 196.204 1077.58 Q193.149 1082.17 187.338 1082.17 Q181.528 1082.17 178.45 1077.58 Q175.394 1072.98 175.394 1064.25 Q175.394 1055.5 178.45 1050.92 Q181.528 1046.31 187.338 1046.31 Z" fill="#000000" fill-rule="nonzero" fill-opacity="1" /><path clip-path="url(#clip560)" d="M117.061 717.979 L135.417 717.979 L135.417 721.914 L121.343 721.914 L121.343 730.386 Q122.362 730.039 123.38 729.877 Q124.399 729.692 125.418 729.692 Q131.205 729.692 134.584 732.863 Q137.964 736.034 137.964 741.451 Q137.964 747.029 134.492 750.131 Q131.019 753.21 124.7 753.21 Q122.524 753.21 120.255 752.84 Q118.01 752.469 115.603 751.729 L115.603 747.029 Q117.686 748.164 119.908 748.719 Q122.13 749.275 124.607 749.275 Q128.612 749.275 130.95 747.168 Q133.288 745.062 133.288 741.451 Q133.288 737.84 130.95 735.733 Q128.612 733.627 124.607 733.627 Q122.732 733.627 120.857 734.043 Q119.006 734.46 117.061 735.34 L117.061 717.979 Z" fill="#000000" fill-rule="nonzero" fill-opacity="1" /><path clip-path="url(#clip560)" d="M157.177 721.057 Q153.566 721.057 151.737 724.622 Q149.931 728.164 149.931 735.293 Q149.931 742.4 151.737 745.965 Q153.566 749.506 157.177 749.506 Q160.811 749.506 162.616 745.965 Q164.445 742.4 164.445 735.293 Q164.445 728.164 162.616 724.622 Q160.811 721.057 157.177 721.057 M157.177 717.354 Q162.987 717.354 166.042 721.96 Q169.121 726.543 169.121 735.293 Q169.121 744.02 166.042 748.627 Q162.987 753.21 157.177 753.21 Q151.366 753.21 148.288 748.627 Q145.232 744.02 145.232 735.293 Q145.232 726.543 148.288 721.96 Q151.366 717.354 157.177 717.354 Z" fill="#000000" fill-rule="nonzero" fill-opacity="1" /><path clip-path="url(#clip560)" d="M187.338 721.057 Q183.727 721.057 181.899 724.622 Q180.093 728.164 180.093 735.293 Q180.093 742.4 181.899 745.965 Q183.727 749.506 187.338 749.506 Q190.973 749.506 192.778 745.965 Q194.607 742.4 194.607 735.293 Q194.607 728.164 192.778 724.622 Q190.973 721.057 187.338 721.057 M187.338 717.354 Q193.149 717.354 196.204 721.96 Q199.283 726.543 199.283 735.293 Q199.283 744.02 196.204 748.627 Q193.149 753.21 187.338 753.21 Q181.528 753.21 178.45 748.627 Q175.394 744.02 175.394 735.293 Q175.394 726.543 178.45 721.96 Q181.528 717.354 187.338 717.354 Z" fill="#000000" fill-rule="nonzero" fill-opacity="1" /><path clip-path="url(#clip560)" d="M117.061 389.022 L135.417 389.022 L135.417 392.958 L121.343 392.958 L121.343 401.43 Q122.362 401.083 123.38 400.92 Q124.399 400.735 125.418 400.735 Q131.205 400.735 134.584 403.907 Q137.964 407.078 137.964 412.495 Q137.964 418.073 134.492 421.175 Q131.019 424.254 124.7 424.254 Q122.524 424.254 120.255 423.883 Q118.01 423.513 115.603 422.772 L115.603 418.073 Q117.686 419.207 119.908 419.763 Q122.13 420.319 124.607 420.319 Q128.612 420.319 130.95 418.212 Q133.288 416.106 133.288 412.495 Q133.288 408.883 130.95 406.777 Q128.612 404.67 124.607 404.67 Q122.732 404.67 120.857 405.087 Q119.006 405.504 117.061 406.383 L117.061 389.022 Z" fill="#000000" fill-rule="nonzero" fill-opacity="1" /><path clip-path="url(#clip560)" d="M147.223 389.022 L165.579 389.022 L165.579 392.958 L151.505 392.958 L151.505 401.43 Q152.524 401.083 153.542 400.92 Q154.561 400.735 155.579 400.735 Q161.366 400.735 164.746 403.907 Q168.126 407.078 168.126 412.495 Q168.126 418.073 164.653 421.175 Q161.181 424.254 154.862 424.254 Q152.686 424.254 150.417 423.883 Q148.172 423.513 145.765 422.772 L145.765 418.073 Q147.848 419.207 150.07 419.763 Q152.292 420.319 154.769 420.319 Q158.774 420.319 161.112 418.212 Q163.45 416.106 163.45 412.495 Q163.45 408.883 161.112 406.777 Q158.774 404.67 154.769 404.67 Q152.894 404.67 151.019 405.087 Q149.167 405.504 147.223 406.383 L147.223 389.022 Z" fill="#000000" fill-rule="nonzero" fill-opacity="1" /><path clip-path="url(#clip560)" d="M187.338 392.101 Q183.727 392.101 181.899 395.666 Q180.093 399.208 180.093 406.337 Q180.093 413.444 181.899 417.008 Q183.727 420.55 187.338 420.55 Q190.973 420.55 192.778 417.008 Q194.607 413.444 194.607 406.337 Q194.607 399.208 192.778 395.666 Q190.973 392.101 187.338 392.101 M187.338 388.397 Q193.149 388.397 196.204 393.004 Q199.283 397.587 199.283 406.337 Q199.283 415.064 196.204 419.67 Q193.149 424.254 187.338 424.254 Q181.528 424.254 178.45 419.67 Q175.394 415.064 175.394 406.337 Q175.394 397.587 178.45 393.004 Q181.528 388.397 187.338 388.397 Z" fill="#000000" fill-rule="nonzero" fill-opacity="1" /><path clip-path="url(#clip560)" d="M57.2247 1104.1 L44.4614 1104.1 L44.4614 1114.61 L39.1779 1114.61 L39.1779 1097.74 L59.58 1097.74 Q62.2218 1101.46 63.5904 1105.95 Q64.9272 1110.44 64.9272 1115.53 Q64.9272 1126.67 58.4342 1132.97 Q51.9093 1139.24 40.2919 1139.24 Q28.6427 1139.24 22.1496 1132.97 Q15.6248 1126.67 15.6248 1115.53 Q15.6248 1110.88 16.7706 1106.71 Q17.9164 1102.51 20.1444 1098.98 L26.9876 1098.98 Q23.9639 1102.54 22.4361 1106.55 Q20.9083 1110.57 20.9083 1114.99 Q20.9083 1123.71 25.7781 1128.1 Q30.6479 1132.46 40.2919 1132.46 Q49.9041 1132.46 54.7739 1128.1 Q59.6436 1123.71 59.6436 1114.99 Q59.6436 1111.58 59.0707 1108.91 Q58.466 1106.24 57.2247 1104.1 Z" fill="#000000" fill-rule="nonzero" fill-opacity="1" /><path clip-path="url(#clip560)" d="M44.7161 1055.76 L47.5806 1055.76 L47.5806 1082.68 Q53.6281 1082.3 56.8109 1079.05 Q59.9619 1075.78 59.9619 1069.95 Q59.9619 1066.58 59.1344 1063.43 Q58.3069 1060.24 56.6518 1057.13 L62.1899 1057.13 Q63.5267 1060.28 64.227 1063.59 Q64.9272 1066.9 64.9272 1070.3 Q64.9272 1078.83 59.9619 1083.83 Q54.9967 1088.79 46.5303 1088.79 Q37.7774 1088.79 32.6531 1084.08 Q27.4968 1079.34 27.4968 1071.32 Q27.4968 1064.13 32.1438 1059.96 Q36.7589 1055.76 44.7161 1055.76 M42.9973 1061.61 Q38.1912 1061.68 35.3266 1064.32 Q32.4621 1066.93 32.4621 1071.26 Q32.4621 1076.16 35.2312 1079.12 Q38.0002 1082.05 43.0292 1082.49 L42.9973 1061.61 Z" fill="#000000" fill-rule="nonzero" fill-opacity="1" /><path clip-path="url(#clip560)" d="M42.4881 1016.51 L64.0042 1016.51 L64.0042 1022.37 L42.679 1022.37 Q37.6183 1022.37 35.1038 1024.34 Q32.5894 1026.32 32.5894 1030.26 Q32.5894 1035 35.6131 1037.74 Q38.6368 1040.48 43.8567 1040.48 L64.0042 1040.48 L64.0042 1046.37 L28.3562 1046.37 L28.3562 1040.48 L33.8944 1040.48 Q30.6797 1038.38 29.0883 1035.55 Q27.4968 1032.68 27.4968 1028.96 Q27.4968 1022.81 31.3163 1019.66 Q35.1038 1016.51 42.4881 1016.51 Z" fill="#000000" fill-rule="nonzero" fill-opacity="1" /><path clip-path="url(#clip560)" d="M44.7161 974.339 L47.5806 974.339 L47.5806 1001.27 Q53.6281 1000.88 56.8109 997.638 Q59.9619 994.359 59.9619 988.535 Q59.9619 985.161 59.1344 982.01 Q58.3069 978.827 56.6518 975.708 L62.1899 975.708 Q63.5267 978.859 64.227 982.169 Q64.9272 985.479 64.9272 988.885 Q64.9272 997.415 59.9619 1002.41 Q54.9967 1007.38 46.5303 1007.38 Q37.7774 1007.38 32.6531 1002.67 Q27.4968 997.924 27.4968 989.903 Q27.4968 982.71 32.1438 978.54 Q36.7589 974.339 44.7161 974.339 M42.9973 980.196 Q38.1912 980.259 35.3266 982.901 Q32.4621 985.511 32.4621 989.84 Q32.4621 994.741 35.2312 997.701 Q38.0002 1000.63 43.0292 1001.08 L42.9973 980.196 Z" fill="#000000" fill-rule="nonzero" fill-opacity="1" /><path clip-path="url(#clip560)" d="M33.8307 944.07 Q33.2578 945.057 33.0032 946.234 Q32.7167 947.38 32.7167 948.781 Q32.7167 953.746 35.9632 956.42 Q39.1779 959.061 45.2253 959.061 L64.0042 959.061 L64.0042 964.95 L28.3562 964.95 L28.3562 959.061 L33.8944 959.061 Q30.6479 957.215 29.0883 954.255 Q27.4968 951.295 27.4968 947.062 Q27.4968 946.457 27.5923 945.725 Q27.656 944.993 27.8151 944.102 L33.8307 944.07 Z" fill="#000000" fill-rule="nonzero" fill-opacity="1" /><path clip-path="url(#clip560)" d="M46.0847 921.727 Q46.0847 928.824 47.7079 931.562 Q49.3312 934.299 53.2461 934.299 Q56.3653 934.299 58.2114 932.262 Q60.0256 930.193 60.0256 926.66 Q60.0256 921.79 56.5881 918.862 Q53.1188 915.902 47.3897 915.902 L46.0847 915.902 L46.0847 921.727 M43.6657 910.045 L64.0042 910.045 L64.0042 915.902 L58.5933 915.902 Q61.8398 917.907 63.3994 920.899 Q64.9272 923.891 64.9272 928.22 Q64.9272 933.694 61.8716 936.941 Q58.7843 940.155 53.6281 940.155 Q47.6125 940.155 44.5569 936.145 Q41.5014 932.103 41.5014 924.114 L41.5014 915.902 L40.9285 915.902 Q36.8862 915.902 34.6901 918.575 Q32.4621 921.217 32.4621 926.023 Q32.4621 929.079 33.1941 931.975 Q33.9262 934.872 35.3903 937.545 L29.9795 937.545 Q28.7381 934.331 28.1334 931.307 Q27.4968 928.283 27.4968 925.419 Q27.4968 917.684 31.5072 913.865 Q35.5176 910.045 43.6657 910.045 Z" fill="#000000" fill-rule="nonzero" fill-opacity="1" /><path clip-path="url(#clip560)" d="M18.2347 892.19 L28.3562 892.19 L28.3562 880.127 L32.9077 880.127 L32.9077 892.19 L52.2594 892.19 Q56.6199 892.19 57.8613 891.012 Q59.1026 889.803 59.1026 886.142 L59.1026 880.127 L64.0042 880.127 L64.0042 886.142 Q64.0042 892.922 61.4897 895.5 Q58.9434 898.078 52.2594 898.078 L32.9077 898.078 L32.9077 902.375 L28.3562 902.375 L28.3562 898.078 L18.2347 898.078 L18.2347 892.19 Z" fill="#000000" fill-rule="nonzero" fill-opacity="1" /><path clip-path="url(#clip560)" d="M32.4621 858.611 Q32.4621 863.321 36.1542 866.058 Q39.8145 868.796 46.212 868.796 Q52.6095 868.796 56.3017 866.09 Q59.9619 863.353 59.9619 858.611 Q59.9619 853.932 56.2698 851.194 Q52.5777 848.457 46.212 848.457 Q39.8781 848.457 36.186 851.194 Q32.4621 853.932 32.4621 858.611 M27.4968 858.611 Q27.4968 850.972 32.4621 846.611 Q37.4273 842.251 46.212 842.251 Q54.9649 842.251 59.9619 846.611 Q64.9272 850.972 64.9272 858.611 Q64.9272 866.281 59.9619 870.642 Q54.9649 874.97 46.212 874.97 Q37.4273 874.97 32.4621 870.642 Q27.4968 866.281 27.4968 858.611 Z" fill="#000000" fill-rule="nonzero" fill-opacity="1" /><path clip-path="url(#clip560)" d="M33.8307 811.886 Q33.2578 812.873 33.0032 814.051 Q32.7167 815.196 32.7167 816.597 Q32.7167 821.562 35.9632 824.236 Q39.1779 826.877 45.2253 826.877 L64.0042 826.877 L64.0042 832.766 L28.3562 832.766 L28.3562 826.877 L33.8944 826.877 Q30.6479 825.031 29.0883 822.071 Q27.4968 819.111 27.4968 814.878 Q27.4968 814.273 27.5923 813.541 Q27.656 812.809 27.8151 811.918 L33.8307 811.886 Z" fill="#000000" fill-rule="nonzero" fill-opacity="1" /><path clip-path="url(#clip560)" d="M21.7677 778.339 L39.6235 778.339 L39.6235 770.255 Q39.6235 765.767 37.3 763.316 Q34.9765 760.865 30.6797 760.865 Q26.4147 760.865 24.0912 763.316 Q21.7677 765.767 21.7677 770.255 L21.7677 778.339 M16.4842 784.768 L16.4842 770.255 Q16.4842 762.266 20.1126 758.192 Q23.7092 754.086 30.6797 754.086 Q37.7138 754.086 41.3104 758.192 Q44.907 762.266 44.907 770.255 L44.907 778.339 L64.0042 778.339 L64.0042 784.768 L16.4842 784.768 Z" fill="#000000" fill-rule="nonzero" fill-opacity="1" /><path clip-path="url(#clip560)" d="M32.4621 734.225 Q32.4621 738.935 36.1542 741.673 Q39.8145 744.41 46.212 744.41 Q52.6095 744.41 56.3017 741.704 Q59.9619 738.967 59.9619 734.225 Q59.9619 729.546 56.2698 726.809 Q52.5777 724.071 46.212 724.071 Q39.8781 724.071 36.186 726.809 Q32.4621 729.546 32.4621 734.225 M27.4968 734.225 Q27.4968 726.586 32.4621 722.225 Q37.4273 717.865 46.212 717.865 Q54.9649 717.865 59.9619 722.225 Q64.9272 726.586 64.9272 734.225 Q64.9272 741.895 59.9619 746.256 Q54.9649 750.584 46.212 750.584 Q37.4273 750.584 32.4621 746.256 Q27.4968 741.895 27.4968 734.225 Z" fill="#000000" fill-rule="nonzero" fill-opacity="1" /><path clip-path="url(#clip560)" d="M28.3562 711.563 L28.3562 705.706 L56.1743 698.386 L28.3562 691.097 L28.3562 684.19 L56.1743 676.87 L28.3562 669.581 L28.3562 663.724 L64.0042 673.05 L64.0042 679.957 L34.7856 687.628 L64.0042 695.33 L64.0042 702.237 L28.3562 711.563 Z" fill="#000000" fill-rule="nonzero" fill-opacity="1" /><path clip-path="url(#clip560)" d="M44.7161 624.353 L47.5806 624.353 L47.5806 651.279 Q53.6281 650.898 56.8109 647.651 Q59.9619 644.373 59.9619 638.548 Q59.9619 635.174 59.1344 632.023 Q58.3069 628.84 56.6518 625.721 L62.1899 625.721 Q63.5267 628.872 64.227 632.182 Q64.9272 635.493 64.9272 638.898 Q64.9272 647.428 59.9619 652.425 Q54.9967 657.391 46.5303 657.391 Q37.7774 657.391 32.6531 652.68 Q27.4968 647.937 27.4968 639.917 Q27.4968 632.723 32.1438 628.554 Q36.7589 624.353 44.7161 624.353 M42.9973 630.209 Q38.1912 630.273 35.3266 632.914 Q32.4621 635.524 32.4621 639.853 Q32.4621 644.755 35.2312 647.715 Q38.0002 650.643 43.0292 651.089 L42.9973 630.209 Z" fill="#000000" fill-rule="nonzero" fill-opacity="1" /><path clip-path="url(#clip560)" d="M33.8307 594.084 Q33.2578 595.07 33.0032 596.248 Q32.7167 597.394 32.7167 598.794 Q32.7167 603.759 35.9632 606.433 Q39.1779 609.075 45.2253 609.075 L64.0042 609.075 L64.0042 614.963 L28.3562 614.963 L28.3562 609.075 L33.8944 609.075 Q30.6479 607.229 29.0883 604.269 Q27.4968 601.309 27.4968 597.075 Q27.4968 596.471 27.5923 595.739 Q27.656 595.007 27.8151 594.115 L33.8307 594.084 Z" fill="#000000" fill-rule="nonzero" fill-opacity="1" /><path clip-path="url(#clip560)" d="M14.5426 553.152 Q21.8632 557.417 29.0246 559.486 Q36.186 561.555 43.5384 561.555 Q50.8908 561.555 58.1159 559.486 Q65.3091 557.385 72.5979 553.152 L72.5979 558.245 Q65.1182 563.019 57.8931 565.406 Q50.668 567.761 43.5384 567.761 Q36.4406 567.761 29.2474 565.406 Q22.0542 563.051 14.5426 558.245 L14.5426 553.152 Z" fill="#000000" fill-rule="nonzero" fill-opacity="1" /><path clip-path="url(#clip560)" d="M16.4842 541.535 L16.4842 531.954 L48.8219 519.828 L16.4842 507.637 L16.4842 498.057 L64.0042 498.057 L64.0042 504.327 L22.277 504.327 L54.8694 516.581 L54.8694 523.042 L22.277 535.296 L64.0042 535.296 L64.0042 541.535 L16.4842 541.535 Z" fill="#000000" fill-rule="nonzero" fill-opacity="1" /><path clip-path="url(#clip560)" d="M16.4842 489.527 L16.4842 483.034 L56.6518 473.04 L16.4842 463.077 L16.4842 455.852 L56.6518 445.858 L16.4842 435.896 L16.4842 429.371 L64.0042 441.307 L64.0042 449.391 L22.7544 459.417 L64.0042 469.539 L64.0042 477.623 L16.4842 489.527 Z" fill="#000000" fill-rule="nonzero" fill-opacity="1" /><path clip-path="url(#clip560)" d="M14.5426 422.019 L14.5426 416.926 Q22.0542 412.152 29.2474 409.796 Q36.4406 407.409 43.5384 407.409 Q50.668 407.409 57.8931 409.796 Q65.1182 412.152 72.5979 416.926 L72.5979 422.019 Q65.3091 417.785 58.1159 415.716 Q50.8908 413.616 43.5384 413.616 Q36.186 413.616 29.0246 415.716 Q21.8632 417.785 14.5426 422.019 Z" fill="#000000" fill-rule="nonzero" fill-opacity="1" /><path clip-path="url(#clip560)" d="M308.799 63.9476 L308.799 47.7034 L295.431 47.7034 L295.431 40.9789 L316.901 40.9789 L316.901 66.9452 Q312.161 70.3075 306.449 72.0494 Q300.738 73.7508 294.256 73.7508 Q280.078 73.7508 272.057 65.4869 Q264.077 57.1826 264.077 42.3968 Q264.077 27.5705 272.057 19.3066 Q280.078 11.0023 294.256 11.0023 Q300.171 11.0023 305.477 12.4606 Q310.824 13.9189 315.321 16.7545 L315.321 25.464 Q310.784 21.6156 305.68 19.6712 Q300.576 17.7268 294.945 17.7268 Q283.845 17.7268 278.255 23.9246 Q272.705 30.1225 272.705 42.3968 Q272.705 54.6305 278.255 60.8284 Q283.845 67.0263 294.945 67.0263 Q299.279 67.0263 302.682 66.2971 Q306.085 65.5274 308.799 63.9476 Z" fill="#000000" fill-rule="nonzero" fill-opacity="1" /><path clip-path="url(#clip560)" d="M370.332 48.0275 L370.332 51.6733 L336.062 51.6733 Q336.548 59.3701 340.68 63.421 Q344.852 67.4314 352.265 67.4314 Q356.559 67.4314 360.57 66.3781 Q364.62 65.3249 368.59 63.2184 L368.59 70.267 Q364.58 71.9684 360.367 72.8596 Q356.154 73.7508 351.82 73.7508 Q340.963 73.7508 334.603 67.4314 Q328.284 61.1119 328.284 50.3365 Q328.284 39.1965 334.279 32.6746 Q340.315 26.1121 350.523 26.1121 Q359.678 26.1121 364.985 32.0264 Q370.332 37.9003 370.332 48.0275 M362.879 45.84 Q362.798 39.7232 359.435 36.0774 Q356.114 32.4315 350.604 32.4315 Q344.366 32.4315 340.599 35.9558 Q336.872 39.4801 336.305 45.8805 L362.879 45.84 Z" fill="#000000" fill-rule="nonzero" fill-opacity="1" /><path clip-path="url(#clip560)" d="M420.28 45.1919 L420.28 72.576 L412.826 72.576 L412.826 45.4349 Q412.826 38.994 410.315 35.7938 Q407.803 32.5936 402.78 32.5936 Q396.744 32.5936 393.26 36.4419 Q389.777 40.2903 389.777 46.9338 L389.777 72.576 L382.282 72.576 L382.282 27.2059 L389.777 27.2059 L389.777 34.2544 Q392.45 30.163 396.055 28.1376 Q399.701 26.1121 404.441 26.1121 Q412.259 26.1121 416.269 30.9732 Q420.28 35.7938 420.28 45.1919 Z" fill="#000000" fill-rule="nonzero" fill-opacity="1" /><path clip-path="url(#clip560)" d="M473.954 48.0275 L473.954 51.6733 L439.684 51.6733 Q440.17 59.3701 444.302 63.421 Q448.474 67.4314 455.887 67.4314 Q460.181 67.4314 464.192 66.3781 Q468.243 65.3249 472.212 63.2184 L472.212 70.267 Q468.202 71.9684 463.989 72.8596 Q459.776 73.7508 455.442 73.7508 Q444.585 73.7508 438.225 67.4314 Q431.906 61.1119 431.906 50.3365 Q431.906 39.1965 437.901 32.6746 Q443.937 26.1121 454.145 26.1121 Q463.3 26.1121 468.607 32.0264 Q473.954 37.9003 473.954 48.0275 M466.501 45.84 Q466.42 39.7232 463.057 36.0774 Q459.736 32.4315 454.226 32.4315 Q447.988 32.4315 444.221 35.9558 Q440.494 39.4801 439.927 45.8805 L466.501 45.84 Z" fill="#000000" fill-rule="nonzero" fill-opacity="1" /><path clip-path="url(#clip560)" d="M512.478 34.1734 Q511.223 33.4443 509.724 33.1202 Q508.265 32.7556 506.483 32.7556 Q500.164 32.7556 496.761 36.8875 Q493.399 40.9789 493.399 48.6757 L493.399 72.576 L485.904 72.576 L485.904 27.2059 L493.399 27.2059 L493.399 34.2544 Q495.748 30.1225 499.516 28.1376 Q503.283 26.1121 508.671 26.1121 Q509.44 26.1121 510.372 26.2337 Q511.304 26.3147 512.438 26.5172 L512.478 34.1734 Z" fill="#000000" fill-rule="nonzero" fill-opacity="1" /><path clip-path="url(#clip560)" d="M540.916 49.7694 Q531.882 49.7694 528.398 51.8354 Q524.915 53.9013 524.915 58.8839 Q524.915 62.8538 527.507 65.2034 Q530.14 67.5124 534.637 67.5124 Q540.835 67.5124 544.562 63.1374 Q548.329 58.7219 548.329 51.4303 L548.329 49.7694 L540.916 49.7694 M555.783 46.6907 L555.783 72.576 L548.329 72.576 L548.329 65.6895 Q545.777 69.8214 541.969 71.8063 Q538.161 73.7508 532.652 73.7508 Q525.684 73.7508 521.552 69.8619 Q517.461 65.9325 517.461 59.3701 Q517.461 51.7138 522.565 47.825 Q527.71 43.9361 537.878 43.9361 L548.329 43.9361 L548.329 43.2069 Q548.329 38.0623 544.926 35.2672 Q541.564 32.4315 535.447 32.4315 Q531.558 32.4315 527.872 33.3632 Q524.186 34.295 520.783 36.1584 L520.783 29.2718 Q524.874 27.692 528.723 26.9223 Q532.571 26.1121 536.217 26.1121 Q546.06 26.1121 550.922 31.2163 Q555.783 36.3204 555.783 46.6907 Z" fill="#000000" fill-rule="nonzero" fill-opacity="1" /><path clip-path="url(#clip560)" d="M578.508 14.324 L578.508 27.2059 L593.861 27.2059 L593.861 32.9987 L578.508 32.9987 L578.508 57.6282 Q578.508 63.1779 580.007 64.7578 Q581.546 66.3376 586.205 66.3376 L593.861 66.3376 L593.861 72.576 L586.205 72.576 Q577.576 72.576 574.295 69.3758 Q571.014 66.1351 571.014 57.6282 L571.014 32.9987 L565.545 32.9987 L565.545 27.2059 L571.014 27.2059 L571.014 14.324 L578.508 14.324 Z" fill="#000000" fill-rule="nonzero" fill-opacity="1" /><path clip-path="url(#clip560)" d="M621.245 32.4315 Q615.25 32.4315 611.766 37.1306 Q608.282 41.7891 608.282 49.9314 Q608.282 58.0738 611.726 62.7728 Q615.209 67.4314 621.245 67.4314 Q627.2 67.4314 630.684 62.7323 Q634.168 58.0333 634.168 49.9314 Q634.168 41.8701 630.684 37.1711 Q627.2 32.4315 621.245 32.4315 M621.245 26.1121 Q630.967 26.1121 636.517 32.4315 Q642.067 38.7509 642.067 49.9314 Q642.067 61.0714 636.517 67.4314 Q630.967 73.7508 621.245 73.7508 Q611.483 73.7508 605.933 67.4314 Q600.424 61.0714 600.424 49.9314 Q600.424 38.7509 605.933 32.4315 Q611.483 26.1121 621.245 26.1121 Z" fill="#000000" fill-rule="nonzero" fill-opacity="1" /><path clip-path="url(#clip560)" d="M680.712 34.1734 Q679.457 33.4443 677.958 33.1202 Q676.5 32.7556 674.717 32.7556 Q668.398 32.7556 664.995 36.8875 Q661.633 40.9789 661.633 48.6757 L661.633 72.576 L654.139 72.576 L654.139 27.2059 L661.633 27.2059 L661.633 34.2544 Q663.982 30.1225 667.75 28.1376 Q671.517 26.1121 676.905 26.1121 Q677.674 26.1121 678.606 26.2337 Q679.538 26.3147 680.672 26.5172 L680.712 34.1734 Z" fill="#000000" fill-rule="nonzero" fill-opacity="1" /><path clip-path="url(#clip560)" d="M717.454 28.5427 L717.454 35.5912 Q714.294 33.9709 710.892 33.1607 Q707.489 32.3505 703.843 32.3505 Q698.293 32.3505 695.498 34.0519 Q692.744 35.7533 692.744 39.156 Q692.744 41.7486 694.729 43.2475 Q696.714 44.7058 702.709 46.0426 L705.261 46.6097 Q713.201 48.3111 716.522 51.4303 Q719.885 54.509 719.885 60.0587 Q719.885 66.3781 714.862 70.0644 Q709.879 73.7508 701.129 73.7508 Q697.483 73.7508 693.513 73.0216 Q689.584 72.3329 685.209 70.9151 L685.209 63.2184 Q689.341 65.3654 693.351 66.4591 Q697.362 67.5124 701.291 67.5124 Q706.557 67.5124 709.393 65.73 Q712.229 63.9071 712.229 60.6258 Q712.229 57.5877 710.163 55.9673 Q708.137 54.3469 701.21 52.8481 L698.617 52.2405 Q691.69 50.7821 688.612 47.7845 Q685.533 44.7463 685.533 39.4801 Q685.533 33.0797 690.07 29.5959 Q694.607 26.1121 702.952 26.1121 Q707.084 26.1121 710.73 26.7198 Q714.375 27.3274 717.454 28.5427 Z" fill="#000000" fill-rule="nonzero" fill-opacity="1" /><path clip-path="url(#clip560)" d="M758.449 12.096 L766.632 12.096 L766.632 65.6895 L796.082 65.6895 L796.082 72.576 L758.449 72.576 L758.449 12.096 Z" fill="#000000" fill-rule="nonzero" fill-opacity="1" /><path clip-path="url(#clip560)" d="M820.469 32.4315 Q814.473 32.4315 810.99 37.1306 Q807.506 41.7891 807.506 49.9314 Q807.506 58.0738 810.949 62.7728 Q814.433 67.4314 820.469 67.4314 Q826.424 67.4314 829.907 62.7323 Q833.391 58.0333 833.391 49.9314 Q833.391 41.8701 829.907 37.1711 Q826.424 32.4315 820.469 32.4315 M820.469 26.1121 Q830.191 26.1121 835.741 32.4315 Q841.29 38.7509 841.29 49.9314 Q841.29 61.0714 835.741 67.4314 Q830.191 73.7508 820.469 73.7508 Q810.706 73.7508 805.156 67.4314 Q799.647 61.0714 799.647 49.9314 Q799.647 38.7509 805.156 32.4315 Q810.706 26.1121 820.469 26.1121 Z" fill="#000000" fill-rule="nonzero" fill-opacity="1" /><path clip-path="url(#clip560)" d="M874.265 49.7694 Q865.231 49.7694 861.747 51.8354 Q858.264 53.9013 858.264 58.8839 Q858.264 62.8538 860.856 65.2034 Q863.489 67.5124 867.986 67.5124 Q874.184 67.5124 877.91 63.1374 Q881.678 58.7219 881.678 51.4303 L881.678 49.7694 L874.265 49.7694 M889.132 46.6907 L889.132 72.576 L881.678 72.576 L881.678 65.6895 Q879.126 69.8214 875.318 71.8063 Q871.51 73.7508 866.001 73.7508 Q859.033 73.7508 854.901 69.8619 Q850.81 65.9325 850.81 59.3701 Q850.81 51.7138 855.914 47.825 Q861.059 43.9361 871.227 43.9361 L881.678 43.9361 L881.678 43.2069 Q881.678 38.0623 878.275 35.2672 Q874.913 32.4315 868.796 32.4315 Q864.907 32.4315 861.221 33.3632 Q857.534 34.295 854.132 36.1584 L854.132 29.2718 Q858.223 27.692 862.071 26.9223 Q865.92 26.1121 869.566 26.1121 Q879.409 26.1121 884.27 31.2163 Q889.132 36.3204 889.132 46.6907 Z" fill="#000000" fill-rule="nonzero" fill-opacity="1" /><path clip-path="url(#clip560)" d="M934.34 34.0924 L934.34 9.54393 L941.793 9.54393 L941.793 72.576 L934.34 72.576 L934.34 65.7705 Q931.99 69.8214 928.385 71.8063 Q924.82 73.7508 919.797 73.7508 Q911.574 73.7508 906.388 67.1883 Q901.244 60.6258 901.244 49.9314 Q901.244 39.2371 906.388 32.6746 Q911.574 26.1121 919.797 26.1121 Q924.82 26.1121 928.385 28.0971 Q931.99 30.0415 934.34 34.0924 M908.94 49.9314 Q908.94 58.1548 912.303 62.8538 Q915.705 67.5124 921.62 67.5124 Q927.534 67.5124 930.937 62.8538 Q934.34 58.1548 934.34 49.9314 Q934.34 41.7081 930.937 37.0496 Q927.534 32.3505 921.62 32.3505 Q915.705 32.3505 912.303 37.0496 Q908.94 41.7081 908.94 49.9314 Z" fill="#000000" fill-rule="nonzero" fill-opacity="1" /><path clip-path="url(#clip560)" d="M992.024 18.8205 L992.024 41.5461 L1002.31 41.5461 Q1008.03 41.5461 1011.14 38.5889 Q1014.26 35.6318 1014.26 30.163 Q1014.26 24.7348 1011.14 21.7777 Q1008.03 18.8205 1002.31 18.8205 L992.024 18.8205 M983.842 12.096 L1002.31 12.096 Q1012.48 12.096 1017.67 16.714 Q1022.89 21.2916 1022.89 30.163 Q1022.89 39.1155 1017.67 43.6931 Q1012.48 48.2706 1002.31 48.2706 L992.024 48.2706 L992.024 72.576 L983.842 72.576 L983.842 12.096 Z" fill="#000000" fill-rule="nonzero" fill-opacity="1" /><path clip-path="url(#clip560)" d="M1058.38 34.1734 Q1057.12 33.4443 1055.62 33.1202 Q1054.17 32.7556 1052.38 32.7556 Q1046.06 32.7556 1042.66 36.8875 Q1039.3 40.9789 1039.3 48.6757 L1039.3 72.576 L1031.8 72.576 L1031.8 27.2059 L1039.3 27.2059 L1039.3 34.2544 Q1041.65 30.1225 1045.42 28.1376 Q1049.18 26.1121 1054.57 26.1121 Q1055.34 26.1121 1056.27 26.2337 Q1057.2 26.3147 1058.34 26.5172 L1058.38 34.1734 Z" fill="#000000" fill-rule="nonzero" fill-opacity="1" /><path clip-path="url(#clip560)" d="M1081.95 32.4315 Q1075.96 32.4315 1072.48 37.1306 Q1068.99 41.7891 1068.99 49.9314 Q1068.99 58.0738 1072.43 62.7728 Q1075.92 67.4314 1081.95 67.4314 Q1087.91 67.4314 1091.39 62.7323 Q1094.88 58.0333 1094.88 49.9314 Q1094.88 41.8701 1091.39 37.1711 Q1087.91 32.4315 1081.95 32.4315 M1081.95 26.1121 Q1091.68 26.1121 1097.23 32.4315 Q1102.78 38.7509 1102.78 49.9314 Q1102.78 61.0714 1097.23 67.4314 Q1091.68 73.7508 1081.95 73.7508 Q1072.19 73.7508 1066.64 67.4314 Q1061.13 61.0714 1061.13 49.9314 Q1061.13 38.7509 1066.64 32.4315 Q1072.19 26.1121 1081.95 26.1121 Z" fill="#000000" fill-rule="nonzero" fill-opacity="1" /><path clip-path="url(#clip560)" d="M1138.1 9.54393 L1138.1 15.7418 L1130.97 15.7418 Q1126.96 15.7418 1125.38 17.3622 Q1123.84 18.9825 1123.84 23.1955 L1123.84 27.2059 L1136.12 27.2059 L1136.12 32.9987 L1123.84 32.9987 L1123.84 72.576 L1116.35 72.576 L1116.35 32.9987 L1109.22 32.9987 L1109.22 27.2059 L1116.35 27.2059 L1116.35 24.0462 Q1116.35 16.471 1119.87 13.0277 Q1123.4 9.54393 1131.05 9.54393 L1138.1 9.54393 Z" fill="#000000" fill-rule="nonzero" fill-opacity="1" /><path clip-path="url(#clip560)" d="M1144.34 27.2059 L1151.79 27.2059 L1151.79 72.576 L1144.34 72.576 L1144.34 27.2059 M1144.34 9.54393 L1151.79 9.54393 L1151.79 18.9825 L1144.34 18.9825 L1144.34 9.54393 Z" fill="#000000" fill-rule="nonzero" fill-opacity="1" /><path clip-path="url(#clip560)" d="M1167.39 9.54393 L1174.84 9.54393 L1174.84 72.576 L1167.39 72.576 L1167.39 9.54393 Z" fill="#000000" fill-rule="nonzero" fill-opacity="1" /><path clip-path="url(#clip560)" d="M1229.25 48.0275 L1229.25 51.6733 L1194.97 51.6733 Q1195.46 59.3701 1199.59 63.421 Q1203.77 67.4314 1211.18 67.4314 Q1215.47 67.4314 1219.48 66.3781 Q1223.53 65.3249 1227.5 63.2184 L1227.5 70.267 Q1223.49 71.9684 1219.28 72.8596 Q1215.07 73.7508 1210.73 73.7508 Q1199.88 73.7508 1193.52 67.4314 Q1187.2 61.1119 1187.2 50.3365 Q1187.2 39.1965 1193.19 32.6746 Q1199.23 26.1121 1209.44 26.1121 Q1218.59 26.1121 1223.9 32.0264 Q1229.25 37.9003 1229.25 48.0275 M1221.79 45.84 Q1221.71 39.7232 1218.35 36.0774 Q1215.03 32.4315 1209.52 32.4315 Q1203.28 32.4315 1199.51 35.9558 Q1195.78 39.4801 1195.22 45.8805 L1221.79 45.84 Z" fill="#000000" fill-rule="nonzero" fill-opacity="1" /><path clip-path="url(#clip560)" d="M1276.36 43.6931 L1276.36 65.8515 L1289.48 65.8515 Q1296.09 65.8515 1299.25 63.1374 Q1302.45 60.3828 1302.45 54.752 Q1302.45 49.0808 1299.25 46.4072 Q1296.09 43.6931 1289.48 43.6931 L1276.36 43.6931 M1276.36 18.8205 L1276.36 37.0496 L1288.47 37.0496 Q1294.46 37.0496 1297.38 34.8216 Q1300.34 32.5531 1300.34 27.935 Q1300.34 23.3575 1297.38 21.089 Q1294.46 18.8205 1288.47 18.8205 L1276.36 18.8205 M1268.17 12.096 L1289.08 12.096 Q1298.43 12.096 1303.5 15.9849 Q1308.56 19.8737 1308.56 27.0438 Q1308.56 32.5936 1305.97 35.8748 Q1303.38 39.156 1298.35 39.9662 Q1304.39 41.2625 1307.71 45.3944 Q1311.07 49.4858 1311.07 55.6432 Q1311.07 63.745 1305.56 68.1605 Q1300.06 72.576 1289.89 72.576 L1268.17 72.576 L1268.17 12.096 Z" fill="#000000" fill-rule="nonzero" fill-opacity="1" /><path clip-path="url(#clip560)" d="M1363.57 48.0275 L1363.57 51.6733 L1329.3 51.6733 Q1329.79 59.3701 1333.92 63.421 Q1338.09 67.4314 1345.51 67.4314 Q1349.8 67.4314 1353.81 66.3781 Q1357.86 65.3249 1361.83 63.2184 L1361.83 70.267 Q1357.82 71.9684 1353.61 72.8596 Q1349.4 73.7508 1345.06 73.7508 Q1334.2 73.7508 1327.84 67.4314 Q1321.53 61.1119 1321.53 50.3365 Q1321.53 39.1965 1327.52 32.6746 Q1333.56 26.1121 1343.76 26.1121 Q1352.92 26.1121 1358.23 32.0264 Q1363.57 37.9003 1363.57 48.0275 M1356.12 45.84 Q1356.04 39.7232 1352.68 36.0774 Q1349.35 32.4315 1343.85 32.4315 Q1337.61 32.4315 1333.84 35.9558 Q1330.11 39.4801 1329.55 45.8805 L1356.12 45.84 Z" fill="#000000" fill-rule="nonzero" fill-opacity="1" /><path clip-path="url(#clip560)" d="M1398.78 9.54393 L1398.78 15.7418 L1391.65 15.7418 Q1387.64 15.7418 1386.06 17.3622 Q1384.52 18.9825 1384.52 23.1955 L1384.52 27.2059 L1396.79 27.2059 L1396.79 32.9987 L1384.52 32.9987 L1384.52 72.576 L1377.02 72.576 L1377.02 32.9987 L1369.89 32.9987 L1369.89 27.2059 L1377.02 27.2059 L1377.02 24.0462 Q1377.02 16.471 1380.55 13.0277 Q1384.07 9.54393 1391.73 9.54393 L1398.78 9.54393 Z" fill="#000000" fill-rule="nonzero" fill-opacity="1" /><path clip-path="url(#clip560)" d="M1422.6 32.4315 Q1416.6 32.4315 1413.12 37.1306 Q1409.63 41.7891 1409.63 49.9314 Q1409.63 58.0738 1413.08 62.7728 Q1416.56 67.4314 1422.6 67.4314 Q1428.55 67.4314 1432.03 62.7323 Q1435.52 58.0333 1435.52 49.9314 Q1435.52 41.8701 1432.03 37.1711 Q1428.55 32.4315 1422.6 32.4315 M1422.6 26.1121 Q1432.32 26.1121 1437.87 32.4315 Q1443.42 38.7509 1443.42 49.9314 Q1443.42 61.0714 1437.87 67.4314 Q1432.32 73.7508 1422.6 73.7508 Q1412.83 73.7508 1407.28 67.4314 Q1401.77 61.0714 1401.77 49.9314 Q1401.77 38.7509 1407.28 32.4315 Q1412.83 26.1121 1422.6 26.1121 Z" fill="#000000" fill-rule="nonzero" fill-opacity="1" /><path clip-path="url(#clip560)" d="M1482.06 34.1734 Q1480.81 33.4443 1479.31 33.1202 Q1477.85 32.7556 1476.07 32.7556 Q1469.75 32.7556 1466.34 36.8875 Q1462.98 40.9789 1462.98 48.6757 L1462.98 72.576 L1455.49 72.576 L1455.49 27.2059 L1462.98 27.2059 L1462.98 34.2544 Q1465.33 30.1225 1469.1 28.1376 Q1472.87 26.1121 1478.25 26.1121 Q1479.02 26.1121 1479.96 26.2337 Q1480.89 26.3147 1482.02 26.5172 L1482.06 34.1734 Z" fill="#000000" fill-rule="nonzero" fill-opacity="1" /><path clip-path="url(#clip560)" d="M1526.87 48.0275 L1526.87 51.6733 L1492.59 51.6733 Q1493.08 59.3701 1497.21 63.421 Q1501.39 67.4314 1508.8 67.4314 Q1513.09 67.4314 1517.1 66.3781 Q1521.15 65.3249 1525.12 63.2184 L1525.12 70.267 Q1521.11 71.9684 1516.9 72.8596 Q1512.69 73.7508 1508.35 73.7508 Q1497.5 73.7508 1491.14 67.4314 Q1484.82 61.1119 1484.82 50.3365 Q1484.82 39.1965 1490.81 32.6746 Q1496.85 26.1121 1507.06 26.1121 Q1516.21 26.1121 1521.52 32.0264 Q1526.87 37.9003 1526.87 48.0275 M1519.41 45.84 Q1519.33 39.7232 1515.97 36.0774 Q1512.65 32.4315 1507.14 32.4315 Q1500.9 32.4315 1497.13 35.9558 Q1493.4 39.4801 1492.84 45.8805 L1519.41 45.84 Z" fill="#000000" fill-rule="nonzero" fill-opacity="1" /><path clip-path="url(#clip560)" d="M1586.09 49.7694 Q1577.06 49.7694 1573.57 51.8354 Q1570.09 53.9013 1570.09 58.8839 Q1570.09 62.8538 1572.68 65.2034 Q1575.31 67.5124 1579.81 67.5124 Q1586.01 67.5124 1589.74 63.1374 Q1593.5 58.7219 1593.5 51.4303 L1593.5 49.7694 L1586.09 49.7694 M1600.96 46.6907 L1600.96 72.576 L1593.5 72.576 L1593.5 65.6895 Q1590.95 69.8214 1587.14 71.8063 Q1583.33 73.7508 1577.83 73.7508 Q1570.86 73.7508 1566.73 69.8619 Q1562.63 65.9325 1562.63 59.3701 Q1562.63 51.7138 1567.74 47.825 Q1572.88 43.9361 1583.05 43.9361 L1593.5 43.9361 L1593.5 43.2069 Q1593.5 38.0623 1590.1 35.2672 Q1586.74 32.4315 1580.62 32.4315 Q1576.73 32.4315 1573.05 33.3632 Q1569.36 34.295 1565.96 36.1584 L1565.96 29.2718 Q1570.05 27.692 1573.9 26.9223 Q1577.74 26.1121 1581.39 26.1121 Q1591.23 26.1121 1596.1 31.2163 Q1600.96 36.3204 1600.96 46.6907 Z" fill="#000000" fill-rule="nonzero" fill-opacity="1" /><path clip-path="url(#clip560)" d="M1654.02 45.1919 L1654.02 72.576 L1646.57 72.576 L1646.57 45.4349 Q1646.57 38.994 1644.06 35.7938 Q1641.55 32.5936 1636.52 32.5936 Q1630.49 32.5936 1627 36.4419 Q1623.52 40.2903 1623.52 46.9338 L1623.52 72.576 L1616.03 72.576 L1616.03 27.2059 L1623.52 27.2059 L1623.52 34.2544 Q1626.19 30.163 1629.8 28.1376 Q1633.44 26.1121 1638.18 26.1121 Q1646 26.1121 1650.01 30.9732 Q1654.02 35.7938 1654.02 45.1919 Z" fill="#000000" fill-rule="nonzero" fill-opacity="1" /><path clip-path="url(#clip560)" d="M1698.75 34.0924 L1698.75 9.54393 L1706.2 9.54393 L1706.2 72.576 L1698.75 72.576 L1698.75 65.7705 Q1696.4 69.8214 1692.79 71.8063 Q1689.23 73.7508 1684.2 73.7508 Q1675.98 73.7508 1670.79 67.1883 Q1665.65 60.6258 1665.65 49.9314 Q1665.65 39.2371 1670.79 32.6746 Q1675.98 26.1121 1684.2 26.1121 Q1689.23 26.1121 1692.79 28.0971 Q1696.4 30.0415 1698.75 34.0924 M1673.35 49.9314 Q1673.35 58.1548 1676.71 62.8538 Q1680.11 67.5124 1686.03 67.5124 Q1691.94 67.5124 1695.34 62.8538 Q1698.75 58.1548 1698.75 49.9314 Q1698.75 41.7081 1695.34 37.0496 Q1691.94 32.3505 1686.03 32.3505 Q1680.11 32.3505 1676.71 37.0496 Q1673.35 41.7081 1673.35 49.9314 Z" fill="#000000" fill-rule="nonzero" fill-opacity="1" /><path clip-path="url(#clip560)" d="M1768.46 20.1573 L1757.36 50.2555 L1779.6 50.2555 L1768.46 20.1573 M1763.84 12.096 L1773.12 12.096 L1796.17 72.576 L1787.66 72.576 L1782.15 57.061 L1754.89 57.061 L1749.38 72.576 L1740.75 72.576 L1763.84 12.096 Z" fill="#000000" fill-rule="nonzero" fill-opacity="1" /><path clip-path="url(#clip560)" d="M1824.69 9.54393 L1824.69 15.7418 L1817.56 15.7418 Q1813.55 15.7418 1811.97 17.3622 Q1810.43 18.9825 1810.43 23.1955 L1810.43 27.2059 L1822.7 27.2059 L1822.7 32.9987 L1810.43 32.9987 L1810.43 72.576 L1802.93 72.576 L1802.93 32.9987 L1795.8 32.9987 L1795.8 27.2059 L1802.93 27.2059 L1802.93 24.0462 Q1802.93 16.471 1806.46 13.0277 Q1809.98 9.54393 1817.64 9.54393 L1824.69 9.54393 Z" fill="#000000" fill-rule="nonzero" fill-opacity="1" /><path clip-path="url(#clip560)" d="M1836.84 14.324 L1836.84 27.2059 L1852.19 27.2059 L1852.19 32.9987 L1836.84 32.9987 L1836.84 57.6282 Q1836.84 63.1779 1838.34 64.7578 Q1839.88 66.3376 1844.54 66.3376 L1852.19 66.3376 L1852.19 72.576 L1844.54 72.576 Q1835.91 72.576 1832.63 69.3758 Q1829.35 66.1351 1829.35 57.6282 L1829.35 32.9987 L1823.88 32.9987 L1823.88 27.2059 L1829.35 27.2059 L1829.35 14.324 L1836.84 14.324 Z" fill="#000000" fill-rule="nonzero" fill-opacity="1" /><path clip-path="url(#clip560)" d="M1900.8 48.0275 L1900.8 51.6733 L1866.53 51.6733 Q1867.02 59.3701 1871.15 63.421 Q1875.32 67.4314 1882.74 67.4314 Q1887.03 67.4314 1891.04 66.3781 Q1895.09 65.3249 1899.06 63.2184 L1899.06 70.267 Q1895.05 71.9684 1890.84 72.8596 Q1886.63 73.7508 1882.29 73.7508 Q1871.44 73.7508 1865.08 67.4314 Q1858.76 61.1119 1858.76 50.3365 Q1858.76 39.1965 1864.75 32.6746 Q1870.79 26.1121 1881 26.1121 Q1890.15 26.1121 1895.46 32.0264 Q1900.8 37.9003 1900.8 48.0275 M1893.35 45.84 Q1893.27 39.7232 1889.91 36.0774 Q1886.59 32.4315 1881.08 32.4315 Q1874.84 32.4315 1871.07 35.9558 Q1867.34 39.4801 1866.78 45.8805 L1893.35 45.84 Z" fill="#000000" fill-rule="nonzero" fill-opacity="1" /><path clip-path="url(#clip560)" d="M1939.33 34.1734 Q1938.07 33.4443 1936.57 33.1202 Q1935.12 32.7556 1933.33 32.7556 Q1927.01 32.7556 1923.61 36.8875 Q1920.25 40.9789 1920.25 48.6757 L1920.25 72.576 L1912.75 72.576 L1912.75 27.2059 L1920.25 27.2059 L1920.25 34.2544 Q1922.6 30.1225 1926.37 28.1376 Q1930.13 26.1121 1935.52 26.1121 Q1936.29 26.1121 1937.22 26.2337 Q1938.15 26.3147 1939.29 26.5172 L1939.33 34.1734 Z" fill="#000000" fill-rule="nonzero" fill-opacity="1" /><path clip-path="url(#clip560)" d="M2010.1 14.0809 L2010.1 22.0612 Q2005.44 19.8332 2001.31 18.7395 Q1997.18 17.6457 1993.33 17.6457 Q1986.64 17.6457 1983 20.2383 Q1979.39 22.8309 1979.39 27.611 Q1979.39 31.6214 1981.78 33.6873 Q1984.21 35.7128 1990.94 36.9686 L1995.88 37.9813 Q2005.03 39.7232 2009.37 44.1387 Q2013.74 48.5136 2013.74 55.8863 Q2013.74 64.6767 2007.83 69.2137 Q2001.96 73.7508 1990.57 73.7508 Q1986.28 73.7508 1981.42 72.7785 Q1976.6 71.8063 1971.41 69.9024 L1971.41 61.4765 Q1976.39 64.2716 1981.17 65.6895 Q1985.95 67.1073 1990.57 67.1073 Q1997.58 67.1073 2001.39 64.3527 Q2005.2 61.598 2005.2 56.4939 Q2005.2 52.0379 2002.44 49.5264 Q1999.73 47.0148 1993.49 45.759 L1988.51 44.7868 Q1979.35 42.9639 1975.26 39.075 Q1971.17 35.1862 1971.17 28.2591 Q1971.17 20.2383 1976.8 15.6203 Q1982.47 11.0023 1992.4 11.0023 Q1996.65 11.0023 2001.06 11.7719 Q2005.48 12.5416 2010.1 14.0809 Z" fill="#000000" fill-rule="nonzero" fill-opacity="1" /><path clip-path="url(#clip560)" d="M2067.74 63.9476 L2067.74 47.7034 L2054.37 47.7034 L2054.37 40.9789 L2075.84 40.9789 L2075.84 66.9452 Q2071.1 70.3075 2065.39 72.0494 Q2059.68 73.7508 2053.2 73.7508 Q2039.02 73.7508 2031 65.4869 Q2023.02 57.1826 2023.02 42.3968 Q2023.02 27.5705 2031 19.3066 Q2039.02 11.0023 2053.2 11.0023 Q2059.11 11.0023 2064.42 12.4606 Q2069.77 13.9189 2074.26 16.7545 L2074.26 25.464 Q2069.73 21.6156 2064.62 19.6712 Q2059.52 17.7268 2053.89 17.7268 Q2042.79 17.7268 2037.2 23.9246 Q2031.65 30.1225 2031.65 42.3968 Q2031.65 54.6305 2037.2 60.8284 Q2042.79 67.0263 2053.89 67.0263 Q2058.22 67.0263 2061.63 66.2971 Q2065.03 65.5274 2067.74 63.9476 Z" fill="#000000" fill-rule="nonzero" fill-opacity="1" /><path clip-path="url(#clip560)" d="M2090.79 12.096 L2102.98 12.096 L2118.42 53.2532 L2133.93 12.096 L2146.13 12.096 L2146.13 72.576 L2138.15 72.576 L2138.15 19.4686 L2122.55 60.9499 L2114.33 60.9499 L2098.73 19.4686 L2098.73 72.576 L2090.79 72.576 L2090.79 12.096 Z" fill="#000000" fill-rule="nonzero" fill-opacity="1" /><path clip-path="url(#clip560)" d="M2179.63 32.4315 Q2173.63 32.4315 2170.15 37.1306 Q2166.67 41.7891 2166.67 49.9314 Q2166.67 58.0738 2170.11 62.7728 Q2173.59 67.4314 2179.63 67.4314 Q2185.58 67.4314 2189.07 62.7323 Q2192.55 58.0333 2192.55 49.9314 Q2192.55 41.8701 2189.07 37.1711 Q2185.58 32.4315 2179.63 32.4315 M2179.63 26.1121 Q2189.35 26.1121 2194.9 32.4315 Q2200.45 38.7509 2200.45 49.9314 Q2200.45 61.0714 2194.9 67.4314 Q2189.35 73.7508 2179.63 73.7508 Q2169.87 73.7508 2164.32 67.4314 Q2158.81 61.0714 2158.81 49.9314 Q2158.81 38.7509 2164.32 32.4315 Q2169.87 26.1121 2179.63 26.1121 Z" fill="#000000" fill-rule="nonzero" fill-opacity="1" /><path clip-path="url(#clip560)" d="M2242.66 34.0924 L2242.66 9.54393 L2250.11 9.54393 L2250.11 72.576 L2242.66 72.576 L2242.66 65.7705 Q2240.31 69.8214 2236.71 71.8063 Q2233.14 73.7508 2228.12 73.7508 Q2219.89 73.7508 2214.71 67.1883 Q2209.56 60.6258 2209.56 49.9314 Q2209.56 39.2371 2214.71 32.6746 Q2219.89 26.1121 2228.12 26.1121 Q2233.14 26.1121 2236.71 28.0971 Q2240.31 30.0415 2242.66 34.0924 M2217.26 49.9314 Q2217.26 58.1548 2220.62 62.8538 Q2224.03 67.5124 2229.94 67.5124 Q2235.85 67.5124 2239.26 62.8538 Q2242.66 58.1548 2242.66 49.9314 Q2242.66 41.7081 2239.26 37.0496 Q2235.85 32.3505 2229.94 32.3505 Q2224.03 32.3505 2220.62 37.0496 Q2217.26 41.7081 2217.26 49.9314 Z" fill="#000000" fill-rule="nonzero" fill-opacity="1" /><path clip-path="url(#clip560)" d="M2304.27 48.0275 L2304.27 51.6733 L2270 51.6733 Q2270.49 59.3701 2274.62 63.421 Q2278.79 67.4314 2286.21 67.4314 Q2290.5 67.4314 2294.51 66.3781 Q2298.56 65.3249 2302.53 63.2184 L2302.53 70.267 Q2298.52 71.9684 2294.31 72.8596 Q2290.1 73.7508 2285.76 73.7508 Q2274.91 73.7508 2268.55 67.4314 Q2262.23 61.1119 2262.23 50.3365 Q2262.23 39.1965 2268.22 32.6746 Q2274.26 26.1121 2284.47 26.1121 Q2293.62 26.1121 2298.93 32.0264 Q2304.27 37.9003 2304.27 48.0275 M2296.82 45.84 Q2296.74 39.7232 2293.38 36.0774 Q2290.06 32.4315 2284.55 32.4315 Q2278.31 32.4315 2274.54 35.9558 Q2270.81 39.4801 2270.25 45.8805 L2296.82 45.84 Z" fill="#000000" fill-rule="nonzero" fill-opacity="1" /><path clip-path="url(#clip560)" d="M2316.51 9.54393 L2323.96 9.54393 L2323.96 72.576 L2316.51 72.576 L2316.51 9.54393 Z" fill="#000000" fill-rule="nonzero" fill-opacity="1" /><polyline clip-path="url(#clip562)" style="stroke:#009af9; stroke-linecap:round; stroke-linejoin:round; stroke-width:4; stroke-opacity:1; fill:none" points="295.211,622.434 295.211,237.784 382.064,237.784 382.064,550.893 468.917,550.893 468.917,339.919 555.77,339.919 555.77,725.575 642.623,725.575 642.623,582.084 729.476,582.084 729.476,507.861 816.329,507.861 816.329,755.548 903.181,755.548 903.181,426.258 990.034,426.258 990.034,691.978 1076.89,691.978 1076.89,491.202 1163.74,491.202 1163.74,503.713 1250.59,503.713 1250.59,869.429 1337.45,869.429 1337.45,507.077 1424.3,507.077 1424.3,420.811 1511.15,420.811 1511.15,318.717 1598,318.717 1598,160.256 1684.86,160.256 1684.86,646.224 1771.71,646.224 1771.71,635.026 1858.56,635.026 1858.56,243.917 1945.42,243.917 1945.42,438.08 2032.27,438.08 2032.27,660.704 2119.12,660.704 2119.12,760.521 2205.97,760.521 2205.97,411.08 2292.83,411.08 "/>
<polyline clip-path="url(#clip562)" style="stroke:#e26f46; stroke-linecap:round; stroke-linejoin:round; stroke-width:4; stroke-opacity:1; fill:none" points="295.211,785.85 295.211,694.776 382.064,694.776 382.064,1111.63 468.917,1111.63 468.917,929.347 555.77,929.347 555.77,1262.37 642.623,1262.37 642.623,1138.56 729.476,1138.56 729.476,1074.47 816.329,1074.47 816.329,1288.22 903.181,1288.22 903.181,1003.97 990.034,1003.97 990.034,1233.39 1076.89,1233.39 1076.89,1060.08 1163.74,1060.08 1163.74,1070.89 1250.59,1070.89 1250.59,1386.4 1337.45,1386.4 1337.45,1073.79 1424.3,1073.79 1424.3,999.265 1511.15,999.265 1511.15,911.015 1598,911.015 1598,769.777 1684.86,769.777 1684.86,1193.92 1771.71,1193.92 1771.71,1184.25 1858.56,1184.25 1858.56,846.323 1945.42,846.323 1945.42,1014.19 2032.27,1014.19 2032.27,1206.41 2119.12,1206.41 2119.12,1292.51 2205.97,1292.51 2205.97,990.856 2292.83,990.856 "/>
<path clip-path="url(#clip560)" d="M305.865 1379.86 L1134.67 1379.86 L1134.67 1224.34 L305.865 1224.34  Z" fill="#ffffff" fill-rule="evenodd" fill-opacity="1"/>
<polyline clip-path="url(#clip560)" style="stroke:#000000; stroke-linecap:round; stroke-linejoin:round; stroke-width:4; stroke-opacity:1; fill:none" points="305.865,1379.86 1134.67,1379.86 1134.67,1224.34 305.865,1224.34 305.865,1379.86 "/>
<polyline clip-path="url(#clip560)" style="stroke:#009af9; stroke-linecap:round; stroke-linejoin:round; stroke-width:4; stroke-opacity:1; fill:none" points="329.393,1276.18 470.558,1276.18 "/>
<path clip-path="url(#clip560)" d="M494.085 1258.9 L498.761 1258.9 L498.761 1293.46 L494.085 1293.46 L494.085 1258.9 Z" fill="#000000" fill-rule="nonzero" fill-opacity="1" /><path clip-path="url(#clip560)" d="M529.432 1277.81 L529.432 1293.46 L525.173 1293.46 L525.173 1277.95 Q525.173 1274.27 523.738 1272.44 Q522.303 1270.61 519.432 1270.61 Q515.983 1270.61 513.992 1272.81 Q512.002 1275.01 512.002 1278.8 L512.002 1293.46 L507.719 1293.46 L507.719 1267.53 L512.002 1267.53 L512.002 1271.56 Q513.529 1269.22 515.59 1268.06 Q517.673 1266.91 520.381 1266.91 Q524.849 1266.91 527.14 1269.68 Q529.432 1272.44 529.432 1277.81 Z" fill="#000000" fill-rule="nonzero" fill-opacity="1" /><path clip-path="url(#clip560)" d="M537.927 1267.53 L542.187 1267.53 L542.187 1293.46 L537.927 1293.46 L537.927 1267.53 M537.927 1257.44 L542.187 1257.44 L542.187 1262.83 L537.927 1262.83 L537.927 1257.44 Z" fill="#000000" fill-rule="nonzero" fill-opacity="1" /><path clip-path="url(#clip560)" d="M555.312 1260.17 L555.312 1267.53 L564.085 1267.53 L564.085 1270.84 L555.312 1270.84 L555.312 1284.91 Q555.312 1288.09 556.168 1288.99 Q557.048 1289.89 559.71 1289.89 L564.085 1289.89 L564.085 1293.46 L559.71 1293.46 Q554.779 1293.46 552.904 1291.63 Q551.029 1289.78 551.029 1284.91 L551.029 1270.84 L547.904 1270.84 L547.904 1267.53 L551.029 1267.53 L551.029 1260.17 L555.312 1260.17 Z" fill="#000000" fill-rule="nonzero" fill-opacity="1" /><path clip-path="url(#clip560)" d="M569.687 1267.53 L573.946 1267.53 L573.946 1293.46 L569.687 1293.46 L569.687 1267.53 M569.687 1257.44 L573.946 1257.44 L573.946 1262.83 L569.687 1262.83 L569.687 1257.44 Z" fill="#000000" fill-rule="nonzero" fill-opacity="1" /><path clip-path="url(#clip560)" d="M594.64 1280.42 Q589.478 1280.42 587.487 1281.6 Q585.497 1282.79 585.497 1285.63 Q585.497 1287.9 586.978 1289.24 Q588.483 1290.56 591.052 1290.56 Q594.594 1290.56 596.723 1288.06 Q598.876 1285.54 598.876 1281.37 L598.876 1280.42 L594.64 1280.42 M603.135 1278.66 L603.135 1293.46 L598.876 1293.46 L598.876 1289.52 Q597.418 1291.88 595.242 1293.02 Q593.066 1294.13 589.918 1294.13 Q585.936 1294.13 583.575 1291.91 Q581.237 1289.66 581.237 1285.91 Q581.237 1281.54 584.154 1279.31 Q587.094 1277.09 592.904 1277.09 L598.876 1277.09 L598.876 1276.67 Q598.876 1273.73 596.932 1272.14 Q595.01 1270.52 591.515 1270.52 Q589.293 1270.52 587.186 1271.05 Q585.08 1271.58 583.136 1272.65 L583.136 1268.71 Q585.474 1267.81 587.673 1267.37 Q589.872 1266.91 591.955 1266.91 Q597.58 1266.91 600.358 1269.82 Q603.135 1272.74 603.135 1278.66 Z" fill="#000000" fill-rule="nonzero" fill-opacity="1" /><path clip-path="url(#clip560)" d="M611.909 1257.44 L616.168 1257.44 L616.168 1293.46 L611.909 1293.46 L611.909 1257.44 Z" fill="#000000" fill-rule="nonzero" fill-opacity="1" /><path clip-path="url(#clip560)" d="M640.334 1258.9 L645.01 1258.9 L645.01 1289.52 L661.839 1289.52 L661.839 1293.46 L640.334 1293.46 L640.334 1258.9 Z" fill="#000000" fill-rule="nonzero" fill-opacity="1" /><path clip-path="url(#clip560)" d="M675.774 1270.52 Q672.348 1270.52 670.357 1273.2 Q668.367 1275.86 668.367 1280.52 Q668.367 1285.17 670.334 1287.85 Q672.325 1290.52 675.774 1290.52 Q679.177 1290.52 681.167 1287.83 Q683.158 1285.15 683.158 1280.52 Q683.158 1275.91 681.167 1273.22 Q679.177 1270.52 675.774 1270.52 M675.774 1266.91 Q681.329 1266.91 684.501 1270.52 Q687.672 1274.13 687.672 1280.52 Q687.672 1286.88 684.501 1290.52 Q681.329 1294.13 675.774 1294.13 Q670.195 1294.13 667.024 1290.52 Q663.876 1286.88 663.876 1280.52 Q663.876 1274.13 667.024 1270.52 Q670.195 1266.91 675.774 1266.91 Z" fill="#000000" fill-rule="nonzero" fill-opacity="1" /><path clip-path="url(#clip560)" d="M706.515 1280.42 Q701.353 1280.42 699.362 1281.6 Q697.371 1282.79 697.371 1285.63 Q697.371 1287.9 698.853 1289.24 Q700.357 1290.56 702.927 1290.56 Q706.468 1290.56 708.598 1288.06 Q710.751 1285.54 710.751 1281.37 L710.751 1280.42 L706.515 1280.42 M715.01 1278.66 L715.01 1293.46 L710.751 1293.46 L710.751 1289.52 Q709.292 1291.88 707.116 1293.02 Q704.94 1294.13 701.792 1294.13 Q697.811 1294.13 695.45 1291.91 Q693.112 1289.66 693.112 1285.91 Q693.112 1281.54 696.028 1279.31 Q698.968 1277.09 704.778 1277.09 L710.751 1277.09 L710.751 1276.67 Q710.751 1273.73 708.806 1272.14 Q706.885 1270.52 703.39 1270.52 Q701.167 1270.52 699.061 1271.05 Q696.954 1271.58 695.01 1272.65 L695.01 1268.71 Q697.348 1267.81 699.547 1267.37 Q701.746 1266.91 703.829 1266.91 Q709.454 1266.91 712.232 1269.82 Q715.01 1272.74 715.01 1278.66 Z" fill="#000000" fill-rule="nonzero" fill-opacity="1" /><path clip-path="url(#clip560)" d="M740.843 1271.47 L740.843 1257.44 L745.102 1257.44 L745.102 1293.46 L740.843 1293.46 L740.843 1289.57 Q739.5 1291.88 737.44 1293.02 Q735.403 1294.13 732.533 1294.13 Q727.834 1294.13 724.871 1290.38 Q721.931 1286.63 721.931 1280.52 Q721.931 1274.41 724.871 1270.66 Q727.834 1266.91 732.533 1266.91 Q735.403 1266.91 737.44 1268.04 Q739.5 1269.15 740.843 1271.47 M726.329 1280.52 Q726.329 1285.22 728.251 1287.9 Q730.195 1290.56 733.575 1290.56 Q736.954 1290.56 738.899 1287.9 Q740.843 1285.22 740.843 1280.52 Q740.843 1275.82 738.899 1273.16 Q736.954 1270.47 733.575 1270.47 Q730.195 1270.47 728.251 1273.16 Q726.329 1275.82 726.329 1280.52 Z" fill="#000000" fill-rule="nonzero" fill-opacity="1" /><path clip-path="url(#clip560)" d="M773.806 1276.95 L773.806 1289.61 L781.306 1289.61 Q785.079 1289.61 786.884 1288.06 Q788.713 1286.49 788.713 1283.27 Q788.713 1280.03 786.884 1278.5 Q785.079 1276.95 781.306 1276.95 L773.806 1276.95 M773.806 1262.74 L773.806 1273.16 L780.727 1273.16 Q784.153 1273.16 785.82 1271.88 Q787.509 1270.59 787.509 1267.95 Q787.509 1265.33 785.82 1264.04 Q784.153 1262.74 780.727 1262.74 L773.806 1262.74 M769.13 1258.9 L781.074 1258.9 Q786.422 1258.9 789.315 1261.12 Q792.209 1263.34 792.209 1267.44 Q792.209 1270.61 790.727 1272.48 Q789.246 1274.36 786.375 1274.82 Q789.824 1275.56 791.722 1277.92 Q793.644 1280.26 793.644 1283.78 Q793.644 1288.41 790.496 1290.93 Q787.347 1293.46 781.537 1293.46 L769.13 1293.46 L769.13 1258.9 Z" fill="#000000" fill-rule="nonzero" fill-opacity="1" /><path clip-path="url(#clip560)" d="M823.644 1279.43 L823.644 1281.51 L804.06 1281.51 Q804.338 1285.91 806.699 1288.22 Q809.083 1290.52 813.32 1290.52 Q815.773 1290.52 818.065 1289.91 Q820.38 1289.31 822.648 1288.11 L822.648 1292.14 Q820.357 1293.11 817.949 1293.62 Q815.542 1294.13 813.065 1294.13 Q806.861 1294.13 803.227 1290.52 Q799.616 1286.91 799.616 1280.75 Q799.616 1274.38 803.042 1270.66 Q806.491 1266.91 812.324 1266.91 Q817.556 1266.91 820.588 1270.29 Q823.644 1273.64 823.644 1279.43 M819.384 1278.18 Q819.338 1274.68 817.417 1272.6 Q815.519 1270.52 812.37 1270.52 Q808.806 1270.52 806.653 1272.53 Q804.523 1274.54 804.199 1278.2 L819.384 1278.18 Z" fill="#000000" fill-rule="nonzero" fill-opacity="1" /><path clip-path="url(#clip560)" d="M843.759 1257.44 L843.759 1260.98 L839.685 1260.98 Q837.393 1260.98 836.491 1261.91 Q835.611 1262.83 835.611 1265.24 L835.611 1267.53 L842.625 1267.53 L842.625 1270.84 L835.611 1270.84 L835.611 1293.46 L831.329 1293.46 L831.329 1270.84 L827.255 1270.84 L827.255 1267.53 L831.329 1267.53 L831.329 1265.72 Q831.329 1261.4 833.343 1259.43 Q835.356 1257.44 839.731 1257.44 L843.759 1257.44 Z" fill="#000000" fill-rule="nonzero" fill-opacity="1" /><path clip-path="url(#clip560)" d="M857.37 1270.52 Q853.944 1270.52 851.954 1273.2 Q849.963 1275.86 849.963 1280.52 Q849.963 1285.17 851.93 1287.85 Q853.921 1290.52 857.37 1290.52 Q860.773 1290.52 862.764 1287.83 Q864.754 1285.15 864.754 1280.52 Q864.754 1275.91 862.764 1273.22 Q860.773 1270.52 857.37 1270.52 M857.37 1266.91 Q862.926 1266.91 866.097 1270.52 Q869.268 1274.13 869.268 1280.52 Q869.268 1286.88 866.097 1290.52 Q862.926 1294.13 857.37 1294.13 Q851.792 1294.13 848.62 1290.52 Q845.472 1286.88 845.472 1280.52 Q845.472 1274.13 848.62 1270.52 Q851.792 1266.91 857.37 1266.91 Z" fill="#000000" fill-rule="nonzero" fill-opacity="1" /><path clip-path="url(#clip560)" d="M891.352 1271.51 Q890.634 1271.1 889.777 1270.91 Q888.944 1270.7 887.926 1270.7 Q884.315 1270.7 882.37 1273.06 Q880.449 1275.4 880.449 1279.8 L880.449 1293.46 L876.166 1293.46 L876.166 1267.53 L880.449 1267.53 L880.449 1271.56 Q881.791 1269.2 883.944 1268.06 Q886.097 1266.91 889.176 1266.91 Q889.615 1266.91 890.148 1266.97 Q890.68 1267.02 891.328 1267.14 L891.352 1271.51 Z" fill="#000000" fill-rule="nonzero" fill-opacity="1" /><path clip-path="url(#clip560)" d="M931.791 1260.03 L931.791 1264.59 Q929.129 1263.32 926.768 1262.69 Q924.407 1262.07 922.208 1262.07 Q918.388 1262.07 916.305 1263.55 Q914.245 1265.03 914.245 1267.76 Q914.245 1270.05 915.611 1271.23 Q917 1272.39 920.842 1273.11 L923.666 1273.69 Q928.898 1274.68 931.374 1277.21 Q933.874 1279.71 933.874 1283.92 Q933.874 1288.94 930.495 1291.53 Q927.138 1294.13 920.634 1294.13 Q918.18 1294.13 915.402 1293.57 Q912.648 1293.02 909.685 1291.93 L909.685 1287.11 Q912.532 1288.71 915.263 1289.52 Q917.995 1290.33 920.634 1290.33 Q924.638 1290.33 926.814 1288.76 Q928.99 1287.18 928.99 1284.27 Q928.99 1281.72 927.416 1280.29 Q925.865 1278.85 922.3 1278.13 L919.453 1277.58 Q914.222 1276.54 911.884 1274.31 Q909.546 1272.09 909.546 1268.13 Q909.546 1263.55 912.763 1260.91 Q916.004 1258.27 921.675 1258.27 Q924.106 1258.27 926.629 1258.71 Q929.152 1259.15 931.791 1260.03 Z" fill="#000000" fill-rule="nonzero" fill-opacity="1" /><path clip-path="url(#clip560)" d="M964.731 1288.53 L964.731 1279.24 L957.092 1279.24 L957.092 1275.4 L969.36 1275.4 L969.36 1290.24 Q966.652 1292.16 963.388 1293.16 Q960.124 1294.13 956.421 1294.13 Q948.319 1294.13 943.735 1289.41 Q939.175 1284.66 939.175 1276.21 Q939.175 1267.74 943.735 1263.02 Q948.319 1258.27 956.421 1258.27 Q959.8 1258.27 962.833 1259.1 Q965.888 1259.94 968.458 1261.56 L968.458 1266.54 Q965.865 1264.34 962.948 1263.22 Q960.032 1262.11 956.814 1262.11 Q950.472 1262.11 947.277 1265.66 Q944.106 1269.2 944.106 1276.21 Q944.106 1283.2 947.277 1286.74 Q950.472 1290.28 956.814 1290.28 Q959.291 1290.28 961.235 1289.87 Q963.18 1289.43 964.731 1288.53 Z" fill="#000000" fill-rule="nonzero" fill-opacity="1" /><path clip-path="url(#clip560)" d="M977.902 1258.9 L984.87 1258.9 L993.689 1282.41 L1002.55 1258.9 L1009.52 1258.9 L1009.52 1293.46 L1004.96 1293.46 L1004.96 1263.11 L996.05 1286.81 L991.351 1286.81 L982.439 1263.11 L982.439 1293.46 L977.902 1293.46 L977.902 1258.9 Z" fill="#000000" fill-rule="nonzero" fill-opacity="1" /><path clip-path="url(#clip560)" d="M1028.67 1270.52 Q1025.24 1270.52 1023.25 1273.2 Q1021.26 1275.86 1021.26 1280.52 Q1021.26 1285.17 1023.23 1287.85 Q1025.22 1290.52 1028.67 1290.52 Q1032.07 1290.52 1034.06 1287.83 Q1036.05 1285.15 1036.05 1280.52 Q1036.05 1275.91 1034.06 1273.22 Q1032.07 1270.52 1028.67 1270.52 M1028.67 1266.91 Q1034.22 1266.91 1037.39 1270.52 Q1040.56 1274.13 1040.56 1280.52 Q1040.56 1286.88 1037.39 1290.52 Q1034.22 1294.13 1028.67 1294.13 Q1023.09 1294.13 1019.92 1290.52 Q1016.77 1286.88 1016.77 1280.52 Q1016.77 1274.13 1019.92 1270.52 Q1023.09 1266.91 1028.67 1266.91 Z" fill="#000000" fill-rule="nonzero" fill-opacity="1" /><path clip-path="url(#clip560)" d="M1064.68 1271.47 L1064.68 1257.44 L1068.94 1257.44 L1068.94 1293.46 L1064.68 1293.46 L1064.68 1289.57 Q1063.34 1291.88 1061.28 1293.02 Q1059.24 1294.13 1056.37 1294.13 Q1051.67 1294.13 1048.71 1290.38 Q1045.77 1286.63 1045.77 1280.52 Q1045.77 1274.41 1048.71 1270.66 Q1051.67 1266.91 1056.37 1266.91 Q1059.24 1266.91 1061.28 1268.04 Q1063.34 1269.15 1064.68 1271.47 M1050.17 1280.52 Q1050.17 1285.22 1052.09 1287.9 Q1054.04 1290.56 1057.42 1290.56 Q1060.8 1290.56 1062.74 1287.9 Q1064.68 1285.22 1064.68 1280.52 Q1064.68 1275.82 1062.74 1273.16 Q1060.8 1270.47 1057.42 1270.47 Q1054.04 1270.47 1052.09 1273.16 Q1050.17 1275.82 1050.17 1280.52 Z" fill="#000000" fill-rule="nonzero" fill-opacity="1" /><path clip-path="url(#clip560)" d="M1099.89 1279.43 L1099.89 1281.51 L1080.31 1281.51 Q1080.59 1285.91 1082.95 1288.22 Q1085.33 1290.52 1089.57 1290.52 Q1092.02 1290.52 1094.31 1289.91 Q1096.63 1289.31 1098.9 1288.11 L1098.9 1292.14 Q1096.61 1293.11 1094.2 1293.62 Q1091.79 1294.13 1089.31 1294.13 Q1083.11 1294.13 1079.48 1290.52 Q1075.86 1286.91 1075.86 1280.75 Q1075.86 1274.38 1079.29 1270.66 Q1082.74 1266.91 1088.57 1266.91 Q1093.8 1266.91 1096.84 1270.29 Q1099.89 1273.64 1099.89 1279.43 M1095.63 1278.18 Q1095.59 1274.68 1093.67 1272.6 Q1091.77 1270.52 1088.62 1270.52 Q1085.05 1270.52 1082.9 1272.53 Q1080.77 1274.54 1080.45 1278.2 L1095.63 1278.18 Z" fill="#000000" fill-rule="nonzero" fill-opacity="1" /><path clip-path="url(#clip560)" d="M1106.88 1257.44 L1111.14 1257.44 L1111.14 1293.46 L1106.88 1293.46 L1106.88 1257.44 Z" fill="#000000" fill-rule="nonzero" fill-opacity="1" /><polyline clip-path="url(#clip560)" style="stroke:#e26f46; stroke-linecap:round; stroke-linejoin:round; stroke-width:4; stroke-opacity:1; fill:none" points="329.393,1328.02 470.558,1328.02 "/>
<path clip-path="url(#clip560)" d="M494.085 1310.74 L513.946 1310.74 L513.946 1314.67 L498.761 1314.67 L498.761 1324.86 L512.465 1324.86 L512.465 1328.79 L498.761 1328.79 L498.761 1345.3 L494.085 1345.3 L494.085 1310.74 Z" fill="#000000" fill-rule="nonzero" fill-opacity="1" /><path clip-path="url(#clip560)" d="M517.719 1319.37 L521.978 1319.37 L521.978 1345.3 L517.719 1345.3 L517.719 1319.37 M517.719 1309.28 L521.978 1309.28 L521.978 1314.67 L517.719 1314.67 L517.719 1309.28 Z" fill="#000000" fill-rule="nonzero" fill-opacity="1" /><path clip-path="url(#clip560)" d="M552.441 1329.65 L552.441 1345.3 L548.182 1345.3 L548.182 1329.79 Q548.182 1326.11 546.747 1324.28 Q545.312 1322.45 542.441 1322.45 Q538.992 1322.45 537.002 1324.65 Q535.011 1326.85 535.011 1330.64 L535.011 1345.3 L530.728 1345.3 L530.728 1319.37 L535.011 1319.37 L535.011 1323.4 Q536.539 1321.06 538.599 1319.9 Q540.682 1318.75 543.39 1318.75 Q547.858 1318.75 550.15 1321.52 Q552.441 1324.28 552.441 1329.65 Z" fill="#000000" fill-rule="nonzero" fill-opacity="1" /><path clip-path="url(#clip560)" d="M572.719 1332.26 Q567.557 1332.26 565.566 1333.44 Q563.575 1334.63 563.575 1337.47 Q563.575 1339.74 565.057 1341.08 Q566.562 1342.4 569.131 1342.4 Q572.673 1342.4 574.802 1339.9 Q576.955 1337.38 576.955 1333.21 L576.955 1332.26 L572.719 1332.26 M581.214 1330.5 L581.214 1345.3 L576.955 1345.3 L576.955 1341.36 Q575.497 1343.72 573.321 1344.86 Q571.145 1345.97 567.997 1345.97 Q564.015 1345.97 561.654 1343.75 Q559.316 1341.5 559.316 1337.75 Q559.316 1333.38 562.233 1331.15 Q565.173 1328.93 570.983 1328.93 L576.955 1328.93 L576.955 1328.51 Q576.955 1325.57 575.011 1323.98 Q573.089 1322.36 569.594 1322.36 Q567.372 1322.36 565.265 1322.89 Q563.159 1323.42 561.214 1324.49 L561.214 1320.55 Q563.552 1319.65 565.751 1319.21 Q567.95 1318.75 570.034 1318.75 Q575.659 1318.75 578.437 1321.66 Q581.214 1324.58 581.214 1330.5 Z" fill="#000000" fill-rule="nonzero" fill-opacity="1" /><path clip-path="url(#clip560)" d="M589.987 1309.28 L594.247 1309.28 L594.247 1345.3 L589.987 1345.3 L589.987 1309.28 Z" fill="#000000" fill-rule="nonzero" fill-opacity="1" /><path clip-path="url(#clip560)" d="M618.413 1310.74 L623.089 1310.74 L623.089 1341.36 L639.918 1341.36 L639.918 1345.3 L618.413 1345.3 L618.413 1310.74 Z" fill="#000000" fill-rule="nonzero" fill-opacity="1" /><path clip-path="url(#clip560)" d="M653.853 1322.36 Q650.427 1322.36 648.436 1325.04 Q646.445 1327.7 646.445 1332.36 Q646.445 1337.01 648.413 1339.69 Q650.404 1342.36 653.853 1342.36 Q657.256 1342.36 659.246 1339.67 Q661.237 1336.99 661.237 1332.36 Q661.237 1327.75 659.246 1325.06 Q657.256 1322.36 653.853 1322.36 M653.853 1318.75 Q659.408 1318.75 662.58 1322.36 Q665.751 1325.97 665.751 1332.36 Q665.751 1338.72 662.58 1342.36 Q659.408 1345.97 653.853 1345.97 Q648.274 1345.97 645.103 1342.36 Q641.955 1338.72 641.955 1332.36 Q641.955 1325.97 645.103 1322.36 Q648.274 1318.75 653.853 1318.75 Z" fill="#000000" fill-rule="nonzero" fill-opacity="1" /><path clip-path="url(#clip560)" d="M684.593 1332.26 Q679.431 1332.26 677.441 1333.44 Q675.45 1334.63 675.45 1337.47 Q675.45 1339.74 676.931 1341.08 Q678.436 1342.4 681.005 1342.4 Q684.547 1342.4 686.677 1339.9 Q688.829 1337.38 688.829 1333.21 L688.829 1332.26 L684.593 1332.26 M693.089 1330.5 L693.089 1345.3 L688.829 1345.3 L688.829 1341.36 Q687.371 1343.72 685.195 1344.86 Q683.019 1345.97 679.871 1345.97 Q675.89 1345.97 673.529 1343.75 Q671.191 1341.5 671.191 1337.75 Q671.191 1333.38 674.107 1331.15 Q677.047 1328.93 682.857 1328.93 L688.829 1328.93 L688.829 1328.51 Q688.829 1325.57 686.885 1323.98 Q684.964 1322.36 681.468 1322.36 Q679.246 1322.36 677.14 1322.89 Q675.033 1323.42 673.089 1324.49 L673.089 1320.55 Q675.427 1319.65 677.626 1319.21 Q679.825 1318.75 681.908 1318.75 Q687.533 1318.75 690.311 1321.66 Q693.089 1324.58 693.089 1330.5 Z" fill="#000000" fill-rule="nonzero" fill-opacity="1" /><path clip-path="url(#clip560)" d="M718.922 1323.31 L718.922 1309.28 L723.181 1309.28 L723.181 1345.3 L718.922 1345.3 L718.922 1341.41 Q717.579 1343.72 715.519 1344.86 Q713.482 1345.97 710.612 1345.97 Q705.913 1345.97 702.95 1342.22 Q700.01 1338.47 700.01 1332.36 Q700.01 1326.25 702.95 1322.5 Q705.913 1318.75 710.612 1318.75 Q713.482 1318.75 715.519 1319.88 Q717.579 1320.99 718.922 1323.31 M704.408 1332.36 Q704.408 1337.06 706.329 1339.74 Q708.274 1342.4 711.653 1342.4 Q715.033 1342.4 716.977 1339.74 Q718.922 1337.06 718.922 1332.36 Q718.922 1327.66 716.977 1325 Q715.033 1322.31 711.653 1322.31 Q708.274 1322.31 706.329 1325 Q704.408 1327.66 704.408 1332.36 Z" fill="#000000" fill-rule="nonzero" fill-opacity="1" /><path clip-path="url(#clip560)" d="M758.76 1315.34 L752.417 1332.54 L765.125 1332.54 L758.76 1315.34 M756.121 1310.74 L761.422 1310.74 L774.593 1345.3 L769.732 1345.3 L766.584 1336.43 L751.005 1336.43 L747.857 1345.3 L742.926 1345.3 L756.121 1310.74 Z" fill="#000000" fill-rule="nonzero" fill-opacity="1" /><path clip-path="url(#clip560)" d="M790.889 1309.28 L790.889 1312.82 L786.815 1312.82 Q784.523 1312.82 783.621 1313.75 Q782.741 1314.67 782.741 1317.08 L782.741 1319.37 L789.755 1319.37 L789.755 1322.68 L782.741 1322.68 L782.741 1345.3 L778.459 1345.3 L778.459 1322.68 L774.385 1322.68 L774.385 1319.37 L778.459 1319.37 L778.459 1317.56 Q778.459 1313.24 780.472 1311.27 Q782.486 1309.28 786.861 1309.28 L790.889 1309.28 Z" fill="#000000" fill-rule="nonzero" fill-opacity="1" /><path clip-path="url(#clip560)" d="M797.833 1312.01 L797.833 1319.37 L806.607 1319.37 L806.607 1322.68 L797.833 1322.68 L797.833 1336.75 Q797.833 1339.93 798.69 1340.83 Q799.57 1341.73 802.232 1341.73 L806.607 1341.73 L806.607 1345.3 L802.232 1345.3 Q797.301 1345.3 795.426 1343.47 Q793.551 1341.62 793.551 1336.75 L793.551 1322.68 L790.426 1322.68 L790.426 1319.37 L793.551 1319.37 L793.551 1312.01 L797.833 1312.01 Z" fill="#000000" fill-rule="nonzero" fill-opacity="1" /><path clip-path="url(#clip560)" d="M834.384 1331.27 L834.384 1333.35 L814.801 1333.35 Q815.079 1337.75 817.44 1340.06 Q819.824 1342.36 824.06 1342.36 Q826.514 1342.36 828.806 1341.75 Q831.12 1341.15 833.389 1339.95 L833.389 1343.98 Q831.097 1344.95 828.69 1345.46 Q826.282 1345.97 823.806 1345.97 Q817.602 1345.97 813.968 1342.36 Q810.357 1338.75 810.357 1332.59 Q810.357 1326.22 813.782 1322.5 Q817.232 1318.75 823.065 1318.75 Q828.296 1318.75 831.329 1322.13 Q834.384 1325.48 834.384 1331.27 M830.125 1330.02 Q830.079 1326.52 828.157 1324.44 Q826.259 1322.36 823.111 1322.36 Q819.546 1322.36 817.394 1324.37 Q815.264 1326.38 814.94 1330.04 L830.125 1330.02 Z" fill="#000000" fill-rule="nonzero" fill-opacity="1" /><path clip-path="url(#clip560)" d="M856.398 1323.35 Q855.68 1322.94 854.824 1322.75 Q853.991 1322.54 852.972 1322.54 Q849.361 1322.54 847.417 1324.9 Q845.495 1327.24 845.495 1331.64 L845.495 1345.3 L841.213 1345.3 L841.213 1319.37 L845.495 1319.37 L845.495 1323.4 Q846.838 1321.04 848.991 1319.9 Q851.143 1318.75 854.222 1318.75 Q854.662 1318.75 855.194 1318.81 Q855.727 1318.86 856.375 1318.98 L856.398 1323.35 Z" fill="#000000" fill-rule="nonzero" fill-opacity="1" /><path clip-path="url(#clip560)" d="M896.838 1311.87 L896.838 1316.43 Q894.176 1315.16 891.814 1314.53 Q889.453 1313.91 887.254 1313.91 Q883.435 1313.91 881.352 1315.39 Q879.291 1316.87 879.291 1319.6 Q879.291 1321.89 880.657 1323.07 Q882.046 1324.23 885.889 1324.95 L888.713 1325.53 Q893.944 1326.52 896.421 1329.05 Q898.921 1331.55 898.921 1335.76 Q898.921 1340.78 895.541 1343.37 Q892.185 1345.97 885.68 1345.97 Q883.227 1345.97 880.449 1345.41 Q877.694 1344.86 874.731 1343.77 L874.731 1338.95 Q877.578 1340.55 880.31 1341.36 Q883.041 1342.17 885.68 1342.17 Q889.685 1342.17 891.861 1340.6 Q894.037 1339.02 894.037 1336.11 Q894.037 1333.56 892.463 1332.13 Q890.912 1330.69 887.347 1329.97 L884.5 1329.42 Q879.268 1328.38 876.93 1326.15 Q874.592 1323.93 874.592 1319.97 Q874.592 1315.39 877.81 1312.75 Q881.051 1310.11 886.722 1310.11 Q889.152 1310.11 891.676 1310.55 Q894.199 1310.99 896.838 1311.87 Z" fill="#000000" fill-rule="nonzero" fill-opacity="1" /><path clip-path="url(#clip560)" d="M929.777 1340.37 L929.777 1331.08 L922.138 1331.08 L922.138 1327.24 L934.407 1327.24 L934.407 1342.08 Q931.699 1344 928.435 1345 Q925.171 1345.97 921.467 1345.97 Q913.365 1345.97 908.782 1341.25 Q904.222 1336.5 904.222 1328.05 Q904.222 1319.58 908.782 1314.86 Q913.365 1310.11 921.467 1310.11 Q924.847 1310.11 927.879 1310.94 Q930.935 1311.78 933.504 1313.4 L933.504 1318.38 Q930.911 1316.18 927.995 1315.06 Q925.078 1313.95 921.861 1313.95 Q915.518 1313.95 912.324 1317.5 Q909.152 1321.04 909.152 1328.05 Q909.152 1335.04 912.324 1338.58 Q915.518 1342.12 921.861 1342.12 Q924.337 1342.12 926.282 1341.71 Q928.226 1341.27 929.777 1340.37 Z" fill="#000000" fill-rule="nonzero" fill-opacity="1" /><path clip-path="url(#clip560)" d="M942.948 1310.74 L949.916 1310.74 L958.735 1334.25 L967.601 1310.74 L974.569 1310.74 L974.569 1345.3 L970.008 1345.3 L970.008 1314.95 L961.096 1338.65 L956.397 1338.65 L947.485 1314.95 L947.485 1345.3 L942.948 1345.3 L942.948 1310.74 Z" fill="#000000" fill-rule="nonzero" fill-opacity="1" /><path clip-path="url(#clip560)" d="M993.712 1322.36 Q990.286 1322.36 988.295 1325.04 Q986.305 1327.7 986.305 1332.36 Q986.305 1337.01 988.272 1339.69 Q990.263 1342.36 993.712 1342.36 Q997.115 1342.36 999.106 1339.67 Q1001.1 1336.99 1001.1 1332.36 Q1001.1 1327.75 999.106 1325.06 Q997.115 1322.36 993.712 1322.36 M993.712 1318.75 Q999.268 1318.75 1002.44 1322.36 Q1005.61 1325.97 1005.61 1332.36 Q1005.61 1338.72 1002.44 1342.36 Q999.268 1345.97 993.712 1345.97 Q988.133 1345.97 984.962 1342.36 Q981.814 1338.72 981.814 1332.36 Q981.814 1325.97 984.962 1322.36 Q988.133 1318.75 993.712 1318.75 Z" fill="#000000" fill-rule="nonzero" fill-opacity="1" /><path clip-path="url(#clip560)" d="M1029.73 1323.31 L1029.73 1309.28 L1033.99 1309.28 L1033.99 1345.3 L1029.73 1345.3 L1029.73 1341.41 Q1028.39 1343.72 1026.33 1344.86 Q1024.29 1345.97 1021.42 1345.97 Q1016.72 1345.97 1013.76 1342.22 Q1010.82 1338.47 1010.82 1332.36 Q1010.82 1326.25 1013.76 1322.5 Q1016.72 1318.75 1021.42 1318.75 Q1024.29 1318.75 1026.33 1319.88 Q1028.39 1320.99 1029.73 1323.31 M1015.22 1332.36 Q1015.22 1337.06 1017.14 1339.74 Q1019.08 1342.4 1022.46 1342.4 Q1025.84 1342.4 1027.79 1339.74 Q1029.73 1337.06 1029.73 1332.36 Q1029.73 1327.66 1027.79 1325 Q1025.84 1322.31 1022.46 1322.31 Q1019.08 1322.31 1017.14 1325 Q1015.22 1327.66 1015.22 1332.36 Z" fill="#000000" fill-rule="nonzero" fill-opacity="1" /><path clip-path="url(#clip560)" d="M1064.94 1331.27 L1064.94 1333.35 L1045.36 1333.35 Q1045.63 1337.75 1047.99 1340.06 Q1050.38 1342.36 1054.61 1342.36 Q1057.07 1342.36 1059.36 1341.75 Q1061.67 1341.15 1063.94 1339.95 L1063.94 1343.98 Q1061.65 1344.95 1059.24 1345.46 Q1056.84 1345.97 1054.36 1345.97 Q1048.16 1345.97 1044.52 1342.36 Q1040.91 1338.75 1040.91 1332.59 Q1040.91 1326.22 1044.34 1322.5 Q1047.79 1318.75 1053.62 1318.75 Q1058.85 1318.75 1061.88 1322.13 Q1064.94 1325.48 1064.94 1331.27 M1060.68 1330.02 Q1060.63 1326.52 1058.71 1324.44 Q1056.81 1322.36 1053.67 1322.36 Q1050.1 1322.36 1047.95 1324.37 Q1045.82 1326.38 1045.49 1330.04 L1060.68 1330.02 Z" fill="#000000" fill-rule="nonzero" fill-opacity="1" /><path clip-path="url(#clip560)" d="M1071.93 1309.28 L1076.19 1309.28 L1076.19 1345.3 L1071.93 1345.3 L1071.93 1309.28 Z" fill="#000000" fill-rule="nonzero" fill-opacity="1" /></svg>
