<?xml version="1.0" encoding="utf-8"?>
<svg xmlns="http://www.w3.org/2000/svg" xmlns:xlink="http://www.w3.org/1999/xlink" width="600" height="400" viewBox="0 0 2400 1600">
<defs>
  <clipPath id="clip600">
    <rect x="0" y="0" width="2400" height="1600"/>
  </clipPath>
</defs>
<path clip-path="url(#clip600)" d="M0 1600 L2400 1600 L2400 0 L0 0  Z" fill="#ffffff" fill-rule="evenodd" fill-opacity="1"/>
<defs>
  <clipPath id="clip601">
    <rect x="480" y="0" width="1681" height="1600"/>
  </clipPath>
</defs>
<path clip-path="url(#clip600)" d="M203.964 1423.18 L2352.76 1423.18 L2352.76 123.472 L203.964 123.472  Z" fill="#ffffff" fill-rule="evenodd" fill-opacity="1"/>
<defs>
  <clipPath id="clip602">
    <rect x="203" y="123" width="2150" height="1301"/>
  </clipPath>
</defs>
<polyline clip-path="url(#clip602)" style="stroke:#000000; stroke-linecap:round; stroke-linejoin:round; stroke-width:2; stroke-opacity:0.1; fill:none" points="617.328,1423.18 617.328,123.472 "/>
<polyline clip-path="url(#clip602)" style="stroke:#000000; stroke-linecap:round; stroke-linejoin:round; stroke-width:2; stroke-opacity:0.1; fill:none" points="1058.02,1423.18 1058.02,123.472 "/>
<polyline clip-path="url(#clip602)" style="stroke:#000000; stroke-linecap:round; stroke-linejoin:round; stroke-width:2; stroke-opacity:0.1; fill:none" points="1498.7,1423.18 1498.7,123.472 "/>
<polyline clip-path="url(#clip602)" style="stroke:#000000; stroke-linecap:round; stroke-linejoin:round; stroke-width:2; stroke-opacity:0.1; fill:none" points="1939.39,1423.18 1939.39,123.472 "/>
<polyline clip-path="url(#clip600)" style="stroke:#000000; stroke-linecap:round; stroke-linejoin:round; stroke-width:4; stroke-opacity:1; fill:none" points="203.964,1423.18 2352.76,1423.18 "/>
<polyline clip-path="url(#clip600)" style="stroke:#000000; stroke-linecap:round; stroke-linejoin:round; stroke-width:4; stroke-opacity:1; fill:none" points="617.328,1423.18 617.328,1404.28 "/>
<polyline clip-path="url(#clip600)" style="stroke:#000000; stroke-linecap:round; stroke-linejoin:round; stroke-width:4; stroke-opacity:1; fill:none" points="1058.02,1423.18 1058.02,1404.28 "/>
<polyline clip-path="url(#clip600)" style="stroke:#000000; stroke-linecap:round; stroke-linejoin:round; stroke-width:4; stroke-opacity:1; fill:none" points="1498.7,1423.18 1498.7,1404.28 "/>
<polyline clip-path="url(#clip600)" style="stroke:#000000; stroke-linecap:round; stroke-linejoin:round; stroke-width:4; stroke-opacity:1; fill:none" points="1939.39,1423.18 1939.39,1404.28 "/>
<path clip-path="url(#clip600)" d="M607.606 1451.02 L625.963 1451.02 L625.963 1454.96 L611.889 1454.96 L611.889 1463.43 Q612.907 1463.08 613.926 1462.92 Q614.944 1462.73 615.963 1462.73 Q621.75 1462.73 625.129 1465.9 Q628.509 1469.08 628.509 1474.49 Q628.509 1480.07 625.037 1483.17 Q621.565 1486.25 615.245 1486.25 Q613.069 1486.25 610.801 1485.88 Q608.555 1485.51 606.148 1484.77 L606.148 1480.07 Q608.231 1481.2 610.454 1481.76 Q612.676 1482.32 615.153 1482.32 Q619.157 1482.32 621.495 1480.21 Q623.833 1478.1 623.833 1474.49 Q623.833 1470.88 621.495 1468.77 Q619.157 1466.67 615.153 1466.67 Q613.278 1466.67 611.403 1467.08 Q609.551 1467.5 607.606 1468.38 L607.606 1451.02 Z" fill="#000000" fill-rule="nonzero" fill-opacity="1" /><path clip-path="url(#clip600)" d="M1032.7 1481.64 L1040.34 1481.64 L1040.34 1455.28 L1032.03 1456.95 L1032.03 1452.69 L1040.3 1451.02 L1044.97 1451.02 L1044.97 1481.64 L1052.61 1481.64 L1052.61 1485.58 L1032.7 1485.58 L1032.7 1481.64 Z" fill="#000000" fill-rule="nonzero" fill-opacity="1" /><path clip-path="url(#clip600)" d="M1072.06 1454.1 Q1068.44 1454.1 1066.62 1457.66 Q1064.81 1461.2 1064.81 1468.33 Q1064.81 1475.44 1066.62 1479.01 Q1068.44 1482.55 1072.06 1482.55 Q1075.69 1482.55 1077.5 1479.01 Q1079.32 1475.44 1079.32 1468.33 Q1079.32 1461.2 1077.5 1457.66 Q1075.69 1454.1 1072.06 1454.1 M1072.06 1450.39 Q1077.87 1450.39 1080.92 1455 Q1084 1459.58 1084 1468.33 Q1084 1477.06 1080.92 1481.67 Q1077.87 1486.25 1072.06 1486.25 Q1066.25 1486.25 1063.17 1481.67 Q1060.11 1477.06 1060.11 1468.33 Q1060.11 1459.58 1063.17 1455 Q1066.25 1450.39 1072.06 1450.39 Z" fill="#000000" fill-rule="nonzero" fill-opacity="1" /><path clip-path="url(#clip600)" d="M1473.89 1481.64 L1481.53 1481.64 L1481.53 1455.28 L1473.22 1456.95 L1473.22 1452.69 L1481.48 1451.02 L1486.16 1451.02 L1486.16 1481.64 L1493.8 1481.64 L1493.8 1485.58 L1473.89 1485.58 L1473.89 1481.64 Z" fill="#000000" fill-rule="nonzero" fill-opacity="1" /><path clip-path="url(#clip600)" d="M1503.29 1451.02 L1521.64 1451.02 L1521.64 1454.96 L1507.57 1454.96 L1507.57 1463.43 Q1508.59 1463.08 1509.61 1462.92 Q1510.62 1462.73 1511.64 1462.73 Q1517.43 1462.73 1520.81 1465.9 Q1524.19 1469.08 1524.19 1474.49 Q1524.19 1480.07 1520.72 1483.17 Q1517.25 1486.25 1510.93 1486.25 Q1508.75 1486.25 1506.48 1485.88 Q1504.24 1485.51 1501.83 1484.77 L1501.83 1480.07 Q1503.91 1481.2 1506.13 1481.76 Q1508.36 1482.32 1510.83 1482.32 Q1514.84 1482.32 1517.18 1480.21 Q1519.51 1478.1 1519.51 1474.49 Q1519.51 1470.88 1517.18 1468.77 Q1514.84 1466.67 1510.83 1466.67 Q1508.96 1466.67 1507.08 1467.08 Q1505.23 1467.5 1503.29 1468.38 L1503.29 1451.02 Z" fill="#000000" fill-rule="nonzero" fill-opacity="1" /><path clip-path="url(#clip600)" d="M1918.16 1481.64 L1934.48 1481.64 L1934.48 1485.58 L1912.54 1485.58 L1912.54 1481.64 Q1915.2 1478.89 1919.78 1474.26 Q1924.39 1469.61 1925.57 1468.27 Q1927.82 1465.74 1928.7 1464.01 Q1929.6 1462.25 1929.6 1460.56 Q1929.6 1457.8 1927.65 1456.07 Q1925.73 1454.33 1922.63 1454.33 Q1920.43 1454.33 1917.98 1455.09 Q1915.55 1455.86 1912.77 1457.41 L1912.77 1452.69 Q1915.59 1451.55 1918.05 1450.97 Q1920.5 1450.39 1922.54 1450.39 Q1927.91 1450.39 1931.1 1453.08 Q1934.3 1455.77 1934.3 1460.26 Q1934.3 1462.39 1933.49 1464.31 Q1932.7 1466.2 1930.59 1468.8 Q1930.02 1469.47 1926.91 1472.69 Q1923.81 1475.88 1918.16 1481.64 Z" fill="#000000" fill-rule="nonzero" fill-opacity="1" /><path clip-path="url(#clip600)" d="M1954.3 1454.1 Q1950.69 1454.1 1948.86 1457.66 Q1947.05 1461.2 1947.05 1468.33 Q1947.05 1475.44 1948.86 1479.01 Q1950.69 1482.55 1954.3 1482.55 Q1957.93 1482.55 1959.74 1479.01 Q1961.57 1475.44 1961.57 1468.33 Q1961.57 1461.2 1959.74 1457.66 Q1957.93 1454.1 1954.3 1454.1 M1954.3 1450.39 Q1960.11 1450.39 1963.16 1455 Q1966.24 1459.58 1966.24 1468.33 Q1966.24 1477.06 1963.16 1481.67 Q1960.11 1486.25 1954.3 1486.25 Q1948.49 1486.25 1945.41 1481.67 Q1942.35 1477.06 1942.35 1468.33 Q1942.35 1459.58 1945.41 1455 Q1948.49 1450.39 1954.3 1450.39 Z" fill="#000000" fill-rule="nonzero" fill-opacity="1" /><path clip-path="url(#clip600)" d="M1090.86 1520.52 L1131.06 1520.52 L1131.06 1525.93 L1114.19 1525.93 L1114.19 1568.04 L1107.73 1568.04 L1107.73 1525.93 L1090.86 1525.93 L1090.86 1520.52 Z" fill="#000000" fill-rule="nonzero" fill-opacity="1" /><path clip-path="url(#clip600)" d="M1135 1532.4 L1140.86 1532.4 L1140.86 1568.04 L1135 1568.04 L1135 1532.4 M1135 1518.52 L1140.86 1518.52 L1140.86 1525.93 L1135 1525.93 L1135 1518.52 Z" fill="#000000" fill-rule="nonzero" fill-opacity="1" /><path clip-path="url(#clip600)" d="M1180.87 1539.24 Q1183.07 1535.29 1186.12 1533.41 Q1189.18 1531.54 1193.31 1531.54 Q1198.88 1531.54 1201.91 1535.45 Q1204.93 1539.33 1204.93 1546.53 L1204.93 1568.04 L1199.04 1568.04 L1199.04 1546.72 Q1199.04 1541.59 1197.23 1539.11 Q1195.41 1536.63 1191.69 1536.63 Q1187.14 1536.63 1184.5 1539.65 Q1181.86 1542.68 1181.86 1547.9 L1181.86 1568.04 L1175.97 1568.04 L1175.97 1546.72 Q1175.97 1541.56 1174.15 1539.11 Q1172.34 1536.63 1168.55 1536.63 Q1164.06 1536.63 1161.42 1539.68 Q1158.78 1542.71 1158.78 1547.9 L1158.78 1568.04 L1152.89 1568.04 L1152.89 1532.4 L1158.78 1532.4 L1158.78 1537.93 Q1160.79 1534.66 1163.59 1533.1 Q1166.39 1531.54 1170.24 1531.54 Q1174.12 1531.54 1176.83 1533.51 Q1179.56 1535.48 1180.87 1539.24 Z" fill="#000000" fill-rule="nonzero" fill-opacity="1" /><path clip-path="url(#clip600)" d="M1247.1 1548.76 L1247.1 1551.62 L1220.18 1551.62 Q1220.56 1557.67 1223.81 1560.85 Q1227.08 1564 1232.91 1564 Q1236.28 1564 1239.43 1563.17 Q1242.62 1562.35 1245.74 1560.69 L1245.74 1566.23 Q1242.58 1567.57 1239.27 1568.27 Q1235.96 1568.97 1232.56 1568.97 Q1224.03 1568.97 1219.03 1564 Q1214.07 1559.04 1214.07 1550.57 Q1214.07 1541.82 1218.78 1536.69 Q1223.52 1531.54 1231.54 1531.54 Q1238.73 1531.54 1242.9 1536.18 Q1247.1 1540.8 1247.1 1548.76 M1241.25 1547.04 Q1241.18 1542.23 1238.54 1539.37 Q1235.93 1536.5 1231.6 1536.5 Q1226.7 1536.5 1223.74 1539.27 Q1220.81 1542.04 1220.37 1547.07 L1241.25 1547.04 Z" fill="#000000" fill-rule="nonzero" fill-opacity="1" /><path clip-path="url(#clip600)" d="M1291.5 1518.58 Q1287.24 1525.9 1285.17 1533.06 Q1283.1 1540.23 1283.1 1547.58 Q1283.1 1554.93 1285.17 1562.16 Q1287.27 1569.35 1291.5 1576.64 L1286.41 1576.64 Q1281.64 1569.16 1279.25 1561.93 Q1276.9 1554.71 1276.9 1547.58 Q1276.9 1540.48 1279.25 1533.29 Q1281.61 1526.09 1286.41 1518.58 L1291.5 1518.58 Z" fill="#000000" fill-rule="nonzero" fill-opacity="1" /><path clip-path="url(#clip600)" d="M1332.5 1546.53 L1332.5 1568.04 L1326.64 1568.04 L1326.64 1546.72 Q1326.64 1541.66 1324.67 1539.14 Q1322.7 1536.63 1318.75 1536.63 Q1314.01 1536.63 1311.27 1539.65 Q1308.53 1542.68 1308.53 1547.9 L1308.53 1568.04 L1302.64 1568.04 L1302.64 1518.52 L1308.53 1518.52 L1308.53 1537.93 Q1310.63 1534.72 1313.47 1533.13 Q1316.33 1531.54 1320.06 1531.54 Q1326.2 1531.54 1329.35 1535.36 Q1332.5 1539.14 1332.5 1546.53 Z" fill="#000000" fill-rule="nonzero" fill-opacity="1" /><path clip-path="url(#clip600)" d="M1357.99 1536.5 Q1353.28 1536.5 1350.55 1540.19 Q1347.81 1543.85 1347.81 1550.25 Q1347.81 1556.65 1350.52 1560.34 Q1353.25 1564 1357.99 1564 Q1362.67 1564 1365.41 1560.31 Q1368.15 1556.62 1368.15 1550.25 Q1368.15 1543.92 1365.41 1540.23 Q1362.67 1536.5 1357.99 1536.5 M1357.99 1531.54 Q1365.63 1531.54 1369.99 1536.5 Q1374.35 1541.47 1374.35 1550.25 Q1374.35 1559 1369.99 1564 Q1365.63 1568.97 1357.99 1568.97 Q1350.32 1568.97 1345.96 1564 Q1341.63 1559 1341.63 1550.25 Q1341.63 1541.47 1345.96 1536.5 Q1350.32 1531.54 1357.99 1531.54 Z" fill="#000000" fill-rule="nonzero" fill-opacity="1" /><path clip-path="url(#clip600)" d="M1383.46 1553.98 L1383.46 1532.4 L1389.31 1532.4 L1389.31 1553.75 Q1389.31 1558.81 1391.29 1561.36 Q1393.26 1563.87 1397.21 1563.87 Q1401.95 1563.87 1404.69 1560.85 Q1407.46 1557.83 1407.46 1552.61 L1407.46 1532.4 L1413.31 1532.4 L1413.31 1568.04 L1407.46 1568.04 L1407.46 1562.57 Q1405.32 1565.82 1402.49 1567.41 Q1399.69 1568.97 1395.97 1568.97 Q1389.82 1568.97 1386.64 1565.15 Q1383.46 1561.33 1383.46 1553.98 M1398.19 1531.54 L1398.19 1531.54 Z" fill="#000000" fill-rule="nonzero" fill-opacity="1" /><path clip-path="url(#clip600)" d="M1446.03 1537.87 Q1445.05 1537.3 1443.87 1537.04 Q1442.72 1536.76 1441.32 1536.76 Q1436.36 1536.76 1433.68 1540 Q1431.04 1543.22 1431.04 1549.27 L1431.04 1568.04 L1425.15 1568.04 L1425.15 1532.4 L1431.04 1532.4 L1431.04 1537.93 Q1432.89 1534.69 1435.85 1533.13 Q1438.81 1531.54 1443.04 1531.54 Q1443.65 1531.54 1444.38 1531.63 Q1445.11 1531.7 1446 1531.85 L1446.03 1537.87 Z" fill="#000000" fill-rule="nonzero" fill-opacity="1" /><path clip-path="url(#clip600)" d="M1451.25 1518.58 L1456.34 1518.58 Q1461.12 1526.09 1463.47 1533.29 Q1465.86 1540.48 1465.86 1547.58 Q1465.86 1554.71 1463.47 1561.93 Q1461.12 1569.16 1456.34 1576.64 L1451.25 1576.64 Q1455.49 1569.35 1457.55 1562.16 Q1459.66 1554.93 1459.66 1547.58 Q1459.66 1540.23 1457.55 1533.06 Q1455.49 1525.9 1451.25 1518.58 Z" fill="#000000" fill-rule="nonzero" fill-opacity="1" /><polyline clip-path="url(#clip602)" style="stroke:#000000; stroke-linecap:round; stroke-linejoin:round; stroke-width:2; stroke-opacity:0.1; fill:none" points="203.964,1339.48 2352.76,1339.48 "/>
<polyline clip-path="url(#clip602)" style="stroke:#000000; stroke-linecap:round; stroke-linejoin:round; stroke-width:2; stroke-opacity:0.1; fill:none" points="203.964,1104.88 2352.76,1104.88 "/>
<polyline clip-path="url(#clip602)" style="stroke:#000000; stroke-linecap:round; stroke-linejoin:round; stroke-width:2; stroke-opacity:0.1; fill:none" points="203.964,870.284 2352.76,870.284 "/>
<polyline clip-path="url(#clip602)" style="stroke:#000000; stroke-linecap:round; stroke-linejoin:round; stroke-width:2; stroke-opacity:0.1; fill:none" points="203.964,635.688 2352.76,635.688 "/>
<polyline clip-path="url(#clip602)" style="stroke:#000000; stroke-linecap:round; stroke-linejoin:round; stroke-width:2; stroke-opacity:0.1; fill:none" points="203.964,401.091 2352.76,401.091 "/>
<polyline clip-path="url(#clip602)" style="stroke:#000000; stroke-linecap:round; stroke-linejoin:round; stroke-width:2; stroke-opacity:0.1; fill:none" points="203.964,166.495 2352.76,166.495 "/>
<polyline clip-path="url(#clip600)" style="stroke:#000000; stroke-linecap:round; stroke-linejoin:round; stroke-width:4; stroke-opacity:1; fill:none" points="203.964,1423.18 203.964,123.472 "/>
<polyline clip-path="url(#clip600)" style="stroke:#000000; stroke-linecap:round; stroke-linejoin:round; stroke-width:4; stroke-opacity:1; fill:none" points="203.964,1339.48 222.861,1339.48 "/>
<polyline clip-path="url(#clip600)" style="stroke:#000000; stroke-linecap:round; stroke-linejoin:round; stroke-width:4; stroke-opacity:1; fill:none" points="203.964,1104.88 222.861,1104.88 "/>
<polyline clip-path="url(#clip600)" style="stroke:#000000; stroke-linecap:round; stroke-linejoin:round; stroke-width:4; stroke-opacity:1; fill:none" points="203.964,870.284 222.861,870.284 "/>
<polyline clip-path="url(#clip600)" style="stroke:#000000; stroke-linecap:round; stroke-linejoin:round; stroke-width:4; stroke-opacity:1; fill:none" points="203.964,635.688 222.861,635.688 "/>
<polyline clip-path="url(#clip600)" style="stroke:#000000; stroke-linecap:round; stroke-linejoin:round; stroke-width:4; stroke-opacity:1; fill:none" points="203.964,401.091 222.861,401.091 "/>
<polyline clip-path="url(#clip600)" style="stroke:#000000; stroke-linecap:round; stroke-linejoin:round; stroke-width:4; stroke-opacity:1; fill:none" points="203.964,166.495 222.861,166.495 "/>
<path clip-path="url(#clip600)" d="M147.061 1322.2 L165.417 1322.2 L165.417 1326.13 L151.343 1326.13 L151.343 1334.6 Q152.362 1334.26 153.38 1334.09 Q154.399 1333.91 155.417 1333.91 Q161.204 1333.91 164.584 1337.08 Q167.964 1340.25 167.964 1345.67 Q167.964 1351.25 164.491 1354.35 Q161.019 1357.43 154.7 1357.43 Q152.524 1357.43 150.255 1357.06 Q148.01 1356.69 145.603 1355.95 L145.603 1351.25 Q147.686 1352.38 149.908 1352.94 Q152.13 1353.49 154.607 1353.49 Q158.612 1353.49 160.95 1351.39 Q163.288 1349.28 163.288 1345.67 Q163.288 1342.06 160.95 1339.95 Q158.612 1337.84 154.607 1337.84 Q152.732 1337.84 150.857 1338.26 Q149.005 1338.68 147.061 1339.56 L147.061 1322.2 Z" fill="#000000" fill-rule="nonzero" fill-opacity="1" /><path clip-path="url(#clip600)" d="M116.668 1118.22 L124.306 1118.22 L124.306 1091.86 L115.996 1093.53 L115.996 1089.27 L124.26 1087.6 L128.936 1087.6 L128.936 1118.22 L136.575 1118.22 L136.575 1122.16 L116.668 1122.16 L116.668 1118.22 Z" fill="#000000" fill-rule="nonzero" fill-opacity="1" /><path clip-path="url(#clip600)" d="M156.019 1090.68 Q152.408 1090.68 150.579 1094.24 Q148.774 1097.79 148.774 1104.91 Q148.774 1112.02 150.579 1115.59 Q152.408 1119.13 156.019 1119.13 Q159.653 1119.13 161.459 1115.59 Q163.288 1112.02 163.288 1104.91 Q163.288 1097.79 161.459 1094.24 Q159.653 1090.68 156.019 1090.68 M156.019 1086.98 Q161.829 1086.98 164.885 1091.58 Q167.964 1096.16 167.964 1104.91 Q167.964 1113.64 164.885 1118.25 Q161.829 1122.83 156.019 1122.83 Q150.209 1122.83 147.13 1118.25 Q144.075 1113.64 144.075 1104.91 Q144.075 1096.16 147.13 1091.58 Q150.209 1086.98 156.019 1086.98 Z" fill="#000000" fill-rule="nonzero" fill-opacity="1" /><path clip-path="url(#clip600)" d="M117.663 883.629 L125.302 883.629 L125.302 857.263 L116.992 858.93 L116.992 854.67 L125.255 853.004 L129.931 853.004 L129.931 883.629 L137.57 883.629 L137.57 887.564 L117.663 887.564 L117.663 883.629 Z" fill="#000000" fill-rule="nonzero" fill-opacity="1" /><path clip-path="url(#clip600)" d="M147.061 853.004 L165.417 853.004 L165.417 856.939 L151.343 856.939 L151.343 865.411 Q152.362 865.064 153.38 864.902 Q154.399 864.717 155.417 864.717 Q161.204 864.717 164.584 867.888 Q167.964 871.059 167.964 876.476 Q167.964 882.055 164.491 885.156 Q161.019 888.235 154.7 888.235 Q152.524 888.235 150.255 887.865 Q148.01 887.494 145.603 886.754 L145.603 882.055 Q147.686 883.189 149.908 883.744 Q152.13 884.3 154.607 884.3 Q158.612 884.3 160.95 882.193 Q163.288 880.087 163.288 876.476 Q163.288 872.865 160.95 870.758 Q158.612 868.652 154.607 868.652 Q152.732 868.652 150.857 869.069 Q149.005 869.485 147.061 870.365 L147.061 853.004 Z" fill="#000000" fill-rule="nonzero" fill-opacity="1" /><path clip-path="url(#clip600)" d="M119.885 649.032 L136.204 649.032 L136.204 652.968 L114.26 652.968 L114.26 649.032 Q116.922 646.278 121.505 641.648 Q126.112 636.995 127.292 635.653 Q129.538 633.13 130.417 631.394 Q131.32 629.634 131.32 627.945 Q131.32 625.19 129.376 623.454 Q127.455 621.718 124.353 621.718 Q122.154 621.718 119.7 622.482 Q117.269 623.245 114.492 624.796 L114.492 620.074 Q117.316 618.94 119.769 618.361 Q122.223 617.783 124.26 617.783 Q129.63 617.783 132.825 620.468 Q136.019 623.153 136.019 627.644 Q136.019 629.773 135.209 631.695 Q134.422 633.593 132.316 636.185 Q131.737 636.857 128.635 640.074 Q125.533 643.269 119.885 649.032 Z" fill="#000000" fill-rule="nonzero" fill-opacity="1" /><path clip-path="url(#clip600)" d="M156.019 621.486 Q152.408 621.486 150.579 625.051 Q148.774 628.593 148.774 635.722 Q148.774 642.829 150.579 646.393 Q152.408 649.935 156.019 649.935 Q159.653 649.935 161.459 646.393 Q163.288 642.829 163.288 635.722 Q163.288 628.593 161.459 625.051 Q159.653 621.486 156.019 621.486 M156.019 617.783 Q161.829 617.783 164.885 622.389 Q167.964 626.972 167.964 635.722 Q167.964 644.449 164.885 649.056 Q161.829 653.639 156.019 653.639 Q150.209 653.639 147.13 649.056 Q144.075 644.449 144.075 635.722 Q144.075 626.972 147.13 622.389 Q150.209 617.783 156.019 617.783 Z" fill="#000000" fill-rule="nonzero" fill-opacity="1" /><path clip-path="url(#clip600)" d="M120.88 414.436 L137.2 414.436 L137.2 418.371 L115.256 418.371 L115.256 414.436 Q117.918 411.681 122.501 407.052 Q127.107 402.399 128.288 401.057 Q130.533 398.533 131.413 396.797 Q132.316 395.038 132.316 393.348 Q132.316 390.594 130.371 388.858 Q128.45 387.121 125.348 387.121 Q123.149 387.121 120.695 387.885 Q118.265 388.649 115.487 390.2 L115.487 385.478 Q118.311 384.344 120.765 383.765 Q123.218 383.186 125.255 383.186 Q130.626 383.186 133.82 385.871 Q137.015 388.557 137.015 393.047 Q137.015 395.177 136.204 397.098 Q135.417 398.996 133.311 401.589 Q132.732 402.26 129.63 405.478 Q126.529 408.672 120.88 414.436 Z" fill="#000000" fill-rule="nonzero" fill-opacity="1" /><path clip-path="url(#clip600)" d="M147.061 383.811 L165.417 383.811 L165.417 387.746 L151.343 387.746 L151.343 396.219 Q152.362 395.871 153.38 395.709 Q154.399 395.524 155.417 395.524 Q161.204 395.524 164.584 398.695 Q167.964 401.867 167.964 407.283 Q167.964 412.862 164.491 415.964 Q161.019 419.043 154.7 419.043 Q152.524 419.043 150.255 418.672 Q148.01 418.302 145.603 417.561 L145.603 412.862 Q147.686 413.996 149.908 414.552 Q152.13 415.107 154.607 415.107 Q158.612 415.107 160.95 413.001 Q163.288 410.894 163.288 407.283 Q163.288 403.672 160.95 401.566 Q158.612 399.459 154.607 399.459 Q152.732 399.459 150.857 399.876 Q149.005 400.293 147.061 401.172 L147.061 383.811 Z" fill="#000000" fill-rule="nonzero" fill-opacity="1" /><path clip-path="url(#clip600)" d="M130.024 165.141 Q133.38 165.858 135.255 168.127 Q137.154 170.395 137.154 173.729 Q137.154 178.844 133.635 181.645 Q130.117 184.446 123.635 184.446 Q121.459 184.446 119.144 184.006 Q116.853 183.59 114.399 182.733 L114.399 178.219 Q116.343 179.354 118.658 179.932 Q120.973 180.511 123.496 180.511 Q127.894 180.511 130.186 178.775 Q132.501 177.039 132.501 173.729 Q132.501 170.673 130.348 168.96 Q128.218 167.224 124.399 167.224 L120.371 167.224 L120.371 163.382 L124.584 163.382 Q128.033 163.382 129.862 162.016 Q131.691 160.627 131.691 158.034 Q131.691 155.372 129.792 153.96 Q127.917 152.525 124.399 152.525 Q122.478 152.525 120.279 152.942 Q118.08 153.358 115.441 154.238 L115.441 150.071 Q118.103 149.331 120.418 148.96 Q122.755 148.59 124.816 148.59 Q130.14 148.59 133.242 151.021 Q136.343 153.428 136.343 157.548 Q136.343 160.419 134.7 162.409 Q133.056 164.377 130.024 165.141 Z" fill="#000000" fill-rule="nonzero" fill-opacity="1" /><path clip-path="url(#clip600)" d="M156.019 152.294 Q152.408 152.294 150.579 155.858 Q148.774 159.4 148.774 166.53 Q148.774 173.636 150.579 177.201 Q152.408 180.743 156.019 180.743 Q159.653 180.743 161.459 177.201 Q163.288 173.636 163.288 166.53 Q163.288 159.4 161.459 155.858 Q159.653 152.294 156.019 152.294 M156.019 148.59 Q161.829 148.59 164.885 153.196 Q167.964 157.78 167.964 166.53 Q167.964 175.256 164.885 179.863 Q161.829 184.446 156.019 184.446 Q150.209 184.446 147.13 179.863 Q144.075 175.256 144.075 166.53 Q144.075 157.78 147.13 153.196 Q150.209 148.59 156.019 148.59 Z" fill="#000000" fill-rule="nonzero" fill-opacity="1" /><path clip-path="url(#clip600)" d="M21.7677 1114.35 L39.6235 1114.35 L39.6235 1106.27 Q39.6235 1101.78 37.3 1099.33 Q34.9765 1096.88 30.6797 1096.88 Q26.4147 1096.88 24.0912 1099.33 Q21.7677 1101.78 21.7677 1106.27 L21.7677 1114.35 M16.4842 1120.78 L16.4842 1106.27 Q16.4842 1098.28 20.1126 1094.21 Q23.7092 1090.1 30.6797 1090.1 Q37.7138 1090.1 41.3104 1094.21 Q44.907 1098.28 44.907 1106.27 L44.907 1114.35 L64.0042 1114.35 L64.0042 1120.78 L16.4842 1120.78 Z" fill="#000000" fill-rule="nonzero" fill-opacity="1" /><path clip-path="url(#clip600)" d="M32.4621 1070.24 Q32.4621 1074.95 36.1542 1077.69 Q39.8145 1080.42 46.212 1080.42 Q52.6095 1080.42 56.3017 1077.72 Q59.9619 1074.98 59.9619 1070.24 Q59.9619 1065.56 56.2698 1062.82 Q52.5777 1060.09 46.212 1060.09 Q39.8781 1060.09 36.186 1062.82 Q32.4621 1065.56 32.4621 1070.24 M27.4968 1070.24 Q27.4968 1062.6 32.4621 1058.24 Q37.4273 1053.88 46.212 1053.88 Q54.9649 1053.88 59.9619 1058.24 Q64.9272 1062.6 64.9272 1070.24 Q64.9272 1077.91 59.9619 1082.27 Q54.9649 1086.6 46.212 1086.6 Q37.4273 1086.6 32.4621 1082.27 Q27.4968 1077.91 27.4968 1070.24 Z" fill="#000000" fill-rule="nonzero" fill-opacity="1" /><path clip-path="url(#clip600)" d="M28.3562 1047.58 L28.3562 1041.72 L56.1743 1034.4 L28.3562 1027.11 L28.3562 1020.2 L56.1743 1012.88 L28.3562 1005.59 L28.3562 999.738 L64.0042 1009.06 L64.0042 1015.97 L34.7856 1023.64 L64.0042 1031.34 L64.0042 1038.25 L28.3562 1047.58 Z" fill="#000000" fill-rule="nonzero" fill-opacity="1" /><path clip-path="url(#clip600)" d="M44.7161 960.366 L47.5806 960.366 L47.5806 987.293 Q53.6281 986.911 56.8109 983.665 Q59.9619 980.387 59.9619 974.562 Q59.9619 971.188 59.1344 968.037 Q58.3069 964.854 56.6518 961.735 L62.1899 961.735 Q63.5267 964.886 64.227 968.196 Q64.9272 971.506 64.9272 974.912 Q64.9272 983.442 59.9619 988.439 Q54.9967 993.404 46.5303 993.404 Q37.7774 993.404 32.6531 988.694 Q27.4968 983.951 27.4968 975.931 Q27.4968 968.737 32.1438 964.568 Q36.7589 960.366 44.7161 960.366 M42.9973 966.223 Q38.1912 966.286 35.3266 968.928 Q32.4621 971.538 32.4621 975.867 Q32.4621 980.768 35.2312 983.729 Q38.0002 986.657 43.0292 987.102 L42.9973 966.223 Z" fill="#000000" fill-rule="nonzero" fill-opacity="1" /><path clip-path="url(#clip600)" d="M33.8307 930.097 Q33.2578 931.084 33.0032 932.262 Q32.7167 933.408 32.7167 934.808 Q32.7167 939.773 35.9632 942.447 Q39.1779 945.089 45.2253 945.089 L64.0042 945.089 L64.0042 950.977 L28.3562 950.977 L28.3562 945.089 L33.8944 945.089 Q30.6479 943.243 29.0883 940.283 Q27.4968 937.323 27.4968 933.089 Q27.4968 932.485 27.5923 931.753 Q27.656 931.02 27.8151 930.129 L33.8307 930.097 Z" fill="#000000" fill-rule="nonzero" fill-opacity="1" /><path clip-path="url(#clip600)" d="M20.1444 867.395 L26.9239 867.395 Q23.9002 870.642 22.4043 874.334 Q20.9083 877.994 20.9083 882.132 Q20.9083 890.28 25.9054 894.609 Q30.8707 898.937 40.2919 898.937 Q49.6813 898.937 54.6784 894.609 Q59.6436 890.28 59.6436 882.132 Q59.6436 877.994 58.1477 874.334 Q56.6518 870.642 53.6281 867.395 L60.3439 867.395 Q62.6355 870.769 63.7814 874.557 Q64.9272 878.312 64.9272 882.514 Q64.9272 893.304 58.3387 899.51 Q51.7183 905.717 40.2919 905.717 Q28.8336 905.717 22.2451 899.51 Q15.6248 893.304 15.6248 882.514 Q15.6248 878.249 16.7706 874.493 Q17.8846 870.705 20.1444 867.395 Z" fill="#000000" fill-rule="nonzero" fill-opacity="1" /><path clip-path="url(#clip600)" d="M49.9359 858.324 L28.3562 858.324 L28.3562 852.468 L49.7131 852.468 Q54.7739 852.468 57.3202 850.494 Q59.8346 848.521 59.8346 844.574 Q59.8346 839.832 56.8109 837.094 Q53.7872 834.325 48.5673 834.325 L28.3562 834.325 L28.3562 828.469 L64.0042 828.469 L64.0042 834.325 L58.5296 834.325 Q61.7762 836.458 63.3676 839.291 Q64.9272 842.092 64.9272 845.815 Q64.9272 851.958 61.1078 855.141 Q57.2883 858.324 49.9359 858.324 M27.4968 843.587 L27.4968 843.587 Z" fill="#000000" fill-rule="nonzero" fill-opacity="1" /><path clip-path="url(#clip600)" d="M33.8307 795.749 Q33.2578 796.736 33.0032 797.914 Q32.7167 799.059 32.7167 800.46 Q32.7167 805.425 35.9632 808.099 Q39.1779 810.74 45.2253 810.74 L64.0042 810.74 L64.0042 816.629 L28.3562 816.629 L28.3562 810.74 L33.8944 810.74 Q30.6479 808.894 29.0883 805.934 Q27.4968 802.974 27.4968 798.741 Q27.4968 798.136 27.5923 797.404 Q27.656 796.672 27.8151 795.781 L33.8307 795.749 Z" fill="#000000" fill-rule="nonzero" fill-opacity="1" /><path clip-path="url(#clip600)" d="M18.2347 783.813 L28.3562 783.813 L28.3562 771.75 L32.9077 771.75 L32.9077 783.813 L52.2594 783.813 Q56.6199 783.813 57.8613 782.636 Q59.1026 781.426 59.1026 777.766 L59.1026 771.75 L64.0042 771.75 L64.0042 777.766 Q64.0042 784.546 61.4897 787.124 Q58.9434 789.702 52.2594 789.702 L32.9077 789.702 L32.9077 793.999 L28.3562 793.999 L28.3562 789.702 L18.2347 789.702 L18.2347 783.813 Z" fill="#000000" fill-rule="nonzero" fill-opacity="1" /><path clip-path="url(#clip600)" d="M46.0847 747.847 Q46.0847 754.945 47.7079 757.682 Q49.3312 760.42 53.2461 760.42 Q56.3653 760.42 58.2114 758.382 Q60.0256 756.314 60.0256 752.781 Q60.0256 747.911 56.5881 744.983 Q53.1188 742.023 47.3897 742.023 L46.0847 742.023 L46.0847 747.847 M43.6657 736.166 L64.0042 736.166 L64.0042 742.023 L58.5933 742.023 Q61.8398 744.028 63.3994 747.02 Q64.9272 750.012 64.9272 754.34 Q64.9272 759.815 61.8716 763.061 Q58.7843 766.276 53.6281 766.276 Q47.6125 766.276 44.5569 762.266 Q41.5014 758.223 41.5014 750.234 L41.5014 742.023 L40.9285 742.023 Q36.8862 742.023 34.6901 744.696 Q32.4621 747.338 32.4621 752.144 Q32.4621 755.2 33.1941 758.096 Q33.9262 760.992 35.3903 763.666 L29.9795 763.666 Q28.7381 760.451 28.1334 757.428 Q27.4968 754.404 27.4968 751.539 Q27.4968 743.805 31.5072 739.986 Q35.5176 736.166 43.6657 736.166 Z" fill="#000000" fill-rule="nonzero" fill-opacity="1" /><path clip-path="url(#clip600)" d="M28.3562 724.103 L28.3562 718.247 L64.0042 718.247 L64.0042 724.103 L28.3562 724.103 M14.479 724.103 L14.479 718.247 L21.895 718.247 L21.895 724.103 L14.479 724.103 Z" fill="#000000" fill-rule="nonzero" fill-opacity="1" /><path clip-path="url(#clip600)" d="M14.479 705.993 L14.479 700.136 L64.0042 700.136 L64.0042 705.993 L14.479 705.993 Z" fill="#000000" fill-rule="nonzero" fill-opacity="1" /><path clip-path="url(#clip600)" d="M44.7161 657.391 L47.5806 657.391 L47.5806 684.317 Q53.6281 683.936 56.8109 680.689 Q59.9619 677.411 59.9619 671.586 Q59.9619 668.212 59.1344 665.061 Q58.3069 661.878 56.6518 658.759 L62.1899 658.759 Q63.5267 661.91 64.227 665.22 Q64.9272 668.531 64.9272 671.936 Q64.9272 680.466 59.9619 685.463 Q54.9967 690.429 46.5303 690.429 Q37.7774 690.429 32.6531 685.718 Q27.4968 680.975 27.4968 672.955 Q27.4968 665.761 32.1438 661.592 Q36.7589 657.391 44.7161 657.391 M42.9973 663.247 Q38.1912 663.311 35.3266 665.952 Q32.4621 668.562 32.4621 672.891 Q32.4621 677.793 35.2312 680.753 Q38.0002 683.681 43.0292 684.127 L42.9973 663.247 Z" fill="#000000" fill-rule="nonzero" fill-opacity="1" /><path clip-path="url(#clip600)" d="M33.7671 624.321 L14.479 624.321 L14.479 618.464 L64.0042 618.464 L64.0042 624.321 L58.657 624.321 Q61.8398 626.167 63.3994 629 Q64.9272 631.8 64.9272 635.747 Q64.9272 642.208 59.771 646.282 Q54.6147 650.325 46.212 650.325 Q37.8093 650.325 32.6531 646.282 Q27.4968 642.208 27.4968 635.747 Q27.4968 631.8 29.0564 629 Q30.5842 626.167 33.7671 624.321 M46.212 644.277 Q52.6732 644.277 56.3653 641.635 Q60.0256 638.962 60.0256 634.315 Q60.0256 629.668 56.3653 626.994 Q52.6732 624.321 46.212 624.321 Q39.7508 624.321 36.0905 626.994 Q32.3984 629.668 32.3984 634.315 Q32.3984 638.962 36.0905 641.635 Q39.7508 644.277 46.212 644.277 Z" fill="#000000" fill-rule="nonzero" fill-opacity="1" /><path clip-path="url(#clip600)" d="M14.5426 571.613 Q21.8632 575.878 29.0246 577.947 Q36.186 580.015 43.5384 580.015 Q50.8908 580.015 58.1159 577.947 Q65.3091 575.846 72.5979 571.613 L72.5979 576.705 Q65.1182 581.48 57.8931 583.867 Q50.668 586.222 43.5384 586.222 Q36.4406 586.222 29.2474 583.867 Q22.0542 581.511 14.5426 576.705 L14.5426 571.613 Z" fill="#000000" fill-rule="nonzero" fill-opacity="1" /><path clip-path="url(#clip600)" d="M16.4842 559.995 L16.4842 550.415 L48.8219 538.288 L16.4842 526.098 L16.4842 516.517 L64.0042 516.517 L64.0042 522.788 L22.277 522.788 L54.8694 535.042 L54.8694 541.503 L22.277 553.757 L64.0042 553.757 L64.0042 559.995 L16.4842 559.995 Z" fill="#000000" fill-rule="nonzero" fill-opacity="1" /><path clip-path="url(#clip600)" d="M16.4842 507.987 L16.4842 501.494 L56.6518 491.5 L16.4842 481.538 L16.4842 474.313 L56.6518 464.319 L16.4842 454.356 L16.4842 447.831 L64.0042 459.767 L64.0042 467.852 L22.7544 477.878 L64.0042 487.999 L64.0042 496.084 L16.4842 507.987 Z" fill="#000000" fill-rule="nonzero" fill-opacity="1" /><path clip-path="url(#clip600)" d="M14.5426 440.479 L14.5426 435.387 Q22.0542 430.612 29.2474 428.257 Q36.4406 425.87 43.5384 425.87 Q50.668 425.87 57.8931 428.257 Q65.1182 430.612 72.5979 435.387 L72.5979 440.479 Q65.3091 436.246 58.1159 434.177 Q50.8908 432.076 43.5384 432.076 Q36.186 432.076 29.0246 434.177 Q21.8632 436.246 14.5426 440.479 Z" fill="#000000" fill-rule="nonzero" fill-opacity="1" /><path clip-path="url(#clip600)" d="M556.023 17.6457 Q547.111 17.6457 541.845 24.2892 Q536.619 30.9327 536.619 42.3968 Q536.619 53.8203 541.845 60.4638 Q547.111 67.1073 556.023 67.1073 Q564.935 67.1073 570.12 60.4638 Q575.346 53.8203 575.346 42.3968 Q575.346 30.9327 570.12 24.2892 Q564.935 17.6457 556.023 17.6457 M556.023 11.0023 Q568.743 11.0023 576.358 19.5497 Q583.974 28.0566 583.974 42.3968 Q583.974 56.6965 576.358 65.2439 Q568.743 73.7508 556.023 73.7508 Q543.262 73.7508 535.606 65.2439 Q527.99 56.737 527.99 42.3968 Q527.99 28.0566 535.606 19.5497 Q543.262 11.0023 556.023 11.0023 Z" fill="#000000" fill-rule="nonzero" fill-opacity="1" /><path clip-path="url(#clip600)" d="M603.661 65.7705 L603.661 89.8329 L596.167 89.8329 L596.167 27.2059 L603.661 27.2059 L603.661 34.0924 Q606.011 30.0415 609.576 28.0971 Q613.181 26.1121 618.164 26.1121 Q626.427 26.1121 631.572 32.6746 Q636.757 39.2371 636.757 49.9314 Q636.757 60.6258 631.572 67.1883 Q626.427 73.7508 618.164 73.7508 Q613.181 73.7508 609.576 71.8063 Q606.011 69.8214 603.661 65.7705 M629.02 49.9314 Q629.02 41.7081 625.617 37.0496 Q622.255 32.3505 616.341 32.3505 Q610.426 32.3505 607.024 37.0496 Q603.661 41.7081 603.661 49.9314 Q603.661 58.1548 607.024 62.8538 Q610.426 67.5124 616.341 67.5124 Q622.255 67.5124 625.617 62.8538 Q629.02 58.1548 629.02 49.9314 Z" fill="#000000" fill-rule="nonzero" fill-opacity="1" /><path clip-path="url(#clip600)" d="M656.485 14.324 L656.485 27.2059 L671.838 27.2059 L671.838 32.9987 L656.485 32.9987 L656.485 57.6282 Q656.485 63.1779 657.984 64.7578 Q659.523 66.3376 664.182 66.3376 L671.838 66.3376 L671.838 72.576 L664.182 72.576 Q655.553 72.576 652.272 69.3758 Q648.991 66.1351 648.991 57.6282 L648.991 32.9987 L643.522 32.9987 L643.522 27.2059 L648.991 27.2059 L648.991 14.324 L656.485 14.324 Z" fill="#000000" fill-rule="nonzero" fill-opacity="1" /><path clip-path="url(#clip600)" d="M681.641 27.2059 L689.095 27.2059 L689.095 72.576 L681.641 72.576 L681.641 27.2059 M681.641 9.54393 L689.095 9.54393 L689.095 18.9825 L681.641 18.9825 L681.641 9.54393 Z" fill="#000000" fill-rule="nonzero" fill-opacity="1" /><path clip-path="url(#clip600)" d="M740.015 35.9153 Q742.81 30.8922 746.699 28.5022 Q750.588 26.1121 755.854 26.1121 Q762.943 26.1121 766.791 31.0947 Q770.64 36.0368 770.64 45.1919 L770.64 72.576 L763.145 72.576 L763.145 45.4349 Q763.145 38.913 760.836 35.7533 Q758.527 32.5936 753.788 32.5936 Q747.995 32.5936 744.633 36.4419 Q741.271 40.2903 741.271 46.9338 L741.271 72.576 L733.776 72.576 L733.776 45.4349 Q733.776 38.8725 731.467 35.7533 Q729.158 32.5936 724.338 32.5936 Q718.626 32.5936 715.264 36.4824 Q711.902 40.3308 711.902 46.9338 L711.902 72.576 L704.407 72.576 L704.407 27.2059 L711.902 27.2059 L711.902 34.2544 Q714.454 30.082 718.018 28.0971 Q721.583 26.1121 726.485 26.1121 Q731.427 26.1121 734.87 28.6237 Q738.354 31.1352 740.015 35.9153 Z" fill="#000000" fill-rule="nonzero" fill-opacity="1" /><path clip-path="url(#clip600)" d="M806.126 49.7694 Q797.092 49.7694 793.608 51.8354 Q790.125 53.9013 790.125 58.8839 Q790.125 62.8538 792.717 65.2034 Q795.35 67.5124 799.847 67.5124 Q806.045 67.5124 809.771 63.1374 Q813.539 58.7219 813.539 51.4303 L813.539 49.7694 L806.126 49.7694 M820.992 46.6907 L820.992 72.576 L813.539 72.576 L813.539 65.6895 Q810.987 69.8214 807.179 71.8063 Q803.371 73.7508 797.862 73.7508 Q790.894 73.7508 786.762 69.8619 Q782.671 65.9325 782.671 59.3701 Q782.671 51.7138 787.775 47.825 Q792.92 43.9361 803.087 43.9361 L813.539 43.9361 L813.539 43.2069 Q813.539 38.0623 810.136 35.2672 Q806.774 32.4315 800.657 32.4315 Q796.768 32.4315 793.082 33.3632 Q789.395 34.295 785.993 36.1584 L785.993 29.2718 Q790.084 27.692 793.932 26.9223 Q797.781 26.1121 801.427 26.1121 Q811.27 26.1121 816.131 31.2163 Q820.992 36.3204 820.992 46.6907 Z" fill="#000000" fill-rule="nonzero" fill-opacity="1" /><path clip-path="url(#clip600)" d="M836.345 9.54393 L843.799 9.54393 L843.799 72.576 L836.345 72.576 L836.345 9.54393 Z" fill="#000000" fill-rule="nonzero" fill-opacity="1" /><path clip-path="url(#clip600)" d="M894.273 18.8205 L894.273 41.5461 L904.563 41.5461 Q910.274 41.5461 913.394 38.5889 Q916.513 35.6318 916.513 30.163 Q916.513 24.7348 913.394 21.7777 Q910.274 18.8205 904.563 18.8205 L894.273 18.8205 M886.09 12.096 L904.563 12.096 Q914.73 12.096 919.915 16.714 Q925.141 21.2916 925.141 30.163 Q925.141 39.1155 919.915 43.6931 Q914.73 48.2706 904.563 48.2706 L894.273 48.2706 L894.273 72.576 L886.09 72.576 L886.09 12.096 Z" fill="#000000" fill-rule="nonzero" fill-opacity="1" /><path clip-path="url(#clip600)" d="M950.419 32.4315 Q944.423 32.4315 940.94 37.1306 Q937.456 41.7891 937.456 49.9314 Q937.456 58.0738 940.899 62.7728 Q944.383 67.4314 950.419 67.4314 Q956.374 67.4314 959.857 62.7323 Q963.341 58.0333 963.341 49.9314 Q963.341 41.8701 959.857 37.1711 Q956.374 32.4315 950.419 32.4315 M950.419 26.1121 Q960.141 26.1121 965.691 32.4315 Q971.24 38.7509 971.24 49.9314 Q971.24 61.0714 965.691 67.4314 Q960.141 73.7508 950.419 73.7508 Q940.656 73.7508 935.106 67.4314 Q929.597 61.0714 929.597 49.9314 Q929.597 38.7509 935.106 32.4315 Q940.656 26.1121 950.419 26.1121 Z" fill="#000000" fill-rule="nonzero" fill-opacity="1" /><path clip-path="url(#clip600)" d="M979.261 27.2059 L986.715 27.2059 L996.032 62.6108 L1005.31 27.2059 L1014.1 27.2059 L1023.42 62.6108 L1032.69 27.2059 L1040.15 27.2059 L1028.28 72.576 L1019.49 72.576 L1009.72 35.3887 L999.921 72.576 L991.13 72.576 L979.261 27.2059 Z" fill="#000000" fill-rule="nonzero" fill-opacity="1" /><path clip-path="url(#clip600)" d="M1090.26 48.0275 L1090.26 51.6733 L1055.99 51.6733 Q1056.47 59.3701 1060.6 63.421 Q1064.78 67.4314 1072.19 67.4314 Q1076.48 67.4314 1080.49 66.3781 Q1084.54 65.3249 1088.51 63.2184 L1088.51 70.267 Q1084.5 71.9684 1080.29 72.8596 Q1076.08 73.7508 1071.74 73.7508 Q1060.89 73.7508 1054.53 67.4314 Q1048.21 61.1119 1048.21 50.3365 Q1048.21 39.1965 1054.2 32.6746 Q1060.24 26.1121 1070.45 26.1121 Q1079.6 26.1121 1084.91 32.0264 Q1090.26 37.9003 1090.26 48.0275 M1082.8 45.84 Q1082.72 39.7232 1079.36 36.0774 Q1076.04 32.4315 1070.53 32.4315 Q1064.29 32.4315 1060.52 35.9558 Q1056.8 39.4801 1056.23 45.8805 L1082.8 45.84 Z" fill="#000000" fill-rule="nonzero" fill-opacity="1" /><path clip-path="url(#clip600)" d="M1128.78 34.1734 Q1127.52 33.4443 1126.03 33.1202 Q1124.57 32.7556 1122.78 32.7556 Q1116.47 32.7556 1113.06 36.8875 Q1109.7 40.9789 1109.7 48.6757 L1109.7 72.576 L1102.21 72.576 L1102.21 27.2059 L1109.7 27.2059 L1109.7 34.2544 Q1112.05 30.1225 1115.82 28.1376 Q1119.58 26.1121 1124.97 26.1121 Q1125.74 26.1121 1126.67 26.2337 Q1127.61 26.3147 1128.74 26.5172 L1128.78 34.1734 Z" fill="#000000" fill-rule="nonzero" fill-opacity="1" /><path clip-path="url(#clip600)" d="M1208.58 16.7545 L1208.58 25.383 Q1204.45 21.5346 1199.75 19.6307 Q1195.09 17.7268 1189.83 17.7268 Q1179.46 17.7268 1173.95 24.0867 Q1168.44 30.4061 1168.44 42.3968 Q1168.44 54.3469 1173.95 60.7069 Q1179.46 67.0263 1189.83 67.0263 Q1195.09 67.0263 1199.75 65.1223 Q1204.45 63.2184 1208.58 59.3701 L1208.58 67.9175 Q1204.29 70.8341 1199.47 72.2924 Q1194.69 73.7508 1189.34 73.7508 Q1175.61 73.7508 1167.71 65.3654 Q1159.81 56.9395 1159.81 42.3968 Q1159.81 27.8135 1167.71 19.4281 Q1175.61 11.0023 1189.34 11.0023 Q1194.77 11.0023 1199.55 12.4606 Q1204.37 13.8784 1208.58 16.7545 Z" fill="#000000" fill-rule="nonzero" fill-opacity="1" /><path clip-path="url(#clip600)" d="M1220.13 54.671 L1220.13 27.2059 L1227.58 27.2059 L1227.58 54.3874 Q1227.58 60.8284 1230.09 64.0691 Q1232.6 67.2693 1237.63 67.2693 Q1243.66 67.2693 1247.15 63.421 Q1250.67 59.5726 1250.67 52.9291 L1250.67 27.2059 L1258.13 27.2059 L1258.13 72.576 L1250.67 72.576 L1250.67 65.6084 Q1247.96 69.7404 1244.35 71.7658 Q1240.79 73.7508 1236.05 73.7508 Q1228.23 73.7508 1224.18 68.8897 Q1220.13 64.0286 1220.13 54.671 M1238.88 26.1121 L1238.88 26.1121 Z" fill="#000000" fill-rule="nonzero" fill-opacity="1" /><path clip-path="url(#clip600)" d="M1299.77 34.1734 Q1298.51 33.4443 1297.01 33.1202 Q1295.56 32.7556 1293.77 32.7556 Q1287.45 32.7556 1284.05 36.8875 Q1280.69 40.9789 1280.69 48.6757 L1280.69 72.576 L1273.19 72.576 L1273.19 27.2059 L1280.69 27.2059 L1280.69 34.2544 Q1283.04 30.1225 1286.81 28.1376 Q1290.57 26.1121 1295.96 26.1121 Q1296.73 26.1121 1297.66 26.2337 Q1298.59 26.3147 1299.73 26.5172 L1299.77 34.1734 Z" fill="#000000" fill-rule="nonzero" fill-opacity="1" /><path clip-path="url(#clip600)" d="M1314.96 14.324 L1314.96 27.2059 L1330.31 27.2059 L1330.31 32.9987 L1314.96 32.9987 L1314.96 57.6282 Q1314.96 63.1779 1316.46 64.7578 Q1318 66.3376 1322.66 66.3376 L1330.31 66.3376 L1330.31 72.576 L1322.66 72.576 Q1314.03 72.576 1310.75 69.3758 Q1307.47 66.1351 1307.47 57.6282 L1307.47 32.9987 L1302 32.9987 L1302 27.2059 L1307.47 27.2059 L1307.47 14.324 L1314.96 14.324 Z" fill="#000000" fill-rule="nonzero" fill-opacity="1" /><path clip-path="url(#clip600)" d="M1360.73 49.7694 Q1351.7 49.7694 1348.22 51.8354 Q1344.73 53.9013 1344.73 58.8839 Q1344.73 62.8538 1347.33 65.2034 Q1349.96 67.5124 1354.46 67.5124 Q1360.65 67.5124 1364.38 63.1374 Q1368.15 58.7219 1368.15 51.4303 L1368.15 49.7694 L1360.73 49.7694 M1375.6 46.6907 L1375.6 72.576 L1368.15 72.576 L1368.15 65.6895 Q1365.6 69.8214 1361.79 71.8063 Q1357.98 73.7508 1352.47 73.7508 Q1345.5 73.7508 1341.37 69.8619 Q1337.28 65.9325 1337.28 59.3701 Q1337.28 51.7138 1342.38 47.825 Q1347.53 43.9361 1357.7 43.9361 L1368.15 43.9361 L1368.15 43.2069 Q1368.15 38.0623 1364.75 35.2672 Q1361.38 32.4315 1355.27 32.4315 Q1351.38 32.4315 1347.69 33.3632 Q1344 34.295 1340.6 36.1584 L1340.6 29.2718 Q1344.69 27.692 1348.54 26.9223 Q1352.39 26.1121 1356.04 26.1121 Q1365.88 26.1121 1370.74 31.2163 Q1375.6 36.3204 1375.6 46.6907 Z" fill="#000000" fill-rule="nonzero" fill-opacity="1" /><path clip-path="url(#clip600)" d="M1390.95 27.2059 L1398.41 27.2059 L1398.41 72.576 L1390.95 72.576 L1390.95 27.2059 M1390.95 9.54393 L1398.41 9.54393 L1398.41 18.9825 L1390.95 18.9825 L1390.95 9.54393 Z" fill="#000000" fill-rule="nonzero" fill-opacity="1" /><path clip-path="url(#clip600)" d="M1414 9.54393 L1421.46 9.54393 L1421.46 72.576 L1414 72.576 L1414 9.54393 Z" fill="#000000" fill-rule="nonzero" fill-opacity="1" /><path clip-path="url(#clip600)" d="M1475.86 48.0275 L1475.86 51.6733 L1441.59 51.6733 Q1442.08 59.3701 1446.21 63.421 Q1450.38 67.4314 1457.79 67.4314 Q1462.09 67.4314 1466.1 66.3781 Q1470.15 65.3249 1474.12 63.2184 L1474.12 70.267 Q1470.11 71.9684 1465.9 72.8596 Q1461.68 73.7508 1457.35 73.7508 Q1446.49 73.7508 1440.13 67.4314 Q1433.81 61.1119 1433.81 50.3365 Q1433.81 39.1965 1439.81 32.6746 Q1445.84 26.1121 1456.05 26.1121 Q1465.21 26.1121 1470.51 32.0264 Q1475.86 37.9003 1475.86 48.0275 M1468.41 45.84 Q1468.33 39.7232 1464.96 36.0774 Q1461.64 32.4315 1456.13 32.4315 Q1449.9 32.4315 1446.13 35.9558 Q1442.4 39.4801 1441.83 45.8805 L1468.41 45.84 Z" fill="#000000" fill-rule="nonzero" fill-opacity="1" /><path clip-path="url(#clip600)" d="M1517.95 34.0924 L1517.95 9.54393 L1525.4 9.54393 L1525.4 72.576 L1517.95 72.576 L1517.95 65.7705 Q1515.6 69.8214 1512 71.8063 Q1508.43 73.7508 1503.41 73.7508 Q1495.18 73.7508 1490 67.1883 Q1484.85 60.6258 1484.85 49.9314 Q1484.85 39.2371 1490 32.6746 Q1495.18 26.1121 1503.41 26.1121 Q1508.43 26.1121 1512 28.0971 Q1515.6 30.0415 1517.95 34.0924 M1492.55 49.9314 Q1492.55 58.1548 1495.91 62.8538 Q1499.32 67.5124 1505.23 67.5124 Q1511.14 67.5124 1514.55 62.8538 Q1517.95 58.1548 1517.95 49.9314 Q1517.95 41.7081 1514.55 37.0496 Q1511.14 32.3505 1505.23 32.3505 Q1499.32 32.3505 1495.91 37.0496 Q1492.55 41.7081 1492.55 49.9314 Z" fill="#000000" fill-rule="nonzero" fill-opacity="1" /><path clip-path="url(#clip600)" d="M1585.03 9.62495 Q1579.61 18.942 1576.97 28.0566 Q1574.34 37.1711 1574.34 46.5287 Q1574.34 55.8863 1576.97 65.0818 Q1579.65 74.2369 1585.03 83.5134 L1578.55 83.5134 Q1572.48 73.9938 1569.44 64.7983 Q1566.44 55.6027 1566.44 46.5287 Q1566.44 37.4952 1569.44 28.3401 Q1572.44 19.1851 1578.55 9.62495 L1585.03 9.62495 Z" fill="#000000" fill-rule="nonzero" fill-opacity="1" /><path clip-path="url(#clip600)" d="M1636.07 14.0809 L1636.07 22.0612 Q1631.42 19.8332 1627.28 18.7395 Q1623.15 17.6457 1619.3 17.6457 Q1612.62 17.6457 1608.97 20.2383 Q1605.37 22.8309 1605.37 27.611 Q1605.37 31.6214 1607.76 33.6873 Q1610.19 35.7128 1616.91 36.9686 L1621.86 37.9813 Q1631.01 39.7232 1635.35 44.1387 Q1639.72 48.5136 1639.72 55.8863 Q1639.72 64.6767 1633.81 69.2137 Q1627.93 73.7508 1616.55 73.7508 Q1612.26 73.7508 1607.39 72.7785 Q1602.57 71.8063 1597.39 69.9024 L1597.39 61.4765 Q1602.37 64.2716 1607.15 65.6895 Q1611.93 67.1073 1616.55 67.1073 Q1623.56 67.1073 1627.37 64.3527 Q1631.17 61.598 1631.17 56.4939 Q1631.17 52.0379 1628.42 49.5264 Q1625.7 47.0148 1619.47 45.759 L1614.48 44.7868 Q1605.33 42.9639 1601.24 39.075 Q1597.15 35.1862 1597.15 28.2591 Q1597.15 20.2383 1602.78 15.6203 Q1608.45 11.0023 1618.37 11.0023 Q1622.63 11.0023 1627.04 11.7719 Q1631.46 12.5416 1636.07 14.0809 Z" fill="#000000" fill-rule="nonzero" fill-opacity="1" /><path clip-path="url(#clip600)" d="M1684.81 28.9478 L1684.81 35.9153 Q1681.65 34.1734 1678.45 33.3227 Q1675.29 32.4315 1672.05 32.4315 Q1664.8 32.4315 1660.79 37.0496 Q1656.77 41.6271 1656.77 49.9314 Q1656.77 58.2358 1660.79 62.8538 Q1664.8 67.4314 1672.05 67.4314 Q1675.29 67.4314 1678.45 66.5807 Q1681.65 65.6895 1684.81 63.9476 L1684.81 70.8341 Q1681.69 72.2924 1678.33 73.0216 Q1675 73.7508 1671.24 73.7508 Q1660.99 73.7508 1654.95 67.3098 Q1648.92 60.8689 1648.92 49.9314 Q1648.92 38.832 1654.99 32.472 Q1661.11 26.1121 1671.72 26.1121 Q1675.17 26.1121 1678.45 26.8413 Q1681.73 27.5299 1684.81 28.9478 Z" fill="#000000" fill-rule="nonzero" fill-opacity="1" /><path clip-path="url(#clip600)" d="M1697.77 27.2059 L1705.22 27.2059 L1705.22 72.576 L1697.77 72.576 L1697.77 27.2059 M1697.77 9.54393 L1705.22 9.54393 L1705.22 18.9825 L1697.77 18.9825 L1697.77 9.54393 Z" fill="#000000" fill-rule="nonzero" fill-opacity="1" /><path clip-path="url(#clip600)" d="M1758.53 45.1919 L1758.53 72.576 L1751.08 72.576 L1751.08 45.4349 Q1751.08 38.994 1748.57 35.7938 Q1746.06 32.5936 1741.03 32.5936 Q1735 32.5936 1731.51 36.4419 Q1728.03 40.2903 1728.03 46.9338 L1728.03 72.576 L1720.54 72.576 L1720.54 27.2059 L1728.03 27.2059 L1728.03 34.2544 Q1730.7 30.163 1734.31 28.1376 Q1737.96 26.1121 1742.69 26.1121 Q1750.51 26.1121 1754.52 30.9732 Q1758.53 35.7938 1758.53 45.1919 Z" fill="#000000" fill-rule="nonzero" fill-opacity="1" /><path clip-path="url(#clip600)" d="M1794.02 49.7694 Q1784.99 49.7694 1781.5 51.8354 Q1778.02 53.9013 1778.02 58.8839 Q1778.02 62.8538 1780.61 65.2034 Q1783.24 67.5124 1787.74 67.5124 Q1793.94 67.5124 1797.67 63.1374 Q1801.43 58.7219 1801.43 51.4303 L1801.43 49.7694 L1794.02 49.7694 M1808.89 46.6907 L1808.89 72.576 L1801.43 72.576 L1801.43 65.6895 Q1798.88 69.8214 1795.07 71.8063 Q1791.26 73.7508 1785.76 73.7508 Q1778.79 73.7508 1774.66 69.8619 Q1770.56 65.9325 1770.56 59.3701 Q1770.56 51.7138 1775.67 47.825 Q1780.81 43.9361 1790.98 43.9361 L1801.43 43.9361 L1801.43 43.2069 Q1801.43 38.0623 1798.03 35.2672 Q1794.67 32.4315 1788.55 32.4315 Q1784.66 32.4315 1780.98 33.3632 Q1777.29 34.295 1773.89 36.1584 L1773.89 29.2718 Q1777.98 27.692 1781.83 26.9223 Q1785.67 26.1121 1789.32 26.1121 Q1799.16 26.1121 1804.03 31.2163 Q1808.89 36.3204 1808.89 46.6907 Z" fill="#000000" fill-rule="nonzero" fill-opacity="1" /><path clip-path="url(#clip600)" d="M1850.53 34.1734 Q1849.27 33.4443 1847.78 33.1202 Q1846.32 32.7556 1844.53 32.7556 Q1838.21 32.7556 1834.81 36.8875 Q1831.45 40.9789 1831.45 48.6757 L1831.45 72.576 L1823.96 72.576 L1823.96 27.2059 L1831.45 27.2059 L1831.45 34.2544 Q1833.8 30.1225 1837.57 28.1376 Q1841.33 26.1121 1846.72 26.1121 Q1847.49 26.1121 1848.42 26.2337 Q1849.35 26.3147 1850.49 26.5172 L1850.53 34.1734 Z" fill="#000000" fill-rule="nonzero" fill-opacity="1" /><path clip-path="url(#clip600)" d="M1858.35 27.2059 L1865.8 27.2059 L1865.8 72.576 L1858.35 72.576 L1858.35 27.2059 M1858.35 9.54393 L1865.8 9.54393 L1865.8 18.9825 L1858.35 18.9825 L1858.35 9.54393 Z" fill="#000000" fill-rule="nonzero" fill-opacity="1" /><path clip-path="url(#clip600)" d="M1898.98 32.4315 Q1892.98 32.4315 1889.5 37.1306 Q1886.02 41.7891 1886.02 49.9314 Q1886.02 58.0738 1889.46 62.7728 Q1892.94 67.4314 1898.98 67.4314 Q1904.93 67.4314 1908.42 62.7323 Q1911.9 58.0333 1911.9 49.9314 Q1911.9 41.8701 1908.42 37.1711 Q1904.93 32.4315 1898.98 32.4315 M1898.98 26.1121 Q1908.7 26.1121 1914.25 32.4315 Q1919.8 38.7509 1919.8 49.9314 Q1919.8 61.0714 1914.25 67.4314 Q1908.7 73.7508 1898.98 73.7508 Q1889.22 73.7508 1883.67 67.4314 Q1878.16 61.0714 1878.16 49.9314 Q1878.16 38.7509 1883.67 32.4315 Q1889.22 26.1121 1898.98 26.1121 Z" fill="#000000" fill-rule="nonzero" fill-opacity="1" /><path clip-path="url(#clip600)" d="M1961 65.6895 L1974.37 65.6895 L1974.37 19.5497 L1959.82 22.4663 L1959.82 15.0127 L1974.28 12.096 L1982.47 12.096 L1982.47 65.6895 L1995.84 65.6895 L1995.84 72.576 L1961 72.576 L1961 65.6895 Z" fill="#000000" fill-rule="nonzero" fill-opacity="1" /><path clip-path="url(#clip600)" d="M2010.14 9.62495 L2016.62 9.62495 Q2022.69 19.1851 2025.69 28.3401 Q2028.73 37.4952 2028.73 46.5287 Q2028.73 55.6027 2025.69 64.7983 Q2022.69 73.9938 2016.62 83.5134 L2010.14 83.5134 Q2015.52 74.2369 2018.16 65.0818 Q2020.83 55.8863 2020.83 46.5287 Q2020.83 37.1711 2018.16 28.0566 Q2015.52 18.942 2010.14 9.62495 Z" fill="#000000" fill-rule="nonzero" fill-opacity="1" /><polyline clip-path="url(#clip602)" style="stroke:#009af9; stroke-linecap:round; stroke-linejoin:round; stroke-width:4; stroke-opacity:1; fill:none" points="264.778,1292.56 264.778,1261.51 352.916,1261.51 352.916,1177.25 441.053,1177.25 441.053,1149.4 529.191,1149.4 529.191,1200.18 617.328,1200.18 617.328,1181.35 705.466,1181.35 705.466,1171.58 793.603,1171.58 793.603,1204.1 881.741,1204.1 881.741,1160.82 969.878,1160.82 969.878,1195.77 1058.02,1195.77 1058.02,1169.39 1146.15,1169.39 1146.15,1171.03 1234.29,1171.03 1234.29,1218.97 1322.43,1218.97 1322.43,1171.48 1410.57,1171.48 1410.57,1160.1 1498.7,1160.1 1498.7,1146.59 1586.84,1146.59 1586.84,1129.45 1674.98,1129.45 1674.98,1189.77 1763.12,1189.77 1763.12,1188.3 1851.25,1188.3 1851.25,1136.67 1939.39,1136.67 1939.39,1162.38 2027.53,1162.38 2027.53,1191.67 2115.67,1191.67 2115.67,1204.75 2203.8,1204.75 2203.8,1158.81 2291.94,1158.81 "/>
<polyline clip-path="url(#clip602)" style="stroke:#e26f46; stroke-linecap:round; stroke-linejoin:round; stroke-width:4; stroke-opacity:1; fill:none" points="264.778,1339.48 264.778,1124.59 352.916,1124.59 352.916,1011.64 441.053,1011.64 441.053,974.322 529.191,974.322 529.191,1042.38 617.328,1042.38 617.328,1017.14 705.466,1017.14 705.466,1004.05 793.603,1004.05 793.603,1047.64 881.741,1047.64 881.741,989.623 969.878,989.623 969.878,1036.48 1058.02,1036.48 1058.02,1001.11 1146.15,1001.11 1146.15,1003.32 1234.29,1003.32 1234.29,1067.57 1322.43,1067.57 1322.43,1003.91 1410.57,1003.91 1410.57,988.659 1498.7,988.659 1498.7,970.558 1586.84,970.558 1586.84,947.584 1674.98,947.584 1674.98,1028.44 1763.12,1028.44 1763.12,1026.47 1851.25,1026.47 1851.25,957.263 1939.39,957.263 1939.39,991.715 2027.53,991.715 2027.53,1030.98 2115.67,1030.98 2115.67,1048.51 2203.8,1048.51 2203.8,986.936 2291.94,986.936 "/>
<polyline clip-path="url(#clip602)" style="stroke:#3da44d; stroke-linecap:round; stroke-linejoin:round; stroke-width:4; stroke-opacity:1; fill:none" points="264.778,1339.48 264.778,890.294 352.916,890.294 352.916,746.05 441.053,746.05 441.053,698.385 529.191,698.385 529.191,785.3 617.328,785.3 617.328,753.073 705.466,753.073 705.466,736.352 793.603,736.352 793.603,792.015 881.741,792.015 881.741,717.926 969.878,717.926 969.878,777.766 1058.02,777.766 1058.02,732.594 1146.15,732.594 1146.15,735.416 1234.29,735.416 1234.29,817.475 1322.43,817.475 1322.43,736.175 1410.57,736.175 1410.57,716.695 1498.7,716.695 1498.7,693.579 1586.84,693.579 1586.84,664.238 1674.98,664.238 1674.98,767.494 1763.12,767.494 1763.12,764.979 1851.25,764.979 1851.25,676.6 1939.39,676.6 1939.39,720.598 2027.53,720.598 2027.53,770.746 2115.67,770.746 2115.67,793.128 2203.8,793.128 2203.8,714.495 2291.94,714.495 "/>
<polyline clip-path="url(#clip602)" style="stroke:#c271d2; stroke-linecap:round; stroke-linejoin:round; stroke-width:4; stroke-opacity:1; fill:none" points="264.778,1198.72 264.778,738.82 352.916,738.82 352.916,568.238 441.053,568.238 441.053,511.869 529.191,511.869 529.191,614.654 617.328,614.654 617.328,576.543 705.466,576.543 705.466,556.768 793.603,556.768 793.603,622.595 881.741,622.595 881.741,534.979 969.878,534.979 969.878,605.745 1058.02,605.745 1058.02,552.324 1146.15,552.324 1146.15,555.662 1234.29,555.662 1234.29,652.705 1322.43,652.705 1322.43,556.559 1410.57,556.559 1410.57,533.522 1498.7,533.522 1498.7,506.185 1586.84,506.185 1586.84,471.487 1674.98,471.487 1674.98,593.598 1763.12,593.598 1763.12,590.623 1851.25,590.623 1851.25,486.106 1939.39,486.106 1939.39,538.139 2027.53,538.139 2027.53,597.444 2115.67,597.444 2115.67,623.912 2203.8,623.912 2203.8,530.92 2291.94,530.92 "/>
<polyline clip-path="url(#clip602)" style="stroke:#ac8d18; stroke-linecap:round; stroke-linejoin:round; stroke-width:4; stroke-opacity:1; fill:none" points="264.778,1386.4 264.778,437.621 352.916,437.621 352.916,260.638 441.053,260.638 441.053,202.154 529.191,202.154 529.191,308.795 617.328,308.795 617.328,269.254 705.466,269.254 705.466,248.738 793.603,248.738 793.603,317.035 881.741,317.035 881.741,226.13 969.878,226.13 969.878,299.552 1058.02,299.552 1058.02,244.127 1146.15,244.127 1146.15,247.59 1234.29,247.59 1234.29,348.275 1322.43,348.275 1322.43,248.521 1410.57,248.521 1410.57,224.62 1498.7,224.62 1498.7,196.257 1586.84,196.257 1586.84,160.256 1674.98,160.256 1674.98,286.949 1763.12,286.949 1763.12,283.862 1851.25,283.862 1851.25,175.424 1939.39,175.424 1939.39,229.409 2027.53,229.409 2027.53,290.939 2115.67,290.939 2115.67,318.401 2203.8,318.401 2203.8,221.92 2291.94,221.92 "/>
<path clip-path="url(#clip600)" d="M1803.06 1379.86 L2281.13 1379.86 L2281.13 1068.82 L1803.06 1068.82  Z" fill="#ffffff" fill-rule="evenodd" fill-opacity="1"/>
<polyline clip-path="url(#clip600)" style="stroke:#000000; stroke-linecap:round; stroke-linejoin:round; stroke-width:4; stroke-opacity:1; fill:none" points="1803.06,1379.86 2281.13,1379.86 2281.13,1068.82 1803.06,1068.82 1803.06,1379.86 "/>
<polyline clip-path="url(#clip600)" style="stroke:#009af9; stroke-linecap:round; stroke-linejoin:round; stroke-width:4; stroke-opacity:1; fill:none" points="1826.93,1120.66 1970.19,1120.66 "/>
<path clip-path="url(#clip600)" d="M2014.57 1113.01 L2014.57 1116.99 Q2012.76 1115.99 2010.94 1115.51 Q2009.13 1115 2007.28 1115 Q2003.14 1115 2000.84 1117.64 Q1998.55 1120.25 1998.55 1125 Q1998.55 1129.74 2000.84 1132.38 Q2003.14 1135 2007.28 1135 Q2009.13 1135 2010.94 1134.51 Q2012.76 1134 2014.57 1133.01 L2014.57 1136.94 Q2012.79 1137.77 2010.87 1138.19 Q2008.97 1138.61 2006.82 1138.61 Q2000.96 1138.61 1997.51 1134.93 Q1994.06 1131.25 1994.06 1125 Q1994.06 1118.65 1997.53 1115.02 Q2001.03 1111.39 2007.09 1111.39 Q2009.06 1111.39 2010.94 1111.8 Q2012.81 1112.2 2014.57 1113.01 Z" fill="#000000" fill-rule="nonzero" fill-opacity="1" /><path clip-path="url(#clip600)" d="M2021.54 1127.7 L2021.54 1112.01 L2025.8 1112.01 L2025.8 1127.54 Q2025.8 1131.22 2027.23 1133.08 Q2028.67 1134.9 2031.54 1134.9 Q2034.99 1134.9 2036.98 1132.7 Q2038.99 1130.51 2038.99 1126.71 L2038.99 1112.01 L2043.25 1112.01 L2043.25 1137.94 L2038.99 1137.94 L2038.99 1133.95 Q2037.44 1136.32 2035.38 1137.47 Q2033.34 1138.61 2030.63 1138.61 Q2026.17 1138.61 2023.85 1135.83 Q2021.54 1133.05 2021.54 1127.7 M2032.26 1111.39 L2032.26 1111.39 Z" fill="#000000" fill-rule="nonzero" fill-opacity="1" /><path clip-path="url(#clip600)" d="M2068.55 1112.77 L2068.55 1116.8 Q2066.75 1115.88 2064.8 1115.41 Q2062.86 1114.95 2060.77 1114.95 Q2057.6 1114.95 2056.01 1115.92 Q2054.43 1116.89 2054.43 1118.84 Q2054.43 1120.32 2055.57 1121.18 Q2056.7 1122.01 2060.13 1122.77 L2061.58 1123.1 Q2066.12 1124.07 2068.02 1125.85 Q2069.94 1127.61 2069.94 1130.78 Q2069.94 1134.39 2067.07 1136.5 Q2064.22 1138.61 2059.22 1138.61 Q2057.14 1138.61 2054.87 1138.19 Q2052.63 1137.8 2050.13 1136.99 L2050.13 1132.59 Q2052.49 1133.82 2054.78 1134.44 Q2057.07 1135.04 2059.32 1135.04 Q2062.32 1135.04 2063.94 1134.02 Q2065.57 1132.98 2065.57 1131.11 Q2065.57 1129.37 2064.38 1128.45 Q2063.23 1127.52 2059.27 1126.66 L2057.79 1126.32 Q2053.83 1125.48 2052.07 1123.77 Q2050.31 1122.03 2050.31 1119.02 Q2050.31 1115.37 2052.9 1113.38 Q2055.5 1111.39 2060.26 1111.39 Q2062.63 1111.39 2064.71 1111.73 Q2066.79 1112.08 2068.55 1112.77 Z" fill="#000000" fill-rule="nonzero" fill-opacity="1" /><path clip-path="url(#clip600)" d="M2080.94 1104.65 L2080.94 1112.01 L2089.71 1112.01 L2089.71 1115.32 L2080.94 1115.32 L2080.94 1129.39 Q2080.94 1132.57 2081.79 1133.47 Q2082.67 1134.37 2085.33 1134.37 L2089.71 1134.37 L2089.71 1137.94 L2085.33 1137.94 Q2080.4 1137.94 2078.53 1136.11 Q2076.65 1134.26 2076.65 1129.39 L2076.65 1115.32 L2073.53 1115.32 L2073.53 1112.01 L2076.65 1112.01 L2076.65 1104.65 L2080.94 1104.65 Z" fill="#000000" fill-rule="nonzero" fill-opacity="1" /><path clip-path="url(#clip600)" d="M2105.36 1115 Q2101.93 1115 2099.94 1117.68 Q2097.95 1120.34 2097.95 1125 Q2097.95 1129.65 2099.92 1132.33 Q2101.91 1135 2105.36 1135 Q2108.76 1135 2110.75 1132.31 Q2112.74 1129.63 2112.74 1125 Q2112.74 1120.39 2110.75 1117.7 Q2108.76 1115 2105.36 1115 M2105.36 1111.39 Q2110.91 1111.39 2114.08 1115 Q2117.25 1118.61 2117.25 1125 Q2117.25 1131.36 2114.08 1135 Q2110.91 1138.61 2105.36 1138.61 Q2099.78 1138.61 2096.61 1135 Q2093.46 1131.36 2093.46 1125 Q2093.46 1118.61 2096.61 1115 Q2099.78 1111.39 2105.36 1111.39 Z" fill="#000000" fill-rule="nonzero" fill-opacity="1" /><path clip-path="url(#clip600)" d="M2144.5 1116.99 Q2146.1 1114.12 2148.32 1112.75 Q2150.54 1111.39 2153.55 1111.39 Q2157.6 1111.39 2159.8 1114.23 Q2162 1117.06 2162 1122.29 L2162 1137.94 L2157.72 1137.94 L2157.72 1122.43 Q2157.72 1118.7 2156.4 1116.89 Q2155.08 1115.09 2152.37 1115.09 Q2149.06 1115.09 2147.14 1117.29 Q2145.22 1119.49 2145.22 1123.28 L2145.22 1137.94 L2140.94 1137.94 L2140.94 1122.43 Q2140.94 1118.68 2139.62 1116.89 Q2138.3 1115.09 2135.54 1115.09 Q2132.28 1115.09 2130.36 1117.31 Q2128.44 1119.51 2128.44 1123.28 L2128.44 1137.94 L2124.15 1137.94 L2124.15 1112.01 L2128.44 1112.01 L2128.44 1116.04 Q2129.89 1113.65 2131.93 1112.52 Q2133.97 1111.39 2136.77 1111.39 Q2139.59 1111.39 2141.56 1112.82 Q2143.55 1114.26 2144.5 1116.99 Z" fill="#000000" fill-rule="nonzero" fill-opacity="1" /><path clip-path="url(#clip600)" d="M2192.67 1123.91 L2192.67 1125.99 L2173.09 1125.99 Q2173.37 1130.39 2175.73 1132.7 Q2178.11 1135 2182.35 1135 Q2184.8 1135 2187.09 1134.39 Q2189.41 1133.79 2191.68 1132.59 L2191.68 1136.62 Q2189.38 1137.59 2186.98 1138.1 Q2184.57 1138.61 2182.09 1138.61 Q2175.89 1138.61 2172.25 1135 Q2168.64 1131.39 2168.64 1125.23 Q2168.64 1118.86 2172.07 1115.14 Q2175.52 1111.39 2181.35 1111.39 Q2186.58 1111.39 2189.62 1114.77 Q2192.67 1118.12 2192.67 1123.91 M2188.41 1122.66 Q2188.37 1119.16 2186.44 1117.08 Q2184.55 1115 2181.4 1115 Q2177.83 1115 2175.68 1117.01 Q2173.55 1119.02 2173.23 1122.68 L2188.41 1122.66 Z" fill="#000000" fill-rule="nonzero" fill-opacity="1" /><path clip-path="url(#clip600)" d="M2214.68 1115.99 Q2213.97 1115.58 2213.11 1115.39 Q2212.28 1115.18 2211.26 1115.18 Q2207.65 1115.18 2205.7 1117.54 Q2203.78 1119.88 2203.78 1124.28 L2203.78 1137.94 L2199.5 1137.94 L2199.5 1112.01 L2203.78 1112.01 L2203.78 1116.04 Q2205.12 1113.68 2207.28 1112.54 Q2209.43 1111.39 2212.51 1111.39 Q2212.95 1111.39 2213.48 1111.45 Q2214.01 1111.5 2214.66 1111.62 L2214.68 1115.99 Z" fill="#000000" fill-rule="nonzero" fill-opacity="1" /><path clip-path="url(#clip600)" d="M2235.63 1134 L2243.27 1134 L2243.27 1107.64 L2234.96 1109.3 L2234.96 1105.04 L2243.23 1103.38 L2247.9 1103.38 L2247.9 1134 L2255.54 1134 L2255.54 1137.94 L2235.63 1137.94 L2235.63 1134 Z" fill="#000000" fill-rule="nonzero" fill-opacity="1" /><polyline clip-path="url(#clip600)" style="stroke:#e26f46; stroke-linecap:round; stroke-linejoin:round; stroke-width:4; stroke-opacity:1; fill:none" points="1826.93,1172.5 1970.19,1172.5 "/>
<path clip-path="url(#clip600)" d="M2014.57 1164.85 L2014.57 1168.83 Q2012.76 1167.83 2010.94 1167.35 Q2009.13 1166.84 2007.28 1166.84 Q2003.14 1166.84 2000.84 1169.48 Q1998.55 1172.09 1998.55 1176.84 Q1998.55 1181.58 2000.84 1184.22 Q2003.14 1186.84 2007.28 1186.84 Q2009.13 1186.84 2010.94 1186.35 Q2012.76 1185.84 2014.57 1184.85 L2014.57 1188.78 Q2012.79 1189.61 2010.87 1190.03 Q2008.97 1190.45 2006.82 1190.45 Q2000.96 1190.45 1997.51 1186.77 Q1994.06 1183.09 1994.06 1176.84 Q1994.06 1170.49 1997.53 1166.86 Q2001.03 1163.23 2007.09 1163.23 Q2009.06 1163.23 2010.94 1163.64 Q2012.81 1164.04 2014.57 1164.85 Z" fill="#000000" fill-rule="nonzero" fill-opacity="1" /><path clip-path="url(#clip600)" d="M2021.54 1179.54 L2021.54 1163.85 L2025.8 1163.85 L2025.8 1179.38 Q2025.8 1183.06 2027.23 1184.92 Q2028.67 1186.74 2031.54 1186.74 Q2034.99 1186.74 2036.98 1184.54 Q2038.99 1182.35 2038.99 1178.55 L2038.99 1163.85 L2043.25 1163.85 L2043.25 1189.78 L2038.99 1189.78 L2038.99 1185.79 Q2037.44 1188.16 2035.38 1189.31 Q2033.34 1190.45 2030.63 1190.45 Q2026.17 1190.45 2023.85 1187.67 Q2021.54 1184.89 2021.54 1179.54 M2032.26 1163.23 L2032.26 1163.23 Z" fill="#000000" fill-rule="nonzero" fill-opacity="1" /><path clip-path="url(#clip600)" d="M2068.55 1164.61 L2068.55 1168.64 Q2066.75 1167.72 2064.8 1167.25 Q2062.86 1166.79 2060.77 1166.79 Q2057.6 1166.79 2056.01 1167.76 Q2054.43 1168.73 2054.43 1170.68 Q2054.43 1172.16 2055.57 1173.02 Q2056.7 1173.85 2060.13 1174.61 L2061.58 1174.94 Q2066.12 1175.91 2068.02 1177.69 Q2069.94 1179.45 2069.94 1182.62 Q2069.94 1186.23 2067.07 1188.34 Q2064.22 1190.45 2059.22 1190.45 Q2057.14 1190.45 2054.87 1190.03 Q2052.63 1189.64 2050.13 1188.83 L2050.13 1184.43 Q2052.49 1185.66 2054.78 1186.28 Q2057.07 1186.88 2059.32 1186.88 Q2062.32 1186.88 2063.94 1185.86 Q2065.57 1184.82 2065.57 1182.95 Q2065.57 1181.21 2064.38 1180.29 Q2063.23 1179.36 2059.27 1178.5 L2057.79 1178.16 Q2053.83 1177.32 2052.07 1175.61 Q2050.31 1173.87 2050.31 1170.86 Q2050.31 1167.21 2052.9 1165.22 Q2055.5 1163.23 2060.26 1163.23 Q2062.63 1163.23 2064.71 1163.57 Q2066.79 1163.92 2068.55 1164.61 Z" fill="#000000" fill-rule="nonzero" fill-opacity="1" /><path clip-path="url(#clip600)" d="M2080.94 1156.49 L2080.94 1163.85 L2089.71 1163.85 L2089.71 1167.16 L2080.94 1167.16 L2080.94 1181.23 Q2080.94 1184.41 2081.79 1185.31 Q2082.67 1186.21 2085.33 1186.21 L2089.71 1186.21 L2089.71 1189.78 L2085.33 1189.78 Q2080.4 1189.78 2078.53 1187.95 Q2076.65 1186.1 2076.65 1181.23 L2076.65 1167.16 L2073.53 1167.16 L2073.53 1163.85 L2076.65 1163.85 L2076.65 1156.49 L2080.94 1156.49 Z" fill="#000000" fill-rule="nonzero" fill-opacity="1" /><path clip-path="url(#clip600)" d="M2105.36 1166.84 Q2101.93 1166.84 2099.94 1169.52 Q2097.95 1172.18 2097.95 1176.84 Q2097.95 1181.49 2099.92 1184.17 Q2101.91 1186.84 2105.36 1186.84 Q2108.76 1186.84 2110.75 1184.15 Q2112.74 1181.47 2112.74 1176.84 Q2112.74 1172.23 2110.75 1169.54 Q2108.76 1166.84 2105.36 1166.84 M2105.36 1163.23 Q2110.91 1163.23 2114.08 1166.84 Q2117.25 1170.45 2117.25 1176.84 Q2117.25 1183.2 2114.08 1186.84 Q2110.91 1190.45 2105.36 1190.45 Q2099.78 1190.45 2096.61 1186.84 Q2093.46 1183.2 2093.46 1176.84 Q2093.46 1170.45 2096.61 1166.84 Q2099.78 1163.23 2105.36 1163.23 Z" fill="#000000" fill-rule="nonzero" fill-opacity="1" /><path clip-path="url(#clip600)" d="M2144.5 1168.83 Q2146.1 1165.96 2148.32 1164.59 Q2150.54 1163.23 2153.55 1163.23 Q2157.6 1163.23 2159.8 1166.07 Q2162 1168.9 2162 1174.13 L2162 1189.78 L2157.72 1189.78 L2157.72 1174.27 Q2157.72 1170.54 2156.4 1168.73 Q2155.08 1166.93 2152.37 1166.93 Q2149.06 1166.93 2147.14 1169.13 Q2145.22 1171.33 2145.22 1175.12 L2145.22 1189.78 L2140.94 1189.78 L2140.94 1174.27 Q2140.94 1170.52 2139.62 1168.73 Q2138.3 1166.93 2135.54 1166.93 Q2132.28 1166.93 2130.36 1169.15 Q2128.44 1171.35 2128.44 1175.12 L2128.44 1189.78 L2124.15 1189.78 L2124.15 1163.85 L2128.44 1163.85 L2128.44 1167.88 Q2129.89 1165.49 2131.93 1164.36 Q2133.97 1163.23 2136.77 1163.23 Q2139.59 1163.23 2141.56 1164.66 Q2143.55 1166.1 2144.5 1168.83 Z" fill="#000000" fill-rule="nonzero" fill-opacity="1" /><path clip-path="url(#clip600)" d="M2192.67 1175.75 L2192.67 1177.83 L2173.09 1177.83 Q2173.37 1182.23 2175.73 1184.54 Q2178.11 1186.84 2182.35 1186.84 Q2184.8 1186.84 2187.09 1186.23 Q2189.41 1185.63 2191.68 1184.43 L2191.68 1188.46 Q2189.38 1189.43 2186.98 1189.94 Q2184.57 1190.45 2182.09 1190.45 Q2175.89 1190.45 2172.25 1186.84 Q2168.64 1183.23 2168.64 1177.07 Q2168.64 1170.7 2172.07 1166.98 Q2175.52 1163.23 2181.35 1163.23 Q2186.58 1163.23 2189.62 1166.61 Q2192.67 1169.96 2192.67 1175.75 M2188.41 1174.5 Q2188.37 1171 2186.44 1168.92 Q2184.55 1166.84 2181.4 1166.84 Q2177.83 1166.84 2175.68 1168.85 Q2173.55 1170.86 2173.23 1174.52 L2188.41 1174.5 Z" fill="#000000" fill-rule="nonzero" fill-opacity="1" /><path clip-path="url(#clip600)" d="M2214.68 1167.83 Q2213.97 1167.42 2213.11 1167.23 Q2212.28 1167.02 2211.26 1167.02 Q2207.65 1167.02 2205.7 1169.38 Q2203.78 1171.72 2203.78 1176.12 L2203.78 1189.78 L2199.5 1189.78 L2199.5 1163.85 L2203.78 1163.85 L2203.78 1167.88 Q2205.12 1165.52 2207.28 1164.38 Q2209.43 1163.23 2212.51 1163.23 Q2212.95 1163.23 2213.48 1163.29 Q2214.01 1163.34 2214.66 1163.46 L2214.68 1167.83 Z" fill="#000000" fill-rule="nonzero" fill-opacity="1" /><path clip-path="url(#clip600)" d="M2238.85 1185.84 L2255.17 1185.84 L2255.17 1189.78 L2233.23 1189.78 L2233.23 1185.84 Q2235.89 1183.09 2240.47 1178.46 Q2245.08 1173.8 2246.26 1172.46 Q2248.5 1169.94 2249.38 1168.2 Q2250.29 1166.44 2250.29 1164.75 Q2250.29 1162 2248.34 1160.26 Q2246.42 1158.53 2243.32 1158.53 Q2241.12 1158.53 2238.67 1159.29 Q2236.24 1160.05 2233.46 1161.61 L2233.46 1156.88 Q2236.28 1155.75 2238.74 1155.17 Q2241.19 1154.59 2243.23 1154.59 Q2248.6 1154.59 2251.79 1157.28 Q2254.99 1159.96 2254.99 1164.45 Q2254.99 1166.58 2254.18 1168.5 Q2253.39 1170.4 2251.28 1172.99 Q2250.7 1173.67 2247.6 1176.88 Q2244.5 1180.08 2238.85 1185.84 Z" fill="#000000" fill-rule="nonzero" fill-opacity="1" /><polyline clip-path="url(#clip600)" style="stroke:#3da44d; stroke-linecap:round; stroke-linejoin:round; stroke-width:4; stroke-opacity:1; fill:none" points="1826.93,1224.34 1970.19,1224.34 "/>
<path clip-path="url(#clip600)" d="M2014.57 1216.69 L2014.57 1220.67 Q2012.76 1219.67 2010.94 1219.19 Q2009.13 1218.68 2007.28 1218.68 Q2003.14 1218.68 2000.84 1221.32 Q1998.55 1223.93 1998.55 1228.68 Q1998.55 1233.42 2000.84 1236.06 Q2003.14 1238.68 2007.28 1238.68 Q2009.13 1238.68 2010.94 1238.19 Q2012.76 1237.68 2014.57 1236.69 L2014.57 1240.62 Q2012.79 1241.45 2010.87 1241.87 Q2008.97 1242.29 2006.82 1242.29 Q2000.96 1242.29 1997.51 1238.61 Q1994.06 1234.93 1994.06 1228.68 Q1994.06 1222.33 1997.53 1218.7 Q2001.03 1215.07 2007.09 1215.07 Q2009.06 1215.07 2010.94 1215.48 Q2012.81 1215.88 2014.57 1216.69 Z" fill="#000000" fill-rule="nonzero" fill-opacity="1" /><path clip-path="url(#clip600)" d="M2021.54 1231.38 L2021.54 1215.69 L2025.8 1215.69 L2025.8 1231.22 Q2025.8 1234.9 2027.23 1236.76 Q2028.67 1238.58 2031.54 1238.58 Q2034.99 1238.58 2036.98 1236.38 Q2038.99 1234.19 2038.99 1230.39 L2038.99 1215.69 L2043.25 1215.69 L2043.25 1241.62 L2038.99 1241.62 L2038.99 1237.63 Q2037.44 1240 2035.38 1241.15 Q2033.34 1242.29 2030.63 1242.29 Q2026.17 1242.29 2023.85 1239.51 Q2021.54 1236.73 2021.54 1231.38 M2032.26 1215.07 L2032.26 1215.07 Z" fill="#000000" fill-rule="nonzero" fill-opacity="1" /><path clip-path="url(#clip600)" d="M2068.55 1216.45 L2068.55 1220.48 Q2066.75 1219.56 2064.8 1219.09 Q2062.86 1218.63 2060.77 1218.63 Q2057.6 1218.63 2056.01 1219.6 Q2054.43 1220.57 2054.43 1222.52 Q2054.43 1224 2055.57 1224.86 Q2056.7 1225.69 2060.13 1226.45 L2061.58 1226.78 Q2066.12 1227.75 2068.02 1229.53 Q2069.94 1231.29 2069.94 1234.46 Q2069.94 1238.07 2067.07 1240.18 Q2064.22 1242.29 2059.22 1242.29 Q2057.14 1242.29 2054.87 1241.87 Q2052.63 1241.48 2050.13 1240.67 L2050.13 1236.27 Q2052.49 1237.5 2054.78 1238.12 Q2057.07 1238.72 2059.32 1238.72 Q2062.32 1238.72 2063.94 1237.7 Q2065.57 1236.66 2065.57 1234.79 Q2065.57 1233.05 2064.38 1232.13 Q2063.23 1231.2 2059.27 1230.34 L2057.79 1230 Q2053.83 1229.16 2052.07 1227.45 Q2050.31 1225.71 2050.31 1222.7 Q2050.31 1219.05 2052.9 1217.06 Q2055.5 1215.07 2060.26 1215.07 Q2062.63 1215.07 2064.71 1215.41 Q2066.79 1215.76 2068.55 1216.45 Z" fill="#000000" fill-rule="nonzero" fill-opacity="1" /><path clip-path="url(#clip600)" d="M2080.94 1208.33 L2080.94 1215.69 L2089.71 1215.69 L2089.71 1219 L2080.94 1219 L2080.94 1233.07 Q2080.94 1236.25 2081.79 1237.15 Q2082.67 1238.05 2085.33 1238.05 L2089.71 1238.05 L2089.71 1241.62 L2085.33 1241.62 Q2080.4 1241.62 2078.53 1239.79 Q2076.65 1237.94 2076.65 1233.07 L2076.65 1219 L2073.53 1219 L2073.53 1215.69 L2076.65 1215.69 L2076.65 1208.33 L2080.94 1208.33 Z" fill="#000000" fill-rule="nonzero" fill-opacity="1" /><path clip-path="url(#clip600)" d="M2105.36 1218.68 Q2101.93 1218.68 2099.94 1221.36 Q2097.95 1224.02 2097.95 1228.68 Q2097.95 1233.33 2099.92 1236.01 Q2101.91 1238.68 2105.36 1238.68 Q2108.76 1238.68 2110.75 1235.99 Q2112.74 1233.31 2112.74 1228.68 Q2112.74 1224.07 2110.75 1221.38 Q2108.76 1218.68 2105.36 1218.68 M2105.36 1215.07 Q2110.91 1215.07 2114.08 1218.68 Q2117.25 1222.29 2117.25 1228.68 Q2117.25 1235.04 2114.08 1238.68 Q2110.91 1242.29 2105.36 1242.29 Q2099.78 1242.29 2096.61 1238.68 Q2093.46 1235.04 2093.46 1228.68 Q2093.46 1222.29 2096.61 1218.68 Q2099.78 1215.07 2105.36 1215.07 Z" fill="#000000" fill-rule="nonzero" fill-opacity="1" /><path clip-path="url(#clip600)" d="M2144.5 1220.67 Q2146.1 1217.8 2148.32 1216.43 Q2150.54 1215.07 2153.55 1215.07 Q2157.6 1215.07 2159.8 1217.91 Q2162 1220.74 2162 1225.97 L2162 1241.62 L2157.72 1241.62 L2157.72 1226.11 Q2157.72 1222.38 2156.4 1220.57 Q2155.08 1218.77 2152.37 1218.77 Q2149.06 1218.77 2147.14 1220.97 Q2145.22 1223.17 2145.22 1226.96 L2145.22 1241.62 L2140.94 1241.62 L2140.94 1226.11 Q2140.94 1222.36 2139.62 1220.57 Q2138.3 1218.77 2135.54 1218.77 Q2132.28 1218.77 2130.36 1220.99 Q2128.44 1223.19 2128.44 1226.96 L2128.44 1241.62 L2124.15 1241.62 L2124.15 1215.69 L2128.44 1215.69 L2128.44 1219.72 Q2129.89 1217.33 2131.93 1216.2 Q2133.97 1215.07 2136.77 1215.07 Q2139.59 1215.07 2141.56 1216.5 Q2143.55 1217.94 2144.5 1220.67 Z" fill="#000000" fill-rule="nonzero" fill-opacity="1" /><path clip-path="url(#clip600)" d="M2192.67 1227.59 L2192.67 1229.67 L2173.09 1229.67 Q2173.37 1234.07 2175.73 1236.38 Q2178.11 1238.68 2182.35 1238.68 Q2184.8 1238.68 2187.09 1238.07 Q2189.41 1237.47 2191.68 1236.27 L2191.68 1240.3 Q2189.38 1241.27 2186.98 1241.78 Q2184.57 1242.29 2182.09 1242.29 Q2175.89 1242.29 2172.25 1238.68 Q2168.64 1235.07 2168.64 1228.91 Q2168.64 1222.54 2172.07 1218.82 Q2175.52 1215.07 2181.35 1215.07 Q2186.58 1215.07 2189.62 1218.45 Q2192.67 1221.8 2192.67 1227.59 M2188.41 1226.34 Q2188.37 1222.84 2186.44 1220.76 Q2184.55 1218.68 2181.4 1218.68 Q2177.83 1218.68 2175.68 1220.69 Q2173.55 1222.7 2173.23 1226.36 L2188.41 1226.34 Z" fill="#000000" fill-rule="nonzero" fill-opacity="1" /><path clip-path="url(#clip600)" d="M2214.68 1219.67 Q2213.97 1219.26 2213.11 1219.07 Q2212.28 1218.86 2211.26 1218.86 Q2207.65 1218.86 2205.7 1221.22 Q2203.78 1223.56 2203.78 1227.96 L2203.78 1241.62 L2199.5 1241.62 L2199.5 1215.69 L2203.78 1215.69 L2203.78 1219.72 Q2205.12 1217.36 2207.28 1216.22 Q2209.43 1215.07 2212.51 1215.07 Q2212.95 1215.07 2213.48 1215.13 Q2214.01 1215.18 2214.66 1215.3 L2214.68 1219.67 Z" fill="#000000" fill-rule="nonzero" fill-opacity="1" /><path clip-path="url(#clip600)" d="M2248.99 1222.98 Q2252.35 1223.7 2254.22 1225.97 Q2256.12 1228.24 2256.12 1231.57 Q2256.12 1236.69 2252.6 1239.49 Q2249.08 1242.29 2242.6 1242.29 Q2240.43 1242.29 2238.11 1241.85 Q2235.82 1241.43 2233.37 1240.57 L2233.37 1236.06 Q2235.31 1237.19 2237.62 1237.77 Q2239.94 1238.35 2242.46 1238.35 Q2246.86 1238.35 2249.15 1236.62 Q2251.47 1234.88 2251.47 1231.57 Q2251.47 1228.51 2249.31 1226.8 Q2247.18 1225.07 2243.37 1225.07 L2239.34 1225.07 L2239.34 1221.22 L2243.55 1221.22 Q2247 1221.22 2248.83 1219.86 Q2250.66 1218.47 2250.66 1215.88 Q2250.66 1213.21 2248.76 1211.8 Q2246.88 1210.37 2243.37 1210.37 Q2241.44 1210.37 2239.24 1210.78 Q2237.05 1211.2 2234.41 1212.08 L2234.41 1207.91 Q2237.07 1207.17 2239.38 1206.8 Q2241.72 1206.43 2243.78 1206.43 Q2249.11 1206.43 2252.21 1208.86 Q2255.31 1211.27 2255.31 1215.39 Q2255.31 1218.26 2253.67 1220.25 Q2252.02 1222.22 2248.99 1222.98 Z" fill="#000000" fill-rule="nonzero" fill-opacity="1" /><polyline clip-path="url(#clip600)" style="stroke:#c271d2; stroke-linecap:round; stroke-linejoin:round; stroke-width:4; stroke-opacity:1; fill:none" points="1826.93,1276.18 1970.19,1276.18 "/>
<path clip-path="url(#clip600)" d="M2014.57 1268.53 L2014.57 1272.51 Q2012.76 1271.51 2010.94 1271.03 Q2009.13 1270.52 2007.28 1270.52 Q2003.14 1270.52 2000.84 1273.16 Q1998.55 1275.77 1998.55 1280.52 Q1998.55 1285.26 2000.84 1287.9 Q2003.14 1290.52 2007.28 1290.52 Q2009.13 1290.52 2010.94 1290.03 Q2012.76 1289.52 2014.57 1288.53 L2014.57 1292.46 Q2012.79 1293.29 2010.87 1293.71 Q2008.97 1294.13 2006.82 1294.13 Q2000.96 1294.13 1997.51 1290.45 Q1994.06 1286.77 1994.06 1280.52 Q1994.06 1274.17 1997.53 1270.54 Q2001.03 1266.91 2007.09 1266.91 Q2009.06 1266.91 2010.94 1267.32 Q2012.81 1267.72 2014.57 1268.53 Z" fill="#000000" fill-rule="nonzero" fill-opacity="1" /><path clip-path="url(#clip600)" d="M2021.54 1283.22 L2021.54 1267.53 L2025.8 1267.53 L2025.8 1283.06 Q2025.8 1286.74 2027.23 1288.6 Q2028.67 1290.42 2031.54 1290.42 Q2034.99 1290.42 2036.98 1288.22 Q2038.99 1286.03 2038.99 1282.23 L2038.99 1267.53 L2043.25 1267.53 L2043.25 1293.46 L2038.99 1293.46 L2038.99 1289.47 Q2037.44 1291.84 2035.38 1292.99 Q2033.34 1294.13 2030.63 1294.13 Q2026.17 1294.13 2023.85 1291.35 Q2021.54 1288.57 2021.54 1283.22 M2032.26 1266.91 L2032.26 1266.91 Z" fill="#000000" fill-rule="nonzero" fill-opacity="1" /><path clip-path="url(#clip600)" d="M2068.55 1268.29 L2068.55 1272.32 Q2066.75 1271.4 2064.8 1270.93 Q2062.86 1270.47 2060.77 1270.47 Q2057.6 1270.47 2056.01 1271.44 Q2054.43 1272.41 2054.43 1274.36 Q2054.43 1275.84 2055.57 1276.7 Q2056.7 1277.53 2060.13 1278.29 L2061.58 1278.62 Q2066.12 1279.59 2068.02 1281.37 Q2069.94 1283.13 2069.94 1286.3 Q2069.94 1289.91 2067.07 1292.02 Q2064.22 1294.13 2059.22 1294.13 Q2057.14 1294.13 2054.87 1293.71 Q2052.63 1293.32 2050.13 1292.51 L2050.13 1288.11 Q2052.49 1289.34 2054.78 1289.96 Q2057.07 1290.56 2059.32 1290.56 Q2062.32 1290.56 2063.94 1289.54 Q2065.57 1288.5 2065.57 1286.63 Q2065.57 1284.89 2064.38 1283.97 Q2063.23 1283.04 2059.27 1282.18 L2057.79 1281.84 Q2053.83 1281 2052.07 1279.29 Q2050.31 1277.55 2050.31 1274.54 Q2050.31 1270.89 2052.9 1268.9 Q2055.5 1266.91 2060.26 1266.91 Q2062.63 1266.91 2064.71 1267.25 Q2066.79 1267.6 2068.55 1268.29 Z" fill="#000000" fill-rule="nonzero" fill-opacity="1" /><path clip-path="url(#clip600)" d="M2080.94 1260.17 L2080.94 1267.53 L2089.71 1267.53 L2089.71 1270.84 L2080.94 1270.84 L2080.94 1284.91 Q2080.94 1288.09 2081.79 1288.99 Q2082.67 1289.89 2085.33 1289.89 L2089.71 1289.89 L2089.71 1293.46 L2085.33 1293.46 Q2080.4 1293.46 2078.53 1291.63 Q2076.65 1289.78 2076.65 1284.91 L2076.65 1270.84 L2073.53 1270.84 L2073.53 1267.53 L2076.65 1267.53 L2076.65 1260.17 L2080.94 1260.17 Z" fill="#000000" fill-rule="nonzero" fill-opacity="1" /><path clip-path="url(#clip600)" d="M2105.36 1270.52 Q2101.93 1270.52 2099.94 1273.2 Q2097.95 1275.86 2097.95 1280.52 Q2097.95 1285.17 2099.92 1287.85 Q2101.91 1290.52 2105.36 1290.52 Q2108.76 1290.52 2110.75 1287.83 Q2112.74 1285.15 2112.74 1280.52 Q2112.74 1275.91 2110.75 1273.22 Q2108.76 1270.52 2105.36 1270.52 M2105.36 1266.91 Q2110.91 1266.91 2114.08 1270.52 Q2117.25 1274.13 2117.25 1280.52 Q2117.25 1286.88 2114.08 1290.52 Q2110.91 1294.13 2105.36 1294.13 Q2099.78 1294.13 2096.61 1290.52 Q2093.46 1286.88 2093.46 1280.52 Q2093.46 1274.13 2096.61 1270.52 Q2099.78 1266.91 2105.36 1266.91 Z" fill="#000000" fill-rule="nonzero" fill-opacity="1" /><path clip-path="url(#clip600)" d="M2144.5 1272.51 Q2146.1 1269.64 2148.32 1268.27 Q2150.54 1266.91 2153.55 1266.91 Q2157.6 1266.91 2159.8 1269.75 Q2162 1272.58 2162 1277.81 L2162 1293.46 L2157.72 1293.46 L2157.72 1277.95 Q2157.72 1274.22 2156.4 1272.41 Q2155.08 1270.61 2152.37 1270.61 Q2149.06 1270.61 2147.14 1272.81 Q2145.22 1275.01 2145.22 1278.8 L2145.22 1293.46 L2140.94 1293.46 L2140.94 1277.95 Q2140.94 1274.2 2139.62 1272.41 Q2138.3 1270.61 2135.54 1270.61 Q2132.28 1270.61 2130.36 1272.83 Q2128.44 1275.03 2128.44 1278.8 L2128.44 1293.46 L2124.15 1293.46 L2124.15 1267.53 L2128.44 1267.53 L2128.44 1271.56 Q2129.89 1269.17 2131.93 1268.04 Q2133.97 1266.91 2136.77 1266.91 Q2139.59 1266.91 2141.56 1268.34 Q2143.55 1269.78 2144.5 1272.51 Z" fill="#000000" fill-rule="nonzero" fill-opacity="1" /><path clip-path="url(#clip600)" d="M2192.67 1279.43 L2192.67 1281.51 L2173.09 1281.51 Q2173.37 1285.91 2175.73 1288.22 Q2178.11 1290.52 2182.35 1290.52 Q2184.8 1290.52 2187.09 1289.91 Q2189.41 1289.31 2191.68 1288.11 L2191.68 1292.14 Q2189.38 1293.11 2186.98 1293.62 Q2184.57 1294.13 2182.09 1294.13 Q2175.89 1294.13 2172.25 1290.52 Q2168.64 1286.91 2168.64 1280.75 Q2168.64 1274.38 2172.07 1270.66 Q2175.52 1266.91 2181.35 1266.91 Q2186.58 1266.91 2189.62 1270.29 Q2192.67 1273.64 2192.67 1279.43 M2188.41 1278.18 Q2188.37 1274.68 2186.44 1272.6 Q2184.55 1270.52 2181.4 1270.52 Q2177.83 1270.52 2175.68 1272.53 Q2173.55 1274.54 2173.23 1278.2 L2188.41 1278.18 Z" fill="#000000" fill-rule="nonzero" fill-opacity="1" /><path clip-path="url(#clip600)" d="M2214.68 1271.51 Q2213.97 1271.1 2213.11 1270.91 Q2212.28 1270.7 2211.26 1270.7 Q2207.65 1270.7 2205.7 1273.06 Q2203.78 1275.4 2203.78 1279.8 L2203.78 1293.46 L2199.5 1293.46 L2199.5 1267.53 L2203.78 1267.53 L2203.78 1271.56 Q2205.12 1269.2 2207.28 1268.06 Q2209.43 1266.91 2212.51 1266.91 Q2212.95 1266.91 2213.48 1266.97 Q2214.01 1267.02 2214.66 1267.14 L2214.68 1271.51 Z" fill="#000000" fill-rule="nonzero" fill-opacity="1" /><path clip-path="url(#clip600)" d="M2247.67 1262.97 L2235.87 1281.42 L2247.67 1281.42 L2247.67 1262.97 M2246.44 1258.9 L2252.32 1258.9 L2252.32 1281.42 L2257.25 1281.42 L2257.25 1285.31 L2252.32 1285.31 L2252.32 1293.46 L2247.67 1293.46 L2247.67 1285.31 L2232.07 1285.31 L2232.07 1280.79 L2246.44 1258.9 Z" fill="#000000" fill-rule="nonzero" fill-opacity="1" /><polyline clip-path="url(#clip600)" style="stroke:#ac8d18; stroke-linecap:round; stroke-linejoin:round; stroke-width:4; stroke-opacity:1; fill:none" points="1826.93,1328.02 1970.19,1328.02 "/>
<path clip-path="url(#clip600)" d="M2014.57 1320.37 L2014.57 1324.35 Q2012.76 1323.35 2010.94 1322.87 Q2009.13 1322.36 2007.28 1322.36 Q2003.14 1322.36 2000.84 1325 Q1998.55 1327.61 1998.55 1332.36 Q1998.55 1337.1 2000.84 1339.74 Q2003.14 1342.36 2007.28 1342.36 Q2009.13 1342.36 2010.94 1341.87 Q2012.76 1341.36 2014.57 1340.37 L2014.57 1344.3 Q2012.79 1345.13 2010.87 1345.55 Q2008.97 1345.97 2006.82 1345.97 Q2000.96 1345.97 1997.51 1342.29 Q1994.06 1338.61 1994.06 1332.36 Q1994.06 1326.01 1997.53 1322.38 Q2001.03 1318.75 2007.09 1318.75 Q2009.06 1318.75 2010.94 1319.16 Q2012.81 1319.56 2014.57 1320.37 Z" fill="#000000" fill-rule="nonzero" fill-opacity="1" /><path clip-path="url(#clip600)" d="M2021.54 1335.06 L2021.54 1319.37 L2025.8 1319.37 L2025.8 1334.9 Q2025.8 1338.58 2027.23 1340.44 Q2028.67 1342.26 2031.54 1342.26 Q2034.99 1342.26 2036.98 1340.06 Q2038.99 1337.87 2038.99 1334.07 L2038.99 1319.37 L2043.25 1319.37 L2043.25 1345.3 L2038.99 1345.3 L2038.99 1341.31 Q2037.44 1343.68 2035.38 1344.83 Q2033.34 1345.97 2030.63 1345.97 Q2026.17 1345.97 2023.85 1343.19 Q2021.54 1340.41 2021.54 1335.06 M2032.26 1318.75 L2032.26 1318.75 Z" fill="#000000" fill-rule="nonzero" fill-opacity="1" /><path clip-path="url(#clip600)" d="M2068.55 1320.13 L2068.55 1324.16 Q2066.75 1323.24 2064.8 1322.77 Q2062.86 1322.31 2060.77 1322.31 Q2057.6 1322.31 2056.01 1323.28 Q2054.43 1324.25 2054.43 1326.2 Q2054.43 1327.68 2055.57 1328.54 Q2056.7 1329.37 2060.13 1330.13 L2061.58 1330.46 Q2066.12 1331.43 2068.02 1333.21 Q2069.94 1334.97 2069.94 1338.14 Q2069.94 1341.75 2067.07 1343.86 Q2064.22 1345.97 2059.22 1345.97 Q2057.14 1345.97 2054.87 1345.55 Q2052.63 1345.16 2050.13 1344.35 L2050.13 1339.95 Q2052.49 1341.18 2054.78 1341.8 Q2057.07 1342.4 2059.32 1342.4 Q2062.32 1342.4 2063.94 1341.38 Q2065.57 1340.34 2065.57 1338.47 Q2065.57 1336.73 2064.38 1335.81 Q2063.23 1334.88 2059.27 1334.02 L2057.79 1333.68 Q2053.83 1332.84 2052.07 1331.13 Q2050.31 1329.39 2050.31 1326.38 Q2050.31 1322.73 2052.9 1320.74 Q2055.5 1318.75 2060.26 1318.75 Q2062.63 1318.75 2064.71 1319.09 Q2066.79 1319.44 2068.55 1320.13 Z" fill="#000000" fill-rule="nonzero" fill-opacity="1" /><path clip-path="url(#clip600)" d="M2080.94 1312.01 L2080.94 1319.37 L2089.71 1319.37 L2089.71 1322.68 L2080.94 1322.68 L2080.94 1336.75 Q2080.94 1339.93 2081.79 1340.83 Q2082.67 1341.73 2085.33 1341.73 L2089.71 1341.73 L2089.71 1345.3 L2085.33 1345.3 Q2080.4 1345.3 2078.53 1343.47 Q2076.65 1341.62 2076.65 1336.75 L2076.65 1322.68 L2073.53 1322.68 L2073.53 1319.37 L2076.65 1319.37 L2076.65 1312.01 L2080.94 1312.01 Z" fill="#000000" fill-rule="nonzero" fill-opacity="1" /><path clip-path="url(#clip600)" d="M2105.36 1322.36 Q2101.93 1322.36 2099.94 1325.04 Q2097.95 1327.7 2097.95 1332.36 Q2097.95 1337.01 2099.92 1339.69 Q2101.91 1342.36 2105.36 1342.36 Q2108.76 1342.36 2110.75 1339.67 Q2112.74 1336.99 2112.74 1332.36 Q2112.74 1327.75 2110.75 1325.06 Q2108.76 1322.36 2105.36 1322.36 M2105.36 1318.75 Q2110.91 1318.75 2114.08 1322.36 Q2117.25 1325.97 2117.25 1332.36 Q2117.25 1338.72 2114.08 1342.36 Q2110.91 1345.97 2105.36 1345.97 Q2099.78 1345.97 2096.61 1342.36 Q2093.46 1338.72 2093.46 1332.36 Q2093.46 1325.97 2096.61 1322.36 Q2099.78 1318.75 2105.36 1318.75 Z" fill="#000000" fill-rule="nonzero" fill-opacity="1" /><path clip-path="url(#clip600)" d="M2144.5 1324.35 Q2146.1 1321.48 2148.32 1320.11 Q2150.54 1318.75 2153.55 1318.75 Q2157.6 1318.75 2159.8 1321.59 Q2162 1324.42 2162 1329.65 L2162 1345.3 L2157.72 1345.3 L2157.72 1329.79 Q2157.72 1326.06 2156.4 1324.25 Q2155.08 1322.45 2152.37 1322.45 Q2149.06 1322.45 2147.14 1324.65 Q2145.22 1326.85 2145.22 1330.64 L2145.22 1345.3 L2140.94 1345.3 L2140.94 1329.79 Q2140.94 1326.04 2139.62 1324.25 Q2138.3 1322.45 2135.54 1322.45 Q2132.28 1322.45 2130.36 1324.67 Q2128.44 1326.87 2128.44 1330.64 L2128.44 1345.3 L2124.15 1345.3 L2124.15 1319.37 L2128.44 1319.37 L2128.44 1323.4 Q2129.89 1321.01 2131.93 1319.88 Q2133.97 1318.75 2136.77 1318.75 Q2139.59 1318.75 2141.56 1320.18 Q2143.55 1321.62 2144.5 1324.35 Z" fill="#000000" fill-rule="nonzero" fill-opacity="1" /><path clip-path="url(#clip600)" d="M2192.67 1331.27 L2192.67 1333.35 L2173.09 1333.35 Q2173.37 1337.75 2175.73 1340.06 Q2178.11 1342.36 2182.35 1342.36 Q2184.8 1342.36 2187.09 1341.75 Q2189.41 1341.15 2191.68 1339.95 L2191.68 1343.98 Q2189.38 1344.95 2186.98 1345.46 Q2184.57 1345.97 2182.09 1345.97 Q2175.89 1345.97 2172.25 1342.36 Q2168.64 1338.75 2168.64 1332.59 Q2168.64 1326.22 2172.07 1322.5 Q2175.52 1318.75 2181.35 1318.75 Q2186.58 1318.75 2189.62 1322.13 Q2192.67 1325.48 2192.67 1331.27 M2188.41 1330.02 Q2188.37 1326.52 2186.44 1324.44 Q2184.55 1322.36 2181.4 1322.36 Q2177.83 1322.36 2175.68 1324.37 Q2173.55 1326.38 2173.23 1330.04 L2188.41 1330.02 Z" fill="#000000" fill-rule="nonzero" fill-opacity="1" /><path clip-path="url(#clip600)" d="M2214.68 1323.35 Q2213.97 1322.94 2213.11 1322.75 Q2212.28 1322.54 2211.26 1322.54 Q2207.65 1322.54 2205.7 1324.9 Q2203.78 1327.24 2203.78 1331.64 L2203.78 1345.3 L2199.5 1345.3 L2199.5 1319.37 L2203.78 1319.37 L2203.78 1323.4 Q2205.12 1321.04 2207.28 1319.9 Q2209.43 1318.75 2212.51 1318.75 Q2212.95 1318.75 2213.48 1318.81 Q2214.01 1318.86 2214.66 1318.98 L2214.68 1323.35 Z" fill="#000000" fill-rule="nonzero" fill-opacity="1" /><path clip-path="url(#clip600)" d="M2234.87 1310.74 L2253.23 1310.74 L2253.23 1314.67 L2239.15 1314.67 L2239.15 1323.14 Q2240.17 1322.8 2241.19 1322.63 Q2242.21 1322.45 2243.23 1322.45 Q2249.01 1322.45 2252.39 1325.62 Q2255.77 1328.79 2255.77 1334.21 Q2255.77 1339.79 2252.3 1342.89 Q2248.83 1345.97 2242.51 1345.97 Q2240.33 1345.97 2238.06 1345.6 Q2235.82 1345.23 2233.41 1344.49 L2233.41 1339.79 Q2235.49 1340.92 2237.72 1341.48 Q2239.94 1342.03 2242.42 1342.03 Q2246.42 1342.03 2248.76 1339.93 Q2251.1 1337.82 2251.1 1334.21 Q2251.1 1330.6 2248.76 1328.49 Q2246.42 1326.38 2242.42 1326.38 Q2240.54 1326.38 2238.67 1326.8 Q2236.81 1327.22 2234.87 1328.1 L2234.87 1310.74 Z" fill="#000000" fill-rule="nonzero" fill-opacity="1" /></svg>
